# Blender 3.3.21
# www.blender.org
mtllib EstanteriaCaja5x2_atlas.mtl
o EstanteriaCajas5X2
v -2.063260 0.699800 -0.989100
v -0.062560 0.699800 -0.989100
v -2.063260 0.699802 -2.978900
v -0.062560 0.699802 -2.978900
v -0.270060 -1.131800 -1.102100
v -0.165760 -1.131800 -1.102100
v -0.270060 0.699700 -1.102100
v -0.165760 0.699700 -1.102100
v -0.270060 0.699700 -1.217700
v -0.165760 0.699700 -1.217700
v -0.270060 -1.131800 -1.217700
v -0.165760 -1.131800 -1.217700
v -1.933360 -1.131800 -1.102100
v -1.829060 -1.131800 -1.102100
v -1.933360 0.699700 -1.102100
v -1.829060 0.699700 -1.102100
v -1.933360 0.699700 -1.217700
v -1.829060 0.699700 -1.217700
v -1.933360 -1.131800 -1.217700
v -1.829060 -1.131800 -1.217700
v -0.270060 -1.131800 -2.764600
v -0.165760 -1.131800 -2.764600
v -0.270060 0.699701 -2.764600
v -0.165760 0.699701 -2.764600
v -0.270060 0.699701 -2.880200
v -0.165760 0.699701 -2.880200
v -0.270060 -1.131800 -2.880200
v -0.165760 -1.131800 -2.880200
v -1.933360 -1.131800 -2.764600
v -1.829060 -1.131800 -2.764600
v -1.933360 0.699701 -2.764600
v -1.829060 0.699701 -2.764600
v -1.933360 0.699701 -2.880200
v -1.829060 0.699701 -2.880200
v -1.933360 -1.131800 -2.880200
v -1.829060 -1.131800 -2.880200
v -2.063260 -0.201400 -0.989100
v -0.062560 -0.201400 -0.989100
v -2.063260 -0.201400 -2.978900
v -0.062560 -0.201400 -2.978900
v -2.063260 -1.131800 -0.989100
v -0.062560 -1.131800 -0.989100
v -2.063260 -1.131800 -2.978900
v -0.062560 -1.131800 -2.978900
v -2.063260 0.699802 -3.105600
v -0.062560 0.699802 -3.105600
v -2.063260 0.699802 -5.095400
v -0.062560 0.699802 -5.095400
v -2.063260 -0.201398 -3.105600
v -0.062560 -0.201398 -3.105600
v -2.063260 -0.201398 -5.095400
v -0.062560 -0.201398 -5.095400
v -2.063260 -1.131800 -3.105600
v -0.062560 -1.131800 -3.105600
v -2.063260 -1.131798 -5.095400
v -0.062560 -1.131798 -5.095400
v -1.933360 -1.131800 -3.218600
v -1.829060 -1.131800 -3.218600
v -1.933360 0.699702 -3.218600
v -1.829060 0.699702 -3.218600
v -1.933360 0.699702 -3.334200
v -1.829060 0.699702 -3.334200
v -1.933360 -1.131798 -3.334200
v -1.829060 -1.131798 -3.334200
v -0.270060 -1.131800 -3.218600
v -0.165760 -1.131800 -3.218600
v -0.270060 0.699702 -3.218600
v -0.165760 0.699702 -3.218600
v -0.270060 0.699702 -3.334200
v -0.165760 0.699702 -3.334200
v -0.270060 -1.131798 -3.334200
v -0.165760 -1.131798 -3.334200
v -1.933360 -1.131798 -4.881100
v -1.829060 -1.131798 -4.881100
v -1.933360 0.699702 -4.881100
v -1.829060 0.699702 -4.881100
v -1.933360 0.699702 -4.996700
v -1.829060 0.699702 -4.996700
v -1.933360 -1.131798 -4.996700
v -1.829060 -1.131798 -4.996700
v -0.270060 -1.131798 -4.881100
v -0.165760 -1.131798 -4.881100
v -0.270060 0.699702 -4.881100
v -0.165760 0.699702 -4.881100
v -0.270060 0.699702 -4.996700
v -0.165760 0.699702 -4.996700
v -0.270060 -1.131798 -4.996700
v -0.165760 -1.131798 -4.996700
v -2.063260 0.699800 1.031300
v -0.062560 0.699800 1.031300
v -2.063260 0.699800 -0.958500
v -0.062560 0.699800 -0.958500
v -2.063260 -0.201400 1.031300
v -0.062560 -0.201400 1.031300
v -2.063260 -0.201400 -0.958500
v -0.062560 -0.201400 -0.958500
v -2.063260 -1.131800 1.031300
v -0.062560 -1.131800 1.031300
v -2.063260 -1.131800 -0.958500
v -0.062560 -1.131800 -0.958500
v -1.933360 -1.131800 0.918300
v -1.829060 -1.131800 0.918300
v -1.933360 0.699700 0.918300
v -1.829060 0.699700 0.918300
v -1.933360 0.699700 0.802700
v -1.829060 0.699700 0.802700
v -1.933360 -1.131800 0.802700
v -1.829060 -1.131800 0.802700
v -0.270060 -1.131800 0.918300
v -0.165760 -1.131800 0.918300
v -0.270060 0.699700 0.918300
v -0.165760 0.699700 0.918300
v -0.270060 0.699700 0.802700
v -0.165760 0.699700 0.802700
v -0.270060 -1.131800 0.802700
v -0.165760 -1.131800 0.802700
v -1.933360 -1.131800 -0.744200
v -1.829060 -1.131800 -0.744200
v -1.933360 0.699700 -0.744200
v -1.829060 0.699700 -0.744200
v -1.933360 0.699700 -0.859800
v -1.829060 0.699700 -0.859800
v -1.933360 -1.131800 -0.859800
v -1.829060 -1.131800 -0.859800
v -0.270060 -1.131800 -0.744200
v -0.165760 -1.131800 -0.744200
v -0.270060 0.699700 -0.744200
v -0.165760 0.699700 -0.744200
v -0.270060 0.699700 -0.859800
v -0.165760 0.699700 -0.859800
v -0.270060 -1.131800 -0.859800
v -0.165760 -1.131800 -0.859800
v -2.063260 0.699800 3.062100
v -0.062560 0.699800 3.062100
v -2.063260 0.699800 1.072300
v -0.062560 0.699800 1.072300
v -2.063260 -0.201400 3.062100
v -0.062560 -0.201400 3.062100
v -2.063260 -0.201400 1.072300
v -0.062560 -0.201400 1.072300
v -2.063260 -1.131801 3.062100
v -0.062560 -1.131801 3.062100
v -2.063260 -1.131800 1.072300
v -0.062560 -1.131800 1.072300
v -1.933360 -1.131801 2.949100
v -1.829060 -1.131801 2.949100
v -1.933360 0.699700 2.949100
v -1.829060 0.699700 2.949100
v -1.933360 0.699700 2.833500
v -1.829060 0.699700 2.833500
v -1.933360 -1.131801 2.833500
v -1.829060 -1.131801 2.833500
v -0.270060 -1.131801 2.949100
v -0.165760 -1.131801 2.949100
v -0.270060 0.699700 2.949100
v -0.165760 0.699700 2.949100
v -0.270060 0.699700 2.833500
v -0.165760 0.699700 2.833500
v -0.270060 -1.131801 2.833500
v -0.165760 -1.131801 2.833500
v -1.933360 -1.131800 1.286600
v -1.829060 -1.131800 1.286600
v -1.933360 0.699700 1.286600
v -1.829060 0.699700 1.286600
v -1.933360 0.699700 1.171000
v -1.829060 0.699700 1.171000
v -1.933360 -1.131800 1.171000
v -1.829060 -1.131800 1.171000
v -0.270060 -1.131800 1.286600
v -0.165760 -1.131800 1.286600
v -0.270060 0.699700 1.286600
v -0.165760 0.699700 1.286600
v -0.270060 0.699700 1.171000
v -0.165760 0.699700 1.171000
v -0.270060 -1.131800 1.171000
v -0.165760 -1.131800 1.171000
v -2.063260 0.699798 5.106400
v -0.062560 0.699798 5.106400
v -2.063260 0.699799 3.116600
v -0.062560 0.699799 3.116600
v -2.063260 -0.201402 5.106400
v -0.062560 -0.201402 5.106400
v -2.063260 -0.201402 3.116600
v -0.062560 -0.201402 3.116600
v -2.063260 -1.131802 5.106400
v -0.062560 -1.131802 5.106400
v -2.063260 -1.131801 3.116600
v -0.062560 -1.131801 3.116600
v -1.933360 -1.131802 4.993400
v -1.829060 -1.131802 4.993400
v -1.933360 0.699698 4.993400
v -1.829060 0.699698 4.993400
v -1.933360 0.699698 4.877800
v -1.829060 0.699698 4.877800
v -1.933360 -1.131802 4.877800
v -1.829060 -1.131802 4.877800
v -0.270060 -1.131802 4.993400
v -0.165760 -1.131802 4.993400
v -0.270060 0.699698 4.993400
v -0.165760 0.699698 4.993400
v -0.270060 0.699698 4.877800
v -0.165760 0.699698 4.877800
v -0.270060 -1.131802 4.877800
v -0.165760 -1.131802 4.877800
v -1.933360 -1.131802 3.330900
v -1.829060 -1.131802 3.330900
v -1.933360 0.699699 3.330900
v -1.829060 0.699699 3.330900
v -1.933360 0.699699 3.215300
v -1.829060 0.699699 3.215300
v -1.933360 -1.131801 3.215300
v -1.829060 -1.131801 3.215300
v -0.270060 -1.131802 3.330900
v -0.165760 -1.131802 3.330900
v -0.270060 0.699699 3.330900
v -0.165760 0.699699 3.330900
v -0.270060 0.699699 3.215300
v -0.165760 0.699699 3.215300
v -0.270060 -1.131801 3.215300
v -0.165760 -1.131801 3.215300
v 0.034240 -0.201402 5.106400
v 2.034940 -0.201402 5.106400
v 0.034240 -0.201402 3.116600
v 2.034940 -0.201402 3.116600
v 0.034240 -1.131802 5.106400
v 2.034940 -1.131802 5.106400
v 0.034240 -1.131801 3.116600
v 2.034940 -1.131801 3.116600
v 0.164140 -1.131802 3.330900
v 0.268440 -1.131802 3.330900
v 0.164140 0.699699 3.330900
v 0.268440 0.699699 3.330900
v 0.164140 0.699699 3.215300
v 0.268440 0.699699 3.215300
v 0.164140 -1.131801 3.215300
v 0.268440 -1.131801 3.215300
v 0.034240 -1.131801 3.062100
v 2.034940 -1.131801 3.062100
v 0.034240 -1.131800 1.072300
v 2.034940 -1.131800 1.072300
v 0.164140 -1.131801 2.949100
v 0.268440 -1.131801 2.949100
v 0.164140 0.699700 2.949100
v 0.268440 0.699700 2.949100
v 0.164140 0.699700 2.833500
v 0.268440 0.699700 2.833500
v 0.164140 -1.131801 2.833500
v 0.268440 -1.131801 2.833500
v 0.034240 -0.201400 3.062100
v 2.034940 -0.201400 3.062100
v 0.034240 -0.201400 1.072300
v 2.034940 -0.201400 1.072300
v 0.034240 0.699800 3.062100
v 2.034940 0.699800 3.062100
v 0.034240 0.699800 1.072300
v 2.034940 0.699800 1.072300
v 0.034240 -0.201400 1.031300
v 2.034940 -0.201400 1.031300
v 0.034240 -0.201400 -0.958500
v 2.034940 -0.201400 -0.958500
v 0.034240 0.699800 1.031300
v 2.034940 0.699800 1.031300
v 0.034240 0.699800 -0.958500
v 2.034940 0.699800 -0.958500
v 0.034240 -1.131800 1.031300
v 2.034940 -1.131800 1.031300
v 0.034240 -1.131800 -0.958500
v 2.034940 -1.131800 -0.958500
v 0.034240 -1.131800 -0.989100
v 2.034940 -1.131800 -0.989100
v 0.034240 -1.131800 -2.978900
v 2.034940 -1.131800 -2.978900
v 0.164140 -1.131800 -1.102100
v 0.268440 -1.131800 -1.102100
v 0.164140 0.699700 -1.102100
v 0.268440 0.699700 -1.102100
v 0.164140 0.699700 -1.217700
v 0.268440 0.699700 -1.217700
v 0.164140 -1.131800 -1.217700
v 0.268440 -1.131800 -1.217700
v 0.034240 -0.201400 -0.989100
v 2.034940 -0.201400 -0.989100
v 0.034240 -0.201400 -2.978900
v 2.034940 -0.201400 -2.978900
v 0.164140 -1.131800 -0.744200
v 0.268440 -1.131800 -0.744200
v 0.164140 0.699700 -0.744200
v 0.268440 0.699700 -0.744200
v 0.164140 0.699700 -0.859800
v 0.268440 0.699700 -0.859800
v 0.164140 -1.131800 -0.859800
v 0.268440 -1.131800 -0.859800
v 0.164140 -1.131800 1.286600
v 0.268440 -1.131800 1.286600
v 0.164140 0.699700 1.286600
v 0.268440 0.699700 1.286600
v 0.164140 0.699700 1.171000
v 0.268440 0.699700 1.171000
v 0.164140 -1.131800 1.171000
v 0.268440 -1.131800 1.171000
v 0.164140 -1.131800 0.918300
v 0.268440 -1.131800 0.918300
v 0.164140 0.699700 0.918300
v 0.268440 0.699700 0.918300
v 0.164140 0.699700 0.802700
v 0.268440 0.699700 0.802700
v 0.164140 -1.131800 0.802700
v 0.268440 -1.131800 0.802700
v 0.164140 -1.131802 4.993400
v 0.268440 -1.131802 4.993400
v 0.164140 0.699698 4.993400
v 0.268440 0.699698 4.993400
v 0.164140 0.699698 4.877800
v 0.268440 0.699698 4.877800
v 0.164140 -1.131802 4.877800
v 0.268440 -1.131802 4.877800
v 0.164140 -1.131800 -2.764600
v 0.268440 -1.131800 -2.764600
v 0.164140 0.699701 -2.764600
v 0.268440 0.699701 -2.764600
v 0.164140 0.699701 -2.880200
v 0.268440 0.699701 -2.880200
v 0.164140 -1.131800 -2.880200
v 0.268440 -1.131800 -2.880200
v 0.034240 0.699802 -3.105600
v 2.034940 0.699802 -3.105600
v 0.034240 0.699802 -5.095400
v 2.034940 0.699802 -5.095400
v 0.034240 -0.201398 -3.105600
v 2.034940 -0.201398 -3.105600
v 0.034240 -0.201398 -5.095400
v 2.034940 -0.201398 -5.095400
v 0.164140 -1.131798 -4.881100
v 0.268440 -1.131798 -4.881100
v 0.164140 0.699702 -4.881100
v 0.268440 0.699702 -4.881100
v 0.164140 0.699702 -4.996700
v 0.268440 0.699702 -4.996700
v 0.164140 -1.131798 -4.996700
v 0.268440 -1.131798 -4.996700
v 0.164140 -1.131800 -3.218600
v 0.268440 -1.131800 -3.218600
v 0.164140 0.699702 -3.218600
v 0.268440 0.699702 -3.218600
v 0.164140 0.699702 -3.334200
v 0.268440 0.699702 -3.334200
v 0.164140 -1.131798 -3.334200
v 0.268440 -1.131798 -3.334200
v 1.827439 -1.131798 -4.881100
v 1.931740 -1.131798 -4.881100
v 1.827439 0.699702 -4.881100
v 1.931740 0.699702 -4.881100
v 1.827439 0.699702 -4.996700
v 1.931740 0.699702 -4.996700
v 1.827439 -1.131798 -4.996700
v 1.931740 -1.131798 -4.996700
v 1.827439 -1.131800 -3.218600
v 1.931740 -1.131800 -3.218600
v 1.827439 0.699702 -3.218600
v 1.931740 0.699702 -3.218600
v 1.827439 0.699702 -3.334200
v 1.931740 0.699702 -3.334200
v 1.827439 -1.131798 -3.334200
v 1.931740 -1.131798 -3.334200
v 1.827439 -1.131800 -2.764600
v 1.931740 -1.131800 -2.764600
v 1.827439 0.699701 -2.764600
v 1.931740 0.699701 -2.764600
v 1.827439 0.699701 -2.880200
v 1.931740 0.699701 -2.880200
v 1.827439 -1.131800 -2.880200
v 1.931740 -1.131800 -2.880200
v 1.827439 -1.131800 -0.744200
v 1.931740 -1.131800 -0.744200
v 1.827439 0.699700 -0.744200
v 1.931740 0.699700 -0.744200
v 1.827439 0.699700 -0.859800
v 1.931740 0.699700 -0.859800
v 1.827439 -1.131800 -0.859800
v 1.931740 -1.131800 -0.859800
v 1.827439 -1.131800 -1.102100
v 1.931740 -1.131800 -1.102100
v 1.827439 0.699700 -1.102100
v 1.931740 0.699700 -1.102100
v 1.827439 0.699700 -1.217700
v 1.931740 0.699700 -1.217700
v 1.827439 -1.131800 -1.217700
v 1.931740 -1.131800 -1.217700
v 1.827439 -1.131800 1.286600
v 1.931740 -1.131800 1.286600
v 1.827439 0.699700 1.286600
v 1.931740 0.699700 1.286600
v 1.827439 0.699700 1.171000
v 1.931740 0.699700 1.171000
v 1.827439 -1.131800 1.171000
v 1.931740 -1.131800 1.171000
v 1.827439 -1.131800 0.918300
v 1.931740 -1.131800 0.918300
v 1.827439 0.699700 0.918300
v 1.931740 0.699700 0.918300
v 1.827439 0.699700 0.802700
v 1.931740 0.699700 0.802700
v 1.827439 -1.131800 0.802700
v 1.931740 -1.131800 0.802700
v 1.827439 -1.131802 3.330900
v 1.931740 -1.131802 3.330900
v 1.827439 0.699699 3.330900
v 1.931740 0.699699 3.330900
v 1.827439 0.699699 3.215300
v 1.931740 0.699699 3.215300
v 1.827439 -1.131801 3.215300
v 1.931740 -1.131801 3.215300
v 1.827439 -1.131801 2.949100
v 1.931740 -1.131801 2.949100
v 1.827439 0.699700 2.949100
v 1.931740 0.699700 2.949100
v 1.827439 0.699700 2.833500
v 1.931740 0.699700 2.833500
v 1.827439 -1.131801 2.833500
v 1.931740 -1.131801 2.833500
v 1.827439 -1.131802 4.993400
v 1.931740 -1.131802 4.993400
v 1.827439 0.699698 4.993400
v 1.931740 0.699698 4.993400
v 1.827439 0.699698 4.877800
v 1.931740 0.699698 4.877800
v 1.827439 -1.131802 4.877800
v 1.931740 -1.131802 4.877800
v 0.034240 0.699798 5.106400
v 2.034940 0.699798 5.106400
v 0.034240 0.699799 3.116600
v 2.034940 0.699799 3.116600
v 0.034240 -1.131800 -3.105600
v 2.034940 -1.131800 -3.105600
v 0.034240 -1.131798 -5.095400
v 2.034940 -1.131798 -5.095400
v 0.034240 0.699800 -0.989100
v 2.034940 0.699800 -0.989100
v 0.034240 0.699802 -2.978900
v 2.034940 0.699802 -2.978900
v 1.203641 0.702398 4.393899
v 1.618841 0.702398 4.393899
v 1.203641 1.111697 4.393899
v 1.618841 1.111697 4.393899
v 1.203641 1.111697 3.757100
v 1.618841 1.111697 3.757100
v 1.203641 0.702398 3.757100
v 1.618841 0.702398 3.757100
v 0.499141 0.702398 4.393899
v 0.914342 0.702398 4.393899
v 0.499141 1.111697 4.393899
v 0.914342 1.111697 4.393899
v 0.499141 1.111697 3.757100
v 0.914342 1.111697 3.757100
v 0.499141 0.702398 3.757100
v 0.914342 0.702398 3.757100
v 0.499141 -0.198702 4.393899
v 0.914342 -0.198702 4.393899
v 0.499141 0.210598 4.393899
v 0.914342 0.210598 4.393899
v 0.499141 0.210598 3.757100
v 0.914342 0.210598 3.757100
v 0.499141 -0.198702 3.757100
v 0.914342 -0.198702 3.757100
v 1.203641 -0.198702 4.393899
v 1.618841 -0.198702 4.393899
v 1.203641 0.210598 4.393899
v 1.618841 0.210598 4.393899
v 1.203641 0.210598 3.757100
v 1.618841 0.210598 3.757100
v 1.203641 -0.198702 3.757100
v 1.618841 -0.198702 3.757100
v 0.499141 -1.129702 4.393899
v 0.914342 -1.129702 4.393899
v 0.499141 -0.720402 4.393899
v 0.914342 -0.720402 4.393899
v 0.499141 -0.720402 3.757100
v 0.914342 -0.720402 3.757100
v 0.499141 -1.129702 3.757100
v 0.914342 -1.129702 3.757100
v 1.203641 -1.129702 4.393899
v 1.618841 -1.129702 4.393899
v 1.203641 -0.720402 4.393899
v 1.618841 -0.720402 4.393899
v 1.203641 -0.720402 3.757100
v 1.618841 -0.720402 3.757100
v 1.203641 -1.129702 3.757100
v 1.618841 -1.129702 3.757100
v -1.600356 0.702398 4.393899
v -1.185156 0.702398 4.393899
v -1.600356 1.111697 4.393899
v -1.185156 1.111697 4.393899
v -1.600356 1.111697 3.757100
v -1.185156 1.111697 3.757100
v -1.600356 0.702398 3.757100
v -1.185156 0.702398 3.757100
v -0.895857 0.702398 4.393899
v -0.480656 0.702398 4.393899
v -0.895857 1.111697 4.393899
v -0.480656 1.111697 4.393899
v -0.895857 1.111697 3.757100
v -0.480656 1.111697 3.757100
v -0.895857 0.702398 3.757100
v -0.480656 0.702398 3.757100
v -0.895857 -0.198702 4.393899
v -0.480656 -0.198702 4.393899
v -0.895857 0.210598 4.393899
v -0.480656 0.210598 4.393899
v -0.895857 0.210598 3.757100
v -0.480656 0.210598 3.757100
v -0.895857 -0.198702 3.757100
v -0.480656 -0.198702 3.757100
v -1.600356 -0.198702 4.393899
v -1.185156 -0.198702 4.393899
v -1.600356 0.210598 4.393899
v -1.185156 0.210598 4.393899
v -1.600356 0.210598 3.757100
v -1.185156 0.210598 3.757100
v -1.600356 -0.198702 3.757100
v -1.185156 -0.198702 3.757100
v -1.600356 -1.129702 4.393899
v -1.185156 -1.129702 4.393899
v -1.600356 -0.720402 4.393899
v -1.185156 -0.720402 4.393899
v -1.600356 -0.720402 3.757100
v -1.185156 -0.720402 3.757100
v -1.600356 -1.129702 3.757100
v -1.185156 -1.129702 3.757100
v -0.895857 -1.129702 4.393899
v -0.480656 -1.129702 4.393899
v -0.895857 -0.720402 4.393899
v -0.480656 -0.720402 4.393899
v -0.895857 -0.720402 3.757100
v -0.480656 -0.720402 3.757100
v -0.895857 -1.129702 3.757100
v -0.480656 -1.129702 3.757100
v -1.600356 -1.129700 2.328899
v -1.185156 -1.129700 2.328899
v -1.600356 -0.720401 2.328899
v -1.185156 -0.720401 2.328899
v -1.600356 -0.720401 1.692100
v -1.185156 -0.720401 1.692100
v -1.600356 -1.129700 1.692100
v -1.185156 -1.129700 1.692100
v -0.895857 -1.129700 2.328899
v -0.480656 -1.129700 2.328899
v -0.895857 -0.720401 2.328899
v -0.480656 -0.720401 2.328899
v -0.895857 -0.720401 1.692100
v -0.480656 -0.720401 1.692100
v -0.895857 -1.129700 1.692100
v -0.480656 -1.129700 1.692100
v -0.895857 -0.198701 2.328899
v -0.480656 -0.198701 2.328899
v -0.895857 0.210599 2.328899
v -0.480656 0.210599 2.328899
v -0.895857 0.210599 1.692100
v -0.480656 0.210599 1.692100
v -0.895857 -0.198701 1.692100
v -0.480656 -0.198701 1.692100
v -1.600356 -0.198701 2.328899
v -1.185156 -0.198701 2.328899
v -1.600356 0.210599 2.328899
v -1.185156 0.210599 2.328899
v -1.600356 0.210599 1.692100
v -1.185156 0.210599 1.692100
v -1.600356 -0.198701 1.692100
v -1.185156 -0.198701 1.692100
v -1.600356 0.702399 2.328899
v -1.185156 0.702399 2.328899
v -1.600356 1.111699 2.328899
v -1.185156 1.111699 2.328899
v -1.600356 1.111699 1.692100
v -1.185156 1.111699 1.692100
v -1.600356 0.702399 1.692100
v -1.185156 0.702399 1.692100
v -0.895857 0.702399 2.328899
v -0.480656 0.702399 2.328899
v -0.895857 1.111699 2.328899
v -0.480656 1.111699 2.328899
v -0.895857 1.111699 1.692100
v -0.480656 1.111699 1.692100
v -0.895857 0.702399 1.692100
v -0.480656 0.702399 1.692100
v 0.499141 0.702399 2.328899
v 0.914342 0.702399 2.328899
v 0.499141 1.111699 2.328899
v 0.914342 1.111699 2.328899
v 0.499141 1.111699 1.692100
v 0.914342 1.111699 1.692100
v 0.499141 0.702399 1.692100
v 0.914342 0.702399 1.692100
v 1.203641 0.702399 2.328899
v 1.618841 0.702399 2.328899
v 1.203641 1.111699 2.328899
v 1.618841 1.111699 2.328899
v 1.203641 1.111699 1.692100
v 1.618841 1.111699 1.692100
v 1.203641 0.702399 1.692100
v 1.618841 0.702399 1.692100
v 1.203641 -0.198701 2.328899
v 1.618841 -0.198701 2.328899
v 1.203641 0.210599 2.328899
v 1.618841 0.210599 2.328899
v 1.203641 0.210599 1.692100
v 1.618841 0.210599 1.692100
v 1.203641 -0.198701 1.692100
v 1.618841 -0.198701 1.692100
v 0.499141 -0.198701 2.328899
v 0.914342 -0.198701 2.328899
v 0.499141 0.210599 2.328899
v 0.914342 0.210599 2.328899
v 0.499141 0.210599 1.692100
v 0.914342 0.210599 1.692100
v 0.499141 -0.198701 1.692100
v 0.914342 -0.198701 1.692100
v 0.499141 -1.129700 2.328899
v 0.914342 -1.129700 2.328899
v 0.499141 -0.720401 2.328899
v 0.914342 -0.720401 2.328899
v 0.499141 -0.720401 1.692100
v 0.914342 -0.720401 1.692100
v 0.499141 -1.129700 1.692100
v 0.914342 -1.129700 1.692100
v 1.203641 -1.129700 2.328899
v 1.618841 -1.129700 2.328899
v 1.203641 -0.720401 2.328899
v 1.618841 -0.720401 2.328899
v 1.203641 -0.720401 1.692100
v 1.618841 -0.720401 1.692100
v 1.203641 -1.129700 1.692100
v 1.618841 -1.129700 1.692100
v -1.600356 -1.129700 0.307798
v -1.185156 -1.129700 0.307798
v -1.600356 -0.720400 0.307798
v -1.185156 -0.720400 0.307798
v -1.600356 -0.720400 -0.329000
v -1.185156 -0.720400 -0.329000
v -1.600356 -1.129700 -0.329000
v -1.185156 -1.129700 -0.329000
v -0.895857 -1.129700 0.307798
v -0.480656 -1.129700 0.307798
v -0.895857 -0.720400 0.307798
v -0.480656 -0.720400 0.307798
v -0.895857 -0.720400 -0.329000
v -0.480656 -0.720400 -0.329000
v -0.895857 -1.129700 -0.329000
v -0.480656 -1.129700 -0.329000
v -0.895857 -0.198700 0.307798
v -0.480656 -0.198700 0.307798
v -0.895857 0.210600 0.307799
v -0.480656 0.210600 0.307799
v -0.895857 0.210600 -0.329000
v -0.480656 0.210600 -0.329000
v -0.895857 -0.198700 -0.329000
v -0.480656 -0.198700 -0.329000
v -1.600356 -0.198700 0.307798
v -1.185156 -0.198700 0.307798
v -1.600356 0.210600 0.307799
v -1.185156 0.210600 0.307799
v -1.600356 0.210600 -0.329000
v -1.185156 0.210600 -0.329000
v -1.600356 -0.198700 -0.329000
v -1.185156 -0.198700 -0.329000
v -1.600356 0.702400 0.307799
v -1.185156 0.702400 0.307799
v -1.600356 1.111699 0.307799
v -1.185156 1.111699 0.307799
v -1.600356 1.111699 -0.329000
v -1.185156 1.111699 -0.329000
v -1.600356 0.702400 -0.329000
v -1.185156 0.702400 -0.329000
v -0.895857 0.702400 0.307799
v -0.480656 0.702400 0.307799
v -0.895857 1.111699 0.307799
v -0.480656 1.111699 0.307799
v -0.895857 1.111699 -0.329000
v -0.480656 1.111699 -0.329000
v -0.895857 0.702400 -0.329000
v -0.480656 0.702400 -0.329000
v 0.499141 0.702400 0.307799
v 0.914342 0.702400 0.307799
v 0.499141 1.111699 0.307799
v 0.914342 1.111699 0.307799
v 0.499141 1.111699 -0.329000
v 0.914342 1.111699 -0.329000
v 0.499141 0.702400 -0.329000
v 0.914342 0.702400 -0.329000
v 1.203641 0.702400 0.307799
v 1.618841 0.702400 0.307799
v 1.203641 1.111699 0.307799
v 1.618841 1.111699 0.307799
v 1.203641 1.111699 -0.329000
v 1.618841 1.111699 -0.329000
v 1.203641 0.702400 -0.329000
v 1.618841 0.702400 -0.329000
v 1.203641 -0.198700 0.307798
v 1.618841 -0.198700 0.307798
v 1.203641 0.210600 0.307799
v 1.618841 0.210600 0.307799
v 1.203641 0.210600 -0.329000
v 1.618841 0.210600 -0.329000
v 1.203641 -0.198700 -0.329000
v 1.618841 -0.198700 -0.329000
v 0.499141 -0.198700 0.307798
v 0.914342 -0.198700 0.307798
v 0.499141 0.210600 0.307799
v 0.914342 0.210600 0.307799
v 0.499141 0.210600 -0.329000
v 0.914342 0.210600 -0.329000
v 0.499141 -0.198700 -0.329000
v 0.914342 -0.198700 -0.329000
v 0.499141 -1.129700 0.307798
v 0.914342 -1.129700 0.307798
v 0.499141 -0.720400 0.307798
v 0.914342 -0.720400 0.307798
v 0.499141 -0.720400 -0.329000
v 0.914342 -0.720400 -0.329000
v 0.499141 -1.129700 -0.329000
v 0.914342 -1.129700 -0.329000
v 1.203641 -1.129700 0.307798
v 1.618841 -1.129700 0.307798
v 1.203641 -0.720400 0.307798
v 1.618841 -0.720400 0.307798
v 1.203641 -0.720400 -0.329000
v 1.618841 -0.720400 -0.329000
v 1.203641 -1.129700 -0.329000
v 1.618841 -1.129700 -0.329000
v -1.600356 -1.129700 -1.707702
v -1.185156 -1.129700 -1.707702
v -1.600356 -0.720400 -1.707702
v -1.185156 -0.720400 -1.707702
v -1.600356 -0.720400 -2.344501
v -1.185156 -0.720400 -2.344501
v -1.600356 -1.129700 -2.344501
v -1.185156 -1.129700 -2.344501
v -0.895857 -1.129700 -1.707702
v -0.480656 -1.129700 -1.707702
v -0.895857 -0.720400 -1.707702
v -0.480656 -0.720400 -1.707702
v -0.895857 -0.720400 -2.344501
v -0.480656 -0.720400 -2.344501
v -0.895857 -1.129700 -2.344501
v -0.480656 -1.129700 -2.344501
v -0.895857 -0.198700 -1.707702
v -0.480656 -0.198700 -1.707702
v -0.895857 0.210600 -1.707702
v -0.480656 0.210600 -1.707702
v -0.895857 0.210600 -2.344501
v -0.480656 0.210600 -2.344501
v -0.895857 -0.198700 -2.344501
v -0.480656 -0.198700 -2.344501
v -1.600356 -0.198700 -1.707702
v -1.185156 -0.198700 -1.707702
v -1.600356 0.210600 -1.707702
v -1.185156 0.210600 -1.707702
v -1.600356 0.210600 -2.344501
v -1.185156 0.210600 -2.344501
v -1.600356 -0.198700 -2.344501
v -1.185156 -0.198700 -2.344501
v -1.600356 0.702400 -1.707702
v -1.185156 0.702400 -1.707702
v -1.600356 1.111699 -1.707702
v -1.185156 1.111699 -1.707702
v -1.600356 1.111699 -2.344501
v -1.185156 1.111699 -2.344501
v -1.600356 0.702400 -2.344501
v -1.185156 0.702400 -2.344501
v -0.895857 0.702400 -1.707702
v -0.480656 0.702400 -1.707702
v -0.895857 1.111699 -1.707702
v -0.480656 1.111699 -1.707702
v -0.895857 1.111699 -2.344501
v -0.480656 1.111699 -2.344501
v -0.895857 0.702400 -2.344501
v -0.480656 0.702400 -2.344501
v 0.499141 0.702400 -1.707702
v 0.914342 0.702400 -1.707702
v 0.499141 1.111699 -1.707702
v 0.914342 1.111699 -1.707702
v 0.499141 1.111699 -2.344501
v 0.914342 1.111699 -2.344501
v 0.499141 0.702400 -2.344501
v 0.914342 0.702400 -2.344501
v 1.203641 0.702400 -1.707702
v 1.618841 0.702400 -1.707702
v 1.203641 1.111699 -1.707702
v 1.618841 1.111699 -1.707702
v 1.203641 1.111699 -2.344501
v 1.618841 1.111699 -2.344501
v 1.203641 0.702400 -2.344501
v 1.618841 0.702400 -2.344501
v 1.203641 -0.198700 -1.707702
v 1.618841 -0.198700 -1.707702
v 1.203641 0.210600 -1.707702
v 1.618841 0.210600 -1.707702
v 1.203641 0.210600 -2.344501
v 1.618841 0.210600 -2.344501
v 1.203641 -0.198700 -2.344501
v 1.618841 -0.198700 -2.344501
v 0.499141 -0.198700 -1.707702
v 0.914342 -0.198700 -1.707702
v 0.499141 0.210600 -1.707702
v 0.914342 0.210600 -1.707702
v 0.499141 0.210600 -2.344501
v 0.914342 0.210600 -2.344501
v 0.499141 -0.198700 -2.344501
v 0.914342 -0.198700 -2.344501
v 0.499141 -1.129700 -1.707702
v 0.914342 -1.129700 -1.707702
v 0.499141 -0.720400 -1.707702
v 0.914342 -0.720400 -1.707702
v 0.499141 -0.720400 -2.344501
v 0.914342 -0.720400 -2.344501
v 0.499141 -1.129700 -2.344501
v 0.914342 -1.129700 -2.344501
v 1.203641 -1.129700 -1.707702
v 1.618841 -1.129700 -1.707702
v 1.203641 -0.720400 -1.707702
v 1.618841 -0.720400 -1.707702
v 1.203641 -0.720400 -2.344501
v 1.618841 -0.720400 -2.344501
v 1.203641 -1.129700 -2.344501
v 1.618841 -1.129700 -2.344501
v -1.600356 -1.129698 -3.814802
v -1.185156 -1.129698 -3.814802
v -1.600356 -0.720399 -3.814802
v -1.185156 -0.720399 -3.814802
v -1.600356 -0.720399 -4.451600
v -1.185156 -0.720399 -4.451600
v -1.600356 -1.129698 -4.451600
v -1.185156 -1.129698 -4.451600
v -0.895857 -1.129698 -3.814802
v -0.480656 -1.129698 -3.814802
v -0.895857 -0.720399 -3.814802
v -0.480656 -0.720399 -3.814802
v -0.895857 -0.720399 -4.451600
v -0.480656 -0.720399 -4.451600
v -0.895857 -1.129698 -4.451600
v -0.480656 -1.129698 -4.451600
v -0.895857 -0.198699 -3.814802
v -0.480656 -0.198699 -3.814802
v -0.895857 0.210601 -3.814802
v -0.480656 0.210601 -3.814802
v -0.895857 0.210601 -4.451600
v -0.480656 0.210601 -4.451600
v -0.895857 -0.198699 -4.451600
v -0.480656 -0.198699 -4.451600
v -1.600356 -0.198699 -3.814802
v -1.185156 -0.198699 -3.814802
v -1.600356 0.210601 -3.814802
v -1.185156 0.210601 -3.814802
v -1.600356 0.210601 -4.451600
v -1.185156 0.210601 -4.451600
v -1.600356 -0.198699 -4.451600
v -1.185156 -0.198699 -4.451600
v -1.600356 0.702401 -3.814802
v -1.185156 0.702401 -3.814802
v -1.600356 1.111701 -3.814802
v -1.185156 1.111701 -3.814802
v -1.600356 1.111701 -4.451600
v -1.185156 1.111701 -4.451600
v -1.600356 0.702401 -4.451600
v -1.185156 0.702401 -4.451600
v -0.895857 0.702401 -3.814802
v -0.480656 0.702401 -3.814802
v -0.895857 1.111701 -3.814802
v -0.480656 1.111701 -3.814802
v -0.895857 1.111701 -4.451600
v -0.480656 1.111701 -4.451600
v -0.895857 0.702401 -4.451600
v -0.480656 0.702401 -4.451600
v 0.499141 0.702401 -3.814802
v 0.914342 0.702401 -3.814802
v 0.499141 1.111701 -3.814802
v 0.914342 1.111701 -3.814802
v 0.499141 1.111701 -4.451600
v 0.914342 1.111701 -4.451600
v 0.499141 0.702401 -4.451600
v 0.914342 0.702401 -4.451600
v 1.203641 0.702401 -3.814802
v 1.618841 0.702401 -3.814802
v 1.203641 1.111701 -3.814802
v 1.618841 1.111701 -3.814802
v 1.203641 1.111701 -4.451600
v 1.618841 1.111701 -4.451600
v 1.203641 0.702401 -4.451600
v 1.618841 0.702401 -4.451600
v 1.203641 -0.198699 -3.814802
v 1.618841 -0.198699 -3.814802
v 1.203641 0.210601 -3.814802
v 1.618841 0.210601 -3.814802
v 1.203641 0.210601 -4.451600
v 1.618841 0.210601 -4.451600
v 1.203641 -0.198699 -4.451600
v 1.618841 -0.198699 -4.451600
v 0.499141 -0.198699 -3.814802
v 0.914342 -0.198699 -3.814802
v 0.499141 0.210601 -3.814802
v 0.914342 0.210601 -3.814802
v 0.499141 0.210601 -4.451600
v 0.914342 0.210601 -4.451600
v 0.499141 -0.198699 -4.451600
v 0.914342 -0.198699 -4.451600
v 0.499141 -1.129698 -3.814802
v 0.914342 -1.129698 -3.814802
v 0.499141 -0.720399 -3.814802
v 0.914342 -0.720399 -3.814802
v 0.499141 -0.720399 -4.451600
v 0.914342 -0.720399 -4.451600
v 0.499141 -1.129698 -4.451600
v 0.914342 -1.129698 -4.451600
v 1.203641 -1.129698 -3.814802
v 1.618841 -1.129698 -3.814802
v 1.203641 -0.720399 -3.814802
v 1.618841 -0.720399 -3.814802
v 1.203641 -0.720399 -4.451600
v 1.618841 -0.720399 -4.451600
v 1.203641 -1.129698 -4.451600
v 1.618841 -1.129698 -4.451600
vn -0.0000 1.0000 -0.0000
vn -0.0000 -0.0000 1.0000
vn -0.0000 -0.0000 -1.0000
vn -1.0000 -0.0000 -0.0000
vn 1.0000 -0.0000 -0.0000
vt 0.250000 0.500000
vt 0.250000 0.500000
vt 0.250000 0.500000
vt 0.250000 0.500000
vt 0.252922 0.500000
vt 0.252922 0.500000
vt 0.252922 0.500000
vt 0.252922 0.500000
vt 0.252922 0.500000
vt 0.252922 0.500000
vt 0.252922 0.500000
vt 0.252922 0.500000
vt 0.252922 0.500000
vt 0.252922 0.500000
vt 0.252922 0.500000
vt 0.252922 0.500000
vt 0.252922 0.500000
vt 0.252922 0.500000
vt 0.252922 0.500000
vt 0.252922 0.500000
vt 0.252922 0.500000
vt 0.252922 0.500000
vt 0.252922 0.500000
vt 0.252922 0.500000
vt 0.252922 0.500000
vt 0.252922 0.500000
vt 0.252922 0.500000
vt 0.252922 0.500000
vt 0.252922 0.500000
vt 0.252922 0.500000
vt 0.252922 0.500000
vt 0.252922 0.500000
vt 0.252922 0.500000
vt 0.252922 0.500000
vt 0.252922 0.500000
vt 0.252922 0.500000
vt 0.250000 0.500000
vt 0.250000 0.500000
vt 0.250000 0.500000
vt 0.250000 0.500000
vt 0.250000 0.500000
vt 0.250000 0.500000
vt 0.250000 0.500000
vt 0.250000 0.500000
vt 0.250000 0.500000
vt 0.250000 0.500000
vt 0.250000 0.500000
vt 0.250000 0.500000
vt 0.250000 0.500000
vt 0.250000 0.500000
vt 0.250000 0.500000
vt 0.250000 0.500000
vt 0.250000 0.500000
vt 0.250000 0.500000
vt 0.250000 0.500000
vt 0.250000 0.500000
vt 0.248000 0.500000
vt 0.248000 0.500000
vt 0.248000 0.500000
vt 0.248000 0.500000
vt 0.248000 0.500000
vt 0.248000 0.500000
vt 0.248000 0.500000
vt 0.248000 0.500000
vt 0.248000 0.500000
vt 0.248000 0.500000
vt 0.248000 0.500000
vt 0.248000 0.500000
vt 0.248000 0.500000
vt 0.248000 0.500000
vt 0.248000 0.500000
vt 0.248000 0.500000
vt 0.248000 0.500000
vt 0.248000 0.500000
vt 0.248000 0.500000
vt 0.248000 0.500000
vt 0.248000 0.500000
vt 0.248000 0.500000
vt 0.248000 0.500000
vt 0.248000 0.500000
vt 0.248000 0.500000
vt 0.248000 0.500000
vt 0.248000 0.500000
vt 0.248000 0.500000
vt 0.248000 0.500000
vt 0.248000 0.500000
vt 0.248000 0.500000
vt 0.248000 0.500000
vt 0.250000 0.500000
vt 0.250000 0.500000
vt 0.250000 0.500000
vt 0.250000 0.500000
vt 0.250000 0.500000
vt 0.250000 0.500000
vt 0.250000 0.500000
vt 0.250000 0.500000
vt 0.250000 0.500000
vt 0.250000 0.500000
vt 0.250000 0.500000
vt 0.250000 0.500000
vt 0.250461 0.500000
vt 0.250461 0.500000
vt 0.250461 0.500000
vt 0.250461 0.500000
vt 0.250461 0.500000
vt 0.250461 0.500000
vt 0.250461 0.500000
vt 0.250461 0.500000
vt 0.250461 0.500000
vt 0.250461 0.500000
vt 0.250461 0.500000
vt 0.250461 0.500000
vt 0.250461 0.500000
vt 0.250461 0.500000
vt 0.250461 0.500000
vt 0.250461 0.500000
vt 0.250461 0.500000
vt 0.250461 0.500000
vt 0.250461 0.500000
vt 0.250461 0.500000
vt 0.250461 0.500000
vt 0.250461 0.500000
vt 0.250461 0.500000
vt 0.250461 0.500000
vt 0.250461 0.500000
vt 0.250461 0.500000
vt 0.250461 0.500000
vt 0.250461 0.500000
vt 0.250461 0.500000
vt 0.250461 0.500000
vt 0.250461 0.500000
vt 0.250461 0.500000
vt 0.250000 0.500000
vt 0.250000 0.500000
vt 0.250000 0.500000
vt 0.250000 0.500000
vt 0.250000 0.500000
vt 0.250000 0.500000
vt 0.250000 0.500000
vt 0.250000 0.500000
vt 0.250000 0.500000
vt 0.250000 0.500000
vt 0.250000 0.500000
vt 0.250000 0.500000
vt 0.248000 0.500000
vt 0.248000 0.500000
vt 0.248000 0.500000
vt 0.248000 0.500000
vt 0.248000 0.500000
vt 0.248000 0.500000
vt 0.248000 0.500000
vt 0.248000 0.500000
vt 0.248000 0.500000
vt 0.248000 0.500000
vt 0.248000 0.500000
vt 0.248000 0.500000
vt 0.248000 0.500000
vt 0.248000 0.500000
vt 0.248000 0.500000
vt 0.248000 0.500000
vt 0.248000 0.500000
vt 0.248000 0.500000
vt 0.248000 0.500000
vt 0.248000 0.500000
vt 0.248000 0.500000
vt 0.248000 0.500000
vt 0.248000 0.500000
vt 0.248000 0.500000
vt 0.248000 0.500000
vt 0.248000 0.500000
vt 0.248000 0.500000
vt 0.248000 0.500000
vt 0.248000 0.500000
vt 0.248000 0.500000
vt 0.248000 0.500000
vt 0.248000 0.500000
vt 0.250000 0.500000
vt 0.250000 0.500000
vt 0.250000 0.500000
vt 0.250000 0.500000
vt 0.250000 0.500000
vt 0.250000 0.500000
vt 0.250000 0.500000
vt 0.250000 0.500000
vt 0.250000 0.500000
vt 0.250000 0.500000
vt 0.250000 0.500000
vt 0.250000 0.500000
vt 0.245539 0.500000
vt 0.245539 0.500000
vt 0.245539 0.500000
vt 0.245539 0.500000
vt 0.245539 0.500000
vt 0.245539 0.500000
vt 0.245539 0.500000
vt 0.245539 0.500000
vt 0.245539 0.500000
vt 0.245539 0.500000
vt 0.245539 0.500000
vt 0.245539 0.500000
vt 0.245539 0.500000
vt 0.245539 0.500000
vt 0.245539 0.500000
vt 0.245539 0.500000
vt 0.245539 0.500000
vt 0.245539 0.500000
vt 0.245539 0.500000
vt 0.245539 0.500000
vt 0.245539 0.500000
vt 0.245539 0.500000
vt 0.245539 0.500000
vt 0.245539 0.500000
vt 0.245539 0.500000
vt 0.245539 0.500000
vt 0.245539 0.500000
vt 0.245539 0.500000
vt 0.245539 0.500000
vt 0.245539 0.500000
vt 0.245539 0.500000
vt 0.245539 0.500000
vt 0.250000 0.500000
vt 0.250000 0.500000
vt 0.250000 0.500000
vt 0.250000 0.500000
vt 0.250000 0.500000
vt 0.250000 0.500000
vt 0.250000 0.500000
vt 0.250000 0.500000
vt 0.250000 0.500000
vt 0.250000 0.500000
vt 0.250000 0.500000
vt 0.250000 0.500000
vt 0.250000 0.500000
vt 0.250000 0.500000
vt 0.250000 0.500000
vt 0.250000 0.500000
vt 0.250000 0.500000
vt 0.250000 0.500000
vt 0.250000 0.500000
vt 0.250000 0.500000
vt 0.250461 0.500000
vt 0.250461 0.500000
vt 0.250461 0.500000
vt 0.250461 0.500000
vt 0.250461 0.500000
vt 0.250461 0.500000
vt 0.250461 0.500000
vt 0.250461 0.500000
vt 0.250000 0.500000
vt 0.250000 0.500000
vt 0.250000 0.500000
vt 0.250000 0.500000
vt 0.250000 0.500000
vt 0.250000 0.500000
vt 0.250000 0.500000
vt 0.250000 0.500000
vt 0.250000 0.500000
vt 0.250000 0.500000
vt 0.250000 0.500000
vt 0.250000 0.500000
vt 0.250000 0.500000
vt 0.250000 0.500000
vt 0.250000 0.500000
vt 0.250000 0.500000
vt 0.250000 0.500000
vt 0.250000 0.500000
vt 0.250000 0.500000
vt 0.250000 0.500000
vt 0.250000 0.500000
vt 0.250000 0.500000
vt 0.250000 0.500000
vt 0.250000 0.500000
vt 0.245539 0.500000
vt 0.245539 0.500000
vt 0.245539 0.500000
vt 0.245539 0.500000
vt 0.245539 0.500000
vt 0.245539 0.500000
vt 0.245539 0.500000
vt 0.245539 0.500000
vt 0.250000 0.500000
vt 0.250000 0.500000
vt 0.250000 0.500000
vt 0.250000 0.500000
vt 0.250461 0.500000
vt 0.250461 0.500000
vt 0.250461 0.500000
vt 0.250461 0.500000
vt 0.750000 0.500000
vt 0.250461 0.500000
vt 0.750000 0.500000
vt 0.250461 0.500000
vt 0.750000 0.500000
vt 0.250461 0.500000
vt 0.750000 0.500000
vt 0.250461 0.500000
vt 0.250461 0.500000
vt 0.250461 0.500000
vt 0.250461 0.500000
vt 0.250461 0.500000
vt 0.250461 0.500000
vt 0.250461 0.500000
vt 0.250461 0.500000
vt 0.250461 0.500000
vt 0.250461 0.500000
vt 0.250461 0.500000
vt 0.250461 0.500000
vt 0.250461 0.500000
vt 0.250461 0.500000
vt 0.250461 0.500000
vt 0.250461 0.500000
vt 0.250461 0.500000
vt 0.250000 0.500000
vt 0.250000 0.500000
vt 0.250000 0.500000
vt 0.250000 0.500000
vt 0.250000 0.500000
vt 0.250000 0.500000
vt 0.250000 0.500000
vt 0.250000 0.500000
vt 0.245539 0.500000
vt 0.245539 0.500000
vt 0.245539 0.500000
vt 0.245539 0.500000
vt 0.245539 0.500000
vt 0.245539 0.500000
vt 0.245539 0.500000
vt 0.245539 0.500000
vt 0.250000 0.500000
vt 0.250000 0.500000
vt 0.250000 0.500000
vt 0.250000 0.500000
vt 0.250000 0.500000
vt 0.250000 0.500000
vt 0.250000 0.500000
vt 0.250000 0.500000
vt 0.248000 0.500000
vt 0.248000 0.500000
vt 0.248000 0.500000
vt 0.248000 0.500000
vt 0.248000 0.500000
vt 0.248000 0.500000
vt 0.248000 0.500000
vt 0.248000 0.500000
vt 0.248000 0.500000
vt 0.248000 0.500000
vt 0.248000 0.500000
vt 0.248000 0.500000
vt 0.248000 0.500000
vt 0.248000 0.500000
vt 0.248000 0.500000
vt 0.248000 0.500000
vt 0.248000 0.500000
vt 0.248000 0.500000
vt 0.248000 0.500000
vt 0.248000 0.500000
vt 0.248000 0.500000
vt 0.248000 0.500000
vt 0.248000 0.500000
vt 0.248000 0.500000
vt 0.248000 0.500000
vt 0.248000 0.500000
vt 0.248000 0.500000
vt 0.248000 0.500000
vt 0.248000 0.500000
vt 0.248000 0.500000
vt 0.248000 0.500000
vt 0.248000 0.500000
vt 0.245539 0.500000
vt 0.245539 0.500000
vt 0.245539 0.500000
vt 0.245539 0.500000
vt 0.245539 0.500000
vt 0.245539 0.500000
vt 0.245539 0.500000
vt 0.245539 0.500000
vt 0.250461 0.500000
vt 0.250461 0.500000
vt 0.250461 0.500000
vt 0.250461 0.500000
vt 0.250461 0.500000
vt 0.250461 0.500000
vt 0.250461 0.500000
vt 0.250461 0.500000
vt 0.245539 0.500000
vt 0.245539 0.500000
vt 0.245539 0.500000
vt 0.245539 0.500000
vt 0.245539 0.500000
vt 0.245539 0.500000
vt 0.245539 0.500000
vt 0.245539 0.500000
vt 0.250461 0.500000
vt 0.250461 0.500000
vt 0.250461 0.500000
vt 0.250461 0.500000
vt 0.250461 0.500000
vt 0.250461 0.500000
vt 0.250461 0.500000
vt 0.250461 0.500000
vt 0.250461 0.500000
vt 0.250461 0.500000
vt 0.250461 0.500000
vt 0.250461 0.500000
vt 0.250461 0.500000
vt 0.250461 0.500000
vt 0.250461 0.500000
vt 0.250461 0.500000
vt 0.250000 0.500000
vt 0.250000 0.500000
vt 0.250000 0.500000
vt 0.250000 0.500000
vt 0.250000 0.500000
vt 0.250000 0.500000
vt 0.250000 0.500000
vt 0.250000 0.500000
vt 0.250461 0.500000
vt 0.250461 0.500000
vt 0.250461 0.500000
vt 0.250461 0.500000
vt 0.250461 0.500000
vt 0.250461 0.500000
vt 0.250461 0.500000
vt 0.250461 0.500000
vt 0.250000 0.500000
vt 0.250000 0.500000
vt 0.250000 0.500000
vt 0.250000 0.500000
vt 0.250000 0.500000
vt 0.250000 0.500000
vt 0.250000 0.500000
vt 0.250000 0.500000
vt 0.250000 0.500000
vt 0.250000 0.500000
vt 0.250000 0.500000
vt 0.250000 0.500000
vt 0.250000 0.500000
vt 0.250000 0.500000
vt 0.250000 0.500000
vt 0.250000 0.500000
vt 0.250000 0.500000
vt 0.250000 0.500000
vt 0.250000 0.500000
vt 0.250000 0.500000
vt 0.750000 0.500000
vt 0.750000 0.500000
vt 0.750000 0.500000
vt 0.750000 0.500000
vt 0.750000 0.500000
vt 0.750000 0.500000
vt 0.750000 0.500000
vt 0.750000 0.500000
vt 0.750000 0.500000
vt 0.750000 0.500000
vt 0.750000 0.500000
vt 0.750000 0.500000
vt 0.750000 0.500000
vt 0.750000 0.500000
vt 0.750000 0.500000
vt 0.750000 0.500000
vt 0.750000 0.500000
vt 0.750000 0.500000
vt 0.750000 0.500000
vt 0.750000 0.500000
vt 0.750000 0.500000
vt 0.750000 0.500000
vt 0.750000 0.500000
vt 0.750000 0.500000
vt 0.750000 0.500000
vt 0.750000 0.500000
vt 0.750000 0.500000
vt 0.750000 0.500000
vt 0.750000 0.500000
vt 0.750000 0.500000
vt 0.750000 0.500000
vt 0.750000 0.500000
vt 0.750000 0.500000
vt 0.750000 0.500000
vt 0.750000 0.500000
vt 0.750000 0.500000
vt 0.750000 0.500000
vt 0.750000 0.500000
vt 0.750000 0.500000
vt 0.750000 0.500000
vt 0.750000 0.500000
vt 0.750000 0.500000
vt 0.750000 0.500000
vt 0.750000 0.500000
vt 0.750000 0.500000
vt 0.750000 0.500000
vt 0.750000 0.500000
vt 0.750000 0.500000
vt 0.750000 0.500000
vt 0.750000 0.500000
vt 0.750000 0.500000
vt 0.750000 0.500000
vt 0.750000 0.500000
vt 0.750000 0.500000
vt 0.750000 0.500000
vt 0.750000 0.500000
vt 0.750000 0.500000
vt 0.750000 0.500000
vt 0.750000 0.500000
vt 0.750000 0.500000
vt 0.750000 0.500000
vt 0.750000 0.500000
vt 0.750000 0.500000
vt 0.750000 0.500000
vt 0.750000 0.500000
vt 0.750000 0.500000
vt 0.750000 0.500000
vt 0.750000 0.500000
vt 0.750000 0.500000
vt 0.750000 0.500000
vt 0.750000 0.500000
vt 0.750000 0.500000
vt 0.750000 0.500000
vt 0.750000 0.500000
vt 0.750000 0.500000
vt 0.750000 0.500000
vt 0.750000 0.500000
vt 0.750000 0.500000
vt 0.750000 0.500000
vt 0.750000 0.500000
vt 0.750000 0.500000
vt 0.750000 0.500000
vt 0.750000 0.500000
vt 0.750000 0.500000
vt 0.750000 0.500000
vt 0.750000 0.500000
vt 0.750000 0.500000
vt 0.750000 0.500000
vt 0.750000 0.500000
vt 0.750000 0.500000
vt 0.750000 0.500000
vt 0.750000 0.500000
vt 0.750000 0.500000
vt 0.750000 0.500000
vt 0.750000 0.500000
vt 0.750000 0.500000
vt 0.750000 0.500000
vt 0.750000 0.500000
vt 0.750000 0.500000
vt 0.750000 0.500000
vt 0.750000 0.500000
vt 0.750000 0.500000
vt 0.750000 0.500000
vt 0.750000 0.500000
vt 0.750000 0.500000
vt 0.750000 0.500000
vt 0.750000 0.500000
vt 0.750000 0.500000
vt 0.750000 0.500000
vt 0.750000 0.500000
vt 0.750000 0.500000
vt 0.750000 0.500000
vt 0.750000 0.500000
vt 0.750000 0.500000
vt 0.750000 0.500000
vt 0.750000 0.500000
vt 0.750000 0.500000
vt 0.750000 0.500000
vt 0.750000 0.500000
vt 0.750000 0.500000
vt 0.750000 0.500000
vt 0.750000 0.500000
vt 0.750000 0.500000
vt 0.750000 0.500000
vt 0.750000 0.500000
vt 0.750000 0.500000
vt 0.750000 0.500000
vt 0.750000 0.500000
vt 0.750000 0.500000
vt 0.750000 0.500000
vt 0.750000 0.500000
vt 0.750000 0.500000
vt 0.750000 0.500000
vt 0.750000 0.500000
vt 0.750000 0.500000
vt 0.750000 0.500000
vt 0.750000 0.500000
vt 0.750000 0.500000
vt 0.750000 0.500000
vt 0.750000 0.500000
vt 0.750000 0.500000
vt 0.750000 0.500000
vt 0.750000 0.500000
vt 0.750000 0.500000
vt 0.750000 0.500000
vt 0.750000 0.500000
vt 0.750000 0.500000
vt 0.750000 0.500000
vt 0.750000 0.500000
vt 0.750000 0.500000
vt 0.750000 0.500000
vt 0.750000 0.500000
vt 0.750000 0.500000
vt 0.750000 0.500000
vt 0.750000 0.500000
vt 0.750000 0.500000
vt 0.750000 0.500000
vt 0.750000 0.500000
vt 0.750000 0.500000
vt 0.750000 0.500000
vt 0.750000 0.500000
vt 0.750000 0.500000
vt 0.750000 0.500000
vt 0.750000 0.500000
vt 0.750000 0.500000
vt 0.750000 0.500000
vt 0.750000 0.500000
vt 0.750000 0.500000
vt 0.750000 0.500000
vt 0.750000 0.500000
vt 0.750000 0.500000
vt 0.750000 0.500000
vt 0.750000 0.500000
vt 0.750000 0.500000
vt 0.750000 0.500000
vt 0.750000 0.500000
vt 0.750000 0.500000
vt 0.750000 0.500000
vt 0.750000 0.500000
vt 0.750000 0.500000
vt 0.750000 0.500000
vt 0.750000 0.500000
vt 0.750000 0.500000
vt 0.750000 0.500000
vt 0.750000 0.500000
vt 0.750000 0.500000
vt 0.750000 0.500000
vt 0.750000 0.500000
vt 0.750000 0.500000
vt 0.750000 0.500000
vt 0.750000 0.500000
vt 0.750000 0.500000
vt 0.750000 0.500000
vt 0.750000 0.500000
vt 0.750000 0.500000
vt 0.750000 0.500000
vt 0.750000 0.500000
vt 0.750000 0.500000
vt 0.750000 0.500000
vt 0.750000 0.500000
vt 0.750000 0.500000
vt 0.750000 0.500000
vt 0.750000 0.500000
vt 0.750000 0.500000
vt 0.750000 0.500000
vt 0.750000 0.500000
vt 0.750000 0.500000
vt 0.750000 0.500000
vt 0.750000 0.500000
vt 0.750000 0.500000
vt 0.750000 0.500000
vt 0.750000 0.500000
vt 0.750000 0.500000
vt 0.750000 0.500000
vt 0.750000 0.500000
vt 0.750000 0.500000
vt 0.750000 0.500000
vt 0.750000 0.500000
vt 0.750000 0.500000
vt 0.750000 0.500000
vt 0.750000 0.500000
vt 0.750000 0.500000
vt 0.750000 0.500000
vt 0.750000 0.500000
vt 0.750000 0.500000
vt 0.750000 0.500000
vt 0.750000 0.500000
vt 0.750000 0.500000
vt 0.750000 0.500000
vt 0.750000 0.500000
vt 0.750000 0.500000
vt 0.750000 0.500000
vt 0.750000 0.500000
vt 0.750000 0.500000
vt 0.750000 0.500000
vt 0.750000 0.500000
vt 0.750000 0.500000
vt 0.750000 0.500000
vt 0.750000 0.500000
vt 0.750000 0.500000
vt 0.750000 0.500000
vt 0.750000 0.500000
vt 0.750000 0.500000
vt 0.750000 0.500000
vt 0.750000 0.500000
vt 0.750000 0.500000
vt 0.750000 0.500000
vt 0.750000 0.500000
vt 0.750000 0.500000
vt 0.750000 0.500000
vt 0.750000 0.500000
vt 0.750000 0.500000
vt 0.750000 0.500000
vt 0.750000 0.500000
vt 0.750000 0.500000
vt 0.750000 0.500000
vt 0.750000 0.500000
vt 0.750000 0.500000
vt 0.750000 0.500000
vt 0.750000 0.500000
vt 0.750000 0.500000
vt 0.750000 0.500000
vt 0.750000 0.500000
vt 0.750000 0.500000
vt 0.750000 0.500000
vt 0.750000 0.500000
vt 0.750000 0.500000
vt 0.750000 0.500000
vt 0.750000 0.500000
vt 0.750000 0.500000
vt 0.750000 0.500000
vt 0.750000 0.500000
vt 0.750000 0.500000
vt 0.750000 0.500000
vt 0.750000 0.500000
vt 0.750000 0.500000
vt 0.750000 0.500000
vt 0.750000 0.500000
vt 0.750000 0.500000
vt 0.750000 0.500000
vt 0.750000 0.500000
vt 0.750000 0.500000
vt 0.750000 0.500000
vt 0.750000 0.500000
vt 0.750000 0.500000
vt 0.750000 0.500000
vt 0.750000 0.500000
vt 0.750000 0.500000
vt 0.750000 0.500000
vt 0.750000 0.500000
vt 0.750000 0.500000
vt 0.750000 0.500000
vt 0.750000 0.500000
vt 0.750000 0.500000
vt 0.750000 0.500000
vt 0.750000 0.500000
vt 0.750000 0.500000
vt 0.750000 0.500000
vt 0.750000 0.500000
vt 0.750000 0.500000
vt 0.750000 0.500000
vt 0.750000 0.500000
vt 0.750000 0.500000
vt 0.750000 0.500000
vt 0.750000 0.500000
vt 0.750000 0.500000
vt 0.750000 0.500000
vt 0.750000 0.500000
vt 0.750000 0.500000
vt 0.750000 0.500000
vt 0.750000 0.500000
vt 0.750000 0.500000
vt 0.750000 0.500000
vt 0.750000 0.500000
vt 0.750000 0.500000
vt 0.750000 0.500000
vt 0.750000 0.500000
vt 0.750000 0.500000
vt 0.750000 0.500000
vt 0.750000 0.500000
vt 0.750000 0.500000
vt 0.750000 0.500000
vt 0.750000 0.500000
vt 0.750000 0.500000
vt 0.750000 0.500000
vt 0.750000 0.500000
vt 0.750000 0.500000
vt 0.750000 0.500000
vt 0.750000 0.500000
vt 0.750000 0.500000
vt 0.750000 0.500000
vt 0.750000 0.500000
vt 0.750000 0.500000
vt 0.750000 0.500000
vt 0.750000 0.500000
vt 0.750000 0.500000
vt 0.750000 0.500000
vt 0.750000 0.500000
vt 0.750000 0.500000
vt 0.750000 0.500000
vt 0.750000 0.500000
vt 0.750000 0.500000
vt 0.750000 0.500000
vt 0.750000 0.500000
vt 0.750000 0.500000
vt 0.750000 0.500000
vt 0.750000 0.500000
vt 0.750000 0.500000
vt 0.750000 0.500000
vt 0.750000 0.500000
vt 0.750000 0.500000
vt 0.750000 0.500000
vt 0.750000 0.500000
vt 0.750000 0.500000
vt 0.750000 0.500000
vt 0.750000 0.500000
vt 0.750000 0.500000
vt 0.750000 0.500000
vt 0.750000 0.500000
vt 0.750000 0.500000
vt 0.750000 0.500000
vt 0.750000 0.500000
vt 0.750000 0.500000
vt 0.750000 0.500000
vt 0.750000 0.500000
vt 0.750000 0.500000
vt 0.750000 0.500000
vt 0.750000 0.500000
vt 0.750000 0.500000
vt 0.750000 0.500000
vt 0.750000 0.500000
vt 0.750000 0.500000
vt 0.750000 0.500000
vt 0.750000 0.500000
vt 0.750000 0.500000
vt 0.750000 0.500000
vt 0.750000 0.500000
vt 0.750000 0.500000
vt 0.750000 0.500000
vt 0.750000 0.500000
vt 0.750000 0.500000
vt 0.750000 0.500000
vt 0.750000 0.500000
vt 0.750000 0.500000
vt 0.750000 0.500000
vt 0.750000 0.500000
vt 0.750000 0.500000
vt 0.750000 0.500000
vt 0.750000 0.500000
vt 0.750000 0.500000
vt 0.750000 0.500000
vt 0.750000 0.500000
vt 0.750000 0.500000
vt 0.750000 0.500000
vt 0.750000 0.500000
vt 0.750000 0.500000
vt 0.750000 0.500000
vt 0.750000 0.500000
vt 0.750000 0.500000
vt 0.750000 0.500000
vt 0.750000 0.500000
vt 0.750000 0.500000
vt 0.750000 0.500000
vt 0.750000 0.500000
vt 0.750000 0.500000
vt 0.750000 0.500000
vt 0.750000 0.500000
vt 0.750000 0.500000
vt 0.750000 0.500000
vt 0.750000 0.500000
vt 0.750000 0.500000
vt 0.750000 0.500000
vt 0.750000 0.500000
vt 0.750000 0.500000
vt 0.750000 0.500000
vt 0.750000 0.500000
vt 0.750000 0.500000
vt 0.750000 0.500000
vt 0.750000 0.500000
vt 0.750000 0.500000
vt 0.750000 0.500000
vt 0.750000 0.500000
vt 0.750000 0.500000
vt 0.750000 0.500000
vt 0.750000 0.500000
vt 0.750000 0.500000
vt 0.750000 0.500000
vt 0.750000 0.500000
vt 0.750000 0.500000
vt 0.750000 0.500000
vt 0.750000 0.500000
vt 0.750000 0.500000
vt 0.750000 0.500000
vt 0.750000 0.500000
vt 0.750000 0.500000
vt 0.750000 0.500000
vt 0.750000 0.500000
vt 0.750000 0.500000
vt 0.750000 0.500000
vt 0.750000 0.500000
vt 0.750000 0.500000
vt 0.750000 0.500000
vt 0.750000 0.500000
vt 0.750000 0.500000
vt 0.750000 0.500000
vt 0.750000 0.500000
vt 0.750000 0.500000
vt 0.750000 0.500000
vt 0.750000 0.500000
vt 0.750000 0.500000
vt 0.750000 0.500000
vt 0.750000 0.500000
vt 0.750000 0.500000
vt 0.750000 0.500000
vt 0.750000 0.500000
vt 0.750000 0.500000
vt 0.750000 0.500000
vt 0.750000 0.500000
vt 0.750000 0.500000
vt 0.750000 0.500000
vt 0.750000 0.500000
vt 0.750000 0.500000
vt 0.750000 0.500000
vt 0.750000 0.500000
vt 0.750000 0.500000
vt 0.750000 0.500000
vt 0.750000 0.500000
vt 0.750000 0.500000
vt 0.750000 0.500000
vt 0.750000 0.500000
vt 0.750000 0.500000
vt 0.750000 0.500000
vt 0.750000 0.500000
vt 0.750000 0.500000
vt 0.750000 0.500000
vt 0.750000 0.500000
vt 0.750000 0.500000
vt 0.750000 0.500000
vt 0.750000 0.500000
vt 0.750000 0.500000
s 0
usemtl Material.001
f 1/1/1 2/2/1 4/4/1 3/3/1
f 5/5/2 6/6/2 8/8/2 7/7/2
f 9/9/3 10/10/3 12/12/3 11/11/3
f 11/11/4 5/5/4 7/7/4 9/9/4
f 6/6/5 12/12/5 10/10/5 8/8/5
f 13/13/2 14/14/2 16/16/2 15/15/2
f 17/17/3 18/18/3 20/20/3 19/19/3
f 19/19/4 13/13/4 15/15/4 17/17/4
f 14/14/5 20/20/5 18/18/5 16/16/5
f 21/21/2 22/22/2 24/24/2 23/23/2
f 25/25/3 26/26/3 28/28/3 27/27/3
f 27/27/4 21/21/4 23/23/4 25/25/4
f 22/22/5 28/28/5 26/26/5 24/24/5
f 29/29/2 30/30/2 32/32/2 31/31/2
f 33/33/3 34/34/3 36/36/3 35/35/3
f 35/35/4 29/29/4 31/31/4 33/33/4
f 30/30/5 36/36/5 34/34/5 32/32/5
f 37/37/1 38/38/1 40/40/1 39/39/1
f 41/41/1 42/42/1 44/44/1 43/43/1
f 45/45/1 46/46/1 48/48/1 47/47/1
f 49/49/1 50/50/1 52/52/1 51/51/1
f 53/53/1 54/54/1 56/56/1 55/55/1
f 57/57/2 58/58/2 60/60/2 59/59/2
f 61/61/3 62/62/3 64/64/3 63/63/3
f 63/63/4 57/57/4 59/59/4 61/61/4
f 58/58/5 64/64/5 62/62/5 60/60/5
f 65/65/2 66/66/2 68/68/2 67/67/2
f 69/69/3 70/70/3 72/72/3 71/71/3
f 71/71/4 65/65/4 67/67/4 69/69/4
f 66/66/5 72/72/5 70/70/5 68/68/5
f 73/73/2 74/74/2 76/76/2 75/75/2
f 77/77/3 78/78/3 80/80/3 79/79/3
f 79/79/4 73/73/4 75/75/4 77/77/4
f 74/74/5 80/80/5 78/78/5 76/76/5
f 81/81/2 82/82/2 84/84/2 83/83/2
f 85/85/3 86/86/3 88/88/3 87/87/3
f 87/87/4 81/81/4 83/83/4 85/85/4
f 82/82/5 88/88/5 86/86/5 84/84/5
f 89/89/1 90/90/1 92/92/1 91/91/1
f 93/93/1 94/94/1 96/96/1 95/95/1
f 97/97/1 98/98/1 100/100/1 99/99/1
f 101/101/2 102/102/2 104/104/2 103/103/2
f 105/105/3 106/106/3 108/108/3 107/107/3
f 107/107/4 101/101/4 103/103/4 105/105/4
f 102/102/5 108/108/5 106/106/5 104/104/5
f 109/109/2 110/110/2 112/112/2 111/111/2
f 113/113/3 114/114/3 116/116/3 115/115/3
f 115/115/4 109/109/4 111/111/4 113/113/4
f 110/110/5 116/116/5 114/114/5 112/112/5
f 117/117/2 118/118/2 120/120/2 119/119/2
f 121/121/3 122/122/3 124/124/3 123/123/3
f 123/123/4 117/117/4 119/119/4 121/121/4
f 118/118/5 124/124/5 122/122/5 120/120/5
f 125/125/2 126/126/2 128/128/2 127/127/2
f 129/129/3 130/130/3 132/132/3 131/131/3
f 131/131/4 125/125/4 127/127/4 129/129/4
f 126/126/5 132/132/5 130/130/5 128/128/5
f 133/133/1 134/134/1 136/136/1 135/135/1
f 137/137/1 138/138/1 140/140/1 139/139/1
f 141/141/1 142/142/1 144/144/1 143/143/1
f 145/145/2 146/146/2 148/148/2 147/147/2
f 149/149/3 150/150/3 152/152/3 151/151/3
f 151/151/4 145/145/4 147/147/4 149/149/4
f 146/146/5 152/152/5 150/150/5 148/148/5
f 153/153/2 154/154/2 156/156/2 155/155/2
f 157/157/3 158/158/3 160/160/3 159/159/3
f 159/159/4 153/153/4 155/155/4 157/157/4
f 154/154/5 160/160/5 158/158/5 156/156/5
f 161/161/2 162/162/2 164/164/2 163/163/2
f 165/165/3 166/166/3 168/168/3 167/167/3
f 167/167/4 161/161/4 163/163/4 165/165/4
f 162/162/5 168/168/5 166/166/5 164/164/5
f 169/169/2 170/170/2 172/172/2 171/171/2
f 173/173/3 174/174/3 176/176/3 175/175/3
f 175/175/4 169/169/4 171/171/4 173/173/4
f 170/170/5 176/176/5 174/174/5 172/172/5
f 177/177/1 178/178/1 180/180/1 179/179/1
f 181/181/1 182/182/1 184/184/1 183/183/1
f 185/185/1 186/186/1 188/188/1 187/187/1
f 189/189/2 190/190/2 192/192/2 191/191/2
f 193/193/3 194/194/3 196/196/3 195/195/3
f 195/195/4 189/189/4 191/191/4 193/193/4
f 190/190/5 196/196/5 194/194/5 192/192/5
f 197/197/2 198/198/2 200/200/2 199/199/2
f 201/201/3 202/202/3 204/204/3 203/203/3
f 203/203/4 197/197/4 199/199/4 201/201/4
f 198/198/5 204/204/5 202/202/5 200/200/5
f 205/205/2 206/206/2 208/208/2 207/207/2
f 209/209/3 210/210/3 212/212/3 211/211/3
f 211/211/4 205/205/4 207/207/4 209/209/4
f 206/206/5 212/212/5 210/210/5 208/208/5
f 213/213/2 214/214/2 216/216/2 215/215/2
f 217/217/3 218/218/3 220/220/3 219/219/3
f 219/219/4 213/213/4 215/215/4 217/217/4
f 214/214/5 220/220/5 218/218/5 216/216/5
f 221/221/1 222/222/1 224/224/1 223/223/1
f 225/225/1 226/226/1 228/228/1 227/227/1
f 229/229/2 230/230/2 232/232/2 231/231/2
f 233/233/3 234/234/3 236/236/3 235/235/3
f 235/235/4 229/229/4 231/231/4 233/233/4
f 230/230/5 236/236/5 234/234/5 232/232/5
f 237/237/1 238/238/1 240/240/1 239/239/1
f 241/241/2 242/242/2 244/244/2 243/243/2
f 245/245/3 246/246/3 248/248/3 247/247/3
f 247/247/4 241/241/4 243/243/4 245/245/4
f 242/242/5 248/248/5 246/246/5 244/244/5
f 249/249/1 250/250/1 252/252/1 251/251/1
f 253/253/1 254/254/1 256/256/1 255/255/1
f 257/257/1 258/258/1 260/260/1 259/259/1
f 261/261/1 262/262/1 264/264/1 263/263/1
f 265/265/1 266/266/1 268/268/1 267/267/1
f 269/269/1 270/270/1 272/272/1 271/271/1
f 273/273/2 274/274/2 276/276/2 275/275/2
f 277/277/3 278/278/3 280/280/3 279/279/3
f 279/279/4 273/273/4 275/275/4 277/277/4
f 274/274/5 280/280/5 278/278/5 276/276/5
f 281/281/1 282/282/1 284/284/1 283/283/1
f 285/285/2 286/286/2 288/288/2 287/287/2
f 289/289/3 290/291/3 292/295/3 291/293/3
f 291/294/4 285/285/4 287/287/4 289/290/4
f 286/286/5 292/296/5 290/292/5 288/288/5
f 293/297/2 294/298/2 296/300/2 295/299/2
f 297/301/3 298/302/3 300/304/3 299/303/3
f 299/303/4 293/297/4 295/299/4 297/301/4
f 294/298/5 300/304/5 298/302/5 296/300/5
f 301/305/2 302/306/2 304/308/2 303/307/2
f 305/309/3 306/310/3 308/312/3 307/311/3
f 307/311/4 301/305/4 303/307/4 305/309/4
f 302/306/5 308/312/5 306/310/5 304/308/5
f 309/313/2 310/314/2 312/316/2 311/315/2
f 313/317/3 314/318/3 316/320/3 315/319/3
f 315/319/4 309/313/4 311/315/4 313/317/4
f 310/314/5 316/320/5 314/318/5 312/316/5
f 317/321/2 318/322/2 320/324/2 319/323/2
f 321/325/3 322/326/3 324/328/3 323/327/3
f 323/327/4 317/321/4 319/323/4 321/325/4
f 318/322/5 324/328/5 322/326/5 320/324/5
f 325/329/1 326/330/1 328/332/1 327/331/1
f 329/333/1 330/334/1 332/336/1 331/335/1
f 333/337/2 334/338/2 336/340/2 335/339/2
f 337/341/3 338/342/3 340/344/3 339/343/3
f 339/343/4 333/337/4 335/339/4 337/341/4
f 334/338/5 340/344/5 338/342/5 336/340/5
f 341/345/2 342/346/2 344/348/2 343/347/2
f 345/349/3 346/350/3 348/352/3 347/351/3
f 347/351/4 341/345/4 343/347/4 345/349/4
f 342/346/5 348/352/5 346/350/5 344/348/5
f 349/353/2 350/354/2 352/356/2 351/355/2
f 353/357/3 354/358/3 356/360/3 355/359/3
f 355/359/4 349/353/4 351/355/4 353/357/4
f 350/354/5 356/360/5 354/358/5 352/356/5
f 357/361/2 358/362/2 360/364/2 359/363/2
f 361/365/3 362/366/3 364/368/3 363/367/3
f 363/367/4 357/361/4 359/363/4 361/365/4
f 358/362/5 364/368/5 362/366/5 360/364/5
f 365/369/2 366/370/2 368/372/2 367/371/2
f 369/373/3 370/374/3 372/376/3 371/375/3
f 371/375/4 365/369/4 367/371/4 369/373/4
f 366/370/5 372/376/5 370/374/5 368/372/5
f 373/377/2 374/378/2 376/380/2 375/379/2
f 377/381/3 378/382/3 380/384/3 379/383/3
f 379/383/4 373/377/4 375/379/4 377/381/4
f 374/378/5 380/384/5 378/382/5 376/380/5
f 381/385/2 382/386/2 384/388/2 383/387/2
f 385/389/3 386/390/3 388/392/3 387/391/3
f 387/391/4 381/385/4 383/387/4 385/389/4
f 382/386/5 388/392/5 386/390/5 384/388/5
f 389/393/2 390/394/2 392/396/2 391/395/2
f 393/397/3 394/398/3 396/400/3 395/399/3
f 395/399/4 389/393/4 391/395/4 393/397/4
f 390/394/5 396/400/5 394/398/5 392/396/5
f 397/401/2 398/402/2 400/404/2 399/403/2
f 401/405/3 402/406/3 404/408/3 403/407/3
f 403/407/4 397/401/4 399/403/4 401/405/4
f 398/402/5 404/408/5 402/406/5 400/404/5
f 405/409/2 406/410/2 408/412/2 407/411/2
f 409/413/3 410/414/3 412/416/3 411/415/3
f 411/415/4 405/409/4 407/411/4 409/413/4
f 406/410/5 412/416/5 410/414/5 408/412/5
f 413/417/2 414/418/2 416/420/2 415/419/2
f 417/421/3 418/422/3 420/424/3 419/423/3
f 419/423/4 413/417/4 415/419/4 417/421/4
f 414/418/5 420/424/5 418/422/5 416/420/5
f 421/425/2 422/426/2 424/428/2 423/427/2
f 425/429/3 426/430/3 428/432/3 427/431/3
f 427/431/4 421/425/4 423/427/4 425/429/4
f 422/426/5 428/432/5 426/430/5 424/428/5
f 429/433/1 430/434/1 432/436/1 431/435/1
f 433/437/1 434/438/1 436/440/1 435/439/1
f 437/441/1 438/442/1 440/444/1 439/443/1
f 441/445/2 442/446/2 444/448/2 443/447/2
f 443/447/1 444/448/1 446/450/1 445/449/1
f 445/449/3 446/450/3 448/452/3 447/451/3
f 447/451/4 441/445/4 443/447/4 445/449/4
f 442/446/5 448/452/5 446/450/5 444/448/5
f 449/453/2 450/454/2 452/456/2 451/455/2
f 451/455/1 452/456/1 454/458/1 453/457/1
f 453/457/3 454/458/3 456/460/3 455/459/3
f 455/459/4 449/453/4 451/455/4 453/457/4
f 450/454/5 456/460/5 454/458/5 452/456/5
f 457/461/2 458/462/2 460/464/2 459/463/2
f 459/463/1 460/464/1 462/466/1 461/465/1
f 461/465/3 462/466/3 464/468/3 463/467/3
f 463/467/4 457/461/4 459/463/4 461/465/4
f 458/462/5 464/468/5 462/466/5 460/464/5
f 465/469/2 466/470/2 468/472/2 467/471/2
f 467/471/1 468/472/1 470/474/1 469/473/1
f 469/473/3 470/474/3 472/476/3 471/475/3
f 471/475/4 465/469/4 467/471/4 469/473/4
f 466/470/5 472/476/5 470/474/5 468/472/5
f 473/477/2 474/478/2 476/480/2 475/479/2
f 475/479/1 476/480/1 478/482/1 477/481/1
f 477/481/3 478/482/3 480/484/3 479/483/3
f 479/483/4 473/477/4 475/479/4 477/481/4
f 474/478/5 480/484/5 478/482/5 476/480/5
f 481/485/2 482/486/2 484/488/2 483/487/2
f 483/487/1 484/488/1 486/490/1 485/489/1
f 485/489/3 486/490/3 488/492/3 487/491/3
f 487/491/4 481/485/4 483/487/4 485/489/4
f 482/486/5 488/492/5 486/490/5 484/488/5
f 489/493/2 490/494/2 492/496/2 491/495/2
f 491/495/1 492/496/1 494/498/1 493/497/1
f 493/497/3 494/498/3 496/500/3 495/499/3
f 495/499/4 489/493/4 491/495/4 493/497/4
f 490/494/5 496/500/5 494/498/5 492/496/5
f 497/501/2 498/502/2 500/504/2 499/503/2
f 499/503/1 500/504/1 502/506/1 501/505/1
f 501/505/3 502/506/3 504/508/3 503/507/3
f 503/507/4 497/501/4 499/503/4 501/505/4
f 498/502/5 504/508/5 502/506/5 500/504/5
f 505/509/2 506/510/2 508/512/2 507/511/2
f 507/511/1 508/512/1 510/514/1 509/513/1
f 509/513/3 510/514/3 512/516/3 511/515/3
f 511/515/4 505/509/4 507/511/4 509/513/4
f 506/510/5 512/516/5 510/514/5 508/512/5
f 513/517/2 514/518/2 516/520/2 515/519/2
f 515/519/1 516/520/1 518/522/1 517/521/1
f 517/521/3 518/522/3 520/524/3 519/523/3
f 519/523/4 513/517/4 515/519/4 517/521/4
f 514/518/5 520/524/5 518/522/5 516/520/5
f 521/525/2 522/526/2 524/528/2 523/527/2
f 523/527/1 524/528/1 526/530/1 525/529/1
f 525/529/3 526/530/3 528/532/3 527/531/3
f 527/531/4 521/525/4 523/527/4 525/529/4
f 522/526/5 528/532/5 526/530/5 524/528/5
f 529/533/2 530/534/2 532/536/2 531/535/2
f 531/535/1 532/536/1 534/538/1 533/537/1
f 533/537/3 534/538/3 536/540/3 535/539/3
f 535/539/4 529/533/4 531/535/4 533/537/4
f 530/534/5 536/540/5 534/538/5 532/536/5
f 537/541/2 538/542/2 540/544/2 539/543/2
f 539/543/1 540/544/1 542/546/1 541/545/1
f 541/545/3 542/546/3 544/548/3 543/547/3
f 543/547/4 537/541/4 539/543/4 541/545/4
f 538/542/5 544/548/5 542/546/5 540/544/5
f 545/549/2 546/550/2 548/552/2 547/551/2
f 547/551/1 548/552/1 550/554/1 549/553/1
f 549/553/3 550/554/3 552/556/3 551/555/3
f 551/555/4 545/549/4 547/551/4 549/553/4
f 546/550/5 552/556/5 550/554/5 548/552/5
f 553/557/2 554/558/2 556/560/2 555/559/2
f 555/559/1 556/560/1 558/562/1 557/561/1
f 557/561/3 558/562/3 560/564/3 559/563/3
f 559/563/4 553/557/4 555/559/4 557/561/4
f 554/558/5 560/564/5 558/562/5 556/560/5
f 561/565/2 562/566/2 564/568/2 563/567/2
f 563/567/1 564/568/1 566/570/1 565/569/1
f 565/569/3 566/570/3 568/572/3 567/571/3
f 567/571/4 561/565/4 563/567/4 565/569/4
f 562/566/5 568/572/5 566/570/5 564/568/5
f 569/573/2 570/574/2 572/576/2 571/575/2
f 571/575/1 572/576/1 574/578/1 573/577/1
f 573/577/3 574/578/3 576/580/3 575/579/3
f 575/579/4 569/573/4 571/575/4 573/577/4
f 570/574/5 576/580/5 574/578/5 572/576/5
f 577/581/2 578/582/2 580/584/2 579/583/2
f 579/583/1 580/584/1 582/586/1 581/585/1
f 581/585/3 582/586/3 584/588/3 583/587/3
f 583/587/4 577/581/4 579/583/4 581/585/4
f 578/582/5 584/588/5 582/586/5 580/584/5
f 585/589/2 586/590/2 588/592/2 587/591/2
f 587/591/1 588/592/1 590/594/1 589/593/1
f 589/593/3 590/594/3 592/596/3 591/595/3
f 591/595/4 585/589/4 587/591/4 589/593/4
f 586/590/5 592/596/5 590/594/5 588/592/5
f 593/597/2 594/598/2 596/600/2 595/599/2
f 595/599/1 596/600/1 598/602/1 597/601/1
f 597/601/3 598/602/3 600/604/3 599/603/3
f 599/603/4 593/597/4 595/599/4 597/601/4
f 594/598/5 600/604/5 598/602/5 596/600/5
f 601/605/2 602/606/2 604/608/2 603/607/2
f 603/607/1 604/608/1 606/610/1 605/609/1
f 605/609/3 606/610/3 608/612/3 607/611/3
f 607/611/4 601/605/4 603/607/4 605/609/4
f 602/606/5 608/612/5 606/610/5 604/608/5
f 609/613/2 610/614/2 612/616/2 611/615/2
f 611/615/1 612/616/1 614/618/1 613/617/1
f 613/617/3 614/618/3 616/620/3 615/619/3
f 615/619/4 609/613/4 611/615/4 613/617/4
f 610/614/5 616/620/5 614/618/5 612/616/5
f 617/621/2 618/622/2 620/624/2 619/623/2
f 619/623/1 620/624/1 622/626/1 621/625/1
f 621/625/3 622/626/3 624/628/3 623/627/3
f 623/627/4 617/621/4 619/623/4 621/625/4
f 618/622/5 624/628/5 622/626/5 620/624/5
f 625/629/2 626/630/2 628/632/2 627/631/2
f 627/631/1 628/632/1 630/634/1 629/633/1
f 629/633/3 630/634/3 632/636/3 631/635/3
f 631/635/4 625/629/4 627/631/4 629/633/4
f 626/630/5 632/636/5 630/634/5 628/632/5
f 633/637/2 634/638/2 636/640/2 635/639/2
f 635/639/1 636/640/1 638/642/1 637/641/1
f 637/641/3 638/642/3 640/644/3 639/643/3
f 639/643/4 633/637/4 635/639/4 637/641/4
f 634/638/5 640/644/5 638/642/5 636/640/5
f 641/645/2 642/646/2 644/648/2 643/647/2
f 643/647/1 644/648/1 646/650/1 645/649/1
f 645/649/3 646/650/3 648/652/3 647/651/3
f 647/651/4 641/645/4 643/647/4 645/649/4
f 642/646/5 648/652/5 646/650/5 644/648/5
f 649/653/2 650/654/2 652/656/2 651/655/2
f 651/655/1 652/656/1 654/658/1 653/657/1
f 653/657/3 654/658/3 656/660/3 655/659/3
f 655/659/4 649/653/4 651/655/4 653/657/4
f 650/654/5 656/660/5 654/658/5 652/656/5
f 657/661/2 658/662/2 660/664/2 659/663/2
f 659/663/1 660/664/1 662/666/1 661/665/1
f 661/665/3 662/666/3 664/668/3 663/667/3
f 663/667/4 657/661/4 659/663/4 661/665/4
f 658/662/5 664/668/5 662/666/5 660/664/5
f 665/669/2 666/670/2 668/672/2 667/671/2
f 667/671/1 668/672/1 670/674/1 669/673/1
f 669/673/3 670/674/3 672/676/3 671/675/3
f 671/675/4 665/669/4 667/671/4 669/673/4
f 666/670/5 672/676/5 670/674/5 668/672/5
f 673/677/2 674/678/2 676/680/2 675/679/2
f 675/679/1 676/680/1 678/682/1 677/681/1
f 677/681/3 678/682/3 680/684/3 679/683/3
f 679/683/4 673/677/4 675/679/4 677/681/4
f 674/678/5 680/684/5 678/682/5 676/680/5
f 681/685/2 682/686/2 684/688/2 683/687/2
f 683/687/1 684/688/1 686/690/1 685/689/1
f 685/689/3 686/690/3 688/692/3 687/691/3
f 687/691/4 681/685/4 683/687/4 685/689/4
f 682/686/5 688/692/5 686/690/5 684/688/5
f 689/693/2 690/694/2 692/696/2 691/695/2
f 691/695/1 692/696/1 694/698/1 693/697/1
f 693/697/3 694/698/3 696/700/3 695/699/3
f 695/699/4 689/693/4 691/695/4 693/697/4
f 690/694/5 696/700/5 694/698/5 692/696/5
f 697/701/2 698/702/2 700/704/2 699/703/2
f 699/703/1 700/704/1 702/706/1 701/705/1
f 701/705/3 702/706/3 704/708/3 703/707/3
f 703/707/4 697/701/4 699/703/4 701/705/4
f 698/702/5 704/708/5 702/706/5 700/704/5
f 705/709/2 706/710/2 708/712/2 707/711/2
f 707/711/1 708/712/1 710/714/1 709/713/1
f 709/713/3 710/714/3 712/716/3 711/715/3
f 711/715/4 705/709/4 707/711/4 709/713/4
f 706/710/5 712/716/5 710/714/5 708/712/5
f 713/717/2 714/718/2 716/720/2 715/719/2
f 715/719/1 716/720/1 718/722/1 717/721/1
f 717/721/3 718/722/3 720/724/3 719/723/3
f 719/723/4 713/717/4 715/719/4 717/721/4
f 714/718/5 720/724/5 718/722/5 716/720/5
f 721/725/2 722/726/2 724/728/2 723/727/2
f 723/727/1 724/728/1 726/730/1 725/729/1
f 725/729/3 726/730/3 728/732/3 727/731/3
f 727/731/4 721/725/4 723/727/4 725/729/4
f 722/726/5 728/732/5 726/730/5 724/728/5
f 729/733/2 730/734/2 732/736/2 731/735/2
f 731/735/1 732/736/1 734/738/1 733/737/1
f 733/737/3 734/738/3 736/740/3 735/739/3
f 735/739/4 729/733/4 731/735/4 733/737/4
f 730/734/5 736/740/5 734/738/5 732/736/5
f 737/741/2 738/742/2 740/744/2 739/743/2
f 739/743/1 740/744/1 742/746/1 741/745/1
f 741/745/3 742/746/3 744/748/3 743/747/3
f 743/747/4 737/741/4 739/743/4 741/745/4
f 738/742/5 744/748/5 742/746/5 740/744/5
f 745/749/2 746/750/2 748/752/2 747/751/2
f 747/751/1 748/752/1 750/754/1 749/753/1
f 749/753/3 750/754/3 752/756/3 751/755/3
f 751/755/4 745/749/4 747/751/4 749/753/4
f 746/750/5 752/756/5 750/754/5 748/752/5
f 753/757/2 754/758/2 756/760/2 755/759/2
f 755/759/1 756/760/1 758/762/1 757/761/1
f 757/761/3 758/762/3 760/764/3 759/763/3
f 759/763/4 753/757/4 755/759/4 757/761/4
f 754/758/5 760/764/5 758/762/5 756/760/5
f 761/765/2 762/766/2 764/768/2 763/767/2
f 763/767/1 764/768/1 766/770/1 765/769/1
f 765/769/3 766/770/3 768/772/3 767/771/3
f 767/771/4 761/765/4 763/767/4 765/769/4
f 762/766/5 768/772/5 766/770/5 764/768/5
f 769/773/2 770/774/2 772/776/2 771/775/2
f 771/775/1 772/776/1 774/778/1 773/777/1
f 773/777/3 774/778/3 776/780/3 775/779/3
f 775/779/4 769/773/4 771/775/4 773/777/4
f 770/774/5 776/780/5 774/778/5 772/776/5
f 777/781/2 778/782/2 780/784/2 779/783/2
f 779/783/1 780/784/1 782/786/1 781/785/1
f 781/785/3 782/786/3 784/788/3 783/787/3
f 783/787/4 777/781/4 779/783/4 781/785/4
f 778/782/5 784/788/5 782/786/5 780/784/5
f 785/789/2 786/790/2 788/792/2 787/791/2
f 787/791/1 788/792/1 790/794/1 789/793/1
f 789/793/3 790/794/3 792/796/3 791/795/3
f 791/795/4 785/789/4 787/791/4 789/793/4
f 786/790/5 792/796/5 790/794/5 788/792/5
f 793/797/2 794/798/2 796/800/2 795/799/2
f 795/799/1 796/800/1 798/802/1 797/801/1
f 797/801/3 798/802/3 800/804/3 799/803/3
f 799/803/4 793/797/4 795/799/4 797/801/4
f 794/798/5 800/804/5 798/802/5 796/800/5
f 801/805/2 802/806/2 804/808/2 803/807/2
f 803/807/1 804/808/1 806/810/1 805/809/1
f 805/809/3 806/810/3 808/812/3 807/811/3
f 807/811/4 801/805/4 803/807/4 805/809/4
f 802/806/5 808/812/5 806/810/5 804/808/5
f 809/813/2 810/814/2 812/816/2 811/815/2
f 811/815/1 812/816/1 814/818/1 813/817/1
f 813/817/3 814/818/3 816/820/3 815/819/3
f 815/819/4 809/813/4 811/815/4 813/817/4
f 810/814/5 816/820/5 814/818/5 812/816/5
f 817/821/2 818/822/2 820/824/2 819/823/2
f 819/823/1 820/824/1 822/826/1 821/825/1
f 821/825/3 822/826/3 824/828/3 823/827/3
f 823/827/4 817/821/4 819/823/4 821/825/4
f 818/822/5 824/828/5 822/826/5 820/824/5
f 825/829/2 826/830/2 828/832/2 827/831/2
f 827/831/1 828/832/1 830/834/1 829/833/1
f 829/833/3 830/834/3 832/836/3 831/835/3
f 831/835/4 825/829/4 827/831/4 829/833/4
f 826/830/5 832/836/5 830/834/5 828/832/5
f 833/837/2 834/838/2 836/840/2 835/839/2
f 835/839/1 836/840/1 838/842/1 837/841/1
f 837/841/3 838/842/3 840/844/3 839/843/3
f 839/843/4 833/837/4 835/839/4 837/841/4
f 834/838/5 840/844/5 838/842/5 836/840/5
f 841/845/2 842/846/2 844/848/2 843/847/2
f 843/847/1 844/848/1 846/850/1 845/849/1
f 845/849/3 846/850/3 848/852/3 847/851/3
f 847/851/4 841/845/4 843/847/4 845/849/4
f 842/846/5 848/852/5 846/850/5 844/848/5
f 849/853/2 850/854/2 852/856/2 851/855/2
f 851/855/1 852/856/1 854/858/1 853/857/1
f 853/857/3 854/858/3 856/860/3 855/859/3
f 855/859/4 849/853/4 851/855/4 853/857/4
f 850/854/5 856/860/5 854/858/5 852/856/5
f 857/861/2 858/862/2 860/864/2 859/863/2
f 859/863/1 860/864/1 862/866/1 861/865/1
f 861/865/3 862/866/3 864/868/3 863/867/3
f 863/867/4 857/861/4 859/863/4 861/865/4
f 858/862/5 864/868/5 862/866/5 860/864/5
f 865/869/2 866/870/2 868/872/2 867/871/2
f 867/871/1 868/872/1 870/874/1 869/873/1
f 869/873/3 870/874/3 872/876/3 871/875/3
f 871/875/4 865/869/4 867/871/4 869/873/4
f 866/870/5 872/876/5 870/874/5 868/872/5
f 873/877/2 874/878/2 876/880/2 875/879/2
f 875/879/1 876/880/1 878/882/1 877/881/1
f 877/881/3 878/882/3 880/884/3 879/883/3
f 879/883/4 873/877/4 875/879/4 877/881/4
f 874/878/5 880/884/5 878/882/5 876/880/5
f 881/885/2 882/886/2 884/888/2 883/887/2
f 883/887/1 884/888/1 886/890/1 885/889/1
f 885/889/3 886/890/3 888/892/3 887/891/3
f 887/891/4 881/885/4 883/887/4 885/889/4
f 882/886/5 888/892/5 886/890/5 884/888/5
f 889/893/2 890/894/2 892/896/2 891/895/2
f 891/895/1 892/896/1 894/898/1 893/897/1
f 893/897/3 894/898/3 896/900/3 895/899/3
f 895/899/4 889/893/4 891/895/4 893/897/4
f 890/894/5 896/900/5 894/898/5 892/896/5
f 897/901/2 898/902/2 900/904/2 899/903/2
f 899/903/1 900/904/1 902/906/1 901/905/1
f 901/905/3 902/906/3 904/908/3 903/907/3
f 903/907/4 897/901/4 899/903/4 901/905/4
f 898/902/5 904/908/5 902/906/5 900/904/5
f 905/909/2 906/910/2 908/912/2 907/911/2
f 907/911/1 908/912/1 910/914/1 909/913/1
f 909/913/3 910/914/3 912/916/3 911/915/3
f 911/915/4 905/909/4 907/911/4 909/913/4
f 906/910/5 912/916/5 910/914/5 908/912/5
f 913/917/2 914/918/2 916/920/2 915/919/2
f 915/919/1 916/920/1 918/922/1 917/921/1
f 917/921/3 918/922/3 920/924/3 919/923/3
f 919/923/4 913/917/4 915/919/4 917/921/4
f 914/918/5 920/924/5 918/922/5 916/920/5
