# Blender 3.3.21
# www.blender.org
mtllib EstanteriaCaja_atlas.mtl
o EstanteriaCajas
v -1.028244 0.847798 4.168800
v 0.972456 0.847798 4.168800
v -1.028244 0.847800 2.179000
v 0.972456 0.847800 2.179000
v 0.764956 -0.983802 4.055800
v 0.869256 -0.983802 4.055800
v 0.764956 0.847698 4.055800
v 0.869256 0.847698 4.055800
v 0.764956 0.847698 3.940200
v 0.869256 0.847698 3.940200
v 0.764956 -0.983802 3.940200
v 0.869256 -0.983802 3.940200
v -0.898344 -0.983802 4.055800
v -0.794044 -0.983802 4.055800
v -0.898344 0.847698 4.055800
v -0.794044 0.847698 4.055800
v -0.898344 0.847698 3.940200
v -0.794044 0.847698 3.940200
v -0.898344 -0.983802 3.940200
v -0.794044 -0.983802 3.940200
v 0.764956 -0.983800 2.393300
v 0.869256 -0.983800 2.393300
v 0.764956 0.847700 2.393300
v 0.869256 0.847700 2.393300
v 0.764956 0.847700 2.277700
v 0.869256 0.847700 2.277700
v 0.764956 -0.983800 2.277700
v 0.869256 -0.983800 2.277700
v -0.898344 -0.983800 2.393300
v -0.794044 -0.983800 2.393300
v -0.898344 0.847700 2.393300
v -0.794044 0.847700 2.393300
v -0.898344 0.847700 2.277700
v -0.794044 0.847700 2.277700
v -0.898344 -0.983800 2.277700
v -0.794044 -0.983800 2.277700
v -1.028244 -0.053402 4.168800
v 0.972456 -0.053402 4.168800
v -1.028244 -0.053400 2.179000
v 0.972456 -0.053400 2.179000
v -1.028244 -0.983802 4.168800
v 0.972456 -0.983802 4.168800
v -1.028244 -0.983800 2.179000
v 0.972456 -0.983800 2.179000
v -1.028244 0.847800 2.052300
v 0.972456 0.847800 2.052300
v -1.028244 0.847800 0.062500
v 0.972456 0.847800 0.062500
v -1.028244 -0.053400 2.052300
v 0.972456 -0.053400 2.052300
v -1.028244 -0.053400 0.062500
v 0.972456 -0.053400 0.062500
v -1.028244 -0.983800 2.052300
v 0.972456 -0.983800 2.052300
v -1.028244 -0.983800 0.062500
v 0.972456 -0.983800 0.062500
v -0.898344 -0.983800 1.939300
v -0.794044 -0.983800 1.939300
v -0.898344 0.847700 1.939300
v -0.794044 0.847700 1.939300
v -0.898344 0.847700 1.823700
v -0.794044 0.847700 1.823700
v -0.898344 -0.983800 1.823700
v -0.794044 -0.983800 1.823700
v 0.764956 -0.983800 1.939300
v 0.869256 -0.983800 1.939300
v 0.764956 0.847700 1.939300
v 0.869256 0.847700 1.939300
v 0.764956 0.847700 1.823700
v 0.869256 0.847700 1.823700
v 0.764956 -0.983800 1.823700
v 0.869256 -0.983800 1.823700
v -0.898344 -0.983800 0.276800
v -0.794044 -0.983800 0.276800
v -0.898344 0.847700 0.276800
v -0.794044 0.847700 0.276800
v -0.898344 0.847700 0.161200
v -0.794044 0.847700 0.161200
v -0.898344 -0.983800 0.161200
v -0.794044 -0.983800 0.161200
v 0.764956 -0.983800 0.276800
v 0.869256 -0.983800 0.276800
v 0.764956 0.847700 0.276800
v 0.869256 0.847700 0.276800
v 0.764956 0.847700 0.161200
v 0.869256 0.847700 0.161200
v 0.764956 -0.983800 0.161200
v 0.869256 -0.983800 0.161200
v -1.028244 0.847798 6.189200
v 0.972456 0.847798 6.189200
v -1.028244 0.847798 4.199400
v 0.972456 0.847798 4.199400
v -1.028244 -0.053402 6.189200
v 0.972456 -0.053402 6.189200
v -1.028244 -0.053402 4.199400
v 0.972456 -0.053402 4.199400
v -1.028244 -0.983802 6.189200
v 0.972456 -0.983802 6.189200
v -1.028244 -0.983802 4.199400
v 0.972456 -0.983802 4.199400
v -0.898344 -0.983802 6.076200
v -0.794044 -0.983802 6.076200
v -0.898344 0.847698 6.076200
v -0.794044 0.847698 6.076200
v -0.898344 0.847698 5.960600
v -0.794044 0.847698 5.960600
v -0.898344 -0.983802 5.960600
v -0.794044 -0.983802 5.960600
v 0.764956 -0.983802 6.076200
v 0.869256 -0.983802 6.076200
v 0.764956 0.847698 6.076200
v 0.869256 0.847698 6.076200
v 0.764956 0.847698 5.960600
v 0.869256 0.847698 5.960600
v 0.764956 -0.983802 5.960600
v 0.869256 -0.983802 5.960600
v -0.898344 -0.983802 4.413700
v -0.794044 -0.983802 4.413700
v -0.898344 0.847698 4.413700
v -0.794044 0.847698 4.413700
v -0.898344 0.847698 4.298100
v -0.794044 0.847698 4.298100
v -0.898344 -0.983802 4.298100
v -0.794044 -0.983802 4.298100
v 0.764956 -0.983802 4.413700
v 0.869256 -0.983802 4.413700
v 0.764956 0.847698 4.413700
v 0.869256 0.847698 4.413700
v 0.764956 0.847698 4.298100
v 0.869256 0.847698 4.298100
v 0.764956 -0.983802 4.298100
v 0.869256 -0.983802 4.298100
v -1.028244 0.847798 8.220000
v 0.972456 0.847798 8.220000
v -1.028244 0.847798 6.230200
v 0.972456 0.847798 6.230200
v -1.028244 -0.053402 8.220000
v 0.972456 -0.053402 8.220000
v -1.028244 -0.053402 6.230200
v 0.972456 -0.053402 6.230200
v -1.028244 -0.983802 8.220000
v 0.972456 -0.983802 8.220000
v -1.028244 -0.983802 6.230200
v 0.972456 -0.983802 6.230200
v -0.898344 -0.983802 8.106999
v -0.794044 -0.983802 8.106999
v -0.898344 0.847698 8.106999
v -0.794044 0.847698 8.106999
v -0.898344 0.847698 7.991400
v -0.794044 0.847698 7.991400
v -0.898344 -0.983802 7.991400
v -0.794044 -0.983802 7.991400
v 0.764956 -0.983802 8.106999
v 0.869256 -0.983802 8.106999
v 0.764956 0.847698 8.106999
v 0.869256 0.847698 8.106999
v 0.764956 0.847698 7.991400
v 0.869256 0.847698 7.991400
v 0.764956 -0.983802 7.991400
v 0.869256 -0.983802 7.991400
v -0.898344 -0.983802 6.444500
v -0.794044 -0.983802 6.444500
v -0.898344 0.847698 6.444500
v -0.794044 0.847698 6.444500
v -0.898344 0.847698 6.328900
v -0.794044 0.847698 6.328900
v -0.898344 -0.983802 6.328900
v -0.794044 -0.983802 6.328900
v 0.764956 -0.983802 6.444500
v 0.869256 -0.983802 6.444500
v 0.764956 0.847698 6.444500
v 0.869256 0.847698 6.444500
v 0.764956 0.847698 6.328900
v 0.869256 0.847698 6.328900
v 0.764956 -0.983802 6.328900
v 0.869256 -0.983802 6.328900
v -1.028244 0.847796 10.264300
v 0.972456 0.847796 10.264300
v -1.028244 0.847798 8.274500
v 0.972456 0.847798 8.274500
v -1.028244 -0.053404 10.264300
v 0.972456 -0.053404 10.264300
v -1.028244 -0.053402 8.274500
v 0.972456 -0.053402 8.274500
v -1.028244 -0.983804 10.264300
v 0.972456 -0.983804 10.264300
v -1.028244 -0.983802 8.274500
v 0.972456 -0.983802 8.274500
v -0.898344 -0.983804 10.151300
v -0.794044 -0.983804 10.151300
v -0.898344 0.847696 10.151300
v -0.794044 0.847696 10.151300
v -0.898344 0.847696 10.035700
v -0.794044 0.847696 10.035700
v -0.898344 -0.983804 10.035700
v -0.794044 -0.983804 10.035700
v 0.764956 -0.983804 10.151300
v 0.869256 -0.983804 10.151300
v 0.764956 0.847696 10.151300
v 0.869256 0.847696 10.151300
v 0.764956 0.847696 10.035700
v 0.869256 0.847696 10.035700
v 0.764956 -0.983804 10.035700
v 0.869256 -0.983804 10.035700
v -0.898344 -0.983802 8.488800
v -0.794044 -0.983802 8.488800
v -0.898344 0.847698 8.488800
v -0.794044 0.847698 8.488800
v -0.898344 0.847698 8.373199
v -0.794044 0.847698 8.373199
v -0.898344 -0.983802 8.373199
v -0.794044 -0.983802 8.373199
v 0.764956 -0.983802 8.488800
v 0.869256 -0.983802 8.488800
v 0.764956 0.847698 8.488800
v 0.869256 0.847698 8.488800
v 0.764956 0.847698 8.373199
v 0.869256 0.847698 8.373199
v 0.764956 -0.983802 8.373199
v 0.869256 -0.983802 8.373199
v -1.028244 0.847802 -6.153100
v 0.972456 0.847802 -6.153100
v -1.028244 0.847802 -8.142900
v 0.972456 0.847802 -8.142900
v 0.764956 -0.983798 -6.266100
v 0.869256 -0.983798 -6.266100
v 0.764956 0.847702 -6.266100
v 0.869256 0.847702 -6.266100
v 0.764956 0.847702 -6.381700
v 0.869256 0.847702 -6.381700
v 0.764956 -0.983798 -6.381700
v 0.869256 -0.983798 -6.381700
v -0.898344 -0.983798 -6.266100
v -0.794044 -0.983798 -6.266100
v -0.898344 0.847702 -6.266100
v -0.794044 0.847702 -6.266100
v -0.898344 0.847702 -6.381700
v -0.794044 0.847702 -6.381700
v -0.898344 -0.983798 -6.381700
v -0.794044 -0.983798 -6.381700
v 0.764956 -0.983798 -7.928600
v 0.869256 -0.983798 -7.928600
v 0.764956 0.847702 -7.928600
v 0.869256 0.847702 -7.928600
v 0.764956 0.847702 -8.044200
v 0.869256 0.847702 -8.044200
v 0.764956 -0.983798 -8.044200
v 0.869256 -0.983798 -8.044200
v -0.898344 -0.983798 -7.928600
v -0.794044 -0.983798 -7.928600
v -0.898344 0.847702 -7.928600
v -0.794044 0.847702 -7.928600
v -0.898344 0.847702 -8.044200
v -0.794044 0.847702 -8.044200
v -0.898344 -0.983798 -8.044200
v -0.794044 -0.983798 -8.044200
v -1.028244 -0.053398 -6.153100
v 0.972456 -0.053398 -6.153100
v -1.028244 -0.053398 -8.142900
v 0.972456 -0.053398 -8.142900
v -1.028244 -0.983798 -6.153100
v 0.972456 -0.983798 -6.153100
v -1.028244 -0.983798 -8.142900
v 0.972456 -0.983798 -8.142900
v -1.028244 0.847802 -8.269600
v 0.972456 0.847802 -8.269600
v -1.028244 0.847804 -10.259400
v 0.972456 0.847804 -10.259400
v -1.028244 -0.053398 -8.269600
v 0.972456 -0.053398 -8.269600
v -1.028244 -0.053396 -10.259400
v 0.972456 -0.053396 -10.259400
v -1.028244 -0.983798 -8.269600
v 0.972456 -0.983798 -8.269600
v -1.028244 -0.983796 -10.259400
v 0.972456 -0.983796 -10.259400
v -0.898344 -0.983798 -8.382600
v -0.794044 -0.983798 -8.382600
v -0.898344 0.847702 -8.382600
v -0.794044 0.847702 -8.382600
v -0.898344 0.847702 -8.498199
v -0.794044 0.847702 -8.498199
v -0.898344 -0.983798 -8.498199
v -0.794044 -0.983798 -8.498199
v 0.764956 -0.983798 -8.382600
v 0.869256 -0.983798 -8.382600
v 0.764956 0.847702 -8.382600
v 0.869256 0.847702 -8.382600
v 0.764956 0.847702 -8.498199
v 0.869256 0.847702 -8.498199
v 0.764956 -0.983798 -8.498199
v 0.869256 -0.983798 -8.498199
v -0.898344 -0.983796 -10.045100
v -0.794044 -0.983796 -10.045100
v -0.898344 0.847704 -10.045100
v -0.794044 0.847704 -10.045100
v -0.898344 0.847704 -10.160700
v -0.794044 0.847704 -10.160700
v -0.898344 -0.983796 -10.160700
v -0.794044 -0.983796 -10.160700
v 0.764956 -0.983796 -10.045100
v 0.869256 -0.983796 -10.045100
v 0.764956 0.847704 -10.045100
v 0.869256 0.847704 -10.045100
v 0.764956 0.847704 -10.160700
v 0.869256 0.847704 -10.160700
v 0.764956 -0.983796 -10.160700
v 0.869256 -0.983796 -10.160700
v -1.028244 0.847802 -4.132700
v 0.972456 0.847802 -4.132700
v -1.028244 0.847802 -6.122500
v 0.972456 0.847802 -6.122500
v -1.028244 -0.053398 -4.132700
v 0.972456 -0.053398 -4.132700
v -1.028244 -0.053398 -6.122500
v 0.972456 -0.053398 -6.122500
v -1.028244 -0.983798 -4.132700
v 0.972456 -0.983798 -4.132700
v -1.028244 -0.983798 -6.122500
v 0.972456 -0.983798 -6.122500
v -0.898344 -0.983798 -4.245700
v -0.794044 -0.983798 -4.245700
v -0.898344 0.847702 -4.245700
v -0.794044 0.847702 -4.245700
v -0.898344 0.847702 -4.361300
v -0.794044 0.847702 -4.361300
v -0.898344 -0.983798 -4.361300
v -0.794044 -0.983798 -4.361300
v 0.764956 -0.983798 -4.245700
v 0.869256 -0.983798 -4.245700
v 0.764956 0.847702 -4.245700
v 0.869256 0.847702 -4.245700
v 0.764956 0.847702 -4.361300
v 0.869256 0.847702 -4.361300
v 0.764956 -0.983798 -4.361300
v 0.869256 -0.983798 -4.361300
v -0.898344 -0.983798 -5.908200
v -0.794044 -0.983798 -5.908200
v -0.898344 0.847702 -5.908200
v -0.794044 0.847702 -5.908200
v -0.898344 0.847702 -6.023800
v -0.794044 0.847702 -6.023800
v -0.898344 -0.983798 -6.023800
v -0.794044 -0.983798 -6.023800
v 0.764956 -0.983798 -5.908200
v 0.869256 -0.983798 -5.908200
v 0.764956 0.847702 -5.908200
v 0.869256 0.847702 -5.908200
v 0.764956 0.847702 -6.023800
v 0.869256 0.847702 -6.023800
v 0.764956 -0.983798 -6.023800
v 0.869256 -0.983798 -6.023800
v -1.028244 0.847800 -2.101900
v 0.972456 0.847800 -2.101900
v -1.028244 0.847802 -4.091700
v 0.972456 0.847802 -4.091700
v -1.028244 -0.053400 -2.101900
v 0.972456 -0.053400 -2.101900
v -1.028244 -0.053398 -4.091700
v 0.972456 -0.053398 -4.091700
v -1.028244 -0.983800 -2.101900
v 0.972456 -0.983800 -2.101900
v -1.028244 -0.983798 -4.091700
v 0.972456 -0.983798 -4.091700
v -0.898344 -0.983800 -2.214900
v -0.794044 -0.983800 -2.214900
v -0.898344 0.847700 -2.214900
v -0.794044 0.847700 -2.214900
v -0.898344 0.847700 -2.330500
v -0.794044 0.847700 -2.330500
v -0.898344 -0.983800 -2.330500
v -0.794044 -0.983800 -2.330500
v 0.764956 -0.983800 -2.214900
v 0.869256 -0.983800 -2.214900
v 0.764956 0.847700 -2.214900
v 0.869256 0.847700 -2.214900
v 0.764956 0.847700 -2.330500
v 0.869256 0.847700 -2.330500
v 0.764956 -0.983800 -2.330500
v 0.869256 -0.983800 -2.330500
v -0.898344 -0.983798 -3.877400
v -0.794044 -0.983798 -3.877400
v -0.898344 0.847702 -3.877400
v -0.794044 0.847702 -3.877400
v -0.898344 0.847702 -3.993000
v -0.794044 0.847702 -3.993000
v -0.898344 -0.983798 -3.993000
v -0.794044 -0.983798 -3.993000
v 0.764956 -0.983798 -3.877400
v 0.869256 -0.983798 -3.877400
v 0.764956 0.847702 -3.877400
v 0.869256 0.847702 -3.877400
v 0.764956 0.847702 -3.993000
v 0.869256 0.847702 -3.993000
v 0.764956 -0.983798 -3.993000
v 0.869256 -0.983798 -3.993000
v -1.028244 0.847800 -0.057600
v 0.972456 0.847800 -0.057600
v -1.028244 0.847800 -2.047400
v 0.972456 0.847800 -2.047400
v -1.028244 -0.053400 -0.057600
v 0.972456 -0.053400 -0.057600
v -1.028244 -0.053400 -2.047400
v 0.972456 -0.053400 -2.047400
v -1.028244 -0.983800 -0.057600
v 0.972456 -0.983800 -0.057600
v -1.028244 -0.983800 -2.047400
v 0.972456 -0.983800 -2.047400
v -0.898344 -0.983800 -0.170600
v -0.794044 -0.983800 -0.170600
v -0.898344 0.847700 -0.170600
v -0.794044 0.847700 -0.170600
v -0.898344 0.847700 -0.286200
v -0.794044 0.847700 -0.286200
v -0.898344 -0.983800 -0.286200
v -0.794044 -0.983800 -0.286200
v 0.764956 -0.983800 -0.170600
v 0.869256 -0.983800 -0.170600
v 0.764956 0.847700 -0.170600
v 0.869256 0.847700 -0.170600
v 0.764956 0.847700 -0.286200
v 0.869256 0.847700 -0.286200
v 0.764956 -0.983800 -0.286200
v 0.869256 -0.983800 -0.286200
v -0.898344 -0.983800 -1.833100
v -0.794044 -0.983800 -1.833100
v -0.898344 0.847700 -1.833100
v -0.794044 0.847700 -1.833100
v -0.898344 0.847700 -1.948700
v -0.794044 0.847700 -1.948700
v -0.898344 -0.983800 -1.948700
v -0.794044 -0.983800 -1.948700
v 0.764956 -0.983800 -1.833100
v 0.869256 -0.983800 -1.833100
v 0.764956 0.847700 -1.833100
v 0.869256 0.847700 -1.833100
v 0.764956 0.847700 -1.948700
v 0.869256 0.847700 -1.948700
v 0.764956 -0.983800 -1.948700
v 0.869256 -0.983800 -1.948700
v 0.166556 0.848396 9.574600
v 0.581756 0.848396 9.574600
v 0.166556 1.257697 9.574600
v 0.581756 1.257697 9.574600
v 0.166556 1.257698 8.937799
v 0.581756 1.257698 8.937799
v 0.166556 0.848398 8.937799
v 0.581756 0.848398 8.937799
v -0.605544 0.848396 9.574600
v -0.190344 0.848396 9.574600
v -0.605544 1.257697 9.574600
v -0.190344 1.257697 9.574600
v -0.605544 1.257698 8.937799
v -0.190344 1.257698 8.937799
v -0.605544 0.848398 8.937799
v -0.190344 0.848398 8.937799
v 0.166556 -0.052604 9.574600
v 0.581756 -0.052604 9.574600
v 0.166556 0.356696 9.574600
v 0.581756 0.356696 9.574600
v 0.166556 0.356698 8.937799
v 0.581756 0.356698 8.937799
v 0.166556 -0.052602 8.937799
v 0.581756 -0.052602 8.937799
v -0.605544 -0.052604 9.574600
v -0.190344 -0.052604 9.574600
v -0.605544 0.356696 9.574600
v -0.190344 0.356696 9.574600
v -0.605544 0.356698 8.937799
v -0.190344 0.356698 8.937799
v -0.605544 -0.052602 8.937799
v -0.190344 -0.052602 8.937799
v 0.166556 -0.983204 9.574600
v 0.581756 -0.983204 9.574600
v 0.166556 -0.573904 9.574600
v 0.581756 -0.573904 9.574600
v 0.166556 -0.573902 8.937799
v 0.581756 -0.573902 8.937799
v 0.166556 -0.983202 8.937799
v 0.581756 -0.983202 8.937799
v -0.605544 -0.983204 9.574600
v -0.190344 -0.983204 9.574600
v -0.605544 -0.573904 9.574600
v -0.190344 -0.573904 9.574600
v -0.605544 -0.573902 8.937799
v -0.190344 -0.573902 8.937799
v -0.605544 -0.983202 8.937799
v -0.190344 -0.983202 8.937799
v -0.605544 -0.983204 9.574600
v -0.190344 -0.983204 9.574600
v -0.605544 -0.573904 9.574600
v -0.190344 -0.573904 9.574600
v -0.605544 -0.573902 8.937799
v -0.190344 -0.573902 8.937799
v -0.605544 -0.983202 8.937799
v -0.190344 -0.983202 8.937799
v 0.166556 -0.983204 9.574600
v 0.581756 -0.983204 9.574600
v 0.166556 -0.573904 9.574600
v 0.581756 -0.573904 9.574600
v 0.166556 -0.573902 8.937799
v 0.581756 -0.573902 8.937799
v 0.166556 -0.983202 8.937799
v 0.581756 -0.983202 8.937799
v 0.166556 -0.052604 9.574600
v 0.581756 -0.052604 9.574600
v 0.166556 0.356696 9.574600
v 0.581756 0.356696 9.574600
v 0.166556 0.356698 8.937799
v 0.581756 0.356698 8.937799
v 0.166556 -0.052602 8.937799
v 0.581756 -0.052602 8.937799
v -0.605544 -0.052604 9.574600
v -0.190344 -0.052604 9.574600
v -0.605544 0.356696 9.574600
v -0.190344 0.356696 9.574600
v -0.605544 0.356698 8.937799
v -0.190344 0.356698 8.937799
v -0.605544 -0.052602 8.937799
v -0.190344 -0.052602 8.937799
v -0.605544 0.848396 9.574600
v -0.190344 0.848396 9.574600
v -0.605544 1.257697 9.574600
v -0.190344 1.257697 9.574600
v -0.605544 1.257698 8.937799
v -0.190344 1.257698 8.937799
v -0.605544 0.848398 8.937799
v -0.190344 0.848398 8.937799
v 0.166556 0.848396 9.574600
v 0.581756 0.848396 9.574600
v 0.166556 1.257697 9.574600
v 0.581756 1.257697 9.574600
v 0.166556 1.257698 8.937799
v 0.581756 1.257698 8.937799
v 0.166556 0.848398 8.937799
v 0.581756 0.848398 8.937799
v 0.166556 0.848398 7.537500
v 0.581756 0.848398 7.537500
v 0.166556 1.257698 7.537500
v 0.581756 1.257698 7.537500
v 0.166556 1.257698 6.900700
v 0.581756 1.257698 6.900700
v 0.166556 0.848398 6.900700
v 0.581756 0.848398 6.900700
v -0.605544 0.848398 7.537500
v -0.190344 0.848398 7.537500
v -0.605544 1.257698 7.537500
v -0.190344 1.257698 7.537500
v -0.605544 1.257698 6.900700
v -0.190344 1.257698 6.900700
v -0.605544 0.848398 6.900700
v -0.190344 0.848398 6.900700
v 0.166556 -0.052602 7.537500
v 0.581756 -0.052602 7.537500
v 0.166556 0.356698 7.537500
v 0.581756 0.356698 7.537500
v 0.166556 0.356698 6.900700
v 0.581756 0.356698 6.900700
v 0.166556 -0.052602 6.900700
v 0.581756 -0.052602 6.900700
v -0.605544 -0.052602 7.537500
v -0.190344 -0.052602 7.537500
v -0.605544 0.356698 7.537500
v -0.190344 0.356698 7.537500
v -0.605544 0.356698 6.900700
v -0.190344 0.356698 6.900700
v -0.605544 -0.052602 6.900700
v -0.190344 -0.052602 6.900700
v -0.605544 -0.983202 7.537500
v -0.190344 -0.983202 7.537500
v -0.605544 -0.573902 7.537500
v -0.190344 -0.573902 7.537500
v -0.605544 -0.573902 6.900700
v -0.190344 -0.573902 6.900700
v -0.605544 -0.983202 6.900700
v -0.190344 -0.983202 6.900700
v 0.166556 -0.983202 7.537500
v 0.581756 -0.983202 7.537500
v 0.166556 -0.573902 7.537500
v 0.581756 -0.573902 7.537500
v 0.166556 -0.573902 6.900700
v 0.581756 -0.573902 6.900700
v 0.166556 -0.983202 6.900700
v 0.581756 -0.983202 6.900700
v 0.166556 0.848398 5.499200
v 0.581756 0.848398 5.499200
v 0.166556 1.257698 5.499200
v 0.581756 1.257698 5.499200
v 0.166556 1.257698 4.862400
v 0.581756 1.257698 4.862400
v 0.166556 0.848398 4.862400
v 0.581756 0.848398 4.862400
v -0.605544 0.848398 5.499200
v -0.190344 0.848398 5.499200
v -0.605544 1.257698 5.499200
v -0.190344 1.257698 5.499200
v -0.605544 1.257698 4.862400
v -0.190344 1.257698 4.862400
v -0.605544 0.848398 4.862400
v -0.190344 0.848398 4.862400
v 0.166556 -0.052602 5.499200
v 0.581756 -0.052602 5.499200
v 0.166556 0.356698 5.499200
v 0.581756 0.356698 5.499200
v 0.166556 0.356698 4.862400
v 0.581756 0.356698 4.862400
v 0.166556 -0.052602 4.862400
v 0.581756 -0.052602 4.862400
v -0.605544 -0.052602 5.499200
v -0.190344 -0.052602 5.499200
v -0.605544 0.356698 5.499200
v -0.190344 0.356698 5.499200
v -0.605544 0.356698 4.862400
v -0.190344 0.356698 4.862400
v -0.605544 -0.052602 4.862400
v -0.190344 -0.052602 4.862400
v -0.605544 -0.983202 5.499200
v -0.190344 -0.983202 5.499200
v -0.605544 -0.573902 5.499200
v -0.190344 -0.573902 5.499200
v -0.605544 -0.573902 4.862400
v -0.190344 -0.573902 4.862400
v -0.605544 -0.983202 4.862400
v -0.190344 -0.983202 4.862400
v 0.166556 -0.983202 5.499200
v 0.581756 -0.983202 5.499200
v 0.166556 -0.573902 5.499200
v 0.581756 -0.573902 5.499200
v 0.166556 -0.573902 4.862400
v 0.581756 -0.573902 4.862400
v 0.166556 -0.983202 4.862400
v 0.581756 -0.983202 4.862400
v 0.166556 0.848398 3.496700
v 0.581756 0.848398 3.496700
v 0.166556 1.257698 3.496700
v 0.581756 1.257698 3.496700
v 0.166556 1.257699 2.859900
v 0.581756 1.257699 2.859900
v 0.166556 0.848400 2.859900
v 0.581756 0.848400 2.859900
v -0.605544 0.848398 3.496700
v -0.190344 0.848398 3.496700
v -0.605544 1.257698 3.496700
v -0.190344 1.257698 3.496700
v -0.605544 1.257699 2.859900
v -0.190344 1.257699 2.859900
v -0.605544 0.848400 2.859900
v -0.190344 0.848400 2.859900
v 0.166556 -0.052602 3.496700
v 0.581756 -0.052602 3.496700
v 0.166556 0.356698 3.496700
v 0.581756 0.356698 3.496700
v 0.166556 0.356700 2.859900
v 0.581756 0.356700 2.859900
v 0.166556 -0.052600 2.859900
v 0.581756 -0.052600 2.859900
v -0.605544 -0.052602 3.496700
v -0.190344 -0.052602 3.496700
v -0.605544 0.356698 3.496700
v -0.190344 0.356698 3.496700
v -0.605544 0.356700 2.859900
v -0.190344 0.356700 2.859900
v -0.605544 -0.052600 2.859900
v -0.190344 -0.052600 2.859900
v -0.605544 -0.983202 3.496700
v -0.190344 -0.983202 3.496700
v -0.605544 -0.573902 3.496700
v -0.190344 -0.573902 3.496700
v -0.605544 -0.573900 2.859900
v -0.190344 -0.573900 2.859900
v -0.605544 -0.983200 2.859900
v -0.190344 -0.983200 2.859900
v 0.166556 -0.983202 3.496700
v 0.581756 -0.983202 3.496700
v 0.166556 -0.573902 3.496700
v 0.581756 -0.573902 3.496700
v 0.166556 -0.573900 2.859900
v 0.581756 -0.573900 2.859900
v 0.166556 -0.983200 2.859900
v 0.581756 -0.983200 2.859900
v 0.166556 0.848400 1.329800
v 0.581756 0.848400 1.329800
v 0.166556 1.257700 1.329800
v 0.581756 1.257700 1.329800
v 0.166556 1.257700 0.693000
v 0.581756 1.257700 0.693000
v 0.166556 0.848400 0.693000
v 0.581756 0.848400 0.693000
v -0.605544 0.848400 1.329800
v -0.190344 0.848400 1.329800
v -0.605544 1.257700 1.329800
v -0.190344 1.257700 1.329800
v -0.605544 1.257700 0.693000
v -0.190344 1.257700 0.693000
v -0.605544 0.848400 0.693000
v -0.190344 0.848400 0.693000
v 0.166556 -0.052600 1.329800
v 0.581756 -0.052600 1.329800
v 0.166556 0.356700 1.329800
v 0.581756 0.356700 1.329800
v 0.166556 0.356700 0.693000
v 0.581756 0.356700 0.693000
v 0.166556 -0.052600 0.693000
v 0.581756 -0.052600 0.693000
v -0.605544 -0.052600 1.329800
v -0.190344 -0.052600 1.329800
v -0.605544 0.356700 1.329800
v -0.190344 0.356700 1.329800
v -0.605544 0.356700 0.693000
v -0.190344 0.356700 0.693000
v -0.605544 -0.052600 0.693000
v -0.190344 -0.052600 0.693000
v -0.605544 -0.983200 1.329800
v -0.190344 -0.983200 1.329800
v -0.605544 -0.573900 1.329800
v -0.190344 -0.573900 1.329800
v -0.605544 -0.573900 0.693000
v -0.190344 -0.573900 0.693000
v -0.605544 -0.983200 0.693000
v -0.190344 -0.983200 0.693000
v 0.166556 -0.983200 1.329800
v 0.581756 -0.983200 1.329800
v 0.166556 -0.573900 1.329800
v 0.581756 -0.573900 1.329800
v 0.166556 -0.573900 0.693000
v 0.581756 -0.573900 0.693000
v 0.166556 -0.983200 0.693000
v 0.581756 -0.983200 0.693000
v 0.166556 0.848400 -0.764400
v 0.581756 0.848400 -0.764400
v 0.166556 1.257700 -0.764400
v 0.581756 1.257700 -0.764400
v 0.166556 1.257700 -1.401200
v 0.581756 1.257700 -1.401200
v 0.166556 0.848400 -1.401200
v 0.581756 0.848400 -1.401200
v -0.605544 0.848400 -0.764400
v -0.190344 0.848400 -0.764400
v -0.605544 1.257700 -0.764400
v -0.190344 1.257700 -0.764400
v -0.605544 1.257700 -1.401200
v -0.190344 1.257700 -1.401200
v -0.605544 0.848400 -1.401200
v -0.190344 0.848400 -1.401200
v 0.166556 -0.052600 -0.764400
v 0.581756 -0.052600 -0.764400
v 0.166556 0.356700 -0.764400
v 0.581756 0.356700 -0.764400
v 0.166556 0.356700 -1.401200
v 0.581756 0.356700 -1.401200
v 0.166556 -0.052600 -1.401200
v 0.581756 -0.052600 -1.401200
v -0.605544 -0.052600 -0.764400
v -0.190344 -0.052600 -0.764400
v -0.605544 0.356700 -0.764400
v -0.190344 0.356700 -0.764400
v -0.605544 0.356700 -1.401200
v -0.190344 0.356700 -1.401200
v -0.605544 -0.052600 -1.401200
v -0.190344 -0.052600 -1.401200
v -0.605544 -0.983200 -0.764400
v -0.190344 -0.983200 -0.764400
v -0.605544 -0.573900 -0.764400
v -0.190344 -0.573900 -0.764400
v -0.605544 -0.573900 -1.401200
v -0.190344 -0.573900 -1.401200
v -0.605544 -0.983200 -1.401200
v -0.190344 -0.983200 -1.401200
v 0.166556 -0.983200 -0.764400
v 0.581756 -0.983200 -0.764400
v 0.166556 -0.573900 -0.764400
v 0.581756 -0.573900 -0.764400
v 0.166556 -0.573900 -1.401200
v 0.581756 -0.573900 -1.401200
v 0.166556 -0.983200 -1.401200
v 0.581756 -0.983200 -1.401200
v 0.166556 0.848400 -2.801300
v 0.581756 0.848400 -2.801300
v 0.166556 1.257700 -2.801300
v 0.581756 1.257700 -2.801300
v 0.166556 1.257702 -3.438100
v 0.581756 1.257702 -3.438100
v 0.166556 0.848402 -3.438100
v 0.581756 0.848402 -3.438100
v -0.605544 0.848400 -2.801300
v -0.190344 0.848400 -2.801300
v -0.605544 1.257700 -2.801300
v -0.190344 1.257700 -2.801300
v -0.605544 1.257702 -3.438100
v -0.190344 1.257702 -3.438100
v -0.605544 0.848402 -3.438100
v -0.190344 0.848402 -3.438100
v 0.166556 -0.052600 -2.801300
v 0.581756 -0.052600 -2.801300
v 0.166556 0.356700 -2.801300
v 0.581756 0.356700 -2.801300
v 0.166556 0.356702 -3.438100
v 0.581756 0.356702 -3.438100
v 0.166556 -0.052598 -3.438100
v 0.581756 -0.052598 -3.438100
v -0.605544 -0.052600 -2.801300
v -0.190344 -0.052600 -2.801300
v -0.605544 0.356700 -2.801300
v -0.190344 0.356700 -2.801300
v -0.605544 0.356702 -3.438100
v -0.190344 0.356702 -3.438100
v -0.605544 -0.052598 -3.438100
v -0.190344 -0.052598 -3.438100
v -0.605544 -0.983200 -2.801300
v -0.190344 -0.983200 -2.801300
v -0.605544 -0.573900 -2.801300
v -0.190344 -0.573900 -2.801300
v -0.605544 -0.573898 -3.438100
v -0.190344 -0.573898 -3.438100
v -0.605544 -0.983198 -3.438100
v -0.190344 -0.983198 -3.438100
v 0.166556 -0.983200 -2.801300
v 0.581756 -0.983200 -2.801300
v 0.166556 -0.573900 -2.801300
v 0.581756 -0.573900 -2.801300
v 0.166556 -0.573898 -3.438100
v 0.581756 -0.573898 -3.438100
v 0.166556 -0.983198 -3.438100
v 0.581756 -0.983198 -3.438100
v 0.166556 0.848402 -4.819700
v 0.581756 0.848402 -4.819700
v 0.166556 1.257702 -4.819700
v 0.581756 1.257702 -4.819700
v 0.166556 1.257702 -5.456500
v 0.581756 1.257702 -5.456500
v 0.166556 0.848402 -5.456500
v 0.581756 0.848402 -5.456500
v -0.605544 0.848402 -4.819700
v -0.190344 0.848402 -4.819700
v -0.605544 1.257702 -4.819700
v -0.190344 1.257702 -4.819700
v -0.605544 1.257702 -5.456500
v -0.190344 1.257702 -5.456500
v -0.605544 0.848402 -5.456500
v -0.190344 0.848402 -5.456500
v 0.166556 -0.052598 -4.819700
v 0.581756 -0.052598 -4.819700
v 0.166556 0.356702 -4.819700
v 0.581756 0.356702 -4.819700
v 0.166556 0.356702 -5.456500
v 0.581756 0.356702 -5.456500
v 0.166556 -0.052598 -5.456500
v 0.581756 -0.052598 -5.456500
v -0.605544 -0.052598 -4.819700
v -0.190344 -0.052598 -4.819700
v -0.605544 0.356702 -4.819700
v -0.190344 0.356702 -4.819700
v -0.605544 0.356702 -5.456500
v -0.190344 0.356702 -5.456500
v -0.605544 -0.052598 -5.456500
v -0.190344 -0.052598 -5.456500
v -0.605544 -0.983198 -4.819700
v -0.190344 -0.983198 -4.819700
v -0.605544 -0.573898 -4.819700
v -0.190344 -0.573898 -4.819700
v -0.605544 -0.573898 -5.456500
v -0.190344 -0.573898 -5.456500
v -0.605544 -0.983198 -5.456500
v -0.190344 -0.983198 -5.456500
v 0.166556 -0.983198 -4.819700
v 0.581756 -0.983198 -4.819700
v 0.166556 -0.573898 -4.819700
v 0.581756 -0.573898 -4.819700
v 0.166556 -0.573898 -5.456500
v 0.581756 -0.573898 -5.456500
v 0.166556 -0.983198 -5.456500
v 0.581756 -0.983198 -5.456500
v 0.166556 0.848402 -6.834100
v 0.581756 0.848402 -6.834100
v 0.166556 1.257702 -6.834100
v 0.581756 1.257702 -6.834100
v 0.166556 1.257702 -7.470900
v 0.581756 1.257702 -7.470900
v 0.166556 0.848402 -7.470900
v 0.581756 0.848402 -7.470900
v -0.605544 0.848402 -6.834100
v -0.190344 0.848402 -6.834100
v -0.605544 1.257702 -6.834100
v -0.190344 1.257702 -6.834100
v -0.605544 1.257702 -7.470900
v -0.190344 1.257702 -7.470900
v -0.605544 0.848402 -7.470900
v -0.190344 0.848402 -7.470900
v 0.166556 -0.052598 -6.834100
v 0.581756 -0.052598 -6.834100
v 0.166556 0.356702 -6.834100
v 0.581756 0.356702 -6.834100
v 0.166556 0.356702 -7.470900
v 0.581756 0.356702 -7.470900
v 0.166556 -0.052598 -7.470900
v 0.581756 -0.052598 -7.470900
v -0.605544 -0.052598 -6.834100
v -0.190344 -0.052598 -6.834100
v -0.605544 0.356702 -6.834100
v -0.190344 0.356702 -6.834100
v -0.605544 0.356702 -7.470900
v -0.190344 0.356702 -7.470900
v -0.605544 -0.052598 -7.470900
v -0.190344 -0.052598 -7.470900
v -0.605544 -0.983198 -6.834100
v -0.190344 -0.983198 -6.834100
v -0.605544 -0.573898 -6.834100
v -0.190344 -0.573898 -6.834100
v -0.605544 -0.573898 -7.470900
v -0.190344 -0.573898 -7.470900
v -0.605544 -0.983198 -7.470900
v -0.190344 -0.983198 -7.470900
v 0.166556 -0.983198 -6.834100
v 0.581756 -0.983198 -6.834100
v 0.166556 -0.573898 -6.834100
v 0.581756 -0.573898 -6.834100
v 0.166556 -0.573898 -7.470900
v 0.581756 -0.573898 -7.470900
v 0.166556 -0.983198 -7.470900
v 0.581756 -0.983198 -7.470900
v 0.166556 0.848403 -8.988400
v 0.581756 0.848403 -8.988400
v 0.166556 1.257702 -8.988400
v 0.581756 1.257702 -8.988400
v 0.166556 1.257704 -9.625199
v 0.581756 1.257704 -9.625199
v 0.166556 0.848404 -9.625199
v 0.581756 0.848404 -9.625199
v -0.605544 0.848403 -8.988400
v -0.190344 0.848403 -8.988400
v -0.605544 1.257702 -8.988400
v -0.190344 1.257702 -8.988400
v -0.605544 1.257704 -9.625199
v -0.190344 1.257704 -9.625199
v -0.605544 0.848404 -9.625199
v -0.190344 0.848404 -9.625199
v 0.166556 -0.052598 -8.988400
v 0.581756 -0.052598 -8.988400
v 0.166556 0.356702 -8.988400
v 0.581756 0.356702 -8.988400
v 0.166556 0.356704 -9.625199
v 0.581756 0.356704 -9.625199
v 0.166556 -0.052596 -9.625199
v 0.581756 -0.052596 -9.625199
v -0.605544 -0.052598 -8.988400
v -0.190344 -0.052598 -8.988400
v -0.605544 0.356702 -8.988400
v -0.190344 0.356702 -8.988400
v -0.605544 0.356704 -9.625199
v -0.190344 0.356704 -9.625199
v -0.605544 -0.052596 -9.625199
v -0.190344 -0.052596 -9.625199
v -0.605544 -0.983198 -8.988400
v -0.190344 -0.983198 -8.988400
v -0.605544 -0.573897 -8.988400
v -0.190344 -0.573897 -8.988400
v -0.605544 -0.573896 -9.625199
v -0.190344 -0.573896 -9.625199
v -0.605544 -0.983196 -9.625199
v -0.190344 -0.983196 -9.625199
v 0.166556 -0.983198 -8.988400
v 0.581756 -0.983198 -8.988400
v 0.166556 -0.573897 -8.988400
v 0.581756 -0.573897 -8.988400
v 0.166556 -0.573896 -9.625199
v 0.581756 -0.573896 -9.625199
v 0.166556 -0.983196 -9.625199
v 0.581756 -0.983196 -9.625199
vn -0.0000 1.0000 -0.0000
vn -0.0000 -0.0000 1.0000
vn -0.0000 -0.0000 -1.0000
vn -1.0000 -0.0000 -0.0000
vn 1.0000 -0.0000 -0.0000
vt 0.250000 0.500000
vt 0.250000 0.500000
vt 0.250000 0.500000
vt 0.250000 0.500000
vt 0.250000 0.500000
vt 0.250000 0.500000
vt 0.250000 0.500000
vt 0.250000 0.500000
vt 0.250000 0.500000
vt 0.250000 0.500000
vt 0.250000 0.500000
vt 0.250000 0.500000
vt 0.257812 0.500000
vt 0.257812 0.500000
vt 0.257812 0.500000
vt 0.257812 0.500000
vt 0.257812 0.500000
vt 0.257812 0.500000
vt 0.257812 0.500000
vt 0.257812 0.500000
vt 0.250000 0.500000
vt 0.250000 0.500000
vt 0.250000 0.500000
vt 0.250000 0.500000
vt 0.250000 0.500000
vt 0.250000 0.500000
vt 0.250000 0.500000
vt 0.250000 0.500000
vt 0.257812 0.500000
vt 0.257812 0.500000
vt 0.257812 0.500000
vt 0.257812 0.500000
vt 0.257812 0.500000
vt 0.257812 0.500000
vt 0.257812 0.500000
vt 0.257812 0.500000
vt 0.250000 0.500000
vt 0.250000 0.500000
vt 0.250000 0.500000
vt 0.250000 0.500000
vt 0.250000 0.500000
vt 0.250000 0.500000
vt 0.250000 0.500000
vt 0.250000 0.500000
vt 0.250000 0.500000
vt 0.250000 0.500000
vt 0.250000 0.500000
vt 0.250000 0.500000
vt 0.250000 0.500000
vt 0.250000 0.500000
vt 0.250000 0.500000
vt 0.250000 0.500000
vt 0.250000 0.500000
vt 0.250000 0.500000
vt 0.250000 0.500000
vt 0.250000 0.500000
vt 0.257812 0.500000
vt 0.257812 0.500000
vt 0.257812 0.500000
vt 0.257812 0.500000
vt 0.257812 0.500000
vt 0.257812 0.500000
vt 0.257812 0.500000
vt 0.257812 0.500000
vt 0.250000 0.500000
vt 0.250000 0.500000
vt 0.250000 0.500000
vt 0.250000 0.500000
vt 0.250000 0.500000
vt 0.250000 0.500000
vt 0.250000 0.500000
vt 0.250000 0.500000
vt 0.257812 0.500000
vt 0.257812 0.500000
vt 0.257812 0.500000
vt 0.257812 0.500000
vt 0.257812 0.500000
vt 0.257812 0.500000
vt 0.257812 0.500000
vt 0.257812 0.500000
vt 0.250000 0.500000
vt 0.250000 0.500000
vt 0.250000 0.500000
vt 0.250000 0.500000
vt 0.250000 0.500000
vt 0.250000 0.500000
vt 0.250000 0.500000
vt 0.250000 0.500000
vt 0.250000 0.500000
vt 0.250000 0.500000
vt 0.250000 0.500000
vt 0.250000 0.500000
vt 0.250000 0.500000
vt 0.250000 0.500000
vt 0.250000 0.500000
vt 0.250000 0.500000
vt 0.250000 0.500000
vt 0.250000 0.500000
vt 0.250000 0.500000
vt 0.250000 0.500000
vt 0.257812 0.500000
vt 0.257812 0.500000
vt 0.257812 0.500000
vt 0.257812 0.500000
vt 0.257812 0.500000
vt 0.257812 0.500000
vt 0.257812 0.500000
vt 0.257812 0.500000
vt 0.250000 0.500000
vt 0.250000 0.500000
vt 0.250000 0.500000
vt 0.250000 0.500000
vt 0.250000 0.500000
vt 0.250000 0.500000
vt 0.250000 0.500000
vt 0.250000 0.500000
vt 0.257812 0.500000
vt 0.257812 0.500000
vt 0.257812 0.500000
vt 0.257812 0.500000
vt 0.257812 0.500000
vt 0.257812 0.500000
vt 0.257812 0.500000
vt 0.257812 0.500000
vt 0.250000 0.500000
vt 0.250000 0.500000
vt 0.250000 0.500000
vt 0.250000 0.500000
vt 0.250000 0.500000
vt 0.250000 0.500000
vt 0.250000 0.500000
vt 0.250000 0.500000
vt 0.250000 0.500000
vt 0.250000 0.500000
vt 0.250000 0.500000
vt 0.250000 0.500000
vt 0.250000 0.500000
vt 0.250000 0.500000
vt 0.250000 0.500000
vt 0.250000 0.500000
vt 0.250000 0.500000
vt 0.250000 0.500000
vt 0.250000 0.500000
vt 0.250000 0.500000
vt 0.257812 0.500000
vt 0.257812 0.500000
vt 0.257812 0.500000
vt 0.257812 0.500000
vt 0.257812 0.500000
vt 0.257812 0.500000
vt 0.257812 0.500000
vt 0.257812 0.500000
vt 0.250000 0.500000
vt 0.250000 0.500000
vt 0.250000 0.500000
vt 0.250000 0.500000
vt 0.250000 0.500000
vt 0.250000 0.500000
vt 0.250000 0.500000
vt 0.250000 0.500000
vt 0.257812 0.500000
vt 0.257812 0.500000
vt 0.257812 0.500000
vt 0.257812 0.500000
vt 0.257812 0.500000
vt 0.257812 0.500000
vt 0.257812 0.500000
vt 0.257812 0.500000
vt 0.250000 0.500000
vt 0.250000 0.500000
vt 0.250000 0.500000
vt 0.250000 0.500000
vt 0.250000 0.500000
vt 0.250000 0.500000
vt 0.250000 0.500000
vt 0.250000 0.500000
vt 0.250000 0.500000
vt 0.250000 0.500000
vt 0.250000 0.500000
vt 0.250000 0.500000
vt 0.250000 0.500000
vt 0.250000 0.500000
vt 0.250000 0.500000
vt 0.250000 0.500000
vt 0.250000 0.500000
vt 0.250000 0.500000
vt 0.250000 0.500000
vt 0.250000 0.500000
vt 0.257812 0.500000
vt 0.257812 0.500000
vt 0.257812 0.500000
vt 0.257812 0.500000
vt 0.257812 0.500000
vt 0.257812 0.500000
vt 0.257812 0.500000
vt 0.257812 0.500000
vt 0.250000 0.500000
vt 0.250000 0.500000
vt 0.250000 0.500000
vt 0.250000 0.500000
vt 0.250000 0.500000
vt 0.250000 0.500000
vt 0.250000 0.500000
vt 0.250000 0.500000
vt 0.257812 0.500000
vt 0.257812 0.500000
vt 0.257812 0.500000
vt 0.257812 0.500000
vt 0.257812 0.500000
vt 0.257812 0.500000
vt 0.257812 0.500000
vt 0.257812 0.500000
vt 0.250000 0.500000
vt 0.250000 0.500000
vt 0.250000 0.500000
vt 0.250000 0.500000
vt 0.250000 0.500000
vt 0.250000 0.500000
vt 0.250000 0.500000
vt 0.250000 0.500000
vt 0.250000 0.500000
vt 0.250000 0.500000
vt 0.250000 0.500000
vt 0.250000 0.500000
vt 0.250000 0.500000
vt 0.250000 0.500000
vt 0.250000 0.500000
vt 0.250000 0.500000
vt 0.250000 0.500000
vt 0.250000 0.500000
vt 0.250000 0.500000
vt 0.250000 0.500000
vt 0.257812 0.500000
vt 0.257812 0.500000
vt 0.257812 0.500000
vt 0.257812 0.500000
vt 0.257812 0.500000
vt 0.257812 0.500000
vt 0.257812 0.500000
vt 0.257812 0.500000
vt 0.250000 0.500000
vt 0.250000 0.500000
vt 0.250000 0.500000
vt 0.250000 0.500000
vt 0.250000 0.500000
vt 0.250000 0.500000
vt 0.250000 0.500000
vt 0.250000 0.500000
vt 0.257812 0.500000
vt 0.257812 0.500000
vt 0.257812 0.500000
vt 0.257812 0.500000
vt 0.257812 0.500000
vt 0.257812 0.500000
vt 0.257812 0.500000
vt 0.257812 0.500000
vt 0.250000 0.500000
vt 0.250000 0.500000
vt 0.250000 0.500000
vt 0.250000 0.500000
vt 0.250000 0.500000
vt 0.250000 0.500000
vt 0.250000 0.500000
vt 0.250000 0.500000
vt 0.250000 0.500000
vt 0.250000 0.500000
vt 0.250000 0.500000
vt 0.250000 0.500000
vt 0.250000 0.500000
vt 0.250000 0.500000
vt 0.250000 0.500000
vt 0.250000 0.500000
vt 0.250000 0.500000
vt 0.250000 0.500000
vt 0.250000 0.500000
vt 0.250000 0.500000
vt 0.257812 0.500000
vt 0.257812 0.500000
vt 0.257812 0.500000
vt 0.257812 0.500000
vt 0.257812 0.500000
vt 0.257812 0.500000
vt 0.257812 0.500000
vt 0.257812 0.500000
vt 0.250000 0.500000
vt 0.250000 0.500000
vt 0.250000 0.500000
vt 0.250000 0.500000
vt 0.250000 0.500000
vt 0.250000 0.500000
vt 0.250000 0.500000
vt 0.250000 0.500000
vt 0.257812 0.500000
vt 0.257812 0.500000
vt 0.257812 0.500000
vt 0.257812 0.500000
vt 0.257812 0.500000
vt 0.257812 0.500000
vt 0.257812 0.500000
vt 0.257812 0.500000
vt 0.250000 0.500000
vt 0.250000 0.500000
vt 0.250000 0.500000
vt 0.250000 0.500000
vt 0.250000 0.500000
vt 0.250000 0.500000
vt 0.250000 0.500000
vt 0.250000 0.500000
vt 0.250000 0.500000
vt 0.250000 0.500000
vt 0.250000 0.500000
vt 0.250000 0.500000
vt 0.250000 0.500000
vt 0.250000 0.500000
vt 0.250000 0.500000
vt 0.250000 0.500000
vt 0.250000 0.500000
vt 0.250000 0.500000
vt 0.250000 0.500000
vt 0.250000 0.500000
vt 0.257812 0.500000
vt 0.257812 0.500000
vt 0.257812 0.500000
vt 0.257812 0.500000
vt 0.257812 0.500000
vt 0.257812 0.500000
vt 0.257812 0.500000
vt 0.257812 0.500000
vt 0.250000 0.500000
vt 0.250000 0.500000
vt 0.250000 0.500000
vt 0.250000 0.500000
vt 0.250000 0.500000
vt 0.250000 0.500000
vt 0.250000 0.500000
vt 0.250000 0.500000
vt 0.257812 0.500000
vt 0.257812 0.500000
vt 0.257812 0.500000
vt 0.257812 0.500000
vt 0.257812 0.500000
vt 0.257812 0.500000
vt 0.257812 0.500000
vt 0.257812 0.500000
vt 0.250000 0.500000
vt 0.250000 0.500000
vt 0.250000 0.500000
vt 0.250000 0.500000
vt 0.250000 0.500000
vt 0.250000 0.500000
vt 0.250000 0.500000
vt 0.250000 0.500000
vt 0.250000 0.500000
vt 0.250000 0.500000
vt 0.250000 0.500000
vt 0.250000 0.500000
vt 0.250000 0.500000
vt 0.250000 0.500000
vt 0.250000 0.500000
vt 0.250000 0.500000
vt 0.250000 0.500000
vt 0.250000 0.500000
vt 0.250000 0.500000
vt 0.250000 0.500000
vt 0.257812 0.500000
vt 0.257812 0.500000
vt 0.257812 0.500000
vt 0.257812 0.500000
vt 0.257812 0.500000
vt 0.257812 0.500000
vt 0.257812 0.500000
vt 0.257812 0.500000
vt 0.250000 0.500000
vt 0.250000 0.500000
vt 0.250000 0.500000
vt 0.250000 0.500000
vt 0.250000 0.500000
vt 0.250000 0.500000
vt 0.250000 0.500000
vt 0.250000 0.500000
vt 0.257812 0.500000
vt 0.257812 0.500000
vt 0.257812 0.500000
vt 0.257812 0.500000
vt 0.257812 0.500000
vt 0.257812 0.500000
vt 0.257812 0.500000
vt 0.257812 0.500000
vt 0.250000 0.500000
vt 0.250000 0.500000
vt 0.250000 0.500000
vt 0.250000 0.500000
vt 0.250000 0.500000
vt 0.250000 0.500000
vt 0.250000 0.500000
vt 0.250000 0.500000
vt 0.250000 0.500000
vt 0.250000 0.500000
vt 0.250000 0.500000
vt 0.250000 0.500000
vt 0.250000 0.500000
vt 0.250000 0.500000
vt 0.250000 0.500000
vt 0.250000 0.500000
vt 0.250000 0.500000
vt 0.250000 0.500000
vt 0.250000 0.500000
vt 0.250000 0.500000
vt 0.257812 0.500000
vt 0.257812 0.500000
vt 0.257812 0.500000
vt 0.257812 0.500000
vt 0.257812 0.500000
vt 0.257812 0.500000
vt 0.257812 0.500000
vt 0.257812 0.500000
vt 0.250000 0.500000
vt 0.250000 0.500000
vt 0.250000 0.500000
vt 0.250000 0.500000
vt 0.250000 0.500000
vt 0.250000 0.500000
vt 0.250000 0.500000
vt 0.250000 0.500000
vt 0.257812 0.500000
vt 0.257812 0.500000
vt 0.257812 0.500000
vt 0.257812 0.500000
vt 0.257812 0.500000
vt 0.257812 0.500000
vt 0.257812 0.500000
vt 0.257812 0.500000
vt 0.250000 0.500000
vt 0.250000 0.500000
vt 0.250000 0.500000
vt 0.250000 0.500000
vt 0.250000 0.500000
vt 0.250000 0.500000
vt 0.250000 0.500000
vt 0.250000 0.500000
vt 0.750000 0.500000
vt 0.750000 0.500000
vt 0.750000 0.500000
vt 0.750000 0.500000
vt 0.750000 0.500000
vt 0.750000 0.500000
vt 0.750000 0.500000
vt 0.750000 0.500000
vt 0.750000 0.500000
vt 0.750000 0.500000
vt 0.750000 0.500000
vt 0.750000 0.500000
vt 0.750000 0.500000
vt 0.750000 0.500000
vt 0.750000 0.500000
vt 0.750000 0.500000
vt 0.750000 0.500000
vt 0.750000 0.500000
vt 0.750000 0.500000
vt 0.750000 0.500000
vt 0.750000 0.500000
vt 0.750000 0.500000
vt 0.750000 0.500000
vt 0.750000 0.500000
vt 0.750000 0.500000
vt 0.750000 0.500000
vt 0.750000 0.500000
vt 0.750000 0.500000
vt 0.750000 0.500000
vt 0.750000 0.500000
vt 0.750000 0.500000
vt 0.750000 0.500000
vt 0.750000 0.500000
vt 0.750000 0.500000
vt 0.750000 0.500000
vt 0.750000 0.500000
vt 0.750000 0.500000
vt 0.750000 0.500000
vt 0.750000 0.500000
vt 0.750000 0.500000
vt 0.750000 0.500000
vt 0.750000 0.500000
vt 0.750000 0.500000
vt 0.750000 0.500000
vt 0.750000 0.500000
vt 0.750000 0.500000
vt 0.750000 0.500000
vt 0.750000 0.500000
vt 0.750000 0.500000
vt 0.750000 0.500000
vt 0.750000 0.500000
vt 0.750000 0.500000
vt 0.750000 0.500000
vt 0.750000 0.500000
vt 0.750000 0.500000
vt 0.750000 0.500000
vt 0.750000 0.500000
vt 0.750000 0.500000
vt 0.750000 0.500000
vt 0.750000 0.500000
vt 0.750000 0.500000
vt 0.750000 0.500000
vt 0.750000 0.500000
vt 0.750000 0.500000
vt 0.750000 0.500000
vt 0.750000 0.500000
vt 0.750000 0.500000
vt 0.750000 0.500000
vt 0.750000 0.500000
vt 0.750000 0.500000
vt 0.750000 0.500000
vt 0.750000 0.500000
vt 0.750000 0.500000
vt 0.750000 0.500000
vt 0.750000 0.500000
vt 0.750000 0.500000
vt 0.750000 0.500000
vt 0.750000 0.500000
vt 0.750000 0.500000
vt 0.750000 0.500000
vt 0.750000 0.500000
vt 0.750000 0.500000
vt 0.750000 0.500000
vt 0.750000 0.500000
vt 0.750000 0.500000
vt 0.750000 0.500000
vt 0.750000 0.500000
vt 0.750000 0.500000
vt 0.750000 0.500000
vt 0.750000 0.500000
vt 0.750000 0.500000
vt 0.750000 0.500000
vt 0.750000 0.500000
vt 0.750000 0.500000
vt 0.750000 0.500000
vt 0.750000 0.500000
vt 0.750000 0.500000
vt 0.750000 0.500000
vt 0.750000 0.500000
vt 0.750000 0.500000
vt 0.750000 0.500000
vt 0.750000 0.500000
vt 0.750000 0.500000
vt 0.750000 0.500000
vt 0.750000 0.500000
vt 0.750000 0.500000
vt 0.750000 0.500000
vt 0.750000 0.500000
vt 0.750000 0.500000
vt 0.750000 0.500000
vt 0.750000 0.500000
vt 0.750000 0.500000
vt 0.750000 0.500000
vt 0.750000 0.500000
vt 0.750000 0.500000
vt 0.750000 0.500000
vt 0.750000 0.500000
vt 0.750000 0.500000
vt 0.750000 0.500000
vt 0.750000 0.500000
vt 0.750000 0.500000
vt 0.750000 0.500000
vt 0.750000 0.500000
vt 0.750000 0.500000
vt 0.750000 0.500000
vt 0.750000 0.500000
vt 0.750000 0.500000
vt 0.750000 0.500000
vt 0.750000 0.500000
vt 0.750000 0.500000
vt 0.750000 0.500000
vt 0.750000 0.500000
vt 0.750000 0.500000
vt 0.750000 0.500000
vt 0.750000 0.500000
vt 0.750000 0.500000
vt 0.750000 0.500000
vt 0.750000 0.500000
vt 0.750000 0.500000
vt 0.750000 0.500000
vt 0.750000 0.500000
vt 0.750000 0.500000
vt 0.750000 0.500000
vt 0.750000 0.500000
vt 0.750000 0.500000
vt 0.750000 0.500000
vt 0.750000 0.500000
vt 0.750000 0.500000
vt 0.750000 0.500000
vt 0.750000 0.500000
vt 0.750000 0.500000
vt 0.750000 0.500000
vt 0.750000 0.500000
vt 0.750000 0.500000
vt 0.750000 0.500000
vt 0.750000 0.500000
vt 0.750000 0.500000
vt 0.750000 0.500000
vt 0.750000 0.500000
vt 0.750000 0.500000
vt 0.750000 0.500000
vt 0.750000 0.500000
vt 0.750000 0.500000
vt 0.750000 0.500000
vt 0.750000 0.500000
vt 0.750000 0.500000
vt 0.750000 0.500000
vt 0.750000 0.500000
vt 0.750000 0.500000
vt 0.750000 0.500000
vt 0.750000 0.500000
vt 0.750000 0.500000
vt 0.750000 0.500000
vt 0.750000 0.500000
vt 0.750000 0.500000
vt 0.750000 0.500000
vt 0.750000 0.500000
vt 0.750000 0.500000
vt 0.750000 0.500000
vt 0.750000 0.500000
vt 0.750000 0.500000
vt 0.750000 0.500000
vt 0.750000 0.500000
vt 0.750000 0.500000
vt 0.750000 0.500000
vt 0.750000 0.500000
vt 0.750000 0.500000
vt 0.750000 0.500000
vt 0.750000 0.500000
vt 0.750000 0.500000
vt 0.750000 0.500000
vt 0.750000 0.500000
vt 0.750000 0.500000
vt 0.750000 0.500000
vt 0.750000 0.500000
vt 0.750000 0.500000
vt 0.750000 0.500000
vt 0.750000 0.500000
vt 0.750000 0.500000
vt 0.750000 0.500000
vt 0.750000 0.500000
vt 0.750000 0.500000
vt 0.750000 0.500000
vt 0.750000 0.500000
vt 0.750000 0.500000
vt 0.750000 0.500000
vt 0.750000 0.500000
vt 0.750000 0.500000
vt 0.750000 0.500000
vt 0.750000 0.500000
vt 0.750000 0.500000
vt 0.750000 0.500000
vt 0.750000 0.500000
vt 0.750000 0.500000
vt 0.750000 0.500000
vt 0.750000 0.500000
vt 0.750000 0.500000
vt 0.750000 0.500000
vt 0.750000 0.500000
vt 0.750000 0.500000
vt 0.750000 0.500000
vt 0.750000 0.500000
vt 0.750000 0.500000
vt 0.750000 0.500000
vt 0.750000 0.500000
vt 0.750000 0.500000
vt 0.750000 0.500000
vt 0.750000 0.500000
vt 0.750000 0.500000
vt 0.750000 0.500000
vt 0.750000 0.500000
vt 0.750000 0.500000
vt 0.750000 0.500000
vt 0.750000 0.500000
vt 0.750000 0.500000
vt 0.750000 0.500000
vt 0.750000 0.500000
vt 0.750000 0.500000
vt 0.750000 0.500000
vt 0.750000 0.500000
vt 0.750000 0.500000
vt 0.750000 0.500000
vt 0.750000 0.500000
vt 0.750000 0.500000
vt 0.750000 0.500000
vt 0.750000 0.500000
vt 0.750000 0.500000
vt 0.750000 0.500000
vt 0.750000 0.500000
vt 0.750000 0.500000
vt 0.750000 0.500000
vt 0.750000 0.500000
vt 0.750000 0.500000
vt 0.750000 0.500000
vt 0.750000 0.500000
vt 0.750000 0.500000
vt 0.750000 0.500000
vt 0.750000 0.500000
vt 0.750000 0.500000
vt 0.750000 0.500000
vt 0.750000 0.500000
vt 0.750000 0.500000
vt 0.750000 0.500000
vt 0.750000 0.500000
vt 0.750000 0.500000
vt 0.750000 0.500000
vt 0.750000 0.500000
vt 0.750000 0.500000
vt 0.750000 0.500000
vt 0.750000 0.500000
vt 0.750000 0.500000
vt 0.750000 0.500000
vt 0.750000 0.500000
vt 0.750000 0.500000
vt 0.750000 0.500000
vt 0.750000 0.500000
vt 0.750000 0.500000
vt 0.750000 0.500000
vt 0.750000 0.500000
vt 0.750000 0.500000
vt 0.750000 0.500000
vt 0.750000 0.500000
vt 0.750000 0.500000
vt 0.750000 0.500000
vt 0.750000 0.500000
vt 0.750000 0.500000
vt 0.750000 0.500000
vt 0.750000 0.500000
vt 0.750000 0.500000
vt 0.750000 0.500000
vt 0.750000 0.500000
vt 0.750000 0.500000
vt 0.750000 0.500000
vt 0.750000 0.500000
vt 0.750000 0.500000
vt 0.750000 0.500000
vt 0.750000 0.500000
vt 0.750000 0.500000
vt 0.750000 0.500000
vt 0.750000 0.500000
vt 0.750000 0.500000
vt 0.750000 0.500000
vt 0.750000 0.500000
vt 0.750000 0.500000
vt 0.750000 0.500000
vt 0.750000 0.500000
vt 0.750000 0.500000
vt 0.750000 0.500000
vt 0.750000 0.500000
vt 0.750000 0.500000
vt 0.750000 0.500000
vt 0.750000 0.500000
vt 0.750000 0.500000
vt 0.750000 0.500000
vt 0.750000 0.500000
vt 0.750000 0.500000
vt 0.750000 0.500000
vt 0.750000 0.500000
vt 0.750000 0.500000
vt 0.750000 0.500000
vt 0.750000 0.500000
vt 0.750000 0.500000
vt 0.750000 0.500000
vt 0.750000 0.500000
vt 0.750000 0.500000
vt 0.750000 0.500000
vt 0.750000 0.500000
vt 0.750000 0.500000
vt 0.750000 0.500000
vt 0.750000 0.500000
vt 0.750000 0.500000
vt 0.750000 0.500000
vt 0.750000 0.500000
vt 0.750000 0.500000
vt 0.750000 0.500000
vt 0.750000 0.500000
vt 0.750000 0.500000
vt 0.750000 0.500000
vt 0.750000 0.500000
vt 0.750000 0.500000
vt 0.750000 0.500000
vt 0.750000 0.500000
vt 0.750000 0.500000
vt 0.750000 0.500000
vt 0.750000 0.500000
vt 0.750000 0.500000
vt 0.750000 0.500000
vt 0.750000 0.500000
vt 0.750000 0.500000
vt 0.750000 0.500000
vt 0.750000 0.500000
vt 0.750000 0.500000
vt 0.750000 0.500000
vt 0.750000 0.500000
vt 0.750000 0.500000
vt 0.750000 0.500000
vt 0.750000 0.500000
vt 0.750000 0.500000
vt 0.750000 0.500000
vt 0.750000 0.500000
vt 0.750000 0.500000
vt 0.750000 0.500000
vt 0.750000 0.500000
vt 0.750000 0.500000
vt 0.750000 0.500000
vt 0.750000 0.500000
vt 0.750000 0.500000
vt 0.750000 0.500000
vt 0.750000 0.500000
vt 0.750000 0.500000
vt 0.750000 0.500000
vt 0.750000 0.500000
vt 0.750000 0.500000
vt 0.750000 0.500000
vt 0.750000 0.500000
vt 0.750000 0.500000
vt 0.750000 0.500000
vt 0.750000 0.500000
vt 0.750000 0.500000
vt 0.750000 0.500000
vt 0.750000 0.500000
vt 0.750000 0.500000
vt 0.750000 0.500000
vt 0.750000 0.500000
vt 0.750000 0.500000
vt 0.750000 0.500000
vt 0.750000 0.500000
vt 0.750000 0.500000
vt 0.750000 0.500000
vt 0.750000 0.500000
vt 0.750000 0.500000
vt 0.750000 0.500000
vt 0.750000 0.500000
vt 0.750000 0.500000
vt 0.750000 0.500000
vt 0.750000 0.500000
vt 0.750000 0.500000
vt 0.750000 0.500000
vt 0.750000 0.500000
vt 0.750000 0.500000
vt 0.750000 0.500000
vt 0.750000 0.500000
vt 0.750000 0.500000
vt 0.750000 0.500000
vt 0.750000 0.500000
vt 0.750000 0.500000
vt 0.750000 0.500000
vt 0.750000 0.500000
vt 0.750000 0.500000
vt 0.750000 0.500000
vt 0.750000 0.500000
vt 0.750000 0.500000
vt 0.750000 0.500000
vt 0.750000 0.500000
vt 0.750000 0.500000
vt 0.750000 0.500000
vt 0.750000 0.500000
vt 0.750000 0.500000
vt 0.750000 0.500000
vt 0.750000 0.500000
vt 0.750000 0.500000
vt 0.750000 0.500000
vt 0.750000 0.500000
vt 0.750000 0.500000
vt 0.750000 0.500000
vt 0.750000 0.500000
vt 0.750000 0.500000
vt 0.750000 0.500000
vt 0.750000 0.500000
vt 0.750000 0.500000
vt 0.750000 0.500000
vt 0.750000 0.500000
vt 0.750000 0.500000
vt 0.750000 0.500000
vt 0.750000 0.500000
vt 0.750000 0.500000
vt 0.750000 0.500000
vt 0.750000 0.500000
vt 0.750000 0.500000
vt 0.750000 0.500000
vt 0.750000 0.500000
vt 0.750000 0.500000
vt 0.750000 0.500000
vt 0.750000 0.500000
vt 0.750000 0.500000
vt 0.750000 0.500000
vt 0.750000 0.500000
vt 0.750000 0.500000
vt 0.750000 0.500000
vt 0.750000 0.500000
vt 0.750000 0.500000
vt 0.750000 0.500000
vt 0.750000 0.500000
vt 0.750000 0.500000
vt 0.750000 0.500000
vt 0.750000 0.500000
vt 0.750000 0.500000
vt 0.750000 0.500000
vt 0.750000 0.500000
vt 0.750000 0.500000
vt 0.750000 0.500000
vt 0.750000 0.500000
vt 0.750000 0.500000
vt 0.750000 0.500000
vt 0.750000 0.500000
vt 0.750000 0.500000
vt 0.750000 0.500000
vt 0.750000 0.500000
vt 0.750000 0.500000
vt 0.750000 0.500000
vt 0.750000 0.500000
vt 0.750000 0.500000
vt 0.750000 0.500000
vt 0.750000 0.500000
vt 0.750000 0.500000
vt 0.750000 0.500000
vt 0.750000 0.500000
vt 0.750000 0.500000
vt 0.750000 0.500000
vt 0.750000 0.500000
vt 0.750000 0.500000
vt 0.750000 0.500000
vt 0.750000 0.500000
vt 0.750000 0.500000
vt 0.750000 0.500000
vt 0.750000 0.500000
vt 0.750000 0.500000
vt 0.750000 0.500000
vt 0.750000 0.500000
vt 0.750000 0.500000
vt 0.750000 0.500000
vt 0.750000 0.500000
vt 0.750000 0.500000
vt 0.750000 0.500000
vt 0.750000 0.500000
vt 0.750000 0.500000
vt 0.750000 0.500000
vt 0.750000 0.500000
vt 0.750000 0.500000
vt 0.750000 0.500000
vt 0.750000 0.500000
vt 0.750000 0.500000
vt 0.750000 0.500000
vt 0.750000 0.500000
vt 0.750000 0.500000
vt 0.750000 0.500000
vt 0.750000 0.500000
vt 0.750000 0.500000
vt 0.750000 0.500000
vt 0.750000 0.500000
vt 0.750000 0.500000
vt 0.750000 0.500000
vt 0.750000 0.500000
vt 0.750000 0.500000
vt 0.750000 0.500000
vt 0.750000 0.500000
vt 0.750000 0.500000
vt 0.750000 0.500000
vt 0.750000 0.500000
vt 0.750000 0.500000
vt 0.750000 0.500000
vt 0.750000 0.500000
vt 0.750000 0.500000
vt 0.750000 0.500000
vt 0.750000 0.500000
vt 0.750000 0.500000
vt 0.750000 0.500000
vt 0.750000 0.500000
s 0
usemtl Material.001
f 1/1/1 2/2/1 4/4/1 3/3/1
f 5/5/2 6/6/2 8/8/2 7/7/2
f 9/9/3 10/10/3 12/12/3 11/11/3
f 11/11/4 5/5/4 7/7/4 9/9/4
f 6/6/5 12/12/5 10/10/5 8/8/5
f 13/13/2 14/14/2 16/16/2 15/15/2
f 17/17/3 18/18/3 20/20/3 19/19/3
f 19/19/4 13/13/4 15/15/4 17/17/4
f 14/14/5 20/20/5 18/18/5 16/16/5
f 21/21/2 22/22/2 24/24/2 23/23/2
f 25/25/3 26/26/3 28/28/3 27/27/3
f 27/27/4 21/21/4 23/23/4 25/25/4
f 22/22/5 28/28/5 26/26/5 24/24/5
f 29/29/2 30/30/2 32/32/2 31/31/2
f 33/33/3 34/34/3 36/36/3 35/35/3
f 35/35/4 29/29/4 31/31/4 33/33/4
f 30/30/5 36/36/5 34/34/5 32/32/5
f 37/37/1 38/38/1 40/40/1 39/39/1
f 41/41/1 42/42/1 44/44/1 43/43/1
f 45/45/1 46/46/1 48/48/1 47/47/1
f 49/49/1 50/50/1 52/52/1 51/51/1
f 53/53/1 54/54/1 56/56/1 55/55/1
f 57/57/2 58/58/2 60/60/2 59/59/2
f 61/61/3 62/62/3 64/64/3 63/63/3
f 63/63/4 57/57/4 59/59/4 61/61/4
f 58/58/5 64/64/5 62/62/5 60/60/5
f 65/65/2 66/66/2 68/68/2 67/67/2
f 69/69/3 70/70/3 72/72/3 71/71/3
f 71/71/4 65/65/4 67/67/4 69/69/4
f 66/66/5 72/72/5 70/70/5 68/68/5
f 73/73/2 74/74/2 76/76/2 75/75/2
f 77/77/3 78/78/3 80/80/3 79/79/3
f 79/79/4 73/73/4 75/75/4 77/77/4
f 74/74/5 80/80/5 78/78/5 76/76/5
f 81/81/2 82/82/2 84/84/2 83/83/2
f 85/85/3 86/86/3 88/88/3 87/87/3
f 87/87/4 81/81/4 83/83/4 85/85/4
f 82/82/5 88/88/5 86/86/5 84/84/5
f 89/89/1 90/90/1 92/92/1 91/91/1
f 93/93/1 94/94/1 96/96/1 95/95/1
f 97/97/1 98/98/1 100/100/1 99/99/1
f 101/101/2 102/102/2 104/104/2 103/103/2
f 105/105/3 106/106/3 108/108/3 107/107/3
f 107/107/4 101/101/4 103/103/4 105/105/4
f 102/102/5 108/108/5 106/106/5 104/104/5
f 109/109/2 110/110/2 112/112/2 111/111/2
f 113/113/3 114/114/3 116/116/3 115/115/3
f 115/115/4 109/109/4 111/111/4 113/113/4
f 110/110/5 116/116/5 114/114/5 112/112/5
f 117/117/2 118/118/2 120/120/2 119/119/2
f 121/121/3 122/122/3 124/124/3 123/123/3
f 123/123/4 117/117/4 119/119/4 121/121/4
f 118/118/5 124/124/5 122/122/5 120/120/5
f 125/125/2 126/126/2 128/128/2 127/127/2
f 129/129/3 130/130/3 132/132/3 131/131/3
f 131/131/4 125/125/4 127/127/4 129/129/4
f 126/126/5 132/132/5 130/130/5 128/128/5
f 133/133/1 134/134/1 136/136/1 135/135/1
f 137/137/1 138/138/1 140/140/1 139/139/1
f 141/141/1 142/142/1 144/144/1 143/143/1
f 145/145/2 146/146/2 148/148/2 147/147/2
f 149/149/3 150/150/3 152/152/3 151/151/3
f 151/151/4 145/145/4 147/147/4 149/149/4
f 146/146/5 152/152/5 150/150/5 148/148/5
f 153/153/2 154/154/2 156/156/2 155/155/2
f 157/157/3 158/158/3 160/160/3 159/159/3
f 159/159/4 153/153/4 155/155/4 157/157/4
f 154/154/5 160/160/5 158/158/5 156/156/5
f 161/161/2 162/162/2 164/164/2 163/163/2
f 165/165/3 166/166/3 168/168/3 167/167/3
f 167/167/4 161/161/4 163/163/4 165/165/4
f 162/162/5 168/168/5 166/166/5 164/164/5
f 169/169/2 170/170/2 172/172/2 171/171/2
f 173/173/3 174/174/3 176/176/3 175/175/3
f 175/175/4 169/169/4 171/171/4 173/173/4
f 170/170/5 176/176/5 174/174/5 172/172/5
f 177/177/1 178/178/1 180/180/1 179/179/1
f 181/181/1 182/182/1 184/184/1 183/183/1
f 185/185/1 186/186/1 188/188/1 187/187/1
f 189/189/2 190/190/2 192/192/2 191/191/2
f 193/193/3 194/194/3 196/196/3 195/195/3
f 195/195/4 189/189/4 191/191/4 193/193/4
f 190/190/5 196/196/5 194/194/5 192/192/5
f 197/197/2 198/198/2 200/200/2 199/199/2
f 201/201/3 202/202/3 204/204/3 203/203/3
f 203/203/4 197/197/4 199/199/4 201/201/4
f 198/198/5 204/204/5 202/202/5 200/200/5
f 205/205/2 206/206/2 208/208/2 207/207/2
f 209/209/3 210/210/3 212/212/3 211/211/3
f 211/211/4 205/205/4 207/207/4 209/209/4
f 206/206/5 212/212/5 210/210/5 208/208/5
f 213/213/2 214/214/2 216/216/2 215/215/2
f 217/217/3 218/218/3 220/220/3 219/219/3
f 219/219/4 213/213/4 215/215/4 217/217/4
f 214/214/5 220/220/5 218/218/5 216/216/5
f 221/221/1 222/222/1 224/224/1 223/223/1
f 225/225/2 226/226/2 228/228/2 227/227/2
f 229/229/3 230/230/3 232/232/3 231/231/3
f 231/231/4 225/225/4 227/227/4 229/229/4
f 226/226/5 232/232/5 230/230/5 228/228/5
f 233/233/2 234/234/2 236/236/2 235/235/2
f 237/237/3 238/238/3 240/240/3 239/239/3
f 239/239/4 233/233/4 235/235/4 237/237/4
f 234/234/5 240/240/5 238/238/5 236/236/5
f 241/241/2 242/242/2 244/244/2 243/243/2
f 245/245/3 246/246/3 248/248/3 247/247/3
f 247/247/4 241/241/4 243/243/4 245/245/4
f 242/242/5 248/248/5 246/246/5 244/244/5
f 249/249/2 250/250/2 252/252/2 251/251/2
f 253/253/3 254/254/3 256/256/3 255/255/3
f 255/255/4 249/249/4 251/251/4 253/253/4
f 250/250/5 256/256/5 254/254/5 252/252/5
f 257/257/1 258/258/1 260/260/1 259/259/1
f 261/261/1 262/262/1 264/264/1 263/263/1
f 265/265/1 266/266/1 268/268/1 267/267/1
f 269/269/1 270/270/1 272/272/1 271/271/1
f 273/273/1 274/274/1 276/276/1 275/275/1
f 277/277/2 278/278/2 280/280/2 279/279/2
f 281/281/3 282/282/3 284/284/3 283/283/3
f 283/283/4 277/277/4 279/279/4 281/281/4
f 278/278/5 284/284/5 282/282/5 280/280/5
f 285/285/2 286/286/2 288/288/2 287/287/2
f 289/289/3 290/290/3 292/292/3 291/291/3
f 291/291/4 285/285/4 287/287/4 289/289/4
f 286/286/5 292/292/5 290/290/5 288/288/5
f 293/293/2 294/294/2 296/296/2 295/295/2
f 297/297/3 298/298/3 300/300/3 299/299/3
f 299/299/4 293/293/4 295/295/4 297/297/4
f 294/294/5 300/300/5 298/298/5 296/296/5
f 301/301/2 302/302/2 304/304/2 303/303/2
f 305/305/3 306/306/3 308/308/3 307/307/3
f 307/307/4 301/301/4 303/303/4 305/305/4
f 302/302/5 308/308/5 306/306/5 304/304/5
f 309/309/1 310/310/1 312/312/1 311/311/1
f 313/313/1 314/314/1 316/316/1 315/315/1
f 317/317/1 318/318/1 320/320/1 319/319/1
f 321/321/2 322/322/2 324/324/2 323/323/2
f 325/325/3 326/326/3 328/328/3 327/327/3
f 327/327/4 321/321/4 323/323/4 325/325/4
f 322/322/5 328/328/5 326/326/5 324/324/5
f 329/329/2 330/330/2 332/332/2 331/331/2
f 333/333/3 334/334/3 336/336/3 335/335/3
f 335/335/4 329/329/4 331/331/4 333/333/4
f 330/330/5 336/336/5 334/334/5 332/332/5
f 337/337/2 338/338/2 340/340/2 339/339/2
f 341/341/3 342/342/3 344/344/3 343/343/3
f 343/343/4 337/337/4 339/339/4 341/341/4
f 338/338/5 344/344/5 342/342/5 340/340/5
f 345/345/2 346/346/2 348/348/2 347/347/2
f 349/349/3 350/350/3 352/352/3 351/351/3
f 351/351/4 345/345/4 347/347/4 349/349/4
f 346/346/5 352/352/5 350/350/5 348/348/5
f 353/353/1 354/354/1 356/356/1 355/355/1
f 357/357/1 358/358/1 360/360/1 359/359/1
f 361/361/1 362/362/1 364/364/1 363/363/1
f 365/365/2 366/366/2 368/368/2 367/367/2
f 369/369/3 370/370/3 372/372/3 371/371/3
f 371/371/4 365/365/4 367/367/4 369/369/4
f 366/366/5 372/372/5 370/370/5 368/368/5
f 373/373/2 374/374/2 376/376/2 375/375/2
f 377/377/3 378/378/3 380/380/3 379/379/3
f 379/379/4 373/373/4 375/375/4 377/377/4
f 374/374/5 380/380/5 378/378/5 376/376/5
f 381/381/2 382/382/2 384/384/2 383/383/2
f 385/385/3 386/386/3 388/388/3 387/387/3
f 387/387/4 381/381/4 383/383/4 385/385/4
f 382/382/5 388/388/5 386/386/5 384/384/5
f 389/389/2 390/390/2 392/392/2 391/391/2
f 393/393/3 394/394/3 396/396/3 395/395/3
f 395/395/4 389/389/4 391/391/4 393/393/4
f 390/390/5 396/396/5 394/394/5 392/392/5
f 397/397/1 398/398/1 400/400/1 399/399/1
f 401/401/1 402/402/1 404/404/1 403/403/1
f 405/405/1 406/406/1 408/408/1 407/407/1
f 409/409/2 410/410/2 412/412/2 411/411/2
f 413/413/3 414/414/3 416/416/3 415/415/3
f 415/415/4 409/409/4 411/411/4 413/413/4
f 410/410/5 416/416/5 414/414/5 412/412/5
f 417/417/2 418/418/2 420/420/2 419/419/2
f 421/421/3 422/422/3 424/424/3 423/423/3
f 423/423/4 417/417/4 419/419/4 421/421/4
f 418/418/5 424/424/5 422/422/5 420/420/5
f 425/425/2 426/426/2 428/428/2 427/427/2
f 429/429/3 430/430/3 432/432/3 431/431/3
f 431/431/4 425/425/4 427/427/4 429/429/4
f 426/426/5 432/432/5 430/430/5 428/428/5
f 433/433/2 434/434/2 436/436/2 435/435/2
f 437/437/3 438/438/3 440/440/3 439/439/3
f 439/439/4 433/433/4 435/435/4 437/437/4
f 434/434/5 440/440/5 438/438/5 436/436/5
f 441/441/2 442/442/2 444/444/2 443/443/2
f 443/443/1 444/444/1 446/446/1 445/445/1
f 445/445/3 446/446/3 448/448/3 447/447/3
f 447/447/4 441/441/4 443/443/4 445/445/4
f 442/442/5 448/448/5 446/446/5 444/444/5
f 449/449/2 450/450/2 452/452/2 451/451/2
f 451/451/1 452/452/1 454/454/1 453/453/1
f 453/453/3 454/454/3 456/456/3 455/455/3
f 455/455/4 449/449/4 451/451/4 453/453/4
f 450/450/5 456/456/5 454/454/5 452/452/5
f 457/457/2 458/458/2 460/460/2 459/459/2
f 459/459/1 460/460/1 462/462/1 461/461/1
f 461/461/3 462/462/3 464/464/3 463/463/3
f 463/463/4 457/457/4 459/459/4 461/461/4
f 458/458/5 464/464/5 462/462/5 460/460/5
f 465/465/2 466/466/2 468/468/2 467/467/2
f 467/467/1 468/468/1 470/470/1 469/469/1
f 469/469/3 470/470/3 472/472/3 471/471/3
f 471/471/4 465/465/4 467/467/4 469/469/4
f 466/466/5 472/472/5 470/470/5 468/468/5
f 473/473/2 474/474/2 476/476/2 475/475/2
f 475/475/1 476/476/1 478/478/1 477/477/1
f 477/477/3 478/478/3 480/480/3 479/479/3
f 479/479/4 473/473/4 475/475/4 477/477/4
f 474/474/5 480/480/5 478/478/5 476/476/5
f 481/481/2 482/482/2 484/484/2 483/483/2
f 483/483/1 484/484/1 486/486/1 485/485/1
f 485/485/3 486/486/3 488/488/3 487/487/3
f 487/487/4 481/481/4 483/483/4 485/485/4
f 482/482/5 488/488/5 486/486/5 484/484/5
f 489/489/2 490/490/2 492/492/2 491/491/2
f 491/491/1 492/492/1 494/494/1 493/493/1
f 493/493/3 494/494/3 496/496/3 495/495/3
f 495/495/4 489/489/4 491/491/4 493/493/4
f 490/490/5 496/496/5 494/494/5 492/492/5
f 497/497/2 498/498/2 500/500/2 499/499/2
f 499/499/1 500/500/1 502/502/1 501/501/1
f 501/501/3 502/502/3 504/504/3 503/503/3
f 503/503/4 497/497/4 499/499/4 501/501/4
f 498/498/5 504/504/5 502/502/5 500/500/5
f 505/505/2 506/506/2 508/508/2 507/507/2
f 507/507/1 508/508/1 510/510/1 509/509/1
f 509/509/3 510/510/3 512/512/3 511/511/3
f 511/511/4 505/505/4 507/507/4 509/509/4
f 506/506/5 512/512/5 510/510/5 508/508/5
f 513/513/2 514/514/2 516/516/2 515/515/2
f 515/515/1 516/516/1 518/518/1 517/517/1
f 517/517/3 518/518/3 520/520/3 519/519/3
f 519/519/4 513/513/4 515/515/4 517/517/4
f 514/514/5 520/520/5 518/518/5 516/516/5
f 521/521/2 522/522/2 524/524/2 523/523/2
f 523/523/1 524/524/1 526/526/1 525/525/1
f 525/525/3 526/526/3 528/528/3 527/527/3
f 527/527/4 521/521/4 523/523/4 525/525/4
f 522/522/5 528/528/5 526/526/5 524/524/5
f 529/529/2 530/530/2 532/532/2 531/531/2
f 531/531/1 532/532/1 534/534/1 533/533/1
f 533/533/3 534/534/3 536/536/3 535/535/3
f 535/535/4 529/529/4 531/531/4 533/533/4
f 530/530/5 536/536/5 534/534/5 532/532/5
f 537/537/2 538/538/2 540/540/2 539/539/2
f 539/539/1 540/540/1 542/542/1 541/541/1
f 541/541/3 542/542/3 544/544/3 543/543/3
f 543/543/4 537/537/4 539/539/4 541/541/4
f 538/538/5 544/544/5 542/542/5 540/540/5
f 545/545/2 546/546/2 548/548/2 547/547/2
f 547/547/1 548/548/1 550/550/1 549/549/1
f 549/549/3 550/550/3 552/552/3 551/551/3
f 551/551/4 545/545/4 547/547/4 549/549/4
f 546/546/5 552/552/5 550/550/5 548/548/5
f 553/553/2 554/554/2 556/556/2 555/555/2
f 555/555/1 556/556/1 558/558/1 557/557/1
f 557/557/3 558/558/3 560/560/3 559/559/3
f 559/559/4 553/553/4 555/555/4 557/557/4
f 554/554/5 560/560/5 558/558/5 556/556/5
f 561/561/2 562/562/2 564/564/2 563/563/2
f 563/563/1 564/564/1 566/566/1 565/565/1
f 565/565/3 566/566/3 568/568/3 567/567/3
f 567/567/4 561/561/4 563/563/4 565/565/4
f 562/562/5 568/568/5 566/566/5 564/564/5
f 569/569/2 570/570/2 572/572/2 571/571/2
f 571/571/1 572/572/1 574/574/1 573/573/1
f 573/573/3 574/574/3 576/576/3 575/575/3
f 575/575/4 569/569/4 571/571/4 573/573/4
f 570/570/5 576/576/5 574/574/5 572/572/5
f 577/577/2 578/578/2 580/580/2 579/579/2
f 579/579/1 580/580/1 582/582/1 581/581/1
f 581/581/3 582/582/3 584/584/3 583/583/3
f 583/583/4 577/577/4 579/579/4 581/581/4
f 578/578/5 584/584/5 582/582/5 580/580/5
f 585/585/2 586/586/2 588/588/2 587/587/2
f 587/587/1 588/588/1 590/590/1 589/589/1
f 589/589/3 590/590/3 592/592/3 591/591/3
f 591/591/4 585/585/4 587/587/4 589/589/4
f 586/586/5 592/592/5 590/590/5 588/588/5
f 593/593/2 594/594/2 596/596/2 595/595/2
f 595/595/1 596/596/1 598/598/1 597/597/1
f 597/597/3 598/598/3 600/600/3 599/599/3
f 599/599/4 593/593/4 595/595/4 597/597/4
f 594/594/5 600/600/5 598/598/5 596/596/5
f 601/601/2 602/602/2 604/604/2 603/603/2
f 603/603/1 604/604/1 606/606/1 605/605/1
f 605/605/3 606/606/3 608/608/3 607/607/3
f 607/607/4 601/601/4 603/603/4 605/605/4
f 602/602/5 608/608/5 606/606/5 604/604/5
f 609/609/2 610/610/2 612/612/2 611/611/2
f 611/611/1 612/612/1 614/614/1 613/613/1
f 613/613/3 614/614/3 616/616/3 615/615/3
f 615/615/4 609/609/4 611/611/4 613/613/4
f 610/610/5 616/616/5 614/614/5 612/612/5
f 617/617/2 618/618/2 620/620/2 619/619/2
f 619/619/1 620/620/1 622/622/1 621/621/1
f 621/621/3 622/622/3 624/624/3 623/623/3
f 623/623/4 617/617/4 619/619/4 621/621/4
f 618/618/5 624/624/5 622/622/5 620/620/5
f 625/625/2 626/626/2 628/628/2 627/627/2
f 627/627/1 628/628/1 630/630/1 629/629/1
f 629/629/3 630/630/3 632/632/3 631/631/3
f 631/631/4 625/625/4 627/627/4 629/629/4
f 626/626/5 632/632/5 630/630/5 628/628/5
f 633/633/2 634/634/2 636/636/2 635/635/2
f 635/635/1 636/636/1 638/638/1 637/637/1
f 637/637/3 638/638/3 640/640/3 639/639/3
f 639/639/4 633/633/4 635/635/4 637/637/4
f 634/634/5 640/640/5 638/638/5 636/636/5
f 641/641/2 642/642/2 644/644/2 643/643/2
f 643/643/1 644/644/1 646/646/1 645/645/1
f 645/645/3 646/646/3 648/648/3 647/647/3
f 647/647/4 641/641/4 643/643/4 645/645/4
f 642/642/5 648/648/5 646/646/5 644/644/5
f 649/649/2 650/650/2 652/652/2 651/651/2
f 651/651/1 652/652/1 654/654/1 653/653/1
f 653/653/3 654/654/3 656/656/3 655/655/3
f 655/655/4 649/649/4 651/651/4 653/653/4
f 650/650/5 656/656/5 654/654/5 652/652/5
f 657/657/2 658/658/2 660/660/2 659/659/2
f 659/659/1 660/660/1 662/662/1 661/661/1
f 661/661/3 662/662/3 664/664/3 663/663/3
f 663/663/4 657/657/4 659/659/4 661/661/4
f 658/658/5 664/664/5 662/662/5 660/660/5
f 665/665/2 666/666/2 668/668/2 667/667/2
f 667/667/1 668/668/1 670/670/1 669/669/1
f 669/669/3 670/670/3 672/672/3 671/671/3
f 671/671/4 665/665/4 667/667/4 669/669/4
f 666/666/5 672/672/5 670/670/5 668/668/5
f 673/673/2 674/674/2 676/676/2 675/675/2
f 675/675/1 676/676/1 678/678/1 677/677/1
f 677/677/3 678/678/3 680/680/3 679/679/3
f 679/679/4 673/673/4 675/675/4 677/677/4
f 674/674/5 680/680/5 678/678/5 676/676/5
f 681/681/2 682/682/2 684/684/2 683/683/2
f 683/683/1 684/684/1 686/686/1 685/685/1
f 685/685/3 686/686/3 688/688/3 687/687/3
f 687/687/4 681/681/4 683/683/4 685/685/4
f 682/682/5 688/688/5 686/686/5 684/684/5
f 689/689/2 690/690/2 692/692/2 691/691/2
f 691/691/1 692/692/1 694/694/1 693/693/1
f 693/693/3 694/694/3 696/696/3 695/695/3
f 695/695/4 689/689/4 691/691/4 693/693/4
f 690/690/5 696/696/5 694/694/5 692/692/5
f 697/697/2 698/698/2 700/700/2 699/699/2
f 699/699/1 700/700/1 702/702/1 701/701/1
f 701/701/3 702/702/3 704/704/3 703/703/3
f 703/703/4 697/697/4 699/699/4 701/701/4
f 698/698/5 704/704/5 702/702/5 700/700/5
f 705/705/2 706/706/2 708/708/2 707/707/2
f 707/707/1 708/708/1 710/710/1 709/709/1
f 709/709/3 710/710/3 712/712/3 711/711/3
f 711/711/4 705/705/4 707/707/4 709/709/4
f 706/706/5 712/712/5 710/710/5 708/708/5
f 713/713/2 714/714/2 716/716/2 715/715/2
f 715/715/1 716/716/1 718/718/1 717/717/1
f 717/717/3 718/718/3 720/720/3 719/719/3
f 719/719/4 713/713/4 715/715/4 717/717/4
f 714/714/5 720/720/5 718/718/5 716/716/5
f 721/721/2 722/722/2 724/724/2 723/723/2
f 723/723/1 724/724/1 726/726/1 725/725/1
f 725/725/3 726/726/3 728/728/3 727/727/3
f 727/727/4 721/721/4 723/723/4 725/725/4
f 722/722/5 728/728/5 726/726/5 724/724/5
f 729/729/2 730/730/2 732/732/2 731/731/2
f 731/731/1 732/732/1 734/734/1 733/733/1
f 733/733/3 734/734/3 736/736/3 735/735/3
f 735/735/4 729/729/4 731/731/4 733/733/4
f 730/730/5 736/736/5 734/734/5 732/732/5
f 737/737/2 738/738/2 740/740/2 739/739/2
f 739/739/1 740/740/1 742/742/1 741/741/1
f 741/741/3 742/742/3 744/744/3 743/743/3
f 743/743/4 737/737/4 739/739/4 741/741/4
f 738/738/5 744/744/5 742/742/5 740/740/5
f 745/745/2 746/746/2 748/748/2 747/747/2
f 747/747/1 748/748/1 750/750/1 749/749/1
f 749/749/3 750/750/3 752/752/3 751/751/3
f 751/751/4 745/745/4 747/747/4 749/749/4
f 746/746/5 752/752/5 750/750/5 748/748/5
f 753/753/2 754/754/2 756/756/2 755/755/2
f 755/755/1 756/756/1 758/758/1 757/757/1
f 757/757/3 758/758/3 760/760/3 759/759/3
f 759/759/4 753/753/4 755/755/4 757/757/4
f 754/754/5 760/760/5 758/758/5 756/756/5
f 761/761/2 762/762/2 764/764/2 763/763/2
f 763/763/1 764/764/1 766/766/1 765/765/1
f 765/765/3 766/766/3 768/768/3 767/767/3
f 767/767/4 761/761/4 763/763/4 765/765/4
f 762/762/5 768/768/5 766/766/5 764/764/5
f 769/769/2 770/770/2 772/772/2 771/771/2
f 771/771/1 772/772/1 774/774/1 773/773/1
f 773/773/3 774/774/3 776/776/3 775/775/3
f 775/775/4 769/769/4 771/771/4 773/773/4
f 770/770/5 776/776/5 774/774/5 772/772/5
f 777/777/2 778/778/2 780/780/2 779/779/2
f 779/779/1 780/780/1 782/782/1 781/781/1
f 781/781/3 782/782/3 784/784/3 783/783/3
f 783/783/4 777/777/4 779/779/4 781/781/4
f 778/778/5 784/784/5 782/782/5 780/780/5
f 785/785/2 786/786/2 788/788/2 787/787/2
f 787/787/1 788/788/1 790/790/1 789/789/1
f 789/789/3 790/790/3 792/792/3 791/791/3
f 791/791/4 785/785/4 787/787/4 789/789/4
f 786/786/5 792/792/5 790/790/5 788/788/5
f 793/793/2 794/794/2 796/796/2 795/795/2
f 795/795/1 796/796/1 798/798/1 797/797/1
f 797/797/3 798/798/3 800/800/3 799/799/3
f 799/799/4 793/793/4 795/795/4 797/797/4
f 794/794/5 800/800/5 798/798/5 796/796/5
f 801/801/2 802/802/2 804/804/2 803/803/2
f 803/803/1 804/804/1 806/806/1 805/805/1
f 805/805/3 806/806/3 808/808/3 807/807/3
f 807/807/4 801/801/4 803/803/4 805/805/4
f 802/802/5 808/808/5 806/806/5 804/804/5
f 809/809/2 810/810/2 812/812/2 811/811/2
f 811/811/1 812/812/1 814/814/1 813/813/1
f 813/813/3 814/814/3 816/816/3 815/815/3
f 815/815/4 809/809/4 811/811/4 813/813/4
f 810/810/5 816/816/5 814/814/5 812/812/5
f 817/817/2 818/818/2 820/820/2 819/819/2
f 819/819/1 820/820/1 822/822/1 821/821/1
f 821/821/3 822/822/3 824/824/3 823/823/3
f 823/823/4 817/817/4 819/819/4 821/821/4
f 818/818/5 824/824/5 822/822/5 820/820/5
f 825/825/2 826/826/2 828/828/2 827/827/2
f 827/827/1 828/828/1 830/830/1 829/829/1
f 829/829/3 830/830/3 832/832/3 831/831/3
f 831/831/4 825/825/4 827/827/4 829/829/4
f 826/826/5 832/832/5 830/830/5 828/828/5
f 833/833/2 834/834/2 836/836/2 835/835/2
f 835/835/1 836/836/1 838/838/1 837/837/1
f 837/837/3 838/838/3 840/840/3 839/839/3
f 839/839/4 833/833/4 835/835/4 837/837/4
f 834/834/5 840/840/5 838/838/5 836/836/5
f 841/841/2 842/842/2 844/844/2 843/843/2
f 843/843/1 844/844/1 846/846/1 845/845/1
f 845/845/3 846/846/3 848/848/3 847/847/3
f 847/847/4 841/841/4 843/843/4 845/845/4
f 842/842/5 848/848/5 846/846/5 844/844/5
f 849/849/2 850/850/2 852/852/2 851/851/2
f 851/851/1 852/852/1 854/854/1 853/853/1
f 853/853/3 854/854/3 856/856/3 855/855/3
f 855/855/4 849/849/4 851/851/4 853/853/4
f 850/850/5 856/856/5 854/854/5 852/852/5
f 857/857/2 858/858/2 860/860/2 859/859/2
f 859/859/1 860/860/1 862/862/1 861/861/1
f 861/861/3 862/862/3 864/864/3 863/863/3
f 863/863/4 857/857/4 859/859/4 861/861/4
f 858/858/5 864/864/5 862/862/5 860/860/5
f 865/865/2 866/866/2 868/868/2 867/867/2
f 867/867/1 868/868/1 870/870/1 869/869/1
f 869/869/3 870/870/3 872/872/3 871/871/3
f 871/871/4 865/865/4 867/867/4 869/869/4
f 866/866/5 872/872/5 870/870/5 868/868/5
f 873/873/2 874/874/2 876/876/2 875/875/2
f 875/875/1 876/876/1 878/878/1 877/877/1
f 877/877/3 878/878/3 880/880/3 879/879/3
f 879/879/4 873/873/4 875/875/4 877/877/4
f 874/874/5 880/880/5 878/878/5 876/876/5
f 881/881/2 882/882/2 884/884/2 883/883/2
f 883/883/1 884/884/1 886/886/1 885/885/1
f 885/885/3 886/886/3 888/888/3 887/887/3
f 887/887/4 881/881/4 883/883/4 885/885/4
f 882/882/5 888/888/5 886/886/5 884/884/5
f 889/889/2 890/890/2 892/892/2 891/891/2
f 891/891/1 892/892/1 894/894/1 893/893/1
f 893/893/3 894/894/3 896/896/3 895/895/3
f 895/895/4 889/889/4 891/891/4 893/893/4
f 890/890/5 896/896/5 894/894/5 892/892/5
f 897/897/2 898/898/2 900/900/2 899/899/2
f 899/899/1 900/900/1 902/902/1 901/901/1
f 901/901/3 902/902/3 904/904/3 903/903/3
f 903/903/4 897/897/4 899/899/4 901/901/4
f 898/898/5 904/904/5 902/902/5 900/900/5
f 905/905/2 906/906/2 908/908/2 907/907/2
f 907/907/1 908/908/1 910/910/1 909/909/1
f 909/909/3 910/910/3 912/912/3 911/911/3
f 911/911/4 905/905/4 907/907/4 909/909/4
f 906/906/5 912/912/5 910/910/5 908/908/5
f 913/913/2 914/914/2 916/916/2 915/915/2
f 915/915/1 916/916/1 918/918/1 917/917/1
f 917/917/3 918/918/3 920/920/3 919/919/3
f 919/919/4 913/913/4 915/915/4 917/917/4
f 914/914/5 920/920/5 918/918/5 916/916/5
f 921/921/2 922/922/2 924/924/2 923/923/2
f 923/923/1 924/924/1 926/926/1 925/925/1
f 925/925/3 926/926/3 928/928/3 927/927/3
f 927/927/4 921/921/4 923/923/4 925/925/4
f 922/922/5 928/928/5 926/926/5 924/924/5
f 929/929/2 930/930/2 932/932/2 931/931/2
f 931/931/1 932/932/1 934/934/1 933/933/1
f 933/933/3 934/934/3 936/936/3 935/935/3
f 935/935/4 929/929/4 931/931/4 933/933/4
f 930/930/5 936/936/5 934/934/5 932/932/5
f 937/937/2 938/938/2 940/940/2 939/939/2
f 939/939/1 940/940/1 942/942/1 941/941/1
f 941/941/3 942/942/3 944/944/3 943/943/3
f 943/943/4 937/937/4 939/939/4 941/941/4
f 938/938/5 944/944/5 942/942/5 940/940/5
f 945/945/2 946/946/2 948/948/2 947/947/2
f 947/947/1 948/948/1 950/950/1 949/949/1
f 949/949/3 950/950/3 952/952/3 951/951/3
f 951/951/4 945/945/4 947/947/4 949/949/4
f 946/946/5 952/952/5 950/950/5 948/948/5
f 953/953/2 954/954/2 956/956/2 955/955/2
f 955/955/1 956/956/1 958/958/1 957/957/1
f 957/957/3 958/958/3 960/960/3 959/959/3
f 959/959/4 953/953/4 955/955/4 957/957/4
f 954/954/5 960/960/5 958/958/5 956/956/5
f 961/961/2 962/962/2 964/964/2 963/963/2
f 963/963/1 964/964/1 966/966/1 965/965/1
f 965/965/3 966/966/3 968/968/3 967/967/3
f 967/967/4 961/961/4 963/963/4 965/965/4
f 962/962/5 968/968/5 966/966/5 964/964/5
