# Blender 3.3.21
# www.blender.org
mtllib CajaRegistradoraPC.mtl
o Cube
v -14.590467 9.750556 -10.308186
v -12.735168 9.750560 8.452885
v -14.590467 -10.865814 -10.308183
v -12.735168 9.750557 -8.452887
v -41.476410 9.750556 -10.308186
v -41.476410 9.750560 10.308184
v -41.476410 -10.865810 10.308187
v 45.938824 9.750557 -8.470074
v -14.590467 9.750549 -52.947155
v 66.602005 9.750560 8.470072
v 45.938824 9.750560 8.470072
v -41.476410 9.750549 -52.947155
v 66.602005 9.750557 -8.470074
v 73.151390 -10.865810 10.308187
v 73.151390 -10.865814 -10.308183
v -14.590467 9.750549 -52.947155
v -14.590467 -10.865821 -52.947151
v -41.476410 -10.865821 -52.947151
v -41.476410 9.750549 -52.947155
v 68.440109 9.750560 10.308184
v 42.245415 9.750560 8.452885
v 42.245415 9.750557 -8.452887
v 68.440109 9.750556 -10.308186
v 66.602005 9.750560 8.470072
v 66.602005 9.750557 -8.470074
v 66.602005 7.646849 8.470072
v 45.938824 7.646849 8.470072
v 45.938824 7.646846 -8.470074
v 66.602005 7.646846 -8.470074
v 44.100712 9.750556 -10.308186
v 44.100712 9.750560 10.308184
v -14.590467 9.750560 10.308184
v -12.809150 9.242094 -8.452887
v 42.245415 9.242094 -8.452887
v 42.245415 9.242097 8.452885
v -12.809150 9.242097 8.452885
v -41.476410 9.750560 10.308184
v -14.590467 9.750560 10.308184
v -14.590467 9.750560 10.308184
v -41.476410 9.750560 10.308184
v -41.476410 9.750556 -10.308186
v -14.590467 9.750556 -10.308186
v -14.590467 9.750560 10.308184
v -41.476410 9.750560 10.308184
v -14.590467 9.750549 -52.947155
v -41.476410 9.750549 -52.947155
v -41.476410 9.750556 -10.308186
v -41.476410 9.750560 10.308184
v -41.476410 9.750556 -10.308186
v -14.590467 9.750549 -52.947155
v -41.476410 9.750549 -52.947155
v -41.476410 9.750560 10.308184
v -18.146172 10.608009 -36.804554
v -20.488401 10.660045 -36.738110
v -18.166868 9.670748 -36.800129
v -20.509098 9.722783 -36.733688
v -20.288389 10.688789 -29.709768
v -17.946159 10.636755 -29.776209
v -20.309086 9.751529 -29.705343
v -17.966856 9.699493 -29.771786
v -19.498667 19.269936 -38.911739
v -20.372162 18.930492 -38.885494
v -16.443958 11.405005 -38.966499
v -17.317453 11.065559 -38.940254
v -20.052141 18.976486 -27.640141
v -19.178646 19.315931 -27.666386
v -16.997435 11.111552 -27.694902
v -16.123941 11.450997 -27.721149
v -20.006081 18.060444 -37.954468
v -20.879578 17.720999 -37.928219
v -17.290785 11.069393 -38.003139
v -18.164282 10.729948 -37.976894
v -20.612894 17.759327 -28.557089
v -19.739399 18.098770 -28.583338
v -17.897600 10.768275 -28.605770
v -17.024105 11.107720 -28.632015
v -18.746054 14.375540 -36.099480
v -19.682943 14.396352 -36.072903
v -18.849535 9.689234 -36.077362
v -19.786428 9.710047 -36.050785
v -19.522936 14.419350 -30.450224
v -18.586044 14.398535 -30.476799
v -19.626419 9.733044 -30.428112
v -18.689526 9.712230 -30.454691
vn -1.0000 -0.0000 -0.0000
vn -0.0000 -0.0000 1.0000
vn -0.0000 1.0000 -0.0000
vn -0.0000 -0.0000 -1.0000
vn 0.9749 0.2228 -0.0000
vn 1.0000 -0.0000 -0.0000
vn 0.9896 -0.1440 -0.0000
vn -0.0000 -0.0000 -0.0000
vn -0.0284 -0.0041 -0.9996
vn 0.0284 0.0041 0.9996
vn 0.0221 0.9997 -0.0047
vn -0.0221 -0.9997 0.0047
vn 0.9994 -0.0222 -0.0283
vn -0.9994 0.0222 0.0283
vn -0.3620 0.9321 0.0065
vn 0.3620 -0.9321 -0.0065
vn 0.9317 0.3621 -0.0280
vn -0.9317 -0.3621 0.0280
vt 0.671425 0.139593
vt 0.104846 0.960685
vt 0.461507 0.036592
vt 0.797029 0.026861
vt 0.917114 0.119228
vt 0.192503 0.026461
vt 0.358551 0.766757
vt 0.368732 0.036587
vt 0.917114 0.026469
vt 0.835579 0.426910
vt 0.104846 0.960685
vt 0.524599 0.026462
vt 0.104846 0.960685
vt 0.524599 0.426753
vt 0.026455 0.655375
vt 0.902738 0.572414
vt 0.861484 0.306112
vt 0.368638 0.357010
vt 0.104846 0.960685
vt 0.861484 0.139830
vt 0.891279 0.718271
vt 0.902747 0.426505
vt 0.461602 0.469858
vt 0.861484 0.026455
vt 0.902738 0.665361
vt 0.461602 0.357015
vt 0.104846 0.960685
vt 0.891279 0.718271
vt 0.861484 0.192741
vt 0.902747 0.519452
vt 0.368638 0.469853
vt 0.026455 0.026455
vt 0.139572 0.823962
vt 0.192503 0.507884
vt 0.026455 0.823740
vt 0.671425 0.373587
vt 0.305641 0.708312
vt 0.470842 0.533070
vt 0.104846 0.960685
vt 0.192503 0.708317
vt 0.358551 0.532806
vt 0.524599 0.773823
vt 0.192503 0.560799
vt 0.636984 0.773574
vt 0.305641 0.560793
vt 0.104846 0.960685
vt 0.139593 0.052311
vt 0.139572 0.708513
vt 0.471689 0.479896
vt 0.454130 0.819932
vt 0.461507 0.336845
vt 0.797029 0.328529
vt 0.454130 0.912690
vt 0.368732 0.336840
vt 0.835579 0.728568
vt 0.305641 0.482028
vt 0.026455 0.708291
vt 0.358551 0.479890
vt 0.891279 0.718271
vt 0.891279 0.718271
vt 0.849939 0.139831
vt 0.192503 0.761227
vt 0.891279 0.426530
vt 0.849939 0.026455
vt 0.192503 0.874070
vt 0.891279 0.665334
vt 0.285467 0.874075
vt 0.891279 0.572387
vt 0.849939 0.306111
vt 0.285467 0.761232
vt 0.849939 0.192740
vt 0.891279 0.519477
vt 0.305641 0.348482
vt 0.358551 0.346971
vt 0.139593 0.185852
vt 0.471689 0.346977
vt 0.671425 0.026455
vt 0.104846 0.960685
vt 0.782670 0.727166
vt 0.914394 0.026455
vt 0.838370 0.426505
vt 0.451358 0.912696
vt 0.782670 0.426509
vt 0.838370 0.728568
vt 0.451358 0.819938
vt 0.689894 0.426505
vt 0.794239 0.328529
vt 0.689894 0.727161
vt 0.794239 0.026455
vt 0.914394 0.119213
vt 0.104846 0.960685
vt 0.104846 0.960685
vt 0.139593 0.507868
vt 0.471689 0.026461
vt 0.104846 0.960685
vt 0.636984 0.426505
vt 0.139593 0.655381
vt 0.104846 0.960685
vt 0.636984 0.539622
vt 0.104846 0.960685
vt 0.305641 0.026455
vt 0.671425 0.139593
vt 0.470842 0.767022
vt 0.358551 0.026455
vt 0.104846 0.960685
vt 0.671425 0.026455
vt 0.104846 0.960685
vt 0.104846 0.960685
vt 0.955657 0.518005
vt 0.724335 0.370726
vt 0.955657 0.518005
vt 0.741329 0.373524
vt 0.955657 0.518005
vt 0.741329 0.139573
vt 0.955657 0.518005
vt 0.741329 0.026455
vt 0.524599 0.139601
vt 0.955657 0.518005
vt 0.741329 0.139573
vt 0.671425 0.373587
vt 0.955657 0.518005
vt 0.724335 0.370726
vt 0.524599 0.373595
vt 0.955657 0.518005
vt 0.741329 0.373524
vt 0.524599 0.026462
vt 0.955657 0.518005
vt 0.741329 0.026455
vt 0.031600 0.973545
vt 0.689894 0.894833
vt 0.358551 0.962975
vt 0.031600 0.960684
vt 0.702662 0.894830
vt 0.960753 0.465096
vt 0.026455 0.973545
vt 0.755572 0.933416
vt 0.363642 0.962968
vt 0.026455 0.960684
vt 0.768187 0.933416
vt 0.955657 0.465089
vt 0.849939 0.359022
vt 0.702662 0.933416
vt 0.960753 0.426512
vt 0.849939 0.371884
vt 0.689894 0.933418
vt 0.358551 0.924391
vt 0.855084 0.359022
vt 0.768187 0.894830
vt 0.955657 0.426505
vt 0.855084 0.371884
vt 0.755572 0.894830
vt 0.363642 0.924384
vt 0.840724 0.896235
vt 0.919350 0.233878
vt 0.689894 0.841811
vt 0.835579 0.896235
vt 0.914394 0.233875
vt 0.835579 0.781590
vt 0.840724 0.942538
vt 0.622381 0.826732
vt 0.734780 0.841920
vt 0.835579 0.942538
vt 0.617335 0.826732
vt 0.880384 0.781478
vt 0.933294 0.932141
vt 0.914394 0.172137
vt 0.835579 0.843325
vt 0.938439 0.932142
vt 0.919350 0.172140
vt 0.689894 0.780076
vt 0.933294 0.885838
vt 0.617335 0.888470
vt 0.880384 0.843213
vt 0.938439 0.885838
vt 0.622381 0.888470
vt 0.734780 0.780185
vt 0.960792 0.666455
vt 0.933294 0.781478
vt 0.398449 0.820028
vt 0.955648 0.666455
vt 0.938250 0.781480
vt 0.524599 0.826833
vt 0.960792 0.707614
vt 0.919440 0.286788
vt 0.358551 0.819932
vt 0.955648 0.707614
vt 0.914394 0.286788
vt 0.564425 0.826733
vt 0.955648 0.613545
vt 0.938250 0.832928
vt 0.524599 0.878278
vt 0.960792 0.613545
vt 0.933294 0.832926
vt 0.398449 0.871474
vt 0.955648 0.572387
vt 0.914394 0.338235
vt 0.564425 0.878178
vt 0.960792 0.572387
vt 0.919440 0.338235
vt 0.358551 0.871377
vt 0.617335 0.967104
vt 0.197610 0.957854
vt 0.104846 0.907775
vt 0.622480 0.967104
vt 0.192503 0.957855
vt 0.026455 0.876872
vt 0.617335 0.941380
vt 0.255566 0.926985
vt 0.130301 0.907740
vt 0.622480 0.941380
vt 0.250520 0.926985
vt 0.051936 0.876906
vt 0.529743 0.931188
vt 0.192503 0.926986
vt 0.026455 0.907739
vt 0.524599 0.931188
vt 0.197610 0.926985
vt 0.104846 0.876908
vt 0.529743 0.956912
vt 0.250520 0.957854
vt 0.051936 0.907773
vt 0.524599 0.956912
vt 0.255566 0.957854
vt 0.130301 0.876872
s 1
usemtl Material.001
f 41/99/1 19/44/1 18/42/1 7/14/1 40/96/1
f 21/50/1 22/53/1 34/82/1 35/85/1
f 7/15/2 14/32/2 20/47/2 31/75/2 39/93/2 40/97/2
f 6/13/3 32/78/3 43/107/3 44/108/3
f 42/105/3 16/39/3 9/19/3 1/2/3
f 30/73/4 23/56/4 15/34/4 3/6/4 42/101/4
f 41/100/3 6/13/3 44/108/3 5/11/3
f 19/46/3 41/100/3 5/11/3 12/27/3
f 11/24/4 10/20/4 26/61/4 27/64/4
f 15/35/5 23/57/5 20/48/5 14/33/5
f 50/120/3 51/123/3 49/117/3 6/12/3 52/126/3 32/77/3 43/106/3 1/1/3 42/102/3 16/36/3
f 18/43/4 19/45/4 16/37/4 17/40/4
f 42/103/6 3/7/6 17/41/6 16/38/6
f 8/18/3 13/31/3 23/58/3 30/74/3
f 10/21/3 13/28/3 25/60/3 24/59/3
f 29/70/3 28/67/3 27/65/3 26/62/3
f 8/16/6 11/25/6 27/66/6 28/68/6
f 13/29/2 8/17/2 28/69/2 29/71/2
f 10/22/1 13/30/1 29/72/1 26/63/1
f 2/3/3 4/8/3 22/54/3 21/51/3 31/76/3 20/49/3 23/58/3 13/31/3 10/23/3 11/26/3 8/18/3 30/74/3 42/104/3 39/94/3
f 21/51/3 2/3/3 39/94/3 31/76/3
f 33/79/3 36/88/3 35/86/3 34/83/3
f 2/4/4 21/52/4 35/87/4 36/89/4
f 4/9/7 2/5/7 36/90/7 33/80/7
f 22/55/2 4/10/2 33/81/2 34/84/2
f 39/95/3 40/98/3 37/91/3 38/92/3
f 32/78/3 6/13/3 40/98/3 39/95/3
f 6/13/3 41/100/3 40/98/3
f 16/39/3 19/46/3 12/27/3 9/19/3
f 32/78/3 39/95/3 42/105/3 1/2/3 43/107/3
f 49/118/3 52/127/3 48/115/3 47/113/3
f 50/121/3 51/124/3 46/111/3 45/109/3
f 51/124/3 49/118/3 47/113/3 46/111/3
f 52/128/1 49/119/1 51/125/8 50/122/8 45/110/8 46/112/8 47/114/1 48/116/1
s 0
f 53/129/9 55/135/9 54/132/9
f 55/135/9 56/138/9 54/132/9
f 57/141/10 59/147/10 58/144/10
f 59/147/10 60/150/10 58/144/10
f 57/142/11 58/145/11 54/133/11
f 58/145/11 53/130/11 54/133/11
f 60/151/12 59/148/12 55/136/12
f 59/148/12 56/139/12 55/136/12
f 58/146/13 60/152/13 53/131/13
f 60/152/13 55/137/13 53/131/13
f 54/134/14 56/140/14 57/143/14
f 56/140/14 59/149/14 57/143/14
f 61/153/9 63/159/9 62/156/9
f 63/159/9 64/162/9 62/156/9
f 65/165/10 67/171/10 66/168/10
f 67/171/10 68/174/10 66/168/10
f 65/166/15 66/169/15 62/157/15
f 66/169/15 61/154/15 62/157/15
f 68/175/16 67/172/16 63/160/16
f 67/172/16 64/163/16 63/160/16
f 66/170/17 68/176/17 61/155/17
f 68/176/17 63/161/17 61/155/17
f 62/158/18 64/164/18 65/167/18
f 64/164/18 67/173/18 65/167/18
f 69/177/9 71/183/9 70/180/9
f 71/183/9 72/186/9 70/180/9
f 73/189/10 75/195/10 74/192/10
f 75/195/10 76/198/10 74/192/10
f 73/190/15 74/193/15 70/181/15
f 74/193/15 69/178/15 70/181/15
f 76/199/16 75/196/16 71/184/16
f 75/196/16 72/187/16 71/184/16
f 74/194/17 76/200/17 69/179/17
f 76/200/17 71/185/17 69/179/17
f 70/182/18 72/188/18 73/191/18
f 72/188/18 75/197/18 73/191/18
f 77/201/9 79/207/9 78/204/9
f 79/207/9 80/210/9 78/204/9
f 81/213/10 83/219/10 82/216/10
f 83/219/10 84/222/10 82/216/10
f 81/214/11 82/217/11 78/205/11
f 82/217/11 77/202/11 78/205/11
f 84/223/12 83/220/12 79/208/12
f 83/220/12 80/211/12 79/208/12
f 82/218/13 84/224/13 77/203/13
f 84/224/13 79/209/13 77/203/13
f 78/206/14 80/212/14 81/215/14
f 80/212/14 83/221/14 81/215/14
