# Blender 3.3.21
# www.blender.org
mtllib vela.mtl
o Vela
v -0.015669 10.149513 -0.895270
v -0.015669 8.182498 -1.542586
v -0.015669 7.431838 -1.393270
v 0.084326 10.298829 -0.823437
v 0.157372 9.873614 -1.022882
v 0.359661 7.792317 -1.467928
v 0.196938 7.155938 -1.075080
v 0.197973 10.149513 -0.797599
v 0.677850 8.182498 -1.255320
v 0.572268 7.431838 -1.149738
v 0.122280 7.006622 -0.699750
v -0.015670 11.022774 -0.561800
v 0.225741 10.298829 -0.670174
v 0.402090 9.873614 -0.752787
v 0.890458 7.792317 -0.937131
v 0.497610 7.155938 -0.774408
v 0.286467 10.149513 -0.561800
v 0.965116 8.182498 -0.561800
v 0.815800 7.431838 -0.561800
v 0.179421 7.006622 -0.561801
v 0.225741 10.298829 -0.453427
v 0.402090 9.873614 -0.370814
v 0.890458 7.792317 -0.186470
v 0.497610 7.155938 -0.349193
v 0.197973 10.149513 -0.326002
v 0.677850 8.182498 0.131719
v 0.572268 7.431838 0.026137
v 0.122280 7.006622 -0.423851
v 0.084326 10.298829 -0.300164
v 0.157372 9.873614 -0.100719
v 0.359661 7.792317 0.344327
v 0.196938 7.155938 -0.048521
v -0.015670 10.149513 -0.228332
v -0.015670 8.182498 0.418984
v -0.015670 7.431838 0.269669
v -0.015669 7.006622 -0.366710
v -0.115665 10.298829 -0.300164
v -0.188711 9.873614 -0.100719
v -0.391000 7.792317 0.344326
v -0.228277 7.155938 -0.048521
v -0.229312 10.149513 -0.326003
v -0.709189 8.182498 0.131719
v -0.603607 7.431838 0.026137
v -0.153619 7.006622 -0.423851
v -0.015669 6.987408 -0.561801
v -0.257080 10.298829 -0.453427
v -0.433428 9.873614 -0.370814
v -0.921797 7.792317 -0.186471
v -0.528949 7.155938 -0.349193
v -0.317806 10.149513 -0.561801
v -0.996454 8.182498 -0.561801
v -0.847139 7.431838 -0.561801
v -0.210760 7.006622 -0.561801
v -0.257080 10.298829 -0.670174
v -0.433428 9.873614 -0.752787
v -0.921796 7.792317 -0.937131
v -0.528949 7.155938 -0.774408
v -0.229312 10.149513 -0.797599
v -0.709189 8.182498 -1.255320
v -0.603607 7.431838 -1.149738
v -0.153619 7.006622 -0.699750
v -0.115665 10.298829 -0.823437
v -0.188711 9.873614 -1.022882
v -0.390999 7.792317 -1.467927
v -0.228277 7.155938 -1.075080
v -0.015669 7.006622 -0.756891
v -0.089766 6.331998 -0.447288
v -0.215669 6.331998 -0.573192
v -0.215669 7.018503 -0.573192
v -0.089766 7.018503 -0.447288
v -0.215669 6.331998 -0.721384
v -0.089766 6.331998 -0.847288
v -0.089766 7.018503 -0.847288
v -0.215669 7.018503 -0.721384
v 0.184331 6.331998 -0.573192
v 0.058427 6.331998 -0.447288
v 0.058427 7.018503 -0.447288
v 0.184331 7.018503 -0.573192
v 0.058427 6.331998 -0.847288
v 0.184331 6.331998 -0.721384
v 0.184331 7.018503 -0.721384
v 0.058427 7.018503 -0.847288
v 0.588401 4.756711 0.926358
v 1.500000 4.756711 0.014759
v 1.500000 4.756711 -1.162044
v 0.588401 4.756711 -2.073642
v -0.588401 4.756711 -2.073642
v -1.500000 4.756711 -1.162044
v -1.500000 4.756711 0.014759
v -0.588401 4.756711 0.926358
v -0.588401 -1.200000 1.500000
v -1.500000 -1.200000 0.588401
v -1.500000 2.667255 0.588401
v -0.588401 2.667255 1.500000
v -1.500000 -1.200000 -0.588401
v -0.588401 -1.200000 -1.500000
v -0.588401 2.667255 -1.500000
v -1.500000 2.667255 -0.588401
v 1.500000 -1.200000 0.588401
v 0.588401 -1.200000 1.500000
v 0.588401 2.667255 1.500000
v 1.500000 2.667255 0.588401
v 0.588401 -1.200000 -1.500000
v 1.500000 -1.200000 -0.588401
v 1.500000 2.667255 -0.588401
v 0.588401 2.667255 -1.500000
v 1.500000 6.329557 0.014759
v 1.500000 6.329557 -1.162044
v 0.588401 6.329557 0.926358
v -0.588401 6.329557 0.926358
v -1.500000 6.329557 0.014759
v -1.500000 6.329557 -1.162044
v -0.588401 6.329557 -2.073642
v 0.588401 6.329557 -2.073642
vn 0.8962 0.2432 -0.3712
vn -0.0000 -0.1951 -0.9808
vn 0.6935 -0.1951 -0.6935
vn 0.6909 0.3411 -0.6374
vn 0.3722 0.4458 -0.8141
vn -0.0000 -0.8315 -0.5556
vn 0.3726 0.2285 -0.8994
vn 0.3928 -0.8315 -0.3928
vn 0.9453 0.3261 -0.0000
vn 0.8962 0.2432 0.3712
vn 0.8517 0.4153 -0.3196
vn 0.9808 -0.1951 -0.0000
vn 0.5556 -0.8315 -0.0000
vn 0.9450 0.3270 -0.0000
vn 0.2682 -0.9569 -0.1111
vn 0.7682 -0.5556 0.3182
vn 0.3726 0.2285 0.8994
vn 0.7023 0.3194 0.6363
vn 0.8517 0.4153 0.3196
vn 0.6935 -0.1951 0.6935
vn 0.3928 -0.8315 0.3928
vn 0.3182 -0.5556 0.7682
vn 0.2682 -0.9569 0.1111
vn 0.6909 0.3411 0.6374
vn -0.0000 0.3126 0.9499
vn -0.3726 0.2285 0.8994
vn 0.3722 0.4458 0.8141
vn -0.0000 -0.1951 0.9808
vn -0.0000 -0.8315 0.5556
vn 0.1111 -0.9569 0.2682
vn -0.3182 -0.5556 0.7682
vn -0.0000 0.3567 0.9342
vn -0.8962 0.2432 0.3712
vn -0.7023 0.3194 0.6363
vn -0.3928 -0.8315 0.3928
vn -0.6935 -0.1951 0.6935
vn -0.3722 0.4458 0.8141
vn -0.7682 -0.5556 0.3182
vn -0.6909 0.3411 0.6374
vn -0.1111 -0.9569 0.2682
vn -0.8962 0.2432 -0.3712
vn -0.9453 0.3261 -0.0000
vn -0.9808 -0.1951 -0.0000
vn -0.8517 0.4153 0.3196
vn -0.5556 -0.8315 -0.0000
vn -0.9450 0.3270 -0.0000
vn -0.2682 -0.9569 0.1111
vn -0.7682 -0.5556 -0.3182
vn -0.7023 0.3194 -0.6363
vn -0.3726 0.2285 -0.8994
vn -0.6935 -0.1951 -0.6935
vn -0.8517 0.4153 -0.3196
vn -0.3928 -0.8315 -0.3928
vn -0.2682 -0.9569 -0.1111
vn -0.6909 0.3411 -0.6374
vn -0.3182 -0.5556 -0.7682
vn 0.3182 -0.5556 -0.7682
vn -0.3722 0.4458 -0.8141
vn -0.1111 -0.9569 -0.2682
vn 0.7023 0.3194 -0.6363
vn 0.1111 -0.9569 -0.2682
vn -0.0000 0.3567 -0.9342
vn 0.7682 -0.5556 -0.3182
vn -0.0000 0.3126 -0.9499
vn -0.0000 -0.0000 1.0000
vn 1.0000 -0.0000 -0.0000
vn -1.0000 -0.0000 -0.0000
vn -0.0000 -0.0000 -1.0000
vn -0.7071 -0.0000 0.7071
vn -0.7071 -0.0000 -0.7071
vn 0.7071 -0.0000 -0.7071
vn 0.7071 -0.0000 0.7071
vn -0.0000 -1.0000 -0.0000
vn -0.0000 1.0000 -0.0000
vn 0.6941 -0.1906 -0.6941
vn -0.6941 -0.1906 -0.6941
vn -0.6941 0.1906 0.6941
vn -0.0000 -0.2647 -0.9643
vn 0.6941 0.1906 0.6941
vn -0.0000 0.2647 0.9643
vt 0.166667 0.5
vt 0.500000 0.5
vt 0.833333 0.5
s 0
usemtl Material.007
f 9/3/1 14/3/1 18/3/1 15/3/1
f 3/3/2 64/3/2 2/3/2 6/3/2
f 6/3/3 9/3/3 15/3/3 10/3/3
f 4/3/4 12/3/4 13/3/4 8/3/4
f 1/3/5 4/3/5 8/3/5 5/3/5
f 66/3/6 65/3/6 3/3/6 7/3/6
f 2/3/7 5/3/7 9/3/7 6/3/7
f 7/3/8 10/3/8 16/3/8 11/3/8
f 14/3/9 17/3/9 22/3/9 18/3/9
f 18/3/10 22/3/10 26/3/10 23/3/10
f 8/3/11 13/3/11 17/3/11 14/3/11
f 15/3/12 18/3/12 23/3/12 19/3/12
f 16/3/13 19/3/13 24/3/13 20/3/13
f 13/3/14 12/3/14 21/3/14 17/3/14
f 16/3/15 20/3/15 45/3/15 11/3/15
f 19/3/16 23/3/16 27/3/16 24/3/16
f 26/3/17 30/3/17 34/3/17 31/3/17
f 22/3/18 25/3/18 30/3/18 26/3/18
f 17/3/19 21/3/19 25/3/19 22/3/19
f 23/3/20 26/3/20 31/3/20 27/3/20
f 24/3/21 27/3/21 32/3/21 28/3/21
f 27/3/22 31/3/22 35/3/22 32/3/22
f 24/3/23 28/3/23 45/3/23 20/3/23
f 21/3/24 12/3/24 29/3/24 25/3/24
f 30/3/25 33/3/25 38/3/25 34/3/25
f 34/3/26 38/3/26 42/3/26 39/3/26
f 25/3/27 29/3/27 33/3/27 30/3/27
f 31/3/28 34/3/28 39/3/28 35/3/28
f 32/3/29 35/3/29 40/3/29 36/3/29
f 32/3/30 36/3/30 45/3/30 28/3/30
f 35/3/31 39/3/31 43/3/31 40/3/31
f 29/3/32 12/3/32 37/3/32 33/3/32
f 42/3/33 47/3/33 51/3/33 48/3/33
f 38/3/34 41/3/34 47/3/34 42/3/34
f 40/3/35 43/3/35 49/3/35 44/3/35
f 39/3/36 42/3/36 48/3/36 43/3/36
f 33/3/37 37/3/37 41/3/37 38/3/37
f 43/3/38 48/3/38 52/3/38 49/3/38
f 37/3/39 12/3/39 46/3/39 41/3/39
f 40/3/40 44/3/40 45/3/40 36/3/40
f 51/3/41 55/3/41 59/3/41 56/3/41
f 47/3/42 50/3/42 55/3/42 51/3/42
f 48/3/43 51/3/43 56/3/43 52/3/43
f 41/3/44 46/3/44 50/3/44 47/3/44
f 49/3/45 52/3/45 57/3/45 53/3/45
f 46/3/46 12/3/46 54/3/46 50/3/46
f 49/3/47 53/3/47 45/3/47 44/3/47
f 52/3/48 56/3/48 60/3/48 57/3/48
f 55/3/49 58/3/49 63/3/49 59/3/49
f 64/3/50 59/3/50 63/3/50 2/3/50
f 56/3/51 59/3/51 64/3/51 60/3/51
f 50/3/52 54/3/52 58/3/52 55/3/52
f 57/3/53 60/3/53 65/3/53 61/3/53
f 57/3/54 61/3/54 45/3/54 53/3/54
f 54/3/55 12/3/55 62/3/55 58/3/55
f 60/3/56 64/3/56 3/3/56 65/3/56
f 3/3/57 6/3/57 10/3/57 7/3/57
f 58/3/58 62/3/58 1/3/58 63/3/58
f 65/3/59 66/3/59 45/3/59 61/3/59
f 5/3/60 8/3/60 14/3/60 9/3/60
f 7/3/61 11/3/61 45/3/61 66/3/61
f 1/3/62 62/3/62 12/3/62 4/3/62
f 10/3/63 15/3/63 19/3/63 16/3/63
f 2/3/64 63/3/64 1/3/64 5/3/64
f 76/2/65 77/2/65 70/2/65 67/2/65
f 80/2/66 81/2/66 78/2/66 75/2/66
f 68/2/67 69/2/67 74/2/67 71/2/67
f 72/2/68 73/2/68 82/2/68 79/2/68
f 67/2/69 70/2/69 69/2/69 68/2/69
f 73/2/70 72/2/70 71/2/70 74/2/70
f 81/2/71 80/2/71 79/2/71 82/2/71
f 77/2/72 76/2/72 75/2/72 78/2/72
f 71/2/73 72/2/73 79/2/73 80/2/73 75/2/73 76/2/73 67/2/73 68/2/73
f 78/2/74 81/2/74 82/2/74 73/2/74 74/2/74 69/2/74 70/2/74 77/2/74
f 100/1/65 101/1/65 94/1/65 91/1/65
f 104/1/66 105/1/66 102/1/66 99/1/66
f 85/1/71 86/1/71 114/1/71 108/1/71
f 105/1/75 106/1/75 86/1/75 85/1/75
f 92/1/67 93/1/67 98/1/67 95/1/67
f 96/1/68 97/1/68 106/1/68 103/1/68
f 91/1/69 94/1/69 93/1/69 92/1/69
f 97/1/70 96/1/70 95/1/70 98/1/70
f 105/1/71 104/1/71 103/1/71 106/1/71
f 101/1/72 100/1/72 99/1/72 102/1/72
f 95/1/73 96/1/73 103/1/73 104/1/73 99/1/73 100/1/73 91/1/73 92/1/73
f 97/1/76 98/1/76 88/1/76 87/1/76
f 93/1/77 94/1/77 90/1/77 89/1/77
f 102/1/66 105/1/66 85/1/66 84/1/66
f 98/1/67 93/1/67 89/1/67 88/1/67
f 106/1/78 97/1/78 87/1/78 86/1/78
f 101/1/79 102/1/79 84/1/79 83/1/79
f 94/1/80 101/1/80 83/1/80 90/1/80
f 108/1/74 114/1/74 113/1/74 112/1/74 111/1/74 110/1/74 109/1/74 107/1/74
f 83/1/72 84/1/72 107/1/72 109/1/72
f 88/1/67 89/1/67 111/1/67 112/1/67
f 84/1/66 85/1/66 108/1/66 107/1/66
f 87/1/70 88/1/70 112/1/70 113/1/70
f 89/1/69 90/1/69 110/1/69 111/1/69
f 90/1/65 83/1/65 109/1/65 110/1/65
f 86/1/68 87/1/68 113/1/68 114/1/68
