# Blender 4.2.1 LTS
# www.blender.org
mtllib caja.mtl
o Cubo
v -1.000954 -0.916600 1.397851
v 0.993403 1.028939 -1.551928
v 0.980039 1.027389 -1.571599
v -1.000954 -0.754529 1.397851
v 0.981623 -1.000000 -1.571599
v 0.995076 -1.000000 -1.551928
v -1.000954 -0.916600 1.048326
v 0.980039 1.027389 1.571599
v 0.993403 1.028939 1.551928
v -1.000954 -0.754529 1.048326
v 0.995076 -1.000000 1.551928
v 0.981623 -1.000000 1.571599
v -0.981623 1.000000 -1.571599
v -0.995076 1.000000 -1.551928
v -0.995076 -1.000000 -1.551928
v -0.981623 -1.000000 -1.571599
v -0.994957 0.950357 1.551928
v -0.981696 0.952622 1.571599
v -0.981623 -1.000000 1.571599
v -0.995076 -1.000000 1.551928
v 0.993403 1.028939 -1.551928
v 1.000000 0.968171 -1.525057
v 0.997538 0.995736 -1.538492
v 0.999340 0.984085 -1.528657
v 1.000000 -0.968171 -1.525057
v 0.995076 -1.000000 -1.551928
v 0.999340 -0.984085 -1.528656
v 0.997538 -0.995736 -1.538492
v 1.000000 0.968171 1.525057
v 0.993403 1.028939 1.551928
v 0.999340 0.984085 1.528657
v 0.997538 0.995736 1.538492
v 0.995076 -1.000000 1.551928
v 1.000000 -0.968171 1.525057
v 0.997538 -0.995736 1.538492
v 0.999340 -0.984085 1.528656
v -1.000000 0.968171 -1.525057
v -0.995076 1.000000 -1.551928
v -0.999340 0.984085 -1.528656
v -0.997538 0.995736 -1.538492
v -0.995076 -1.000000 -1.551928
v -1.000000 -0.968171 -1.525057
v -0.997538 -0.995736 -1.538492
v -0.999340 -0.984085 -1.528656
v -0.994957 0.950357 1.551928
v -1.000000 0.968171 1.525057
v -0.997538 0.995736 1.538492
v -0.999340 0.984085 1.528656
v -1.000000 -0.968171 1.525057
v -0.995076 -1.000000 1.551928
v -0.999340 -0.984085 1.528657
v -0.997538 -0.995736 1.538492
v 0.963245 0.947282 -1.578799
v 0.980039 1.027389 -1.571599
v 0.965707 0.973641 -1.577834
v 0.972434 0.992937 -1.575199
v 0.981623 -1.000000 -1.571599
v 0.963245 -0.947282 -1.578799
v 0.972434 -0.992937 -1.575199
v 0.965707 -0.973641 -1.577834
v 0.980039 1.027389 1.571599
v 0.963245 0.947282 1.578799
v 0.972434 0.992937 1.575199
v 0.965707 0.973641 1.577834
v 0.963245 -0.947282 1.578799
v 0.981623 -1.000000 1.571599
v 0.965707 -0.973641 1.577834
v 0.972434 -0.992937 1.575199
v -0.981623 1.000000 -1.571599
v -0.963245 0.947282 -1.578799
v -0.972434 0.992937 -1.575199
v -0.965707 0.973641 -1.577834
v -0.963245 -0.947282 -1.578799
v -0.981623 -1.000000 -1.571599
v -0.965707 -0.973641 -1.577834
v -0.972434 -0.992937 -1.575199
v -0.963245 0.947282 1.578799
v -0.981696 0.952622 1.571599
v -0.965707 0.973641 1.577834
v -0.972434 0.992937 1.575199
v -0.981623 -1.000000 1.571599
v -0.963245 -0.947282 1.578799
v -0.972434 -0.992937 1.575199
v -0.965707 -0.973641 1.577834
v 0.995076 0.001308 -1.551928
v 0.981623 0.001308 -1.571599
v 0.007771 0.914608 -1.571599
v 0.018575 1.038177 1.571598
v -0.999340 0.984085 0.020878
v 0.993403 1.028939 0.031951
v -0.994957 0.950357 0.020901
v 0.013351 1.036648 0.026473
v -0.997538 0.995736 0.020888
vn 0.9778 0.0002 0.2097
vn -0.9832 -0.0000 0.1824
vn 0.3790 0.0001 0.9254
vn -0.3648 -0.0000 -0.9311
vn -0.0000 -1.0000 -0.0000
vn -0.0000 -0.0000 1.0000
vn 0.8263 0.0007 0.5633
vn -0.9836 -0.0000 -0.1803
vn -0.3642 -0.0000 0.9313
vn -0.8254 -0.0000 -0.5645
vn -1.0000 -0.0000 -0.0000
vn -0.8273 -0.0000 0.5618
vn 1.0000 -0.0000 -0.0000
vn 0.8254 -0.0000 -0.5645
vn -0.0000 -0.0000 -1.0000
vn 0.3717 0.0001 -0.9283
vn 0.8660 -0.5000 -0.0000
vn 0.9882 -0.1529 -0.0000
vn 0.9991 -0.0414 -0.0000
vn 0.9923 0.1236 -0.0000
vn 0.9882 0.1529 -0.0000
vn 0.9991 0.0414 -0.0000
vn -0.9991 0.0414 -0.0000
vn -0.9882 0.1529 -0.0000
vn 0.9926 0.1211 0.0019
vn -0.9991 -0.0414 -0.0000
vn -0.9882 -0.1529 -0.0000
vn -0.8660 -0.5000 -0.0000
vn 0.9808 0.0002 -0.1950
vn -0.0000 -0.4542 -0.8909
vn -0.0000 -0.1353 -0.9908
vn -0.0000 -0.0366 -0.9993
vn -0.0009 0.1230 0.9924
vn -0.0000 0.1353 -0.9908
vn -0.0000 0.0366 -0.9993
vn -0.0000 0.0366 0.9993
vn -0.0000 0.1353 0.9908
vn -0.0032 0.1697 0.9855
vn -0.0000 -0.0366 0.9993
vn -0.0000 -0.1353 0.9908
vn -0.0000 -0.4542 0.8909
vn -0.0540 0.9978 -0.0379
vn 0.8263 0.0013 -0.5633
vn -0.0858 0.9963 -0.0007
vn 0.0087 1.0000 -0.0000
vn 0.9984 0.0568 -0.0000
vn -0.0001 0.9998 -0.0223
vt 0.875000 0.750000
vt 0.625000 0.750000
vt 0.625533 0.747872
vt 0.626989 0.746315
vt 0.628979 0.745745
vt 0.871021 0.745745
vt 0.873011 0.746315
vt 0.874467 0.747873
vt 0.375000 0.502128
vt 0.625000 0.502128
vt 0.624467 0.503191
vt 0.623011 0.503970
vt 0.621021 0.504255
vt 0.378979 0.504255
vt 0.376989 0.503970
vt 0.375533 0.503191
vt 0.625000 0.252297
vt 0.624117 0.253446
vt 0.621705 0.254287
vt 0.618410 0.254594
vt 0.381590 0.254594
vt 0.378295 0.254287
vt 0.375883 0.253446
vt 0.375000 0.252297
vt 0.625000 0.752297
vt 0.624117 0.753446
vt 0.621705 0.754287
vt 0.618410 0.754594
vt 0.381590 0.754594
vt 0.378295 0.754287
vt 0.375883 0.753446
vt 0.375000 0.752297
vt 0.125616 0.502127
vt 0.127297 0.500570
vt 0.372703 0.500570
vt 0.374384 0.502127
vt 0.374384 0.747873
vt 0.372703 0.749430
vt 0.127297 0.749430
vt 0.125616 0.747872
vt 0.381590 0.254594
vt 0.618410 0.495406
vt 0.381590 0.495406
vt 0.375000 0.250000
vt 0.625000 0.250000
vt 0.625000 0.747873
vt 0.375000 0.747873
vt 0.375533 0.746809
vt 0.376989 0.746030
vt 0.378979 0.745745
vt 0.621021 0.745745
vt 0.623011 0.746030
vt 0.624467 0.746809
vt 0.375000 0.497703
vt 0.375883 0.496554
vt 0.378295 0.495713
vt 0.381590 0.495406
vt 0.618410 0.495406
vt 0.621705 0.495713
vt 0.624117 0.496554
vt 0.625000 0.497703
vt 0.378979 0.504255
vt 0.378979 0.745745
vt 0.628979 0.504255
vt 0.871021 0.504255
vt 0.500164 1.000000
vt 0.375000 1.000000
vt 0.375000 0.997703
vt 0.500164 0.997703
vt 0.381590 0.754594
vt 0.618410 0.754594
vt 0.618410 0.995406
vt 0.381590 0.995406
vt 0.625000 0.997703
vt 0.375883 0.996554
vt 0.378295 0.995713
vt 0.381590 0.995406
vt 0.618410 0.995406
vt 0.621705 0.995713
vt 0.624117 0.996554
vt 0.374692 0.503191
vt 0.374692 0.746809
vt 0.375000 0.504255
vt 0.375000 0.745745
vt 0.625000 0.745745
vt 0.625000 0.504255
vt 0.375616 0.002127
vt 0.375616 0.127530
vt 0.375616 0.247873
vt 0.375308 0.246809
vt 0.375308 0.003191
vt 0.375000 0.245745
vt 0.375000 0.004255
vt 0.875000 0.504255
vt 0.875000 0.745745
vt 0.625000 0.623351
vt 0.625000 0.745745
vt 0.625000 0.004255
vt 0.625000 0.126649
vt 0.624692 0.126654
vt 0.624692 0.003191
vt 0.624384 0.126655
vt 0.624384 0.002127
vt 0.375000 0.745745
vt 0.125000 0.745745
vt 0.125000 0.504255
vt 0.125308 0.503191
vt 0.125308 0.746809
vt 0.875000 0.500000
vt 0.874467 0.502128
vt 0.873011 0.503685
vt 0.626989 0.503685
vt 0.625533 0.502128
vt 0.625000 0.500000
vt 0.750164 0.500000
vt 0.128446 0.500285
vt 0.371554 0.500285
vt 0.129594 0.500000
vt 0.370406 0.500000
vt 0.375000 0.995406
vt 0.375000 0.754594
vt 0.622703 0.000570
vt 0.499646 0.000570
vt 0.377297 0.000570
vt 0.378446 0.000285
vt 0.621554 0.000285
vt 0.379594 0.000000
vt 0.620406 0.000000
vt 0.625000 0.754594
vt 0.625000 0.995406
vt 0.625000 0.254594
vt 0.625000 0.495406
vt 0.620406 0.250000
vt 0.379594 0.250000
vt 0.378446 0.249715
vt 0.621554 0.249715
vt 0.377297 0.249430
vt 0.498261 0.249430
vt 0.622703 0.249430
vt 0.375000 0.495406
vt 0.375000 0.254594
vt 0.370406 0.750000
vt 0.129594 0.750000
vt 0.128446 0.749715
vt 0.371554 0.749715
vt 0.498942 0.127096
vt 0.375000 0.500000
vt 0.375000 0.750000
vt 0.625000 1.000000
vt 0.624384 0.247873
vt 0.625000 0.245745
vt 0.624692 0.246809
s 0
usemtl Material.001
f 9/1/1 11/2/1 33/2/1 35/3/1 36/4/1 34/5/1 29/6/1 31/7/1 32/8/1 30/1/1
f 20/9/2 17/10/2 45/10/2 47/11/2 48/12/2 46/13/2 49/14/2 51/15/2 52/16/2 50/9/2
f 61/17/3 63/18/3 64/19/3 62/20/3 65/21/3 67/22/3 68/23/3 66/24/3 12/24/3 8/17/3
f 69/25/4 71/26/4 72/27/4 70/28/4 73/29/4 75/30/4 76/31/4 74/32/4 16/32/4 13/25/4
f 41/33/5 15/33/5 16/34/5 74/34/5 57/35/5 5/35/5 6/36/5 26/36/5 33/37/5 11/37/5 12/38/5 66/38/5 81/39/5 19/39/5 20/40/5 50/40/5
f 65/41/6 62/20/6 77/42/6 82/43/6
f 8/17/7 12/24/7 11/44/7 9/45/7
f 14/46/8 15/47/8 41/47/8 43/48/8 44/49/8 42/50/8 37/51/8 39/52/8 40/53/8 38/46/8
f 81/54/9 83/55/9 84/56/9 82/57/9 77/58/9 79/59/9 80/60/9 78/61/9 18/61/9 19/54/9
f 13/25/10 16/32/10 15/47/10 14/46/10
f 49/62/11 46/13/11 37/51/11 42/63/11
f 19/54/12 18/61/12 17/10/12 20/9/12
f 25/64/13 22/65/13 29/6/13 34/5/13
f 85/66/14 6/67/14 5/68/14 86/69/14
f 73/70/15 70/71/15 53/72/15 58/73/15
f 3/74/16 86/69/16 5/68/16 57/68/16 59/75/16 60/76/16 58/77/16 53/78/16 55/79/16 56/80/16 54/74/16
f 33/37/17 26/36/17 28/81/17 35/82/17
f 35/82/18 28/81/18 27/83/18 36/84/18
f 36/85/19 27/86/19 25/64/19 34/5/19
f 21/87/20 90/88/20 30/89/20 32/90/20 23/91/20
f 23/91/21 32/90/21 31/92/21 24/93/21
f 24/94/22 31/95/22 29/6/22 22/65/22
f 37/51/23 46/13/23 48/86/23 89/96/23 39/97/23
f 39/98/24 89/99/24 93/100/24 40/101/24
f 40/101/25 93/100/25 91/102/25 38/103/25
f 49/62/26 42/63/26 44/104/26 51/83/26
f 51/105/27 44/106/27 43/107/27 52/108/27
f 52/108/28 43/107/28 41/33/28 50/40/28
f 21/109/29 23/110/29 24/111/29 22/65/29 25/64/29 27/112/29 28/113/29 26/114/29 6/114/29 85/115/29 2/109/29
f 57/35/30 74/34/30 76/116/30 59/117/30
f 59/117/31 76/116/31 75/118/31 60/119/31
f 60/120/32 75/121/32 73/70/32 58/73/32
f 69/122/33 87/123/33 54/124/33 56/125/33 71/126/33
f 71/126/34 56/125/34 55/127/34 72/128/34
f 72/129/35 55/130/35 53/72/35 70/71/35
f 77/42/36 62/20/36 64/131/36 79/132/36
f 79/133/37 64/134/37 63/135/37 80/136/37
f 80/136/38 63/135/38 61/137/38 88/138/38 78/139/38
f 65/41/39 82/43/39 84/140/39 67/141/39
f 67/142/40 84/143/40 83/144/40 68/145/40
f 68/145/41 83/144/41 81/39/41 66/38/41
f 21/87/42 2/87/42 3/124/42 54/124/42 87/123/42 92/146/42 90/88/42
f 2/149/43 85/66/43 86/69/43 3/74/43
f 88/138/44 92/146/44 91/102/44 45/150/44 17/150/44 18/139/44 78/139/44
f 90/88/45 92/146/45 88/138/45 61/137/45 8/137/45 9/89/45 30/89/45
f 93/100/24 89/99/24 48/151/24 47/152/24
f 91/102/46 93/100/46 47/152/46 45/150/46
f 91/102/47 92/146/47 87/123/47 69/122/47 13/122/47 14/103/47 38/103/47
usemtl Material.002
f 4/147/13 1/114/13 7/2/13 10/148/13
