# Blender 3.3.21
# www.blender.org
mtllib NuevaHamburguesa.mtl
o hamburguesa
v 0.021902 0.019247 -0.041972
v 0.002196 0.019247 -0.047966
v 0.002196 0.024852 -0.047966
v 0.021902 0.024852 -0.041972
v -0.012848 0.019247 -0.033898
v -0.012848 0.024852 -0.033898
v -0.008186 0.019247 -0.013835
v -0.008186 0.024852 -0.013835
v 0.011519 0.019247 -0.007841
v 0.011519 0.024852 -0.007841
v 0.026563 0.019247 -0.021909
v 0.026563 0.024852 -0.021909
v 0.034502 0.019247 -0.004902
v 0.013905 0.019247 -0.004902
v 0.013905 0.024852 -0.004902
v 0.034502 0.024852 -0.004902
v 0.003606 0.019247 0.012935
v 0.003606 0.024852 0.012935
v 0.013905 0.019247 0.030773
v 0.013905 0.024852 0.030773
v 0.034502 0.019247 0.030773
v 0.034502 0.024852 0.030773
v 0.044800 0.019247 0.012935
v 0.044800 0.024852 0.012935
v -0.006797 0.019247 -0.012908
v -0.027252 0.019247 -0.015319
v -0.027252 0.024852 -0.015319
v -0.006797 0.024852 -0.012908
v -0.039568 0.019247 0.001191
v -0.039568 0.024852 0.001191
v -0.031428 0.019247 0.020111
v -0.031428 0.024852 0.020111
v -0.010973 0.019247 0.022522
v -0.010973 0.024852 0.022522
v 0.001343 0.019247 0.006013
v 0.001343 0.024852 0.006013
v 0.034247 0.020841 -0.033620
v 0.004710 0.020841 -0.045855
v -0.024828 0.020841 -0.033620
v -0.037063 0.020841 -0.004082
v -0.024828 0.020841 0.025456
v 0.004710 0.020841 0.037691
v 0.034247 0.020841 0.025456
v 0.046482 0.020841 -0.004082
v 0.035871 0.012662 -0.035243
v 0.004710 0.012662 -0.048151
v -0.026452 0.012662 -0.035243
v -0.039360 0.012662 -0.004082
v -0.026452 0.012662 0.027080
v 0.004710 0.012662 0.039987
v 0.035871 0.012662 0.027080
v 0.048779 0.012662 -0.004082
v 0.034247 0.004483 -0.033620
v 0.004710 0.004483 -0.045855
v -0.024828 0.004483 -0.033620
v -0.037063 0.004483 -0.004082
v -0.024828 0.004483 0.025456
v 0.004710 0.004483 0.037691
v 0.034247 0.004483 0.025456
v 0.046482 0.004483 -0.004082
v 0.035871 -0.003696 -0.035243
v 0.004710 -0.003696 -0.048151
v -0.026452 -0.003696 -0.035243
v -0.039360 -0.003696 -0.004082
v -0.026452 -0.003696 0.027080
v 0.004710 -0.003696 0.039987
v 0.035871 -0.003696 0.027080
v 0.048779 -0.003696 -0.004082
v 0.034247 -0.011875 -0.033620
v 0.004710 -0.011875 -0.045855
v -0.024828 -0.011875 -0.033620
v -0.037063 -0.011875 -0.004082
v -0.024828 -0.011875 0.025456
v 0.004710 -0.011875 0.037691
v 0.034247 -0.011875 0.025456
v 0.046482 -0.011875 -0.004082
v -0.027729 -0.007337 0.028356
v -0.034570 0.003923 0.015085
v -0.014457 0.003923 0.035198
v 0.043989 0.003923 0.015085
v 0.037148 -0.007337 0.028356
v 0.023876 0.003923 0.035198
v -0.034570 0.003923 -0.023248
v -0.027729 -0.007337 -0.036520
v -0.014457 0.003923 -0.043362
v 0.023876 0.003923 -0.043362
v 0.037148 -0.007337 -0.036520
v 0.043989 0.003923 -0.023248
v -0.029030 -0.006594 0.029657
v -0.015403 0.005907 0.036144
v -0.035516 0.005907 0.016031
v 0.044936 0.005907 0.016031
v 0.024823 0.005907 0.036144
v 0.038449 -0.006594 0.029657
v -0.035516 0.005907 -0.024195
v -0.015403 0.005907 -0.044308
v -0.029030 -0.006594 -0.037821
v 0.024823 0.005907 -0.044308
v 0.044936 0.005907 -0.024195
v 0.038449 -0.006594 -0.037821
v 0.028989 -0.021138 -0.028361
v 0.004710 -0.021138 -0.038418
v 0.004710 -0.015215 -0.047903
v 0.035696 -0.015215 -0.035068
v -0.019570 -0.021138 -0.028361
v -0.026277 -0.015215 -0.035068
v -0.029627 -0.021138 -0.004082
v -0.039111 -0.015215 -0.004082
v -0.019570 -0.021138 0.020197
v -0.026277 -0.015215 0.026904
v 0.004710 -0.021138 0.030254
v 0.004710 -0.015215 0.039739
v 0.028989 -0.021138 0.020197
v 0.035696 -0.015215 0.026904
v 0.039046 -0.021138 -0.004082
v 0.048531 -0.015215 -0.004082
v 0.037450 -0.009436 -0.036822
v 0.004710 -0.009436 -0.050383
v -0.028030 -0.009436 -0.036822
v -0.041592 -0.009436 -0.004082
v -0.028030 -0.009436 0.028658
v 0.004710 -0.009436 0.042219
v 0.037450 -0.009436 0.028658
v 0.051011 -0.009436 -0.004082
v 0.014123 0.032653 -0.047354
v -0.003524 0.031288 -0.050987
v 0.003780 0.043686 -0.035790
v 0.023404 0.042206 -0.032150
v 0.036147 0.031357 -0.037820
v -0.027077 0.031906 -0.034040
v -0.017372 0.043158 -0.028345
v -0.037872 0.035675 0.005728
v -0.034539 0.030929 0.022046
v -0.020779 0.041623 0.020725
v -0.039208 0.032419 -0.011988
v -0.030509 0.041780 -0.003845
v -0.021068 0.045598 -0.014897
v -0.004491 0.030723 0.039450
v 0.007682 0.031937 0.037061
v -0.002486 0.041732 0.030447
v 0.012340 0.041521 0.030720
v -0.019716 0.031967 0.033270
v 0.028560 0.031680 0.034613
v 0.027419 0.043165 0.020073
v 0.050529 0.031426 0.005327
v 0.047921 0.032337 -0.013203
v 0.037668 0.043441 -0.004356
v 0.032184 0.045153 0.007704
v 0.042049 0.032255 0.024754
v 0.032337 0.043479 -0.021477
v -0.002057 0.023441 -0.049086
v 0.013999 0.023441 -0.046738
v 0.033673 0.023441 -0.035712
v -0.025223 0.023441 -0.034046
v -0.038002 0.023441 -0.012774
v -0.038746 0.023441 0.005003
v -0.032772 0.023441 0.020467
v -0.003530 0.023441 0.037360
v 0.010171 0.024624 0.036372
v -0.019013 0.023441 0.032056
v 0.028546 0.023203 0.035030
v 0.048227 0.023441 0.004853
v 0.046914 0.023441 -0.012540
v 0.043421 0.023441 0.025512
v -0.022904 0.045209 0.006576
v -0.004855 0.047999 0.014618
v 0.010480 0.047069 0.019707
v 0.021174 0.048976 -0.001678
v 0.008093 0.049354 -0.019641
v 0.004379 0.051140 -0.003739
v -0.040602 0.025389 -0.025287
v -0.039466 0.020094 -0.035946
v -0.026455 0.021794 -0.021082
v -0.024460 0.018040 -0.047435
v -0.015456 0.021656 -0.046729
v -0.024834 0.019948 -0.037300
v -0.003515 0.019898 -0.021220
v 0.019602 0.020682 -0.016306
v 0.012137 0.016364 -0.031650
v 0.050188 0.020141 -0.024094
v 0.010246 0.018101 -0.042821
v 0.019990 0.018105 -0.045623
v -0.036334 0.020891 0.008071
v -0.039926 0.024336 -0.002821
v -0.024519 0.020865 0.013662
v 0.033001 0.015321 0.009293
v 0.034111 0.010628 0.019240
v 0.024109 0.014960 0.018599
v 0.049407 0.021644 0.000701
v 0.047663 0.017083 0.010267
v 0.042472 0.018714 0.004390
v 0.041542 0.022220 -0.040606
v -0.019999 0.021237 0.008276
v -0.009581 0.021873 0.018967
v -0.016403 0.021613 0.019049
v 0.001811 0.015174 -0.043015
v -0.041208 0.019321 -0.016968
v -0.023026 0.021440 -0.004894
v 0.029858 0.020822 -0.009760
v 0.036858 0.020766 -0.007513
v 0.050037 0.021974 -0.010773
v -0.031056 0.024793 0.034706
v -0.032577 0.022840 0.016069
v -0.011280 0.017798 0.038585
v -0.002816 0.023745 0.039882
v -0.001069 0.020361 0.026909
v 0.023312 0.018315 0.034423
v 0.018202 0.020374 0.025440
v 0.013268 0.022830 0.036640
v 0.044047 0.020611 0.029203
v 0.012956 0.018205 0.008825
v 0.005475 0.020095 0.040413
v -0.007044 0.022027 0.007867
v -0.001692 0.022066 0.015864
v -0.006536 0.022659 -0.004267
v 0.039804 0.019667 -0.000457
v 0.050983 0.016641 -0.004719
v -0.037856 0.023640 -0.046488
v -0.040260 0.028565 -0.025153
v -0.026535 0.024799 -0.021082
v -0.038956 0.022409 -0.035855
v -0.024518 0.020369 -0.047792
v -0.024912 0.023886 -0.037154
v -0.015723 0.025530 -0.047376
v -0.003629 0.023926 -0.021298
v 0.019579 0.023095 -0.016384
v 0.049341 0.022572 -0.024838
v 0.012294 0.020760 -0.032545
v 0.009882 0.020625 -0.043562
v 0.020013 0.020338 -0.045510
v -0.036468 0.022978 0.007889
v -0.024395 0.022480 0.013773
v -0.041284 0.026174 -0.003595
v 0.033229 0.022247 0.009340
v 0.024230 0.021898 0.018568
v 0.034064 0.021643 0.019155
v 0.049758 0.026087 0.000804
v 0.042466 0.023409 0.005008
v 0.047382 0.019837 0.010315
v 0.041182 0.024259 -0.040274
v -0.019899 0.023275 0.008222
v -0.011513 0.024058 0.019938
v -0.018449 0.023679 0.020140
v 0.001836 0.017561 -0.043124
v -0.023111 0.023678 -0.004849
v -0.040715 0.022380 -0.016681
v 0.029771 0.023066 -0.010067
v 0.036609 0.023332 -0.007734
v 0.050798 0.024298 -0.011275
v -0.030809 0.027013 0.034613
v -0.011403 0.022653 0.038015
v -0.032570 0.024784 0.015664
v -0.003039 0.028613 0.039659
v -0.001635 0.025168 0.027228
v 0.023445 0.020773 0.033949
v 0.018260 0.023194 0.024276
v 0.013429 0.027878 0.037749
v 0.043892 0.023812 0.029020
v 0.013210 0.023012 0.008706
v 0.005489 0.024898 0.039737
v -0.007685 0.024249 0.008140
v -0.002675 0.024276 0.016536
v -0.006553 0.024895 -0.004071
v 0.039462 0.023908 -0.000488
v 0.051054 0.020533 -0.004765
v -0.037663 0.025956 -0.046474
v 0.007126 0.050684 -0.004495
v 0.010007 0.050684 -0.004495
v 0.008567 0.050684 -0.009794
v 0.007126 0.049322 -0.004495
v 0.010007 0.049322 -0.004495
v 0.008567 0.049322 -0.009794
v -0.007733 0.048477 0.010219
v -0.006448 0.048469 0.008405
v -0.010397 0.047921 0.006973
v -0.007619 0.047436 0.010304
v -0.006335 0.047428 0.008490
v -0.010283 0.046880 0.007058
v 0.030439 0.045354 -0.014454
v 0.029975 0.045780 -0.012389
v 0.033878 0.044475 -0.012371
v 0.030118 0.044394 -0.014329
v 0.029653 0.044819 -0.012263
v 0.033556 0.043514 -0.012246
v 0.039177 0.038072 0.016061
v 0.038372 0.038008 0.017544
v 0.040926 0.036080 0.017887
v 0.038745 0.037453 0.015801
v 0.037940 0.037390 0.017283
v 0.040494 0.035461 0.017625
v 0.012544 0.038077 -0.041583
v 0.012295 0.038961 -0.040166
v 0.015453 0.038346 -0.040234
v 0.012420 0.037398 -0.041181
v 0.012172 0.038282 -0.039764
v 0.015329 0.037667 -0.039832
v 0.019673 0.044601 0.022253
v 0.017867 0.045204 0.021860
v 0.017636 0.043525 0.025155
v 0.019497 0.043802 0.021833
v 0.017691 0.044406 0.021441
v 0.017460 0.042727 0.024735
v 0.009600 0.046181 0.023166
v 0.009360 0.046838 0.021353
v 0.005932 0.046391 0.022686
v 0.009592 0.045317 0.022855
v 0.009352 0.045973 0.021041
v 0.005924 0.045526 0.022374
v -0.031293 0.036160 -0.019963
v -0.030775 0.035222 -0.021752
v -0.033990 0.033280 -0.020450
v -0.030714 0.035534 -0.019467
v -0.030196 0.034596 -0.021257
v -0.033411 0.032654 -0.019954
v -0.003915 0.036329 -0.044769
v -0.002199 0.036472 -0.044805
v -0.002952 0.034519 -0.047333
v -0.003850 0.035677 -0.044285
v -0.002135 0.035820 -0.044320
v -0.002888 0.033868 -0.046849
v 0.043042 0.039006 -0.004388
v 0.043549 0.038274 -0.002502
v 0.045531 0.035984 -0.005077
v 0.042277 0.038384 -0.004423
v 0.042784 0.037652 -0.002537
v 0.044767 0.035362 -0.005112
v 0.013738 0.039024 0.032800
v 0.012409 0.037645 0.033626
v 0.016023 0.036116 0.034258
v 0.013690 0.038552 0.031935
v 0.012360 0.037173 0.032761
v 0.015975 0.035644 0.033393
v -0.036887 0.029544 0.013373
v -0.036681 0.029098 0.014821
v -0.036559 0.032009 0.014893
v -0.036173 0.029517 0.013263
v -0.035967 0.029071 0.014711
v -0.035845 0.031982 0.014783
v -0.020436 0.043804 0.015728
v -0.018733 0.044921 0.015276
v -0.020812 0.044774 0.011891
v -0.019962 0.042978 0.015473
v -0.018259 0.044094 0.015021
v -0.020338 0.043947 0.011636
v 0.000679 0.047295 -0.023681
v 0.002713 0.047542 -0.024075
v 0.001134 0.046271 -0.027495
v 0.000845 0.046361 -0.023411
v 0.002878 0.046608 -0.023804
v 0.001300 0.045337 -0.027225
v 0.021708 0.048203 0.002928
v 0.022568 0.047957 0.004812
v 0.025613 0.047880 0.002257
v 0.021612 0.047225 0.002844
v 0.022473 0.046979 0.004728
v 0.025517 0.046902 0.002172
v 0.032418 0.038658 -0.030222
v 0.034288 0.037837 -0.029799
v 0.033239 0.036288 -0.033307
v 0.031982 0.037904 -0.029759
v 0.033852 0.037083 -0.029336
v 0.032803 0.035534 -0.032844
v -0.013541 0.037057 0.030900
v -0.012666 0.038248 0.029815
v -0.015839 0.037880 0.028400
v -0.013248 0.036401 0.030415
v -0.012373 0.037592 0.029331
v -0.015547 0.037224 0.027915
v -0.018219 0.047083 -0.009009
v -0.016893 0.047210 -0.010614
v -0.020378 0.046170 -0.012220
v -0.017988 0.046131 -0.008894
v -0.016663 0.046258 -0.010499
v -0.020148 0.045218 -0.012104
v -0.010855 0.044627 -0.026914
v -0.011471 0.044181 -0.028811
v -0.014741 0.044451 -0.026710
v -0.010801 0.043685 -0.026709
v -0.011418 0.043238 -0.028606
v -0.014687 0.043508 -0.026505
v -0.035264 0.037911 0.003672
v -0.033800 0.038937 0.005382
v -0.032224 0.040583 0.001253
v -0.034531 0.037002 0.003590
v -0.033067 0.038029 0.005300
v -0.031491 0.039675 0.001172
v -0.016329 0.039930 -0.033654
v -0.017698 0.037989 -0.035220
v -0.021136 0.039280 -0.031229
v -0.015812 0.038950 -0.032891
v -0.017181 0.037009 -0.034458
v -0.020618 0.038300 -0.030467
vn 0.2910 -0.0000 -0.9567
vn -0.6830 -0.0000 -0.7304
vn -0.9740 -0.0000 0.2263
vn -0.2910 -0.0000 0.9567
vn 0.6830 -0.0000 0.7304
vn 0.9741 -0.0000 -0.2263
vn -0.0000 -1.0000 -0.0000
vn -0.0000 -0.0000 -1.0000
vn -0.8660 -0.0000 -0.5000
vn -0.8660 -0.0000 0.5000
vn -0.0000 -0.0000 1.0000
vn 0.8660 -0.0000 0.5000
vn 0.8660 -0.0000 -0.5000
vn 0.1171 -0.0000 -0.9931
vn -0.8015 -0.0000 -0.5979
vn -0.9186 -0.0000 0.3952
vn -0.1171 -0.0000 0.9931
vn 0.8015 -0.0000 0.5980
vn 0.9186 -0.0000 -0.3952
vn -0.0000 1.0000 -0.0000
vn 0.3704 0.2510 -0.8943
vn -0.3704 0.2510 -0.8943
vn -0.8943 0.2511 0.3704
vn -0.8943 0.2511 -0.3704
vn -0.3704 0.2511 0.8943
vn 0.3704 0.2511 0.8943
vn 0.8943 0.2511 0.3704
vn 0.8943 0.2511 -0.3704
vn 0.3704 -0.2510 -0.8943
vn -0.3704 -0.2510 -0.8943
vn -0.8943 -0.2511 -0.3704
vn -0.8943 -0.2511 0.3704
vn -0.3704 -0.2511 0.8943
vn 0.3704 -0.2511 0.8943
vn 0.8943 -0.2511 0.3704
vn 0.8943 -0.2511 -0.3704
vn 0.6557 -0.3744 -0.6557
vn -0.6557 -0.3744 -0.6557
vn 0.6557 -0.3744 0.6556
vn -0.6557 -0.3744 0.6556
vn -0.6557 0.3745 0.6557
vn 0.6557 0.3744 0.6557
vn -0.6557 0.3745 -0.6557
vn 0.6557 0.3744 -0.6557
vn 0.1088 -0.5772 0.8093
vn -0.8093 -0.5772 -0.1089
vn -0.1088 -0.5772 0.8094
vn 0.8092 -0.5773 -0.1090
vn 0.1088 -0.5772 -0.8093
vn -0.8093 -0.5772 0.1088
vn 0.8093 -0.5773 0.1090
vn -0.1088 -0.5772 -0.8093
vn -0.0000 -0.4304 0.9026
vn 0.9025 -0.4308 -0.0000
vn -0.0000 -0.4304 -0.9026
vn -0.9026 -0.4304 -0.0000
vn 0.2143 -0.8285 -0.5174
vn -0.2143 -0.8285 -0.5174
vn -0.5174 -0.8285 -0.2143
vn -0.5174 -0.8285 0.2143
vn -0.2143 -0.8285 0.5174
vn 0.2143 -0.8285 0.5174
vn 0.5174 -0.8285 0.2143
vn 0.5174 -0.8285 -0.2143
vn 0.3557 -0.3686 -0.8588
vn -0.3557 -0.3686 -0.8588
vn -0.8588 -0.3686 -0.3557
vn -0.8588 -0.3686 0.3557
vn -0.3557 -0.3686 0.8588
vn 0.3557 -0.3686 0.8588
vn 0.8588 -0.3686 0.3557
vn 0.8588 -0.3686 -0.3557
vn 0.0759 0.7545 -0.6520
vn 0.1698 0.7844 -0.5965
vn 0.3166 0.7041 -0.6356
vn -0.4210 0.6717 -0.6096
vn -0.5580 0.7593 0.3348
vn -0.6951 0.7146 -0.0789
vn -0.5953 0.7655 -0.2441
vn -0.5878 0.7339 -0.3404
vn -0.6399 0.7058 -0.3039
vn 0.0910 0.6204 0.7790
vn -0.0074 0.5543 0.8323
vn -0.2434 0.6402 0.7286
vn -0.3204 0.7373 0.5947
vn -0.4732 0.6783 0.5622
vn 0.1062 0.5122 0.8522
vn 0.3211 0.7553 0.5714
vn 0.7069 0.7044 -0.0649
vn 0.6045 0.7795 0.1643
vn 0.6020 0.7646 0.2301
vn 0.3750 0.7416 0.5563
vn 0.4979 0.8055 0.3213
vn 0.4454 0.7657 -0.4641
vn 0.6599 0.6689 -0.3423
vn 0.1415 -0.2080 -0.9678
vn 0.2062 -0.0680 -0.9761
vn 0.4562 -0.3594 -0.8141
vn 0.3931 -0.0666 -0.9171
vn -0.5208 -0.2917 -0.8023
vn -0.5815 -0.1268 -0.8036
vn -0.9907 -0.1295 -0.0415
vn -0.9958 0.0674 0.0627
vn -0.8425 -0.1842 -0.5062
vn -0.8744 -0.0755 -0.4793
vn -0.8944 -0.2839 0.3455
vn -0.9748 0.0569 0.2156
vn 0.0920 -0.2635 0.9603
vn 0.1950 -0.0260 0.9805
vn -0.6147 -0.2990 0.7299
vn -0.5886 -0.1613 0.7922
vn -0.3092 -0.2998 0.9025
vn -0.3825 -0.1611 0.9098
vn 0.0765 0.0488 0.9959
vn 0.1156 -0.0541 0.9918
vn 0.9595 -0.2723 -0.0724
vn 0.9820 -0.1219 -0.1442
vn 0.5381 0.0405 0.8419
vn 0.5782 0.1588 0.8003
vn 0.9344 -0.2823 0.2174
vn 0.9052 0.1742 0.3877
vn 0.8052 -0.3742 -0.4601
vn 0.8962 -0.1330 -0.4233
vn -0.2148 0.8048 -0.5533
vn -0.0958 0.9745 -0.2031
vn -0.5382 0.8345 0.1182
vn -0.5267 0.8018 0.2823
vn -0.2650 0.9245 0.2741
vn -0.3917 0.9199 -0.0168
vn 0.0044 0.8934 0.4493
vn -0.0688 0.9240 0.3761
vn -0.2110 0.8976 0.3870
vn 0.2135 0.9483 0.2347
vn 0.1959 0.8887 0.4146
vn 0.3197 0.9475 0.0109
vn 0.6372 0.7451 -0.1968
vn 0.3033 0.9484 -0.0923
vn 0.2852 0.9399 -0.1879
vn 0.1364 0.9228 -0.3603
vn -0.1681 0.9433 -0.2862
vn -0.1548 0.9879 0.0047
vn -0.2330 0.9712 0.0490
vn -0.1495 0.9781 -0.1448
vn 0.0033 0.9854 0.1702
vn 0.1093 0.9838 0.1424
vn 0.1839 0.9667 0.1781
vn 0.1099 0.9720 -0.2079
vn 0.1369 0.9874 -0.0789
vn 0.1084 -0.8965 0.4295
vn -0.0878 -0.9829 -0.1618
vn -0.3341 -0.8578 0.3905
vn 0.3536 -0.9168 0.1856
vn 0.0761 -0.9917 -0.1040
vn 0.0464 -0.9672 0.2496
vn 0.1314 -0.9759 -0.1740
vn 0.0196 -0.9976 0.0668
vn 0.1615 -0.9244 -0.3456
vn -0.3497 -0.8618 -0.3675
vn 0.1686 -0.9013 -0.3990
vn 0.1351 -0.9175 -0.3740
vn 0.1359 -0.8901 -0.4351
vn 0.2360 -0.9411 -0.2421
vn -0.0788 -0.9878 -0.1344
vn 0.0383 -0.9990 0.0221
vn 0.0883 -0.9961 0.0053
vn 0.3254 -0.9244 -0.1988
vn -0.1179 -0.9325 0.3413
vn -0.1661 -0.9858 0.0230
vn -0.0160 -0.9996 0.0248
vn -0.0087 -0.9993 0.0351
vn 0.1239 -0.9828 0.1366
vn -0.3527 -0.9272 0.1259
vn 0.5227 -0.8051 0.2804
vn -0.4008 -0.9001 0.1707
vn -0.5744 -0.8061 0.1420
vn -0.4060 -0.9136 0.0215
vn 0.2299 -0.7925 0.5648
vn 0.5475 -0.7976 0.2532
vn -0.1095 -0.9934 0.0335
vn -0.4060 -0.8962 0.1791
vn 0.0609 -0.9981 0.0001
vn 0.0209 -0.9997 -0.0091
vn 0.0755 -0.9960 -0.0487
vn 0.0599 -0.9978 -0.0291
vn -0.0295 -0.8065 -0.5905
vn 0.1506 -0.9872 -0.0535
vn 0.0751 -0.9965 -0.0377
vn -0.2027 -0.9789 0.0274
vn -0.3970 -0.8028 0.4448
vn -0.0277 -0.9586 0.2833
vn 0.0652 -0.9946 -0.0808
vn 0.0517 -0.9951 -0.0844
vn 0.0005 -0.9881 -0.1541
vn 0.0286 -0.9931 -0.1138
vn 0.0474 -0.9838 -0.1730
vn -0.4095 -0.7154 -0.5662
vn 0.0661 -0.7235 0.6871
vn 0.2273 -0.9242 -0.3068
vn 0.1875 -0.9392 -0.2878
vn -0.1365 -0.9762 -0.1683
vn -0.1149 -0.8750 -0.4702
vn -0.4722 -0.8426 0.2591
vn -0.1150 -0.9797 0.1642
vn 0.3901 -0.9090 0.1468
vn -0.2364 -0.9716 0.0060
vn -0.1427 -0.9441 0.2971
vn 0.2512 -0.9355 -0.2486
vn 0.0349 -0.9791 -0.2004
vn 0.0147 -0.9792 -0.2021
vn -0.1922 -0.9723 0.1334
vn -0.3098 -0.9421 -0.1280
vn -0.0350 -0.9880 -0.1505
vn -0.2873 -0.9522 0.1039
vn -0.1847 -0.9810 -0.0588
vn -0.0806 -0.9860 0.1462
vn -0.0813 -0.9912 0.1047
vn -0.3712 -0.9149 0.1585
vn 0.0006 -0.9936 0.1131
vn -0.0394 -0.9452 -0.3240
vn 0.3557 0.8282 -0.4331
vn -0.4737 0.8308 -0.2922
vn -0.0724 0.9929 0.0946
vn -0.0206 0.9908 -0.1339
vn -0.0485 0.9988 -0.0016
vn 0.0059 0.9933 -0.1157
vn -0.1120 0.9442 0.3097
vn 0.0223 0.9980 0.0595
vn 0.0113 0.8344 0.5511
vn 0.1152 0.8702 0.4790
vn 0.1646 0.9853 0.0466
vn -0.2311 0.9464 0.2256
vn 0.0384 0.9843 0.1720
vn -0.0553 0.9981 -0.0271
vn -0.1868 0.9823 -0.0106
vn -0.3520 0.9337 0.0656
vn 0.1125 0.9557 -0.2722
vn 0.1359 0.9907 -0.0028
vn -0.0189 0.9981 -0.0584
vn 0.0129 0.9998 -0.0163
vn -0.0961 0.9886 -0.1155
vn 0.2397 0.9614 -0.1354
vn -0.5193 0.8066 -0.2822
vn 0.0214 0.9970 0.0740
vn 0.2879 0.9539 0.0845
vn 0.5535 0.8281 -0.0894
vn -0.1602 0.9854 -0.0571
vn -0.0061 0.9779 -0.2090
vn 0.1001 0.9943 -0.0355
vn 0.3925 0.8968 -0.2042
vn -0.0796 0.9968 -0.0097
vn -0.0210 0.9997 0.0094
vn -0.0754 0.9961 0.0457
vn -0.0791 0.9956 0.0501
vn 0.0459 0.8056 0.5906
vn -0.1380 0.9857 0.0972
vn -0.0770 0.9934 0.0848
vn 0.1795 0.9835 -0.0227
vn 0.4422 0.6382 -0.6302
vn 0.0721 0.9820 -0.1744
vn 0.0007 1.0000 0.0035
vn 0.0333 0.9994 0.0118
vn -0.0543 0.9968 -0.0579
vn -0.0306 0.9992 -0.0242
vn -0.0797 0.9957 -0.0478
vn 0.3982 0.8007 0.4474
vn -0.0588 0.6999 -0.7118
vn -0.2276 0.9507 0.2107
vn -0.0656 0.9899 0.1257
vn 0.0358 0.9967 0.0726
vn 0.0316 0.9820 0.1860
vn 0.1550 0.9860 -0.0618
vn 0.4363 0.8869 -0.1519
vn -0.3801 0.9127 -0.1501
vn 0.2396 0.9614 -0.1353
vn 0.1903 0.9310 -0.3116
vn -0.4050 0.8897 0.2107
vn -0.0522 0.9956 0.0777
vn -0.1676 0.9828 0.0774
vn 0.0601 0.9974 -0.0391
vn 0.0365 0.9956 -0.0866
vn -0.0545 0.9955 -0.0778
vn 0.1177 0.9924 -0.0358
vn 0.0574 0.9967 0.0581
vn 0.0376 0.9981 -0.0498
vn 0.0375 0.9979 -0.0529
vn 0.3512 0.8928 -0.2821
vn -0.1105 0.9916 -0.0675
vn -0.0713 0.9487 0.3082
vn -0.9679 0.1582 -0.1954
vn 0.1363 -0.1513 -0.9790
vn -0.2320 -0.1437 -0.9621
vn -0.9217 -0.2867 0.2612
vn 0.9790 -0.0138 0.2036
vn 0.8771 0.1965 -0.4382
vn 0.2108 0.1177 -0.9704
vn 0.0462 -0.1673 -0.9848
vn -0.9830 -0.1657 0.0793
vn 0.9988 0.0052 -0.0492
vn -0.1552 0.0948 0.9833
vn -0.9944 0.0701 0.0790
vn -0.2206 0.0715 0.9727
vn 0.2373 -0.0911 0.9672
vn 0.2239 0.1132 0.9680
vn 0.9825 0.0758 0.1704
vn 0.0045 0.0926 0.9957
vn -0.9909 0.1305 0.0326
vn 0.1775 -0.1112 -0.9778
vn 0.9688 -0.1472 -0.1993
vn 0.9534 -0.0503 0.2975
vn 0.3586 -0.0473 0.9323
vn -0.9023 0.0341 0.4298
vn -0.1140 -0.0699 -0.9910
vn -0.9849 0.1514 -0.0844
vn -0.9650 -0.0000 -0.2624
vn 0.9650 -0.0000 -0.2622
vn -0.1081 0.9908 -0.0810
vn 0.8089 0.1349 0.5722
vn -0.7699 -0.0323 0.6374
vn 0.3454 -0.0389 -0.9376
vn 0.3152 0.9410 -0.1233
vn -0.9244 0.2748 -0.2645
vn 0.4502 -0.2619 -0.8537
vn 0.0350 0.1179 0.9924
vn 0.5409 0.7748 0.3271
vn -0.6928 0.6310 -0.3491
vn 0.6417 -0.1292 -0.7560
vn -0.2786 -0.2023 0.9389
vn 0.1547 0.8502 -0.5032
vn -0.9770 0.0557 -0.2060
vn 0.3985 -0.5200 -0.7556
vn 0.1142 0.4906 0.8639
vn 0.1909 0.8691 0.4563
vn 0.3171 0.3854 -0.8666
vn 0.8130 -0.4012 0.4220
vn -0.9795 0.1989 0.0327
vn 0.0094 0.9405 0.3396
vn 0.9923 0.0337 -0.1191
vn -0.1412 -0.3343 0.9318
vn -0.3794 0.3169 -0.8693
vn -0.5869 0.6347 -0.5027
vn 0.7706 0.6284 -0.1063
vn -0.4420 0.2692 0.8557
vn 0.0375 -0.5987 -0.8001
vn -0.0792 0.8002 -0.5945
vn -0.0329 0.5941 0.8037
vn -0.9528 -0.2362 -0.1910
vn 0.9702 -0.0760 -0.2302
vn 0.7754 0.6304 0.0362
vn -0.5826 0.6925 0.4254
vn -0.0823 0.1566 -0.9842
vn 0.3881 -0.5198 0.7610
vn 0.0489 0.4781 0.8769
vn -0.7691 0.5782 -0.2724
vn 0.8168 0.4861 -0.3106
vn -0.4133 -0.7894 0.4540
vn -0.9876 0.0376 0.1521
vn -0.0797 -0.9558 -0.2831
vn -0.1091 0.5322 -0.8395
vn 0.1509 -0.0308 0.9881
vn -0.4807 0.8378 0.2589
vn 0.3199 -0.1070 0.9414
vn -0.8719 -0.4883 -0.0379
vn 0.7042 0.5442 -0.4561
vn -0.1681 0.9468 -0.2743
vn 0.1462 0.2989 0.9430
vn -0.9791 -0.1928 -0.0650
vn 0.9023 0.0355 -0.4296
vn 0.0967 0.9916 0.0853
vn -0.9058 0.0524 0.4205
vn -0.1605 0.1006 -0.9819
vn 0.6357 -0.1278 0.7612
vn 0.4419 0.7643 -0.4696
vn 0.0297 0.5105 0.8593
vn -0.8729 0.2460 -0.4213
vn 0.8574 -0.5139 -0.0295
vn -0.3373 0.7572 0.5593
vn 0.8111 -0.0669 0.5811
vn -0.6734 -0.6095 0.4184
vn 0.2479 0.6446 -0.7232
vn -0.2340 0.9652 -0.1170
vn 0.7358 0.2539 0.6278
vn -0.8064 -0.1251 0.5780
vn 0.4205 -0.0085 -0.9073
vn -0.0553 0.9758 -0.2115
vn 0.9518 -0.0126 -0.3064
vn 0.0415 0.2146 0.9758
vn -0.5409 -0.2077 -0.8150
vn -0.6263 0.7764 0.0705
vn -0.5076 -0.4743 0.7193
vn -0.4377 -0.2764 -0.8556
vn 0.7038 0.5254 0.4781
vn -0.3845 0.7285 -0.5669
vn 0.7879 -0.0611 -0.6128
vn 0.2578 0.6744 0.6919
vn -0.6711 -0.6423 -0.3703
vt 0.833650 0.919988
vt 0.513082 0.848111
vt 0.091095 0.716872
vt 0.833650 0.878882
vt 0.292592 0.850853
vt 0.091095 0.675208
vt 0.844970 0.878763
vt 0.303935 0.850864
vt 0.844970 0.919869
vt 0.501778 0.848208
vt 0.292400 0.817104
vt 0.055004 0.654357
vt 0.303742 0.817115
vt 0.292592 0.779044
vt 0.894118 0.872392
vt 0.018910 0.675171
vt 0.303935 0.779055
vt 0.882790 0.872477
vt 0.894118 0.913596
vt 0.513081 0.776297
vt 0.018910 0.716833
vt 0.882790 0.913681
vt 0.501778 0.776394
vt 0.511345 0.810072
vt 0.055002 0.737684
vt 0.500042 0.810169
vt 0.894110 0.793231
vt 0.453970 0.847355
vt 0.440909 0.675949
vt 0.894110 0.834572
vt 0.641731 0.850265
vt 0.440909 0.717619
vt 0.882790 0.834481
vt 0.653073 0.850245
vt 0.882790 0.793140
vt 0.442668 0.847173
vt 0.641536 0.810858
vt 0.476994 0.738477
vt 0.652878 0.810838
vt 0.641731 0.779392
vt 0.550901 0.895102
vt 0.513082 0.717663
vt 0.653073 0.779372
vt 0.562230 0.895183
vt 0.550901 0.853848
vt 0.453970 0.776479
vt 0.513082 0.675992
vt 0.562230 0.853929
vt 0.442668 0.776297
vt 0.452211 0.815870
vt 0.476994 0.655136
vt 0.440909 0.815688
vt 0.390903 0.886207
vt 0.081669 0.847569
vt 0.231744 0.720408
vt 0.390903 0.844529
vt 0.231936 0.851048
vt 0.267838 0.741224
vt 0.402224 0.844536
vt 0.243278 0.851040
vt 0.402224 0.886215
vt 0.070366 0.847499
vt 0.231744 0.813500
vt 0.303935 0.720380
vt 0.243086 0.813492
vt 0.231936 0.779052
vt 0.341754 0.886195
vt 0.303934 0.678720
vt 0.243278 0.779044
vt 0.353083 0.886210
vt 0.341754 0.844528
vt 0.081669 0.775574
vt 0.267840 0.657904
vt 0.353083 0.844543
vt 0.070366 0.775504
vt 0.079937 0.813118
vt 0.231745 0.678746
vt 0.068634 0.813048
vt 0.277490 0.620084
vt 0.643089 0.457215
vt 0.647757 0.138614
vt 0.231744 0.574335
vt 0.641536 0.519655
vt 0.231745 0.509635
vt 0.643089 0.575785
vt 0.707972 0.738866
vt 0.277496 0.463885
vt 0.707740 0.675467
vt 0.342194 0.463885
vt 0.707972 0.621504
vt 0.653091 0.246216
vt 0.387942 0.509635
vt 0.651857 0.308914
vt 0.387939 0.574334
vt 0.653091 0.364538
vt 0.647757 0.021247
vt 0.342189 0.620084
vt 0.645666 0.084626
vt 0.659402 0.454506
vt 0.663972 0.142727
vt 0.657764 0.520380
vt 0.659402 0.579596
vt 0.691390 0.741493
vt 0.691146 0.674611
vt 0.691390 0.617681
vt 0.669458 0.243551
vt 0.668156 0.309696
vt 0.669458 0.368378
vt 0.663972 0.018910
vt 0.661767 0.085773
vt 0.676128 0.457480
vt 0.680742 0.139146
vt 0.674574 0.519920
vt 0.676128 0.576050
vt 0.674870 0.738925
vt 0.674638 0.675526
vt 0.674870 0.621563
vt 0.686153 0.246452
vt 0.684919 0.309150
vt 0.686153 0.364773
vt 0.680742 0.021779
vt 0.678652 0.085158
vt 0.692441 0.454771
vt 0.696958 0.143259
vt 0.690802 0.520645
vt 0.692441 0.579861
vt 0.658288 0.741552
vt 0.658043 0.674670
vt 0.658288 0.617740
vt 0.702521 0.243787
vt 0.701219 0.309932
vt 0.702521 0.368614
vt 0.696958 0.019442
vt 0.694753 0.086305
vt 0.709166 0.457745
vt 0.713728 0.139678
vt 0.707613 0.520186
vt 0.709166 0.576316
vt 0.641767 0.738984
vt 0.641536 0.675585
vt 0.641767 0.621622
vt 0.719216 0.246688
vt 0.717982 0.309386
vt 0.719216 0.365010
vt 0.713728 0.022311
vt 0.711638 0.085689
vt 0.155889 0.880359
vt 0.784590 0.235700
vt 0.129299 0.657441
vt 0.126145 0.880359
vt 0.137152 0.616537
vt 0.151886 0.681195
vt 0.154237 0.844402
vt 0.177841 0.575870
vt 0.761141 0.264098
vt 0.783559 0.860421
vt 0.137152 0.457602
vt 0.751149 0.476536
vt 0.760875 0.831277
vt 0.784590 0.365643
vt 0.775023 0.447911
vt 0.783559 0.812707
vt 0.177841 0.498318
vt 0.761141 0.340875
vt 0.844970 0.840943
vt 0.059601 0.616491
vt 0.151659 0.757348
vt 0.821378 0.813208
vt 0.779286 0.168152
vt 0.128915 0.786325
vt 0.844970 0.793140
vt 0.018910 0.575775
vt 0.755675 0.143096
vt 0.723055 0.812707
vt 0.018910 0.498223
vt 0.755675 0.066157
vt 0.723055 0.848929
vt 0.775023 0.576801
vt 0.779286 0.037936
vt 0.693360 0.848024
vt 0.059601 0.457556
vt 0.751149 0.552693
vt 0.782957 0.233460
vt 0.130788 0.654357
vt 0.603716 0.495207
vt 0.757036 0.262448
vt 0.759065 0.216351
vt 0.563014 0.454506
vt 0.155889 0.678955
vt 0.563014 0.617314
vt 0.746986 0.474956
vt 0.750422 0.427278
vt 0.603716 0.576610
vt 0.757036 0.343017
vt 0.782957 0.368614
vt 0.773302 0.445802
vt 0.481611 0.454509
vt 0.155651 0.758869
vt 0.155889 0.806582
vt 0.440909 0.495213
vt 0.751548 0.145206
vt 0.777620 0.171087
vt 0.130388 0.788409
vt 0.440909 0.576617
vt 0.751548 0.064468
vt 0.754101 0.018910
vt 0.481611 0.617317
vt 0.746986 0.554873
vt 0.773302 0.579861
vt 0.777620 0.035648
vt 0.552161 0.165175
vt 0.589732 0.127573
vt 0.607847 0.134770
vt 0.889900 0.686347
vt 0.559897 0.182759
vt 0.891529 0.620843
vt 0.889008 0.145030
vt 0.589711 0.074393
vt 0.607820 0.066900
vt 0.891529 0.745230
vt 0.019153 0.902800
vt 0.552112 0.036790
vt 0.559832 0.018912
vt 0.018910 0.836294
vt 0.498957 0.036791
vt 0.491996 0.018910
vt 0.019153 0.779685
vt 0.898229 0.219438
vt 0.461386 0.074394
vt 0.444045 0.066901
vt 0.896934 0.285212
vt 0.461407 0.127572
vt 0.444072 0.134769
vt 0.898229 0.343564
vt 0.889008 0.021909
vt 0.499007 0.165175
vt 0.492059 0.182759
vt 0.886815 0.088395
vt 0.491616 0.416686
vt 0.879634 0.617681
vt 0.877055 0.149000
vt 0.440909 0.365977
vt 0.877913 0.686893
vt 0.440909 0.294263
vt 0.879635 0.749107
vt 0.030814 0.905587
vt 0.491617 0.243551
vt 0.030557 0.835316
vt 0.563329 0.243551
vt 0.030814 0.775504
vt 0.886372 0.216351
vt 0.614037 0.294260
vt 0.885004 0.285845
vt 0.614037 0.365974
vt 0.886372 0.347501
vt 0.877055 0.018910
vt 0.563328 0.416684
vt 0.874738 0.089159
vt 0.238081 0.349440
vt 0.868954 0.467771
vt 0.871185 0.504154
vt 0.231744 0.313555
vt 0.261915 0.329025
vt 0.268191 0.368946
vt 0.256143 0.394545
vt 0.872866 0.421135
vt 0.820466 0.165712
vt 0.267345 0.266856
vt 0.872011 0.547047
vt 0.829866 0.217102
vt 0.278174 0.286663
vt 0.822410 0.300278
vt 0.348350 0.247208
vt 0.381233 0.254930
vt 0.831939 0.331398
vt 0.768254 0.617681
vt 0.377648 0.282552
vt 0.312631 0.243551
vt 0.829038 0.265590
vt 0.328492 0.261485
vt 0.305554 0.279912
vt 0.767130 0.682901
vt 0.764996 0.706582
vt 0.745791 0.684227
vt 0.396282 0.320102
vt 0.746289 0.714002
vt 0.396001 0.350112
vt 0.403089 0.285533
vt 0.765133 0.650609
vt 0.403089 0.383269
vt 0.765898 0.747692
vt 0.823184 0.018910
vt 0.373593 0.379994
vt 0.342612 0.426065
vt 0.819003 0.085479
vt 0.817106 0.121240
vt 0.305264 0.419735
vt 0.323595 0.399348
vt 0.348278 0.388911
vt 0.382378 0.409993
vt 0.819371 0.043603
vt 0.289262 0.387601
vt 0.887280 0.500875
vt 0.018910 0.337733
vt 0.887637 0.468044
vt 0.025994 0.305680
vt 0.889113 0.425714
vt 0.836918 0.161064
vt 0.051117 0.267606
vt 0.889113 0.543496
vt 0.846961 0.216351
vt 0.045869 0.386694
vt 0.847184 0.263538
vt 0.086922 0.415615
vt 0.847184 0.299141
vt 0.122681 0.419736
vt 0.847060 0.327559
vt 0.783558 0.620821
vt 0.154756 0.409961
vt 0.782064 0.684278
vt 0.193115 0.353445
vt 0.779862 0.711424
vt 0.193060 0.325705
vt 0.782492 0.651732
vt 0.180150 0.383905
vt 0.782990 0.747850
vt 0.193115 0.288367
vt 0.835491 0.086030
vt 0.135092 0.244217
vt 0.835235 0.120081
vt 0.099806 0.244303
vt 0.783558 0.774887
vt 0.836918 0.043158
vt 0.176073 0.256959
vt 0.349100 0.277411
vt 0.364315 0.314339
vt 0.373757 0.345658
vt 0.329871 0.366062
vt 0.294266 0.338585
vt 0.326620 0.331944
vt 0.148183 0.019156
vt 0.824699 0.536623
vt 0.169565 0.020853
vt 0.813452 0.557973
vt 0.140672 0.048274
vt 0.193924 0.050358
vt 0.555640 0.682011
vt 0.193415 0.068435
vt 0.563397 0.700100
vt 0.173499 0.050328
vt 0.142747 0.094730
vt 0.134755 0.141819
vt 0.164947 0.125701
vt 0.152990 0.203043
vt 0.832774 0.725931
vt 0.187457 0.120886
vt 0.557294 0.752844
vt 0.193924 0.140355
vt 0.558221 0.771659
vt 0.080884 0.030715
vt 0.817343 0.471805
vt 0.102774 0.022397
vt 0.823723 0.492216
vt 0.070554 0.055053
vt 0.083850 0.171250
vt 0.063605 0.174536
vt 0.064289 0.154049
vt 0.656439 0.181079
vt 0.102877 0.203400
vt 0.830394 0.676295
vt 0.083174 0.200879
vt 0.840093 0.656869
vt 0.094707 0.189827
vt 0.185758 0.184122
vt 0.829752 0.755321
vt 0.567225 0.816028
vt 0.081831 0.063734
vt 0.061109 0.085629
vt 0.060369 0.071858
vt 0.187013 0.103966
vt 0.550901 0.736000
vt 0.131021 0.018910
vt 0.812843 0.519574
vt 0.108214 0.056537
vt 0.122374 0.163075
vt 0.118405 0.177411
vt 0.126139 0.203726
vt 0.829382 0.699312
vt 0.027668 0.043348
vt 0.349447 0.657904
vt 0.826645 0.421134
vt 0.065121 0.038860
vt 0.821728 0.457465
vt 0.021114 0.083990
vt 0.363568 0.698607
vt 0.019479 0.100907
vt 0.351576 0.715960
vt 0.045682 0.103556
vt 0.032400 0.153552
vt 0.363568 0.766684
vt 0.050238 0.142391
vt 0.027312 0.133202
vt 0.354039 0.747229
vt 0.044771 0.194929
vt 0.359821 0.806709
vt 0.834005 0.617681
vt 0.083287 0.130548
vt 0.018910 0.117893
vt 0.359054 0.732704
vt 0.083763 0.089849
vt 0.068040 0.101315
vt 0.108364 0.089860
vt 0.656439 0.201047
vt 0.104331 0.183993
vt 0.113719 0.206397
vt 0.645667 0.181648
vt 0.840093 0.687932
vt 0.191180 0.023075
vt 0.566031 0.655136
vt 0.820102 0.579702
vt 0.358721 0.205731
vt 0.831134 0.536643
vt 0.351920 0.177509
vt 0.380411 0.204162
vt 0.818145 0.558102
vt 0.406057 0.176239
vt 0.560382 0.681698
vt 0.384562 0.175941
vt 0.406225 0.158490
vt 0.571281 0.699224
vt 0.354805 0.131232
vt 0.347355 0.083795
vt 0.367627 0.024551
vt 0.828006 0.726956
vt 0.561562 0.759524
vt 0.379202 0.100219
vt 0.401205 0.106273
vt 0.562458 0.751808
vt 0.406225 0.086005
vt 0.562718 0.771636
vt 0.292286 0.194450
vt 0.821554 0.472215
vt 0.281686 0.169415
vt 0.315017 0.205457
vt 0.827390 0.493318
vt 0.296826 0.053441
vt 0.277208 0.070632
vt 0.277074 0.050693
vt 0.315898 0.021005
vt 0.821378 0.675987
vt 0.306586 0.035255
vt 0.296345 0.024704
vt 0.834591 0.656519
vt 0.397965 0.042717
vt 0.825711 0.754414
vt 0.571281 0.815303
vt 0.293396 0.160936
vt 0.270630 0.142743
vt 0.269473 0.156733
vt 0.399418 0.122445
vt 0.555736 0.735916
vt 0.319470 0.168834
vt 0.341475 0.205660
vt 0.819051 0.519342
vt 0.335683 0.062521
vt 0.331706 0.048456
vt 0.340397 0.020175
vt 0.824553 0.700476
vt 0.238940 0.180202
vt 0.344973 0.658381
vt 0.831134 0.421522
vt 0.234094 0.140564
vt 0.353809 0.698216
vt 0.277016 0.185763
vt 0.825640 0.458366
vt 0.231744 0.123564
vt 0.341754 0.715468
vt 0.256972 0.122015
vt 0.246027 0.070553
vt 0.358648 0.766824
vt 0.265048 0.082101
vt 0.237362 0.090481
vt 0.343730 0.747894
vt 0.258220 0.029803
vt 0.353366 0.806359
vt 0.827575 0.617814
vt 0.295968 0.093973
vt 0.232455 0.106273
vt 0.349412 0.732556
vt 0.294885 0.136275
vt 0.278456 0.125251
vt 0.319691 0.135306
vt 0.317376 0.041921
vt 0.327221 0.018910
vt 0.832233 0.687842
vt 0.402053 0.202735
vt 0.570718 0.655425
vt 0.824789 0.579861
vt 0.828240 0.379941
vt 0.293676 0.934111
vt 0.602805 0.853850
vt 0.822410 0.379941
vt 0.293676 0.939882
vt 0.453970 0.895265
vt 0.825324 0.369218
vt 0.602805 0.864933
vt 0.453970 0.885287
vt 0.296429 0.934131
vt 0.600049 0.853848
vt 0.296429 0.939901
vt 0.451226 0.895153
vt 0.600049 0.864931
vt 0.451226 0.885175
vt 0.697994 0.415390
vt 0.154356 0.967541
vt 0.070736 0.933551
vt 0.693655 0.414203
vt 0.154356 0.963439
vt 0.928954 0.117789
vt 0.697994 0.406903
vt 0.070736 0.939983
vt 0.928954 0.109433
vt 0.152284 0.967735
vt 0.068634 0.933763
vt 0.152283 0.963633
vt 0.926828 0.117785
vt 0.068634 0.940195
vt 0.926827 0.109432
vt 0.504100 0.894180
vt 0.968399 0.064999
vt 0.926935 0.520605
vt 0.500042 0.892824
vt 0.968396 0.069366
vt 0.928846 0.163932
vt 0.504100 0.886028
vt 0.926933 0.512904
vt 0.928846 0.155659
vt 0.970382 0.064981
vt 0.928987 0.520692
vt 0.970382 0.069350
vt 0.926828 0.163881
vt 0.928987 0.512993
vt 0.926827 0.155609
vt 0.201109 0.939877
vt 0.241617 0.980795
vt 0.966774 0.115486
vt 0.197856 0.938835
vt 0.241617 0.977535
vt 0.933519 0.913681
vt 0.201109 0.934724
vt 0.966774 0.109681
vt 0.933519 0.907170
vt 0.240341 0.981090
vt 0.968294 0.115237
vt 0.240344 0.977833
vt 0.931940 0.913675
vt 0.968294 0.109432
vt 0.931938 0.907163
vt 0.502850 0.938484
vt 0.502850 0.979721
vt 0.966697 0.427337
vt 0.500042 0.937750
vt 0.502850 0.976304
vt 0.966667 0.157357
vt 0.502850 0.932000
vt 0.966697 0.421134
vt 0.966666 0.163793
vt 0.501235 0.979720
vt 0.968108 0.427578
vt 0.501235 0.976304
vt 0.967997 0.157497
vt 0.968108 0.421376
vt 0.967997 0.163932
vt 0.930577 0.071612
vt 0.977290 0.356767
vt 0.453043 0.933233
vt 0.926827 0.071612
vt 0.977290 0.352841
vt 0.937840 0.360346
vt 0.927825 0.064981
vt 0.453043 0.940215
vt 0.937840 0.352895
vt 0.975659 0.356822
vt 0.451226 0.933085
vt 0.975662 0.352895
vt 0.936050 0.360290
vt 0.451228 0.940066
vt 0.936049 0.352841
vt 0.152283 0.919055
vt 0.977544 0.311026
vt 0.720793 0.932612
vt 0.155889 0.918179
vt 0.977544 0.307309
vt 0.401388 0.703618
vt 0.155889 0.925619
vt 0.720793 0.940110
vt 0.401388 0.710249
vt 0.975686 0.311025
vt 0.719013 0.932616
vt 0.975683 0.307307
vt 0.403055 0.704003
vt 0.719011 0.940114
vt 0.403055 0.710634
vt 0.929349 0.710293
vt 0.971746 0.784733
vt 0.926933 0.566557
vt 0.933369 0.709059
vt 0.971746 0.788925
vt 0.937863 0.314690
vt 0.933369 0.714583
vt 0.926933 0.558512
vt 0.937863 0.307307
vt 0.973116 0.784563
vt 0.928721 0.566567
vt 0.973115 0.788756
vt 0.936049 0.315021
vt 0.928721 0.558522
vt 0.936049 0.307638
vt 0.645749 0.938922
vt 0.643821 0.980350
vt 0.762489 0.943738
vt 0.642533 0.937614
vt 0.643821 0.976913
vt 0.966541 0.558512
vt 0.645749 0.933394
vt 0.762489 0.950313
vt 0.966544 0.564800
vt 0.642533 0.980177
vt 0.760875 0.943692
vt 0.642533 0.976742
vt 0.968129 0.558654
vt 0.760876 0.950264
vt 0.968129 0.564943
vt 0.111275 0.920232
vt 0.972659 0.713023
vt 0.931930 0.788925
vt 0.114464 0.918179
vt 0.972659 0.709059
vt 0.833650 0.957807
vt 0.114464 0.925509
vt 0.931932 0.781247
vt 0.833652 0.963682
vt 0.971189 0.713486
vt 0.933926 0.788910
vt 0.971189 0.709522
vt 0.835626 0.958005
vt 0.933926 0.781231
vt 0.835626 0.963881
vt 0.764465 0.905872
vt 0.973574 0.830286
vt 0.922532 0.957640
vt 0.760875 0.905428
vt 0.973574 0.826744
vt 0.401388 0.658290
vt 0.764465 0.898240
vt 0.922532 0.951838
vt 0.401388 0.665798
vt 0.971641 0.830558
vt 0.924468 0.957303
vt 0.971641 0.827016
vt 0.403072 0.657904
vt 0.924469 0.951501
vt 0.403072 0.665414
vt 0.243278 0.939715
vt 0.199319 0.980680
vt 0.966949 0.027162
vt 0.240341 0.939715
vt 0.199319 0.977697
vt 0.966806 0.514797
vt 0.242044 0.934072
vt 0.966949 0.022254
vt 0.966806 0.520692
vt 0.197856 0.980688
vt 0.968327 0.026889
vt 0.197856 0.977703
vt 0.968207 0.514784
vt 0.968327 0.021981
vt 0.968207 0.520679
vt 0.197856 0.889872
vt 0.969147 0.621503
vt 0.931135 0.663266
vt 0.201268 0.888868
vt 0.969145 0.625446
vt 0.401388 0.793382
vt 0.201267 0.896904
vt 0.931135 0.670992
vt 0.401388 0.799350
vt 0.971048 0.621288
vt 0.929351 0.663515
vt 0.971048 0.625230
vt 0.402887 0.794267
vt 0.929349 0.671239
vt 0.402887 0.800234
vt 0.243278 0.896253
vt 0.968955 0.663266
vt 0.928877 0.421134
vt 0.239087 0.896252
vt 0.968955 0.667249
vt 0.562230 0.940211
vt 0.240889 0.888868
vt 0.928877 0.429160
vt 0.562230 0.933368
vt 0.970851 0.663472
vt 0.926933 0.421166
vt 0.970851 0.667453
vt 0.560357 0.939848
vt 0.926933 0.429192
vt 0.560358 0.933003
vt 0.719011 0.887865
vt 0.975770 0.265898
vt 0.929349 0.625361
vt 0.723055 0.886748
vt 0.975770 0.269342
vt 0.030814 0.949712
vt 0.723055 0.894792
vt 0.929349 0.617681
vt 0.030814 0.943455
vt 0.977750 0.266043
vt 0.931325 0.625446
vt 0.977750 0.269487
vt 0.028820 0.949667
vt 0.931325 0.617766
vt 0.028819 0.943407
vt 0.345647 0.930462
vt 0.343398 0.972485
vt 0.926933 0.475085
vt 0.341754 0.930462
vt 0.343398 0.968282
vt 0.936049 0.262091
vt 0.345381 0.924030
vt 0.926933 0.467053
vt 0.936049 0.269487
vt 0.341754 0.972589
vt 0.928812 0.475044
vt 0.341754 0.968386
vt 0.937950 0.261853
vt 0.928812 0.467012
vt 0.937951 0.269249
vt 0.402224 0.930838
vt 0.977537 0.223876
vt 0.601151 0.950243
vt 0.399400 0.930838
vt 0.977537 0.220337
vt 0.401388 0.748800
vt 0.401151 0.924035
vt 0.601151 0.957168
vt 0.401388 0.755563
vt 0.975864 0.224033
vt 0.600049 0.950518
vt 0.975865 0.220495
vt 0.402684 0.748454
vt 0.600051 0.957445
vt 0.402684 0.755219
vt 0.645749 0.895573
vt 0.399400 0.969009
vt 0.966631 0.472944
vt 0.641536 0.895574
vt 0.399400 0.972734
vt 0.938044 0.224033
vt 0.643521 0.888085
vt 0.966632 0.467274
vt 0.938044 0.216369
vt 0.401250 0.968657
vt 0.968594 0.472684
vt 0.401250 0.972382
vt 0.936049 0.224015
vt 0.968594 0.467012
vt 0.936049 0.216351
vt 0.296429 0.896291
vt 0.973257 0.911022
vt 0.931932 0.834473
vt 0.292400 0.896291
vt 0.973257 0.907336
vt 0.882790 0.951734
vt 0.294403 0.888684
vt 0.931930 0.826744
vt 0.882790 0.957757
vt 0.971342 0.910849
vt 0.933821 0.834572
vt 0.971339 0.907162
vt 0.884712 0.951501
vt 0.933821 0.826843
vt 0.884712 0.957522
vt 0.651857 0.408614
vt 0.111275 0.963328
vt 0.929129 0.019224
vt 0.655835 0.406434
vt 0.111278 0.967413
vt 0.601807 0.912214
vt 0.655835 0.415390
vt 0.929129 0.027162
vt 0.601807 0.902753
vt 0.113619 0.963530
vt 0.926827 0.018910
vt 0.113619 0.967616
vt 0.600049 0.912423
vt 0.926829 0.026850
vt 0.600050 0.902963
vt 0.962288 0.951501
vt 0.696142 0.181079
vt 0.700286 0.181577
vt 0.962289 0.956398
vt 0.070884 0.895732
vt 0.697557 0.191879
vt 0.070884 0.886129
vt 0.964564 0.952287
vt 0.694259 0.181082
vt 0.964564 0.957184
vt 0.068634 0.894991
vt 0.695674 0.191879
vt 0.068634 0.885389
s 0
usemtl Material.001
f 1/1/1 2/4/1 3/7/1 4/9/1
f 2/5/2 5/11/2 6/13/2 3/8/2
f 5/11/3 7/14/3 8/17/3 6/13/3
f 7/15/4 9/19/4 10/22/4 8/18/4
f 9/20/5 11/24/5 12/26/5 10/23/5
f 11/24/6 1/2/6 4/10/6 12/26/6
f 2/6/7 1/3/7 11/25/7 9/21/7 7/16/7 5/12/7
f 13/27/8 14/30/8 15/33/8 16/35/8
f 14/31/9 17/37/9 18/39/9 15/34/9
f 17/37/10 19/40/10 20/43/10 18/39/10
f 19/41/11 21/45/11 22/48/11 20/44/11
f 21/46/12 23/50/12 24/52/12 22/49/12
f 23/50/13 13/28/13 16/36/13 24/52/13
f 21/47/7 19/42/7 17/38/7 14/32/7 13/29/7 23/51/7
f 25/53/14 26/56/14 27/59/14 28/61/14
f 26/57/15 29/63/15 30/65/15 27/60/15
f 29/63/16 31/66/16 32/69/16 30/65/16
f 31/67/17 33/71/17 34/74/17 32/70/17
f 33/72/18 35/76/18 36/78/18 34/75/18
f 35/76/19 25/54/19 28/62/19 36/78/19
f 31/68/7 29/64/7 26/58/7 25/55/7 35/77/7 33/73/7
f 37/79/20 38/82/20 39/84/20
f 40/87/20 41/89/20 39/84/20
f 41/89/20 42/92/20 39/84/20
f 42/92/20 43/94/20 39/84/20
f 43/94/20 44/97/20 39/84/20
f 44/97/20 37/79/20 39/84/20
f 45/99/21 46/101/21 38/83/21 37/80/21
f 46/101/22 47/102/22 39/85/22 38/83/22
f 48/104/23 49/105/23 41/90/23 40/88/23
f 47/103/24 48/104/24 40/88/24 39/86/24
f 49/106/25 50/107/25 42/93/25 41/91/25
f 50/107/26 51/108/26 43/95/26 42/93/26
f 51/109/27 52/110/27 44/98/27 43/96/27
f 52/110/28 45/100/28 37/81/28 44/98/28
f 53/111/29 54/113/29 46/101/29 45/99/29
f 54/113/30 55/114/30 47/102/30 46/101/30
f 55/115/31 56/116/31 48/104/31 47/103/31
f 56/116/32 57/117/32 49/105/32 48/104/32
f 57/118/33 58/119/33 50/107/33 49/106/33
f 58/119/34 59/120/34 51/108/34 50/107/34
f 59/121/35 60/122/35 52/110/35 51/109/35
f 60/122/36 53/112/36 45/100/36 52/110/36
f 61/123/21 62/125/21 54/113/21 53/111/21
f 62/125/22 63/126/22 55/114/22 54/113/22
f 64/128/23 65/129/23 57/117/23 56/116/23
f 63/127/24 64/128/24 56/116/24 55/115/24
f 65/130/25 66/131/25 58/119/25 57/118/25
f 66/131/26 67/132/26 59/120/26 58/119/26
f 67/133/27 68/134/27 60/122/27 59/121/27
f 68/134/28 61/124/28 53/112/28 60/122/28
f 69/135/29 70/137/29 62/125/29 61/123/29
f 70/137/30 71/138/30 63/126/30 62/125/30
f 71/139/31 72/140/31 64/128/31 63/127/31
f 72/140/32 73/141/32 65/129/32 64/128/32
f 73/142/33 74/143/33 66/131/33 65/130/33
f 74/143/34 75/144/34 67/132/34 66/131/34
f 75/145/35 76/146/35 68/134/35 67/133/35
f 76/146/36 69/136/36 61/124/36 68/134/36
f 77/147/37 78/150/37 79/153/37
f 80/156/38 81/159/38 82/162/38
f 83/165/39 84/168/39 85/171/39
f 86/174/40 87/177/40 88/180/40
f 78/151/7 83/166/7 79/154/7
f 79/154/7 83/166/7 82/163/7
f 83/166/7 85/172/7 82/163/7
f 85/172/7 86/175/7 82/163/7
f 86/175/7 88/181/7 82/163/7
f 88/181/7 80/157/7 82/163/7
f 89/183/41 90/186/41 91/187/41
f 92/191/42 93/192/42 94/196/42
f 95/198/43 96/199/43 97/203/43
f 98/205/44 99/206/44 100/210/44
f 91/188/20 90/185/20 95/197/20
f 90/185/20 93/193/20 95/197/20
f 93/193/20 92/190/20 95/197/20
f 92/190/20 99/207/20 95/197/20
f 99/207/20 98/204/20 95/197/20
f 98/204/20 96/200/20 95/197/20
f 89/183/45 77/148/45 79/155/45 90/186/45
f 91/189/46 78/152/46 77/149/46 89/184/46
f 93/194/47 82/164/47 81/160/47 94/195/47
f 94/196/48 81/161/48 80/158/48 92/191/48
f 96/201/49 85/173/49 84/169/49 97/202/49
f 97/203/50 84/170/50 83/167/50 95/198/50
f 99/208/51 88/182/51 87/178/51 100/209/51
f 100/210/52 87/179/52 86/176/52 98/205/52
f 90/186/53 79/155/53 82/164/53 93/194/53
f 92/191/54 80/158/54 88/182/54 99/208/54
f 98/205/55 86/176/55 85/173/55 96/201/55
f 95/198/56 83/167/56 78/152/56 91/189/56
f 101/211/57 102/212/57 103/213/57 104/215/57
f 102/212/58 105/218/58 106/219/58 103/213/58
f 105/218/59 107/222/59 108/223/59 106/219/59
f 107/222/60 109/225/60 110/226/60 108/223/60
f 109/225/61 111/229/61 112/230/61 110/226/61
f 111/229/62 113/232/62 114/233/62 112/230/62
f 113/232/63 115/236/63 116/237/63 114/233/63
f 115/236/64 101/211/64 104/215/64 116/237/64
f 102/212/7 101/211/7 113/232/7
f 105/218/7 102/212/7 113/232/7
f 107/222/7 105/218/7 113/232/7
f 109/225/7 107/222/7 113/232/7
f 111/229/7 109/225/7 113/232/7
f 101/211/7 115/236/7 113/232/7
f 117/239/20 118/242/20 119/244/20
f 120/247/20 121/249/20 119/244/20
f 121/249/20 122/252/20 119/244/20
f 122/252/20 123/254/20 119/244/20
f 123/254/20 124/257/20 119/244/20
f 124/257/20 117/239/20 119/244/20
f 104/216/65 103/214/65 118/243/65 117/240/65
f 103/214/66 106/220/66 119/245/66 118/243/66
f 106/221/67 108/224/67 120/248/67 119/246/67
f 108/224/68 110/227/68 121/250/68 120/248/68
f 110/228/69 112/231/69 122/253/69 121/251/69
f 112/231/70 114/234/70 123/255/70 122/253/70
f 114/235/71 116/238/71 124/258/71 123/256/71
f 116/238/72 104/217/72 117/241/72 124/258/72
f 125/259/73 126/262/73 127/263/73
f 125/259/74 127/263/74 128/264/74
f 129/265/75 125/259/75 128/264/75
f 126/262/76 130/268/76 131/271/76
f 132/273/77 133/274/77 134/277/77
f 135/278/78 132/273/78 136/280/78
f 135/278/79 136/280/79 137/281/79
f 130/268/80 135/278/80 137/281/80
f 130/268/81 137/281/81 131/271/81
f 138/282/82 139/283/82 140/284/82
f 140/284/83 139/283/83 141/286/83
f 138/282/84 140/284/84 142/289/84
f 142/288/85 140/285/85 134/277/85
f 133/274/86 142/288/86 134/277/86
f 139/283/87 143/291/87 141/286/87
f 141/287/88 143/290/88 144/293/88
f 145/294/89 146/297/89 147/298/89
f 145/294/90 147/298/90 148/299/90
f 149/300/91 145/294/91 148/299/91
f 143/290/92 149/300/92 144/293/92
f 144/293/93 149/300/93 148/299/93
f 129/265/94 128/264/94 150/302/94
f 146/297/95 129/265/95 150/302/95
f 151/303/96 126/261/96 152/305/96
f 152/305/97 126/261/97 125/260/97
f 153/307/98 152/305/98 129/266/98
f 129/266/99 152/305/99 125/260/99
f 151/303/100 154/310/100 126/261/100
f 126/261/101 154/310/101 130/269/101
f 155/313/102 156/315/102 135/279/102
f 135/279/103 156/315/103 132/272/103
f 154/311/104 155/313/104 130/270/104
f 130/270/105 155/313/105 135/279/105
f 157/317/106 133/275/106 156/315/106
f 156/315/107 133/275/107 132/272/107
f 158/320/108 159/322/108 138/282/108
f 138/282/109 159/322/109 139/283/109
f 157/318/110 160/324/110 133/276/110
f 133/276/111 160/324/111 142/289/111
f 158/320/112 138/282/112 160/324/112
f 160/324/113 138/282/113 142/289/113
f 161/326/114 143/291/114 159/322/114
f 159/322/115 143/291/115 139/283/115
f 162/328/116 163/330/116 145/295/116
f 145/295/117 163/330/117 146/296/117
f 161/326/118 164/332/118 143/291/118
f 143/292/119 164/333/119 149/301/119
f 162/328/120 145/295/120 164/333/120
f 164/333/121 145/295/121 149/301/121
f 153/308/122 129/267/122 163/330/122
f 163/330/123 129/267/123 146/296/123
f 126/262/124 131/271/124 127/263/124
f 131/271/125 137/281/125 127/263/125
f 136/280/126 132/273/126 165/335/126
f 132/273/127 134/277/127 165/335/127
f 165/335/128 134/277/128 166/336/128
f 136/280/129 165/335/129 137/281/129
f 141/287/130 167/337/130 140/285/130
f 140/285/131 167/337/131 166/336/131
f 134/277/132 140/285/132 166/336/132
f 144/293/133 148/299/133 167/337/133
f 141/287/134 144/293/134 167/337/134
f 147/298/135 168/338/135 148/299/135
f 146/297/136 150/302/136 147/298/136
f 147/298/137 150/302/137 168/338/137
f 128/264/138 169/339/138 168/338/138
f 127/263/139 169/339/139 128/264/139
f 137/281/140 169/339/140 127/263/140
f 137/281/141 165/335/141 166/336/141
f 170/340/142 137/281/142 166/336/142
f 170/340/143 169/339/143 137/281/143
f 166/336/144 167/337/144 170/340/144
f 170/340/145 167/337/145 168/338/145
f 148/299/146 168/338/146 167/337/146
f 128/264/147 168/338/147 150/302/147
f 170/340/148 168/338/148 169/339/148
f 151/304/7 152/306/7 154/312/7
f 152/306/7 153/309/7 154/312/7
f 153/309/7 163/331/7 154/312/7
f 163/331/7 162/329/7 154/312/7
f 154/312/7 162/329/7 155/314/7
f 155/314/7 162/329/7 156/316/7
f 156/316/7 162/329/7 157/319/7
f 157/319/7 162/329/7 160/325/7
f 160/325/7 162/329/7 158/321/7
f 162/329/7 164/334/7 158/321/7
f 158/321/149 164/334/149 159/323/149
f 164/334/150 161/327/150 159/323/150
f 171/341/151 172/343/151 173/345/151
f 174/346/152 175/348/152 176/350/152
f 175/348/153 177/351/153 176/350/153
f 178/352/154 179/353/154 180/354/154
f 179/353/155 181/356/155 180/354/155
f 181/356/156 182/358/156 180/354/156
f 183/360/157 184/362/157 185/364/157
f 186/365/158 187/366/158 188/367/158
f 189/369/159 190/371/159 191/373/159
f 191/373/160 190/371/160 186/365/160
f 190/371/161 187/366/161 186/365/161
f 182/358/162 192/374/162 180/354/162
f 184/362/163 193/377/163 185/364/163
f 194/378/164 195/379/164 193/377/164
f 185/364/165 193/377/165 195/379/165
f 196/380/166 181/356/166 179/353/166
f 184/362/167 197/382/167 198/384/167
f 193/377/168 184/362/168 198/384/168
f 199/385/169 180/354/169 200/386/169
f 180/354/170 199/385/170 178/352/170
f 180/354/171 201/387/171 200/386/171
f 202/389/172 203/392/172 204/394/172
f 205/396/173 204/394/173 206/398/173
f 187/366/174 207/399/174 188/367/174
f 207/399/175 208/401/175 188/367/175
f 207/399/176 209/402/176 208/401/176
f 207/399/177 187/366/177 210/404/177
f 190/371/178 210/404/178 187/366/178
f 211/407/179 212/408/179 206/398/179
f 212/408/180 205/396/180 206/398/180
f 193/377/181 213/410/181 194/378/181
f 213/410/182 214/411/182 194/378/182
f 215/412/183 213/410/183 198/384/183
f 213/410/184 193/377/184 198/384/184
f 171/341/185 173/345/185 197/382/185
f 197/382/186 173/345/186 198/384/186
f 198/384/187 173/345/187 215/412/187
f 177/351/188 175/348/188 179/353/188
f 175/348/189 196/380/189 179/353/189
f 177/351/190 179/353/190 178/352/190
f 199/385/191 211/407/191 178/352/191
f 211/407/192 177/351/192 178/352/192
f 216/414/193 211/407/193 200/386/193
f 211/407/194 199/385/194 200/386/194
f 200/386/195 201/387/195 216/414/195
f 201/387/196 217/415/196 216/414/196
f 217/416/197 189/368/197 216/413/197
f 189/369/198 191/373/198 216/414/198
f 186/365/199 216/414/199 191/373/199
f 188/367/200 211/407/200 186/365/200
f 211/407/201 216/414/201 186/365/201
f 208/401/202 211/407/202 188/367/202
f 208/401/203 209/402/203 211/407/203
f 209/402/204 212/408/204 211/407/204
f 204/394/205 203/392/205 185/364/205
f 203/392/206 183/360/206 185/364/206
f 185/364/207 195/379/207 204/394/207
f 195/379/208 194/378/208 204/394/208
f 194/378/209 206/398/209 204/394/209
f 213/410/210 211/407/210 214/411/210
f 211/407/211 206/398/211 214/411/211
f 214/411/212 206/398/212 194/378/212
f 177/351/213 211/407/213 215/412/213
f 211/407/214 213/410/214 215/412/214
f 173/345/215 177/351/215 215/412/215
f 176/350/216 177/351/216 173/345/216
f 218/418/217 174/346/217 176/350/217
f 173/345/218 172/343/218 176/350/218
f 172/343/219 218/418/219 176/350/219
f 219/421/220 220/423/220 221/424/220
f 222/426/221 223/428/221 224/429/221
f 224/429/222 223/428/222 225/431/222
f 226/432/223 227/433/223 228/436/223
f 228/436/224 227/433/224 229/437/224
f 229/437/225 227/433/225 230/439/225
f 231/441/226 232/443/226 233/444/226
f 234/446/227 235/447/227 236/448/227
f 237/449/228 238/451/228 239/452/228
f 238/451/229 234/446/229 239/452/229
f 239/452/230 234/446/230 236/448/230
f 230/439/231 227/433/231 240/454/231
f 233/444/232 232/443/232 241/457/232
f 242/458/233 241/457/233 243/459/233
f 232/443/234 243/459/234 241/457/234
f 244/460/235 228/436/235 229/437/235
f 233/444/236 245/462/236 246/463/236
f 241/457/237 245/462/237 233/444/237
f 247/465/238 248/466/238 227/433/238
f 227/433/239 226/432/239 247/465/239
f 227/433/240 248/466/240 249/467/240
f 250/469/241 251/472/241 252/474/241
f 253/476/242 254/478/242 251/472/242
f 236/448/243 235/447/243 255/479/243
f 255/479/244 235/447/244 256/481/244
f 255/479/245 256/481/245 257/482/245
f 255/479/246 258/484/246 236/448/246
f 239/452/247 236/448/247 258/484/247
f 259/487/248 254/478/248 260/488/248
f 260/488/249 254/478/249 253/476/249
f 241/457/250 242/458/250 261/490/250
f 261/490/251 242/458/251 262/491/251
f 263/492/252 245/462/252 261/490/252
f 261/490/253 245/462/253 241/457/253
f 219/421/254 246/463/254 220/423/254
f 246/463/255 245/462/255 220/423/255
f 245/462/256 263/492/256 220/423/256
f 225/431/257 228/436/257 224/429/257
f 224/430/258 228/435/258 244/461/258
f 225/431/259 226/432/259 228/436/259
f 247/465/260 226/432/260 259/487/260
f 259/487/261 226/432/261 225/431/261
f 264/493/262 248/466/262 259/487/262
f 259/487/263 248/466/263 247/465/263
f 248/466/264 264/493/264 249/467/264
f 249/467/265 264/493/265 265/494/265
f 265/494/266 264/493/266 237/449/266
f 237/449/267 264/493/267 238/451/267
f 234/446/268 238/451/268 264/493/268
f 235/447/269 234/446/269 259/487/269
f 259/487/270 234/446/270 264/493/270
f 256/481/271 235/447/271 259/487/271
f 256/481/272 259/487/272 257/482/272
f 257/482/273 259/487/273 260/488/273
f 251/472/274 232/443/274 252/474/274
f 252/474/275 232/443/275 231/441/275
f 232/443/276 251/472/276 243/459/276
f 243/459/277 251/472/277 242/458/277
f 242/458/278 251/472/278 254/478/278
f 261/490/279 262/491/279 259/487/279
f 259/487/280 262/491/280 254/478/280
f 262/491/281 242/458/281 254/478/281
f 225/431/282 263/492/282 259/487/282
f 259/487/283 263/492/283 261/490/283
f 220/423/284 263/492/284 225/431/284
f 223/428/285 220/423/285 225/431/285
f 266/496/286 223/428/286 222/426/286
f 220/423/287 223/428/287 221/424/287
f 221/424/288 223/428/288 266/496/288
f 221/425/289 172/344/289 171/342/289 219/422/289
f 224/430/290 175/349/290 174/347/290 222/427/290
f 230/440/291 182/359/291 181/357/291 229/438/291
f 233/445/292 184/363/292 183/361/292 231/442/292
f 239/453/293 190/372/293 189/370/293 237/450/293
f 227/434/294 180/355/294 192/375/294 240/455/294
f 240/456/295 192/376/295 182/359/295 230/440/295
f 229/438/296 181/357/296 196/381/296 244/461/296
f 246/464/297 197/383/297 184/363/297 233/445/297
f 249/468/298 201/388/298 180/355/298 227/434/298
f 250/470/299 202/390/299 204/395/299 251/473/299
f 252/475/300 203/393/300 202/391/300 250/471/300
f 251/473/301 204/395/301 205/397/301 253/477/301
f 257/483/302 209/403/302 207/400/302 255/480/302
f 255/480/303 207/400/303 210/405/303 258/485/303
f 258/486/304 210/406/304 190/372/304 239/453/304
f 253/477/305 205/397/305 212/409/305 260/489/305
f 219/422/306 171/342/306 197/383/306 246/464/306
f 244/461/307 196/381/307 175/349/307 224/430/307
f 265/495/308 217/417/308 201/388/308 249/468/308
f 237/450/309 189/370/309 217/417/309 265/495/309
f 260/489/310 212/409/310 209/403/310 257/483/310
f 231/442/311 183/361/311 203/393/311 252/475/311
f 222/427/312 174/347/312 218/419/312 266/497/312
f 266/498/313 218/420/313 172/344/313 221/425/313
f 267/499/20 268/502/20 269/505/20
f 268/503/11 267/500/11 270/508/11 271/510/11
f 267/501/314 269/506/314 272/512/314 270/509/314
f 269/507/315 268/504/315 271/511/315 272/513/315
f 273/514/316 274/517/316 275/520/316
f 274/518/317 273/515/317 276/523/317 277/525/317
f 273/516/318 275/521/318 278/527/318 276/524/318
f 275/522/319 274/519/319 277/526/319 278/528/319
f 279/529/320 280/532/320 281/535/320
f 280/533/321 279/530/321 282/538/321 283/540/321
f 279/531/322 281/536/322 284/542/322 282/539/322
f 281/537/323 280/534/323 283/541/323 284/543/323
f 285/544/324 286/547/324 287/550/324
f 286/548/325 285/545/325 288/553/325 289/555/325
f 285/546/326 287/551/326 290/557/326 288/554/326
f 287/552/327 286/549/327 289/556/327 290/558/327
f 291/559/328 292/562/328 293/565/328
f 292/563/329 291/560/329 294/568/329 295/570/329
f 291/561/330 293/566/330 296/572/330 294/569/330
f 293/567/331 292/564/331 295/571/331 296/573/331
f 297/574/332 298/577/332 299/580/332
f 298/578/333 297/575/333 300/583/333 301/585/333
f 297/576/334 299/581/334 302/587/334 300/584/334
f 299/582/335 298/579/335 301/586/335 302/588/335
f 303/589/336 304/592/336 305/595/336
f 304/593/337 303/590/337 306/598/337 307/600/337
f 303/591/338 305/596/338 308/602/338 306/599/338
f 305/597/339 304/594/339 307/601/339 308/603/339
f 309/604/340 310/607/340 311/610/340
f 310/608/341 309/605/341 312/613/341 313/615/341
f 309/606/342 311/611/342 314/617/342 312/614/342
f 311/612/343 310/609/343 313/616/343 314/618/343
f 315/619/344 316/622/344 317/625/344
f 316/623/345 315/620/345 318/628/345 319/630/345
f 315/621/346 317/626/346 320/632/346 318/629/346
f 317/627/347 316/624/347 319/631/347 320/633/347
f 321/634/348 322/637/348 323/640/348
f 322/638/349 321/635/349 324/643/349 325/645/349
f 321/636/350 323/641/350 326/647/350 324/644/350
f 323/642/351 322/639/351 325/646/351 326/648/351
f 327/649/352 328/652/352 329/655/352
f 328/653/353 327/650/353 330/658/353 331/660/353
f 327/651/354 329/656/354 332/662/354 330/659/354
f 329/657/355 328/654/355 331/661/355 332/663/355
f 333/664/356 334/667/356 335/670/356
f 334/668/357 333/665/357 336/673/357 337/675/357
f 333/666/358 335/671/358 338/677/358 336/674/358
f 335/672/359 334/669/359 337/676/359 338/678/359
f 339/679/360 340/682/360 341/685/360
f 340/683/361 339/680/361 342/688/361 343/690/361
f 339/681/362 341/686/362 344/692/362 342/689/362
f 341/687/363 340/684/363 343/691/363 344/693/363
f 345/694/364 346/697/364 347/700/364
f 346/698/365 345/695/365 348/703/365 349/705/365
f 345/696/366 347/701/366 350/707/366 348/704/366
f 347/702/367 346/699/367 349/706/367 350/708/367
f 351/709/368 352/712/368 353/715/368
f 352/713/369 351/710/369 354/718/369 355/720/369
f 351/711/370 353/716/370 356/722/370 354/719/370
f 353/717/371 352/714/371 355/721/371 356/723/371
f 357/724/372 358/727/372 359/730/372
f 358/728/373 357/725/373 360/733/373 361/735/373
f 357/726/374 359/731/374 362/737/374 360/734/374
f 359/732/375 358/729/375 361/736/375 362/738/375
f 363/739/376 364/742/376 365/745/376
f 364/743/377 363/740/377 366/748/377 367/750/377
f 363/741/378 365/746/378 368/752/378 366/749/378
f 365/747/379 364/744/379 367/751/379 368/753/379
f 369/754/380 370/757/380 371/760/380
f 370/758/381 369/755/381 372/763/381 373/765/381
f 369/756/382 371/761/382 374/767/382 372/764/382
f 371/762/383 370/759/383 373/766/383 374/768/383
f 375/769/384 376/772/384 377/775/384
f 376/773/385 375/770/385 378/778/385 379/780/385
f 375/771/386 377/776/386 380/782/386 378/779/386
f 377/777/387 376/774/387 379/781/387 380/783/387
f 381/784/388 382/787/388 383/790/388
f 382/788/389 381/785/389 384/793/389 385/795/389
f 381/786/390 383/791/390 386/797/390 384/794/390
f 383/792/391 382/789/391 385/796/391 386/798/391
f 387/800/392 388/801/392 389/804/392
f 388/802/393 387/799/393 390/806/393 391/808/393
f 387/800/394 389/804/394 392/810/394 390/807/394
f 389/805/395 388/803/395 391/809/395 392/811/395
