# Blender 4.2.1 LTS
# www.blender.org
mtllib PepelHigienico.mtl
o Círculo
v 0.000000 0.000000 -1.000000
v -0.195090 0.000000 -0.980785
v -0.382683 0.000000 -0.923880
v -0.555570 0.000000 -0.831470
v -0.707107 0.000000 -0.707107
v -0.831470 0.000000 -0.555570
v -0.923880 0.000000 -0.382683
v -0.980785 0.000000 -0.195090
v -1.000000 0.000000 0.000000
v -0.980785 0.000000 0.195090
v -0.923880 0.000000 0.382683
v -0.831470 0.000000 0.555570
v -0.707107 0.000000 0.707107
v -0.555570 0.000000 0.831470
v -0.382683 0.000000 0.923880
v -0.195090 0.000000 0.980785
v 0.000000 0.000000 1.000000
v 0.195090 0.000000 0.980785
v 0.382683 0.000000 0.923880
v 0.555570 0.000000 0.831470
v 0.707107 0.000000 0.707107
v 0.831470 0.000000 0.555570
v 0.923880 0.000000 0.382683
v 0.980785 0.000000 0.195090
v 1.000000 0.000000 0.000000
v 0.980785 0.000000 -0.195090
v 0.923880 0.000000 -0.382683
v 0.831470 0.000000 -0.555570
v 0.707107 0.000000 -0.707107
v 0.555570 0.000000 -0.831470
v 0.382683 0.000000 -0.923880
v 0.195090 0.000000 -0.980785
v 0.000000 2.306935 -1.000000
v -0.195090 2.306935 -0.980785
v -0.382683 2.306935 -0.923880
v -0.555570 2.306935 -0.831470
v -0.707107 2.306935 -0.707107
v -0.831470 2.306935 -0.555570
v -0.923880 2.306935 -0.382683
v -0.980785 2.306935 -0.195090
v -1.000000 2.306935 0.000000
v -0.980785 2.306935 0.195090
v -0.923880 2.306935 0.382683
v -0.831470 2.306935 0.555570
v -0.707107 2.306935 0.707107
v -0.555570 2.306935 0.831470
v -0.382683 2.306935 0.923880
v -0.195090 2.306935 0.980785
v 0.000000 2.306935 1.000000
v 0.195090 2.306935 0.980785
v 0.382683 2.306935 0.923880
v 0.555570 2.306935 0.831470
v 0.707107 2.306935 0.707107
v 0.831470 2.306935 0.555570
v 0.923880 2.306935 0.382683
v 0.980785 2.306935 0.195090
v 1.000000 2.306935 0.000000
v 0.980785 2.306935 -0.195090
v 0.923880 2.306935 -0.382683
v 0.831470 2.306935 -0.555570
v 0.707107 2.306935 -0.707107
v 0.555570 2.306935 -0.831470
v 0.382683 2.306935 -0.923880
v 0.195090 2.306935 -0.980785
v 0.000000 0.000000 -1.000000
v -0.195090 0.000000 -0.980785
v -0.382683 0.000000 -0.923880
v -0.555570 0.000000 -0.831470
v -0.707107 0.000000 -0.707107
v -0.831470 0.000000 -0.555570
v -0.923880 0.000000 -0.382683
v -0.980785 0.000000 -0.195090
v -1.000000 0.000000 0.000000
v -0.980785 0.000000 0.195090
v -0.923880 0.000000 0.382683
v -0.831470 0.000000 0.555570
v -0.707107 0.000000 0.707107
v -0.555570 0.000000 0.831470
v -0.382683 0.000000 0.923880
v -0.195090 0.000000 0.980785
v 0.000000 0.000000 1.000000
v 0.195090 0.000000 0.980785
v 0.382683 0.000000 0.923880
v 0.555570 0.000000 0.831470
v 0.707107 0.000000 0.707107
v 0.831470 0.000000 0.555570
v 0.923880 0.000000 0.382683
v 0.980785 0.000000 0.195090
v 1.000000 0.000000 0.000000
v 0.980785 0.000000 -0.195090
v 0.923880 0.000000 -0.382683
v 0.831470 0.000000 -0.555570
v 0.707107 0.000000 -0.707107
v 0.555570 0.000000 -0.831470
v 0.382683 0.000000 -0.923880
v 0.195090 0.000000 -0.980785
v 0.000000 2.306935 -1.000000
v -0.195090 2.306935 -0.980785
v -0.382683 2.306935 -0.923880
v -0.555570 2.306935 -0.831470
v -0.707107 2.306935 -0.707107
v -0.831470 2.306935 -0.555570
v -0.923880 2.306935 -0.382683
v -0.980785 2.306935 -0.195090
v -1.000000 2.306935 0.000000
v -0.980785 2.306935 0.195090
v -0.923880 2.306935 0.382683
v -0.831470 2.306935 0.555570
v -0.707107 2.306935 0.707107
v -0.555570 2.306935 0.831470
v -0.382683 2.306935 0.923880
v -0.195090 2.306935 0.980785
v 0.000000 2.306935 1.000000
v 0.195090 2.306935 0.980785
v 0.382683 2.306935 0.923880
v 0.555570 2.306935 0.831470
v 0.707107 2.306935 0.707107
v 0.831470 2.306935 0.555570
v 0.923880 2.306935 0.382683
v 0.980785 2.306935 0.195090
v 1.000000 2.306935 0.000000
v 0.980785 2.306935 -0.195090
v 0.923880 2.306935 -0.382683
v 0.831470 2.306935 -0.555570
v 0.707107 2.306935 -0.707107
v 0.555570 2.306935 -0.831470
v 0.382683 2.306935 -0.923880
v 0.195090 2.306935 -0.980785
v -0.195090 2.306935 -0.980785
v 0.000000 2.306935 -1.000000
v -0.382683 2.306935 -0.923880
v -0.555570 2.306935 -0.831470
v -0.707107 2.306935 -0.707107
v -0.831470 2.306935 -0.555570
v -0.923880 2.306935 -0.382683
v -0.980785 2.306935 -0.195090
v -1.000000 2.306935 0.000000
v -0.980785 2.306935 0.195090
v -0.923880 2.306935 0.382683
v -0.831470 2.306935 0.555570
v -0.707107 2.306935 0.707107
v -0.555570 2.306935 0.831470
v -0.382683 2.306935 0.923880
v -0.195090 2.306935 0.980785
v 0.000000 2.306935 1.000000
v 0.195090 2.306935 0.980785
v 0.382683 2.306935 0.923880
v 0.555570 2.306935 0.831470
v 0.707107 2.306935 0.707107
v 0.831470 2.306935 0.555570
v 0.923880 2.306935 0.382683
v 0.980785 2.306935 0.195090
v 1.000000 2.306935 0.000000
v 0.980785 2.306935 -0.195090
v 0.923880 2.306935 -0.382683
v 0.831470 2.306935 -0.555570
v 0.707107 2.306935 -0.707107
v 0.555570 2.306935 -0.831470
v 0.382683 2.306935 -0.923880
v 0.195090 2.306935 -0.980785
v -0.195090 2.306935 -0.980785
v 0.000000 2.306935 -1.000000
v -0.382683 2.306935 -0.923880
v -0.555570 2.306935 -0.831470
v -0.707107 2.306935 -0.707107
v -0.831470 2.306935 -0.555570
v -0.923880 2.306935 -0.382683
v -0.980785 2.306935 -0.195090
v -1.000000 2.306935 0.000000
v -0.980785 2.306935 0.195090
v -0.923880 2.306935 0.382683
v -0.831470 2.306935 0.555570
v -0.707107 2.306935 0.707107
v -0.555570 2.306935 0.831470
v -0.382683 2.306935 0.923880
v -0.195090 2.306935 0.980785
v 0.000000 2.306935 1.000000
v 0.195090 2.306935 0.980785
v 0.382683 2.306935 0.923880
v 0.555570 2.306935 0.831470
v 0.707107 2.306935 0.707107
v 0.831470 2.306935 0.555570
v 0.923880 2.306935 0.382683
v 0.980785 2.306935 0.195090
v 1.000000 2.306935 0.000000
v 0.980785 2.306935 -0.195090
v 0.923880 2.306935 -0.382683
v 0.831470 2.306935 -0.555570
v 0.707107 2.306935 -0.707107
v 0.555570 2.306935 -0.831470
v 0.382683 2.306935 -0.923880
v 0.195090 2.306935 -0.980785
v -0.082494 2.306935 -0.414727
v 0.000000 2.306935 -0.422852
v -0.161819 2.306935 -0.390664
v -0.234924 2.306935 -0.351589
v -0.299001 2.306935 -0.299001
v -0.351589 2.306935 -0.234924
v -0.390664 2.306935 -0.161819
v -0.414727 2.306935 -0.082494
v -0.422852 2.306935 0.000000
v -0.414727 2.306935 0.082494
v -0.390664 2.306935 0.161819
v -0.351589 2.306935 0.234924
v -0.299001 2.306935 0.299001
v -0.234924 2.306935 0.351589
v -0.161819 2.306935 0.390664
v -0.082494 2.306935 0.414727
v 0.000000 2.306935 0.422852
v 0.082494 2.306935 0.414727
v 0.161819 2.306935 0.390664
v 0.234924 2.306935 0.351589
v 0.299001 2.306935 0.299001
v 0.351589 2.306935 0.234924
v 0.390664 2.306935 0.161819
v 0.414727 2.306935 0.082494
v 0.422852 2.306935 0.000000
v 0.414727 2.306935 -0.082494
v 0.390664 2.306935 -0.161819
v 0.351589 2.306935 -0.234924
v 0.299001 2.306935 -0.299001
v 0.234924 2.306935 -0.351589
v 0.161819 2.306935 -0.390664
v 0.082494 2.306935 -0.414727
v -0.082494 2.306935 -0.414727
v 0.000000 2.306935 -0.422852
v -0.161819 2.306935 -0.390664
v -0.234924 2.306935 -0.351589
v -0.299001 2.306935 -0.299001
v -0.351589 2.306935 -0.234924
v -0.390664 2.306935 -0.161819
v -0.414727 2.306935 -0.082494
v -0.422852 2.306935 0.000000
v -0.414727 2.306935 0.082494
v -0.390664 2.306935 0.161819
v -0.351589 2.306935 0.234924
v -0.299001 2.306935 0.299001
v -0.234924 2.306935 0.351589
v -0.161819 2.306935 0.390664
v -0.082494 2.306935 0.414727
v 0.000000 2.306935 0.422852
v 0.082494 2.306935 0.414727
v 0.161819 2.306935 0.390664
v 0.234924 2.306935 0.351589
v 0.299001 2.306935 0.299001
v 0.351589 2.306935 0.234924
v 0.390664 2.306935 0.161819
v 0.414727 2.306935 0.082494
v 0.422852 2.306935 0.000000
v 0.414727 2.306935 -0.082494
v 0.390664 2.306935 -0.161819
v 0.351589 2.306935 -0.234924
v 0.299001 2.306935 -0.299001
v 0.234924 2.306935 -0.351589
v 0.161819 2.306935 -0.390664
v 0.082494 2.306935 -0.414727
v -0.082494 2.306935 -0.414727
v 0.000000 2.306935 -0.422852
v -0.161819 2.306935 -0.390664
v -0.234924 2.306935 -0.351589
v -0.299001 2.306935 -0.299001
v -0.351589 2.306935 -0.234924
v -0.390664 2.306935 -0.161819
v -0.414727 2.306935 -0.082494
v -0.422852 2.306935 0.000000
v -0.414727 2.306935 0.082494
v -0.390664 2.306935 0.161819
v -0.351589 2.306935 0.234924
v -0.299001 2.306935 0.299001
v -0.234924 2.306935 0.351589
v -0.161819 2.306935 0.390664
v -0.082494 2.306935 0.414727
v 0.000000 2.306935 0.422852
v 0.082494 2.306935 0.414727
v 0.161819 2.306935 0.390664
v 0.234924 2.306935 0.351589
v 0.299001 2.306935 0.299001
v 0.351589 2.306935 0.234924
v 0.390664 2.306935 0.161819
v 0.414727 2.306935 0.082494
v 0.422852 2.306935 0.000000
v 0.414727 2.306935 -0.082494
v 0.390664 2.306935 -0.161819
v 0.351589 2.306935 -0.234924
v 0.299001 2.306935 -0.299001
v 0.234924 2.306935 -0.351589
v 0.161819 2.306935 -0.390664
v 0.082494 2.306935 -0.414727
v -0.082494 2.306935 -0.414727
v 0.000000 2.306935 -0.422852
v -0.161819 2.306935 -0.390664
v -0.234924 2.306935 -0.351589
v -0.299001 2.306935 -0.299001
v -0.351589 2.306935 -0.234924
v -0.390664 2.306935 -0.161819
v -0.414727 2.306935 -0.082494
v -0.422852 2.306935 0.000000
v -0.414727 2.306935 0.082494
v -0.390664 2.306935 0.161819
v -0.351589 2.306935 0.234924
v -0.299001 2.306935 0.299001
v -0.234924 2.306935 0.351589
v -0.161819 2.306935 0.390664
v -0.082494 2.306935 0.414727
v 0.000000 2.306935 0.422852
v 0.082494 2.306935 0.414727
v 0.161819 2.306935 0.390664
v 0.234924 2.306935 0.351589
v 0.299001 2.306935 0.299001
v 0.351589 2.306935 0.234924
v 0.390664 2.306935 0.161819
v 0.414727 2.306935 0.082494
v 0.422852 2.306935 0.000000
v 0.414727 2.306935 -0.082494
v 0.390664 2.306935 -0.161819
v 0.351589 2.306935 -0.234924
v 0.299001 2.306935 -0.299001
v 0.234924 2.306935 -0.351589
v 0.161819 2.306935 -0.390664
v 0.082494 2.306935 -0.414727
v -0.082494 2.306935 -0.414727
v 0.000000 2.306935 -0.422852
v -0.161819 2.306935 -0.390664
v -0.234924 2.306935 -0.351589
v -0.299001 2.306935 -0.299001
v -0.351589 2.306935 -0.234924
v -0.390664 2.306935 -0.161819
v -0.414727 2.306935 -0.082494
v -0.422852 2.306935 0.000000
v -0.414727 2.306935 0.082494
v -0.390664 2.306935 0.161819
v -0.351589 2.306935 0.234924
v -0.299001 2.306935 0.299001
v -0.234924 2.306935 0.351589
v -0.161819 2.306935 0.390664
v -0.082494 2.306935 0.414727
v 0.000000 2.306935 0.422852
v 0.082494 2.306935 0.414727
v 0.161819 2.306935 0.390664
v 0.234924 2.306935 0.351589
v 0.299001 2.306935 0.299001
v 0.351589 2.306935 0.234924
v 0.390664 2.306935 0.161819
v 0.414727 2.306935 0.082494
v 0.422852 2.306935 0.000000
v 0.414727 2.306935 -0.082494
v 0.390664 2.306935 -0.161819
v 0.351589 2.306935 -0.234924
v 0.299001 2.306935 -0.299001
v 0.234924 2.306935 -0.351589
v 0.161819 2.306935 -0.390664
v 0.082494 2.306935 -0.414727
v -0.082494 1.317683 -0.414727
v 0.000000 1.317683 -0.422852
v -0.161818 1.317683 -0.390664
v -0.234924 1.317683 -0.351589
v -0.299001 1.317683 -0.299001
v -0.351589 1.317683 -0.234924
v -0.390664 1.317683 -0.161819
v -0.414727 1.317683 -0.082494
v -0.422852 1.317683 0.000000
v -0.414727 1.317683 0.082494
v -0.390664 1.317683 0.161819
v -0.351589 1.317683 0.234924
v -0.299001 1.317683 0.299001
v -0.234924 1.317683 0.351589
v -0.161818 1.317683 0.390664
v -0.082494 1.317683 0.414727
v 0.000000 1.317683 0.422852
v 0.082494 1.317683 0.414727
v 0.161819 1.317683 0.390664
v 0.234924 1.317683 0.351589
v 0.299002 1.317683 0.299001
v 0.351589 1.317683 0.234924
v 0.390664 1.317683 0.161819
v 0.414727 1.317683 0.082494
v 0.422852 1.317683 0.000000
v 0.414727 1.317683 -0.082494
v 0.390664 1.317683 -0.161819
v 0.351589 1.317683 -0.234924
v 0.299002 1.317683 -0.299001
v 0.234924 1.317683 -0.351589
v 0.161819 1.317683 -0.390664
v 0.082494 1.317683 -0.414727
v -0.082494 0.879583 -0.414727
v 0.000000 0.879583 -0.422852
v -0.161819 0.879583 -0.390664
v -0.234924 0.879583 -0.351589
v -0.299001 0.879583 -0.299001
v -0.351589 0.879583 -0.234924
v -0.390664 0.879583 -0.161819
v -0.414727 0.879583 -0.082494
v -0.422852 0.879583 0.000000
v -0.414727 0.879583 0.082494
v -0.390664 0.879583 0.161819
v -0.351589 0.879583 0.234924
v -0.299001 0.879583 0.299001
v -0.234924 0.879583 0.351589
v -0.161819 0.879583 0.390664
v -0.082494 0.879583 0.414727
v 0.000000 0.879583 0.422852
v 0.082494 0.879583 0.414727
v 0.161819 0.879583 0.390664
v 0.234924 0.879583 0.351589
v 0.299001 0.879583 0.299001
v 0.351589 0.879583 0.234924
v 0.390664 0.879583 0.161819
v 0.414727 0.879583 0.082494
v 0.422852 0.879583 0.000000
v 0.414727 0.879583 -0.082494
v 0.390664 0.879583 -0.161819
v 0.351589 0.879583 -0.234924
v 0.299001 0.879583 -0.299001
v 0.234924 0.879583 -0.351589
v 0.161819 0.879583 -0.390664
v 0.082494 0.879583 -0.414727
v -0.195090 1.098454 -0.980785
v 0.000000 1.098454 -1.000000
v -0.382683 1.098454 -0.923880
v -0.555570 1.098454 -0.831470
v -0.707107 1.098454 -0.707107
v -0.831470 1.098454 -0.555570
v -0.923880 1.098454 -0.382683
v -0.980785 1.098454 -0.195090
v -1.000000 1.098454 0.000000
v -0.980785 1.098454 0.195090
v -0.923880 1.098454 0.382683
v -0.831470 1.098454 0.555570
v -0.707107 1.098454 0.707107
v -0.555570 1.098454 0.831470
v -0.382683 1.098454 0.923880
v -0.195090 1.098454 0.980785
v 0.000000 1.098454 1.000000
v 0.195090 1.098454 0.980785
v 0.382683 1.098454 0.923880
v 0.555570 1.098454 0.831470
v 0.707107 1.098454 0.707107
v 0.831470 1.098454 0.555570
v 0.923880 1.098454 0.382683
v 0.980785 1.098454 0.195090
v 1.000000 1.098454 0.000000
v 0.980785 1.098454 -0.195090
v 0.923880 1.098454 -0.382683
v 0.831470 1.098454 -0.555570
v 0.707107 1.098454 -0.707107
v 0.555570 1.098454 -0.831470
v 0.382683 1.098454 -0.923880
v 0.195090 1.098454 -0.980785
v -0.195090 1.085496 -0.980785
v -0.000000 1.085496 -1.000000
v -0.382684 1.085496 -0.923880
v -0.555570 1.085496 -0.831470
v -0.707107 1.085496 -0.707107
v -0.831470 1.085496 -0.555570
v -0.923880 1.085496 -0.382683
v -0.980785 1.085496 -0.195090
v -1.000000 1.085496 0.000000
v -0.980785 1.085496 0.195090
v -0.923880 1.085496 0.382683
v -0.831470 1.085496 0.555570
v -0.707107 1.085496 0.707107
v -0.555570 1.085496 0.831470
v -0.382684 1.085496 0.923880
v -0.195090 1.085496 0.980785
v -0.000000 1.085496 1.000000
v 0.195090 1.085496 0.980785
v 0.382683 1.085496 0.923880
v 0.555570 1.085496 0.831470
v 0.707107 1.085496 0.707107
v 0.831469 1.085496 0.555570
v 0.923879 1.085496 0.382683
v 0.980785 1.085496 0.195090
v 1.000000 1.085496 0.000000
v 0.980785 1.085496 -0.195090
v 0.923879 1.085496 -0.382683
v 0.831469 1.085496 -0.555570
v 0.707107 1.085496 -0.707107
v 0.555570 1.085496 -0.831470
v 0.382683 1.085496 -0.923880
v 0.195090 1.085496 -0.980785
v -0.082494 0.095278 -0.414727
v -0.101172 0.000000 -0.508626
v -0.084997 0.047639 -0.427307
v -0.091833 0.012765 -0.461677
v 0.000000 0.000000 -0.518591
v 0.000000 0.095278 -0.422852
v 0.000000 0.012765 -0.470721
v 0.000000 0.047639 -0.435679
v -0.161819 0.095278 -0.390664
v -0.198456 0.000000 -0.479115
v -0.166727 0.047639 -0.402514
v -0.180137 0.012765 -0.434890
v -0.234924 0.095278 -0.351589
v -0.288114 0.000000 -0.431193
v -0.242050 0.047639 -0.362253
v -0.261519 0.012765 -0.391391
v -0.299001 0.095278 -0.299001
v -0.366699 0.000000 -0.366699
v -0.308071 0.047639 -0.308071
v -0.332850 0.012765 -0.332850
v -0.351589 0.095278 -0.234924
v -0.431193 0.000000 -0.288114
v -0.362253 0.047639 -0.242050
v -0.391391 0.012765 -0.261519
v -0.390664 0.095278 -0.161819
v -0.479115 0.000000 -0.198456
v -0.402514 0.047639 -0.166727
v -0.434890 0.012765 -0.180137
v -0.414727 0.095278 -0.082494
v -0.508626 0.000000 -0.101172
v -0.427307 0.047639 -0.084997
v -0.461677 0.012765 -0.091833
v -0.422852 0.095278 0.000000
v -0.518591 0.000000 0.000000
v -0.435679 0.047639 0.000000
v -0.470721 0.012765 0.000000
v -0.414727 0.095278 0.082494
v -0.508626 0.000000 0.101172
v -0.427307 0.047639 0.084997
v -0.461677 0.012765 0.091833
v -0.390664 0.095278 0.161819
v -0.479115 0.000000 0.198456
v -0.402514 0.047639 0.166727
v -0.434890 0.012765 0.180137
v -0.351589 0.095278 0.234924
v -0.431193 0.000000 0.288114
v -0.362253 0.047639 0.242050
v -0.391391 0.012765 0.261519
v -0.299001 0.095278 0.299001
v -0.366699 0.000000 0.366699
v -0.308071 0.047639 0.308071
v -0.332850 0.012765 0.332850
v -0.234924 0.095278 0.351589
v -0.288114 0.000000 0.431193
v -0.242050 0.047639 0.362253
v -0.261519 0.012765 0.391391
v -0.161819 0.095278 0.390664
v -0.198456 0.000000 0.479115
v -0.166727 0.047639 0.402514
v -0.180137 0.012765 0.434890
v -0.082494 0.095278 0.414727
v -0.101172 0.000000 0.508626
v -0.084997 0.047639 0.427307
v -0.091833 0.012765 0.461677
v 0.000000 0.095278 0.422852
v 0.000000 0.000000 0.518591
v 0.000000 0.047639 0.435679
v 0.000000 0.012765 0.470721
v 0.082494 0.095278 0.414727
v 0.101172 0.000000 0.508626
v 0.084997 0.047639 0.427307
v 0.091833 0.012765 0.461677
v 0.161819 0.095278 0.390664
v 0.198456 0.000000 0.479115
v 0.166727 0.047639 0.402514
v 0.180137 0.012765 0.434890
v 0.234924 0.095278 0.351589
v 0.288114 0.000000 0.431193
v 0.242050 0.047639 0.362253
v 0.261519 0.012765 0.391391
v 0.299001 0.095278 0.299001
v 0.366699 0.000000 0.366699
v 0.308071 0.047639 0.308071
v 0.332850 0.012765 0.332850
v 0.351589 0.095278 0.234924
v 0.431193 0.000000 0.288114
v 0.362253 0.047639 0.242050
v 0.391391 0.012765 0.261519
v 0.390664 0.095278 0.161819
v 0.479115 0.000000 0.198456
v 0.402514 0.047639 0.166727
v 0.434890 0.012765 0.180137
v 0.414727 0.095278 0.082494
v 0.508626 0.000000 0.101172
v 0.427307 0.047639 0.084997
v 0.461677 0.012765 0.091833
v 0.422852 0.095278 0.000000
v 0.518591 0.000000 0.000000
v 0.435679 0.047639 0.000000
v 0.470721 0.012765 0.000000
v 0.414727 0.095278 -0.082494
v 0.508626 0.000000 -0.101172
v 0.427307 0.047639 -0.084997
v 0.461677 0.012765 -0.091833
v 0.390664 0.095278 -0.161819
v 0.479115 0.000000 -0.198456
v 0.402514 0.047639 -0.166727
v 0.434890 0.012765 -0.180137
v 0.351589 0.095278 -0.234924
v 0.431193 0.000000 -0.288114
v 0.362253 0.047639 -0.242050
v 0.391391 0.012765 -0.261519
v 0.299001 0.095278 -0.299001
v 0.366699 0.000000 -0.366699
v 0.308071 0.047639 -0.308071
v 0.332850 0.012765 -0.332850
v 0.234924 0.095278 -0.351589
v 0.288114 0.000000 -0.431193
v 0.242050 0.047639 -0.362253
v 0.261519 0.012765 -0.391391
v 0.161819 0.095278 -0.390664
v 0.198456 0.000000 -0.479115
v 0.166727 0.047639 -0.402514
v 0.180137 0.012765 -0.434890
v 0.082494 0.095278 -0.414727
v 0.101172 0.000000 -0.508626
v 0.084997 0.047639 -0.427307
v 0.091833 0.012765 -0.461677
v -0.176413 0.000000 -0.886886
v -0.195090 0.000000 -0.980785
v -0.182638 0.000000 -0.918186
v -0.188864 0.000000 -0.949486
v 0.000000 0.000000 -1.000000
v 0.000000 0.000000 -0.904261
v 0.000000 0.000000 -0.968087
v 0.000000 0.000000 -0.936174
v -0.346046 0.000000 -0.835428
v -0.382683 0.000000 -0.923880
v -0.358258 0.000000 -0.864912
v -0.370471 0.000000 -0.894396
v -0.502381 0.000000 -0.751866
v -0.555570 0.000000 -0.831470
v -0.520110 0.000000 -0.778400
v -0.537840 0.000000 -0.804935
v -0.639409 0.000000 -0.639409
v -0.707107 0.000000 -0.707107
v -0.661975 0.000000 -0.661975
v -0.684541 0.000000 -0.684541
v -0.751866 0.000000 -0.502381
v -0.831470 0.000000 -0.555570
v -0.778400 0.000000 -0.520110
v -0.804935 0.000000 -0.537840
v -0.835428 0.000000 -0.346046
v -0.923880 0.000000 -0.382683
v -0.864912 0.000000 -0.358258
v -0.894396 0.000000 -0.370471
v -0.886886 0.000000 -0.176413
v -0.980785 0.000000 -0.195090
v -0.918186 0.000000 -0.182638
v -0.949486 0.000000 -0.188864
v -0.904261 0.000000 0.000000
v -1.000000 0.000000 0.000000
v -0.936174 0.000000 0.000000
v -0.968087 0.000000 0.000000
v -0.886886 0.000000 0.176413
v -0.980785 0.000000 0.195090
v -0.918186 0.000000 0.182638
v -0.949486 0.000000 0.188864
v -0.835428 0.000000 0.346046
v -0.923880 0.000000 0.382683
v -0.864912 0.000000 0.358258
v -0.894396 0.000000 0.370471
v -0.751866 0.000000 0.502381
v -0.831470 0.000000 0.555570
v -0.778400 0.000000 0.520110
v -0.804935 0.000000 0.537840
v -0.639409 0.000000 0.639409
v -0.707107 0.000000 0.707107
v -0.661975 0.000000 0.661975
v -0.684541 0.000000 0.684541
v -0.502381 0.000000 0.751866
v -0.555570 0.000000 0.831470
v -0.520110 0.000000 0.778400
v -0.537840 0.000000 0.804935
v -0.346046 0.000000 0.835428
v -0.382683 0.000000 0.923880
v -0.358258 0.000000 0.864912
v -0.370471 0.000000 0.894396
v -0.176413 0.000000 0.886886
v -0.195090 0.000000 0.980785
v -0.182638 0.000000 0.918186
v -0.188864 0.000000 0.949486
v 0.000000 0.000000 0.904261
v 0.000000 0.000000 1.000000
v 0.000000 0.000000 0.936174
v 0.000000 0.000000 0.968087
v 0.176413 0.000000 0.886886
v 0.195090 0.000000 0.980785
v 0.182638 0.000000 0.918186
v 0.188864 0.000000 0.949486
v 0.346046 0.000000 0.835428
v 0.382683 0.000000 0.923880
v 0.358258 0.000000 0.864912
v 0.370471 0.000000 0.894396
v 0.502381 0.000000 0.751866
v 0.555570 0.000000 0.831470
v 0.520110 0.000000 0.778400
v 0.537840 0.000000 0.804935
v 0.639409 0.000000 0.639409
v 0.707107 0.000000 0.707107
v 0.661975 0.000000 0.661975
v 0.684541 0.000000 0.684541
v 0.751866 0.000000 0.502381
v 0.831470 0.000000 0.555570
v 0.778400 0.000000 0.520110
v 0.804935 0.000000 0.537840
v 0.835428 0.000000 0.346046
v 0.923880 0.000000 0.382683
v 0.864912 0.000000 0.358258
v 0.894396 0.000000 0.370471
v 0.886886 0.000000 0.176413
v 0.980785 0.000000 0.195090
v 0.918186 0.000000 0.182638
v 0.949486 0.000000 0.188864
v 0.904261 0.000000 0.000000
v 1.000000 0.000000 0.000000
v 0.936174 0.000000 0.000000
v 0.968087 0.000000 0.000000
v 0.886886 0.000000 -0.176413
v 0.980785 0.000000 -0.195090
v 0.918186 0.000000 -0.182638
v 0.949486 0.000000 -0.188864
v 0.835428 0.000000 -0.346046
v 0.923880 0.000000 -0.382683
v 0.864912 0.000000 -0.358258
v 0.894396 0.000000 -0.370471
v 0.751866 0.000000 -0.502381
v 0.831470 0.000000 -0.555570
v 0.778400 0.000000 -0.520110
v 0.804935 0.000000 -0.537840
v 0.639409 0.000000 -0.639409
v 0.707107 0.000000 -0.707107
v 0.661975 0.000000 -0.661975
v 0.684541 0.000000 -0.684541
v 0.502381 0.000000 -0.751866
v 0.555570 0.000000 -0.831470
v 0.520110 0.000000 -0.778400
v 0.537840 0.000000 -0.804935
v 0.346046 0.000000 -0.835428
v 0.382683 0.000000 -0.923880
v 0.358258 0.000000 -0.864912
v 0.370471 0.000000 -0.894396
v 0.176413 0.000000 -0.886886
v 0.195090 0.000000 -0.980785
v 0.182638 0.000000 -0.918186
v 0.188864 0.000000 -0.949486
v -0.176413 2.306935 -0.886886
v -0.195090 2.306935 -0.980785
v -0.182638 2.306935 -0.918186
v -0.188864 2.306935 -0.949486
v 0.000000 2.306935 -1.000000
v 0.000000 2.306935 -0.904261
v 0.000000 2.306935 -0.968087
v 0.000000 2.306935 -0.936174
v -0.346046 2.306935 -0.835428
v -0.382683 2.306935 -0.923880
v -0.358258 2.306935 -0.864912
v -0.370471 2.306935 -0.894396
v -0.502381 2.306935 -0.751866
v -0.555570 2.306935 -0.831470
v -0.520110 2.306935 -0.778400
v -0.537840 2.306935 -0.804935
v -0.639409 2.306935 -0.639409
v -0.707107 2.306935 -0.707107
v -0.661975 2.306935 -0.661975
v -0.684541 2.306935 -0.684541
v -0.751866 2.306935 -0.502381
v -0.831470 2.306935 -0.555570
v -0.778400 2.306935 -0.520110
v -0.804935 2.306935 -0.537840
v -0.835428 2.306935 -0.346046
v -0.923880 2.306935 -0.382683
v -0.864912 2.306935 -0.358258
v -0.894396 2.306935 -0.370471
v -0.886886 2.306935 -0.176413
v -0.980785 2.306935 -0.195090
v -0.918186 2.306935 -0.182638
v -0.949486 2.306935 -0.188864
v -0.904261 2.306935 0.000000
v -1.000000 2.306935 0.000000
v -0.936174 2.306935 0.000000
v -0.968087 2.306935 0.000000
v -0.886886 2.306935 0.176413
v -0.980785 2.306935 0.195090
v -0.918186 2.306935 0.182638
v -0.949486 2.306935 0.188864
v -0.835428 2.306935 0.346046
v -0.923880 2.306935 0.382683
v -0.864912 2.306935 0.358258
v -0.894396 2.306935 0.370471
v -0.751866 2.306935 0.502381
v -0.831470 2.306935 0.555570
v -0.778400 2.306935 0.520110
v -0.804935 2.306935 0.537840
v -0.639409 2.306935 0.639409
v -0.707107 2.306935 0.707107
v -0.661975 2.306935 0.661975
v -0.684541 2.306935 0.684541
v -0.502381 2.306935 0.751866
v -0.555570 2.306935 0.831470
v -0.520110 2.306935 0.778400
v -0.537840 2.306935 0.804935
v -0.346046 2.306935 0.835428
v -0.382683 2.306935 0.923880
v -0.358258 2.306935 0.864912
v -0.370471 2.306935 0.894396
v -0.176413 2.306935 0.886886
v -0.195090 2.306935 0.980785
v -0.182638 2.306935 0.918186
v -0.188864 2.306935 0.949486
v 0.000000 2.306935 0.904261
v 0.000000 2.306935 1.000000
v 0.000000 2.306935 0.936174
v 0.000000 2.306935 0.968087
v 0.176413 2.306935 0.886886
v 0.195090 2.306935 0.980785
v 0.182638 2.306935 0.918186
v 0.188864 2.306935 0.949486
v 0.346046 2.306935 0.835428
v 0.382683 2.306935 0.923880
v 0.358258 2.306935 0.864912
v 0.370471 2.306935 0.894396
v 0.502381 2.306935 0.751866
v 0.555570 2.306935 0.831470
v 0.520110 2.306935 0.778400
v 0.537840 2.306935 0.804935
v 0.639409 2.306935 0.639409
v 0.707107 2.306935 0.707107
v 0.661975 2.306935 0.661975
v 0.684541 2.306935 0.684541
v 0.751866 2.306935 0.502381
v 0.831470 2.306935 0.555570
v 0.778400 2.306935 0.520110
v 0.804935 2.306935 0.537840
v 0.835428 2.306935 0.346046
v 0.923880 2.306935 0.382683
v 0.864912 2.306935 0.358258
v 0.894396 2.306935 0.370471
v 0.886886 2.306935 0.176413
v 0.980785 2.306935 0.195090
v 0.918186 2.306935 0.182638
v 0.949486 2.306935 0.188864
v 0.904261 2.306935 0.000000
v 1.000000 2.306935 0.000000
v 0.936174 2.306935 0.000000
v 0.968087 2.306935 0.000000
v 0.886886 2.306935 -0.176413
v 0.980785 2.306935 -0.195090
v 0.918186 2.306935 -0.182638
v 0.949486 2.306935 -0.188864
v 0.835428 2.306935 -0.346046
v 0.923880 2.306935 -0.382683
v 0.864912 2.306935 -0.358258
v 0.894396 2.306935 -0.370471
v 0.751866 2.306935 -0.502381
v 0.831470 2.306935 -0.555570
v 0.778400 2.306935 -0.520110
v 0.804935 2.306935 -0.537840
v 0.639409 2.306935 -0.639409
v 0.707107 2.306935 -0.707107
v 0.661975 2.306935 -0.661975
v 0.684541 2.306935 -0.684541
v 0.502381 2.306935 -0.751866
v 0.555570 2.306935 -0.831470
v 0.520110 2.306935 -0.778400
v 0.537840 2.306935 -0.804935
v 0.346046 2.306935 -0.835428
v 0.382683 2.306935 -0.923880
v 0.358258 2.306935 -0.864912
v 0.370471 2.306935 -0.894396
v 0.176413 2.306935 -0.886886
v 0.195090 2.306935 -0.980785
v 0.182638 2.306935 -0.918186
v 0.188864 2.306935 -0.949486
v -0.082494 2.211658 -0.414727
v -0.082494 2.306935 -0.414727
v -0.082494 2.243417 -0.414727
v -0.082494 2.275176 -0.414727
v 0.000000 2.306935 -0.422852
v 0.000000 2.211658 -0.422852
v 0.000000 2.284673 -0.422852
v 0.000000 2.251357 -0.422852
v -0.161819 2.211658 -0.390664
v -0.161819 2.306935 -0.390664
v -0.161819 2.243417 -0.390664
v -0.161819 2.275176 -0.390664
v -0.234924 2.211658 -0.351589
v -0.234924 2.306935 -0.351589
v -0.234924 2.243417 -0.351589
v -0.234924 2.275176 -0.351589
v -0.299001 2.211658 -0.299001
v -0.299001 2.306935 -0.299001
v -0.299001 2.243417 -0.299001
v -0.299001 2.275176 -0.299001
v -0.351589 2.211658 -0.234924
v -0.351589 2.306935 -0.234924
v -0.351589 2.243417 -0.234924
v -0.351589 2.275176 -0.234924
v -0.390664 2.211658 -0.161819
v -0.390664 2.306935 -0.161819
v -0.390664 2.243417 -0.161819
v -0.390664 2.275176 -0.161819
v -0.414727 2.211658 -0.082494
v -0.414727 2.306935 -0.082494
v -0.414727 2.243417 -0.082494
v -0.414727 2.275176 -0.082494
v -0.422852 2.211658 0.000000
v -0.422852 2.306935 0.000000
v -0.422852 2.243417 0.000000
v -0.422852 2.275176 0.000000
v -0.414727 2.211658 0.082494
v -0.414727 2.306935 0.082494
v -0.414727 2.243417 0.082494
v -0.414727 2.275176 0.082494
v -0.390664 2.211658 0.161819
v -0.390664 2.306935 0.161819
v -0.390664 2.243417 0.161819
v -0.390664 2.275176 0.161819
v -0.351589 2.211658 0.234924
v -0.351589 2.306935 0.234924
v -0.351589 2.243417 0.234924
v -0.351589 2.275176 0.234924
v -0.299001 2.211658 0.299001
v -0.299001 2.306935 0.299001
v -0.299001 2.243417 0.299001
v -0.299001 2.275176 0.299001
v -0.234924 2.211658 0.351589
v -0.234924 2.306935 0.351589
v -0.234924 2.243417 0.351589
v -0.234924 2.275176 0.351589
v -0.161819 2.211658 0.390664
v -0.161819 2.306935 0.390664
v -0.161819 2.243417 0.390664
v -0.161819 2.275176 0.390664
v -0.082494 2.211658 0.414727
v -0.082494 2.306935 0.414727
v -0.082494 2.243417 0.414727
v -0.082494 2.275176 0.414727
v 0.000000 2.211658 0.422852
v 0.000000 2.306935 0.422852
v 0.000000 2.243417 0.422852
v 0.000000 2.275176 0.422852
v 0.082494 2.211658 0.414727
v 0.082494 2.306935 0.414727
v 0.082494 2.243417 0.414727
v 0.082494 2.275176 0.414727
v 0.161819 2.211658 0.390664
v 0.161819 2.306935 0.390664
v 0.161819 2.243417 0.390664
v 0.161819 2.275176 0.390664
v 0.234924 2.211658 0.351589
v 0.234924 2.306935 0.351589
v 0.234924 2.243417 0.351589
v 0.234924 2.275176 0.351589
v 0.299001 2.211658 0.299001
v 0.299001 2.306935 0.299001
v 0.299001 2.243417 0.299001
v 0.299001 2.275176 0.299001
v 0.351589 2.211658 0.234924
v 0.351589 2.306935 0.234924
v 0.351589 2.243417 0.234924
v 0.351589 2.275176 0.234924
v 0.390664 2.211658 0.161819
v 0.390664 2.306935 0.161819
v 0.390664 2.243417 0.161819
v 0.390664 2.275176 0.161819
v 0.414727 2.211658 0.082494
v 0.414727 2.306935 0.082494
v 0.414727 2.243417 0.082494
v 0.414727 2.275176 0.082494
v 0.422852 2.211658 0.000000
v 0.422852 2.306935 0.000000
v 0.422852 2.243417 0.000000
v 0.422852 2.275176 0.000000
v 0.414727 2.211658 -0.082494
v 0.414727 2.306935 -0.082494
v 0.414727 2.243417 -0.082494
v 0.414727 2.275176 -0.082494
v 0.390664 2.211658 -0.161819
v 0.390664 2.306935 -0.161819
v 0.390664 2.243417 -0.161819
v 0.390664 2.275176 -0.161819
v 0.351589 2.211658 -0.234924
v 0.351589 2.306935 -0.234924
v 0.351589 2.243417 -0.234924
v 0.351589 2.275176 -0.234924
v 0.299001 2.211658 -0.299001
v 0.299001 2.306935 -0.299001
v 0.299001 2.243417 -0.299001
v 0.299001 2.275176 -0.299001
v 0.234924 2.211658 -0.351589
v 0.234924 2.306935 -0.351589
v 0.234924 2.243417 -0.351589
v 0.234924 2.275176 -0.351589
v 0.161819 2.211658 -0.390664
v 0.161819 2.306935 -0.390664
v 0.161819 2.243417 -0.390664
v 0.161819 2.275176 -0.390664
v 0.082494 2.211658 -0.414727
v 0.082494 2.306935 -0.414727
v 0.082494 2.243417 -0.414727
v 0.082494 2.275176 -0.414727
v -0.082494 0.879583 -0.414727
v 0.000000 0.879583 -0.422852
v -0.161819 0.879583 -0.390664
v -0.234924 0.879583 -0.351589
v -0.299001 0.879583 -0.299001
v -0.351589 0.879583 -0.234924
v -0.390664 0.879583 -0.161819
v -0.414727 0.879583 -0.082494
v -0.422852 0.879583 0.000000
v -0.414727 0.879583 0.082494
v -0.390664 0.879583 0.161819
v -0.351589 0.879583 0.234924
v -0.299001 0.879583 0.299001
v -0.234924 0.879583 0.351589
v -0.161819 0.879583 0.390664
v -0.082494 0.879583 0.414727
v 0.000000 0.879583 0.422852
v 0.082494 0.879583 0.414727
v 0.161819 0.879583 0.390664
v 0.234924 0.879583 0.351589
v 0.299001 0.879583 0.299001
v 0.351589 0.879583 0.234924
v 0.390664 0.879583 0.161819
v 0.414727 0.879583 0.082494
v 0.422852 0.879583 0.000000
v 0.414727 0.879583 -0.082494
v 0.390664 0.879583 -0.161819
v 0.351589 0.879583 -0.234924
v 0.299001 0.879583 -0.299001
v 0.234924 0.879583 -0.351589
v 0.161819 0.879583 -0.390664
v 0.082494 0.879583 -0.414727
v -0.082494 0.879583 -0.414727
v 0.000000 0.879583 -0.422852
v -0.161819 0.879583 -0.390664
v -0.234924 0.879583 -0.351589
v -0.299001 0.879583 -0.299001
v -0.351589 0.879583 -0.234924
v -0.390664 0.879583 -0.161819
v -0.414727 0.879583 -0.082494
v -0.422852 0.879583 0.000000
v -0.414727 0.879583 0.082494
v -0.390664 0.879583 0.161819
v -0.351589 0.879583 0.234924
v -0.299001 0.879583 0.299001
v -0.234924 0.879583 0.351589
v -0.161819 0.879583 0.390664
v -0.082494 0.879583 0.414727
v 0.000000 0.879583 0.422852
v 0.082494 0.879583 0.414727
v 0.161819 0.879583 0.390664
v 0.234924 0.879583 0.351589
v 0.299001 0.879583 0.299001
v 0.351589 0.879583 0.234924
v 0.390664 0.879583 0.161819
v 0.414727 0.879583 0.082494
v 0.422852 0.879583 0.000000
v 0.414727 0.879583 -0.082494
v 0.390664 0.879583 -0.161819
v 0.351589 0.879583 -0.234924
v 0.299001 0.879583 -0.299001
v 0.234924 0.879583 -0.351589
v 0.161819 0.879583 -0.390664
v 0.082494 0.879583 -0.414727
vn -0.0000 -0.0000 -1.0000
vn -0.2425 -0.0000 -0.9701
vn -0.6000 -0.0000 -0.8000
vn -0.4472 -0.0000 -0.8944
vn 0.5547 -0.0000 -0.8321
vn 0.3881 -0.0000 -0.9216
vn -0.3285 -0.0000 0.9445
vn -1.0000 -0.0000 -0.0000
vn -0.3417 -0.0000 -0.9398
vn 0.3714 -0.0000 0.9285
vn 0.5547 -0.0000 0.8321
vn -0.0000 -0.0000 1.0000
vn -0.2425 -0.0000 0.9701
vn -0.4472 -0.0000 0.8944
vn -0.1843 -0.0000 0.9829
vn 0.2425 -0.0000 0.9701
vn 0.6000 -0.0000 0.8000
vn 0.4472 -0.0000 0.8944
vn -0.5547 -0.0000 0.8321
vn -0.3881 -0.0000 0.9216
vn 0.3285 -0.0000 -0.9445
vn 1.0000 -0.0000 -0.0000
vn 0.3417 -0.0000 0.9398
vn -0.3714 -0.0000 -0.9285
vn -0.5547 -0.0000 -0.8321
vn 0.4472 -0.0000 -0.8944
vn 0.6000 -0.0000 -0.8000
vn 0.1843 -0.0000 -0.9829
vn -0.0000 0.7088 0.7054
vn 0.1376 0.7088 0.6918
vn 0.2699 0.7088 0.6517
vn 0.3919 0.7088 0.5865
vn 0.4988 0.7088 0.4988
vn 0.5865 0.7088 0.3919
vn 0.6517 0.7088 0.2699
vn 0.6918 0.7088 0.1376
vn 0.7054 0.7088 -0.0000
vn 0.6918 0.7088 -0.1376
vn 0.6517 0.7088 -0.2699
vn 0.5865 0.7088 -0.3919
vn 0.4988 0.7088 -0.4988
vn 0.3919 0.7088 -0.5865
vn 0.2699 0.7088 -0.6517
vn 0.1376 0.7088 -0.6918
vn -0.0000 0.7088 -0.7054
vn -0.1376 0.7088 -0.6918
vn -0.2699 0.7088 -0.6517
vn -0.3919 0.7088 -0.5865
vn -0.4988 0.7088 -0.4988
vn -0.5865 0.7088 -0.3919
vn -0.6517 0.7088 -0.2699
vn -0.6918 0.7088 -0.1376
vn -0.7054 0.7088 -0.0000
vn -0.6918 0.7088 0.1376
vn -0.6517 0.7088 0.2699
vn -0.5865 0.7088 0.3919
vn -0.4988 0.7088 0.4988
vn -0.3919 0.7088 0.5865
vn -0.2699 0.7088 0.6517
vn -0.1376 0.7088 0.6918
vn -0.3511 -0.0000 -0.9363
vn -0.0000 -0.3794 0.9252
vn -0.3606 -0.5914 0.7212
vn -0.3663 -0.7509 0.5495
vn 0.3008 -0.7400 0.6016
vn 0.1574 -0.3953 -0.9050
vn 0.6153 -0.7883 -0.0000
vn 0.1574 -0.3953 0.9050
vn 0.3008 -0.7400 -0.6016
vn -0.3663 -0.7509 -0.5495
vn -0.3606 -0.5914 -0.7212
vn -0.0000 -0.3794 -0.9252
vn -0.3511 -0.0000 0.9363
vn -0.7733 0.6341 -0.0000
vn -0.5206 0.8538 -0.0000
vn -0.7083 0.3872 0.5902
vn -0.3663 0.7509 0.5495
vn 0.4865 0.2992 -0.8209
vn 0.6230 0.7822 -0.0000
vn -0.6153 0.7883 -0.0000
vn 0.4745 0.2918 0.8304
vn -0.3663 0.7509 -0.5495
vn -0.7574 0.4140 -0.5049
vn -0.6749 0.7379 -0.0000
vn -0.0624 -0.0000 -0.9981
vn -0.0000 1.0000 -0.0000
vn -0.0000 -1.0000 -0.0000
vn -0.1951 -0.0000 -0.9808
vn -0.3827 -0.0000 -0.9239
vn -0.5556 -0.0000 -0.8315
vn -0.7071 -0.0000 -0.7071
vn -0.8315 -0.0000 -0.5556
vn -0.9239 -0.0000 -0.3827
vn -0.9808 -0.0000 -0.1951
vn -0.9808 -0.0000 0.1951
vn -0.9239 -0.0000 0.3827
vn -0.8315 -0.0000 0.5556
vn -0.7071 -0.0000 0.7071
vn -0.5556 -0.0000 0.8315
vn -0.3827 -0.0000 0.9239
vn -0.1951 -0.0000 0.9808
vn 0.1951 -0.0000 0.9808
vn 0.3827 -0.0000 0.9239
vn 0.5556 -0.0000 0.8315
vn 0.7071 -0.0000 0.7071
vn 0.8315 -0.0000 0.5556
vn 0.9239 -0.0000 0.3827
vn 0.9808 -0.0000 0.1951
vn 0.9808 -0.0000 -0.1951
vn 0.9239 -0.0000 -0.3827
vn 0.8315 -0.0000 -0.5556
vn 0.7071 -0.0000 -0.7071
vn 0.5556 -0.0000 -0.8315
vn 0.3827 -0.0000 -0.9239
vn 0.1951 -0.0000 -0.9808
vn 0.1934 -0.1322 0.9722
vn 0.0238 -0.9925 0.1196
vn 0.1680 -0.5087 0.8444
vn 0.0948 -0.8739 0.4768
vn -0.0000 -0.9925 0.1219
vn -0.0000 -0.1322 0.9912
vn -0.0000 -0.8739 0.4861
vn -0.0000 -0.5087 0.8609
vn 0.3793 -0.1322 0.9158
vn 0.0467 -0.9925 0.1127
vn 0.3295 -0.5087 0.7954
vn 0.1860 -0.8739 0.4491
vn 0.5507 -0.1322 0.8242
vn 0.0677 -0.9925 0.1014
vn 0.4783 -0.5087 0.7158
vn 0.2701 -0.8739 0.4042
vn 0.7009 -0.1322 0.7009
vn 0.0862 -0.9925 0.0862
vn 0.6088 -0.5087 0.6088
vn 0.3437 -0.8739 0.3437
vn 0.8242 -0.1322 0.5507
vn 0.1014 -0.9925 0.0677
vn 0.7158 -0.5087 0.4783
vn 0.4042 -0.8739 0.2701
vn 0.9158 -0.1322 0.3793
vn 0.1127 -0.9925 0.0467
vn 0.7954 -0.5087 0.3295
vn 0.4491 -0.8739 0.1860
vn 0.9722 -0.1322 0.1934
vn 0.1196 -0.9925 0.0238
vn 0.8444 -0.5087 0.1680
vn 0.4768 -0.8739 0.0948
vn 0.9912 -0.1322 -0.0000
vn 0.1219 -0.9925 -0.0000
vn 0.8609 -0.5087 -0.0000
vn 0.4861 -0.8739 -0.0000
vn 0.9722 -0.1322 -0.1934
vn 0.1196 -0.9925 -0.0238
vn 0.8444 -0.5087 -0.1680
vn 0.4768 -0.8739 -0.0948
vn 0.9158 -0.1322 -0.3793
vn 0.1127 -0.9925 -0.0467
vn 0.7954 -0.5087 -0.3295
vn 0.4491 -0.8739 -0.1860
vn 0.8242 -0.1322 -0.5507
vn 0.1014 -0.9925 -0.0677
vn 0.7158 -0.5087 -0.4783
vn 0.4042 -0.8739 -0.2701
vn 0.7009 -0.1322 -0.7009
vn 0.0862 -0.9925 -0.0862
vn 0.6088 -0.5087 -0.6088
vn 0.3437 -0.8739 -0.3437
vn 0.5507 -0.1322 -0.8242
vn 0.0677 -0.9925 -0.1014
vn 0.4783 -0.5087 -0.7158
vn 0.2701 -0.8739 -0.4042
vn 0.3793 -0.1322 -0.9158
vn 0.0467 -0.9925 -0.1127
vn 0.3295 -0.5087 -0.7954
vn 0.1860 -0.8739 -0.4491
vn 0.1934 -0.1322 -0.9722
vn 0.0238 -0.9925 -0.1196
vn 0.1680 -0.5087 -0.8444
vn 0.0948 -0.8739 -0.4768
vn -0.0000 -0.1322 -0.9912
vn -0.0000 -0.9925 -0.1219
vn -0.0000 -0.5087 -0.8609
vn -0.0000 -0.8739 -0.4861
vn -0.1934 -0.1322 -0.9722
vn -0.0238 -0.9925 -0.1196
vn -0.1680 -0.5087 -0.8444
vn -0.0948 -0.8739 -0.4768
vn -0.3793 -0.1322 -0.9158
vn -0.0467 -0.9925 -0.1127
vn -0.3295 -0.5087 -0.7954
vn -0.1860 -0.8739 -0.4491
vn -0.5507 -0.1322 -0.8242
vn -0.0677 -0.9925 -0.1014
vn -0.4783 -0.5087 -0.7158
vn -0.2701 -0.8739 -0.4042
vn -0.7009 -0.1322 -0.7009
vn -0.0862 -0.9925 -0.0862
vn -0.6088 -0.5087 -0.6088
vn -0.3437 -0.8739 -0.3437
vn -0.8242 -0.1322 -0.5507
vn -0.1014 -0.9925 -0.0677
vn -0.7158 -0.5087 -0.4783
vn -0.4042 -0.8739 -0.2701
vn -0.9158 -0.1322 -0.3793
vn -0.1127 -0.9925 -0.0467
vn -0.7954 -0.5087 -0.3295
vn -0.4491 -0.8739 -0.1860
vn -0.9722 -0.1322 -0.1934
vn -0.1196 -0.9925 -0.0238
vn -0.8444 -0.5087 -0.1680
vn -0.4768 -0.8739 -0.0948
vn -0.9912 -0.1322 -0.0000
vn -0.1219 -0.9925 -0.0000
vn -0.8609 -0.5087 -0.0000
vn -0.4861 -0.8739 -0.0000
vn -0.9722 -0.1322 0.1934
vn -0.1196 -0.9925 0.0238
vn -0.8444 -0.5087 0.1680
vn -0.4768 -0.8739 0.0948
vn -0.9158 -0.1322 0.3793
vn -0.1127 -0.9925 0.0467
vn -0.7954 -0.5087 0.3295
vn -0.4491 -0.8739 0.1860
vn -0.8242 -0.1322 0.5507
vn -0.1014 -0.9925 0.0677
vn -0.7158 -0.5087 0.4783
vn -0.4042 -0.8739 0.2701
vn -0.7009 -0.1322 0.7009
vn -0.0862 -0.9925 0.0862
vn -0.6088 -0.5087 0.6088
vn -0.3437 -0.8739 0.3437
vn -0.5507 -0.1322 0.8242
vn -0.0677 -0.9925 0.1014
vn -0.4783 -0.5087 0.7158
vn -0.2701 -0.8739 0.4042
vn -0.3793 -0.1322 0.9158
vn -0.0467 -0.9925 0.1127
vn -0.3295 -0.5087 0.7954
vn -0.1860 -0.8739 0.4491
vn -0.1934 -0.1322 0.9722
vn -0.0238 -0.9925 0.1196
vn -0.1680 -0.5087 0.8444
vn -0.0948 -0.8739 0.4768
vt 0.000000 0.000000
s 1
f 14/1/13 15/1/14 431/1/100 430/1/99
f 45/1/41 44/1/40 140/1/86 141/1/86
f 9/1/8 41/1/37 42/1/38 10/1/9
f 23/1/20 55/1/51 56/1/52 24/1/21
f 10/1/9 42/1/38 43/1/39 11/1/10
f 24/1/21 56/1/52 57/1/53 25/1/22
f 11/1/10 43/1/39 44/1/40 12/1/11
f 25/1/22 57/1/53 58/1/54 26/1/23
f 12/1/11 44/1/40 45/1/41 13/1/12
f 26/1/23 58/1/54 59/1/55 27/1/24
f 13/1/12 45/1/41 46/1/42 14/1/13
f 27/1/24 59/1/55 60/1/56 28/1/25
f 14/1/13 46/1/42 47/1/43 15/1/14
f 1/1/1 33/1/29 34/1/30 2/1/2
f 28/1/25 60/1/56 61/1/57 29/1/1
f 15/1/14 47/1/43 48/1/44 16/1/15
f 2/1/2 34/1/30 35/1/31 3/1/3
f 29/1/1 61/1/57 62/1/58 30/1/26
f 16/1/15 48/1/44 49/1/45 17/1/12
f 3/1/3 35/1/31 36/1/32 4/1/4
f 30/1/26 62/1/58 63/1/59 31/1/27
f 17/1/12 49/1/45 50/1/46 18/1/16
f 4/1/4 36/1/32 37/1/33 5/1/1
f 31/1/27 63/1/59 64/1/60 32/1/28
f 18/1/16 50/1/46 51/1/47 19/1/17
f 5/1/1 37/1/33 38/1/34 6/1/5
f 32/1/28 64/1/60 33/1/29 1/1/1
f 19/1/17 51/1/47 52/1/48 20/1/18
f 6/1/5 38/1/34 39/1/35 7/1/6
f 20/1/18 52/1/48 53/1/49 21/1/12
f 7/1/6 39/1/35 40/1/36 8/1/7
f 21/1/12 53/1/49 54/1/50 22/1/19
f 8/1/7 40/1/36 41/1/37 9/1/8
f 22/1/19 54/1/50 55/1/51 23/1/20
f 193/1/87 195/1/87 745/1/87 737/1/87
f 116/1/75 117/1/76 469/1/91 468/1/90
f 73/1/53 74/1/54 106/1/68 105/1/67
f 87/1/35 88/1/36 120/1/79 119/1/78
f 74/1/54 75/1/55 107/1/69 106/1/68
f 88/1/36 89/1/37 121/1/80 120/1/79
f 75/1/55 76/1/56 108/1/70 107/1/69
f 89/1/37 90/1/38 122/1/79 121/1/80
f 76/1/56 77/1/57 109/1/71 108/1/70
f 90/1/38 91/1/39 123/1/81 122/1/79
f 77/1/57 78/1/58 110/1/72 109/1/71
f 91/1/39 92/1/40 124/1/82 123/1/81
f 78/1/58 79/1/59 111/1/22 110/1/72
f 65/1/45 66/1/46 98/1/4 97/1/61
f 92/1/40 93/1/41 125/1/83 124/1/82
f 79/1/59 80/1/60 112/1/14 111/1/22
f 66/1/46 67/1/47 99/1/22 98/1/4
f 93/1/41 94/1/42 126/1/84 125/1/83
f 80/1/60 81/1/29 113/1/73 112/1/14
f 67/1/47 68/1/48 100/1/62 99/1/22
f 94/1/42 95/1/43 127/1/84 126/1/84
f 81/1/29 82/1/30 114/1/12 113/1/73
f 68/1/48 69/1/49 101/1/63 100/1/62
f 95/1/43 96/1/44 128/1/85 127/1/84
f 82/1/30 83/1/31 115/1/74 114/1/12
f 69/1/49 70/1/50 102/1/64 101/1/63
f 96/1/44 65/1/45 97/1/61 128/1/85
f 83/1/31 84/1/32 116/1/75 115/1/74
f 70/1/50 71/1/51 103/1/65 102/1/64
f 84/1/32 85/1/33 117/1/76 116/1/75
f 71/1/51 72/1/52 104/1/66 103/1/65
f 85/1/33 86/1/34 118/1/77 117/1/76
f 72/1/52 73/1/53 105/1/67 104/1/66
f 86/1/34 87/1/35 119/1/78 118/1/77
f 155/1/86 154/1/86 186/1/86 187/1/86
f 59/1/55 58/1/54 154/1/86 155/1/86
f 46/1/42 45/1/41 141/1/86 142/1/86
f 60/1/56 59/1/55 155/1/86 156/1/86
f 47/1/43 46/1/42 142/1/86 143/1/86
f 34/1/30 33/1/29 130/1/86 129/1/86
f 61/1/57 60/1/56 156/1/86 157/1/86
f 48/1/44 47/1/43 143/1/86 144/1/86
f 35/1/31 34/1/30 129/1/86 131/1/86
f 62/1/58 61/1/57 157/1/86 158/1/86
f 49/1/45 48/1/44 144/1/86 145/1/86
f 36/1/32 35/1/31 131/1/86 132/1/86
f 63/1/59 62/1/58 158/1/86 159/1/86
f 50/1/46 49/1/45 145/1/86 146/1/86
f 37/1/33 36/1/32 132/1/86 133/1/86
f 64/1/60 63/1/59 159/1/86 160/1/86
f 51/1/47 50/1/46 146/1/86 147/1/86
f 38/1/34 37/1/33 133/1/86 134/1/86
f 33/1/29 64/1/60 160/1/86 130/1/86
f 52/1/48 51/1/47 147/1/86 148/1/86
f 39/1/35 38/1/34 134/1/86 135/1/86
f 53/1/49 52/1/48 148/1/86 149/1/86
f 40/1/36 39/1/35 135/1/86 136/1/86
f 54/1/50 53/1/49 149/1/86 150/1/86
f 41/1/37 40/1/36 136/1/86 137/1/86
f 55/1/51 54/1/50 150/1/86 151/1/86
f 42/1/38 41/1/37 137/1/86 138/1/86
f 56/1/52 55/1/51 151/1/86 152/1/86
f 43/1/39 42/1/38 138/1/86 139/1/86
f 57/1/53 56/1/52 152/1/86 153/1/86
f 44/1/40 43/1/39 139/1/86 140/1/86
f 58/1/54 57/1/53 153/1/86 154/1/86
f 220/1/87 221/1/87 849/1/87 845/1/87
f 142/1/86 141/1/86 173/1/86 174/1/86
f 156/1/86 155/1/86 187/1/86 188/1/86
f 143/1/86 142/1/86 174/1/86 175/1/86
f 129/1/86 130/1/86 162/1/86 161/1/86
f 157/1/86 156/1/86 188/1/86 189/1/86
f 144/1/86 143/1/86 175/1/86 176/1/86
f 131/1/86 129/1/86 161/1/86 163/1/86
f 158/1/86 157/1/86 189/1/86 190/1/86
f 145/1/86 144/1/86 176/1/86 177/1/86
f 132/1/86 131/1/86 163/1/86 164/1/86
f 159/1/86 158/1/86 190/1/86 191/1/86
f 146/1/86 145/1/86 177/1/86 178/1/86
f 133/1/86 132/1/86 164/1/86 165/1/86
f 160/1/86 159/1/86 191/1/86 192/1/86
f 147/1/86 146/1/86 178/1/86 179/1/86
f 134/1/86 133/1/86 165/1/86 166/1/86
f 130/1/86 160/1/86 192/1/86 162/1/86
f 148/1/86 147/1/86 179/1/86 180/1/86
f 135/1/86 134/1/86 166/1/86 167/1/86
f 149/1/86 148/1/86 180/1/86 181/1/86
f 136/1/86 135/1/86 167/1/86 168/1/86
f 150/1/86 149/1/86 181/1/86 182/1/86
f 137/1/86 136/1/86 168/1/86 169/1/86
f 151/1/86 150/1/86 182/1/86 183/1/86
f 138/1/86 137/1/86 169/1/86 170/1/86
f 152/1/86 151/1/86 183/1/86 184/1/86
f 139/1/86 138/1/86 170/1/86 171/1/86
f 153/1/86 152/1/86 184/1/86 185/1/86
f 140/1/86 139/1/86 171/1/86 172/1/86
f 154/1/86 153/1/86 185/1/86 186/1/86
f 141/1/86 140/1/86 172/1/86 173/1/86
f 573/1/208 569/1/204 407/1/51 408/1/52
f 202/1/87 201/1/87 233/1/86 234/1/86
f 96/1/44 95/1/43 730/1/86 734/1/86
f 70/1/50 69/1/49 626/1/86 630/1/86
f 221/1/87 222/1/87 853/1/87 849/1/87
f 161/1/86 162/1/86 741/1/86 738/1/86
f 194/1/87 193/1/87 737/1/87 742/1/87
f 71/1/51 70/1/50 630/1/86 634/1/86
f 222/1/87 223/1/87 857/1/87 853/1/87
f 68/1/48 67/1/47 618/1/86 622/1/86
f 196/1/87 197/1/87 753/1/87 749/1/87
f 72/1/52 71/1/51 634/1/86 638/1/86
f 223/1/87 224/1/87 861/1/87 857/1/87
f 197/1/87 198/1/87 757/1/87 753/1/87
f 73/1/53 72/1/52 638/1/86 642/1/86
f 865/1/88 870/1/1 354/1/1 353/1/88
f 198/1/87 199/1/87 761/1/87 757/1/87
f 74/1/54 73/1/53 642/1/86 646/1/86
f 195/1/87 196/1/87 749/1/87 745/1/87
f 199/1/87 200/1/87 765/1/87 761/1/87
f 75/1/55 74/1/54 646/1/86 650/1/86
f 200/1/87 201/1/87 769/1/87 765/1/87
f 76/1/56 75/1/55 650/1/86 654/1/86
f 201/1/87 202/1/87 773/1/87 769/1/87
f 77/1/57 76/1/56 654/1/86 658/1/86
f 202/1/87 203/1/87 777/1/87 773/1/87
f 78/1/58 77/1/57 658/1/86 662/1/86
f 203/1/87 204/1/87 781/1/87 777/1/87
f 79/1/59 78/1/58 662/1/86 666/1/86
f 204/1/87 205/1/87 785/1/87 781/1/87
f 80/1/60 79/1/59 666/1/86 670/1/86
f 205/1/87 206/1/87 789/1/87 785/1/87
f 81/1/29 80/1/60 670/1/86 674/1/86
f 206/1/87 207/1/87 793/1/87 789/1/87
f 82/1/30 81/1/29 674/1/86 678/1/86
f 207/1/87 208/1/87 797/1/87 793/1/87
f 83/1/31 82/1/30 678/1/86 682/1/86
f 208/1/87 209/1/87 801/1/87 797/1/87
f 84/1/32 83/1/31 682/1/86 686/1/86
f 209/1/87 210/1/87 805/1/87 801/1/87
f 85/1/33 84/1/32 686/1/86 690/1/86
f 210/1/87 211/1/87 809/1/87 805/1/87
f 86/1/34 85/1/33 690/1/86 694/1/86
f 211/1/87 212/1/87 813/1/87 809/1/87
f 87/1/35 86/1/34 694/1/86 698/1/86
f 212/1/87 213/1/87 817/1/87 813/1/87
f 88/1/36 87/1/35 698/1/86 702/1/86
f 213/1/87 214/1/87 821/1/87 817/1/87
f 89/1/37 88/1/36 702/1/86 706/1/86
f 214/1/87 215/1/87 825/1/87 821/1/87
f 90/1/38 89/1/37 706/1/86 710/1/86
f 215/1/87 216/1/87 829/1/87 825/1/87
f 91/1/39 90/1/38 710/1/86 714/1/86
f 216/1/87 217/1/87 833/1/87 829/1/87
f 92/1/40 91/1/39 714/1/86 718/1/86
f 217/1/87 218/1/87 837/1/87 833/1/87
f 93/1/41 92/1/40 718/1/86 722/1/86
f 67/1/47 66/1/46 610/1/86 618/1/86
f 218/1/87 219/1/87 841/1/87 837/1/87
f 94/1/42 93/1/41 722/1/86 726/1/86
f 65/1/45 96/1/44 734/1/86 613/1/86
f 219/1/87 220/1/87 845/1/87 841/1/87
f 95/1/43 94/1/42 726/1/86 730/1/86
f 69/1/49 68/1/48 622/1/86 626/1/86
f 489/1/124 481/1/116 385/1/30 387/1/31
f 485/1/120 482/1/117 609/1/87 614/1/87
f 497/1/132 493/1/128 388/1/32 389/1/33
f 501/1/136 497/1/132 389/1/33 390/1/34
f 505/1/140 501/1/136 390/1/34 391/1/35
f 509/1/144 505/1/140 391/1/35 392/1/36
f 513/1/148 509/1/144 392/1/36 393/1/37
f 517/1/152 513/1/148 393/1/37 394/1/38
f 521/1/156 517/1/152 394/1/38 395/1/39
f 525/1/160 521/1/156 395/1/39 396/1/40
f 529/1/164 525/1/160 396/1/40 397/1/41
f 533/1/168 529/1/164 397/1/41 398/1/42
f 537/1/172 533/1/168 398/1/42 399/1/43
f 541/1/176 537/1/172 399/1/43 400/1/44
f 545/1/180 541/1/176 400/1/44 401/1/45
f 549/1/184 545/1/180 401/1/45 402/1/46
f 553/1/188 549/1/184 402/1/46 403/1/47
f 557/1/192 553/1/188 403/1/47 404/1/48
f 561/1/196 557/1/192 404/1/48 405/1/49
f 565/1/200 561/1/196 405/1/49 406/1/50
f 566/1/201 570/1/205 697/1/87 693/1/87
f 569/1/204 565/1/200 406/1/50 407/1/51
f 577/1/212 573/1/208 408/1/52 409/1/53
f 581/1/216 577/1/212 409/1/53 410/1/54
f 585/1/220 581/1/216 410/1/54 411/1/55
f 589/1/224 585/1/220 411/1/55 412/1/56
f 593/1/228 589/1/224 412/1/56 413/1/57
f 597/1/232 593/1/228 413/1/57 414/1/58
f 601/1/236 597/1/232 414/1/58 415/1/59
f 605/1/240 601/1/236 415/1/59 416/1/60
f 66/1/46 65/1/45 613/1/86 610/1/86
f 493/1/128 489/1/124 387/1/31 388/1/32
f 163/1/86 161/1/86 738/1/86 746/1/86
f 224/1/87 194/1/87 742/1/87 861/1/87
f 164/1/86 163/1/86 746/1/86 750/1/86
f 165/1/86 164/1/86 750/1/86 754/1/86
f 166/1/86 165/1/86 754/1/86 758/1/86
f 167/1/86 166/1/86 758/1/86 762/1/86
f 168/1/86 167/1/86 762/1/86 766/1/86
f 169/1/86 168/1/86 766/1/86 770/1/86
f 170/1/86 169/1/86 770/1/86 774/1/86
f 171/1/86 170/1/86 774/1/86 778/1/86
f 172/1/86 171/1/86 778/1/86 782/1/86
f 173/1/86 172/1/86 782/1/86 786/1/86
f 174/1/86 173/1/86 786/1/86 790/1/86
f 175/1/86 174/1/86 790/1/86 794/1/86
f 176/1/86 175/1/86 794/1/86 798/1/86
f 177/1/86 176/1/86 798/1/86 802/1/86
f 178/1/86 177/1/86 802/1/86 806/1/86
f 179/1/86 178/1/86 806/1/86 810/1/86
f 180/1/86 179/1/86 810/1/86 814/1/86
f 181/1/86 180/1/86 814/1/86 818/1/86
f 182/1/86 181/1/86 818/1/86 822/1/86
f 183/1/86 182/1/86 822/1/86 826/1/86
f 184/1/86 183/1/86 826/1/86 830/1/86
f 185/1/86 184/1/86 830/1/86 834/1/86
f 186/1/86 185/1/86 834/1/86 838/1/86
f 187/1/86 186/1/86 838/1/86 842/1/86
f 188/1/86 187/1/86 842/1/86 846/1/86
f 189/1/86 188/1/86 846/1/86 850/1/86
f 190/1/86 189/1/86 850/1/86 854/1/86
f 191/1/86 190/1/86 854/1/86 858/1/86
f 192/1/86 191/1/86 858/1/86 862/1/86
f 162/1/86 192/1/86 862/1/86 741/1/86
f 245/1/86 244/1/86 276/1/86 277/1/86
f 216/1/87 215/1/87 247/1/86 248/1/86
f 203/1/87 202/1/87 234/1/86 235/1/86
f 217/1/87 216/1/87 248/1/86 249/1/86
f 204/1/87 203/1/87 235/1/86 236/1/86
f 218/1/87 217/1/87 249/1/86 250/1/86
f 205/1/87 204/1/87 236/1/86 237/1/86
f 219/1/87 218/1/87 250/1/86 251/1/86
f 206/1/87 205/1/87 237/1/86 238/1/86
f 220/1/87 219/1/87 251/1/86 252/1/86
f 207/1/87 206/1/87 238/1/86 239/1/86
f 193/1/87 194/1/87 226/1/86 225/1/86
f 221/1/87 220/1/87 252/1/86 253/1/86
f 208/1/87 207/1/87 239/1/86 240/1/86
f 195/1/87 193/1/87 225/1/86 227/1/86
f 222/1/87 221/1/87 253/1/86 254/1/86
f 209/1/87 208/1/87 240/1/86 241/1/86
f 196/1/87 195/1/87 227/1/86 228/1/86
f 223/1/87 222/1/87 254/1/86 255/1/86
f 210/1/87 209/1/87 241/1/86 242/1/86
f 197/1/87 196/1/87 228/1/86 229/1/86
f 224/1/87 223/1/87 255/1/86 256/1/86
f 211/1/87 210/1/87 242/1/86 243/1/86
f 198/1/87 197/1/87 229/1/86 230/1/86
f 194/1/87 224/1/87 256/1/86 226/1/86
f 212/1/87 211/1/87 243/1/86 244/1/86
f 199/1/87 198/1/87 230/1/86 231/1/86
f 213/1/87 212/1/87 244/1/86 245/1/86
f 200/1/87 199/1/87 231/1/86 232/1/86
f 214/1/87 213/1/87 245/1/86 246/1/86
f 201/1/87 200/1/87 232/1/86 233/1/86
f 215/1/87 214/1/87 246/1/86 247/1/86
f 280/1/86 279/1/86 311/1/86 312/1/86
f 232/1/86 231/1/86 263/1/86 264/1/86
f 246/1/86 245/1/86 277/1/86 278/1/86
f 233/1/86 232/1/86 264/1/86 265/1/86
f 247/1/86 246/1/86 278/1/86 279/1/86
f 234/1/86 233/1/86 265/1/86 266/1/86
f 248/1/86 247/1/86 279/1/86 280/1/86
f 235/1/86 234/1/86 266/1/86 267/1/86
f 249/1/86 248/1/86 280/1/86 281/1/86
f 236/1/86 235/1/86 267/1/86 268/1/86
f 250/1/86 249/1/86 281/1/86 282/1/86
f 237/1/86 236/1/86 268/1/86 269/1/86
f 251/1/86 250/1/86 282/1/86 283/1/86
f 238/1/86 237/1/86 269/1/86 270/1/86
f 252/1/86 251/1/86 283/1/86 284/1/86
f 239/1/86 238/1/86 270/1/86 271/1/86
f 225/1/86 226/1/86 258/1/86 257/1/86
f 253/1/86 252/1/86 284/1/86 285/1/86
f 240/1/86 239/1/86 271/1/86 272/1/86
f 227/1/86 225/1/86 257/1/86 259/1/86
f 254/1/86 253/1/86 285/1/86 286/1/86
f 241/1/86 240/1/86 272/1/86 273/1/86
f 228/1/86 227/1/86 259/1/86 260/1/86
f 255/1/86 254/1/86 286/1/86 287/1/86
f 242/1/86 241/1/86 273/1/86 274/1/86
f 229/1/86 228/1/86 260/1/86 261/1/86
f 256/1/86 255/1/86 287/1/86 288/1/86
f 243/1/86 242/1/86 274/1/86 275/1/86
f 230/1/86 229/1/86 261/1/86 262/1/86
f 226/1/86 256/1/86 288/1/86 258/1/86
f 244/1/86 243/1/86 275/1/86 276/1/86
f 231/1/86 230/1/86 262/1/86 263/1/86
f 315/1/86 314/1/86 346/1/86 347/1/86
f 267/1/86 266/1/86 298/1/86 299/1/86
f 281/1/86 280/1/86 312/1/86 313/1/86
f 268/1/86 267/1/86 299/1/86 300/1/86
f 282/1/86 281/1/86 313/1/86 314/1/86
f 269/1/86 268/1/86 300/1/86 301/1/86
f 283/1/86 282/1/86 314/1/86 315/1/86
f 270/1/86 269/1/86 301/1/86 302/1/86
f 284/1/86 283/1/86 315/1/86 316/1/86
f 271/1/86 270/1/86 302/1/86 303/1/86
f 257/1/86 258/1/86 290/1/86 289/1/86
f 285/1/86 284/1/86 316/1/86 317/1/86
f 272/1/86 271/1/86 303/1/86 304/1/86
f 259/1/86 257/1/86 289/1/86 291/1/86
f 286/1/86 285/1/86 317/1/86 318/1/86
f 273/1/86 272/1/86 304/1/86 305/1/86
f 260/1/86 259/1/86 291/1/86 292/1/86
f 287/1/86 286/1/86 318/1/86 319/1/86
f 274/1/86 273/1/86 305/1/86 306/1/86
f 261/1/86 260/1/86 292/1/86 293/1/86
f 288/1/86 287/1/86 319/1/86 320/1/86
f 275/1/86 274/1/86 306/1/86 307/1/86
f 262/1/86 261/1/86 293/1/86 294/1/86
f 258/1/86 288/1/86 320/1/86 290/1/86
f 276/1/86 275/1/86 307/1/86 308/1/86
f 263/1/86 262/1/86 294/1/86 295/1/86
f 277/1/86 276/1/86 308/1/86 309/1/86
f 264/1/86 263/1/86 295/1/86 296/1/86
f 278/1/86 277/1/86 309/1/86 310/1/86
f 265/1/86 264/1/86 296/1/86 297/1/86
f 279/1/86 278/1/86 310/1/86 311/1/86
f 266/1/86 265/1/86 297/1/86 298/1/86
f 985/1/114 981/1/113 382/1/113 383/1/114
f 302/1/86 301/1/86 333/1/86 334/1/86
f 316/1/86 315/1/86 347/1/86 348/1/86
f 303/1/86 302/1/86 334/1/86 335/1/86
f 289/1/86 290/1/86 322/1/86 321/1/86
f 317/1/86 316/1/86 348/1/86 349/1/86
f 304/1/86 303/1/86 335/1/86 336/1/86
f 291/1/86 289/1/86 321/1/86 323/1/86
f 318/1/86 317/1/86 349/1/86 350/1/86
f 305/1/86 304/1/86 336/1/86 337/1/86
f 292/1/86 291/1/86 323/1/86 324/1/86
f 319/1/86 318/1/86 350/1/86 351/1/86
f 306/1/86 305/1/86 337/1/86 338/1/86
f 293/1/86 292/1/86 324/1/86 325/1/86
f 320/1/86 319/1/86 351/1/86 352/1/86
f 307/1/86 306/1/86 338/1/86 339/1/86
f 294/1/86 293/1/86 325/1/86 326/1/86
f 290/1/86 320/1/86 352/1/86 322/1/86
f 308/1/86 307/1/86 339/1/86 340/1/86
f 295/1/86 294/1/86 326/1/86 327/1/86
f 309/1/86 308/1/86 340/1/86 341/1/86
f 296/1/86 295/1/86 327/1/86 328/1/86
f 310/1/86 309/1/86 341/1/86 342/1/86
f 297/1/86 296/1/86 328/1/86 329/1/86
f 311/1/86 310/1/86 342/1/86 343/1/86
f 298/1/86 297/1/86 329/1/86 330/1/86
f 312/1/86 311/1/86 343/1/86 344/1/86
f 299/1/86 298/1/86 330/1/86 331/1/86
f 313/1/86 312/1/86 344/1/86 345/1/86
f 300/1/86 299/1/86 331/1/86 332/1/86
f 314/1/86 313/1/86 345/1/86 346/1/86
f 301/1/86 300/1/86 332/1/86 333/1/86
f 877/1/90 873/1/89 355/1/89 356/1/90
f 933/1/102 929/1/12 369/1/12 370/1/102
f 881/1/91 877/1/90 356/1/90 357/1/91
f 989/1/115 985/1/114 383/1/114 384/1/115
f 937/1/103 933/1/102 370/1/102 371/1/103
f 885/1/92 881/1/91 357/1/91 358/1/92
f 941/1/104 937/1/103 371/1/103 372/1/104
f 889/1/93 885/1/92 358/1/92 359/1/93
f 870/1/1 989/1/115 384/1/115 354/1/1
f 945/1/105 941/1/104 372/1/104 373/1/105
f 893/1/94 889/1/93 359/1/93 360/1/94
f 949/1/106 945/1/105 373/1/105 374/1/106
f 897/1/8 893/1/94 360/1/94 361/1/8
f 953/1/107 949/1/106 374/1/106 375/1/107
f 901/1/95 897/1/8 361/1/8 362/1/95
f 957/1/108 953/1/107 375/1/107 376/1/108
f 905/1/96 901/1/95 362/1/95 363/1/96
f 961/1/22 957/1/108 376/1/108 377/1/22
f 909/1/97 905/1/96 363/1/96 364/1/97
f 965/1/109 961/1/22 377/1/22 378/1/109
f 913/1/98 909/1/97 364/1/97 365/1/98
f 969/1/110 965/1/109 378/1/109 379/1/110
f 917/1/99 913/1/98 365/1/98 366/1/99
f 973/1/111 969/1/110 379/1/110 380/1/111
f 921/1/100 917/1/99 366/1/99 367/1/100
f 977/1/112 973/1/111 380/1/111 381/1/112
f 925/1/101 921/1/100 367/1/100 368/1/101
f 873/1/89 865/1/88 353/1/88 355/1/89
f 981/1/113 977/1/112 381/1/112 382/1/113
f 929/1/12 925/1/101 368/1/101 369/1/12
f 321/1/86 322/1/86 869/1/45 866/1/46
f 340/1/86 339/1/86 938/1/31 942/1/32
f 327/1/86 326/1/86 886/1/50 890/1/51
f 341/1/86 340/1/86 942/1/32 946/1/33
f 328/1/86 327/1/86 890/1/51 894/1/52
f 342/1/86 341/1/86 946/1/33 950/1/34
f 329/1/86 328/1/86 894/1/52 898/1/53
f 343/1/86 342/1/86 950/1/34 954/1/35
f 330/1/86 329/1/86 898/1/53 902/1/54
f 344/1/86 343/1/86 954/1/35 958/1/36
f 331/1/86 330/1/86 902/1/54 906/1/55
f 345/1/86 344/1/86 958/1/36 962/1/37
f 332/1/86 331/1/86 906/1/55 910/1/56
f 346/1/86 345/1/86 962/1/37 966/1/38
f 333/1/86 332/1/86 910/1/56 914/1/57
f 347/1/86 346/1/86 966/1/38 970/1/39
f 334/1/86 333/1/86 914/1/57 918/1/58
f 348/1/86 347/1/86 970/1/39 974/1/40
f 335/1/86 334/1/86 918/1/58 922/1/59
f 323/1/86 321/1/86 866/1/46 874/1/47
f 349/1/86 348/1/86 974/1/40 978/1/41
f 336/1/86 335/1/86 922/1/59 926/1/60
f 322/1/86 352/1/86 990/1/44 869/1/45
f 350/1/86 349/1/86 978/1/41 982/1/42
f 337/1/86 336/1/86 926/1/60 930/1/29
f 324/1/86 323/1/86 874/1/47 878/1/48
f 351/1/86 350/1/86 982/1/42 986/1/43
f 338/1/86 337/1/86 930/1/29 934/1/30
f 325/1/86 324/1/86 878/1/48 882/1/49
f 352/1/86 351/1/86 986/1/43 990/1/44
f 339/1/86 338/1/86 934/1/30 938/1/31
f 326/1/86 325/1/86 882/1/49 886/1/50
f 514/1/149 518/1/153 645/1/87 641/1/87
f 570/1/205 574/1/209 701/1/87 697/1/87
f 518/1/153 522/1/157 649/1/87 645/1/87
f 574/1/209 578/1/213 705/1/87 701/1/87
f 522/1/157 526/1/161 653/1/87 649/1/87
f 578/1/213 582/1/217 709/1/87 705/1/87
f 526/1/161 530/1/165 657/1/87 653/1/87
f 582/1/217 586/1/221 713/1/87 709/1/87
f 530/1/165 534/1/169 661/1/87 657/1/87
f 586/1/221 590/1/225 717/1/87 713/1/87
f 534/1/169 538/1/173 665/1/87 661/1/87
f 482/1/117 490/1/125 617/1/87 609/1/87
f 590/1/225 594/1/229 721/1/87 717/1/87
f 538/1/173 542/1/177 669/1/87 665/1/87
f 486/1/121 605/1/240 416/1/60 386/1/29
f 594/1/229 598/1/233 725/1/87 721/1/87
f 542/1/177 546/1/181 673/1/87 669/1/87
f 490/1/125 494/1/129 621/1/87 617/1/87
f 598/1/233 602/1/237 729/1/87 725/1/87
f 546/1/181 550/1/185 677/1/87 673/1/87
f 494/1/129 498/1/133 625/1/87 621/1/87
f 602/1/237 606/1/241 733/1/87 729/1/87
f 550/1/185 554/1/189 681/1/87 677/1/87
f 498/1/133 502/1/137 629/1/87 625/1/87
f 606/1/241 485/1/120 614/1/87 733/1/87
f 554/1/189 558/1/193 685/1/87 681/1/87
f 502/1/137 506/1/141 633/1/87 629/1/87
f 558/1/193 562/1/197 689/1/87 685/1/87
f 506/1/141 510/1/145 637/1/87 633/1/87
f 562/1/197 566/1/201 693/1/87 689/1/87
f 510/1/145 514/1/149 641/1/87 637/1/87
f 1/1/1 2/1/2 417/1/88 418/1/1
f 28/1/25 29/1/1 445/1/112 444/1/111
f 15/1/14 16/1/15 432/1/101 431/1/100
f 2/1/2 3/1/3 419/1/89 417/1/88
f 29/1/1 30/1/26 446/1/113 445/1/112
f 16/1/15 17/1/12 433/1/12 432/1/101
f 3/1/3 4/1/4 420/1/90 419/1/89
f 30/1/26 31/1/27 447/1/114 446/1/113
f 17/1/12 18/1/16 434/1/102 433/1/12
f 4/1/4 5/1/1 421/1/91 420/1/90
f 31/1/27 32/1/28 448/1/115 447/1/114
f 18/1/16 19/1/17 435/1/103 434/1/102
f 5/1/1 6/1/5 422/1/92 421/1/91
f 32/1/28 1/1/1 418/1/1 448/1/115
f 19/1/17 20/1/18 436/1/104 435/1/103
f 6/1/5 7/1/6 423/1/93 422/1/92
f 20/1/18 21/1/12 437/1/105 436/1/104
f 7/1/6 8/1/7 424/1/94 423/1/93
f 21/1/12 22/1/19 438/1/106 437/1/105
f 8/1/7 9/1/8 425/1/8 424/1/94
f 22/1/19 23/1/20 439/1/107 438/1/106
f 9/1/8 10/1/9 426/1/95 425/1/8
f 23/1/20 24/1/21 440/1/108 439/1/107
f 10/1/9 11/1/10 427/1/96 426/1/95
f 24/1/21 25/1/22 441/1/22 440/1/108
f 11/1/10 12/1/11 428/1/97 427/1/96
f 25/1/22 26/1/23 442/1/109 441/1/22
f 12/1/11 13/1/12 429/1/98 428/1/97
f 26/1/23 27/1/24 443/1/110 442/1/109
f 13/1/12 14/1/13 430/1/99 429/1/98
f 27/1/24 28/1/25 444/1/111 443/1/110
f 103/1/65 104/1/66 456/1/108 455/1/107
f 117/1/76 118/1/77 470/1/92 469/1/91
f 104/1/66 105/1/67 457/1/22 456/1/108
f 118/1/77 119/1/78 471/1/93 470/1/92
f 105/1/67 106/1/68 458/1/109 457/1/22
f 119/1/78 120/1/79 472/1/94 471/1/93
f 106/1/68 107/1/69 459/1/110 458/1/109
f 120/1/79 121/1/80 473/1/8 472/1/94
f 107/1/69 108/1/70 460/1/111 459/1/110
f 121/1/80 122/1/79 474/1/95 473/1/8
f 108/1/70 109/1/71 461/1/112 460/1/111
f 122/1/79 123/1/81 475/1/96 474/1/95
f 109/1/71 110/1/72 462/1/113 461/1/112
f 123/1/81 124/1/82 476/1/97 475/1/96
f 110/1/72 111/1/22 463/1/114 462/1/113
f 97/1/61 98/1/4 449/1/102 450/1/12
f 124/1/82 125/1/83 477/1/98 476/1/97
f 111/1/22 112/1/14 464/1/115 463/1/114
f 98/1/4 99/1/22 451/1/103 449/1/102
f 125/1/83 126/1/84 478/1/99 477/1/98
f 112/1/14 113/1/73 465/1/1 464/1/115
f 99/1/22 100/1/62 452/1/104 451/1/103
f 126/1/84 127/1/84 479/1/100 478/1/99
f 113/1/73 114/1/12 466/1/88 465/1/1
f 100/1/62 101/1/63 453/1/105 452/1/104
f 127/1/84 128/1/85 480/1/101 479/1/100
f 114/1/12 115/1/74 467/1/89 466/1/88
f 101/1/63 102/1/64 454/1/106 453/1/105
f 128/1/85 97/1/61 450/1/12 480/1/101
f 115/1/74 116/1/75 468/1/90 467/1/89
f 102/1/64 103/1/65 455/1/107 454/1/106
f 610/1/86 613/1/86 615/1/87 612/1/87
f 612/1/87 615/1/87 616/1/87 611/1/87
f 611/1/87 616/1/87 614/1/87 609/1/87
f 618/1/86 610/1/86 612/1/87 620/1/87
f 620/1/87 612/1/87 611/1/87 619/1/87
f 619/1/87 611/1/87 609/1/87 617/1/87
f 622/1/86 618/1/86 620/1/87 624/1/87
f 624/1/87 620/1/87 619/1/87 623/1/87
f 623/1/87 619/1/87 617/1/87 621/1/87
f 626/1/86 622/1/86 624/1/87 628/1/87
f 628/1/87 624/1/87 623/1/87 627/1/87
f 627/1/87 623/1/87 621/1/87 625/1/87
f 630/1/86 626/1/86 628/1/87 632/1/87
f 632/1/87 628/1/87 627/1/87 631/1/87
f 631/1/87 627/1/87 625/1/87 629/1/87
f 634/1/86 630/1/86 632/1/87 636/1/87
f 636/1/87 632/1/87 631/1/87 635/1/87
f 635/1/87 631/1/87 629/1/87 633/1/87
f 638/1/86 634/1/86 636/1/87 640/1/87
f 640/1/87 636/1/87 635/1/87 639/1/87
f 639/1/87 635/1/87 633/1/87 637/1/87
f 642/1/86 638/1/86 640/1/87 644/1/87
f 644/1/87 640/1/87 639/1/87 643/1/87
f 643/1/87 639/1/87 637/1/87 641/1/87
f 646/1/86 642/1/86 644/1/87 648/1/87
f 648/1/87 644/1/87 643/1/87 647/1/87
f 647/1/87 643/1/87 641/1/87 645/1/87
f 650/1/86 646/1/86 648/1/87 652/1/87
f 652/1/87 648/1/87 647/1/87 651/1/87
f 651/1/87 647/1/87 645/1/87 649/1/87
f 654/1/86 650/1/86 652/1/87 656/1/87
f 656/1/87 652/1/87 651/1/87 655/1/87
f 655/1/87 651/1/87 649/1/87 653/1/87
f 658/1/86 654/1/86 656/1/87 660/1/87
f 660/1/87 656/1/87 655/1/87 659/1/87
f 659/1/87 655/1/87 653/1/87 657/1/87
f 662/1/86 658/1/86 660/1/87 664/1/87
f 664/1/87 660/1/87 659/1/87 663/1/87
f 663/1/87 659/1/87 657/1/87 661/1/87
f 666/1/86 662/1/86 664/1/87 668/1/87
f 668/1/87 664/1/87 663/1/87 667/1/87
f 667/1/87 663/1/87 661/1/87 665/1/87
f 670/1/86 666/1/86 668/1/87 672/1/87
f 672/1/87 668/1/87 667/1/87 671/1/87
f 671/1/87 667/1/87 665/1/87 669/1/87
f 674/1/86 670/1/86 672/1/87 676/1/87
f 676/1/87 672/1/87 671/1/87 675/1/87
f 675/1/87 671/1/87 669/1/87 673/1/87
f 678/1/86 674/1/86 676/1/87 680/1/87
f 680/1/87 676/1/87 675/1/87 679/1/87
f 679/1/87 675/1/87 673/1/87 677/1/87
f 682/1/86 678/1/86 680/1/87 684/1/87
f 684/1/87 680/1/87 679/1/87 683/1/87
f 683/1/87 679/1/87 677/1/87 681/1/87
f 686/1/86 682/1/86 684/1/87 688/1/87
f 688/1/87 684/1/87 683/1/87 687/1/87
f 687/1/87 683/1/87 681/1/87 685/1/87
f 690/1/86 686/1/86 688/1/87 692/1/87
f 692/1/87 688/1/87 687/1/87 691/1/87
f 691/1/87 687/1/87 685/1/87 689/1/87
f 694/1/86 690/1/86 692/1/87 696/1/87
f 696/1/87 692/1/87 691/1/87 695/1/87
f 695/1/87 691/1/87 689/1/87 693/1/87
f 698/1/86 694/1/86 696/1/87 700/1/87
f 700/1/87 696/1/87 695/1/87 699/1/87
f 699/1/87 695/1/87 693/1/87 697/1/87
f 702/1/86 698/1/86 700/1/87 704/1/87
f 704/1/87 700/1/87 699/1/87 703/1/87
f 703/1/87 699/1/87 697/1/87 701/1/87
f 706/1/86 702/1/86 704/1/87 708/1/87
f 708/1/87 704/1/87 703/1/87 707/1/87
f 707/1/87 703/1/87 701/1/87 705/1/87
f 710/1/86 706/1/86 708/1/87 712/1/87
f 712/1/87 708/1/87 707/1/87 711/1/87
f 711/1/87 707/1/87 705/1/87 709/1/87
f 714/1/86 710/1/86 712/1/87 716/1/87
f 716/1/87 712/1/87 711/1/87 715/1/87
f 715/1/87 711/1/87 709/1/87 713/1/87
f 718/1/86 714/1/86 716/1/87 720/1/87
f 720/1/87 716/1/87 715/1/87 719/1/87
f 719/1/87 715/1/87 713/1/87 717/1/87
f 722/1/86 718/1/86 720/1/87 724/1/87
f 724/1/87 720/1/87 719/1/87 723/1/87
f 723/1/87 719/1/87 717/1/87 721/1/87
f 726/1/86 722/1/86 724/1/87 728/1/87
f 728/1/87 724/1/87 723/1/87 727/1/87
f 727/1/87 723/1/87 721/1/87 725/1/87
f 730/1/86 726/1/86 728/1/87 732/1/87
f 732/1/87 728/1/87 727/1/87 731/1/87
f 731/1/87 727/1/87 725/1/87 729/1/87
f 734/1/86 730/1/86 732/1/87 736/1/87
f 736/1/87 732/1/87 731/1/87 735/1/87
f 735/1/87 731/1/87 729/1/87 733/1/87
f 613/1/86 734/1/86 736/1/87 615/1/87
f 615/1/87 736/1/87 735/1/87 616/1/87
f 616/1/87 735/1/87 733/1/87 614/1/87
f 738/1/86 741/1/86 743/1/87 740/1/87
f 740/1/87 743/1/87 744/1/87 739/1/87
f 739/1/87 744/1/87 742/1/87 737/1/87
f 746/1/86 738/1/86 740/1/87 748/1/87
f 748/1/87 740/1/87 739/1/87 747/1/87
f 747/1/87 739/1/87 737/1/87 745/1/87
f 750/1/86 746/1/86 748/1/87 752/1/87
f 752/1/87 748/1/87 747/1/87 751/1/87
f 751/1/87 747/1/87 745/1/87 749/1/87
f 754/1/86 750/1/86 752/1/87 756/1/87
f 756/1/87 752/1/87 751/1/87 755/1/87
f 755/1/87 751/1/87 749/1/87 753/1/87
f 758/1/86 754/1/86 756/1/87 760/1/87
f 760/1/87 756/1/87 755/1/87 759/1/87
f 759/1/87 755/1/87 753/1/87 757/1/87
f 762/1/86 758/1/86 760/1/87 764/1/87
f 764/1/87 760/1/87 759/1/87 763/1/87
f 763/1/87 759/1/87 757/1/87 761/1/87
f 766/1/86 762/1/86 764/1/87 768/1/87
f 768/1/87 764/1/87 763/1/87 767/1/87
f 767/1/87 763/1/87 761/1/87 765/1/87
f 770/1/86 766/1/86 768/1/87 772/1/87
f 772/1/87 768/1/87 767/1/87 771/1/87
f 771/1/87 767/1/87 765/1/87 769/1/87
f 774/1/86 770/1/86 772/1/87 776/1/87
f 776/1/87 772/1/87 771/1/87 775/1/87
f 775/1/87 771/1/87 769/1/87 773/1/87
f 778/1/86 774/1/86 776/1/87 780/1/87
f 780/1/87 776/1/87 775/1/87 779/1/87
f 779/1/87 775/1/87 773/1/87 777/1/87
f 782/1/86 778/1/86 780/1/87 784/1/87
f 784/1/87 780/1/87 779/1/87 783/1/87
f 783/1/87 779/1/87 777/1/87 781/1/87
f 786/1/86 782/1/86 784/1/87 788/1/87
f 788/1/87 784/1/87 783/1/87 787/1/87
f 787/1/87 783/1/87 781/1/87 785/1/87
f 790/1/86 786/1/86 788/1/87 792/1/87
f 792/1/87 788/1/87 787/1/87 791/1/87
f 791/1/87 787/1/87 785/1/87 789/1/87
f 794/1/86 790/1/86 792/1/87 796/1/87
f 796/1/87 792/1/87 791/1/87 795/1/87
f 795/1/87 791/1/87 789/1/87 793/1/87
f 798/1/86 794/1/86 796/1/87 800/1/87
f 800/1/87 796/1/87 795/1/87 799/1/87
f 799/1/87 795/1/87 793/1/87 797/1/87
f 802/1/86 798/1/86 800/1/87 804/1/87
f 804/1/87 800/1/87 799/1/87 803/1/87
f 803/1/87 799/1/87 797/1/87 801/1/87
f 806/1/86 802/1/86 804/1/87 808/1/87
f 808/1/87 804/1/87 803/1/87 807/1/87
f 807/1/87 803/1/87 801/1/87 805/1/87
f 810/1/86 806/1/86 808/1/87 812/1/87
f 812/1/87 808/1/87 807/1/87 811/1/87
f 811/1/87 807/1/87 805/1/87 809/1/87
f 814/1/86 810/1/86 812/1/87 816/1/87
f 816/1/87 812/1/87 811/1/87 815/1/87
f 815/1/87 811/1/87 809/1/87 813/1/87
f 818/1/86 814/1/86 816/1/87 820/1/87
f 820/1/87 816/1/87 815/1/87 819/1/87
f 819/1/87 815/1/87 813/1/87 817/1/87
f 822/1/86 818/1/86 820/1/87 824/1/87
f 824/1/87 820/1/87 819/1/87 823/1/87
f 823/1/87 819/1/87 817/1/87 821/1/87
f 826/1/86 822/1/86 824/1/87 828/1/87
f 828/1/87 824/1/87 823/1/87 827/1/87
f 827/1/87 823/1/87 821/1/87 825/1/87
f 830/1/86 826/1/86 828/1/87 832/1/87
f 832/1/87 828/1/87 827/1/87 831/1/87
f 831/1/87 827/1/87 825/1/87 829/1/87
f 834/1/86 830/1/86 832/1/87 836/1/87
f 836/1/87 832/1/87 831/1/87 835/1/87
f 835/1/87 831/1/87 829/1/87 833/1/87
f 838/1/86 834/1/86 836/1/87 840/1/87
f 840/1/87 836/1/87 835/1/87 839/1/87
f 839/1/87 835/1/87 833/1/87 837/1/87
f 842/1/86 838/1/86 840/1/87 844/1/87
f 844/1/87 840/1/87 839/1/87 843/1/87
f 843/1/87 839/1/87 837/1/87 841/1/87
f 846/1/86 842/1/86 844/1/87 848/1/87
f 848/1/87 844/1/87 843/1/87 847/1/87
f 847/1/87 843/1/87 841/1/87 845/1/87
f 850/1/86 846/1/86 848/1/87 852/1/87
f 852/1/87 848/1/87 847/1/87 851/1/87
f 851/1/87 847/1/87 845/1/87 849/1/87
f 854/1/86 850/1/86 852/1/87 856/1/87
f 856/1/87 852/1/87 851/1/87 855/1/87
f 855/1/87 851/1/87 849/1/87 853/1/87
f 858/1/86 854/1/86 856/1/87 860/1/87
f 860/1/87 856/1/87 855/1/87 859/1/87
f 859/1/87 855/1/87 853/1/87 857/1/87
f 862/1/86 858/1/86 860/1/87 864/1/87
f 864/1/87 860/1/87 859/1/87 863/1/87
f 863/1/87 859/1/87 857/1/87 861/1/87
f 741/1/86 862/1/86 864/1/87 743/1/87
f 743/1/87 864/1/87 863/1/87 744/1/87
f 744/1/87 863/1/87 861/1/87 742/1/87
f 482/1/117 485/1/120 487/1/122 484/1/119
f 484/1/119 487/1/122 488/1/123 483/1/118
f 483/1/118 488/1/123 486/1/121 481/1/116
f 490/1/125 482/1/117 484/1/119 492/1/127
f 492/1/127 484/1/119 483/1/118 491/1/126
f 491/1/126 483/1/118 481/1/116 489/1/124
f 494/1/129 490/1/125 492/1/127 496/1/131
f 496/1/131 492/1/127 491/1/126 495/1/130
f 495/1/130 491/1/126 489/1/124 493/1/128
f 498/1/133 494/1/129 496/1/131 500/1/135
f 500/1/135 496/1/131 495/1/130 499/1/134
f 499/1/134 495/1/130 493/1/128 497/1/132
f 502/1/137 498/1/133 500/1/135 504/1/139
f 504/1/139 500/1/135 499/1/134 503/1/138
f 503/1/138 499/1/134 497/1/132 501/1/136
f 506/1/141 502/1/137 504/1/139 508/1/143
f 508/1/143 504/1/139 503/1/138 507/1/142
f 507/1/142 503/1/138 501/1/136 505/1/140
f 510/1/145 506/1/141 508/1/143 512/1/147
f 512/1/147 508/1/143 507/1/142 511/1/146
f 511/1/146 507/1/142 505/1/140 509/1/144
f 514/1/149 510/1/145 512/1/147 516/1/151
f 516/1/151 512/1/147 511/1/146 515/1/150
f 515/1/150 511/1/146 509/1/144 513/1/148
f 518/1/153 514/1/149 516/1/151 520/1/155
f 520/1/155 516/1/151 515/1/150 519/1/154
f 519/1/154 515/1/150 513/1/148 517/1/152
f 522/1/157 518/1/153 520/1/155 524/1/159
f 524/1/159 520/1/155 519/1/154 523/1/158
f 523/1/158 519/1/154 517/1/152 521/1/156
f 526/1/161 522/1/157 524/1/159 528/1/163
f 528/1/163 524/1/159 523/1/158 527/1/162
f 527/1/162 523/1/158 521/1/156 525/1/160
f 530/1/165 526/1/161 528/1/163 532/1/167
f 532/1/167 528/1/163 527/1/162 531/1/166
f 531/1/166 527/1/162 525/1/160 529/1/164
f 534/1/169 530/1/165 532/1/167 536/1/171
f 536/1/171 532/1/167 531/1/166 535/1/170
f 535/1/170 531/1/166 529/1/164 533/1/168
f 538/1/173 534/1/169 536/1/171 540/1/175
f 540/1/175 536/1/171 535/1/170 539/1/174
f 539/1/174 535/1/170 533/1/168 537/1/172
f 542/1/177 538/1/173 540/1/175 544/1/179
f 544/1/179 540/1/175 539/1/174 543/1/178
f 543/1/178 539/1/174 537/1/172 541/1/176
f 546/1/181 542/1/177 544/1/179 548/1/183
f 548/1/183 544/1/179 543/1/178 547/1/182
f 547/1/182 543/1/178 541/1/176 545/1/180
f 550/1/185 546/1/181 548/1/183 552/1/187
f 552/1/187 548/1/183 547/1/182 551/1/186
f 551/1/186 547/1/182 545/1/180 549/1/184
f 554/1/189 550/1/185 552/1/187 556/1/191
f 556/1/191 552/1/187 551/1/186 555/1/190
f 555/1/190 551/1/186 549/1/184 553/1/188
f 558/1/193 554/1/189 556/1/191 560/1/195
f 560/1/195 556/1/191 555/1/190 559/1/194
f 559/1/194 555/1/190 553/1/188 557/1/192
f 562/1/197 558/1/193 560/1/195 564/1/199
f 564/1/199 560/1/195 559/1/194 563/1/198
f 563/1/198 559/1/194 557/1/192 561/1/196
f 566/1/201 562/1/197 564/1/199 568/1/203
f 568/1/203 564/1/199 563/1/198 567/1/202
f 567/1/202 563/1/198 561/1/196 565/1/200
f 570/1/205 566/1/201 568/1/203 572/1/207
f 572/1/207 568/1/203 567/1/202 571/1/206
f 571/1/206 567/1/202 565/1/200 569/1/204
f 574/1/209 570/1/205 572/1/207 576/1/211
f 576/1/211 572/1/207 571/1/206 575/1/210
f 575/1/210 571/1/206 569/1/204 573/1/208
f 578/1/213 574/1/209 576/1/211 580/1/215
f 580/1/215 576/1/211 575/1/210 579/1/214
f 579/1/214 575/1/210 573/1/208 577/1/212
f 582/1/217 578/1/213 580/1/215 584/1/219
f 584/1/219 580/1/215 579/1/214 583/1/218
f 583/1/218 579/1/214 577/1/212 581/1/216
f 586/1/221 582/1/217 584/1/219 588/1/223
f 588/1/223 584/1/219 583/1/218 587/1/222
f 587/1/222 583/1/218 581/1/216 585/1/220
f 590/1/225 586/1/221 588/1/223 592/1/227
f 592/1/227 588/1/223 587/1/222 591/1/226
f 591/1/226 587/1/222 585/1/220 589/1/224
f 594/1/229 590/1/225 592/1/227 596/1/231
f 596/1/231 592/1/227 591/1/226 595/1/230
f 595/1/230 591/1/226 589/1/224 593/1/228
f 598/1/233 594/1/229 596/1/231 600/1/235
f 600/1/235 596/1/231 595/1/230 599/1/234
f 599/1/234 595/1/230 593/1/228 597/1/232
f 602/1/237 598/1/233 600/1/235 604/1/239
f 604/1/239 600/1/235 599/1/234 603/1/238
f 603/1/238 599/1/234 597/1/232 601/1/236
f 606/1/241 602/1/237 604/1/239 608/1/243
f 608/1/243 604/1/239 603/1/238 607/1/242
f 607/1/242 603/1/238 601/1/236 605/1/240
f 485/1/120 606/1/241 608/1/243 487/1/122
f 487/1/122 608/1/243 607/1/242 488/1/123
f 488/1/123 607/1/242 605/1/240 486/1/121
f 866/1/46 869/1/45 871/1/1 868/1/88
f 868/1/88 871/1/1 872/1/1 867/1/88
f 867/1/88 872/1/1 870/1/1 865/1/88
f 874/1/47 866/1/46 868/1/88 876/1/89
f 876/1/89 868/1/88 867/1/88 875/1/89
f 875/1/89 867/1/88 865/1/88 873/1/89
f 878/1/48 874/1/47 876/1/89 880/1/90
f 880/1/90 876/1/89 875/1/89 879/1/90
f 879/1/90 875/1/89 873/1/89 877/1/90
f 882/1/49 878/1/48 880/1/90 884/1/91
f 884/1/91 880/1/90 879/1/90 883/1/91
f 883/1/91 879/1/90 877/1/90 881/1/91
f 886/1/50 882/1/49 884/1/91 888/1/92
f 888/1/92 884/1/91 883/1/91 887/1/92
f 887/1/92 883/1/91 881/1/91 885/1/92
f 890/1/51 886/1/50 888/1/92 892/1/93
f 892/1/93 888/1/92 887/1/92 891/1/93
f 891/1/93 887/1/92 885/1/92 889/1/93
f 894/1/52 890/1/51 892/1/93 896/1/94
f 896/1/94 892/1/93 891/1/93 895/1/94
f 895/1/94 891/1/93 889/1/93 893/1/94
f 898/1/53 894/1/52 896/1/94 900/1/8
f 900/1/8 896/1/94 895/1/94 899/1/8
f 899/1/8 895/1/94 893/1/94 897/1/8
f 902/1/54 898/1/53 900/1/8 904/1/95
f 904/1/95 900/1/8 899/1/8 903/1/95
f 903/1/95 899/1/8 897/1/8 901/1/95
f 906/1/55 902/1/54 904/1/95 908/1/96
f 908/1/96 904/1/95 903/1/95 907/1/96
f 907/1/96 903/1/95 901/1/95 905/1/96
f 910/1/56 906/1/55 908/1/96 912/1/97
f 912/1/97 908/1/96 907/1/96 911/1/97
f 911/1/97 907/1/96 905/1/96 909/1/97
f 914/1/57 910/1/56 912/1/97 916/1/98
f 916/1/98 912/1/97 911/1/97 915/1/98
f 915/1/98 911/1/97 909/1/97 913/1/98
f 918/1/58 914/1/57 916/1/98 920/1/99
f 920/1/99 916/1/98 915/1/98 919/1/99
f 919/1/99 915/1/98 913/1/98 917/1/99
f 922/1/59 918/1/58 920/1/99 924/1/100
f 924/1/100 920/1/99 919/1/99 923/1/100
f 923/1/100 919/1/99 917/1/99 921/1/100
f 926/1/60 922/1/59 924/1/100 928/1/101
f 928/1/101 924/1/100 923/1/100 927/1/101
f 927/1/101 923/1/100 921/1/100 925/1/101
f 930/1/29 926/1/60 928/1/101 932/1/12
f 932/1/12 928/1/101 927/1/101 931/1/12
f 931/1/12 927/1/101 925/1/101 929/1/12
f 934/1/30 930/1/29 932/1/12 936/1/102
f 936/1/102 932/1/12 931/1/12 935/1/102
f 935/1/102 931/1/12 929/1/12 933/1/102
f 938/1/31 934/1/30 936/1/102 940/1/103
f 940/1/103 936/1/102 935/1/102 939/1/103
f 939/1/103 935/1/102 933/1/102 937/1/103
f 942/1/32 938/1/31 940/1/103 944/1/104
f 944/1/104 940/1/103 939/1/103 943/1/104
f 943/1/104 939/1/103 937/1/103 941/1/104
f 946/1/33 942/1/32 944/1/104 948/1/105
f 948/1/105 944/1/104 943/1/104 947/1/105
f 947/1/105 943/1/104 941/1/104 945/1/105
f 950/1/34 946/1/33 948/1/105 952/1/106
f 952/1/106 948/1/105 947/1/105 951/1/106
f 951/1/106 947/1/105 945/1/105 949/1/106
f 954/1/35 950/1/34 952/1/106 956/1/107
f 956/1/107 952/1/106 951/1/106 955/1/107
f 955/1/107 951/1/106 949/1/106 953/1/107
f 958/1/36 954/1/35 956/1/107 960/1/108
f 960/1/108 956/1/107 955/1/107 959/1/108
f 959/1/108 955/1/107 953/1/107 957/1/108
f 962/1/37 958/1/36 960/1/108 964/1/22
f 964/1/22 960/1/108 959/1/108 963/1/22
f 963/1/22 959/1/108 957/1/108 961/1/22
f 966/1/38 962/1/37 964/1/22 968/1/109
f 968/1/109 964/1/22 963/1/22 967/1/109
f 967/1/109 963/1/22 961/1/22 965/1/109
f 970/1/39 966/1/38 968/1/109 972/1/110
f 972/1/110 968/1/109 967/1/109 971/1/110
f 971/1/110 967/1/109 965/1/109 969/1/110
f 974/1/40 970/1/39 972/1/110 976/1/111
f 976/1/111 972/1/110 971/1/110 975/1/111
f 975/1/111 971/1/110 969/1/110 973/1/111
f 978/1/41 974/1/40 976/1/111 980/1/112
f 980/1/112 976/1/111 975/1/111 979/1/112
f 979/1/112 975/1/111 973/1/111 977/1/112
f 982/1/42 978/1/41 980/1/112 984/1/113
f 984/1/113 980/1/112 979/1/112 983/1/113
f 983/1/113 979/1/112 977/1/112 981/1/113
f 986/1/43 982/1/42 984/1/113 988/1/114
f 988/1/114 984/1/113 983/1/113 987/1/114
f 987/1/114 983/1/113 981/1/113 985/1/114
f 990/1/44 986/1/43 988/1/114 992/1/115
f 992/1/115 988/1/114 987/1/114 991/1/115
f 991/1/115 987/1/114 985/1/114 989/1/115
f 869/1/45 990/1/44 992/1/115 871/1/1
f 871/1/1 992/1/115 991/1/115 872/1/1
f 872/1/1 991/1/115 989/1/115 870/1/1
f 481/1/116 486/1/121 386/1/29 385/1/30
f 401/1/45 400/1/44 1008/1/86 1009/1/86
f 388/1/32 387/1/31 995/1/86 996/1/86
f 415/1/59 414/1/58 1022/1/86 1023/1/86
f 402/1/46 401/1/45 1009/1/86 1010/1/86
f 389/1/33 388/1/32 996/1/86 997/1/86
f 416/1/60 415/1/59 1023/1/86 1024/1/86
f 403/1/47 402/1/46 1010/1/86 1011/1/86
f 390/1/34 389/1/33 997/1/86 998/1/86
f 386/1/29 416/1/60 1024/1/86 994/1/86
f 404/1/48 403/1/47 1011/1/86 1012/1/86
f 391/1/35 390/1/34 998/1/86 999/1/86
f 405/1/49 404/1/48 1012/1/86 1013/1/86
f 392/1/36 391/1/35 999/1/86 1000/1/86
f 406/1/50 405/1/49 1013/1/86 1014/1/86
f 393/1/37 392/1/36 1000/1/86 1001/1/86
f 407/1/51 406/1/50 1014/1/86 1015/1/86
f 394/1/38 393/1/37 1001/1/86 1002/1/86
f 408/1/52 407/1/51 1015/1/86 1016/1/86
f 395/1/39 394/1/38 1002/1/86 1003/1/86
f 409/1/53 408/1/52 1016/1/86 1017/1/86
f 396/1/40 395/1/39 1003/1/86 1004/1/86
f 410/1/54 409/1/53 1017/1/86 1018/1/86
f 397/1/41 396/1/40 1004/1/86 1005/1/86
f 411/1/55 410/1/54 1018/1/86 1019/1/86
f 398/1/42 397/1/41 1005/1/86 1006/1/86
f 412/1/56 411/1/55 1019/1/86 1020/1/86
f 399/1/43 398/1/42 1006/1/86 1007/1/86
f 385/1/30 386/1/29 994/1/86 993/1/86
f 413/1/57 412/1/56 1020/1/86 1021/1/86
f 400/1/44 399/1/43 1007/1/86 1008/1/86
f 387/1/31 385/1/30 993/1/86 995/1/86
f 414/1/58 413/1/57 1021/1/86 1022/1/86
f 999/1/86 998/1/86 1030/1/86 1031/1/86
f 1013/1/86 1012/1/86 1044/1/86 1045/1/86
f 1000/1/86 999/1/86 1031/1/86 1032/1/86
f 1014/1/86 1013/1/86 1045/1/86 1046/1/86
f 1001/1/86 1000/1/86 1032/1/86 1033/1/86
f 1015/1/86 1014/1/86 1046/1/86 1047/1/86
f 1002/1/86 1001/1/86 1033/1/86 1034/1/86
f 1016/1/86 1015/1/86 1047/1/86 1048/1/86
f 1003/1/86 1002/1/86 1034/1/86 1035/1/86
f 1017/1/86 1016/1/86 1048/1/86 1049/1/86
f 1004/1/86 1003/1/86 1035/1/86 1036/1/86
f 1018/1/86 1017/1/86 1049/1/86 1050/1/86
f 1005/1/86 1004/1/86 1036/1/86 1037/1/86
f 1019/1/86 1018/1/86 1050/1/86 1051/1/86
f 1006/1/86 1005/1/86 1037/1/86 1038/1/86
f 1020/1/86 1019/1/86 1051/1/86 1052/1/86
f 1007/1/86 1006/1/86 1038/1/86 1039/1/86
f 993/1/86 994/1/86 1026/1/86 1025/1/86
f 1021/1/86 1020/1/86 1052/1/86 1053/1/86
f 1008/1/86 1007/1/86 1039/1/86 1040/1/86
f 995/1/86 993/1/86 1025/1/86 1027/1/86
f 1022/1/86 1021/1/86 1053/1/86 1054/1/86
f 1009/1/86 1008/1/86 1040/1/86 1041/1/86
f 996/1/86 995/1/86 1027/1/86 1028/1/86
f 1023/1/86 1022/1/86 1054/1/86 1055/1/86
f 1010/1/86 1009/1/86 1041/1/86 1042/1/86
f 997/1/86 996/1/86 1028/1/86 1029/1/86
f 1024/1/86 1023/1/86 1055/1/86 1056/1/86
f 1011/1/86 1010/1/86 1042/1/86 1043/1/86
f 998/1/86 997/1/86 1029/1/86 1030/1/86
f 994/1/86 1024/1/86 1056/1/86 1026/1/86
f 1012/1/86 1011/1/86 1043/1/86 1044/1/86
