# Blender 3.3.21
# www.blender.org
mtllib EstanteriaCaja.mtl
o EstanteriaCajas
v -1.028244 0.847799 4.168800
v 0.972456 0.847799 4.168800
v -1.028244 0.847800 2.179000
v 0.972456 0.847800 2.179000
v 0.764956 -0.983801 4.055800
v 0.869256 -0.983801 4.055800
v 0.764956 0.847699 4.055800
v 0.869256 0.847699 4.055800
v 0.764956 0.847699 3.940200
v 0.869256 0.847699 3.940200
v 0.764956 -0.983801 3.940200
v 0.869256 -0.983801 3.940200
v -0.898344 -0.983801 4.055800
v -0.794044 -0.983801 4.055800
v -0.898344 0.847699 4.055800
v -0.794044 0.847699 4.055800
v -0.898344 0.847699 3.940200
v -0.794044 0.847699 3.940200
v -0.898344 -0.983801 3.940200
v -0.794044 -0.983801 3.940200
v 0.764956 -0.983800 2.393300
v 0.869256 -0.983800 2.393300
v 0.764956 0.847700 2.393300
v 0.869256 0.847700 2.393300
v 0.764956 0.847700 2.277700
v 0.869256 0.847700 2.277700
v 0.764956 -0.983800 2.277700
v 0.869256 -0.983800 2.277700
v -0.898344 -0.983800 2.393300
v -0.794044 -0.983800 2.393300
v -0.898344 0.847700 2.393300
v -0.794044 0.847700 2.393300
v -0.898344 0.847700 2.277700
v -0.794044 0.847700 2.277700
v -0.898344 -0.983800 2.277700
v -0.794044 -0.983800 2.277700
v -1.028244 -0.053401 4.168800
v 0.972456 -0.053401 4.168800
v -1.028244 -0.053400 2.179000
v 0.972456 -0.053400 2.179000
v -1.028244 -0.983801 4.168800
v 0.972456 -0.983801 4.168800
v -1.028244 -0.983800 2.179000
v 0.972456 -0.983800 2.179000
v -1.028244 0.847800 2.052300
v 0.972456 0.847800 2.052300
v -1.028244 0.847800 0.062500
v 0.972456 0.847800 0.062500
v -1.028244 -0.053400 2.052300
v 0.972456 -0.053400 2.052300
v -1.028244 -0.053400 0.062500
v 0.972456 -0.053400 0.062500
v -1.028244 -0.983800 2.052300
v 0.972456 -0.983800 2.052300
v -1.028244 -0.983800 0.062500
v 0.972456 -0.983800 0.062500
v -0.898344 -0.983800 1.939300
v -0.794044 -0.983800 1.939300
v -0.898344 0.847700 1.939300
v -0.794044 0.847700 1.939300
v -0.898344 0.847700 1.823700
v -0.794044 0.847700 1.823700
v -0.898344 -0.983800 1.823700
v -0.794044 -0.983800 1.823700
v 0.764956 -0.983800 1.939300
v 0.869256 -0.983800 1.939300
v 0.764956 0.847700 1.939300
v 0.869256 0.847700 1.939300
v 0.764956 0.847700 1.823700
v 0.869256 0.847700 1.823700
v 0.764956 -0.983800 1.823700
v 0.869256 -0.983800 1.823700
v -0.898344 -0.983800 0.276800
v -0.794044 -0.983800 0.276800
v -0.898344 0.847700 0.276800
v -0.794044 0.847700 0.276800
v -0.898344 0.847700 0.161200
v -0.794044 0.847700 0.161200
v -0.898344 -0.983800 0.161200
v -0.794044 -0.983800 0.161200
v 0.764956 -0.983800 0.276800
v 0.869256 -0.983800 0.276800
v 0.764956 0.847700 0.276800
v 0.869256 0.847700 0.276800
v 0.764956 0.847700 0.161200
v 0.869256 0.847700 0.161200
v 0.764956 -0.983800 0.161200
v 0.869256 -0.983800 0.161200
v -1.028244 0.847799 6.189200
v 0.972456 0.847799 6.189200
v -1.028244 0.847799 4.199400
v 0.972456 0.847799 4.199400
v -1.028244 -0.053401 6.189200
v 0.972456 -0.053401 6.189200
v -1.028244 -0.053401 4.199400
v 0.972456 -0.053401 4.199400
v -1.028244 -0.983801 6.189200
v 0.972456 -0.983801 6.189200
v -1.028244 -0.983801 4.199400
v 0.972456 -0.983801 4.199400
v -0.898344 -0.983801 6.076200
v -0.794044 -0.983801 6.076200
v -0.898344 0.847699 6.076200
v -0.794044 0.847699 6.076200
v -0.898344 0.847699 5.960600
v -0.794044 0.847699 5.960600
v -0.898344 -0.983801 5.960600
v -0.794044 -0.983801 5.960600
v 0.764956 -0.983801 6.076200
v 0.869256 -0.983801 6.076200
v 0.764956 0.847699 6.076200
v 0.869256 0.847699 6.076200
v 0.764956 0.847699 5.960600
v 0.869256 0.847699 5.960600
v 0.764956 -0.983801 5.960600
v 0.869256 -0.983801 5.960600
v -0.898344 -0.983801 4.413700
v -0.794044 -0.983801 4.413700
v -0.898344 0.847699 4.413700
v -0.794044 0.847699 4.413700
v -0.898344 0.847699 4.298100
v -0.794044 0.847699 4.298100
v -0.898344 -0.983801 4.298100
v -0.794044 -0.983801 4.298100
v 0.764956 -0.983801 4.413700
v 0.869256 -0.983801 4.413700
v 0.764956 0.847699 4.413700
v 0.869256 0.847699 4.413700
v 0.764956 0.847699 4.298100
v 0.869256 0.847699 4.298100
v 0.764956 -0.983801 4.298100
v 0.869256 -0.983801 4.298100
v -1.028244 0.847799 8.220000
v 0.972456 0.847799 8.220000
v -1.028244 0.847799 6.230200
v 0.972456 0.847799 6.230200
v -1.028244 -0.053401 8.220000
v 0.972456 -0.053401 8.220000
v -1.028244 -0.053401 6.230200
v 0.972456 -0.053401 6.230200
v -1.028244 -0.983801 8.220000
v 0.972456 -0.983801 8.220000
v -1.028244 -0.983801 6.230200
v 0.972456 -0.983801 6.230200
v -0.898344 -0.983801 8.106999
v -0.794044 -0.983801 8.106999
v -0.898344 0.847699 8.106999
v -0.794044 0.847699 8.106999
v -0.898344 0.847699 7.991400
v -0.794044 0.847699 7.991400
v -0.898344 -0.983801 7.991400
v -0.794044 -0.983801 7.991400
v 0.764956 -0.983801 8.106999
v 0.869256 -0.983801 8.106999
v 0.764956 0.847699 8.106999
v 0.869256 0.847699 8.106999
v 0.764956 0.847699 7.991400
v 0.869256 0.847699 7.991400
v 0.764956 -0.983801 7.991400
v 0.869256 -0.983801 7.991400
v -0.898344 -0.983801 6.444500
v -0.794044 -0.983801 6.444500
v -0.898344 0.847699 6.444500
v -0.794044 0.847699 6.444500
v -0.898344 0.847699 6.328900
v -0.794044 0.847699 6.328900
v -0.898344 -0.983801 6.328900
v -0.794044 -0.983801 6.328900
v 0.764956 -0.983801 6.444500
v 0.869256 -0.983801 6.444500
v 0.764956 0.847699 6.444500
v 0.869256 0.847699 6.444500
v 0.764956 0.847699 6.328900
v 0.869256 0.847699 6.328900
v 0.764956 -0.983801 6.328900
v 0.869256 -0.983801 6.328900
v -1.028244 0.847798 10.264300
v 0.972456 0.847798 10.264300
v -1.028244 0.847799 8.274500
v 0.972456 0.847799 8.274500
v -1.028244 -0.053402 10.264300
v 0.972456 -0.053402 10.264300
v -1.028244 -0.053401 8.274500
v 0.972456 -0.053401 8.274500
v -1.028244 -0.983802 10.264300
v 0.972456 -0.983802 10.264300
v -1.028244 -0.983801 8.274500
v 0.972456 -0.983801 8.274500
v -0.898344 -0.983802 10.151300
v -0.794044 -0.983802 10.151300
v -0.898344 0.847698 10.151300
v -0.794044 0.847698 10.151300
v -0.898344 0.847698 10.035700
v -0.794044 0.847698 10.035700
v -0.898344 -0.983802 10.035700
v -0.794044 -0.983802 10.035700
v 0.764956 -0.983802 10.151300
v 0.869256 -0.983802 10.151300
v 0.764956 0.847698 10.151300
v 0.869256 0.847698 10.151300
v 0.764956 0.847698 10.035700
v 0.869256 0.847698 10.035700
v 0.764956 -0.983802 10.035700
v 0.869256 -0.983802 10.035700
v -0.898344 -0.983801 8.488800
v -0.794044 -0.983801 8.488800
v -0.898344 0.847699 8.488800
v -0.794044 0.847699 8.488800
v -0.898344 0.847699 8.373199
v -0.794044 0.847699 8.373199
v -0.898344 -0.983801 8.373199
v -0.794044 -0.983801 8.373199
v 0.764956 -0.983801 8.488800
v 0.869256 -0.983801 8.488800
v 0.764956 0.847699 8.488800
v 0.869256 0.847699 8.488800
v 0.764956 0.847699 8.373199
v 0.869256 0.847699 8.373199
v 0.764956 -0.983801 8.373199
v 0.869256 -0.983801 8.373199
v -1.028244 0.847801 -6.153100
v 0.972456 0.847801 -6.153100
v -1.028244 0.847801 -8.142900
v 0.972456 0.847801 -8.142900
v 0.764956 -0.983799 -6.266100
v 0.869256 -0.983799 -6.266100
v 0.764956 0.847701 -6.266100
v 0.869256 0.847701 -6.266100
v 0.764956 0.847701 -6.381700
v 0.869256 0.847701 -6.381700
v 0.764956 -0.983799 -6.381700
v 0.869256 -0.983799 -6.381700
v -0.898344 -0.983799 -6.266100
v -0.794044 -0.983799 -6.266100
v -0.898344 0.847701 -6.266100
v -0.794044 0.847701 -6.266100
v -0.898344 0.847701 -6.381700
v -0.794044 0.847701 -6.381700
v -0.898344 -0.983799 -6.381700
v -0.794044 -0.983799 -6.381700
v 0.764956 -0.983799 -7.928600
v 0.869256 -0.983799 -7.928600
v 0.764956 0.847701 -7.928600
v 0.869256 0.847701 -7.928600
v 0.764956 0.847701 -8.044200
v 0.869256 0.847701 -8.044200
v 0.764956 -0.983799 -8.044200
v 0.869256 -0.983799 -8.044200
v -0.898344 -0.983799 -7.928600
v -0.794044 -0.983799 -7.928600
v -0.898344 0.847701 -7.928600
v -0.794044 0.847701 -7.928600
v -0.898344 0.847701 -8.044200
v -0.794044 0.847701 -8.044200
v -0.898344 -0.983799 -8.044200
v -0.794044 -0.983799 -8.044200
v -1.028244 -0.053399 -6.153100
v 0.972456 -0.053399 -6.153100
v -1.028244 -0.053399 -8.142900
v 0.972456 -0.053399 -8.142900
v -1.028244 -0.983799 -6.153100
v 0.972456 -0.983799 -6.153100
v -1.028244 -0.983799 -8.142900
v 0.972456 -0.983799 -8.142900
v -1.028244 0.847801 -8.269600
v 0.972456 0.847801 -8.269600
v -1.028244 0.847802 -10.259400
v 0.972456 0.847802 -10.259400
v -1.028244 -0.053399 -8.269600
v 0.972456 -0.053399 -8.269600
v -1.028244 -0.053398 -10.259400
v 0.972456 -0.053398 -10.259400
v -1.028244 -0.983799 -8.269600
v 0.972456 -0.983799 -8.269600
v -1.028244 -0.983798 -10.259400
v 0.972456 -0.983798 -10.259400
v -0.898344 -0.983799 -8.382600
v -0.794044 -0.983799 -8.382600
v -0.898344 0.847701 -8.382600
v -0.794044 0.847701 -8.382600
v -0.898344 0.847701 -8.498199
v -0.794044 0.847701 -8.498199
v -0.898344 -0.983799 -8.498199
v -0.794044 -0.983799 -8.498199
v 0.764956 -0.983799 -8.382600
v 0.869256 -0.983799 -8.382600
v 0.764956 0.847701 -8.382600
v 0.869256 0.847701 -8.382600
v 0.764956 0.847701 -8.498199
v 0.869256 0.847701 -8.498199
v 0.764956 -0.983799 -8.498199
v 0.869256 -0.983799 -8.498199
v -0.898344 -0.983798 -10.045100
v -0.794044 -0.983798 -10.045100
v -0.898344 0.847702 -10.045100
v -0.794044 0.847702 -10.045100
v -0.898344 0.847702 -10.160700
v -0.794044 0.847702 -10.160700
v -0.898344 -0.983798 -10.160700
v -0.794044 -0.983798 -10.160700
v 0.764956 -0.983798 -10.045100
v 0.869256 -0.983798 -10.045100
v 0.764956 0.847702 -10.045100
v 0.869256 0.847702 -10.045100
v 0.764956 0.847702 -10.160700
v 0.869256 0.847702 -10.160700
v 0.764956 -0.983798 -10.160700
v 0.869256 -0.983798 -10.160700
v -1.028244 0.847801 -4.132700
v 0.972456 0.847801 -4.132700
v -1.028244 0.847801 -6.122500
v 0.972456 0.847801 -6.122500
v -1.028244 -0.053399 -4.132700
v 0.972456 -0.053399 -4.132700
v -1.028244 -0.053399 -6.122500
v 0.972456 -0.053399 -6.122500
v -1.028244 -0.983799 -4.132700
v 0.972456 -0.983799 -4.132700
v -1.028244 -0.983799 -6.122500
v 0.972456 -0.983799 -6.122500
v -0.898344 -0.983799 -4.245700
v -0.794044 -0.983799 -4.245700
v -0.898344 0.847701 -4.245700
v -0.794044 0.847701 -4.245700
v -0.898344 0.847701 -4.361300
v -0.794044 0.847701 -4.361300
v -0.898344 -0.983799 -4.361300
v -0.794044 -0.983799 -4.361300
v 0.764956 -0.983799 -4.245700
v 0.869256 -0.983799 -4.245700
v 0.764956 0.847701 -4.245700
v 0.869256 0.847701 -4.245700
v 0.764956 0.847701 -4.361300
v 0.869256 0.847701 -4.361300
v 0.764956 -0.983799 -4.361300
v 0.869256 -0.983799 -4.361300
v -0.898344 -0.983799 -5.908200
v -0.794044 -0.983799 -5.908200
v -0.898344 0.847701 -5.908200
v -0.794044 0.847701 -5.908200
v -0.898344 0.847701 -6.023800
v -0.794044 0.847701 -6.023800
v -0.898344 -0.983799 -6.023800
v -0.794044 -0.983799 -6.023800
v 0.764956 -0.983799 -5.908200
v 0.869256 -0.983799 -5.908200
v 0.764956 0.847701 -5.908200
v 0.869256 0.847701 -5.908200
v 0.764956 0.847701 -6.023800
v 0.869256 0.847701 -6.023800
v 0.764956 -0.983799 -6.023800
v 0.869256 -0.983799 -6.023800
v -1.028244 0.847800 -2.101900
v 0.972456 0.847800 -2.101900
v -1.028244 0.847801 -4.091700
v 0.972456 0.847801 -4.091700
v -1.028244 -0.053400 -2.101900
v 0.972456 -0.053400 -2.101900
v -1.028244 -0.053399 -4.091700
v 0.972456 -0.053399 -4.091700
v -1.028244 -0.983800 -2.101900
v 0.972456 -0.983800 -2.101900
v -1.028244 -0.983799 -4.091700
v 0.972456 -0.983799 -4.091700
v -0.898344 -0.983800 -2.214900
v -0.794044 -0.983800 -2.214900
v -0.898344 0.847700 -2.214900
v -0.794044 0.847700 -2.214900
v -0.898344 0.847700 -2.330500
v -0.794044 0.847700 -2.330500
v -0.898344 -0.983800 -2.330500
v -0.794044 -0.983800 -2.330500
v 0.764956 -0.983800 -2.214900
v 0.869256 -0.983800 -2.214900
v 0.764956 0.847700 -2.214900
v 0.869256 0.847700 -2.214900
v 0.764956 0.847700 -2.330500
v 0.869256 0.847700 -2.330500
v 0.764956 -0.983800 -2.330500
v 0.869256 -0.983800 -2.330500
v -0.898344 -0.983799 -3.877400
v -0.794044 -0.983799 -3.877400
v -0.898344 0.847701 -3.877400
v -0.794044 0.847701 -3.877400
v -0.898344 0.847701 -3.993000
v -0.794044 0.847701 -3.993000
v -0.898344 -0.983799 -3.993000
v -0.794044 -0.983799 -3.993000
v 0.764956 -0.983799 -3.877400
v 0.869256 -0.983799 -3.877400
v 0.764956 0.847701 -3.877400
v 0.869256 0.847701 -3.877400
v 0.764956 0.847701 -3.993000
v 0.869256 0.847701 -3.993000
v 0.764956 -0.983799 -3.993000
v 0.869256 -0.983799 -3.993000
v -1.028244 0.847800 -0.057600
v 0.972456 0.847800 -0.057600
v -1.028244 0.847800 -2.047400
v 0.972456 0.847800 -2.047400
v -1.028244 -0.053400 -0.057600
v 0.972456 -0.053400 -0.057600
v -1.028244 -0.053400 -2.047400
v 0.972456 -0.053400 -2.047400
v -1.028244 -0.983800 -0.057600
v 0.972456 -0.983800 -0.057600
v -1.028244 -0.983800 -2.047400
v 0.972456 -0.983800 -2.047400
v -0.898344 -0.983800 -0.170600
v -0.794044 -0.983800 -0.170600
v -0.898344 0.847700 -0.170600
v -0.794044 0.847700 -0.170600
v -0.898344 0.847700 -0.286200
v -0.794044 0.847700 -0.286200
v -0.898344 -0.983800 -0.286200
v -0.794044 -0.983800 -0.286200
v 0.764956 -0.983800 -0.170600
v 0.869256 -0.983800 -0.170600
v 0.764956 0.847700 -0.170600
v 0.869256 0.847700 -0.170600
v 0.764956 0.847700 -0.286200
v 0.869256 0.847700 -0.286200
v 0.764956 -0.983800 -0.286200
v 0.869256 -0.983800 -0.286200
v -0.898344 -0.983800 -1.833100
v -0.794044 -0.983800 -1.833100
v -0.898344 0.847700 -1.833100
v -0.794044 0.847700 -1.833100
v -0.898344 0.847700 -1.948700
v -0.794044 0.847700 -1.948700
v -0.898344 -0.983800 -1.948700
v -0.794044 -0.983800 -1.948700
v 0.764956 -0.983800 -1.833100
v 0.869256 -0.983800 -1.833100
v 0.764956 0.847700 -1.833100
v 0.869256 0.847700 -1.833100
v 0.764956 0.847700 -1.948700
v 0.869256 0.847700 -1.948700
v 0.764956 -0.983800 -1.948700
v 0.869256 -0.983800 -1.948700
v 0.166556 0.848398 9.574600
v 0.581756 0.848398 9.574600
v 0.166556 1.257698 9.574600
v 0.581756 1.257698 9.574600
v 0.166556 1.257699 8.937799
v 0.581756 1.257699 8.937799
v 0.166556 0.848399 8.937799
v 0.581756 0.848399 8.937799
v -0.605544 0.848398 9.574600
v -0.190344 0.848398 9.574600
v -0.605544 1.257698 9.574600
v -0.190344 1.257698 9.574600
v -0.605544 1.257699 8.937799
v -0.190344 1.257699 8.937799
v -0.605544 0.848399 8.937799
v -0.190344 0.848399 8.937799
v 0.166556 -0.052602 9.574600
v 0.581756 -0.052602 9.574600
v 0.166556 0.356698 9.574600
v 0.581756 0.356698 9.574600
v 0.166556 0.356699 8.937799
v 0.581756 0.356699 8.937799
v 0.166556 -0.052601 8.937799
v 0.581756 -0.052601 8.937799
v -0.605544 -0.052602 9.574600
v -0.190344 -0.052602 9.574600
v -0.605544 0.356698 9.574600
v -0.190344 0.356698 9.574600
v -0.605544 0.356699 8.937799
v -0.190344 0.356699 8.937799
v -0.605544 -0.052601 8.937799
v -0.190344 -0.052601 8.937799
v 0.166556 -0.983202 9.574600
v 0.581756 -0.983202 9.574600
v 0.166556 -0.573902 9.574600
v 0.581756 -0.573902 9.574600
v 0.166556 -0.573901 8.937799
v 0.581756 -0.573901 8.937799
v 0.166556 -0.983201 8.937799
v 0.581756 -0.983201 8.937799
v -0.605544 -0.983202 9.574600
v -0.190344 -0.983202 9.574600
v -0.605544 -0.573902 9.574600
v -0.190344 -0.573902 9.574600
v -0.605544 -0.573901 8.937799
v -0.190344 -0.573901 8.937799
v -0.605544 -0.983201 8.937799
v -0.190344 -0.983201 8.937799
v -0.605544 -0.983202 9.574600
v -0.190344 -0.983202 9.574600
v -0.605544 -0.573902 9.574600
v -0.190344 -0.573902 9.574600
v -0.605544 -0.573901 8.937799
v -0.190344 -0.573901 8.937799
v -0.605544 -0.983201 8.937799
v -0.190344 -0.983201 8.937799
v 0.166556 -0.983202 9.574600
v 0.581756 -0.983202 9.574600
v 0.166556 -0.573902 9.574600
v 0.581756 -0.573902 9.574600
v 0.166556 -0.573901 8.937799
v 0.581756 -0.573901 8.937799
v 0.166556 -0.983201 8.937799
v 0.581756 -0.983201 8.937799
v 0.166556 -0.052602 9.574600
v 0.581756 -0.052602 9.574600
v 0.166556 0.356698 9.574600
v 0.581756 0.356698 9.574600
v 0.166556 0.356699 8.937799
v 0.581756 0.356699 8.937799
v 0.166556 -0.052601 8.937799
v 0.581756 -0.052601 8.937799
v -0.605544 -0.052602 9.574600
v -0.190344 -0.052602 9.574600
v -0.605544 0.356698 9.574600
v -0.190344 0.356698 9.574600
v -0.605544 0.356699 8.937799
v -0.190344 0.356699 8.937799
v -0.605544 -0.052601 8.937799
v -0.190344 -0.052601 8.937799
v -0.605544 0.848398 9.574600
v -0.190344 0.848398 9.574600
v -0.605544 1.257698 9.574600
v -0.190344 1.257698 9.574600
v -0.605544 1.257699 8.937799
v -0.190344 1.257699 8.937799
v -0.605544 0.848399 8.937799
v -0.190344 0.848399 8.937799
v 0.166556 0.848398 9.574600
v 0.581756 0.848398 9.574600
v 0.166556 1.257698 9.574600
v 0.581756 1.257698 9.574600
v 0.166556 1.257699 8.937799
v 0.581756 1.257699 8.937799
v 0.166556 0.848399 8.937799
v 0.581756 0.848399 8.937799
v 0.166556 0.848399 7.537500
v 0.581756 0.848399 7.537500
v 0.166556 1.257699 7.537500
v 0.581756 1.257699 7.537500
v 0.166556 1.257699 6.900700
v 0.581756 1.257699 6.900700
v 0.166556 0.848399 6.900700
v 0.581756 0.848399 6.900700
v -0.605544 0.848399 7.537500
v -0.190344 0.848399 7.537500
v -0.605544 1.257699 7.537500
v -0.190344 1.257699 7.537500
v -0.605544 1.257699 6.900700
v -0.190344 1.257699 6.900700
v -0.605544 0.848399 6.900700
v -0.190344 0.848399 6.900700
v 0.166556 -0.052601 7.537500
v 0.581756 -0.052601 7.537500
v 0.166556 0.356699 7.537500
v 0.581756 0.356699 7.537500
v 0.166556 0.356699 6.900700
v 0.581756 0.356699 6.900700
v 0.166556 -0.052601 6.900700
v 0.581756 -0.052601 6.900700
v -0.605544 -0.052601 7.537500
v -0.190344 -0.052601 7.537500
v -0.605544 0.356699 7.537500
v -0.190344 0.356699 7.537500
v -0.605544 0.356699 6.900700
v -0.190344 0.356699 6.900700
v -0.605544 -0.052601 6.900700
v -0.190344 -0.052601 6.900700
v -0.605544 -0.983201 7.537500
v -0.190344 -0.983201 7.537500
v -0.605544 -0.573901 7.537500
v -0.190344 -0.573901 7.537500
v -0.605544 -0.573901 6.900700
v -0.190344 -0.573901 6.900700
v -0.605544 -0.983201 6.900700
v -0.190344 -0.983201 6.900700
v 0.166556 -0.983201 7.537500
v 0.581756 -0.983201 7.537500
v 0.166556 -0.573901 7.537500
v 0.581756 -0.573901 7.537500
v 0.166556 -0.573901 6.900700
v 0.581756 -0.573901 6.900700
v 0.166556 -0.983201 6.900700
v 0.581756 -0.983201 6.900700
v 0.166556 0.848399 5.499200
v 0.581756 0.848399 5.499200
v 0.166556 1.257699 5.499200
v 0.581756 1.257699 5.499200
v 0.166556 1.257699 4.862400
v 0.581756 1.257699 4.862400
v 0.166556 0.848399 4.862400
v 0.581756 0.848399 4.862400
v -0.605544 0.848399 5.499200
v -0.190344 0.848399 5.499200
v -0.605544 1.257699 5.499200
v -0.190344 1.257699 5.499200
v -0.605544 1.257699 4.862400
v -0.190344 1.257699 4.862400
v -0.605544 0.848399 4.862400
v -0.190344 0.848399 4.862400
v 0.166556 -0.052601 5.499200
v 0.581756 -0.052601 5.499200
v 0.166556 0.356699 5.499200
v 0.581756 0.356699 5.499200
v 0.166556 0.356699 4.862400
v 0.581756 0.356699 4.862400
v 0.166556 -0.052601 4.862400
v 0.581756 -0.052601 4.862400
v -0.605544 -0.052601 5.499200
v -0.190344 -0.052601 5.499200
v -0.605544 0.356699 5.499200
v -0.190344 0.356699 5.499200
v -0.605544 0.356699 4.862400
v -0.190344 0.356699 4.862400
v -0.605544 -0.052601 4.862400
v -0.190344 -0.052601 4.862400
v -0.605544 -0.983201 5.499200
v -0.190344 -0.983201 5.499200
v -0.605544 -0.573901 5.499200
v -0.190344 -0.573901 5.499200
v -0.605544 -0.573901 4.862400
v -0.190344 -0.573901 4.862400
v -0.605544 -0.983201 4.862400
v -0.190344 -0.983201 4.862400
v 0.166556 -0.983201 5.499200
v 0.581756 -0.983201 5.499200
v 0.166556 -0.573901 5.499200
v 0.581756 -0.573901 5.499200
v 0.166556 -0.573901 4.862400
v 0.581756 -0.573901 4.862400
v 0.166556 -0.983201 4.862400
v 0.581756 -0.983201 4.862400
v 0.166556 0.848399 3.496700
v 0.581756 0.848399 3.496700
v 0.166556 1.257699 3.496700
v 0.581756 1.257699 3.496700
v 0.166556 1.257699 2.859900
v 0.581756 1.257699 2.859900
v 0.166556 0.848400 2.859900
v 0.581756 0.848400 2.859900
v -0.605544 0.848399 3.496700
v -0.190344 0.848399 3.496700
v -0.605544 1.257699 3.496700
v -0.190344 1.257699 3.496700
v -0.605544 1.257699 2.859900
v -0.190344 1.257699 2.859900
v -0.605544 0.848400 2.859900
v -0.190344 0.848400 2.859900
v 0.166556 -0.052601 3.496700
v 0.581756 -0.052601 3.496700
v 0.166556 0.356699 3.496700
v 0.581756 0.356699 3.496700
v 0.166556 0.356700 2.859900
v 0.581756 0.356700 2.859900
v 0.166556 -0.052600 2.859900
v 0.581756 -0.052600 2.859900
v -0.605544 -0.052601 3.496700
v -0.190344 -0.052601 3.496700
v -0.605544 0.356699 3.496700
v -0.190344 0.356699 3.496700
v -0.605544 0.356700 2.859900
v -0.190344 0.356700 2.859900
v -0.605544 -0.052600 2.859900
v -0.190344 -0.052600 2.859900
v -0.605544 -0.983201 3.496700
v -0.190344 -0.983201 3.496700
v -0.605544 -0.573901 3.496700
v -0.190344 -0.573901 3.496700
v -0.605544 -0.573900 2.859900
v -0.190344 -0.573900 2.859900
v -0.605544 -0.983200 2.859900
v -0.190344 -0.983200 2.859900
v 0.166556 -0.983201 3.496700
v 0.581756 -0.983201 3.496700
v 0.166556 -0.573901 3.496700
v 0.581756 -0.573901 3.496700
v 0.166556 -0.573900 2.859900
v 0.581756 -0.573900 2.859900
v 0.166556 -0.983200 2.859900
v 0.581756 -0.983200 2.859900
v 0.166556 0.848400 1.329800
v 0.581756 0.848400 1.329800
v 0.166556 1.257700 1.329800
v 0.581756 1.257700 1.329800
v 0.166556 1.257700 0.693000
v 0.581756 1.257700 0.693000
v 0.166556 0.848400 0.693000
v 0.581756 0.848400 0.693000
v -0.605544 0.848400 1.329800
v -0.190344 0.848400 1.329800
v -0.605544 1.257700 1.329800
v -0.190344 1.257700 1.329800
v -0.605544 1.257700 0.693000
v -0.190344 1.257700 0.693000
v -0.605544 0.848400 0.693000
v -0.190344 0.848400 0.693000
v 0.166556 -0.052600 1.329800
v 0.581756 -0.052600 1.329800
v 0.166556 0.356700 1.329800
v 0.581756 0.356700 1.329800
v 0.166556 0.356700 0.693000
v 0.581756 0.356700 0.693000
v 0.166556 -0.052600 0.693000
v 0.581756 -0.052600 0.693000
v -0.605544 -0.052600 1.329800
v -0.190344 -0.052600 1.329800
v -0.605544 0.356700 1.329800
v -0.190344 0.356700 1.329800
v -0.605544 0.356700 0.693000
v -0.190344 0.356700 0.693000
v -0.605544 -0.052600 0.693000
v -0.190344 -0.052600 0.693000
v -0.605544 -0.983200 1.329800
v -0.190344 -0.983200 1.329800
v -0.605544 -0.573900 1.329800
v -0.190344 -0.573900 1.329800
v -0.605544 -0.573900 0.693000
v -0.190344 -0.573900 0.693000
v -0.605544 -0.983200 0.693000
v -0.190344 -0.983200 0.693000
v 0.166556 -0.983200 1.329800
v 0.581756 -0.983200 1.329800
v 0.166556 -0.573900 1.329800
v 0.581756 -0.573900 1.329800
v 0.166556 -0.573900 0.693000
v 0.581756 -0.573900 0.693000
v 0.166556 -0.983200 0.693000
v 0.581756 -0.983200 0.693000
v 0.166556 0.848400 -0.764400
v 0.581756 0.848400 -0.764400
v 0.166556 1.257700 -0.764400
v 0.581756 1.257700 -0.764400
v 0.166556 1.257700 -1.401200
v 0.581756 1.257700 -1.401200
v 0.166556 0.848400 -1.401200
v 0.581756 0.848400 -1.401200
v -0.605544 0.848400 -0.764400
v -0.190344 0.848400 -0.764400
v -0.605544 1.257700 -0.764400
v -0.190344 1.257700 -0.764400
v -0.605544 1.257700 -1.401200
v -0.190344 1.257700 -1.401200
v -0.605544 0.848400 -1.401200
v -0.190344 0.848400 -1.401200
v 0.166556 -0.052600 -0.764400
v 0.581756 -0.052600 -0.764400
v 0.166556 0.356700 -0.764400
v 0.581756 0.356700 -0.764400
v 0.166556 0.356700 -1.401200
v 0.581756 0.356700 -1.401200
v 0.166556 -0.052600 -1.401200
v 0.581756 -0.052600 -1.401200
v -0.605544 -0.052600 -0.764400
v -0.190344 -0.052600 -0.764400
v -0.605544 0.356700 -0.764400
v -0.190344 0.356700 -0.764400
v -0.605544 0.356700 -1.401200
v -0.190344 0.356700 -1.401200
v -0.605544 -0.052600 -1.401200
v -0.190344 -0.052600 -1.401200
v -0.605544 -0.983200 -0.764400
v -0.190344 -0.983200 -0.764400
v -0.605544 -0.573900 -0.764400
v -0.190344 -0.573900 -0.764400
v -0.605544 -0.573900 -1.401200
v -0.190344 -0.573900 -1.401200
v -0.605544 -0.983200 -1.401200
v -0.190344 -0.983200 -1.401200
v 0.166556 -0.983200 -0.764400
v 0.581756 -0.983200 -0.764400
v 0.166556 -0.573900 -0.764400
v 0.581756 -0.573900 -0.764400
v 0.166556 -0.573900 -1.401200
v 0.581756 -0.573900 -1.401200
v 0.166556 -0.983200 -1.401200
v 0.581756 -0.983200 -1.401200
v 0.166556 0.848400 -2.801300
v 0.581756 0.848400 -2.801300
v 0.166556 1.257700 -2.801300
v 0.581756 1.257700 -2.801300
v 0.166556 1.257701 -3.438100
v 0.581756 1.257701 -3.438100
v 0.166556 0.848401 -3.438100
v 0.581756 0.848401 -3.438100
v -0.605544 0.848400 -2.801300
v -0.190344 0.848400 -2.801300
v -0.605544 1.257700 -2.801300
v -0.190344 1.257700 -2.801300
v -0.605544 1.257701 -3.438100
v -0.190344 1.257701 -3.438100
v -0.605544 0.848401 -3.438100
v -0.190344 0.848401 -3.438100
v 0.166556 -0.052600 -2.801300
v 0.581756 -0.052600 -2.801300
v 0.166556 0.356700 -2.801300
v 0.581756 0.356700 -2.801300
v 0.166556 0.356701 -3.438100
v 0.581756 0.356701 -3.438100
v 0.166556 -0.052599 -3.438100
v 0.581756 -0.052599 -3.438100
v -0.605544 -0.052600 -2.801300
v -0.190344 -0.052600 -2.801300
v -0.605544 0.356700 -2.801300
v -0.190344 0.356700 -2.801300
v -0.605544 0.356701 -3.438100
v -0.190344 0.356701 -3.438100
v -0.605544 -0.052599 -3.438100
v -0.190344 -0.052599 -3.438100
v -0.605544 -0.983200 -2.801300
v -0.190344 -0.983200 -2.801300
v -0.605544 -0.573900 -2.801300
v -0.190344 -0.573900 -2.801300
v -0.605544 -0.573899 -3.438100
v -0.190344 -0.573899 -3.438100
v -0.605544 -0.983199 -3.438100
v -0.190344 -0.983199 -3.438100
v 0.166556 -0.983200 -2.801300
v 0.581756 -0.983200 -2.801300
v 0.166556 -0.573900 -2.801300
v 0.581756 -0.573900 -2.801300
v 0.166556 -0.573899 -3.438100
v 0.581756 -0.573899 -3.438100
v 0.166556 -0.983199 -3.438100
v 0.581756 -0.983199 -3.438100
v 0.166556 0.848401 -4.819700
v 0.581756 0.848401 -4.819700
v 0.166556 1.257701 -4.819700
v 0.581756 1.257701 -4.819700
v 0.166556 1.257701 -5.456500
v 0.581756 1.257701 -5.456500
v 0.166556 0.848401 -5.456500
v 0.581756 0.848401 -5.456500
v -0.605544 0.848401 -4.819700
v -0.190344 0.848401 -4.819700
v -0.605544 1.257701 -4.819700
v -0.190344 1.257701 -4.819700
v -0.605544 1.257701 -5.456500
v -0.190344 1.257701 -5.456500
v -0.605544 0.848401 -5.456500
v -0.190344 0.848401 -5.456500
v 0.166556 -0.052599 -4.819700
v 0.581756 -0.052599 -4.819700
v 0.166556 0.356701 -4.819700
v 0.581756 0.356701 -4.819700
v 0.166556 0.356701 -5.456500
v 0.581756 0.356701 -5.456500
v 0.166556 -0.052599 -5.456500
v 0.581756 -0.052599 -5.456500
v -0.605544 -0.052599 -4.819700
v -0.190344 -0.052599 -4.819700
v -0.605544 0.356701 -4.819700
v -0.190344 0.356701 -4.819700
v -0.605544 0.356701 -5.456500
v -0.190344 0.356701 -5.456500
v -0.605544 -0.052599 -5.456500
v -0.190344 -0.052599 -5.456500
v -0.605544 -0.983199 -4.819700
v -0.190344 -0.983199 -4.819700
v -0.605544 -0.573899 -4.819700
v -0.190344 -0.573899 -4.819700
v -0.605544 -0.573899 -5.456500
v -0.190344 -0.573899 -5.456500
v -0.605544 -0.983199 -5.456500
v -0.190344 -0.983199 -5.456500
v 0.166556 -0.983199 -4.819700
v 0.581756 -0.983199 -4.819700
v 0.166556 -0.573899 -4.819700
v 0.581756 -0.573899 -4.819700
v 0.166556 -0.573899 -5.456500
v 0.581756 -0.573899 -5.456500
v 0.166556 -0.983199 -5.456500
v 0.581756 -0.983199 -5.456500
v 0.166556 0.848401 -6.834100
v 0.581756 0.848401 -6.834100
v 0.166556 1.257701 -6.834100
v 0.581756 1.257701 -6.834100
v 0.166556 1.257701 -7.470900
v 0.581756 1.257701 -7.470900
v 0.166556 0.848401 -7.470900
v 0.581756 0.848401 -7.470900
v -0.605544 0.848401 -6.834100
v -0.190344 0.848401 -6.834100
v -0.605544 1.257701 -6.834100
v -0.190344 1.257701 -6.834100
v -0.605544 1.257701 -7.470900
v -0.190344 1.257701 -7.470900
v -0.605544 0.848401 -7.470900
v -0.190344 0.848401 -7.470900
v 0.166556 -0.052599 -6.834100
v 0.581756 -0.052599 -6.834100
v 0.166556 0.356701 -6.834100
v 0.581756 0.356701 -6.834100
v 0.166556 0.356701 -7.470900
v 0.581756 0.356701 -7.470900
v 0.166556 -0.052599 -7.470900
v 0.581756 -0.052599 -7.470900
v -0.605544 -0.052599 -6.834100
v -0.190344 -0.052599 -6.834100
v -0.605544 0.356701 -6.834100
v -0.190344 0.356701 -6.834100
v -0.605544 0.356701 -7.470900
v -0.190344 0.356701 -7.470900
v -0.605544 -0.052599 -7.470900
v -0.190344 -0.052599 -7.470900
v -0.605544 -0.983199 -6.834100
v -0.190344 -0.983199 -6.834100
v -0.605544 -0.573899 -6.834100
v -0.190344 -0.573899 -6.834100
v -0.605544 -0.573899 -7.470900
v -0.190344 -0.573899 -7.470900
v -0.605544 -0.983199 -7.470900
v -0.190344 -0.983199 -7.470900
v 0.166556 -0.983199 -6.834100
v 0.581756 -0.983199 -6.834100
v 0.166556 -0.573899 -6.834100
v 0.581756 -0.573899 -6.834100
v 0.166556 -0.573899 -7.470900
v 0.581756 -0.573899 -7.470900
v 0.166556 -0.983199 -7.470900
v 0.581756 -0.983199 -7.470900
v 0.166556 0.848401 -8.988400
v 0.581756 0.848401 -8.988400
v 0.166556 1.257701 -8.988400
v 0.581756 1.257701 -8.988400
v 0.166556 1.257702 -9.625199
v 0.581756 1.257702 -9.625199
v 0.166556 0.848402 -9.625199
v 0.581756 0.848402 -9.625199
v -0.605544 0.848401 -8.988400
v -0.190344 0.848401 -8.988400
v -0.605544 1.257701 -8.988400
v -0.190344 1.257701 -8.988400
v -0.605544 1.257702 -9.625199
v -0.190344 1.257702 -9.625199
v -0.605544 0.848402 -9.625199
v -0.190344 0.848402 -9.625199
v 0.166556 -0.052599 -8.988400
v 0.581756 -0.052599 -8.988400
v 0.166556 0.356701 -8.988400
v 0.581756 0.356701 -8.988400
v 0.166556 0.356702 -9.625199
v 0.581756 0.356702 -9.625199
v 0.166556 -0.052598 -9.625199
v 0.581756 -0.052598 -9.625199
v -0.605544 -0.052599 -8.988400
v -0.190344 -0.052599 -8.988400
v -0.605544 0.356701 -8.988400
v -0.190344 0.356701 -8.988400
v -0.605544 0.356702 -9.625199
v -0.190344 0.356702 -9.625199
v -0.605544 -0.052598 -9.625199
v -0.190344 -0.052598 -9.625199
v -0.605544 -0.983199 -8.988400
v -0.190344 -0.983199 -8.988400
v -0.605544 -0.573898 -8.988400
v -0.190344 -0.573898 -8.988400
v -0.605544 -0.573898 -9.625199
v -0.190344 -0.573898 -9.625199
v -0.605544 -0.983198 -9.625199
v -0.190344 -0.983198 -9.625199
v 0.166556 -0.983199 -8.988400
v 0.581756 -0.983199 -8.988400
v 0.166556 -0.573898 -8.988400
v 0.581756 -0.573898 -8.988400
v 0.166556 -0.573898 -9.625199
v 0.581756 -0.573898 -9.625199
v 0.166556 -0.983198 -9.625199
v 0.581756 -0.983198 -9.625199
vn -0.0000 1.0000 -0.0000
vn -0.0000 -0.0000 1.0000
vn -0.0000 -0.0000 -1.0000
vn -1.0000 -0.0000 -0.0000
vn 1.0000 -0.0000 -0.0000
vt 0.410871 0.400046
vt 0.410871 0.311201
vt 0.499232 0.400046
vt 0.499232 0.311201
vt 0.385302 0.783932
vt 0.221120 0.689838
vt 0.380670 0.783932
vt 0.077960 0.608507
vt 0.385302 0.702600
vt 0.221120 0.608507
vt 0.380670 0.702600
vt 0.077960 0.689839
vt 0.363277 0.702600
vt 0.226254 0.608507
vt 0.367909 0.702600
vt 0.083094 0.689839
vt 0.363277 0.783932
vt 0.226254 0.689838
vt 0.367909 0.783932
vt 0.083094 0.608507
vt 0.243647 0.783932
vt 0.666801 0.275898
vt 0.239016 0.783932
vt 0.648907 0.382753
vt 0.243647 0.702600
vt 0.666801 0.194567
vt 0.239016 0.702600
vt 0.648907 0.464084
vt 0.221121 0.702600
vt 0.671935 0.194567
vt 0.225752 0.702600
vt 0.654040 0.464084
vt 0.221121 0.783932
vt 0.671935 0.275898
vt 0.225752 0.783932
vt 0.654040 0.382753
vt 0.099985 0.783932
vt 0.256911 0.595746
vt 0.095354 0.783932
vt 0.239016 0.514414
vt 0.099985 0.702600
vt 0.256911 0.514414
vt 0.095354 0.702600
vt 0.239016 0.595746
vt 0.077961 0.702600
vt 0.262044 0.514414
vt 0.082592 0.702600
vt 0.244149 0.595746
vt 0.077961 0.783932
vt 0.262044 0.595746
vt 0.082592 0.783932
vt 0.244149 0.514414
vt 0.064697 0.783932
vt 0.221121 0.595746
vt 0.060066 0.783932
vt 0.167436 0.514414
vt 0.064697 0.702600
vt 0.221121 0.514414
vt 0.060066 0.702600
vt 0.167436 0.595746
vt 0.754771 0.006381
vt 0.226254 0.514414
vt 0.759403 0.006381
vt 0.172569 0.595746
vt 0.754771 0.087712
vt 0.226254 0.595746
vt 0.759403 0.087712
vt 0.172569 0.514414
vt 0.410871 0.298439
vt 0.410871 0.209594
vt 0.499232 0.298439
vt 0.499232 0.209594
vt 0.107503 0.501653
vt 0.107503 0.412807
vt 0.195865 0.501653
vt 0.195865 0.412807
vt 0.410872 0.196833
vt 0.410872 0.107987
vt 0.499233 0.196833
vt 0.499233 0.107987
vt 0.410872 0.095226
vt 0.410872 0.006381
vt 0.499233 0.095226
vt 0.499233 0.006381
vt 0.107503 0.400046
vt 0.107503 0.311201
vt 0.195864 0.400046
vt 0.195864 0.311201
vt 0.743201 0.595746
vt 0.613117 0.464084
vt 0.738569 0.595746
vt 0.613117 0.288660
vt 0.743201 0.514414
vt 0.613117 0.382753
vt 0.738569 0.514414
vt 0.613117 0.369991
vt 0.738068 0.608507
vt 0.618250 0.382753
vt 0.742699 0.608507
vt 0.618250 0.369991
vt 0.738068 0.689838
vt 0.618250 0.464084
vt 0.742699 0.689838
vt 0.618250 0.288660
vt 0.707223 0.087712
vt 0.648907 0.181805
vt 0.702592 0.087712
vt 0.613117 0.194567
vt 0.707223 0.006381
vt 0.648907 0.100474
vt 0.702592 0.006381
vt 0.613117 0.275898
vt 0.686390 0.514414
vt 0.654040 0.100474
vt 0.691022 0.514414
vt 0.618250 0.275898
vt 0.686390 0.595746
vt 0.654040 0.181805
vt 0.691022 0.595746
vt 0.618250 0.194567
vt 0.618940 0.689839
vt 0.525335 0.595746
vt 0.614308 0.689839
vt 0.507440 0.514414
vt 0.618940 0.608507
vt 0.525335 0.514414
vt 0.614308 0.608507
vt 0.507440 0.595746
vt 0.560623 0.608507
vt 0.530469 0.514414
vt 0.565255 0.608507
vt 0.512574 0.595746
vt 0.560623 0.689838
vt 0.530469 0.595746
vt 0.565255 0.689838
vt 0.512574 0.514414
vt 0.547862 0.689838
vt 0.543230 0.595746
vt 0.543230 0.689838
vt 0.561125 0.514414
vt 0.547862 0.608507
vt 0.543230 0.514414
vt 0.543230 0.608507
vt 0.561125 0.595746
vt 0.489545 0.608507
vt 0.548364 0.514414
vt 0.494177 0.608507
vt 0.566259 0.595746
vt 0.489545 0.689839
vt 0.548364 0.595746
vt 0.494177 0.689839
vt 0.566259 0.514414
vt 0.511994 0.298439
vt 0.511994 0.209594
vt 0.600355 0.298439
vt 0.600355 0.209594
vt 0.511994 0.400046
vt 0.511994 0.311201
vt 0.600355 0.400046
vt 0.600355 0.311201
vt 0.511994 0.501653
vt 0.511994 0.412807
vt 0.600355 0.501653
vt 0.600355 0.412807
vt 0.476282 0.689839
vt 0.239016 0.689838
vt 0.471650 0.689839
vt 0.256910 0.608507
vt 0.476282 0.608507
vt 0.239016 0.608507
vt 0.471650 0.608507
vt 0.256910 0.689839
vt 0.416962 0.608507
vt 0.244149 0.608507
vt 0.421594 0.608507
vt 0.262044 0.689839
vt 0.416962 0.689838
vt 0.244149 0.689838
vt 0.421594 0.689838
vt 0.262044 0.608507
vt 0.367909 0.689838
vt 0.274806 0.689838
vt 0.363277 0.689838
vt 0.292700 0.608507
vt 0.367909 0.608507
vt 0.274806 0.608507
vt 0.363277 0.608507
vt 0.292700 0.689839
vt 0.345884 0.608507
vt 0.279939 0.608507
vt 0.350515 0.608507
vt 0.297834 0.689839
vt 0.345884 0.689839
vt 0.279939 0.689838
vt 0.350515 0.689839
vt 0.297834 0.608507
vt 0.386807 0.689839
vt 0.042171 0.689838
vt 0.382176 0.689839
vt 0.024276 0.608507
vt 0.386807 0.608507
vt 0.042171 0.608507
vt 0.382176 0.608507
vt 0.024276 0.689839
vt 0.399569 0.608507
vt 0.047304 0.608507
vt 0.404200 0.608507
vt 0.029409 0.689839
vt 0.399569 0.689838
vt 0.047304 0.689838
vt 0.404200 0.689838
vt 0.029409 0.608507
vt 0.708415 0.595746
vt 0.684697 0.181805
vt 0.703783 0.595746
vt 0.666801 0.382753
vt 0.708415 0.514414
vt 0.684697 0.100474
vt 0.703783 0.514414
vt 0.666801 0.464084
vt 0.721176 0.514414
vt 0.689830 0.100474
vt 0.725808 0.514414
vt 0.671935 0.464084
vt 0.721176 0.595746
vt 0.689830 0.181805
vt 0.725808 0.595746
vt 0.671935 0.382753
vt 0.309749 0.196833
vt 0.309749 0.107988
vt 0.398109 0.196833
vt 0.398109 0.107988
vt 0.309749 0.095226
vt 0.309749 0.006381
vt 0.398109 0.095226
vt 0.398109 0.006381
vt 0.309749 0.298439
vt 0.309749 0.209594
vt 0.398109 0.298439
vt 0.398109 0.209594
vt 0.742010 0.464084
vt 0.650600 0.595746
vt 0.737378 0.464084
vt 0.648907 0.194567
vt 0.742010 0.382753
vt 0.650600 0.514414
vt 0.737378 0.382753
vt 0.648907 0.275898
vt 0.772164 0.006381
vt 0.655734 0.514414
vt 0.776796 0.006381
vt 0.654040 0.275898
vt 0.772164 0.087712
vt 0.655734 0.595746
vt 0.776796 0.087712
vt 0.654040 0.194567
vt 0.777486 0.689838
vt 0.203226 0.689839
vt 0.772854 0.689838
vt 0.131646 0.608507
vt 0.777486 0.608507
vt 0.203226 0.608507
vt 0.772854 0.608507
vt 0.131646 0.689839
vt 0.024276 0.702600
vt 0.208360 0.608507
vt 0.028907 0.702600
vt 0.136780 0.689839
vt 0.024276 0.783932
vt 0.208360 0.689839
vt 0.028907 0.783932
vt 0.136780 0.608507
vt 0.297332 0.783932
vt 0.666801 0.181805
vt 0.292701 0.783932
vt 0.666801 0.006381
vt 0.297332 0.702600
vt 0.666801 0.100474
vt 0.292701 0.702600
vt 0.666801 0.087712
vt 0.164927 0.702600
vt 0.671935 0.100474
vt 0.169558 0.702600
vt 0.671935 0.087712
vt 0.164927 0.783932
vt 0.671935 0.181805
vt 0.169558 0.783932
vt 0.671935 0.006381
vt 0.152165 0.783932
vt 0.648907 0.369991
vt 0.147533 0.783932
vt 0.149541 0.608507
vt 0.152165 0.702600
vt 0.648907 0.288660
vt 0.147533 0.702600
vt 0.149541 0.689839
vt 0.042171 0.702600
vt 0.654040 0.288660
vt 0.046802 0.702600
vt 0.154675 0.689839
vt 0.042171 0.783932
vt 0.654040 0.369991
vt 0.046802 0.783932
vt 0.154675 0.608507
vt 0.006381 0.095226
vt 0.006381 0.006381
vt 0.094742 0.095226
vt 0.094742 0.006381
vt 0.107504 0.095226
vt 0.107504 0.006381
vt 0.195865 0.095226
vt 0.195865 0.006381
vt 0.006381 0.196833
vt 0.006381 0.107988
vt 0.094742 0.196833
vt 0.094742 0.107988
vt 0.776796 0.464084
vt 0.113751 0.595746
vt 0.772164 0.464084
vt 0.006381 0.514414
vt 0.776796 0.382753
vt 0.113751 0.514414
vt 0.772164 0.382753
vt 0.006381 0.595746
vt 0.772164 0.100474
vt 0.118885 0.514414
vt 0.776796 0.100474
vt 0.011515 0.595746
vt 0.772164 0.181805
vt 0.118885 0.595746
vt 0.776796 0.181805
vt 0.011515 0.514414
vt 0.759403 0.464084
vt 0.024276 0.595746
vt 0.754771 0.464084
vt 0.095856 0.514414
vt 0.759403 0.382753
vt 0.024276 0.514414
vt 0.754771 0.382753
vt 0.095856 0.595746
vt 0.754771 0.288660
vt 0.029409 0.514414
vt 0.759403 0.288660
vt 0.100989 0.595746
vt 0.754771 0.369991
vt 0.029409 0.595746
vt 0.759403 0.369991
vt 0.100989 0.514414
vt 0.742010 0.369991
vt 0.042171 0.595746
vt 0.737378 0.369991
vt 0.060066 0.514414
vt 0.742010 0.288660
vt 0.042171 0.514414
vt 0.737378 0.288660
vt 0.060066 0.595746
vt 0.737378 0.006381
vt 0.047305 0.514414
vt 0.742010 0.006381
vt 0.065200 0.595746
vt 0.737378 0.087712
vt 0.047305 0.595746
vt 0.742010 0.087712
vt 0.065200 0.514414
vt 0.724616 0.369991
vt 0.077961 0.595746
vt 0.719985 0.369991
vt 0.131646 0.514414
vt 0.724616 0.288660
vt 0.077961 0.514414
vt 0.719985 0.288660
vt 0.131646 0.595746
vt 0.719985 0.194567
vt 0.083095 0.514414
vt 0.724616 0.194567
vt 0.136780 0.595746
vt 0.719985 0.275898
vt 0.083095 0.595746
vt 0.724616 0.275898
vt 0.136780 0.514414
vt 0.006381 0.298439
vt 0.006381 0.209594
vt 0.094742 0.298439
vt 0.094742 0.209594
vt 0.707913 0.689838
vt 0.095855 0.689839
vt 0.703281 0.689838
vt 0.113750 0.608507
vt 0.707913 0.608507
vt 0.095855 0.608507
vt 0.703281 0.608507
vt 0.113750 0.689839
vt 0.702591 0.194567
vt 0.100989 0.608507
vt 0.707223 0.194567
vt 0.118884 0.689839
vt 0.702591 0.275898
vt 0.100989 0.689839
vt 0.707223 0.275898
vt 0.118884 0.608507
vt 0.707223 0.181805
vt 0.167436 0.689839
vt 0.702592 0.181805
vt 0.185330 0.608507
vt 0.707223 0.100474
vt 0.167436 0.608507
vt 0.702592 0.100474
vt 0.185330 0.689839
vt 0.685888 0.608507
vt 0.172569 0.608507
vt 0.690520 0.608507
vt 0.190464 0.689839
vt 0.685888 0.689838
vt 0.172569 0.689839
vt 0.690520 0.689838
vt 0.190464 0.608507
vt 0.636333 0.689838
vt 0.364280 0.595746
vt 0.631702 0.689838
vt 0.346385 0.514414
vt 0.636333 0.608507
vt 0.364280 0.514414
vt 0.631702 0.608507
vt 0.346385 0.595746
vt 0.596915 0.608507
vt 0.369414 0.514414
vt 0.601547 0.608507
vt 0.351519 0.595746
vt 0.596915 0.689839
vt 0.369414 0.595746
vt 0.601547 0.689839
vt 0.351519 0.514414
vt 0.333122 0.689839
vt 0.328490 0.595746
vt 0.328491 0.689839
vt 0.310596 0.514414
vt 0.333122 0.608507
vt 0.328490 0.514414
vt 0.328491 0.608507
vt 0.310596 0.595746
vt 0.310596 0.608507
vt 0.333624 0.514414
vt 0.315227 0.608507
vt 0.315729 0.595746
vt 0.310596 0.689838
vt 0.333624 0.595746
vt 0.315227 0.689838
vt 0.315729 0.514414
vt 0.107503 0.298439
vt 0.107503 0.209594
vt 0.195865 0.298439
vt 0.195865 0.209594
vt 0.208626 0.298439
vt 0.208626 0.209594
vt 0.296987 0.298439
vt 0.296987 0.209594
vt 0.208626 0.196833
vt 0.208626 0.107988
vt 0.296987 0.196833
vt 0.296987 0.107988
vt 0.208626 0.095226
vt 0.208626 0.006381
vt 0.296987 0.095226
vt 0.296987 0.006381
vt 0.107504 0.196833
vt 0.107504 0.107988
vt 0.195865 0.196833
vt 0.195865 0.107988
vt 0.438987 0.689839
vt 0.203226 0.595746
vt 0.434355 0.689839
vt 0.400071 0.514414
vt 0.438987 0.608507
vt 0.203226 0.514414
vt 0.434355 0.608507
vt 0.400071 0.595746
vt 0.453755 0.608507
vt 0.208360 0.514414
vt 0.458387 0.608507
vt 0.405204 0.595746
vt 0.453755 0.689838
vt 0.208360 0.595746
vt 0.458387 0.689838
vt 0.405204 0.514414
vt 0.512072 0.689838
vt 0.149541 0.595746
vt 0.507440 0.689838
vt 0.185331 0.514414
vt 0.512072 0.608507
vt 0.149541 0.514414
vt 0.507440 0.608507
vt 0.185331 0.595746
vt 0.525335 0.608507
vt 0.154675 0.514414
vt 0.529967 0.608507
vt 0.190465 0.595746
vt 0.525335 0.689839
vt 0.154675 0.595746
vt 0.529967 0.689839
vt 0.190465 0.514414
vt 0.582648 0.689839
vt 0.274806 0.595746
vt 0.578017 0.689839
vt 0.292701 0.514414
vt 0.582648 0.608507
vt 0.274806 0.514414
vt 0.578017 0.608507
vt 0.292701 0.595746
vt 0.310596 0.702600
vt 0.279940 0.514414
vt 0.315227 0.702600
vt 0.297834 0.595746
vt 0.310596 0.783932
vt 0.279940 0.595746
vt 0.315227 0.783932
vt 0.297834 0.514414
vt 0.655232 0.689838
vt 0.382175 0.595746
vt 0.650600 0.689838
vt 0.417966 0.514414
vt 0.655232 0.608507
vt 0.382175 0.514414
vt 0.650600 0.608507
vt 0.417966 0.595746
vt 0.668495 0.608507
vt 0.387309 0.514414
vt 0.673127 0.608507
vt 0.423100 0.595746
vt 0.668495 0.689839
vt 0.387309 0.595746
vt 0.673127 0.689839
vt 0.423100 0.514414
vt 0.511994 0.196833
vt 0.511994 0.107988
vt 0.600355 0.196833
vt 0.600355 0.107988
vt 0.511994 0.095226
vt 0.511994 0.006381
vt 0.600355 0.095226
vt 0.600355 0.006381
vt 0.410872 0.501653
vt 0.410872 0.412807
vt 0.499233 0.501653
vt 0.499233 0.412807
vt 0.707223 0.369991
vt 0.060065 0.689839
vt 0.702591 0.369991
vt 0.006381 0.608507
vt 0.707223 0.288660
vt 0.060065 0.608507
vt 0.702591 0.288660
vt 0.006381 0.689839
vt 0.702592 0.382753
vt 0.065199 0.608507
vt 0.707223 0.382753
vt 0.011514 0.689839
vt 0.702592 0.464084
vt 0.065199 0.689839
vt 0.707223 0.464084
vt 0.011514 0.608507
vt 0.724616 0.087712
vt 0.684696 0.464084
vt 0.719985 0.087712
vt 0.684696 0.288660
vt 0.724616 0.006381
vt 0.684696 0.382753
vt 0.719985 0.006381
vt 0.684696 0.369991
vt 0.719985 0.100474
vt 0.689830 0.382753
vt 0.724616 0.100474
vt 0.689830 0.369991
vt 0.719985 0.181805
vt 0.689830 0.464084
vt 0.724616 0.181805
vt 0.689830 0.288660
vt 0.724616 0.464084
vt 0.684696 0.275898
vt 0.719985 0.464084
vt 0.684697 0.006381
vt 0.724616 0.382753
vt 0.684696 0.194567
vt 0.719985 0.382753
vt 0.684697 0.087712
vt 0.720675 0.608507
vt 0.689830 0.194567
vt 0.725306 0.608507
vt 0.689830 0.087712
vt 0.720675 0.689838
vt 0.689830 0.275898
vt 0.725306 0.689838
vt 0.689830 0.006381
vt 0.742010 0.181805
vt 0.668495 0.595746
vt 0.737378 0.181805
vt 0.666801 0.288660
vt 0.742010 0.100474
vt 0.668495 0.514414
vt 0.737378 0.100474
vt 0.666801 0.369991
vt 0.737378 0.194567
vt 0.673628 0.514414
vt 0.742010 0.194567
vt 0.671935 0.369991
vt 0.737378 0.275898
vt 0.673628 0.595746
vt 0.742010 0.275898
vt 0.671935 0.288660
vt 0.309749 0.501653
vt 0.309749 0.412807
vt 0.398110 0.501653
vt 0.398110 0.412807
vt 0.208626 0.501653
vt 0.208626 0.412807
vt 0.296987 0.501653
vt 0.296987 0.412807
vt 0.006381 0.501653
vt 0.006381 0.412807
vt 0.094742 0.501653
vt 0.094742 0.412807
vt 0.759403 0.181805
vt 0.614810 0.595746
vt 0.754771 0.181805
vt 0.631012 0.006381
vt 0.759403 0.100474
vt 0.614810 0.514414
vt 0.754771 0.100474
vt 0.631012 0.087712
vt 0.754771 0.194567
vt 0.619944 0.514414
vt 0.759403 0.194567
vt 0.636145 0.087712
vt 0.754771 0.275898
vt 0.619944 0.595746
vt 0.759403 0.275898
vt 0.636145 0.006381
vt 0.760093 0.689838
vt 0.631012 0.181805
vt 0.755461 0.689838
vt 0.631012 0.194567
vt 0.760093 0.608507
vt 0.631012 0.100474
vt 0.755461 0.608507
vt 0.631012 0.275898
vt 0.755963 0.514414
vt 0.636145 0.100474
vt 0.760594 0.514414
vt 0.636145 0.275898
vt 0.755963 0.595746
vt 0.636145 0.181805
vt 0.760594 0.595746
vt 0.636145 0.194567
vt 0.776796 0.275898
vt 0.631012 0.464084
vt 0.772164 0.275898
vt 0.632705 0.514414
vt 0.776796 0.194567
vt 0.631012 0.382753
vt 0.772164 0.194567
vt 0.632705 0.595746
vt 0.772164 0.288660
vt 0.636145 0.382753
vt 0.776796 0.288660
vt 0.637839 0.595746
vt 0.772164 0.369991
vt 0.636145 0.464084
vt 0.776796 0.369991
vt 0.637839 0.514414
vt 0.777987 0.595746
vt 0.648907 0.087712
vt 0.773356 0.595746
vt 0.631012 0.288660
vt 0.777987 0.514414
vt 0.648907 0.006381
vt 0.773356 0.514414
vt 0.631012 0.369991
vt 0.006381 0.702600
vt 0.654040 0.006381
vt 0.011012 0.702600
vt 0.636145 0.369991
vt 0.006381 0.783932
vt 0.654040 0.087712
vt 0.011012 0.783932
vt 0.636145 0.288660
vt 0.006381 0.400046
vt 0.006381 0.311201
vt 0.094742 0.400046
vt 0.094742 0.311201
vt 0.309749 0.400046
vt 0.309749 0.311201
vt 0.398110 0.400046
vt 0.398110 0.311201
vt 0.208626 0.400046
vt 0.208626 0.311201
vt 0.296987 0.400046
vt 0.296987 0.311201
vt 0.117379 0.783932
vt 0.596915 0.595746
vt 0.112747 0.783932
vt 0.613117 0.006381
vt 0.117379 0.702600
vt 0.596915 0.514414
vt 0.112747 0.702600
vt 0.613117 0.087712
vt 0.130140 0.702600
vt 0.602049 0.514414
vt 0.134772 0.702600
vt 0.618250 0.087712
vt 0.130140 0.783932
vt 0.602049 0.595746
vt 0.134772 0.783932
vt 0.618250 0.006381
vt 0.189963 0.783932
vt 0.579020 0.595746
vt 0.185331 0.783932
vt 0.613117 0.100474
vt 0.189963 0.702600
vt 0.579020 0.514414
vt 0.185331 0.702600
vt 0.613117 0.181805
vt 0.202724 0.702600
vt 0.584154 0.514414
vt 0.207356 0.702600
vt 0.618250 0.181805
vt 0.202724 0.783932
vt 0.584154 0.595746
vt 0.207356 0.783932
vt 0.618250 0.100474
vt 0.261542 0.783932
vt 0.471650 0.595746
vt 0.256911 0.783932
vt 0.435861 0.514414
vt 0.261542 0.702600
vt 0.471650 0.514414
vt 0.256911 0.702600
vt 0.435861 0.595746
vt 0.274806 0.702600
vt 0.476784 0.514414
vt 0.279437 0.702600
vt 0.440994 0.595746
vt 0.274806 0.783932
vt 0.476784 0.595746
vt 0.279437 0.783932
vt 0.440994 0.514414
vt 0.333122 0.783932
vt 0.489545 0.595746
vt 0.328491 0.783932
vt 0.453755 0.514414
vt 0.333122 0.702600
vt 0.489545 0.514414
vt 0.328491 0.702600
vt 0.453755 0.595746
vt 0.345884 0.702600
vt 0.494679 0.514414
vt 0.350515 0.702600
vt 0.458889 0.595746
vt 0.345884 0.783932
vt 0.494679 0.595746
vt 0.350515 0.783932
vt 0.458889 0.514414
vt 0.993619 0.287175
vt 0.838933 0.280899
vt 0.993619 0.305612
vt 0.820757 0.362979
vt 0.975443 0.287175
vt 0.447700 0.730879
vt 0.820757 0.280899
vt 0.975443 0.305612
vt 0.429263 0.730879
vt 0.838933 0.362979
vt 0.447700 0.702600
vt 0.944506 0.430410
vt 0.820757 0.252621
vt 0.429263 0.702600
vt 0.944506 0.411972
vt 0.838933 0.334701
vt 0.962682 0.430410
vt 0.838933 0.252621
vt 0.962682 0.411972
vt 0.820757 0.334701
vt 0.963372 0.629866
vt 0.838933 0.411032
vt 0.963372 0.648304
vt 0.460462 0.853998
vt 0.945196 0.629866
vt 0.605670 0.730879
vt 0.820757 0.411032
vt 0.945196 0.648304
vt 0.587232 0.730879
vt 0.478638 0.853998
vt 0.605670 0.702600
vt 0.894894 0.988636
vt 0.820757 0.382753
vt 0.587232 0.702600
vt 0.894894 0.970198
vt 0.478638 0.825720
vt 0.913070 0.988636
vt 0.838933 0.382753
vt 0.913070 0.970198
vt 0.460462 0.825720
vt 0.086431 0.919813
vt 0.603435 0.853998
vt 0.086431 0.938251
vt 0.820757 0.034659
vt 0.068255 0.919813
vt 0.700237 0.730879
vt 0.585259 0.853998
vt 0.068255 0.938251
vt 0.681799 0.730879
vt 0.838933 0.034659
vt 0.700237 0.702600
vt 0.736866 0.495284
vt 0.585259 0.825720
vt 0.681799 0.702600
vt 0.736866 0.476846
vt 0.838933 0.006381
vt 0.755042 0.495284
vt 0.603435 0.825720
vt 0.755042 0.476846
vt 0.820757 0.006381
vt 0.540250 0.907800
vt 0.838933 0.239860
vt 0.540250 0.926237
vt 0.820757 0.157779
vt 0.522075 0.907800
vt 0.762636 0.730879
vt 0.820757 0.239860
vt 0.522075 0.926237
vt 0.744198 0.730879
vt 0.838933 0.157779
vt 0.762636 0.702600
vt 0.583949 0.926238
vt 0.820757 0.211581
vt 0.744198 0.702600
vt 0.583949 0.907800
vt 0.838933 0.129500
vt 0.602125 0.926238
vt 0.838933 0.211581
vt 0.602125 0.907800
vt 0.820757 0.129500
vt 0.979459 0.661560
vt 0.310876 0.824971
vt 0.979459 0.679998
vt 0.553536 0.853998
vt 0.961283 0.661560
vt 0.669038 0.730879
vt 0.292701 0.824971
vt 0.961283 0.679998
vt 0.650600 0.730879
vt 0.571712 0.853998
vt 0.669038 0.702600
vt 0.647396 0.926237
vt 0.292701 0.796693
vt 0.650600 0.702600
vt 0.647396 0.907800
vt 0.571712 0.825720
vt 0.665572 0.926237
vt 0.310876 0.796693
vt 0.665572 0.907800
vt 0.553536 0.825720
vt 0.758384 0.907800
vt 0.824772 0.730879
vt 0.758384 0.926237
vt 0.820757 0.321939
vt 0.740208 0.907800
vt 0.510099 0.730879
vt 0.806597 0.730879
vt 0.740208 0.926237
vt 0.491661 0.730879
vt 0.838933 0.321939
vt 0.510099 0.702600
vt 0.960314 0.844158
vt 0.806597 0.702600
vt 0.491661 0.702600
vt 0.960314 0.825720
vt 0.838933 0.293661
vt 0.978490 0.844158
vt 0.824772 0.702600
vt 0.978490 0.825720
vt 0.820757 0.293661
vt 0.820258 0.907800
vt 0.341814 0.824971
vt 0.820258 0.926237
vt 0.491661 0.853998
vt 0.802082 0.907800
vt 0.416501 0.730879
vt 0.323638 0.824971
vt 0.802082 0.926237
vt 0.398063 0.730879
vt 0.509837 0.853998
vt 0.416501 0.702600
vt 0.354575 0.969450
vt 0.323638 0.796693
vt 0.398063 0.702600
vt 0.354575 0.951012
vt 0.509837 0.825720
vt 0.372751 0.969450
vt 0.341814 0.796693
vt 0.372751 0.951012
vt 0.491661 0.825720
vt 0.341814 0.951012
vt 0.372751 0.824971
vt 0.341814 0.969450
vt 0.398063 0.853998
vt 0.323638 0.951012
vt 0.636869 0.730879
vt 0.354575 0.824971
vt 0.323638 0.969450
vt 0.618431 0.730879
vt 0.416239 0.853998
vt 0.636869 0.702600
vt 0.925832 0.885198
vt 0.354575 0.796693
vt 0.618431 0.702600
vt 0.925832 0.866760
vt 0.416239 0.825720
vt 0.944008 0.885198
vt 0.372751 0.796693
vt 0.944008 0.866760
vt 0.398063 0.825720
vt 0.947814 0.774839
vt 0.634634 0.853998
vt 0.947814 0.793277
vt 0.820757 0.116739
vt 0.929639 0.774839
vt 0.731436 0.730879
vt 0.616459 0.853998
vt 0.929639 0.793277
vt 0.712999 0.730879
vt 0.838933 0.116739
vt 0.731436 0.702600
vt 0.930346 0.679998
vt 0.616459 0.825720
vt 0.712999 0.702600
vt 0.930346 0.661560
vt 0.838933 0.088461
vt 0.948522 0.679998
vt 0.634634 0.825720
vt 0.948522 0.661560
vt 0.820757 0.088461
vt 0.447176 0.938999
vt 0.840124 0.542693
vt 0.447176 0.957437
vt 0.820757 0.198819
vt 0.429001 0.938999
vt 0.543271 0.730879
vt 0.821948 0.542693
vt 0.429001 0.957437
vt 0.524834 0.730879
vt 0.838933 0.198819
vt 0.543271 0.702600
vt 0.522075 0.957437
vt 0.821948 0.514415
vt 0.524834 0.702600
vt 0.522075 0.938999
vt 0.838933 0.170541
vt 0.540250 0.957437
vt 0.840124 0.514415
vt 0.540250 0.938999
vt 0.820757 0.170541
vt 0.024557 0.951012
vt 0.839622 0.636786
vt 0.024557 0.969450
vt 0.820757 0.493112
vt 0.006381 0.951012
vt 0.574471 0.730879
vt 0.821447 0.636786
vt 0.006381 0.969450
vt 0.556033 0.730879
vt 0.838933 0.493112
vt 0.574471 0.702600
vt 0.975443 0.149616
vt 0.821447 0.608507
vt 0.556033 0.702600
vt 0.975443 0.131178
vt 0.838933 0.464833
vt 0.993619 0.149616
vt 0.839622 0.608507
vt 0.993619 0.131178
vt 0.820757 0.464833
vt 0.993619 0.162377
vt 0.540774 0.853998
vt 0.993619 0.180815
vt 0.429263 0.853998
vt 0.975443 0.162377
vt 0.478900 0.730879
vt 0.522599 0.853998
vt 0.975443 0.180815
vt 0.460462 0.730879
vt 0.447438 0.853998
vt 0.478900 0.702600
vt 0.944506 0.492808
vt 0.522599 0.825720
vt 0.460462 0.702600
vt 0.944506 0.474370
vt 0.447438 0.825720
vt 0.962682 0.492808
vt 0.540774 0.825720
vt 0.962682 0.474370
vt 0.429263 0.825720
vt 0.993619 0.224776
vt 0.148306 0.907051
vt 0.993619 0.243214
vt 0.354575 0.907051
vt 0.975443 0.224776
vt 0.153705 0.824971
vt 0.130130 0.907051
vt 0.975443 0.243214
vt 0.135267 0.824971
vt 0.372751 0.907051
vt 0.153705 0.796693
vt 0.944506 0.368011
vt 0.130130 0.878773
vt 0.135267 0.796693
vt 0.944506 0.349573
vt 0.372751 0.878773
vt 0.962682 0.368011
vt 0.148306 0.878773
vt 0.962682 0.349573
vt 0.354575 0.878773
vt 0.962682 0.255975
vt 0.024557 0.907051
vt 0.962682 0.274413
vt 0.913569 0.321939
vt 0.944506 0.255975
vt 0.122505 0.824971
vt 0.006381 0.907051
vt 0.944506 0.274413
vt 0.104068 0.824971
vt 0.931745 0.321939
vt 0.122505 0.796693
vt 0.975443 0.368011
vt 0.006381 0.878773
vt 0.104068 0.796693
vt 0.975443 0.349573
vt 0.931745 0.293660
vt 0.993619 0.368011
vt 0.024557 0.878773
vt 0.993619 0.349573
vt 0.913569 0.293660
vt 0.962682 0.162377
vt 0.210180 0.907051
vt 0.962682 0.180815
vt 0.913569 0.157779
vt 0.944506 0.162377
vt 0.278502 0.824971
vt 0.192005 0.907051
vt 0.944506 0.180815
vt 0.260064 0.824971
vt 0.931745 0.157779
vt 0.278502 0.796693
vt 0.944506 0.118416
vt 0.192005 0.878773
vt 0.260064 0.796693
vt 0.944506 0.099979
vt 0.931745 0.129500
vt 0.962682 0.118416
vt 0.210180 0.878773
vt 0.962682 0.099979
vt 0.913569 0.129500
vt 0.882133 0.938999
vt 0.310876 0.907051
vt 0.882133 0.957437
vt 0.899409 0.689838
vt 0.863957 0.938999
vt 0.247303 0.824971
vt 0.292701 0.907051
vt 0.863957 0.957437
vt 0.228865 0.824971
vt 0.917584 0.689838
vt 0.247303 0.796693
vt 0.802082 0.957437
vt 0.292701 0.878773
vt 0.228865 0.796693
vt 0.802082 0.938999
vt 0.917584 0.661560
vt 0.820258 0.957437
vt 0.310876 0.878773
vt 0.820258 0.938999
vt 0.899409 0.661560
vt 0.665310 0.938999
vt 0.913070 0.895038
vt 0.665310 0.957437
vt 0.883321 0.595746
vt 0.647134 0.938999
vt 0.184904 0.824971
vt 0.894894 0.895038
vt 0.647134 0.957437
vt 0.166466 0.824971
vt 0.901497 0.595746
vt 0.184904 0.796693
vt 0.944506 0.305612
vt 0.894894 0.866759
vt 0.166466 0.796693
vt 0.944506 0.287175
vt 0.901497 0.567467
vt 0.962682 0.305612
vt 0.913070 0.866759
vt 0.962682 0.287175
vt 0.883321 0.567467
vt 0.086431 0.951012
vt 0.916877 0.771918
vt 0.086431 0.969450
vt 0.883321 0.636785
vt 0.068255 0.951012
vt 0.060107 0.824971
vt 0.898701 0.771918
vt 0.068255 0.969450
vt 0.041669 0.824971
vt 0.901497 0.636785
vt 0.060107 0.796693
vt 0.459938 0.957437
vt 0.898701 0.743640
vt 0.041669 0.796693
vt 0.459938 0.938999
vt 0.901497 0.608507
vt 0.478114 0.957437
vt 0.916877 0.743640
vt 0.478114 0.938999
vt 0.883321 0.608507
vt 0.993619 0.006381
vt 0.917585 0.730878
vt 0.993619 0.024819
vt 0.913569 0.034659
vt 0.975443 0.006381
vt 0.824065 0.771918
vt 0.899409 0.730878
vt 0.975443 0.024819
vt 0.805627 0.771918
vt 0.931745 0.034659
vt 0.824065 0.743640
vt 0.192005 0.969450
vt 0.899409 0.702600
vt 0.805627 0.743640
vt 0.192005 0.951012
vt 0.931745 0.006381
vt 0.210180 0.969450
vt 0.917585 0.702600
vt 0.210180 0.951012
vt 0.913569 0.006381
vt 0.272055 0.951012
vt 0.931744 0.075699
vt 0.272055 0.969450
vt 0.913569 0.198819
vt 0.253879 0.951012
vt 0.761666 0.812958
vt 0.913569 0.075699
vt 0.253879 0.969450
vt 0.743229 0.812958
vt 0.931745 0.198819
vt 0.761666 0.784680
vt 0.833020 0.988636
vt 0.913569 0.047421
vt 0.743229 0.784680
vt 0.833020 0.970198
vt 0.931745 0.170540
vt 0.851195 0.988636
vt 0.931744 0.047421
vt 0.851195 0.970198
vt 0.913569 0.170540
vt 0.179243 0.919813
vt 0.931744 0.239859
vt 0.179243 0.938251
vt 0.222942 0.907051
vt 0.161067 0.919813
vt 0.603697 0.812958
vt 0.913569 0.239859
vt 0.161067 0.938251
vt 0.585259 0.812958
vt 0.241118 0.907051
vt 0.603697 0.784680
vt 0.099193 0.938250
vt 0.913569 0.211580
vt 0.585259 0.784680
vt 0.099193 0.919813
vt 0.241118 0.878773
vt 0.117368 0.938250
vt 0.931744 0.211580
vt 0.117368 0.919813
vt 0.222942 0.878773
vt 0.882133 0.907800
vt 0.931744 0.362978
vt 0.882133 0.926237
vt 0.323638 0.907051
vt 0.863957 0.907800
vt 0.730467 0.812958
vt 0.913569 0.362978
vt 0.863957 0.926237
vt 0.712029 0.812958
vt 0.341814 0.907051
vt 0.730467 0.784680
vt 0.833020 0.926237
vt 0.913569 0.334700
vt 0.712029 0.784680
vt 0.833020 0.907800
vt 0.341814 0.878773
vt 0.851196 0.926237
vt 0.931744 0.334700
vt 0.851196 0.907800
vt 0.323638 0.878773
vt 0.696509 0.907800
vt 0.901999 0.542692
vt 0.696509 0.926237
vt 0.913569 0.404018
vt 0.678333 0.907800
vt 0.824065 0.812958
vt 0.883823 0.542692
vt 0.678333 0.926237
vt 0.805627 0.812958
vt 0.931745 0.404018
vt 0.824065 0.784680
vt 0.956769 0.978795
vt 0.883823 0.514414
vt 0.805627 0.784680
vt 0.956769 0.960358
vt 0.931745 0.375740
vt 0.974945 0.978795
vt 0.901999 0.514414
vt 0.974945 0.960358
vt 0.913569 0.375740
vt 0.447176 0.970198
vt 0.086431 0.907051
vt 0.447176 0.988636
vt 0.913569 0.486098
vt 0.429001 0.970198
vt 0.024819 0.824971
vt 0.068255 0.907051
vt 0.429001 0.988636
vt 0.006381 0.824971
vt 0.931745 0.486098
vt 0.024819 0.796693
vt 0.459938 0.926237
vt 0.068255 0.878773
vt 0.006381 0.796693
vt 0.459938 0.907800
vt 0.931745 0.457820
vt 0.478114 0.926237
vt 0.086431 0.878773
vt 0.478114 0.907800
vt 0.913569 0.457820
vt 0.665310 0.970198
vt 0.758384 0.853998
vt 0.665310 0.988636
vt 0.851694 0.445059
vt 0.647134 0.970198
vt 0.807995 0.362978
vt 0.740208 0.853998
vt 0.647134 0.988636
vt 0.789557 0.362978
vt 0.869870 0.445059
vt 0.807995 0.334700
vt 0.522075 0.988636
vt 0.740208 0.825720
vt 0.789557 0.334700
vt 0.522075 0.970198
vt 0.869870 0.416780
vt 0.540250 0.988636
vt 0.758384 0.825720
vt 0.540250 0.970198
vt 0.851694 0.416780
vt 0.416239 0.970198
vt 0.855710 0.730878
vt 0.416239 0.988636
vt 0.867502 0.853998
vt 0.398063 0.970198
vt 0.478900 0.771918
vt 0.837534 0.730878
vt 0.398063 0.988636
vt 0.460462 0.771918
vt 0.885678 0.853998
vt 0.478900 0.743640
vt 0.709270 0.988636
vt 0.837534 0.702600
vt 0.460462 0.743640
vt 0.709270 0.970198
vt 0.885678 0.825720
vt 0.727446 0.988636
vt 0.855710 0.702600
vt 0.727446 0.970198
vt 0.867502 0.825720
vt 0.724105 0.476846
vt 0.086431 0.866011
vt 0.724105 0.495284
vt 0.398063 0.895038
vt 0.705929 0.476846
vt 0.807995 0.280899
vt 0.068255 0.866011
vt 0.705929 0.495284
vt 0.789557 0.280899
vt 0.416239 0.895038
vt 0.807995 0.252620
vt 0.398063 0.926237
vt 0.068255 0.837733
vt 0.789557 0.252620
vt 0.398063 0.907800
vt 0.416239 0.866760
vt 0.416239 0.926237
vt 0.086431 0.837733
vt 0.416239 0.907800
vt 0.398063 0.866760
vt 0.447176 0.907800
vt 0.055494 0.866011
vt 0.447176 0.926237
vt 0.553536 0.895038
vt 0.429001 0.907800
vt 0.416501 0.771918
vt 0.037318 0.866011
vt 0.429001 0.926237
vt 0.398063 0.771918
vt 0.571712 0.895038
vt 0.416501 0.743640
vt 0.709270 0.926237
vt 0.037318 0.837733
vt 0.398063 0.743640
vt 0.709270 0.907800
vt 0.571712 0.866760
vt 0.727446 0.926237
vt 0.055494 0.837733
vt 0.727446 0.907800
vt 0.553536 0.866760
vt 0.024557 0.919813
vt 0.869870 0.198819
vt 0.024557 0.938250
vt 0.774428 0.853998
vt 0.006381 0.919813
vt 0.447700 0.771918
vt 0.851694 0.198819
vt 0.006381 0.938250
vt 0.429263 0.771918
vt 0.792604 0.853998
vt 0.447700 0.743640
vt 0.961283 0.711197
vt 0.851694 0.170541
vt 0.429263 0.743640
vt 0.961283 0.692759
vt 0.792604 0.825720
vt 0.979459 0.711197
vt 0.869870 0.170541
vt 0.979459 0.692759
vt 0.774428 0.825720
vt 0.974945 0.897959
vt 0.272055 0.866011
vt 0.974945 0.916397
vt 0.836827 0.771918
vt 0.956769 0.897959
vt 0.807995 0.321939
vt 0.253879 0.866011
vt 0.956769 0.916397
vt 0.789557 0.321939
vt 0.855002 0.771918
vt 0.807995 0.293660
vt 0.253879 0.938250
vt 0.253879 0.837733
vt 0.789557 0.293660
vt 0.253879 0.919813
vt 0.855002 0.743640
vt 0.272055 0.938250
vt 0.272055 0.837733
vt 0.272055 0.919813
vt 0.836827 0.743640
vt 0.882133 0.970198
vt 0.696509 0.895038
vt 0.882133 0.988636
vt 0.851694 0.280899
vt 0.863957 0.970198
vt 0.807995 0.116739
vt 0.678333 0.895038
vt 0.863957 0.988636
vt 0.789557 0.116739
vt 0.869870 0.280899
vt 0.807995 0.088461
vt 0.130130 0.969450
vt 0.678333 0.866760
vt 0.789557 0.088461
vt 0.130130 0.951012
vt 0.869870 0.252620
vt 0.148306 0.969450
vt 0.696509 0.866760
vt 0.148306 0.951012
vt 0.851694 0.252620
vt 0.963874 0.514414
vt 0.665571 0.895038
vt 0.963874 0.532852
vt 0.851694 0.404019
vt 0.945698 0.514414
vt 0.807995 0.198819
vt 0.647396 0.895038
vt 0.945698 0.532852
vt 0.789557 0.198819
vt 0.869870 0.404019
vt 0.807995 0.170540
vt 0.975443 0.212014
vt 0.647396 0.866760
vt 0.789557 0.170540
vt 0.975443 0.193577
vt 0.869870 0.375740
vt 0.993619 0.212014
vt 0.665571 0.866760
vt 0.993619 0.193577
vt 0.851694 0.375740
vt 0.602125 0.938999
vt 0.870560 0.595746
vt 0.602125 0.957437
vt 0.868471 0.730878
vt 0.583949 0.938999
vt 0.792866 0.771918
vt 0.852384 0.595746
vt 0.583949 0.957437
vt 0.774428 0.771918
vt 0.886647 0.730878
vt 0.792866 0.743640
vt 0.771145 0.957437
vt 0.852384 0.567467
vt 0.774428 0.743640
vt 0.771145 0.938999
vt 0.886647 0.702600
vt 0.789321 0.957437
vt 0.870560 0.567467
vt 0.789321 0.938999
vt 0.868471 0.702600
vt 0.962682 0.006381
vt 0.447176 0.895038
vt 0.962682 0.024819
vt 0.851694 0.321939
vt 0.944506 0.006381
vt 0.807995 0.411031
vt 0.429001 0.895038
vt 0.944506 0.024819
vt 0.789557 0.411031
vt 0.869870 0.321939
vt 0.807995 0.382753
vt 0.944506 0.056018
vt 0.429001 0.866760
vt 0.789557 0.382753
vt 0.944506 0.037580
vt 0.869870 0.293660
vt 0.962682 0.056018
vt 0.447176 0.866760
vt 0.962682 0.037580
vt 0.851694 0.293660
vt 0.962682 0.131178
vt 0.024557 0.866011
vt 0.962682 0.149616
vt 0.852384 0.636785
vt 0.944506 0.131178
vt 0.807995 0.239859
vt 0.006381 0.866011
vt 0.944506 0.149616
vt 0.789557 0.239859
vt 0.870560 0.636785
vt 0.807995 0.211580
vt 0.944506 0.212014
vt 0.006381 0.837733
vt 0.789557 0.211580
vt 0.944506 0.193577
vt 0.870560 0.608507
vt 0.962682 0.212014
vt 0.024557 0.837733
vt 0.962682 0.193577
vt 0.852384 0.608507
vt 0.962682 0.318374
vt 0.665572 0.853998
vt 0.962682 0.336812
vt 0.851694 0.362979
vt 0.944506 0.318374
vt 0.699268 0.771918
vt 0.647396 0.853998
vt 0.944506 0.336812
vt 0.680830 0.771918
vt 0.869870 0.362979
vt 0.699268 0.743640
vt 0.553012 0.957437
vt 0.647396 0.825720
vt 0.680830 0.743640
vt 0.553012 0.938999
vt 0.869870 0.334700
vt 0.571188 0.957437
vt 0.665572 0.825720
vt 0.571188 0.938999
vt 0.851694 0.334700
vt 0.993619 0.068779
vt 0.869870 0.075699
vt 0.993619 0.087217
vt 0.323638 0.866012
vt 0.975443 0.068779
vt 0.541298 0.771919
vt 0.851694 0.075699
vt 0.975443 0.087217
vt 0.522860 0.771919
vt 0.341814 0.866012
vt 0.541298 0.743640
vt 0.161067 0.969450
vt 0.851694 0.047421
vt 0.522860 0.743640
vt 0.161067 0.951012
vt 0.341814 0.837733
vt 0.179243 0.969450
vt 0.869870 0.047421
vt 0.179243 0.951012
vt 0.323638 0.837733
vt 0.974945 0.866760
vt 0.869870 0.239859
vt 0.974945 0.885198
vt 0.867764 0.812958
vt 0.956769 0.866760
vt 0.603697 0.771919
vt 0.851694 0.239859
vt 0.956769 0.885198
vt 0.585259 0.771919
vt 0.885940 0.812958
vt 0.603697 0.743640
vt 0.771145 0.988636
vt 0.851694 0.211581
vt 0.585259 0.743640
vt 0.771145 0.970198
vt 0.885940 0.784680
vt 0.789321 0.988636
vt 0.869870 0.211581
vt 0.789321 0.970198
vt 0.867764 0.784680
vt 0.789321 0.907800
vt 0.148306 0.866011
vt 0.789321 0.926237
vt 0.868471 0.689839
vt 0.771145 0.907800
vt 0.668069 0.771919
vt 0.130130 0.866011
vt 0.771145 0.926237
vt 0.649631 0.771919
vt 0.886647 0.689839
vt 0.668069 0.743640
vt 0.553012 0.926237
vt 0.130130 0.837733
vt 0.649631 0.743640
vt 0.553012 0.907800
vt 0.886647 0.661560
vt 0.571188 0.926237
vt 0.148306 0.837733
vt 0.571188 0.907800
vt 0.868471 0.661560
vt 0.838933 0.057261
vt 0.117368 0.866011
vt 0.838933 0.075699
vt 0.851694 0.486099
vt 0.820757 0.057261
vt 0.807995 0.075699
vt 0.099193 0.866011
vt 0.820757 0.075699
vt 0.789557 0.075699
vt 0.869870 0.486099
vt 0.807995 0.047421
vt 0.644054 0.495284
vt 0.099193 0.837733
vt 0.789557 0.047421
vt 0.644054 0.476846
vt 0.869870 0.457820
vt 0.662230 0.495284
vt 0.117369 0.837733
vt 0.662230 0.476846
vt 0.851694 0.457820
vt 0.693167 0.476846
vt 0.540250 0.895038
vt 0.693167 0.495284
vt 0.836827 0.812958
vt 0.674991 0.476846
vt 0.793835 0.730879
vt 0.522075 0.895038
vt 0.674991 0.495284
vt 0.775397 0.730879
vt 0.855002 0.812958
vt 0.793835 0.702600
vt 0.583949 0.988636
vt 0.522075 0.866760
vt 0.775397 0.702600
vt 0.583949 0.970198
vt 0.855002 0.784680
vt 0.602125 0.988636
vt 0.540250 0.866760
vt 0.602125 0.970198
vt 0.836827 0.784680
vt 0.509313 0.970198
vt 0.869870 0.116739
vt 0.509313 0.988636
vt 0.678333 0.853998
vt 0.491137 0.970198
vt 0.807995 0.157779
vt 0.851694 0.116739
vt 0.491137 0.988636
vt 0.789557 0.157779
vt 0.696509 0.853998
vt 0.807995 0.129501
vt 0.491137 0.926237
vt 0.851694 0.088461
vt 0.789557 0.129501
vt 0.491137 0.907800
vt 0.696509 0.825720
vt 0.509313 0.926237
vt 0.869870 0.088461
vt 0.509313 0.907800
vt 0.678333 0.825720
vt 0.758383 0.970198
vt 0.310876 0.866011
vt 0.758383 0.988636
vt 0.837534 0.689839
vt 0.740208 0.970198
vt 0.730467 0.771919
vt 0.292701 0.866011
vt 0.740208 0.988636
vt 0.712029 0.771919
vt 0.855710 0.689839
vt 0.730467 0.743640
vt 0.925832 0.978795
vt 0.292701 0.837733
vt 0.712029 0.743640
vt 0.925832 0.960358
vt 0.855710 0.661560
vt 0.944008 0.978795
vt 0.310876 0.837733
vt 0.944008 0.960358
vt 0.837534 0.661560
vt 0.978752 0.743640
vt 0.241118 0.866011
vt 0.978752 0.762078
vt 0.836565 0.853998
vt 0.960576 0.743640
vt 0.510099 0.771919
vt 0.222942 0.866011
vt 0.960576 0.762078
vt 0.491661 0.771919
vt 0.854740 0.853998
vt 0.510099 0.743640
vt 0.802083 0.988636
vt 0.222942 0.837733
vt 0.491661 0.743640
vt 0.802083 0.970198
vt 0.854740 0.825720
vt 0.820258 0.988636
vt 0.241118 0.837733
vt 0.820258 0.970198
vt 0.836565 0.825720
vt 0.913070 0.907800
vt 0.478376 0.895038
vt 0.913070 0.926237
vt 0.192005 0.866011
vt 0.894894 0.907800
vt 0.572498 0.771919
vt 0.460200 0.895038
vt 0.894894 0.926237
vt 0.554060 0.771919
vt 0.210180 0.866011
vt 0.572498 0.743640
vt 0.037318 0.938250
vt 0.460200 0.866760
vt 0.554060 0.743640
vt 0.037318 0.919813
vt 0.210180 0.837733
vt 0.055494 0.938250
vt 0.478376 0.866760
vt 0.055494 0.919813
vt 0.192005 0.837733
vt 0.148306 0.919813
vt 0.372751 0.866011
vt 0.148306 0.938250
vt 0.161067 0.866011
vt 0.130130 0.919813
vt 0.636869 0.771919
vt 0.354575 0.866011
vt 0.130130 0.938250
vt 0.618431 0.771919
vt 0.179243 0.866011
vt 0.636869 0.743640
vt 0.192005 0.938251
vt 0.354575 0.837733
vt 0.618431 0.743640
vt 0.192005 0.919813
vt 0.179243 0.837733
vt 0.210180 0.938251
vt 0.372751 0.837733
vt 0.210180 0.919813
vt 0.161067 0.837733
vt 0.310876 0.919813
vt 0.823803 0.853998
vt 0.310876 0.938251
vt 0.851694 0.034659
vt 0.292701 0.919813
vt 0.761666 0.771919
vt 0.805627 0.853998
vt 0.292701 0.938251
vt 0.743229 0.771919
vt 0.869870 0.034659
vt 0.761666 0.743640
vt 0.292701 0.969450
vt 0.805627 0.825720
vt 0.743229 0.743640
vt 0.292701 0.951012
vt 0.869870 0.006381
vt 0.310876 0.969450
vt 0.823803 0.825720
vt 0.310876 0.951012
vt 0.851694 0.006381
vt 0.241118 0.951012
vt 0.727446 0.853998
vt 0.241118 0.969450
vt 0.851694 0.157779
vt 0.222942 0.951012
vt 0.807995 0.034659
vt 0.709270 0.853998
vt 0.222942 0.969450
vt 0.789557 0.034659
vt 0.869870 0.157779
vt 0.807995 0.006381
vt 0.929639 0.762078
vt 0.709270 0.825720
vt 0.789557 0.006381
vt 0.929639 0.743640
vt 0.869870 0.129501
vt 0.947814 0.762078
vt 0.727446 0.825720
vt 0.947814 0.743640
vt 0.851694 0.129501
vt 0.993619 0.037580
vt 0.900807 0.198819
vt 0.993619 0.056018
vt 0.882631 0.239859
vt 0.975443 0.037580
vt 0.808685 0.636786
vt 0.882631 0.198819
vt 0.975443 0.056018
vt 0.790247 0.636786
vt 0.900807 0.239859
vt 0.808685 0.608507
vt 0.099193 0.969450
vt 0.882631 0.170540
vt 0.790247 0.608507
vt 0.099193 0.951012
vt 0.900807 0.211580
vt 0.117368 0.969450
vt 0.900807 0.170540
vt 0.117368 0.951012
vt 0.882631 0.211580
vt 0.055494 0.951012
vt 0.900807 0.321939
vt 0.055494 0.969450
vt 0.882631 0.404019
vt 0.037318 0.951012
vt 0.807995 0.452071
vt 0.882631 0.321939
vt 0.037318 0.969450
vt 0.789557 0.452071
vt 0.900807 0.404019
vt 0.807995 0.423792
vt 0.975443 0.336812
vt 0.882631 0.293660
vt 0.789557 0.423792
vt 0.975443 0.318374
vt 0.900807 0.375740
vt 0.993619 0.336812
vt 0.900807 0.293660
vt 0.993619 0.318374
vt 0.882631 0.375740
vt 0.696509 0.938999
vt 0.727446 0.895038
vt 0.696509 0.957437
vt 0.882631 0.445059
vt 0.678333 0.938999
vt 0.572498 0.812959
vt 0.709270 0.895038
vt 0.678333 0.957437
vt 0.554060 0.812959
vt 0.900807 0.445059
vt 0.572498 0.784680
vt 0.740208 0.957437
vt 0.709270 0.866759
vt 0.554060 0.784680
vt 0.740208 0.938999
vt 0.900807 0.416780
vt 0.758384 0.957437
vt 0.727446 0.866759
vt 0.758384 0.938999
vt 0.882631 0.416780
vt 0.851195 0.938999
vt 0.603435 0.895039
vt 0.851195 0.957437
vt 0.882631 0.075699
vt 0.833020 0.938999
vt 0.809187 0.583733
vt 0.585259 0.895039
vt 0.833020 0.957437
vt 0.790749 0.583733
vt 0.900807 0.075699
vt 0.809187 0.555454
vt 0.894894 0.957437
vt 0.585259 0.866760
vt 0.790749 0.555454
vt 0.894894 0.938999
vt 0.900807 0.047421
vt 0.913070 0.957437
vt 0.603435 0.866760
vt 0.913070 0.938999
vt 0.882631 0.047421
vt 0.962682 0.068779
vt 0.900807 0.362979
vt 0.962682 0.087217
vt 0.852886 0.542693
vt 0.944506 0.068779
vt 0.447700 0.812959
vt 0.882631 0.362979
vt 0.944506 0.087217
vt 0.429263 0.812959
vt 0.871061 0.542693
vt 0.447700 0.784680
vt 0.614887 0.988636
vt 0.882631 0.334700
vt 0.429263 0.784680
vt 0.614887 0.970198
vt 0.871061 0.514414
vt 0.633062 0.988636
vt 0.900807 0.334700
vt 0.633062 0.970198
vt 0.852886 0.514414
vt 0.962682 0.224776
vt 0.900807 0.280899
vt 0.962682 0.243214
vt 0.820757 0.452071
vt 0.944506 0.224776
vt 0.807995 0.493111
vt 0.882631 0.280899
vt 0.944506 0.243214
vt 0.789557 0.493111
vt 0.838932 0.452071
vt 0.807995 0.464832
vt 0.614887 0.957437
vt 0.882631 0.252620
vt 0.789557 0.464832
vt 0.614887 0.938999
vt 0.838932 0.423792
vt 0.633062 0.957437
vt 0.900807 0.252620
vt 0.633062 0.938999
vt 0.820757 0.423792
vt 0.993619 0.255975
vt 0.900807 0.116739
vt 0.993619 0.274413
vt 0.882631 0.034659
vt 0.975443 0.255975
vt 0.809187 0.542693
vt 0.882631 0.116739
vt 0.975443 0.274413
vt 0.790749 0.542693
vt 0.900807 0.034659
vt 0.809187 0.514414
vt 0.944506 0.461609
vt 0.882631 0.088460
vt 0.790749 0.514414
vt 0.944506 0.443171
vt 0.900807 0.006381
vt 0.962682 0.461609
vt 0.900807 0.088460
vt 0.962682 0.443171
vt 0.882631 0.006381
vt 0.963372 0.598666
vt 0.882133 0.895039
vt 0.963372 0.617104
vt 0.833020 0.895039
vt 0.945196 0.598666
vt 0.478900 0.812959
vt 0.863957 0.895039
vt 0.945196 0.617104
vt 0.460462 0.812959
vt 0.851196 0.895039
vt 0.478900 0.784680
vt 0.975443 0.118417
vt 0.863957 0.866760
vt 0.460462 0.784680
vt 0.975443 0.099979
vt 0.851196 0.866760
vt 0.993619 0.118417
vt 0.882133 0.866760
vt 0.993619 0.099979
vt 0.833020 0.866760
vt 0.509313 0.938999
vt 0.820258 0.895039
vt 0.509313 0.957437
vt 0.740208 0.895039
vt 0.491137 0.938999
vt 0.510099 0.812959
vt 0.802082 0.895039
vt 0.491137 0.957437
vt 0.491661 0.812959
vt 0.758384 0.895039
vt 0.510099 0.784680
vt 0.930346 0.711197
vt 0.802082 0.866760
vt 0.491661 0.784680
vt 0.930346 0.692759
vt 0.758384 0.866760
vt 0.948522 0.711197
vt 0.820258 0.866760
vt 0.948522 0.692759
vt 0.740208 0.866760
vt 0.947552 0.825720
vt 0.900807 0.157779
vt 0.947552 0.844158
vt 0.616196 0.895039
vt 0.929377 0.825720
vt 0.416501 0.812959
vt 0.882631 0.157779
vt 0.929377 0.844158
vt 0.398063 0.812959
vt 0.634372 0.895039
vt 0.416501 0.784680
vt 0.354575 0.938251
vt 0.882631 0.129500
vt 0.398063 0.784680
vt 0.354575 0.919813
vt 0.634372 0.866760
vt 0.372751 0.938251
vt 0.900807 0.129500
vt 0.372751 0.919813
vt 0.616196 0.866760
vt 0.341814 0.919813
vt 0.885940 0.771918
vt 0.341814 0.938251
vt 0.882632 0.486099
vt 0.323638 0.919813
vt 0.541298 0.812959
vt 0.867764 0.771918
vt 0.323638 0.938251
vt 0.522860 0.812959
vt 0.900807 0.486099
vt 0.541298 0.784680
vt 0.956769 0.947596
vt 0.867764 0.743639
vt 0.522860 0.784680
vt 0.956769 0.929158
vt 0.900807 0.457820
vt 0.974945 0.947596
vt 0.885940 0.743639
vt 0.974945 0.929158
vt 0.882632 0.457820
vt 0.978752 0.774839
vt 0.509313 0.895039
vt 0.978752 0.793277
vt 0.771145 0.895039
vt 0.960576 0.774839
vt 0.808685 0.677826
vt 0.491137 0.895039
vt 0.960576 0.793277
vt 0.790247 0.677826
vt 0.789321 0.895039
vt 0.808685 0.649547
vt 0.616197 0.926237
vt 0.491137 0.866760
vt 0.790247 0.649547
vt 0.616197 0.907800
vt 0.789321 0.866760
vt 0.634372 0.926237
vt 0.509313 0.866760
vt 0.634372 0.907800
vt 0.771145 0.866760
vt 0.696509 0.970198
vt 0.931745 0.445059
vt 0.696509 0.988636
vt 0.914259 0.595746
vt 0.678333 0.970198
vt 0.792866 0.812959
vt 0.913569 0.445059
vt 0.678333 0.988636
vt 0.774428 0.812959
vt 0.932434 0.595746
vt 0.792866 0.784680
vt 0.459938 0.988636
vt 0.913569 0.416780
vt 0.774428 0.784680
vt 0.459938 0.970198
vt 0.932434 0.567468
vt 0.478114 0.988636
vt 0.931745 0.416780
vt 0.478114 0.970198
vt 0.914259 0.567468
vt 0.571188 0.970198
vt 0.932434 0.636786
vt 0.571188 0.988636
vt 0.914760 0.542693
vt 0.553012 0.970198
vt 0.634896 0.812959
vt 0.914259 0.636786
vt 0.553012 0.988636
vt 0.616458 0.812959
vt 0.932936 0.542693
vt 0.634896 0.784680
vt 0.975443 0.399210
vt 0.914259 0.608507
vt 0.616458 0.784680
vt 0.975443 0.380773
vt 0.932936 0.514415
vt 0.993619 0.399210
vt 0.932434 0.608507
vt 0.993619 0.380773
vt 0.914760 0.514415
vt 0.631293 0.476846
vt 0.272055 0.907051
vt 0.631293 0.495284
vt 0.913569 0.116739
vt 0.613117 0.476846
vt 0.216103 0.824972
vt 0.253879 0.907051
vt 0.613117 0.495284
vt 0.197666 0.824972
vt 0.931745 0.116739
vt 0.216103 0.796694
vt 0.222942 0.938250
vt 0.253879 0.878773
vt 0.197666 0.796694
vt 0.222942 0.919813
vt 0.931745 0.088461
vt 0.241118 0.938250
vt 0.272055 0.878773
vt 0.241118 0.919813
vt 0.913569 0.088461
vt 0.944008 0.897959
vt 0.179243 0.907051
vt 0.944008 0.916397
vt 0.898701 0.812959
vt 0.925832 0.897959
vt 0.668069 0.812959
vt 0.161067 0.907051
vt 0.925832 0.916397
vt 0.649631 0.812959
vt 0.916877 0.812959
vt 0.668069 0.784680
vt 0.925832 0.947596
vt 0.161067 0.878773
vt 0.649631 0.784680
vt 0.925832 0.929158
vt 0.916877 0.784680
vt 0.944008 0.947596
vt 0.179243 0.878773
vt 0.944008 0.929158
vt 0.898701 0.784680
vt 0.416239 0.938999
vt 0.916615 0.853998
vt 0.416239 0.957437
vt 0.037318 0.907051
vt 0.398063 0.938999
vt 0.699268 0.812959
vt 0.898439 0.853998
vt 0.398063 0.957437
vt 0.680830 0.812959
vt 0.055494 0.907051
vt 0.699268 0.784680
vt 0.945196 0.585905
vt 0.898439 0.825720
vt 0.680830 0.784680
vt 0.945196 0.567467
vt 0.055494 0.878773
vt 0.963372 0.585905
vt 0.916615 0.825720
vt 0.963372 0.567467
vt 0.037318 0.878773
vt 0.962682 0.380773
vt 0.931745 0.280899
vt 0.962682 0.399210
vt 0.099193 0.907051
vt 0.944506 0.380773
vt 0.091306 0.824972
vt 0.913569 0.280899
vt 0.944506 0.399210
vt 0.072868 0.824972
vt 0.117368 0.907051
vt 0.091306 0.796694
vt 0.709270 0.957437
vt 0.913569 0.252621
vt 0.072868 0.796694
vt 0.709270 0.938999
vt 0.117368 0.878773
vt 0.727446 0.957437
vt 0.931745 0.252621
vt 0.727446 0.938999
vt 0.099193 0.878773
s 0
usemtl Material.001
f 1/1/1 2/2/1 4/4/1 3/3/1
f 5/5/2 6/7/2 8/11/2 7/9/2
f 9/13/3 10/15/3 12/19/3 11/17/3
f 11/18/4 5/6/4 7/10/4 9/14/4
f 6/8/5 12/20/5 10/16/5 8/12/5
f 13/21/2 14/23/2 16/27/2 15/25/2
f 17/29/3 18/31/3 20/35/3 19/33/3
f 19/34/4 13/22/4 15/26/4 17/30/4
f 14/24/5 20/36/5 18/32/5 16/28/5
f 21/37/2 22/39/2 24/43/2 23/41/2
f 25/45/3 26/47/3 28/51/3 27/49/3
f 27/50/4 21/38/4 23/42/4 25/46/4
f 22/40/5 28/52/5 26/48/5 24/44/5
f 29/53/2 30/55/2 32/59/2 31/57/2
f 33/61/3 34/63/3 36/67/3 35/65/3
f 35/66/4 29/54/4 31/58/4 33/62/4
f 30/56/5 36/68/5 34/64/5 32/60/5
f 37/69/1 38/70/1 40/72/1 39/71/1
f 41/73/1 42/74/1 44/76/1 43/75/1
f 45/77/1 46/78/1 48/80/1 47/79/1
f 49/81/1 50/82/1 52/84/1 51/83/1
f 53/85/1 54/86/1 56/88/1 55/87/1
f 57/89/2 58/91/2 60/95/2 59/93/2
f 61/97/3 62/99/3 64/103/3 63/101/3
f 63/102/4 57/90/4 59/94/4 61/98/4
f 58/92/5 64/104/5 62/100/5 60/96/5
f 65/105/2 66/107/2 68/111/2 67/109/2
f 69/113/3 70/115/3 72/119/3 71/117/3
f 71/118/4 65/106/4 67/110/4 69/114/4
f 66/108/5 72/120/5 70/116/5 68/112/5
f 73/121/2 74/123/2 76/127/2 75/125/2
f 77/129/3 78/131/3 80/135/3 79/133/3
f 79/134/4 73/122/4 75/126/4 77/130/4
f 74/124/5 80/136/5 78/132/5 76/128/5
f 81/137/2 82/139/2 84/143/2 83/141/2
f 85/145/3 86/147/3 88/151/3 87/149/3
f 87/150/4 81/138/4 83/142/4 85/146/4
f 82/140/5 88/152/5 86/148/5 84/144/5
f 89/153/1 90/154/1 92/156/1 91/155/1
f 93/157/1 94/158/1 96/160/1 95/159/1
f 97/161/1 98/162/1 100/164/1 99/163/1
f 101/165/2 102/167/2 104/171/2 103/169/2
f 105/173/3 106/175/3 108/179/3 107/177/3
f 107/178/4 101/166/4 103/170/4 105/174/4
f 102/168/5 108/180/5 106/176/5 104/172/5
f 109/181/2 110/183/2 112/187/2 111/185/2
f 113/189/3 114/191/3 116/195/3 115/193/3
f 115/194/4 109/182/4 111/186/4 113/190/4
f 110/184/5 116/196/5 114/192/5 112/188/5
f 117/197/2 118/199/2 120/203/2 119/201/2
f 121/205/3 122/207/3 124/211/3 123/209/3
f 123/210/4 117/198/4 119/202/4 121/206/4
f 118/200/5 124/212/5 122/208/5 120/204/5
f 125/213/2 126/215/2 128/219/2 127/217/2
f 129/221/3 130/223/3 132/227/3 131/225/3
f 131/226/4 125/214/4 127/218/4 129/222/4
f 126/216/5 132/228/5 130/224/5 128/220/5
f 133/229/1 134/230/1 136/232/1 135/231/1
f 137/233/1 138/234/1 140/236/1 139/235/1
f 141/237/1 142/238/1 144/240/1 143/239/1
f 145/241/2 146/243/2 148/247/2 147/245/2
f 149/249/3 150/251/3 152/255/3 151/253/3
f 151/254/4 145/242/4 147/246/4 149/250/4
f 146/244/5 152/256/5 150/252/5 148/248/5
f 153/257/2 154/259/2 156/263/2 155/261/2
f 157/265/3 158/267/3 160/271/3 159/269/3
f 159/270/4 153/258/4 155/262/4 157/266/4
f 154/260/5 160/272/5 158/268/5 156/264/5
f 161/273/2 162/275/2 164/279/2 163/277/2
f 165/281/3 166/283/3 168/287/3 167/285/3
f 167/286/4 161/274/4 163/278/4 165/282/4
f 162/276/5 168/288/5 166/284/5 164/280/5
f 169/289/2 170/291/2 172/295/2 171/293/2
f 173/297/3 174/299/3 176/303/3 175/301/3
f 175/302/4 169/290/4 171/294/4 173/298/4
f 170/292/5 176/304/5 174/300/5 172/296/5
f 177/305/1 178/306/1 180/308/1 179/307/1
f 181/309/1 182/310/1 184/312/1 183/311/1
f 185/313/1 186/314/1 188/316/1 187/315/1
f 189/317/2 190/319/2 192/323/2 191/321/2
f 193/325/3 194/327/3 196/331/3 195/329/3
f 195/330/4 189/318/4 191/322/4 193/326/4
f 190/320/5 196/332/5 194/328/5 192/324/5
f 197/333/2 198/335/2 200/339/2 199/337/2
f 201/341/3 202/343/3 204/347/3 203/345/3
f 203/346/4 197/334/4 199/338/4 201/342/4
f 198/336/5 204/348/5 202/344/5 200/340/5
f 205/349/2 206/351/2 208/355/2 207/353/2
f 209/357/3 210/359/3 212/363/3 211/361/3
f 211/362/4 205/350/4 207/354/4 209/358/4
f 206/352/5 212/364/5 210/360/5 208/356/5
f 213/365/2 214/367/2 216/371/2 215/369/2
f 217/373/3 218/375/3 220/379/3 219/377/3
f 219/378/4 213/366/4 215/370/4 217/374/4
f 214/368/5 220/380/5 218/376/5 216/372/5
f 221/381/1 222/382/1 224/384/1 223/383/1
f 225/385/2 226/387/2 228/391/2 227/389/2
f 229/393/3 230/395/3 232/399/3 231/397/3
f 231/398/4 225/386/4 227/390/4 229/394/4
f 226/388/5 232/400/5 230/396/5 228/392/5
f 233/401/2 234/403/2 236/407/2 235/405/2
f 237/409/3 238/411/3 240/415/3 239/413/3
f 239/414/4 233/402/4 235/406/4 237/410/4
f 234/404/5 240/416/5 238/412/5 236/408/5
f 241/417/2 242/419/2 244/423/2 243/421/2
f 245/425/3 246/427/3 248/431/3 247/429/3
f 247/430/4 241/418/4 243/422/4 245/426/4
f 242/420/5 248/432/5 246/428/5 244/424/5
f 249/433/2 250/435/2 252/439/2 251/437/2
f 253/441/3 254/443/3 256/447/3 255/445/3
f 255/446/4 249/434/4 251/438/4 253/442/4
f 250/436/5 256/448/5 254/444/5 252/440/5
f 257/449/1 258/450/1 260/452/1 259/451/1
f 261/453/1 262/454/1 264/456/1 263/455/1
f 265/457/1 266/458/1 268/460/1 267/459/1
f 269/461/1 270/462/1 272/464/1 271/463/1
f 273/465/1 274/466/1 276/468/1 275/467/1
f 277/469/2 278/471/2 280/475/2 279/473/2
f 281/477/3 282/479/3 284/483/3 283/481/3
f 283/482/4 277/470/4 279/474/4 281/478/4
f 278/472/5 284/484/5 282/480/5 280/476/5
f 285/485/2 286/487/2 288/491/2 287/489/2
f 289/493/3 290/495/3 292/499/3 291/497/3
f 291/498/4 285/486/4 287/490/4 289/494/4
f 286/488/5 292/500/5 290/496/5 288/492/5
f 293/501/2 294/503/2 296/507/2 295/505/2
f 297/509/3 298/511/3 300/515/3 299/513/3
f 299/514/4 293/502/4 295/506/4 297/510/4
f 294/504/5 300/516/5 298/512/5 296/508/5
f 301/517/2 302/519/2 304/523/2 303/521/2
f 305/525/3 306/527/3 308/531/3 307/529/3
f 307/530/4 301/518/4 303/522/4 305/526/4
f 302/520/5 308/532/5 306/528/5 304/524/5
f 309/533/1 310/534/1 312/536/1 311/535/1
f 313/537/1 314/538/1 316/540/1 315/539/1
f 317/541/1 318/542/1 320/544/1 319/543/1
f 321/545/2 322/547/2 324/551/2 323/549/2
f 325/553/3 326/555/3 328/559/3 327/557/3
f 327/558/4 321/546/4 323/550/4 325/554/4
f 322/548/5 328/560/5 326/556/5 324/552/5
f 329/561/2 330/563/2 332/567/2 331/565/2
f 333/569/3 334/571/3 336/575/3 335/573/3
f 335/574/4 329/562/4 331/566/4 333/570/4
f 330/564/5 336/576/5 334/572/5 332/568/5
f 337/577/2 338/579/2 340/583/2 339/581/2
f 341/585/3 342/587/3 344/591/3 343/589/3
f 343/590/4 337/578/4 339/582/4 341/586/4
f 338/580/5 344/592/5 342/588/5 340/584/5
f 345/593/2 346/595/2 348/599/2 347/597/2
f 349/601/3 350/603/3 352/607/3 351/605/3
f 351/606/4 345/594/4 347/598/4 349/602/4
f 346/596/5 352/608/5 350/604/5 348/600/5
f 353/609/1 354/610/1 356/612/1 355/611/1
f 357/613/1 358/614/1 360/616/1 359/615/1
f 361/617/1 362/618/1 364/620/1 363/619/1
f 365/621/2 366/623/2 368/627/2 367/625/2
f 369/629/3 370/631/3 372/635/3 371/633/3
f 371/634/4 365/622/4 367/626/4 369/630/4
f 366/624/5 372/636/5 370/632/5 368/628/5
f 373/637/2 374/639/2 376/643/2 375/641/2
f 377/645/3 378/647/3 380/651/3 379/649/3
f 379/650/4 373/638/4 375/642/4 377/646/4
f 374/640/5 380/652/5 378/648/5 376/644/5
f 381/653/2 382/655/2 384/659/2 383/657/2
f 385/661/3 386/663/3 388/667/3 387/665/3
f 387/666/4 381/654/4 383/658/4 385/662/4
f 382/656/5 388/668/5 386/664/5 384/660/5
f 389/669/2 390/671/2 392/675/2 391/673/2
f 393/677/3 394/679/3 396/683/3 395/681/3
f 395/682/4 389/670/4 391/674/4 393/678/4
f 390/672/5 396/684/5 394/680/5 392/676/5
f 397/685/1 398/686/1 400/688/1 399/687/1
f 401/689/1 402/690/1 404/692/1 403/691/1
f 405/693/1 406/694/1 408/696/1 407/695/1
f 409/697/2 410/699/2 412/703/2 411/701/2
f 413/705/3 414/707/3 416/711/3 415/709/3
f 415/710/4 409/698/4 411/702/4 413/706/4
f 410/700/5 416/712/5 414/708/5 412/704/5
f 417/713/2 418/715/2 420/719/2 419/717/2
f 421/721/3 422/723/3 424/727/3 423/725/3
f 423/726/4 417/714/4 419/718/4 421/722/4
f 418/716/5 424/728/5 422/724/5 420/720/5
f 425/729/2 426/731/2 428/735/2 427/733/2
f 429/737/3 430/739/3 432/743/3 431/741/3
f 431/742/4 425/730/4 427/734/4 429/738/4
f 426/732/5 432/744/5 430/740/5 428/736/5
f 433/745/2 434/747/2 436/751/2 435/749/2
f 437/753/3 438/755/3 440/759/3 439/757/3
f 439/758/4 433/746/4 435/750/4 437/754/4
f 434/748/5 440/760/5 438/756/5 436/752/5
f 441/761/2 442/763/2 444/768/2 443/765/2
f 443/766/1 444/769/1 446/774/1 445/771/1
f 445/772/3 446/775/3 448/779/3 447/777/3
f 447/778/4 441/762/4 443/767/4 445/773/4
f 442/764/5 448/780/5 446/776/5 444/770/5
f 449/781/2 450/783/2 452/788/2 451/785/2
f 451/786/1 452/789/1 454/794/1 453/791/1
f 453/792/3 454/795/3 456/799/3 455/797/3
f 455/798/4 449/782/4 451/787/4 453/793/4
f 450/784/5 456/800/5 454/796/5 452/790/5
f 457/801/2 458/803/2 460/808/2 459/805/2
f 459/806/1 460/809/1 462/814/1 461/811/1
f 461/812/3 462/815/3 464/819/3 463/817/3
f 463/818/4 457/802/4 459/807/4 461/813/4
f 458/804/5 464/820/5 462/816/5 460/810/5
f 465/821/2 466/823/2 468/828/2 467/825/2
f 467/826/1 468/829/1 470/834/1 469/831/1
f 469/832/3 470/835/3 472/839/3 471/837/3
f 471/838/4 465/822/4 467/827/4 469/833/4
f 466/824/5 472/840/5 470/836/5 468/830/5
f 473/841/2 474/843/2 476/848/2 475/845/2
f 475/846/1 476/849/1 478/854/1 477/851/1
f 477/852/3 478/855/3 480/859/3 479/857/3
f 479/858/4 473/842/4 475/847/4 477/853/4
f 474/844/5 480/860/5 478/856/5 476/850/5
f 481/861/2 482/863/2 484/868/2 483/865/2
f 483/866/1 484/869/1 486/874/1 485/871/1
f 485/872/3 486/875/3 488/879/3 487/877/3
f 487/878/4 481/862/4 483/867/4 485/873/4
f 482/864/5 488/880/5 486/876/5 484/870/5
f 489/881/2 490/883/2 492/888/2 491/885/2
f 491/886/1 492/889/1 494/894/1 493/891/1
f 493/892/3 494/895/3 496/899/3 495/897/3
f 495/898/4 489/882/4 491/887/4 493/893/4
f 490/884/5 496/900/5 494/896/5 492/890/5
f 497/901/2 498/903/2 500/908/2 499/905/2
f 499/906/1 500/909/1 502/914/1 501/911/1
f 501/912/3 502/915/3 504/919/3 503/917/3
f 503/918/4 497/902/4 499/907/4 501/913/4
f 498/904/5 504/920/5 502/916/5 500/910/5
f 505/921/2 506/923/2 508/928/2 507/925/2
f 507/926/1 508/929/1 510/934/1 509/931/1
f 509/932/3 510/935/3 512/939/3 511/937/3
f 511/938/4 505/922/4 507/927/4 509/933/4
f 506/924/5 512/940/5 510/936/5 508/930/5
f 513/941/2 514/943/2 516/948/2 515/945/2
f 515/946/1 516/949/1 518/954/1 517/951/1
f 517/952/3 518/955/3 520/959/3 519/957/3
f 519/958/4 513/942/4 515/947/4 517/953/4
f 514/944/5 520/960/5 518/956/5 516/950/5
f 521/961/2 522/963/2 524/968/2 523/965/2
f 523/966/1 524/969/1 526/974/1 525/971/1
f 525/972/3 526/975/3 528/979/3 527/977/3
f 527/978/4 521/962/4 523/967/4 525/973/4
f 522/964/5 528/980/5 526/976/5 524/970/5
f 529/981/2 530/983/2 532/988/2 531/985/2
f 531/986/1 532/989/1 534/994/1 533/991/1
f 533/992/3 534/995/3 536/999/3 535/997/3
f 535/998/4 529/982/4 531/987/4 533/993/4
f 530/984/5 536/1000/5 534/996/5 532/990/5
f 537/1001/2 538/1003/2 540/1008/2 539/1005/2
f 539/1006/1 540/1009/1 542/1014/1 541/1011/1
f 541/1012/3 542/1015/3 544/1019/3 543/1017/3
f 543/1018/4 537/1002/4 539/1007/4 541/1013/4
f 538/1004/5 544/1020/5 542/1016/5 540/1010/5
f 545/1021/2 546/1023/2 548/1028/2 547/1025/2
f 547/1026/1 548/1029/1 550/1034/1 549/1031/1
f 549/1032/3 550/1035/3 552/1039/3 551/1037/3
f 551/1038/4 545/1022/4 547/1027/4 549/1033/4
f 546/1024/5 552/1040/5 550/1036/5 548/1030/5
f 553/1041/2 554/1043/2 556/1048/2 555/1045/2
f 555/1046/1 556/1049/1 558/1054/1 557/1051/1
f 557/1052/3 558/1055/3 560/1059/3 559/1057/3
f 559/1058/4 553/1042/4 555/1047/4 557/1053/4
f 554/1044/5 560/1060/5 558/1056/5 556/1050/5
f 561/1061/2 562/1063/2 564/1068/2 563/1065/2
f 563/1066/1 564/1069/1 566/1074/1 565/1071/1
f 565/1072/3 566/1075/3 568/1079/3 567/1077/3
f 567/1078/4 561/1062/4 563/1067/4 565/1073/4
f 562/1064/5 568/1080/5 566/1076/5 564/1070/5
f 569/1081/2 570/1083/2 572/1088/2 571/1085/2
f 571/1086/1 572/1089/1 574/1094/1 573/1091/1
f 573/1092/3 574/1095/3 576/1099/3 575/1097/3
f 575/1098/4 569/1082/4 571/1087/4 573/1093/4
f 570/1084/5 576/1100/5 574/1096/5 572/1090/5
f 577/1101/2 578/1103/2 580/1108/2 579/1105/2
f 579/1106/1 580/1109/1 582/1114/1 581/1111/1
f 581/1112/3 582/1115/3 584/1119/3 583/1117/3
f 583/1118/4 577/1102/4 579/1107/4 581/1113/4
f 578/1104/5 584/1120/5 582/1116/5 580/1110/5
f 585/1121/2 586/1123/2 588/1128/2 587/1125/2
f 587/1126/1 588/1129/1 590/1134/1 589/1131/1
f 589/1132/3 590/1135/3 592/1139/3 591/1137/3
f 591/1138/4 585/1122/4 587/1127/4 589/1133/4
f 586/1124/5 592/1140/5 590/1136/5 588/1130/5
f 593/1141/2 594/1143/2 596/1148/2 595/1145/2
f 595/1146/1 596/1149/1 598/1154/1 597/1151/1
f 597/1152/3 598/1155/3 600/1159/3 599/1157/3
f 599/1158/4 593/1142/4 595/1147/4 597/1153/4
f 594/1144/5 600/1160/5 598/1156/5 596/1150/5
f 601/1161/2 602/1163/2 604/1168/2 603/1165/2
f 603/1166/1 604/1169/1 606/1174/1 605/1171/1
f 605/1172/3 606/1175/3 608/1179/3 607/1177/3
f 607/1178/4 601/1162/4 603/1167/4 605/1173/4
f 602/1164/5 608/1180/5 606/1176/5 604/1170/5
f 609/1181/2 610/1183/2 612/1188/2 611/1185/2
f 611/1186/1 612/1189/1 614/1194/1 613/1191/1
f 613/1192/3 614/1195/3 616/1199/3 615/1197/3
f 615/1198/4 609/1182/4 611/1187/4 613/1193/4
f 610/1184/5 616/1200/5 614/1196/5 612/1190/5
f 617/1201/2 618/1203/2 620/1208/2 619/1205/2
f 619/1206/1 620/1209/1 622/1214/1 621/1211/1
f 621/1212/3 622/1215/3 624/1219/3 623/1217/3
f 623/1218/4 617/1202/4 619/1207/4 621/1213/4
f 618/1204/5 624/1220/5 622/1216/5 620/1210/5
f 625/1221/2 626/1223/2 628/1228/2 627/1225/2
f 627/1226/1 628/1229/1 630/1234/1 629/1231/1
f 629/1232/3 630/1235/3 632/1239/3 631/1237/3
f 631/1238/4 625/1222/4 627/1227/4 629/1233/4
f 626/1224/5 632/1240/5 630/1236/5 628/1230/5
f 633/1241/2 634/1243/2 636/1248/2 635/1245/2
f 635/1246/1 636/1249/1 638/1254/1 637/1251/1
f 637/1252/3 638/1255/3 640/1259/3 639/1257/3
f 639/1258/4 633/1242/4 635/1247/4 637/1253/4
f 634/1244/5 640/1260/5 638/1256/5 636/1250/5
f 641/1261/2 642/1263/2 644/1268/2 643/1265/2
f 643/1266/1 644/1269/1 646/1274/1 645/1271/1
f 645/1272/3 646/1275/3 648/1279/3 647/1277/3
f 647/1278/4 641/1262/4 643/1267/4 645/1273/4
f 642/1264/5 648/1280/5 646/1276/5 644/1270/5
f 649/1281/2 650/1283/2 652/1288/2 651/1285/2
f 651/1286/1 652/1289/1 654/1294/1 653/1291/1
f 653/1292/3 654/1295/3 656/1299/3 655/1297/3
f 655/1298/4 649/1282/4 651/1287/4 653/1293/4
f 650/1284/5 656/1300/5 654/1296/5 652/1290/5
f 657/1301/2 658/1303/2 660/1308/2 659/1305/2
f 659/1306/1 660/1309/1 662/1314/1 661/1311/1
f 661/1312/3 662/1315/3 664/1319/3 663/1317/3
f 663/1318/4 657/1302/4 659/1307/4 661/1313/4
f 658/1304/5 664/1320/5 662/1316/5 660/1310/5
f 665/1321/2 666/1323/2 668/1328/2 667/1325/2
f 667/1326/1 668/1329/1 670/1334/1 669/1331/1
f 669/1332/3 670/1335/3 672/1339/3 671/1337/3
f 671/1338/4 665/1322/4 667/1327/4 669/1333/4
f 666/1324/5 672/1340/5 670/1336/5 668/1330/5
f 673/1341/2 674/1343/2 676/1348/2 675/1345/2
f 675/1346/1 676/1349/1 678/1354/1 677/1351/1
f 677/1352/3 678/1355/3 680/1359/3 679/1357/3
f 679/1358/4 673/1342/4 675/1347/4 677/1353/4
f 674/1344/5 680/1360/5 678/1356/5 676/1350/5
f 681/1361/2 682/1363/2 684/1368/2 683/1365/2
f 683/1366/1 684/1369/1 686/1374/1 685/1371/1
f 685/1372/3 686/1375/3 688/1379/3 687/1377/3
f 687/1378/4 681/1362/4 683/1367/4 685/1373/4
f 682/1364/5 688/1380/5 686/1376/5 684/1370/5
f 689/1381/2 690/1383/2 692/1388/2 691/1385/2
f 691/1386/1 692/1389/1 694/1394/1 693/1391/1
f 693/1392/3 694/1395/3 696/1399/3 695/1397/3
f 695/1398/4 689/1382/4 691/1387/4 693/1393/4
f 690/1384/5 696/1400/5 694/1396/5 692/1390/5
f 697/1401/2 698/1403/2 700/1408/2 699/1405/2
f 699/1406/1 700/1409/1 702/1414/1 701/1411/1
f 701/1412/3 702/1415/3 704/1419/3 703/1417/3
f 703/1418/4 697/1402/4 699/1407/4 701/1413/4
f 698/1404/5 704/1420/5 702/1416/5 700/1410/5
f 705/1421/2 706/1423/2 708/1428/2 707/1425/2
f 707/1426/1 708/1429/1 710/1434/1 709/1431/1
f 709/1432/3 710/1435/3 712/1439/3 711/1437/3
f 711/1438/4 705/1422/4 707/1427/4 709/1433/4
f 706/1424/5 712/1440/5 710/1436/5 708/1430/5
f 713/1441/2 714/1443/2 716/1448/2 715/1445/2
f 715/1446/1 716/1449/1 718/1454/1 717/1451/1
f 717/1452/3 718/1455/3 720/1459/3 719/1457/3
f 719/1458/4 713/1442/4 715/1447/4 717/1453/4
f 714/1444/5 720/1460/5 718/1456/5 716/1450/5
f 721/1461/2 722/1463/2 724/1468/2 723/1465/2
f 723/1466/1 724/1469/1 726/1474/1 725/1471/1
f 725/1472/3 726/1475/3 728/1479/3 727/1477/3
f 727/1478/4 721/1462/4 723/1467/4 725/1473/4
f 722/1464/5 728/1480/5 726/1476/5 724/1470/5
f 729/1481/2 730/1483/2 732/1488/2 731/1485/2
f 731/1486/1 732/1489/1 734/1494/1 733/1491/1
f 733/1492/3 734/1495/3 736/1499/3 735/1497/3
f 735/1498/4 729/1482/4 731/1487/4 733/1493/4
f 730/1484/5 736/1500/5 734/1496/5 732/1490/5
f 737/1501/2 738/1503/2 740/1508/2 739/1505/2
f 739/1506/1 740/1509/1 742/1514/1 741/1511/1
f 741/1512/3 742/1515/3 744/1519/3 743/1517/3
f 743/1518/4 737/1502/4 739/1507/4 741/1513/4
f 738/1504/5 744/1520/5 742/1516/5 740/1510/5
f 745/1521/2 746/1523/2 748/1528/2 747/1525/2
f 747/1526/1 748/1529/1 750/1534/1 749/1531/1
f 749/1532/3 750/1535/3 752/1539/3 751/1537/3
f 751/1538/4 745/1522/4 747/1527/4 749/1533/4
f 746/1524/5 752/1540/5 750/1536/5 748/1530/5
f 753/1541/2 754/1543/2 756/1548/2 755/1545/2
f 755/1546/1 756/1549/1 758/1554/1 757/1551/1
f 757/1552/3 758/1555/3 760/1559/3 759/1557/3
f 759/1558/4 753/1542/4 755/1547/4 757/1553/4
f 754/1544/5 760/1560/5 758/1556/5 756/1550/5
f 761/1561/2 762/1563/2 764/1568/2 763/1565/2
f 763/1566/1 764/1569/1 766/1574/1 765/1571/1
f 765/1572/3 766/1575/3 768/1579/3 767/1577/3
f 767/1578/4 761/1562/4 763/1567/4 765/1573/4
f 762/1564/5 768/1580/5 766/1576/5 764/1570/5
f 769/1581/2 770/1583/2 772/1588/2 771/1585/2
f 771/1586/1 772/1589/1 774/1594/1 773/1591/1
f 773/1592/3 774/1595/3 776/1599/3 775/1597/3
f 775/1598/4 769/1582/4 771/1587/4 773/1593/4
f 770/1584/5 776/1600/5 774/1596/5 772/1590/5
f 777/1601/2 778/1603/2 780/1608/2 779/1605/2
f 779/1606/1 780/1609/1 782/1614/1 781/1611/1
f 781/1612/3 782/1615/3 784/1619/3 783/1617/3
f 783/1618/4 777/1602/4 779/1607/4 781/1613/4
f 778/1604/5 784/1620/5 782/1616/5 780/1610/5
f 785/1621/2 786/1623/2 788/1628/2 787/1625/2
f 787/1626/1 788/1629/1 790/1634/1 789/1631/1
f 789/1632/3 790/1635/3 792/1639/3 791/1637/3
f 791/1638/4 785/1622/4 787/1627/4 789/1633/4
f 786/1624/5 792/1640/5 790/1636/5 788/1630/5
f 793/1641/2 794/1643/2 796/1648/2 795/1645/2
f 795/1646/1 796/1649/1 798/1654/1 797/1651/1
f 797/1652/3 798/1655/3 800/1659/3 799/1657/3
f 799/1658/4 793/1642/4 795/1647/4 797/1653/4
f 794/1644/5 800/1660/5 798/1656/5 796/1650/5
f 801/1661/2 802/1663/2 804/1668/2 803/1665/2
f 803/1666/1 804/1669/1 806/1674/1 805/1671/1
f 805/1672/3 806/1675/3 808/1679/3 807/1677/3
f 807/1678/4 801/1662/4 803/1667/4 805/1673/4
f 802/1664/5 808/1680/5 806/1676/5 804/1670/5
f 809/1681/2 810/1683/2 812/1688/2 811/1685/2
f 811/1686/1 812/1689/1 814/1694/1 813/1691/1
f 813/1692/3 814/1695/3 816/1699/3 815/1697/3
f 815/1698/4 809/1682/4 811/1687/4 813/1693/4
f 810/1684/5 816/1700/5 814/1696/5 812/1690/5
f 817/1701/2 818/1703/2 820/1708/2 819/1705/2
f 819/1706/1 820/1709/1 822/1714/1 821/1711/1
f 821/1712/3 822/1715/3 824/1719/3 823/1717/3
f 823/1718/4 817/1702/4 819/1707/4 821/1713/4
f 818/1704/5 824/1720/5 822/1716/5 820/1710/5
f 825/1721/2 826/1723/2 828/1728/2 827/1725/2
f 827/1726/1 828/1729/1 830/1734/1 829/1731/1
f 829/1732/3 830/1735/3 832/1739/3 831/1737/3
f 831/1738/4 825/1722/4 827/1727/4 829/1733/4
f 826/1724/5 832/1740/5 830/1736/5 828/1730/5
f 833/1741/2 834/1743/2 836/1748/2 835/1745/2
f 835/1746/1 836/1749/1 838/1754/1 837/1751/1
f 837/1752/3 838/1755/3 840/1759/3 839/1757/3
f 839/1758/4 833/1742/4 835/1747/4 837/1753/4
f 834/1744/5 840/1760/5 838/1756/5 836/1750/5
f 841/1761/2 842/1763/2 844/1768/2 843/1765/2
f 843/1766/1 844/1769/1 846/1774/1 845/1771/1
f 845/1772/3 846/1775/3 848/1779/3 847/1777/3
f 847/1778/4 841/1762/4 843/1767/4 845/1773/4
f 842/1764/5 848/1780/5 846/1776/5 844/1770/5
f 849/1781/2 850/1783/2 852/1788/2 851/1785/2
f 851/1786/1 852/1789/1 854/1794/1 853/1791/1
f 853/1792/3 854/1795/3 856/1799/3 855/1797/3
f 855/1798/4 849/1782/4 851/1787/4 853/1793/4
f 850/1784/5 856/1800/5 854/1796/5 852/1790/5
f 857/1801/2 858/1803/2 860/1808/2 859/1805/2
f 859/1806/1 860/1809/1 862/1814/1 861/1811/1
f 861/1812/3 862/1815/3 864/1819/3 863/1817/3
f 863/1818/4 857/1802/4 859/1807/4 861/1813/4
f 858/1804/5 864/1820/5 862/1816/5 860/1810/5
f 865/1821/2 866/1823/2 868/1828/2 867/1825/2
f 867/1826/1 868/1829/1 870/1834/1 869/1831/1
f 869/1832/3 870/1835/3 872/1839/3 871/1837/3
f 871/1838/4 865/1822/4 867/1827/4 869/1833/4
f 866/1824/5 872/1840/5 870/1836/5 868/1830/5
f 873/1841/2 874/1843/2 876/1848/2 875/1845/2
f 875/1846/1 876/1849/1 878/1854/1 877/1851/1
f 877/1852/3 878/1855/3 880/1859/3 879/1857/3
f 879/1858/4 873/1842/4 875/1847/4 877/1853/4
f 874/1844/5 880/1860/5 878/1856/5 876/1850/5
f 881/1861/2 882/1863/2 884/1868/2 883/1865/2
f 883/1866/1 884/1869/1 886/1874/1 885/1871/1
f 885/1872/3 886/1875/3 888/1879/3 887/1877/3
f 887/1878/4 881/1862/4 883/1867/4 885/1873/4
f 882/1864/5 888/1880/5 886/1876/5 884/1870/5
f 889/1881/2 890/1883/2 892/1888/2 891/1885/2
f 891/1886/1 892/1889/1 894/1894/1 893/1891/1
f 893/1892/3 894/1895/3 896/1899/3 895/1897/3
f 895/1898/4 889/1882/4 891/1887/4 893/1893/4
f 890/1884/5 896/1900/5 894/1896/5 892/1890/5
f 897/1901/2 898/1903/2 900/1908/2 899/1905/2
f 899/1906/1 900/1909/1 902/1914/1 901/1911/1
f 901/1912/3 902/1915/3 904/1919/3 903/1917/3
f 903/1918/4 897/1902/4 899/1907/4 901/1913/4
f 898/1904/5 904/1920/5 902/1916/5 900/1910/5
f 905/1921/2 906/1923/2 908/1928/2 907/1925/2
f 907/1926/1 908/1929/1 910/1934/1 909/1931/1
f 909/1932/3 910/1935/3 912/1939/3 911/1937/3
f 911/1938/4 905/1922/4 907/1927/4 909/1933/4
f 906/1924/5 912/1940/5 910/1936/5 908/1930/5
f 913/1941/2 914/1943/2 916/1948/2 915/1945/2
f 915/1946/1 916/1949/1 918/1954/1 917/1951/1
f 917/1952/3 918/1955/3 920/1959/3 919/1957/3
f 919/1958/4 913/1942/4 915/1947/4 917/1953/4
f 914/1944/5 920/1960/5 918/1956/5 916/1950/5
f 921/1961/2 922/1963/2 924/1968/2 923/1965/2
f 923/1966/1 924/1969/1 926/1974/1 925/1971/1
f 925/1972/3 926/1975/3 928/1979/3 927/1977/3
f 927/1978/4 921/1962/4 923/1967/4 925/1973/4
f 922/1964/5 928/1980/5 926/1976/5 924/1970/5
f 929/1981/2 930/1983/2 932/1988/2 931/1985/2
f 931/1986/1 932/1989/1 934/1994/1 933/1991/1
f 933/1992/3 934/1995/3 936/1999/3 935/1997/3
f 935/1998/4 929/1982/4 931/1987/4 933/1993/4
f 930/1984/5 936/2000/5 934/1996/5 932/1990/5
f 937/2001/2 938/2003/2 940/2008/2 939/2005/2
f 939/2006/1 940/2009/1 942/2014/1 941/2011/1
f 941/2012/3 942/2015/3 944/2019/3 943/2017/3
f 943/2018/4 937/2002/4 939/2007/4 941/2013/4
f 938/2004/5 944/2020/5 942/2016/5 940/2010/5
f 945/2021/2 946/2023/2 948/2028/2 947/2025/2
f 947/2026/1 948/2029/1 950/2034/1 949/2031/1
f 949/2032/3 950/2035/3 952/2039/3 951/2037/3
f 951/2038/4 945/2022/4 947/2027/4 949/2033/4
f 946/2024/5 952/2040/5 950/2036/5 948/2030/5
f 953/2041/2 954/2043/2 956/2048/2 955/2045/2
f 955/2046/1 956/2049/1 958/2054/1 957/2051/1
f 957/2052/3 958/2055/3 960/2059/3 959/2057/3
f 959/2058/4 953/2042/4 955/2047/4 957/2053/4
f 954/2044/5 960/2060/5 958/2056/5 956/2050/5
f 961/2061/2 962/2063/2 964/2068/2 963/2065/2
f 963/2066/1 964/2069/1 966/2074/1 965/2071/1
f 965/2072/3 966/2075/3 968/2079/3 967/2077/3
f 967/2078/4 961/2062/4 963/2067/4 965/2073/4
f 962/2064/5 968/2080/5 966/2076/5 964/2070/5
