# Blender 3.3.21
# www.blender.org
mtllib EstanteriaCaja5x2.mtl
o EstanteriaCajas5X2
v -2.063260 0.699800 -0.989100
v -0.062560 0.699800 -0.989100
v -2.063260 0.699801 -2.978900
v -0.062560 0.699801 -2.978900
v -0.270060 -1.131800 -1.102100
v -0.165760 -1.131800 -1.102100
v -0.270060 0.699700 -1.102100
v -0.165760 0.699700 -1.102100
v -0.270060 0.699700 -1.217700
v -0.165760 0.699700 -1.217700
v -0.270060 -1.131800 -1.217700
v -0.165760 -1.131800 -1.217700
v -1.933360 -1.131800 -1.102100
v -1.829060 -1.131800 -1.102100
v -1.933360 0.699700 -1.102100
v -1.829060 0.699700 -1.102100
v -1.933360 0.699700 -1.217700
v -1.829060 0.699700 -1.217700
v -1.933360 -1.131800 -1.217700
v -1.829060 -1.131800 -1.217700
v -0.270060 -1.131800 -2.764600
v -0.165760 -1.131800 -2.764600
v -0.270060 0.699701 -2.764600
v -0.165760 0.699701 -2.764600
v -0.270060 0.699701 -2.880200
v -0.165760 0.699701 -2.880200
v -0.270060 -1.131800 -2.880200
v -0.165760 -1.131800 -2.880200
v -1.933360 -1.131800 -2.764600
v -1.829060 -1.131800 -2.764600
v -1.933360 0.699701 -2.764600
v -1.829060 0.699701 -2.764600
v -1.933360 0.699701 -2.880200
v -1.829060 0.699701 -2.880200
v -1.933360 -1.131800 -2.880200
v -1.829060 -1.131800 -2.880200
v -2.063260 -0.201400 -0.989100
v -0.062560 -0.201400 -0.989100
v -2.063260 -0.201400 -2.978900
v -0.062560 -0.201400 -2.978900
v -2.063260 -1.131800 -0.989100
v -0.062560 -1.131800 -0.989100
v -2.063260 -1.131800 -2.978900
v -0.062560 -1.131800 -2.978900
v -2.063260 0.699801 -3.105600
v -0.062560 0.699801 -3.105600
v -2.063260 0.699801 -5.095400
v -0.062560 0.699801 -5.095400
v -2.063260 -0.201399 -3.105600
v -0.062560 -0.201399 -3.105600
v -2.063260 -0.201399 -5.095400
v -0.062560 -0.201399 -5.095400
v -2.063260 -1.131800 -3.105600
v -0.062560 -1.131800 -3.105600
v -2.063260 -1.131799 -5.095400
v -0.062560 -1.131799 -5.095400
v -1.933360 -1.131800 -3.218600
v -1.829060 -1.131800 -3.218600
v -1.933360 0.699701 -3.218600
v -1.829060 0.699701 -3.218600
v -1.933360 0.699701 -3.334200
v -1.829060 0.699701 -3.334200
v -1.933360 -1.131799 -3.334200
v -1.829060 -1.131799 -3.334200
v -0.270060 -1.131800 -3.218600
v -0.165760 -1.131800 -3.218600
v -0.270060 0.699701 -3.218600
v -0.165760 0.699701 -3.218600
v -0.270060 0.699701 -3.334200
v -0.165760 0.699701 -3.334200
v -0.270060 -1.131799 -3.334200
v -0.165760 -1.131799 -3.334200
v -1.933360 -1.131799 -4.881100
v -1.829060 -1.131799 -4.881100
v -1.933360 0.699701 -4.881100
v -1.829060 0.699701 -4.881100
v -1.933360 0.699701 -4.996700
v -1.829060 0.699701 -4.996700
v -1.933360 -1.131799 -4.996700
v -1.829060 -1.131799 -4.996700
v -0.270060 -1.131799 -4.881100
v -0.165760 -1.131799 -4.881100
v -0.270060 0.699701 -4.881100
v -0.165760 0.699701 -4.881100
v -0.270060 0.699701 -4.996700
v -0.165760 0.699701 -4.996700
v -0.270060 -1.131799 -4.996700
v -0.165760 -1.131799 -4.996700
v -2.063260 0.699800 1.031300
v -0.062560 0.699800 1.031300
v -2.063260 0.699800 -0.958500
v -0.062560 0.699800 -0.958500
v -2.063260 -0.201400 1.031300
v -0.062560 -0.201400 1.031300
v -2.063260 -0.201400 -0.958500
v -0.062560 -0.201400 -0.958500
v -2.063260 -1.131800 1.031300
v -0.062560 -1.131800 1.031300
v -2.063260 -1.131800 -0.958500
v -0.062560 -1.131800 -0.958500
v -1.933360 -1.131800 0.918300
v -1.829060 -1.131800 0.918300
v -1.933360 0.699700 0.918300
v -1.829060 0.699700 0.918300
v -1.933360 0.699700 0.802700
v -1.829060 0.699700 0.802700
v -1.933360 -1.131800 0.802700
v -1.829060 -1.131800 0.802700
v -0.270060 -1.131800 0.918300
v -0.165760 -1.131800 0.918300
v -0.270060 0.699700 0.918300
v -0.165760 0.699700 0.918300
v -0.270060 0.699700 0.802700
v -0.165760 0.699700 0.802700
v -0.270060 -1.131800 0.802700
v -0.165760 -1.131800 0.802700
v -1.933360 -1.131800 -0.744200
v -1.829060 -1.131800 -0.744200
v -1.933360 0.699700 -0.744200
v -1.829060 0.699700 -0.744200
v -1.933360 0.699700 -0.859800
v -1.829060 0.699700 -0.859800
v -1.933360 -1.131800 -0.859800
v -1.829060 -1.131800 -0.859800
v -0.270060 -1.131800 -0.744200
v -0.165760 -1.131800 -0.744200
v -0.270060 0.699700 -0.744200
v -0.165760 0.699700 -0.744200
v -0.270060 0.699700 -0.859800
v -0.165760 0.699700 -0.859800
v -0.270060 -1.131800 -0.859800
v -0.165760 -1.131800 -0.859800
v -2.063260 0.699800 3.062100
v -0.062560 0.699800 3.062100
v -2.063260 0.699800 1.072300
v -0.062560 0.699800 1.072300
v -2.063260 -0.201400 3.062100
v -0.062560 -0.201400 3.062100
v -2.063260 -0.201400 1.072300
v -0.062560 -0.201400 1.072300
v -2.063260 -1.131801 3.062100
v -0.062560 -1.131801 3.062100
v -2.063260 -1.131800 1.072300
v -0.062560 -1.131800 1.072300
v -1.933360 -1.131801 2.949100
v -1.829060 -1.131801 2.949100
v -1.933360 0.699700 2.949100
v -1.829060 0.699700 2.949100
v -1.933360 0.699700 2.833500
v -1.829060 0.699700 2.833500
v -1.933360 -1.131801 2.833500
v -1.829060 -1.131801 2.833500
v -0.270060 -1.131801 2.949100
v -0.165760 -1.131801 2.949100
v -0.270060 0.699700 2.949100
v -0.165760 0.699700 2.949100
v -0.270060 0.699700 2.833500
v -0.165760 0.699700 2.833500
v -0.270060 -1.131801 2.833500
v -0.165760 -1.131801 2.833500
v -1.933360 -1.131800 1.286600
v -1.829060 -1.131800 1.286600
v -1.933360 0.699700 1.286600
v -1.829060 0.699700 1.286600
v -1.933360 0.699700 1.171000
v -1.829060 0.699700 1.171000
v -1.933360 -1.131800 1.171000
v -1.829060 -1.131800 1.171000
v -0.270060 -1.131800 1.286600
v -0.165760 -1.131800 1.286600
v -0.270060 0.699700 1.286600
v -0.165760 0.699700 1.286600
v -0.270060 0.699700 1.171000
v -0.165760 0.699700 1.171000
v -0.270060 -1.131800 1.171000
v -0.165760 -1.131800 1.171000
v -2.063260 0.699799 5.106400
v -0.062560 0.699799 5.106400
v -2.063260 0.699800 3.116600
v -0.062560 0.699800 3.116600
v -2.063260 -0.201401 5.106400
v -0.062560 -0.201401 5.106400
v -2.063260 -0.201401 3.116600
v -0.062560 -0.201401 3.116600
v -2.063260 -1.131801 5.106400
v -0.062560 -1.131801 5.106400
v -2.063260 -1.131801 3.116600
v -0.062560 -1.131801 3.116600
v -1.933360 -1.131801 4.993400
v -1.829060 -1.131801 4.993400
v -1.933360 0.699699 4.993400
v -1.829060 0.699699 4.993400
v -1.933360 0.699699 4.877800
v -1.829060 0.699699 4.877800
v -1.933360 -1.131801 4.877800
v -1.829060 -1.131801 4.877800
v -0.270060 -1.131801 4.993400
v -0.165760 -1.131801 4.993400
v -0.270060 0.699699 4.993400
v -0.165760 0.699699 4.993400
v -0.270060 0.699699 4.877800
v -0.165760 0.699699 4.877800
v -0.270060 -1.131801 4.877800
v -0.165760 -1.131801 4.877800
v -1.933360 -1.131801 3.330900
v -1.829060 -1.131801 3.330900
v -1.933360 0.699700 3.330900
v -1.829060 0.699700 3.330900
v -1.933360 0.699700 3.215300
v -1.829060 0.699700 3.215300
v -1.933360 -1.131801 3.215300
v -1.829060 -1.131801 3.215300
v -0.270060 -1.131801 3.330900
v -0.165760 -1.131801 3.330900
v -0.270060 0.699700 3.330900
v -0.165760 0.699700 3.330900
v -0.270060 0.699700 3.215300
v -0.165760 0.699700 3.215300
v -0.270060 -1.131801 3.215300
v -0.165760 -1.131801 3.215300
v 0.034240 -0.201401 5.106400
v 2.034940 -0.201401 5.106400
v 0.034240 -0.201401 3.116600
v 2.034940 -0.201401 3.116600
v 0.034240 -1.131801 5.106400
v 2.034940 -1.131801 5.106400
v 0.034240 -1.131801 3.116600
v 2.034940 -1.131801 3.116600
v 0.164140 -1.131801 3.330900
v 0.268440 -1.131801 3.330900
v 0.164140 0.699700 3.330900
v 0.268440 0.699700 3.330900
v 0.164140 0.699700 3.215300
v 0.268440 0.699700 3.215300
v 0.164140 -1.131801 3.215300
v 0.268440 -1.131801 3.215300
v 0.034240 -1.131801 3.062100
v 2.034940 -1.131801 3.062100
v 0.034240 -1.131800 1.072300
v 2.034940 -1.131800 1.072300
v 0.164140 -1.131801 2.949100
v 0.268440 -1.131801 2.949100
v 0.164140 0.699700 2.949100
v 0.268440 0.699700 2.949100
v 0.164140 0.699700 2.833500
v 0.268440 0.699700 2.833500
v 0.164140 -1.131801 2.833500
v 0.268440 -1.131801 2.833500
v 0.034240 -0.201400 3.062100
v 2.034940 -0.201400 3.062100
v 0.034240 -0.201400 1.072300
v 2.034940 -0.201400 1.072300
v 0.034240 0.699800 3.062100
v 2.034940 0.699800 3.062100
v 0.034240 0.699800 1.072300
v 2.034940 0.699800 1.072300
v 0.034240 -0.201400 1.031300
v 2.034940 -0.201400 1.031300
v 0.034240 -0.201400 -0.958500
v 2.034940 -0.201400 -0.958500
v 0.034240 0.699800 1.031300
v 2.034940 0.699800 1.031300
v 0.034240 0.699800 -0.958500
v 2.034940 0.699800 -0.958500
v 0.034240 -1.131800 1.031300
v 2.034940 -1.131800 1.031300
v 0.034240 -1.131800 -0.958500
v 2.034940 -1.131800 -0.958500
v 0.034240 -1.131800 -0.989100
v 2.034940 -1.131800 -0.989100
v 0.034240 -1.131800 -2.978900
v 2.034940 -1.131800 -2.978900
v 0.164140 -1.131800 -1.102100
v 0.268440 -1.131800 -1.102100
v 0.164140 0.699700 -1.102100
v 0.268440 0.699700 -1.102100
v 0.164140 0.699700 -1.217700
v 0.268440 0.699700 -1.217700
v 0.164140 -1.131800 -1.217700
v 0.268440 -1.131800 -1.217700
v 0.034240 -0.201400 -0.989100
v 2.034940 -0.201400 -0.989100
v 0.034240 -0.201400 -2.978900
v 2.034940 -0.201400 -2.978900
v 0.164140 -1.131800 -0.744200
v 0.268440 -1.131800 -0.744200
v 0.164140 0.699700 -0.744200
v 0.268440 0.699700 -0.744200
v 0.164140 0.699700 -0.859800
v 0.268440 0.699700 -0.859800
v 0.164140 -1.131800 -0.859800
v 0.268440 -1.131800 -0.859800
v 0.164140 -1.131800 1.286600
v 0.268440 -1.131800 1.286600
v 0.164140 0.699700 1.286600
v 0.268440 0.699700 1.286600
v 0.164140 0.699700 1.171000
v 0.268440 0.699700 1.171000
v 0.164140 -1.131800 1.171000
v 0.268440 -1.131800 1.171000
v 0.164140 -1.131800 0.918300
v 0.268440 -1.131800 0.918300
v 0.164140 0.699700 0.918300
v 0.268440 0.699700 0.918300
v 0.164140 0.699700 0.802700
v 0.268440 0.699700 0.802700
v 0.164140 -1.131800 0.802700
v 0.268440 -1.131800 0.802700
v 0.164140 -1.131801 4.993400
v 0.268440 -1.131801 4.993400
v 0.164140 0.699699 4.993400
v 0.268440 0.699699 4.993400
v 0.164140 0.699699 4.877800
v 0.268440 0.699699 4.877800
v 0.164140 -1.131801 4.877800
v 0.268440 -1.131801 4.877800
v 0.164140 -1.131800 -2.764600
v 0.268440 -1.131800 -2.764600
v 0.164140 0.699701 -2.764600
v 0.268440 0.699701 -2.764600
v 0.164140 0.699701 -2.880200
v 0.268440 0.699701 -2.880200
v 0.164140 -1.131800 -2.880200
v 0.268440 -1.131800 -2.880200
v 0.034240 0.699801 -3.105600
v 2.034940 0.699801 -3.105600
v 0.034240 0.699801 -5.095400
v 2.034940 0.699801 -5.095400
v 0.034240 -0.201399 -3.105600
v 2.034940 -0.201399 -3.105600
v 0.034240 -0.201399 -5.095400
v 2.034940 -0.201399 -5.095400
v 0.164140 -1.131799 -4.881100
v 0.268440 -1.131799 -4.881100
v 0.164140 0.699701 -4.881100
v 0.268440 0.699701 -4.881100
v 0.164140 0.699701 -4.996700
v 0.268440 0.699701 -4.996700
v 0.164140 -1.131799 -4.996700
v 0.268440 -1.131799 -4.996700
v 0.164140 -1.131800 -3.218600
v 0.268440 -1.131800 -3.218600
v 0.164140 0.699701 -3.218600
v 0.268440 0.699701 -3.218600
v 0.164140 0.699701 -3.334200
v 0.268440 0.699701 -3.334200
v 0.164140 -1.131799 -3.334200
v 0.268440 -1.131799 -3.334200
v 1.827439 -1.131799 -4.881100
v 1.931740 -1.131799 -4.881100
v 1.827439 0.699701 -4.881100
v 1.931740 0.699701 -4.881100
v 1.827439 0.699701 -4.996700
v 1.931740 0.699701 -4.996700
v 1.827439 -1.131799 -4.996700
v 1.931740 -1.131799 -4.996700
v 1.827439 -1.131800 -3.218600
v 1.931740 -1.131800 -3.218600
v 1.827439 0.699701 -3.218600
v 1.931740 0.699701 -3.218600
v 1.827439 0.699701 -3.334200
v 1.931740 0.699701 -3.334200
v 1.827439 -1.131799 -3.334200
v 1.931740 -1.131799 -3.334200
v 1.827439 -1.131800 -2.764600
v 1.931740 -1.131800 -2.764600
v 1.827439 0.699701 -2.764600
v 1.931740 0.699701 -2.764600
v 1.827439 0.699701 -2.880200
v 1.931740 0.699701 -2.880200
v 1.827439 -1.131800 -2.880200
v 1.931740 -1.131800 -2.880200
v 1.827439 -1.131800 -0.744200
v 1.931740 -1.131800 -0.744200
v 1.827439 0.699700 -0.744200
v 1.931740 0.699700 -0.744200
v 1.827439 0.699700 -0.859800
v 1.931740 0.699700 -0.859800
v 1.827439 -1.131800 -0.859800
v 1.931740 -1.131800 -0.859800
v 1.827439 -1.131800 -1.102100
v 1.931740 -1.131800 -1.102100
v 1.827439 0.699700 -1.102100
v 1.931740 0.699700 -1.102100
v 1.827439 0.699700 -1.217700
v 1.931740 0.699700 -1.217700
v 1.827439 -1.131800 -1.217700
v 1.931740 -1.131800 -1.217700
v 1.827439 -1.131800 1.286600
v 1.931740 -1.131800 1.286600
v 1.827439 0.699700 1.286600
v 1.931740 0.699700 1.286600
v 1.827439 0.699700 1.171000
v 1.931740 0.699700 1.171000
v 1.827439 -1.131800 1.171000
v 1.931740 -1.131800 1.171000
v 1.827439 -1.131800 0.918300
v 1.931740 -1.131800 0.918300
v 1.827439 0.699700 0.918300
v 1.931740 0.699700 0.918300
v 1.827439 0.699700 0.802700
v 1.931740 0.699700 0.802700
v 1.827439 -1.131800 0.802700
v 1.931740 -1.131800 0.802700
v 1.827439 -1.131801 3.330900
v 1.931740 -1.131801 3.330900
v 1.827439 0.699700 3.330900
v 1.931740 0.699700 3.330900
v 1.827439 0.699700 3.215300
v 1.931740 0.699700 3.215300
v 1.827439 -1.131801 3.215300
v 1.931740 -1.131801 3.215300
v 1.827439 -1.131801 2.949100
v 1.931740 -1.131801 2.949100
v 1.827439 0.699700 2.949100
v 1.931740 0.699700 2.949100
v 1.827439 0.699700 2.833500
v 1.931740 0.699700 2.833500
v 1.827439 -1.131801 2.833500
v 1.931740 -1.131801 2.833500
v 1.827439 -1.131801 4.993400
v 1.931740 -1.131801 4.993400
v 1.827439 0.699699 4.993400
v 1.931740 0.699699 4.993400
v 1.827439 0.699699 4.877800
v 1.931740 0.699699 4.877800
v 1.827439 -1.131801 4.877800
v 1.931740 -1.131801 4.877800
v 0.034240 0.699799 5.106400
v 2.034940 0.699799 5.106400
v 0.034240 0.699800 3.116600
v 2.034940 0.699800 3.116600
v 0.034240 -1.131800 -3.105600
v 2.034940 -1.131800 -3.105600
v 0.034240 -1.131799 -5.095400
v 2.034940 -1.131799 -5.095400
v 0.034240 0.699800 -0.989100
v 2.034940 0.699800 -0.989100
v 0.034240 0.699801 -2.978900
v 2.034940 0.699801 -2.978900
v 1.203641 0.702399 4.393899
v 1.618841 0.702399 4.393899
v 1.203641 1.111698 4.393899
v 1.618841 1.111698 4.393899
v 1.203641 1.111698 3.757100
v 1.618841 1.111698 3.757100
v 1.203641 0.702399 3.757100
v 1.618841 0.702399 3.757100
v 0.499141 0.702399 4.393899
v 0.914342 0.702399 4.393899
v 0.499141 1.111698 4.393899
v 0.914342 1.111698 4.393899
v 0.499141 1.111698 3.757100
v 0.914342 1.111698 3.757100
v 0.499141 0.702399 3.757100
v 0.914342 0.702399 3.757100
v 0.499141 -0.198701 4.393899
v 0.914342 -0.198701 4.393899
v 0.499141 0.210599 4.393899
v 0.914342 0.210599 4.393899
v 0.499141 0.210599 3.757100
v 0.914342 0.210599 3.757100
v 0.499141 -0.198701 3.757100
v 0.914342 -0.198701 3.757100
v 1.203641 -0.198701 4.393899
v 1.618841 -0.198701 4.393899
v 1.203641 0.210599 4.393899
v 1.618841 0.210599 4.393899
v 1.203641 0.210599 3.757100
v 1.618841 0.210599 3.757100
v 1.203641 -0.198701 3.757100
v 1.618841 -0.198701 3.757100
v 0.499141 -1.129701 4.393899
v 0.914342 -1.129701 4.393899
v 0.499141 -0.720401 4.393899
v 0.914342 -0.720401 4.393899
v 0.499141 -0.720401 3.757100
v 0.914342 -0.720401 3.757100
v 0.499141 -1.129701 3.757100
v 0.914342 -1.129701 3.757100
v 1.203641 -1.129701 4.393899
v 1.618841 -1.129701 4.393899
v 1.203641 -0.720401 4.393899
v 1.618841 -0.720401 4.393899
v 1.203641 -0.720401 3.757100
v 1.618841 -0.720401 3.757100
v 1.203641 -1.129701 3.757100
v 1.618841 -1.129701 3.757100
v -1.600356 0.702399 4.393899
v -1.185156 0.702399 4.393899
v -1.600356 1.111698 4.393899
v -1.185156 1.111698 4.393899
v -1.600356 1.111698 3.757100
v -1.185156 1.111698 3.757100
v -1.600356 0.702399 3.757100
v -1.185156 0.702399 3.757100
v -0.895857 0.702399 4.393899
v -0.480656 0.702399 4.393899
v -0.895857 1.111698 4.393899
v -0.480656 1.111698 4.393899
v -0.895857 1.111698 3.757100
v -0.480656 1.111698 3.757100
v -0.895857 0.702399 3.757100
v -0.480656 0.702399 3.757100
v -0.895857 -0.198701 4.393899
v -0.480656 -0.198701 4.393899
v -0.895857 0.210599 4.393899
v -0.480656 0.210599 4.393899
v -0.895857 0.210599 3.757100
v -0.480656 0.210599 3.757100
v -0.895857 -0.198701 3.757100
v -0.480656 -0.198701 3.757100
v -1.600356 -0.198701 4.393899
v -1.185156 -0.198701 4.393899
v -1.600356 0.210599 4.393899
v -1.185156 0.210599 4.393899
v -1.600356 0.210599 3.757100
v -1.185156 0.210599 3.757100
v -1.600356 -0.198701 3.757100
v -1.185156 -0.198701 3.757100
v -1.600356 -1.129701 4.393899
v -1.185156 -1.129701 4.393899
v -1.600356 -0.720401 4.393899
v -1.185156 -0.720401 4.393899
v -1.600356 -0.720401 3.757100
v -1.185156 -0.720401 3.757100
v -1.600356 -1.129701 3.757100
v -1.185156 -1.129701 3.757100
v -0.895857 -1.129701 4.393899
v -0.480656 -1.129701 4.393899
v -0.895857 -0.720401 4.393899
v -0.480656 -0.720401 4.393899
v -0.895857 -0.720401 3.757100
v -0.480656 -0.720401 3.757100
v -0.895857 -1.129701 3.757100
v -0.480656 -1.129701 3.757100
v -1.600356 -1.129700 2.328899
v -1.185156 -1.129700 2.328899
v -1.600356 -0.720401 2.328899
v -1.185156 -0.720401 2.328899
v -1.600356 -0.720401 1.692100
v -1.185156 -0.720401 1.692100
v -1.600356 -1.129700 1.692100
v -1.185156 -1.129700 1.692100
v -0.895857 -1.129700 2.328899
v -0.480656 -1.129700 2.328899
v -0.895857 -0.720401 2.328899
v -0.480656 -0.720401 2.328899
v -0.895857 -0.720401 1.692100
v -0.480656 -0.720401 1.692100
v -0.895857 -1.129700 1.692100
v -0.480656 -1.129700 1.692100
v -0.895857 -0.198701 2.328899
v -0.480656 -0.198701 2.328899
v -0.895857 0.210599 2.328899
v -0.480656 0.210599 2.328899
v -0.895857 0.210599 1.692100
v -0.480656 0.210599 1.692100
v -0.895857 -0.198701 1.692100
v -0.480656 -0.198701 1.692100
v -1.600356 -0.198701 2.328899
v -1.185156 -0.198701 2.328899
v -1.600356 0.210599 2.328899
v -1.185156 0.210599 2.328899
v -1.600356 0.210599 1.692100
v -1.185156 0.210599 1.692100
v -1.600356 -0.198701 1.692100
v -1.185156 -0.198701 1.692100
v -1.600356 0.702399 2.328899
v -1.185156 0.702399 2.328899
v -1.600356 1.111699 2.328899
v -1.185156 1.111699 2.328899
v -1.600356 1.111699 1.692100
v -1.185156 1.111699 1.692100
v -1.600356 0.702399 1.692100
v -1.185156 0.702399 1.692100
v -0.895857 0.702399 2.328899
v -0.480656 0.702399 2.328899
v -0.895857 1.111699 2.328899
v -0.480656 1.111699 2.328899
v -0.895857 1.111699 1.692100
v -0.480656 1.111699 1.692100
v -0.895857 0.702399 1.692100
v -0.480656 0.702399 1.692100
v 0.499141 0.702399 2.328899
v 0.914342 0.702399 2.328899
v 0.499141 1.111699 2.328899
v 0.914342 1.111699 2.328899
v 0.499141 1.111699 1.692100
v 0.914342 1.111699 1.692100
v 0.499141 0.702399 1.692100
v 0.914342 0.702399 1.692100
v 1.203641 0.702399 2.328899
v 1.618841 0.702399 2.328899
v 1.203641 1.111699 2.328899
v 1.618841 1.111699 2.328899
v 1.203641 1.111699 1.692100
v 1.618841 1.111699 1.692100
v 1.203641 0.702399 1.692100
v 1.618841 0.702399 1.692100
v 1.203641 -0.198701 2.328899
v 1.618841 -0.198701 2.328899
v 1.203641 0.210599 2.328899
v 1.618841 0.210599 2.328899
v 1.203641 0.210599 1.692100
v 1.618841 0.210599 1.692100
v 1.203641 -0.198701 1.692100
v 1.618841 -0.198701 1.692100
v 0.499141 -0.198701 2.328899
v 0.914342 -0.198701 2.328899
v 0.499141 0.210599 2.328899
v 0.914342 0.210599 2.328899
v 0.499141 0.210599 1.692100
v 0.914342 0.210599 1.692100
v 0.499141 -0.198701 1.692100
v 0.914342 -0.198701 1.692100
v 0.499141 -1.129700 2.328899
v 0.914342 -1.129700 2.328899
v 0.499141 -0.720401 2.328899
v 0.914342 -0.720401 2.328899
v 0.499141 -0.720401 1.692100
v 0.914342 -0.720401 1.692100
v 0.499141 -1.129700 1.692100
v 0.914342 -1.129700 1.692100
v 1.203641 -1.129700 2.328899
v 1.618841 -1.129700 2.328899
v 1.203641 -0.720401 2.328899
v 1.618841 -0.720401 2.328899
v 1.203641 -0.720401 1.692100
v 1.618841 -0.720401 1.692100
v 1.203641 -1.129700 1.692100
v 1.618841 -1.129700 1.692100
v -1.600356 -1.129700 0.307798
v -1.185156 -1.129700 0.307798
v -1.600356 -0.720400 0.307798
v -1.185156 -0.720400 0.307798
v -1.600356 -0.720400 -0.329000
v -1.185156 -0.720400 -0.329000
v -1.600356 -1.129700 -0.329000
v -1.185156 -1.129700 -0.329000
v -0.895857 -1.129700 0.307798
v -0.480656 -1.129700 0.307798
v -0.895857 -0.720400 0.307798
v -0.480656 -0.720400 0.307798
v -0.895857 -0.720400 -0.329000
v -0.480656 -0.720400 -0.329000
v -0.895857 -1.129700 -0.329000
v -0.480656 -1.129700 -0.329000
v -0.895857 -0.198700 0.307798
v -0.480656 -0.198700 0.307798
v -0.895857 0.210600 0.307799
v -0.480656 0.210600 0.307799
v -0.895857 0.210600 -0.329000
v -0.480656 0.210600 -0.329000
v -0.895857 -0.198700 -0.329000
v -0.480656 -0.198700 -0.329000
v -1.600356 -0.198700 0.307798
v -1.185156 -0.198700 0.307798
v -1.600356 0.210600 0.307799
v -1.185156 0.210600 0.307799
v -1.600356 0.210600 -0.329000
v -1.185156 0.210600 -0.329000
v -1.600356 -0.198700 -0.329000
v -1.185156 -0.198700 -0.329000
v -1.600356 0.702400 0.307799
v -1.185156 0.702400 0.307799
v -1.600356 1.111699 0.307799
v -1.185156 1.111699 0.307799
v -1.600356 1.111699 -0.329000
v -1.185156 1.111699 -0.329000
v -1.600356 0.702400 -0.329000
v -1.185156 0.702400 -0.329000
v -0.895857 0.702400 0.307799
v -0.480656 0.702400 0.307799
v -0.895857 1.111699 0.307799
v -0.480656 1.111699 0.307799
v -0.895857 1.111699 -0.329000
v -0.480656 1.111699 -0.329000
v -0.895857 0.702400 -0.329000
v -0.480656 0.702400 -0.329000
v 0.499141 0.702400 0.307799
v 0.914342 0.702400 0.307799
v 0.499141 1.111699 0.307799
v 0.914342 1.111699 0.307799
v 0.499141 1.111699 -0.329000
v 0.914342 1.111699 -0.329000
v 0.499141 0.702400 -0.329000
v 0.914342 0.702400 -0.329000
v 1.203641 0.702400 0.307799
v 1.618841 0.702400 0.307799
v 1.203641 1.111699 0.307799
v 1.618841 1.111699 0.307799
v 1.203641 1.111699 -0.329000
v 1.618841 1.111699 -0.329000
v 1.203641 0.702400 -0.329000
v 1.618841 0.702400 -0.329000
v 1.203641 -0.198700 0.307798
v 1.618841 -0.198700 0.307798
v 1.203641 0.210600 0.307799
v 1.618841 0.210600 0.307799
v 1.203641 0.210600 -0.329000
v 1.618841 0.210600 -0.329000
v 1.203641 -0.198700 -0.329000
v 1.618841 -0.198700 -0.329000
v 0.499141 -0.198700 0.307798
v 0.914342 -0.198700 0.307798
v 0.499141 0.210600 0.307799
v 0.914342 0.210600 0.307799
v 0.499141 0.210600 -0.329000
v 0.914342 0.210600 -0.329000
v 0.499141 -0.198700 -0.329000
v 0.914342 -0.198700 -0.329000
v 0.499141 -1.129700 0.307798
v 0.914342 -1.129700 0.307798
v 0.499141 -0.720400 0.307798
v 0.914342 -0.720400 0.307798
v 0.499141 -0.720400 -0.329000
v 0.914342 -0.720400 -0.329000
v 0.499141 -1.129700 -0.329000
v 0.914342 -1.129700 -0.329000
v 1.203641 -1.129700 0.307798
v 1.618841 -1.129700 0.307798
v 1.203641 -0.720400 0.307798
v 1.618841 -0.720400 0.307798
v 1.203641 -0.720400 -0.329000
v 1.618841 -0.720400 -0.329000
v 1.203641 -1.129700 -0.329000
v 1.618841 -1.129700 -0.329000
v -1.600356 -1.129700 -1.707702
v -1.185156 -1.129700 -1.707702
v -1.600356 -0.720400 -1.707702
v -1.185156 -0.720400 -1.707702
v -1.600356 -0.720400 -2.344501
v -1.185156 -0.720400 -2.344501
v -1.600356 -1.129700 -2.344501
v -1.185156 -1.129700 -2.344501
v -0.895857 -1.129700 -1.707702
v -0.480656 -1.129700 -1.707702
v -0.895857 -0.720400 -1.707702
v -0.480656 -0.720400 -1.707702
v -0.895857 -0.720400 -2.344501
v -0.480656 -0.720400 -2.344501
v -0.895857 -1.129700 -2.344501
v -0.480656 -1.129700 -2.344501
v -0.895857 -0.198700 -1.707702
v -0.480656 -0.198700 -1.707702
v -0.895857 0.210600 -1.707702
v -0.480656 0.210600 -1.707702
v -0.895857 0.210600 -2.344501
v -0.480656 0.210600 -2.344501
v -0.895857 -0.198700 -2.344501
v -0.480656 -0.198700 -2.344501
v -1.600356 -0.198700 -1.707702
v -1.185156 -0.198700 -1.707702
v -1.600356 0.210600 -1.707702
v -1.185156 0.210600 -1.707702
v -1.600356 0.210600 -2.344501
v -1.185156 0.210600 -2.344501
v -1.600356 -0.198700 -2.344501
v -1.185156 -0.198700 -2.344501
v -1.600356 0.702400 -1.707702
v -1.185156 0.702400 -1.707702
v -1.600356 1.111699 -1.707702
v -1.185156 1.111699 -1.707702
v -1.600356 1.111699 -2.344501
v -1.185156 1.111699 -2.344501
v -1.600356 0.702400 -2.344501
v -1.185156 0.702400 -2.344501
v -0.895857 0.702400 -1.707702
v -0.480656 0.702400 -1.707702
v -0.895857 1.111699 -1.707702
v -0.480656 1.111699 -1.707702
v -0.895857 1.111699 -2.344501
v -0.480656 1.111699 -2.344501
v -0.895857 0.702400 -2.344501
v -0.480656 0.702400 -2.344501
v 0.499141 0.702400 -1.707702
v 0.914342 0.702400 -1.707702
v 0.499141 1.111699 -1.707702
v 0.914342 1.111699 -1.707702
v 0.499141 1.111699 -2.344501
v 0.914342 1.111699 -2.344501
v 0.499141 0.702400 -2.344501
v 0.914342 0.702400 -2.344501
v 1.203641 0.702400 -1.707702
v 1.618841 0.702400 -1.707702
v 1.203641 1.111699 -1.707702
v 1.618841 1.111699 -1.707702
v 1.203641 1.111699 -2.344501
v 1.618841 1.111699 -2.344501
v 1.203641 0.702400 -2.344501
v 1.618841 0.702400 -2.344501
v 1.203641 -0.198700 -1.707702
v 1.618841 -0.198700 -1.707702
v 1.203641 0.210600 -1.707702
v 1.618841 0.210600 -1.707702
v 1.203641 0.210600 -2.344501
v 1.618841 0.210600 -2.344501
v 1.203641 -0.198700 -2.344501
v 1.618841 -0.198700 -2.344501
v 0.499141 -0.198700 -1.707702
v 0.914342 -0.198700 -1.707702
v 0.499141 0.210600 -1.707702
v 0.914342 0.210600 -1.707702
v 0.499141 0.210600 -2.344501
v 0.914342 0.210600 -2.344501
v 0.499141 -0.198700 -2.344501
v 0.914342 -0.198700 -2.344501
v 0.499141 -1.129700 -1.707702
v 0.914342 -1.129700 -1.707702
v 0.499141 -0.720400 -1.707702
v 0.914342 -0.720400 -1.707702
v 0.499141 -0.720400 -2.344501
v 0.914342 -0.720400 -2.344501
v 0.499141 -1.129700 -2.344501
v 0.914342 -1.129700 -2.344501
v 1.203641 -1.129700 -1.707702
v 1.618841 -1.129700 -1.707702
v 1.203641 -0.720400 -1.707702
v 1.618841 -0.720400 -1.707702
v 1.203641 -0.720400 -2.344501
v 1.618841 -0.720400 -2.344501
v 1.203641 -1.129700 -2.344501
v 1.618841 -1.129700 -2.344501
v -1.600356 -1.129699 -3.814802
v -1.185156 -1.129699 -3.814802
v -1.600356 -0.720400 -3.814802
v -1.185156 -0.720400 -3.814802
v -1.600356 -0.720400 -4.451600
v -1.185156 -0.720400 -4.451600
v -1.600356 -1.129699 -4.451600
v -1.185156 -1.129699 -4.451600
v -0.895857 -1.129699 -3.814802
v -0.480656 -1.129699 -3.814802
v -0.895857 -0.720400 -3.814802
v -0.480656 -0.720400 -3.814802
v -0.895857 -0.720400 -4.451600
v -0.480656 -0.720400 -4.451600
v -0.895857 -1.129699 -4.451600
v -0.480656 -1.129699 -4.451600
v -0.895857 -0.198700 -3.814802
v -0.480656 -0.198700 -3.814802
v -0.895857 0.210600 -3.814802
v -0.480656 0.210600 -3.814802
v -0.895857 0.210600 -4.451600
v -0.480656 0.210600 -4.451600
v -0.895857 -0.198700 -4.451600
v -0.480656 -0.198700 -4.451600
v -1.600356 -0.198700 -3.814802
v -1.185156 -0.198700 -3.814802
v -1.600356 0.210600 -3.814802
v -1.185156 0.210600 -3.814802
v -1.600356 0.210600 -4.451600
v -1.185156 0.210600 -4.451600
v -1.600356 -0.198700 -4.451600
v -1.185156 -0.198700 -4.451600
v -1.600356 0.702400 -3.814802
v -1.185156 0.702400 -3.814802
v -1.600356 1.111700 -3.814802
v -1.185156 1.111700 -3.814802
v -1.600356 1.111700 -4.451600
v -1.185156 1.111700 -4.451600
v -1.600356 0.702400 -4.451600
v -1.185156 0.702400 -4.451600
v -0.895857 0.702400 -3.814802
v -0.480656 0.702400 -3.814802
v -0.895857 1.111700 -3.814802
v -0.480656 1.111700 -3.814802
v -0.895857 1.111700 -4.451600
v -0.480656 1.111700 -4.451600
v -0.895857 0.702400 -4.451600
v -0.480656 0.702400 -4.451600
v 0.499141 0.702400 -3.814802
v 0.914342 0.702400 -3.814802
v 0.499141 1.111700 -3.814802
v 0.914342 1.111700 -3.814802
v 0.499141 1.111700 -4.451600
v 0.914342 1.111700 -4.451600
v 0.499141 0.702400 -4.451600
v 0.914342 0.702400 -4.451600
v 1.203641 0.702400 -3.814802
v 1.618841 0.702400 -3.814802
v 1.203641 1.111700 -3.814802
v 1.618841 1.111700 -3.814802
v 1.203641 1.111700 -4.451600
v 1.618841 1.111700 -4.451600
v 1.203641 0.702400 -4.451600
v 1.618841 0.702400 -4.451600
v 1.203641 -0.198700 -3.814802
v 1.618841 -0.198700 -3.814802
v 1.203641 0.210600 -3.814802
v 1.618841 0.210600 -3.814802
v 1.203641 0.210600 -4.451600
v 1.618841 0.210600 -4.451600
v 1.203641 -0.198700 -4.451600
v 1.618841 -0.198700 -4.451600
v 0.499141 -0.198700 -3.814802
v 0.914342 -0.198700 -3.814802
v 0.499141 0.210600 -3.814802
v 0.914342 0.210600 -3.814802
v 0.499141 0.210600 -4.451600
v 0.914342 0.210600 -4.451600
v 0.499141 -0.198700 -4.451600
v 0.914342 -0.198700 -4.451600
v 0.499141 -1.129699 -3.814802
v 0.914342 -1.129699 -3.814802
v 0.499141 -0.720400 -3.814802
v 0.914342 -0.720400 -3.814802
v 0.499141 -0.720400 -4.451600
v 0.914342 -0.720400 -4.451600
v 0.499141 -1.129699 -4.451600
v 0.914342 -1.129699 -4.451600
v 1.203641 -1.129699 -3.814802
v 1.618841 -1.129699 -3.814802
v 1.203641 -0.720400 -3.814802
v 1.618841 -0.720400 -3.814802
v 1.203641 -0.720400 -4.451600
v 1.618841 -0.720400 -4.451600
v 1.203641 -1.129699 -4.451600
v 1.618841 -1.129699 -4.451600
vn -0.0000 1.0000 -0.0000
vn -0.0000 -0.0000 1.0000
vn -0.0000 -0.0000 -1.0000
vn -1.0000 -0.0000 -0.0000
vn 1.0000 -0.0000 -0.0000
vt 0.317828 0.515496
vt 0.317828 0.423681
vt 0.409142 0.515496
vt 0.409142 0.423681
vt 0.011056 0.805261
vt 0.647229 0.090319
vt 0.006269 0.805261
vt 0.647229 0.392622
vt 0.011056 0.721211
vt 0.647229 0.006269
vt 0.006269 0.721211
vt 0.647229 0.476672
vt 0.362617 0.721211
vt 0.652534 0.006269
vt 0.367404 0.721211
vt 0.652534 0.476672
vt 0.362617 0.805261
vt 0.652534 0.090319
vt 0.367404 0.805261
vt 0.652534 0.392622
vt 0.706945 0.708672
vt 0.630785 0.612084
vt 0.702159 0.708672
vt 0.647229 0.199445
vt 0.706945 0.624622
vt 0.630785 0.528034
vt 0.702159 0.624622
vt 0.647229 0.283495
vt 0.718603 0.102857
vt 0.636091 0.528034
vt 0.723389 0.102857
vt 0.652534 0.283495
vt 0.718603 0.186907
vt 0.636091 0.612084
vt 0.723389 0.186907
vt 0.652534 0.199445
vt 0.792688 0.090319
vt 0.700759 0.476672
vt 0.787902 0.090319
vt 0.682916 0.392622
vt 0.792688 0.006269
vt 0.700759 0.392622
vt 0.787902 0.006269
vt 0.682916 0.476672
vt 0.291762 0.721211
vt 0.706064 0.392622
vt 0.296549 0.721211
vt 0.688221 0.476672
vt 0.291762 0.805261
vt 0.706064 0.476672
vt 0.296549 0.805261
vt 0.688221 0.392622
vt 0.724270 0.708672
vt 0.059799 0.708672
vt 0.719483 0.708672
vt 0.666472 0.528034
vt 0.724270 0.624622
vt 0.059799 0.624622
vt 0.719484 0.624622
vt 0.666472 0.612084
vt 0.735927 0.006269
vt 0.065104 0.624622
vt 0.740714 0.006269
vt 0.671777 0.612084
vt 0.735927 0.090319
vt 0.065104 0.708672
vt 0.740714 0.090319
vt 0.671777 0.528034
vt 0.421680 0.202437
vt 0.421680 0.110622
vt 0.512995 0.202437
vt 0.512995 0.110622
vt 0.421680 0.306790
vt 0.421680 0.214975
vt 0.512995 0.306790
vt 0.512995 0.214975
vt 0.525533 0.411143
vt 0.525533 0.319328
vt 0.616848 0.411143
vt 0.616848 0.319328
vt 0.525533 0.306790
vt 0.525533 0.214975
vt 0.616848 0.306790
vt 0.616848 0.214975
vt 0.525533 0.098084
vt 0.525533 0.006269
vt 0.616848 0.098084
vt 0.616848 0.006269
vt 0.740714 0.283496
vt 0.077642 0.708672
vt 0.735927 0.283496
vt 0.665073 0.199446
vt 0.740714 0.199446
vt 0.077642 0.624622
vt 0.735927 0.199446
vt 0.665073 0.283496
vt 0.735927 0.392622
vt 0.082947 0.624622
vt 0.740714 0.392622
vt 0.670378 0.283496
vt 0.735927 0.476672
vt 0.082947 0.708672
vt 0.740714 0.476672
vt 0.670378 0.199446
vt 0.758920 0.708672
vt 0.041956 0.708672
vt 0.754133 0.708672
vt 0.684315 0.528034
vt 0.758920 0.624622
vt 0.041956 0.624622
vt 0.754133 0.624622
vt 0.684315 0.612084
vt 0.183147 0.721211
vt 0.047261 0.624622
vt 0.187933 0.721211
vt 0.689620 0.612084
vt 0.183147 0.805261
vt 0.047261 0.708672
vt 0.187933 0.805261
vt 0.689620 0.528034
vt 0.758038 0.186907
vt 0.273919 0.708672
vt 0.753252 0.186907
vt 0.149015 0.624622
vt 0.758038 0.102857
vt 0.273919 0.624622
vt 0.753252 0.102857
vt 0.149015 0.708672
vt 0.631304 0.624622
vt 0.279224 0.624622
vt 0.636091 0.624622
vt 0.154321 0.708672
vt 0.631304 0.708672
vt 0.279224 0.708672
vt 0.636091 0.708672
vt 0.154321 0.624622
vt 0.775363 0.090319
vt 0.238232 0.708672
vt 0.770577 0.090319
vt 0.166859 0.624622
vt 0.775363 0.006269
vt 0.238232 0.624622
vt 0.770577 0.006269
vt 0.166859 0.708672
vt 0.111255 0.721211
vt 0.243537 0.624622
vt 0.116041 0.721211
vt 0.172164 0.708672
vt 0.111255 0.805261
vt 0.243537 0.708672
vt 0.116041 0.805261
vt 0.172164 0.624622
vt 0.110122 0.202437
vt 0.110122 0.110622
vt 0.201436 0.202437
vt 0.201436 0.110622
vt 0.213975 0.202437
vt 0.213975 0.110622
vt 0.305289 0.202437
vt 0.305289 0.110622
vt 0.213975 0.098084
vt 0.213975 0.006269
vt 0.305289 0.098084
vt 0.305289 0.006269
vt 0.724788 0.612084
vt 0.041956 0.612084
vt 0.720002 0.612084
vt 0.024112 0.528034
vt 0.724788 0.528034
vt 0.041956 0.528034
vt 0.720002 0.528034
vt 0.024112 0.612084
vt 0.718603 0.199446
vt 0.047261 0.528034
vt 0.723389 0.199446
vt 0.029418 0.612084
vt 0.718603 0.283496
vt 0.047261 0.612084
vt 0.723389 0.283496
vt 0.029418 0.528034
vt 0.793569 0.708672
vt 0.006269 0.612084
vt 0.788783 0.708672
vt 0.059799 0.528034
vt 0.793569 0.624622
vt 0.006269 0.528034
vt 0.788783 0.624622
vt 0.059799 0.612084
vt 0.041956 0.721211
vt 0.011574 0.528034
vt 0.046742 0.721211
vt 0.065104 0.612084
vt 0.041956 0.805261
vt 0.011574 0.612084
vt 0.046742 0.805261
vt 0.065104 0.528034
vt 0.758038 0.090319
vt 0.380979 0.612084
vt 0.753252 0.090319
vt 0.398822 0.528034
vt 0.758038 0.006269
vt 0.380979 0.528034
vt 0.753252 0.006269
vt 0.398822 0.612084
vt 0.666472 0.624622
vt 0.386284 0.528034
vt 0.671259 0.624622
vt 0.404128 0.612084
vt 0.666472 0.708672
vt 0.386284 0.612084
vt 0.671259 0.708672
vt 0.404128 0.528034
vt 0.794088 0.612084
vt 0.452352 0.612084
vt 0.789301 0.612084
vt 0.470196 0.528034
vt 0.794088 0.528034
vt 0.452352 0.528034
vt 0.789301 0.528034
vt 0.470196 0.612084
vt 0.059281 0.721211
vt 0.457657 0.528034
vt 0.064067 0.721211
vt 0.475501 0.612084
vt 0.059281 0.805261
vt 0.457657 0.612084
vt 0.064067 0.805261
vt 0.475501 0.528034
vt 0.110122 0.306790
vt 0.110122 0.214975
vt 0.201436 0.306790
vt 0.201436 0.214975
vt 0.213975 0.306790
vt 0.213975 0.214975
vt 0.305289 0.306790
vt 0.305289 0.214975
vt 0.317828 0.306790
vt 0.317828 0.214975
vt 0.409142 0.306790
vt 0.409142 0.214975
vt 0.689102 0.708672
vt 0.541569 0.612084
vt 0.684315 0.708672
vt 0.595099 0.528034
vt 0.689102 0.624622
vt 0.541569 0.528034
vt 0.684315 0.624622
vt 0.595099 0.612084
vt 0.718603 0.006269
vt 0.546874 0.528034
vt 0.723389 0.006269
vt 0.600404 0.612084
vt 0.718603 0.090319
vt 0.546874 0.612084
vt 0.723389 0.090319
vt 0.600404 0.528034
vt 0.792688 0.283495
vt 0.416666 0.612084
vt 0.787902 0.283495
vt 0.629386 0.199445
vt 0.792688 0.199446
vt 0.416666 0.528034
vt 0.787902 0.199446
vt 0.629386 0.283495
vt 0.076605 0.721211
vt 0.421971 0.528034
vt 0.081392 0.721211
vt 0.634691 0.283495
vt 0.076605 0.805261
vt 0.421971 0.612084
vt 0.081392 0.805261
vt 0.634691 0.199445
vt 0.723389 0.380084
vt 0.273919 0.612084
vt 0.718602 0.380084
vt 0.220389 0.528034
vt 0.723389 0.296034
vt 0.273919 0.528034
vt 0.718603 0.296034
vt 0.220389 0.612084
vt 0.718603 0.392622
vt 0.279224 0.528034
vt 0.723389 0.392622
vt 0.225694 0.612084
vt 0.718603 0.476672
vt 0.279224 0.612084
vt 0.723389 0.476672
vt 0.225694 0.528034
vt 0.776244 0.708672
vt 0.184702 0.612084
vt 0.771458 0.708672
vt 0.202546 0.528034
vt 0.776244 0.624622
vt 0.184702 0.528034
vt 0.771458 0.624622
vt 0.202546 0.612084
vt 0.093930 0.721211
vt 0.190007 0.528034
vt 0.098717 0.721211
vt 0.207851 0.612084
vt 0.093930 0.805261
vt 0.190007 0.612084
vt 0.098717 0.805261
vt 0.207851 0.528034
vt 0.421680 0.098084
vt 0.421680 0.006269
vt 0.512995 0.098084
vt 0.512995 0.006269
vt 0.317827 0.098084
vt 0.317827 0.006269
vt 0.409142 0.098084
vt 0.409142 0.006269
vt 0.317827 0.202437
vt 0.317827 0.110622
vt 0.409142 0.202437
vt 0.409142 0.110622
vt 0.740714 0.186907
vt 0.309606 0.612084
vt 0.735927 0.186907
vt 0.577255 0.528034
vt 0.740714 0.102857
vt 0.309606 0.528034
vt 0.735927 0.102857
vt 0.577255 0.612084
vt 0.735927 0.296034
vt 0.314911 0.528034
vt 0.740714 0.296034
vt 0.582561 0.612084
vt 0.735927 0.380084
vt 0.314911 0.612084
vt 0.740714 0.380084
vt 0.582561 0.528034
vt 0.775363 0.283495
vt 0.523726 0.612084
vt 0.770577 0.283495
vt 0.629385 0.102857
vt 0.775363 0.199446
vt 0.523726 0.528034
vt 0.770577 0.199446
vt 0.629385 0.186907
vt 0.131172 0.721211
vt 0.529031 0.528034
vt 0.135959 0.721211
vt 0.634691 0.186907
vt 0.131172 0.805261
vt 0.529031 0.612084
vt 0.135959 0.805261
vt 0.634691 0.102857
vt 0.741595 0.708672
vt 0.700759 0.186907
vt 0.736808 0.708672
vt 0.700759 0.199446
vt 0.741595 0.624622
vt 0.700759 0.102857
vt 0.736808 0.624622
vt 0.700759 0.283496
vt 0.737327 0.528034
vt 0.706064 0.102857
vt 0.742113 0.528034
vt 0.706064 0.283496
vt 0.737327 0.612084
vt 0.706064 0.186907
vt 0.742113 0.612084
vt 0.706064 0.199446
vt 0.758039 0.476672
vt 0.700759 0.090319
vt 0.753252 0.476672
vt 0.006269 0.624622
vt 0.758039 0.392622
vt 0.700759 0.006269
vt 0.753252 0.392622
vt 0.006269 0.708672
vt 0.148497 0.721211
vt 0.706064 0.006269
vt 0.153284 0.721211
vt 0.011574 0.708672
vt 0.148497 0.805261
vt 0.706064 0.090319
vt 0.153284 0.805261
vt 0.011574 0.624622
vt 0.006269 0.411143
vt 0.006269 0.319328
vt 0.097584 0.411143
vt 0.097584 0.319328
vt 0.421680 0.411143
vt 0.421680 0.319328
vt 0.512995 0.411143
vt 0.512995 0.319328
vt 0.170608 0.805261
vt 0.682916 0.186907
vt 0.165822 0.805261
vt 0.113329 0.624622
vt 0.170608 0.721211
vt 0.682916 0.102857
vt 0.165822 0.721211
vt 0.113329 0.708672
vt 0.753252 0.199446
vt 0.688221 0.102857
vt 0.758039 0.199446
vt 0.118634 0.708672
vt 0.753252 0.283495
vt 0.688221 0.186907
vt 0.758039 0.283495
vt 0.118634 0.624622
vt 0.006269 0.515496
vt 0.006269 0.423681
vt 0.097584 0.515496
vt 0.097584 0.423681
vt 0.205258 0.805261
vt 0.488039 0.612084
vt 0.200471 0.805261
vt 0.612942 0.528034
vt 0.205258 0.721211
vt 0.488039 0.528034
vt 0.200471 0.721211
vt 0.612942 0.612084
vt 0.754652 0.528034
vt 0.493344 0.528034
vt 0.759438 0.528034
vt 0.618247 0.612084
vt 0.754652 0.612084
vt 0.493344 0.612084
vt 0.759438 0.612084
vt 0.618247 0.528034
vt 0.110122 0.515496
vt 0.110122 0.423681
vt 0.201436 0.515496
vt 0.201436 0.423681
vt 0.213975 0.515496
vt 0.213975 0.423681
vt 0.305289 0.515496
vt 0.305289 0.423681
vt 0.006269 0.098084
vt 0.006269 0.006269
vt 0.097584 0.098084
vt 0.097584 0.006269
vt 0.006269 0.202437
vt 0.006269 0.110622
vt 0.097584 0.202437
vt 0.097584 0.110622
vt 0.110122 0.098084
vt 0.110122 0.006269
vt 0.201436 0.098084
vt 0.201436 0.006269
vt 0.213975 0.411143
vt 0.213975 0.319328
vt 0.305289 0.411143
vt 0.305289 0.319328
vt 0.222583 0.805261
vt 0.665073 0.090319
vt 0.217796 0.805261
vt 0.648629 0.528034
vt 0.222583 0.721211
vt 0.665073 0.006269
vt 0.217796 0.721211
vt 0.648629 0.612084
vt 0.770577 0.296034
vt 0.670378 0.006269
vt 0.775363 0.296034
vt 0.653934 0.612084
vt 0.770577 0.380084
vt 0.670378 0.090319
vt 0.775363 0.380084
vt 0.653934 0.528034
vt 0.110122 0.411143
vt 0.110122 0.319328
vt 0.201436 0.411143
vt 0.201436 0.319328
vt 0.260344 0.805261
vt 0.327449 0.612084
vt 0.255557 0.805261
vt 0.256076 0.528034
vt 0.260344 0.721211
vt 0.327449 0.528034
vt 0.255557 0.721211
vt 0.256076 0.612084
vt 0.771976 0.528034
vt 0.332754 0.528034
vt 0.776763 0.528034
vt 0.261381 0.612084
vt 0.771976 0.612084
vt 0.332754 0.612084
vt 0.776763 0.612084
vt 0.261381 0.528034
vt 0.314392 0.805261
vt 0.149016 0.612084
vt 0.309606 0.805261
vt 0.166859 0.528034
vt 0.314392 0.721211
vt 0.149016 0.528034
vt 0.309606 0.721211
vt 0.166859 0.612084
vt 0.787902 0.102857
vt 0.154321 0.528034
vt 0.792688 0.102857
vt 0.172164 0.612084
vt 0.787902 0.186907
vt 0.154321 0.612084
vt 0.792688 0.186907
vt 0.172164 0.528034
vt 0.331717 0.805261
vt 0.131172 0.612084
vt 0.326931 0.805261
vt 0.077642 0.528034
vt 0.331717 0.721211
vt 0.131172 0.528034
vt 0.326931 0.721211
vt 0.077642 0.612084
vt 0.787902 0.392622
vt 0.136477 0.528034
vt 0.792688 0.392622
vt 0.082947 0.612084
vt 0.787902 0.476672
vt 0.136477 0.612084
vt 0.792688 0.476672
vt 0.082947 0.528034
vt 0.385247 0.805261
vt 0.559412 0.612084
vt 0.380461 0.805261
vt 0.629385 0.296034
vt 0.385247 0.721211
vt 0.559412 0.528034
vt 0.380461 0.721211
vt 0.629385 0.380084
vt 0.023594 0.721211
vt 0.564717 0.528034
vt 0.028380 0.721211
vt 0.634691 0.380084
vt 0.023594 0.805261
vt 0.564717 0.612084
vt 0.028380 0.805261
vt 0.634691 0.296034
vt 0.350079 0.805261
vt 0.700759 0.380084
vt 0.345292 0.805261
vt 0.665073 0.296034
vt 0.350079 0.721211
vt 0.700759 0.296034
vt 0.345292 0.721211
vt 0.665073 0.380084
vt 0.787902 0.296034
vt 0.706064 0.296034
vt 0.792688 0.296034
vt 0.670378 0.380084
vt 0.787902 0.380084
vt 0.706064 0.380084
vt 0.792688 0.380084
vt 0.670378 0.296034
vt 0.525533 0.515496
vt 0.525533 0.423681
vt 0.616848 0.515496
vt 0.616848 0.423681
vt 0.525533 0.202437
vt 0.525533 0.110622
vt 0.616848 0.202437
vt 0.616848 0.110622
vt 0.277668 0.805261
vt 0.220389 0.708672
vt 0.272882 0.805261
vt 0.184702 0.624622
vt 0.277668 0.721211
vt 0.220389 0.624622
vt 0.272882 0.721211
vt 0.184702 0.708672
vt 0.770577 0.392622
vt 0.225694 0.624622
vt 0.775363 0.392622
vt 0.190008 0.708672
vt 0.770577 0.476672
vt 0.225694 0.708672
vt 0.775363 0.476672
vt 0.190008 0.624622
vt 0.243019 0.805261
vt 0.702159 0.612084
vt 0.238232 0.805261
vt 0.665073 0.392622
vt 0.243019 0.721211
vt 0.702159 0.528034
vt 0.238232 0.721211
vt 0.665073 0.476672
vt 0.770577 0.102857
vt 0.707464 0.528034
vt 0.775363 0.102857
vt 0.670378 0.476672
vt 0.770577 0.186907
vt 0.707464 0.612084
vt 0.775363 0.186907
vt 0.670378 0.392622
vt 0.457139 0.708672
vt 0.256075 0.708672
vt 0.452353 0.708672
vt 0.202546 0.624622
vt 0.457139 0.624622
vt 0.256075 0.624622
vt 0.452353 0.624622
vt 0.202546 0.708672
vt 0.291762 0.624622
vt 0.261381 0.624622
vt 0.296549 0.624622
vt 0.207851 0.708672
vt 0.291762 0.708672
vt 0.261381 0.708672
vt 0.296549 0.708672
vt 0.207851 0.624622
vt 0.564199 0.708672
vt 0.024112 0.708672
vt 0.559412 0.708672
vt 0.682916 0.199446
vt 0.564199 0.624622
vt 0.024112 0.624622
vt 0.559412 0.624622
vt 0.682916 0.283496
vt 0.309606 0.624622
vt 0.029418 0.624622
vt 0.314392 0.624622
vt 0.688221 0.283496
vt 0.309606 0.708672
vt 0.029418 0.708672
vt 0.314392 0.708672
vt 0.688221 0.199446
vt 0.421452 0.708672
vt 0.095486 0.708672
vt 0.416666 0.708672
vt 0.682916 0.006269
vt 0.421452 0.624622
vt 0.095486 0.624622
vt 0.416666 0.624622
vt 0.682916 0.090319
vt 0.363136 0.624622
vt 0.100791 0.624622
vt 0.367922 0.624622
vt 0.688221 0.090319
vt 0.363136 0.708672
vt 0.100791 0.708672
vt 0.367922 0.708672
vt 0.688221 0.006269
vt 0.492826 0.708672
vt 0.363136 0.612084
vt 0.488039 0.708672
vt 0.434509 0.528034
vt 0.492826 0.624622
vt 0.363136 0.528034
vt 0.488039 0.624622
vt 0.434509 0.612084
vt 0.540532 0.624622
vt 0.368441 0.528034
vt 0.545318 0.624622
vt 0.439814 0.612084
vt 0.540532 0.708672
vt 0.368441 0.612084
vt 0.545318 0.708672
vt 0.439814 0.528034
vt 0.617729 0.708672
vt 0.665073 0.186907
vt 0.612942 0.708672
vt 0.647229 0.296034
vt 0.617729 0.624622
vt 0.665073 0.102857
vt 0.612942 0.624622
vt 0.647229 0.380084
vt 0.648629 0.624622
vt 0.670378 0.102857
vt 0.653415 0.624622
vt 0.652534 0.380084
vt 0.648629 0.708672
vt 0.670378 0.186907
vt 0.653415 0.708672
vt 0.652534 0.296034
vt 0.599885 0.708672
vt 0.345292 0.612084
vt 0.595099 0.708672
vt 0.291762 0.528034
vt 0.599885 0.624622
vt 0.345292 0.528034
vt 0.595099 0.624622
vt 0.291762 0.612084
vt 0.577256 0.624622
vt 0.350598 0.528034
vt 0.582042 0.624622
vt 0.297068 0.612084
vt 0.577255 0.708672
vt 0.350598 0.612084
vt 0.582042 0.708672
vt 0.297068 0.528034
vt 0.527994 0.708672
vt 0.113329 0.612084
vt 0.523207 0.708672
vt 0.095486 0.528034
vt 0.527994 0.624622
vt 0.113329 0.528034
vt 0.523207 0.624622
vt 0.095486 0.612084
vt 0.505882 0.624622
vt 0.118634 0.528034
vt 0.510669 0.624622
vt 0.100791 0.612084
vt 0.505882 0.708672
vt 0.118634 0.612084
vt 0.510669 0.708672
vt 0.100791 0.528034
vt 0.350079 0.708672
vt 0.682916 0.380084
vt 0.345293 0.708672
vt 0.131172 0.624622
vt 0.350079 0.624622
vt 0.682916 0.296034
vt 0.345293 0.624622
vt 0.131172 0.708672
vt 0.434509 0.624622
vt 0.688221 0.296034
vt 0.439296 0.624622
vt 0.136477 0.708672
vt 0.434509 0.708672
vt 0.688221 0.380084
vt 0.439296 0.708672
vt 0.136477 0.624622
vt 0.331717 0.708672
vt 0.505883 0.612084
vt 0.326931 0.708672
vt 0.629386 0.006269
vt 0.331717 0.624622
vt 0.505883 0.528034
vt 0.326931 0.624622
vt 0.629386 0.090319
vt 0.380461 0.624622
vt 0.511188 0.528034
vt 0.385247 0.624622
vt 0.634691 0.090319
vt 0.380461 0.708672
vt 0.511188 0.612084
vt 0.385247 0.708672
vt 0.634691 0.006269
vt 0.403609 0.708672
vt 0.238232 0.612084
vt 0.398823 0.708672
vt 0.629385 0.392622
vt 0.403609 0.624622
vt 0.238232 0.528034
vt 0.398823 0.624622
vt 0.629385 0.476672
vt 0.470196 0.624622
vt 0.243537 0.528034
vt 0.474982 0.624622
vt 0.634691 0.476672
vt 0.470196 0.708672
vt 0.243537 0.612084
vt 0.474982 0.708672
vt 0.634691 0.392622
vt 0.006269 0.306790
vt 0.006269 0.214975
vt 0.097584 0.306790
vt 0.097584 0.214975
vt 0.421680 0.515496
vt 0.421680 0.423681
vt 0.512995 0.515496
vt 0.512995 0.423681
vt 0.317828 0.411143
vt 0.317828 0.319328
vt 0.409142 0.411143
vt 0.409142 0.319328
vt 0.962105 0.278062
vt 0.858863 0.917482
vt 0.962105 0.259008
vt 0.899462 0.327825
vt 0.980889 0.278062
vt 0.824281 0.286063
vt 0.840079 0.917482
vt 0.980889 0.259008
vt 0.805226 0.286063
vt 0.918245 0.327825
vt 0.824281 0.256840
vt 0.921506 0.961612
vt 0.840079 0.888258
vt 0.805226 0.256840
vt 0.921506 0.980666
vt 0.918245 0.298602
vt 0.902723 0.961612
vt 0.858863 0.888258
vt 0.902723 0.980666
vt 0.899462 0.298602
vt 0.952827 0.867919
vt 0.918245 0.286063
vt 0.952827 0.886973
vt 0.899462 0.160778
vt 0.934044 0.867919
vt 0.511617 0.792196
vt 0.899462 0.286063
vt 0.934044 0.886973
vt 0.492563 0.792196
vt 0.918245 0.160778
vt 0.511617 0.762973
vt 0.934044 0.782027
vt 0.899462 0.256840
vt 0.492563 0.762973
vt 0.934044 0.762972
vt 0.918245 0.131555
vt 0.952827 0.782027
vt 0.918245 0.256840
vt 0.952827 0.762972
vt 0.899462 0.131555
vt 0.742134 0.496442
vt 0.855602 0.411349
vt 0.742134 0.515496
vt 0.836819 0.119016
vt 0.723351 0.496442
vt 0.745135 0.750434
vt 0.836819 0.411349
vt 0.723351 0.515496
vt 0.726081 0.750434
vt 0.855602 0.119016
vt 0.745135 0.721211
vt 0.660707 0.515496
vt 0.836819 0.382126
vt 0.726081 0.721211
vt 0.660707 0.496442
vt 0.855602 0.089793
vt 0.679491 0.515496
vt 0.855602 0.382126
vt 0.679491 0.496442
vt 0.836819 0.089793
vt 0.429107 0.980666
vt 0.856483 0.653846
vt 0.429107 0.961612
vt 0.836819 0.202540
vt 0.447890 0.980666
vt 0.824281 0.411349
vt 0.837700 0.653846
vt 0.447890 0.961612
vt 0.805226 0.411349
vt 0.855602 0.202540
vt 0.824281 0.382125
vt 0.245116 0.943084
vt 0.837700 0.624623
vt 0.805226 0.382125
vt 0.245116 0.962138
vt 0.855602 0.173316
vt 0.226333 0.943084
vt 0.856483 0.624623
vt 0.226333 0.962138
vt 0.836819 0.173316
vt 0.949567 0.069454
vt 0.886924 0.453111
vt 0.949567 0.088508
vt 0.868140 0.286063
vt 0.930784 0.069454
vt 0.776728 0.750434
vt 0.868140 0.453111
vt 0.930784 0.088508
vt 0.757674 0.750434
vt 0.886924 0.286063
vt 0.776728 0.721211
vt 0.930784 0.278063
vt 0.868140 0.423887
vt 0.757674 0.721211
vt 0.930784 0.259008
vt 0.886924 0.256840
vt 0.949567 0.278063
vt 0.886924 0.423887
vt 0.949567 0.259008
vt 0.868140 0.256840
vt 0.618120 0.980666
vt 0.886924 0.411349
vt 0.618120 0.961612
vt 0.869021 0.653846
vt 0.636903 0.980666
vt 0.824281 0.327825
vt 0.868140 0.411349
vt 0.636903 0.961612
vt 0.805226 0.327825
vt 0.887805 0.653846
vt 0.824281 0.298602
vt 0.763273 0.961612
vt 0.868140 0.382126
vt 0.805226 0.298602
vt 0.763273 0.980666
vt 0.887805 0.624623
vt 0.744490 0.961612
vt 0.886924 0.382126
vt 0.744490 0.980666
vt 0.869021 0.624623
vt 0.965366 0.950158
vt 0.827541 0.917481
vt 0.965366 0.931104
vt 0.899462 0.119016
vt 0.984149 0.950158
vt 0.606394 0.833958
vt 0.808758 0.917481
vt 0.984149 0.931104
vt 0.587340 0.833958
vt 0.918245 0.119016
vt 0.606394 0.804734
vt 0.056374 0.974677
vt 0.808758 0.888258
vt 0.587340 0.804734
vt 0.056374 0.993731
vt 0.918245 0.089793
vt 0.037591 0.974677
vt 0.827541 0.888258
vt 0.037591 0.993731
vt 0.899462 0.089793
vt 0.949567 0.435141
vt 0.918245 0.077255
vt 0.949567 0.454195
vt 0.899462 0.244302
vt 0.930784 0.435141
vt 0.713543 0.750434
vt 0.899462 0.077255
vt 0.930784 0.454195
vt 0.694489 0.750434
vt 0.918245 0.244302
vt 0.713543 0.721211
vt 0.069183 0.962138
vt 0.899462 0.048031
vt 0.694489 0.721211
vt 0.069183 0.943084
vt 0.918245 0.215078
vt 0.087966 0.962138
vt 0.918245 0.048031
vt 0.087966 0.943084
vt 0.899462 0.215078
vt 0.731951 0.930020
vt 0.856483 0.695608
vt 0.731951 0.949074
vt 0.836819 0.369587
vt 0.713168 0.930020
vt 0.543209 0.792196
vt 0.837700 0.695608
vt 0.713168 0.949074
vt 0.524155 0.792196
vt 0.855602 0.369587
vt 0.543209 0.762973
vt 0.618120 0.949074
vt 0.837700 0.666384
vt 0.524155 0.762973
vt 0.618120 0.930020
vt 0.855602 0.340364
vt 0.636903 0.949074
vt 0.856483 0.666384
vt 0.636903 0.930020
vt 0.836819 0.340364
vt 0.962105 0.088508
vt 0.857002 0.599020
vt 0.962105 0.069454
vt 0.838218 0.557258
vt 0.980889 0.088508
vt 0.637986 0.833958
vt 0.838218 0.599020
vt 0.980889 0.069454
vt 0.618932 0.833958
vt 0.857002 0.557258
vt 0.637986 0.804734
vt 0.980889 0.132639
vt 0.838218 0.569796
vt 0.618932 0.804734
vt 0.980889 0.151693
vt 0.857002 0.528034
vt 0.962105 0.132639
vt 0.857002 0.569796
vt 0.962105 0.151693
vt 0.838218 0.528034
vt 0.320297 0.983561
vt 0.886924 0.369587
vt 0.320297 0.964507
vt 0.868140 0.327825
vt 0.339081 0.983561
vt 0.574801 0.833958
vt 0.868140 0.369587
vt 0.339081 0.964507
vt 0.555747 0.833958
vt 0.886924 0.327825
vt 0.574801 0.804734
vt 0.984149 0.836327
vt 0.868140 0.340364
vt 0.555747 0.804734
vt 0.984149 0.855381
vt 0.886924 0.298602
vt 0.965366 0.836327
vt 0.886924 0.340364
vt 0.965366 0.855381
vt 0.868140 0.298602
vt 0.949567 0.340364
vt 0.886924 0.244302
vt 0.949567 0.359418
vt 0.868140 0.494873
vt 0.930784 0.340364
vt 0.448432 0.792196
vt 0.868140 0.244302
vt 0.930784 0.359418
vt 0.429378 0.792196
vt 0.886924 0.494873
vt 0.448432 0.762973
vt 0.930784 0.025323
vt 0.868140 0.215078
vt 0.429378 0.762973
vt 0.930784 0.006269
vt 0.886924 0.465649
vt 0.949567 0.025323
vt 0.886924 0.215078
vt 0.949567 0.006269
vt 0.868140 0.465649
vt 0.351619 0.983561
vt 0.858863 0.875720
vt 0.351619 0.964507
vt 0.840079 0.833958
vt 0.370402 0.983561
vt 0.448432 0.833958
vt 0.840079 0.875720
vt 0.370402 0.964507
vt 0.429378 0.833958
vt 0.858863 0.833958
vt 0.448432 0.804734
vt 0.981769 0.666384
vt 0.840079 0.846496
vt 0.429378 0.804734
vt 0.981769 0.685438
vt 0.858863 0.804734
vt 0.962986 0.666384
vt 0.858863 0.846496
vt 0.962986 0.685438
vt 0.840079 0.804734
vt 0.949567 0.132639
vt 0.886924 0.077255
vt 0.949567 0.151693
vt 0.808757 0.833958
vt 0.930784 0.132639
vt 0.416840 0.792196
vt 0.868140 0.077255
vt 0.930784 0.151693
vt 0.397785 0.792196
vt 0.827541 0.833958
vt 0.416840 0.762972
vt 0.871401 0.949074
vt 0.868140 0.048031
vt 0.397785 0.762972
vt 0.871401 0.930020
vt 0.827541 0.804734
vt 0.890184 0.949074
vt 0.886924 0.048031
vt 0.890184 0.930020
vt 0.808757 0.804734
vt 0.855602 0.058200
vt 0.855602 0.244302
vt 0.855602 0.077254
vt 0.836819 0.286063
vt 0.836819 0.058200
vt 0.480024 0.792196
vt 0.836819 0.244302
vt 0.836819 0.077254
vt 0.460970 0.792196
vt 0.855602 0.286063
vt 0.480024 0.762972
vt 0.320297 0.920377
vt 0.836819 0.215078
vt 0.460970 0.762972
vt 0.320297 0.901322
vt 0.855602 0.256840
vt 0.339081 0.920377
vt 0.855602 0.215078
vt 0.339081 0.901322
vt 0.836819 0.256840
vt 0.962105 0.056916
vt 0.855602 0.453111
vt 0.962105 0.037861
vt 0.836819 0.494873
vt 0.980889 0.056916
vt 0.825680 0.557258
vt 0.836819 0.453111
vt 0.980889 0.037861
vt 0.806626 0.557258
vt 0.855602 0.494873
vt 0.825680 0.528034
vt 0.980889 0.164231
vt 0.836819 0.423887
vt 0.806626 0.528034
vt 0.980889 0.183285
vt 0.855602 0.465649
vt 0.962105 0.164231
vt 0.855602 0.423887
vt 0.962105 0.183285
vt 0.836819 0.465649
vt 0.965366 0.918566
vt 0.887805 0.695608
vt 0.965366 0.899512
vt 0.555477 0.917481
vt 0.984149 0.918566
vt 0.416839 0.833958
vt 0.869021 0.695608
vt 0.984149 0.899512
vt 0.397785 0.833958
vt 0.574260 0.917481
vt 0.416839 0.804734
vt 0.213794 0.974676
vt 0.869021 0.666384
vt 0.397785 0.804734
vt 0.213794 0.993731
vt 0.574260 0.888258
vt 0.195011 0.974676
vt 0.887805 0.666384
vt 0.195011 0.993731
vt 0.555477 0.888258
vt 0.950448 0.666384
vt 0.025052 0.888784
vt 0.950448 0.685438
vt 0.681846 0.917481
vt 0.931665 0.666384
vt 0.574802 0.792196
vt 0.006269 0.888784
vt 0.931665 0.685438
vt 0.555747 0.792196
vt 0.700630 0.917481
vt 0.574802 0.762972
vt 0.132368 0.962138
vt 0.006269 0.859561
vt 0.555747 0.762972
vt 0.132368 0.943084
vt 0.700630 0.888258
vt 0.151151 0.962138
vt 0.025052 0.859561
vt 0.151151 0.943084
vt 0.681846 0.888258
vt 0.952827 0.931104
vt 0.888323 0.599020
vt 0.952827 0.950158
vt 0.586798 0.917481
vt 0.934044 0.931104
vt 0.416839 0.750434
vt 0.869540 0.599020
vt 0.934044 0.950158
vt 0.397785 0.750434
vt 0.605581 0.917481
vt 0.416839 0.721211
vt 0.320297 0.951969
vt 0.869540 0.569796
vt 0.397785 0.721211
vt 0.320297 0.932915
vt 0.605581 0.888258
vt 0.339081 0.951969
vt 0.888323 0.569796
vt 0.339081 0.932915
vt 0.586798 0.888258
vt 0.962105 0.317656
vt 0.888323 0.557258
vt 0.962105 0.298602
vt 0.713168 0.917481
vt 0.980888 0.317656
vt 0.824280 0.453111
vt 0.869540 0.557258
vt 0.980888 0.298602
vt 0.805226 0.453111
vt 0.731951 0.917481
vt 0.824280 0.423887
vt 0.980888 0.435141
vt 0.869540 0.528034
vt 0.805226 0.423887
vt 0.980888 0.454195
vt 0.731951 0.888258
vt 0.962105 0.435141
vt 0.888323 0.528034
vt 0.962105 0.454195
vt 0.713168 0.888258
vt 0.397785 0.980666
vt 0.855602 0.035493
vt 0.397785 0.961612
vt 0.358252 0.847022
vt 0.416569 0.980666
vt 0.825162 0.653846
vt 0.836819 0.035493
vt 0.416569 0.961612
vt 0.806107 0.653846
vt 0.377036 0.847022
vt 0.825162 0.624622
vt 0.182473 0.943084
vt 0.836819 0.006269
vt 0.806107 0.624622
vt 0.182473 0.962138
vt 0.377036 0.817799
vt 0.163689 0.943084
vt 0.855602 0.006269
vt 0.163689 0.962138
vt 0.358252 0.817799
vt 0.668225 0.930020
vt 0.855602 0.160778
vt 0.668225 0.949074
vt 0.836819 0.327825
vt 0.649441 0.930020
vt 0.448432 0.750434
vt 0.836819 0.160778
vt 0.649441 0.949074
vt 0.429378 0.750434
vt 0.855602 0.327825
vt 0.448432 0.721211
vt 0.754672 0.515496
vt 0.836819 0.131554
vt 0.429378 0.721211
vt 0.754672 0.496442
vt 0.855602 0.298602
vt 0.773456 0.515496
vt 0.855602 0.131554
vt 0.773456 0.496442
vt 0.836819 0.298602
vt 0.921506 0.898427
vt 0.511346 0.875720
vt 0.921506 0.917481
vt 0.852451 0.750434
vt 0.902723 0.898427
vt 0.576911 0.750434
vt 0.492563 0.875720
vt 0.902723 0.917481
vt 0.557857 0.750434
vt 0.871234 0.750434
vt 0.576911 0.721211
vt 0.930784 0.183285
vt 0.492563 0.846496
vt 0.557857 0.721211
vt 0.930784 0.164231
vt 0.871234 0.721211
vt 0.949567 0.183285
vt 0.511346 0.846496
vt 0.949567 0.164231
vt 0.852451 0.721211
vt 0.775811 0.980666
vt 0.574531 0.875720
vt 0.775811 0.961612
vt 0.840079 0.792196
vt 0.794594 0.980666
vt 0.824280 0.494873
vt 0.555747 0.875720
vt 0.794594 0.961612
vt 0.805226 0.494873
vt 0.858863 0.792196
vt 0.824280 0.465649
vt 0.605581 0.961612
vt 0.555747 0.846496
vt 0.805226 0.465649
vt 0.605581 0.980666
vt 0.858863 0.762972
vt 0.586798 0.961612
vt 0.574531 0.846496
vt 0.586798 0.980666
vt 0.840079 0.762972
vt 0.963504 0.610273
vt 0.447890 0.917481
vt 0.963504 0.591219
vt 0.163689 0.888784
vt 0.982288 0.610273
vt 0.088508 0.847022
vt 0.429107 0.917481
vt 0.982288 0.591219
vt 0.069454 0.847022
vt 0.182473 0.888784
vt 0.088508 0.817799
vt 0.984149 0.867919
vt 0.429107 0.888258
vt 0.069454 0.817799
vt 0.984149 0.886973
vt 0.182473 0.859561
vt 0.965366 0.867919
vt 0.447890 0.888258
vt 0.965366 0.886973
vt 0.163689 0.859561
vt 0.949567 0.403548
vt 0.542667 0.917481
vt 0.949567 0.422603
vt 0.320297 0.888784
vt 0.930784 0.403548
vt 0.637986 0.792196
vt 0.523884 0.917481
vt 0.930784 0.422603
vt 0.618932 0.792196
vt 0.339081 0.888784
vt 0.637986 0.762972
vt 0.775811 0.949074
vt 0.523884 0.888258
vt 0.618932 0.762972
vt 0.775811 0.930020
vt 0.339081 0.859561
vt 0.794594 0.949074
vt 0.542667 0.888258
vt 0.794594 0.930020
vt 0.320297 0.859561
vt 0.542668 0.930020
vt 0.795678 0.875720
vt 0.542668 0.949074
vt 0.808758 0.875720
vt 0.523884 0.930020
vt 0.669579 0.792196
vt 0.776894 0.875720
vt 0.523884 0.949074
vt 0.650525 0.792196
vt 0.827541 0.875720
vt 0.669579 0.762972
vt 0.460429 0.949074
vt 0.776894 0.846496
vt 0.650525 0.762972
vt 0.460429 0.930020
vt 0.827541 0.846496
vt 0.479212 0.949074
vt 0.795678 0.846496
vt 0.479212 0.930020
vt 0.808758 0.846496
vt 0.871401 0.980666
vt 0.637716 0.875720
vt 0.871401 0.961612
vt 0.587069 0.875720
vt 0.890184 0.980666
vt 0.764356 0.833958
vt 0.618932 0.875720
vt 0.890184 0.961612
vt 0.745302 0.833958
vt 0.605852 0.875720
vt 0.764356 0.804734
vt 0.980888 0.340364
vt 0.618932 0.846496
vt 0.745302 0.804734
vt 0.980888 0.359418
vt 0.605852 0.846496
vt 0.962105 0.340364
vt 0.637716 0.846496
vt 0.962105 0.359418
vt 0.587069 0.846496
vt 0.132368 0.993731
vt 0.921506 0.792196
vt 0.132368 0.974677
vt 0.902722 0.875720
vt 0.151151 0.993731
vt 0.795948 0.833958
vt 0.902722 0.792196
vt 0.151151 0.974677
vt 0.776894 0.833958
vt 0.921506 0.875720
vt 0.795948 0.804734
vt 0.087696 0.974677
vt 0.902722 0.762972
vt 0.776894 0.804734
vt 0.087696 0.993731
vt 0.921506 0.846496
vt 0.068912 0.974677
vt 0.921506 0.762972
vt 0.068912 0.993731
vt 0.902722 0.846496
vt 0.950448 0.624622
vt 0.919645 0.557258
vt 0.950448 0.643677
vt 0.900861 0.599020
vt 0.931664 0.624622
vt 0.701171 0.792196
vt 0.900861 0.557258
vt 0.931664 0.643677
vt 0.682117 0.792196
vt 0.919645 0.599020
vt 0.701171 0.762972
vt 0.934044 0.855381
vt 0.900861 0.528034
vt 0.682117 0.762972
vt 0.934044 0.836327
vt 0.919645 0.569796
vt 0.952827 0.855381
vt 0.919645 0.528034
vt 0.952827 0.836327
vt 0.900861 0.569796
vt 0.952827 0.804734
vt 0.918245 0.411349
vt 0.952827 0.823788
vt 0.902723 0.833958
vt 0.934044 0.804734
vt 0.732764 0.792196
vt 0.899462 0.411349
vt 0.934044 0.823788
vt 0.713709 0.792196
vt 0.921506 0.833958
vt 0.732764 0.762972
vt 0.351619 0.951969
vt 0.899462 0.382126
vt 0.713709 0.762972
vt 0.351619 0.932915
vt 0.921506 0.804734
vt 0.370402 0.951969
vt 0.918245 0.382126
vt 0.370402 0.932915
vt 0.902723 0.804734
vt 0.962105 0.214878
vt 0.919126 0.653846
vt 0.962105 0.195824
vt 0.899462 0.453111
vt 0.980889 0.214878
vt 0.480024 0.833958
vt 0.900343 0.653846
vt 0.980889 0.195824
vt 0.460970 0.833958
vt 0.918245 0.453111
vt 0.480024 0.804734
vt 0.980889 0.227416
vt 0.900343 0.624622
vt 0.460970 0.804734
vt 0.980889 0.246470
vt 0.918245 0.423887
vt 0.962105 0.227416
vt 0.919126 0.624622
vt 0.962105 0.246470
vt 0.899462 0.423887
vt 0.946416 0.740265
vt 0.700630 0.875720
vt 0.946416 0.721211
vt 0.868140 0.035493
vt 0.965199 0.740265
vt 0.543209 0.833958
vt 0.681846 0.875720
vt 0.965199 0.721211
vt 0.524155 0.833958
vt 0.886924 0.035493
vt 0.543209 0.804734
vt 0.307759 0.943084
vt 0.681846 0.846496
vt 0.524155 0.804734
vt 0.307759 0.962138
vt 0.886924 0.006269
vt 0.288976 0.943084
vt 0.700630 0.846496
vt 0.288976 0.962138
vt 0.868140 0.006269
vt 0.605582 0.930020
vt 0.416569 0.875720
vt 0.605582 0.949074
vt 0.429107 0.875720
vt 0.586798 0.930020
vt 0.764356 0.792196
vt 0.397785 0.875720
vt 0.586798 0.949074
vt 0.745302 0.792196
vt 0.447890 0.875720
vt 0.764356 0.762972
vt 0.915094 0.740265
vt 0.397785 0.846496
vt 0.745302 0.762972
vt 0.915094 0.721211
vt 0.447890 0.846496
vt 0.933877 0.740265
vt 0.416569 0.846496
vt 0.933877 0.721211
vt 0.429107 0.846496
vt 0.949567 0.037862
vt 0.370402 0.888784
vt 0.949567 0.056916
vt 0.871401 0.792196
vt 0.930784 0.037862
vt 0.606394 0.792196
vt 0.351619 0.888784
vt 0.930784 0.056916
vt 0.587340 0.792196
vt 0.890184 0.792196
vt 0.606394 0.762972
vt 0.930784 0.317656
vt 0.351619 0.859561
vt 0.587340 0.762972
vt 0.930784 0.298602
vt 0.890184 0.762972
vt 0.949567 0.317656
vt 0.370402 0.859561
vt 0.949567 0.298602
vt 0.871401 0.762972
vt 0.713168 0.980666
vt 0.890184 0.875720
vt 0.713168 0.961612
vt 0.883772 0.750434
vt 0.731951 0.980666
vt 0.511617 0.833958
vt 0.871401 0.875720
vt 0.731951 0.961612
vt 0.492563 0.833958
vt 0.902556 0.750434
vt 0.511617 0.804734
vt 0.699546 0.961612
vt 0.871401 0.846496
vt 0.492563 0.804734
vt 0.699546 0.980666
vt 0.902556 0.721211
vt 0.680763 0.961612
vt 0.890184 0.846496
vt 0.680763 0.980666
vt 0.883772 0.721211
vt 0.963504 0.547088
vt 0.479753 0.875720
vt 0.963504 0.528034
vt 0.524155 0.875720
vt 0.982288 0.547088
vt 0.827541 0.792196
vt 0.460970 0.875720
vt 0.982288 0.528034
vt 0.808487 0.792196
vt 0.542938 0.875720
vt 0.827541 0.762973
vt 0.982288 0.559626
vt 0.460970 0.846496
vt 0.808487 0.762973
vt 0.982288 0.578681
vt 0.542938 0.846496
vt 0.963504 0.559626
vt 0.479753 0.846496
vt 0.963504 0.578681
vt 0.524155 0.846496
vt 0.949567 0.195824
vt 0.669308 0.875720
vt 0.949567 0.214878
vt 0.713709 0.875720
vt 0.930784 0.195824
vt 0.543209 0.750434
vt 0.650525 0.875720
vt 0.930784 0.214878
vt 0.524155 0.750434
vt 0.732493 0.875720
vt 0.543209 0.721211
vt 0.808758 0.949074
vt 0.650525 0.846496
vt 0.524155 0.721211
vt 0.808758 0.930020
vt 0.732493 0.846496
vt 0.827541 0.949074
vt 0.669308 0.846496
vt 0.827541 0.930020
vt 0.713709 0.846496
vt 0.700630 0.930020
vt 0.313220 0.847022
vt 0.700630 0.949074
vt 0.263115 0.847022
vt 0.681846 0.930020
vt 0.650358 0.750434
vt 0.294436 0.847022
vt 0.681846 0.949074
vt 0.631304 0.750434
vt 0.281898 0.847022
vt 0.650358 0.721211
vt 0.492563 0.949074
vt 0.294436 0.817799
vt 0.631304 0.721211
vt 0.492563 0.930020
vt 0.281898 0.817799
vt 0.511346 0.949074
vt 0.313220 0.817799
vt 0.511346 0.930020
vt 0.263115 0.817799
vt 0.962105 0.025323
vt 0.151151 0.847022
vt 0.962105 0.006269
vt 0.101046 0.847022
vt 0.980889 0.025323
vt 0.825680 0.599020
vt 0.132368 0.847022
vt 0.980889 0.006269
vt 0.806626 0.599020
vt 0.119830 0.847022
vt 0.825680 0.569796
vt 0.952827 0.962697
vt 0.132368 0.817799
vt 0.806626 0.569796
vt 0.952827 0.981751
vt 0.119830 0.817799
vt 0.934044 0.962697
vt 0.151151 0.817799
vt 0.934044 0.981751
vt 0.101046 0.817799
vt 0.101046 0.993731
vt 0.763273 0.917481
vt 0.101046 0.974677
vt 0.132368 0.888784
vt 0.119830 0.993731
vt 0.825161 0.695608
vt 0.744489 0.917481
vt 0.119830 0.974677
vt 0.806107 0.695608
vt 0.151151 0.888784
vt 0.825161 0.666384
vt 0.025052 0.974677
vt 0.744489 0.888258
vt 0.806107 0.666384
vt 0.025052 0.993731
vt 0.151151 0.859561
vt 0.006269 0.974677
vt 0.763273 0.888258
vt 0.006269 0.993731
vt 0.132368 0.859561
vt 0.950966 0.559627
vt 0.669308 0.917481
vt 0.950966 0.578681
vt 0.069454 0.888784
vt 0.932183 0.559627
vt 0.480024 0.750434
vt 0.650525 0.917481
vt 0.932183 0.578681
vt 0.460970 0.750434
vt 0.088237 0.888784
vt 0.480024 0.721211
vt 0.101046 0.962138
vt 0.650525 0.888258
vt 0.460970 0.721211
vt 0.101046 0.943084
vt 0.088237 0.859561
vt 0.119830 0.962138
vt 0.669308 0.888258
vt 0.119830 0.943084
vt 0.069454 0.859561
vt 0.952827 0.899512
vt 0.795407 0.917481
vt 0.952827 0.918566
vt 0.101046 0.888784
vt 0.934044 0.899512
vt 0.681951 0.750434
vt 0.776624 0.917481
vt 0.934044 0.918566
vt 0.662896 0.750434
vt 0.119829 0.888784
vt 0.681951 0.721211
vt 0.932183 0.547088
vt 0.776624 0.888258
vt 0.662896 0.721211
vt 0.932183 0.528034
vt 0.119829 0.859561
vt 0.950966 0.547088
vt 0.795407 0.888258
vt 0.950966 0.528034
vt 0.101046 0.859561
vt 0.962105 0.422603
vt 0.636903 0.917481
vt 0.962105 0.403548
vt 0.037862 0.888784
vt 0.980888 0.422603
vt 0.824281 0.202540
vt 0.618120 0.917481
vt 0.980888 0.403548
vt 0.805226 0.202540
vt 0.056645 0.888784
vt 0.824281 0.173316
vt 0.981769 0.624622
vt 0.618120 0.888258
vt 0.805226 0.173316
vt 0.981769 0.643677
vt 0.056645 0.859561
vt 0.962986 0.624622
vt 0.636903 0.888258
vt 0.962986 0.643677
vt 0.037862 0.859561
vt 0.460429 0.980666
vt 0.345714 0.847022
vt 0.460429 0.961612
vt 0.231793 0.847022
vt 0.479212 0.980666
vt 0.824281 0.369587
vt 0.326931 0.847022
vt 0.479212 0.961612
vt 0.805226 0.369587
vt 0.250576 0.847022
vt 0.824281 0.340364
vt 0.276437 0.943084
vt 0.326931 0.817799
vt 0.805226 0.340364
vt 0.276437 0.962138
vt 0.250576 0.817799
vt 0.257654 0.943084
vt 0.345714 0.817799
vt 0.257654 0.962138
vt 0.231793 0.817799
vt 0.447890 0.930020
vt 0.184605 0.847022
vt 0.447890 0.949074
vt 0.200472 0.847022
vt 0.429107 0.930020
vt 0.511617 0.750434
vt 0.165822 0.847022
vt 0.429107 0.949074
vt 0.492563 0.750434
vt 0.219255 0.847022
vt 0.511617 0.721211
vt 0.397785 0.949074
vt 0.165822 0.817799
vt 0.492563 0.721211
vt 0.397785 0.930020
vt 0.219255 0.817799
vt 0.416569 0.949074
vt 0.184605 0.817799
vt 0.416569 0.930020
vt 0.200472 0.817799
vt 0.763273 0.930020
vt 0.886924 0.119016
vt 0.763273 0.949074
vt 0.868140 0.160778
vt 0.744490 0.930020
vt 0.614153 0.750434
vt 0.868140 0.119016
vt 0.744490 0.949074
vt 0.595099 0.750434
vt 0.886924 0.160778
vt 0.614153 0.721211
vt 0.930784 0.246470
vt 0.868140 0.089793
vt 0.595099 0.721211
vt 0.930784 0.227416
vt 0.886924 0.131555
vt 0.949567 0.246470
vt 0.886924 0.089793
vt 0.949567 0.227416
vt 0.868140 0.131555
vt 0.555206 0.980666
vt 0.764085 0.875720
vt 0.555206 0.961612
vt 0.868140 0.202540
vt 0.573989 0.980666
vt 0.824281 0.244302
vt 0.745302 0.875720
vt 0.573989 0.961612
vt 0.805226 0.244302
vt 0.886924 0.202540
vt 0.824281 0.215078
vt 0.827541 0.961612
vt 0.745302 0.846496
vt 0.805226 0.215078
vt 0.827541 0.980666
vt 0.886924 0.173316
vt 0.808758 0.961612
vt 0.764085 0.846496
vt 0.808758 0.980666
vt 0.868140 0.173316
vt 0.965366 0.782027
vt 0.025052 0.930546
vt 0.965366 0.762972
vt 0.899462 0.202540
vt 0.984149 0.782027
vt 0.025323 0.847022
vt 0.006269 0.930546
vt 0.984149 0.762972
vt 0.006269 0.847022
vt 0.918245 0.202540
vt 0.025323 0.817799
vt 0.984149 0.804734
vt 0.006269 0.901322
vt 0.006269 0.817799
vt 0.984149 0.823788
vt 0.918245 0.173316
vt 0.965366 0.804734
vt 0.025052 0.901322
vt 0.965366 0.823788
vt 0.899462 0.173316
vt 0.949567 0.101046
vt 0.056645 0.930546
vt 0.949567 0.120100
vt 0.899462 0.369587
vt 0.930784 0.101046
vt 0.824281 0.119016
vt 0.037862 0.930546
vt 0.930784 0.120100
vt 0.805226 0.119016
vt 0.918245 0.369587
vt 0.824281 0.089793
vt 0.902723 0.949074
vt 0.037862 0.901322
vt 0.805226 0.089793
vt 0.902723 0.930020
vt 0.918245 0.340364
vt 0.921506 0.949074
vt 0.056645 0.901322
vt 0.921506 0.930020
vt 0.899462 0.340364
vt 0.370402 0.901322
vt 0.479753 0.917481
vt 0.370402 0.920377
vt 0.492563 0.917481
vt 0.351619 0.901322
vt 0.808320 0.750434
vt 0.460970 0.917481
vt 0.351619 0.920377
vt 0.789266 0.750434
vt 0.511346 0.917481
vt 0.808320 0.721210
vt 0.555477 0.949074
vt 0.460970 0.888258
vt 0.789266 0.721210
vt 0.555477 0.930020
vt 0.511346 0.888258
vt 0.574260 0.949074
vt 0.479753 0.888258
vt 0.574260 0.930020
vt 0.492563 0.888258
vt 0.840079 0.980666
vt 0.213794 0.888784
vt 0.840079 0.961612
vt 0.257654 0.888784
vt 0.858863 0.980666
vt 0.056916 0.847022
vt 0.195011 0.888784
vt 0.858863 0.961612
vt 0.037861 0.847022
vt 0.276437 0.888784
vt 0.056916 0.817799
vt 0.980889 0.101046
vt 0.195011 0.859560
vt 0.037861 0.817799
vt 0.980889 0.120100
vt 0.276437 0.859560
vt 0.962105 0.101046
vt 0.213794 0.859560
vt 0.962105 0.120100
vt 0.257654 0.859560
vt 0.226333 0.993731
vt 0.182473 0.930546
vt 0.226333 0.974677
vt 0.288976 0.930546
vt 0.245116 0.993731
vt 0.839913 0.750434
vt 0.163689 0.930546
vt 0.245116 0.974677
vt 0.820859 0.750434
vt 0.307759 0.930546
vt 0.839913 0.721210
vt 0.182473 0.974676
vt 0.163689 0.901322
vt 0.820859 0.721210
vt 0.182473 0.993731
vt 0.307759 0.901322
vt 0.163689 0.974676
vt 0.182473 0.901322
vt 0.163689 0.993731
vt 0.288976 0.901322
vt 0.950966 0.591219
vt 0.119830 0.930546
vt 0.950966 0.610273
vt 0.195011 0.930546
vt 0.932183 0.591219
vt 0.824281 0.035492
vt 0.101046 0.930546
vt 0.932183 0.610273
vt 0.805226 0.035492
vt 0.213794 0.930546
vt 0.824281 0.006269
vt 0.006269 0.962138
vt 0.101046 0.901322
vt 0.805226 0.006269
vt 0.006269 0.943084
vt 0.213794 0.901322
vt 0.025052 0.962138
vt 0.119830 0.901322
vt 0.025052 0.943084
vt 0.195011 0.901322
vt 0.056374 0.943084
vt 0.088237 0.930546
vt 0.056374 0.962138
vt 0.226333 0.930546
vt 0.037591 0.943084
vt 0.795949 0.792196
vt 0.069454 0.930546
vt 0.037591 0.962138
vt 0.776894 0.792196
vt 0.245116 0.930546
vt 0.795949 0.762972
vt 0.930784 0.485787
vt 0.069454 0.901322
vt 0.776894 0.762972
vt 0.930784 0.466733
vt 0.245116 0.901322
vt 0.949567 0.485787
vt 0.088237 0.901322
vt 0.949567 0.466733
vt 0.226333 0.901322
vt 0.962105 0.391010
vt 0.151151 0.930546
vt 0.962105 0.371956
vt 0.257654 0.930546
vt 0.980888 0.391010
vt 0.701171 0.833958
vt 0.132368 0.930546
vt 0.980888 0.371956
vt 0.682117 0.833958
vt 0.276437 0.930546
vt 0.701171 0.804734
vt 0.980888 0.466733
vt 0.132368 0.901322
vt 0.682117 0.804734
vt 0.980888 0.485787
vt 0.276437 0.901322
vt 0.962105 0.466733
vt 0.151151 0.901322
vt 0.962105 0.485787
vt 0.257654 0.901322
vt 0.492563 0.980666
vt 0.416569 0.917481
vt 0.492563 0.961612
vt 0.288976 0.888784
vt 0.511346 0.980666
vt 0.732764 0.833958
vt 0.397785 0.917481
vt 0.511346 0.961612
vt 0.713709 0.833958
vt 0.307759 0.888784
vt 0.732764 0.804734
vt 0.213794 0.943084
vt 0.397785 0.888258
vt 0.713709 0.804734
vt 0.213794 0.962138
vt 0.307759 0.859560
vt 0.195011 0.943084
vt 0.416569 0.888258
vt 0.195011 0.962138
vt 0.288976 0.859560
vt 0.648169 0.496442
vt 0.245116 0.888784
vt 0.648169 0.515496
vt 0.871401 0.833958
vt 0.629386 0.496442
vt 0.824281 0.077254
vt 0.226333 0.888784
vt 0.629386 0.515496
vt 0.805226 0.077254
vt 0.890184 0.833958
vt 0.824281 0.048031
vt 0.692029 0.515496
vt 0.226333 0.859560
vt 0.805226 0.048031
vt 0.692029 0.496442
vt 0.890184 0.804734
vt 0.710812 0.515496
vt 0.245116 0.859560
vt 0.710812 0.496442
vt 0.871401 0.804734
vt 0.858863 0.930020
vt 0.919126 0.695608
vt 0.858863 0.949074
vt 0.899462 0.035492
vt 0.840079 0.930020
vt 0.824281 0.160778
vt 0.900343 0.695608
vt 0.840079 0.949074
vt 0.805226 0.160778
vt 0.918245 0.035492
vt 0.824281 0.131554
vt 0.930784 0.391010
vt 0.900343 0.666384
vt 0.805226 0.131554
vt 0.930784 0.371956
vt 0.918245 0.006269
vt 0.949567 0.391010
vt 0.919126 0.666384
vt 0.949567 0.371956
vt 0.899462 0.006269
vt 0.649441 0.980666
vt 0.918245 0.494873
vt 0.649441 0.961612
vt 0.871401 0.917481
vt 0.668225 0.980666
vt 0.669579 0.833958
vt 0.899462 0.494873
vt 0.668225 0.961612
vt 0.650524 0.833958
vt 0.890184 0.917481
vt 0.669579 0.804734
vt 0.542668 0.961612
vt 0.899462 0.465649
vt 0.650524 0.804734
vt 0.542668 0.980666
vt 0.890184 0.888258
vt 0.523884 0.961612
vt 0.918245 0.465649
vt 0.523884 0.980666
vt 0.871401 0.888258
s 0
usemtl Material.001
f 1/1/1 2/2/1 4/4/1 3/3/1
f 5/5/2 6/7/2 8/11/2 7/9/2
f 9/13/3 10/15/3 12/19/3 11/17/3
f 11/18/4 5/6/4 7/10/4 9/14/4
f 6/8/5 12/20/5 10/16/5 8/12/5
f 13/21/2 14/23/2 16/27/2 15/25/2
f 17/29/3 18/31/3 20/35/3 19/33/3
f 19/34/4 13/22/4 15/26/4 17/30/4
f 14/24/5 20/36/5 18/32/5 16/28/5
f 21/37/2 22/39/2 24/43/2 23/41/2
f 25/45/3 26/47/3 28/51/3 27/49/3
f 27/50/4 21/38/4 23/42/4 25/46/4
f 22/40/5 28/52/5 26/48/5 24/44/5
f 29/53/2 30/55/2 32/59/2 31/57/2
f 33/61/3 34/63/3 36/67/3 35/65/3
f 35/66/4 29/54/4 31/58/4 33/62/4
f 30/56/5 36/68/5 34/64/5 32/60/5
f 37/69/1 38/70/1 40/72/1 39/71/1
f 41/73/1 42/74/1 44/76/1 43/75/1
f 45/77/1 46/78/1 48/80/1 47/79/1
f 49/81/1 50/82/1 52/84/1 51/83/1
f 53/85/1 54/86/1 56/88/1 55/87/1
f 57/89/2 58/91/2 60/95/2 59/93/2
f 61/97/3 62/99/3 64/103/3 63/101/3
f 63/102/4 57/90/4 59/94/4 61/98/4
f 58/92/5 64/104/5 62/100/5 60/96/5
f 65/105/2 66/107/2 68/111/2 67/109/2
f 69/113/3 70/115/3 72/119/3 71/117/3
f 71/118/4 65/106/4 67/110/4 69/114/4
f 66/108/5 72/120/5 70/116/5 68/112/5
f 73/121/2 74/123/2 76/127/2 75/125/2
f 77/129/3 78/131/3 80/135/3 79/133/3
f 79/134/4 73/122/4 75/126/4 77/130/4
f 74/124/5 80/136/5 78/132/5 76/128/5
f 81/137/2 82/139/2 84/143/2 83/141/2
f 85/145/3 86/147/3 88/151/3 87/149/3
f 87/150/4 81/138/4 83/142/4 85/146/4
f 82/140/5 88/152/5 86/148/5 84/144/5
f 89/153/1 90/154/1 92/156/1 91/155/1
f 93/157/1 94/158/1 96/160/1 95/159/1
f 97/161/1 98/162/1 100/164/1 99/163/1
f 101/165/2 102/167/2 104/171/2 103/169/2
f 105/173/3 106/175/3 108/179/3 107/177/3
f 107/178/4 101/166/4 103/170/4 105/174/4
f 102/168/5 108/180/5 106/176/5 104/172/5
f 109/181/2 110/183/2 112/187/2 111/185/2
f 113/189/3 114/191/3 116/195/3 115/193/3
f 115/194/4 109/182/4 111/186/4 113/190/4
f 110/184/5 116/196/5 114/192/5 112/188/5
f 117/197/2 118/199/2 120/203/2 119/201/2
f 121/205/3 122/207/3 124/211/3 123/209/3
f 123/210/4 117/198/4 119/202/4 121/206/4
f 118/200/5 124/212/5 122/208/5 120/204/5
f 125/213/2 126/215/2 128/219/2 127/217/2
f 129/221/3 130/223/3 132/227/3 131/225/3
f 131/226/4 125/214/4 127/218/4 129/222/4
f 126/216/5 132/228/5 130/224/5 128/220/5
f 133/229/1 134/230/1 136/232/1 135/231/1
f 137/233/1 138/234/1 140/236/1 139/235/1
f 141/237/1 142/238/1 144/240/1 143/239/1
f 145/241/2 146/243/2 148/247/2 147/245/2
f 149/249/3 150/251/3 152/255/3 151/253/3
f 151/254/4 145/242/4 147/246/4 149/250/4
f 146/244/5 152/256/5 150/252/5 148/248/5
f 153/257/2 154/259/2 156/263/2 155/261/2
f 157/265/3 158/267/3 160/271/3 159/269/3
f 159/270/4 153/258/4 155/262/4 157/266/4
f 154/260/5 160/272/5 158/268/5 156/264/5
f 161/273/2 162/275/2 164/279/2 163/277/2
f 165/281/3 166/283/3 168/287/3 167/285/3
f 167/286/4 161/274/4 163/278/4 165/282/4
f 162/276/5 168/288/5 166/284/5 164/280/5
f 169/289/2 170/291/2 172/295/2 171/293/2
f 173/297/3 174/299/3 176/303/3 175/301/3
f 175/302/4 169/290/4 171/294/4 173/298/4
f 170/292/5 176/304/5 174/300/5 172/296/5
f 177/305/1 178/306/1 180/308/1 179/307/1
f 181/309/1 182/310/1 184/312/1 183/311/1
f 185/313/1 186/314/1 188/316/1 187/315/1
f 189/317/2 190/319/2 192/323/2 191/321/2
f 193/325/3 194/327/3 196/331/3 195/329/3
f 195/330/4 189/318/4 191/322/4 193/326/4
f 190/320/5 196/332/5 194/328/5 192/324/5
f 197/333/2 198/335/2 200/339/2 199/337/2
f 201/341/3 202/343/3 204/347/3 203/345/3
f 203/346/4 197/334/4 199/338/4 201/342/4
f 198/336/5 204/348/5 202/344/5 200/340/5
f 205/349/2 206/351/2 208/355/2 207/353/2
f 209/357/3 210/359/3 212/363/3 211/361/3
f 211/362/4 205/350/4 207/354/4 209/358/4
f 206/352/5 212/364/5 210/360/5 208/356/5
f 213/365/2 214/367/2 216/371/2 215/369/2
f 217/373/3 218/375/3 220/379/3 219/377/3
f 219/378/4 213/366/4 215/370/4 217/374/4
f 214/368/5 220/380/5 218/376/5 216/372/5
f 221/381/1 222/382/1 224/384/1 223/383/1
f 225/385/1 226/386/1 228/388/1 227/387/1
f 229/389/2 230/391/2 232/395/2 231/393/2
f 233/397/3 234/399/3 236/403/3 235/401/3
f 235/402/4 229/390/4 231/394/4 233/398/4
f 230/392/5 236/404/5 234/400/5 232/396/5
f 237/405/1 238/406/1 240/408/1 239/407/1
f 241/409/2 242/411/2 244/415/2 243/413/2
f 245/417/3 246/419/3 248/423/3 247/421/3
f 247/422/4 241/410/4 243/414/4 245/418/4
f 242/412/5 248/424/5 246/420/5 244/416/5
f 249/425/1 250/426/1 252/428/1 251/427/1
f 253/429/1 254/430/1 256/432/1 255/431/1
f 257/433/1 258/434/1 260/436/1 259/435/1
f 261/437/1 262/438/1 264/440/1 263/439/1
f 265/441/1 266/442/1 268/444/1 267/443/1
f 269/445/1 270/446/1 272/448/1 271/447/1
f 273/449/2 274/451/2 276/455/2 275/453/2
f 277/457/3 278/459/3 280/463/3 279/461/3
f 279/462/4 273/450/4 275/454/4 277/458/4
f 274/452/5 280/464/5 278/460/5 276/456/5
f 281/465/1 282/466/1 284/468/1 283/467/1
f 285/469/2 286/471/2 288/475/2 287/473/2
f 289/477/3 290/479/3 292/483/3 291/481/3
f 291/482/4 285/470/4 287/474/4 289/478/4
f 286/472/5 292/484/5 290/480/5 288/476/5
f 293/485/2 294/487/2 296/491/2 295/489/2
f 297/493/3 298/495/3 300/499/3 299/497/3
f 299/498/4 293/486/4 295/490/4 297/494/4
f 294/488/5 300/500/5 298/496/5 296/492/5
f 301/501/2 302/503/2 304/507/2 303/505/2
f 305/509/3 306/511/3 308/515/3 307/513/3
f 307/514/4 301/502/4 303/506/4 305/510/4
f 302/504/5 308/516/5 306/512/5 304/508/5
f 309/517/2 310/519/2 312/523/2 311/521/2
f 313/525/3 314/527/3 316/531/3 315/529/3
f 315/530/4 309/518/4 311/522/4 313/526/4
f 310/520/5 316/532/5 314/528/5 312/524/5
f 317/533/2 318/535/2 320/539/2 319/537/2
f 321/541/3 322/543/3 324/547/3 323/545/3
f 323/546/4 317/534/4 319/538/4 321/542/4
f 318/536/5 324/548/5 322/544/5 320/540/5
f 325/549/1 326/550/1 328/552/1 327/551/1
f 329/553/1 330/554/1 332/556/1 331/555/1
f 333/557/2 334/559/2 336/563/2 335/561/2
f 337/565/3 338/567/3 340/571/3 339/569/3
f 339/570/4 333/558/4 335/562/4 337/566/4
f 334/560/5 340/572/5 338/568/5 336/564/5
f 341/573/2 342/575/2 344/579/2 343/577/2
f 345/581/3 346/583/3 348/587/3 347/585/3
f 347/586/4 341/574/4 343/578/4 345/582/4
f 342/576/5 348/588/5 346/584/5 344/580/5
f 349/589/2 350/591/2 352/595/2 351/593/2
f 353/597/3 354/599/3 356/603/3 355/601/3
f 355/602/4 349/590/4 351/594/4 353/598/4
f 350/592/5 356/604/5 354/600/5 352/596/5
f 357/605/2 358/607/2 360/611/2 359/609/2
f 361/613/3 362/615/3 364/619/3 363/617/3
f 363/618/4 357/606/4 359/610/4 361/614/4
f 358/608/5 364/620/5 362/616/5 360/612/5
f 365/621/2 366/623/2 368/627/2 367/625/2
f 369/629/3 370/631/3 372/635/3 371/633/3
f 371/634/4 365/622/4 367/626/4 369/630/4
f 366/624/5 372/636/5 370/632/5 368/628/5
f 373/637/2 374/639/2 376/643/2 375/641/2
f 377/645/3 378/647/3 380/651/3 379/649/3
f 379/650/4 373/638/4 375/642/4 377/646/4
f 374/640/5 380/652/5 378/648/5 376/644/5
f 381/653/2 382/655/2 384/659/2 383/657/2
f 385/661/3 386/663/3 388/667/3 387/665/3
f 387/666/4 381/654/4 383/658/4 385/662/4
f 382/656/5 388/668/5 386/664/5 384/660/5
f 389/669/2 390/671/2 392/675/2 391/673/2
f 393/677/3 394/679/3 396/683/3 395/681/3
f 395/682/4 389/670/4 391/674/4 393/678/4
f 390/672/5 396/684/5 394/680/5 392/676/5
f 397/685/2 398/687/2 400/691/2 399/689/2
f 401/693/3 402/695/3 404/699/3 403/697/3
f 403/698/4 397/686/4 399/690/4 401/694/4
f 398/688/5 404/700/5 402/696/5 400/692/5
f 405/701/2 406/703/2 408/707/2 407/705/2
f 409/709/3 410/711/3 412/715/3 411/713/3
f 411/714/4 405/702/4 407/706/4 409/710/4
f 406/704/5 412/716/5 410/712/5 408/708/5
f 413/717/2 414/719/2 416/723/2 415/721/2
f 417/725/3 418/727/3 420/731/3 419/729/3
f 419/730/4 413/718/4 415/722/4 417/726/4
f 414/720/5 420/732/5 418/728/5 416/724/5
f 421/733/2 422/735/2 424/739/2 423/737/2
f 425/741/3 426/743/3 428/747/3 427/745/3
f 427/746/4 421/734/4 423/738/4 425/742/4
f 422/736/5 428/748/5 426/744/5 424/740/5
f 429/749/1 430/750/1 432/752/1 431/751/1
f 433/753/1 434/754/1 436/756/1 435/755/1
f 437/757/1 438/758/1 440/760/1 439/759/1
f 441/761/2 442/763/2 444/768/2 443/765/2
f 443/766/1 444/769/1 446/774/1 445/771/1
f 445/772/3 446/775/3 448/779/3 447/777/3
f 447/778/4 441/762/4 443/767/4 445/773/4
f 442/764/5 448/780/5 446/776/5 444/770/5
f 449/781/2 450/783/2 452/788/2 451/785/2
f 451/786/1 452/789/1 454/794/1 453/791/1
f 453/792/3 454/795/3 456/799/3 455/797/3
f 455/798/4 449/782/4 451/787/4 453/793/4
f 450/784/5 456/800/5 454/796/5 452/790/5
f 457/801/2 458/803/2 460/808/2 459/805/2
f 459/806/1 460/809/1 462/814/1 461/811/1
f 461/812/3 462/815/3 464/819/3 463/817/3
f 463/818/4 457/802/4 459/807/4 461/813/4
f 458/804/5 464/820/5 462/816/5 460/810/5
f 465/821/2 466/823/2 468/828/2 467/825/2
f 467/826/1 468/829/1 470/834/1 469/831/1
f 469/832/3 470/835/3 472/839/3 471/837/3
f 471/838/4 465/822/4 467/827/4 469/833/4
f 466/824/5 472/840/5 470/836/5 468/830/5
f 473/841/2 474/843/2 476/848/2 475/845/2
f 475/846/1 476/849/1 478/854/1 477/851/1
f 477/852/3 478/855/3 480/859/3 479/857/3
f 479/858/4 473/842/4 475/847/4 477/853/4
f 474/844/5 480/860/5 478/856/5 476/850/5
f 481/861/2 482/863/2 484/868/2 483/865/2
f 483/866/1 484/869/1 486/874/1 485/871/1
f 485/872/3 486/875/3 488/879/3 487/877/3
f 487/878/4 481/862/4 483/867/4 485/873/4
f 482/864/5 488/880/5 486/876/5 484/870/5
f 489/881/2 490/883/2 492/888/2 491/885/2
f 491/886/1 492/889/1 494/894/1 493/891/1
f 493/892/3 494/895/3 496/899/3 495/897/3
f 495/898/4 489/882/4 491/887/4 493/893/4
f 490/884/5 496/900/5 494/896/5 492/890/5
f 497/901/2 498/903/2 500/908/2 499/905/2
f 499/906/1 500/909/1 502/914/1 501/911/1
f 501/912/3 502/915/3 504/919/3 503/917/3
f 503/918/4 497/902/4 499/907/4 501/913/4
f 498/904/5 504/920/5 502/916/5 500/910/5
f 505/921/2 506/923/2 508/928/2 507/925/2
f 507/926/1 508/929/1 510/934/1 509/931/1
f 509/932/3 510/935/3 512/939/3 511/937/3
f 511/938/4 505/922/4 507/927/4 509/933/4
f 506/924/5 512/940/5 510/936/5 508/930/5
f 513/941/2 514/943/2 516/948/2 515/945/2
f 515/946/1 516/949/1 518/954/1 517/951/1
f 517/952/3 518/955/3 520/959/3 519/957/3
f 519/958/4 513/942/4 515/947/4 517/953/4
f 514/944/5 520/960/5 518/956/5 516/950/5
f 521/961/2 522/963/2 524/968/2 523/965/2
f 523/966/1 524/969/1 526/974/1 525/971/1
f 525/972/3 526/975/3 528/979/3 527/977/3
f 527/978/4 521/962/4 523/967/4 525/973/4
f 522/964/5 528/980/5 526/976/5 524/970/5
f 529/981/2 530/983/2 532/988/2 531/985/2
f 531/986/1 532/989/1 534/994/1 533/991/1
f 533/992/3 534/995/3 536/999/3 535/997/3
f 535/998/4 529/982/4 531/987/4 533/993/4
f 530/984/5 536/1000/5 534/996/5 532/990/5
f 537/1001/2 538/1003/2 540/1008/2 539/1005/2
f 539/1006/1 540/1009/1 542/1014/1 541/1011/1
f 541/1012/3 542/1015/3 544/1019/3 543/1017/3
f 543/1018/4 537/1002/4 539/1007/4 541/1013/4
f 538/1004/5 544/1020/5 542/1016/5 540/1010/5
f 545/1021/2 546/1023/2 548/1028/2 547/1025/2
f 547/1026/1 548/1029/1 550/1034/1 549/1031/1
f 549/1032/3 550/1035/3 552/1039/3 551/1037/3
f 551/1038/4 545/1022/4 547/1027/4 549/1033/4
f 546/1024/5 552/1040/5 550/1036/5 548/1030/5
f 553/1041/2 554/1043/2 556/1048/2 555/1045/2
f 555/1046/1 556/1049/1 558/1054/1 557/1051/1
f 557/1052/3 558/1055/3 560/1059/3 559/1057/3
f 559/1058/4 553/1042/4 555/1047/4 557/1053/4
f 554/1044/5 560/1060/5 558/1056/5 556/1050/5
f 561/1061/2 562/1063/2 564/1068/2 563/1065/2
f 563/1066/1 564/1069/1 566/1074/1 565/1071/1
f 565/1072/3 566/1075/3 568/1079/3 567/1077/3
f 567/1078/4 561/1062/4 563/1067/4 565/1073/4
f 562/1064/5 568/1080/5 566/1076/5 564/1070/5
f 569/1081/2 570/1083/2 572/1088/2 571/1085/2
f 571/1086/1 572/1089/1 574/1094/1 573/1091/1
f 573/1092/3 574/1095/3 576/1099/3 575/1097/3
f 575/1098/4 569/1082/4 571/1087/4 573/1093/4
f 570/1084/5 576/1100/5 574/1096/5 572/1090/5
f 577/1101/2 578/1103/2 580/1108/2 579/1105/2
f 579/1106/1 580/1109/1 582/1114/1 581/1111/1
f 581/1112/3 582/1115/3 584/1119/3 583/1117/3
f 583/1118/4 577/1102/4 579/1107/4 581/1113/4
f 578/1104/5 584/1120/5 582/1116/5 580/1110/5
f 585/1121/2 586/1123/2 588/1128/2 587/1125/2
f 587/1126/1 588/1129/1 590/1134/1 589/1131/1
f 589/1132/3 590/1135/3 592/1139/3 591/1137/3
f 591/1138/4 585/1122/4 587/1127/4 589/1133/4
f 586/1124/5 592/1140/5 590/1136/5 588/1130/5
f 593/1141/2 594/1143/2 596/1148/2 595/1145/2
f 595/1146/1 596/1149/1 598/1154/1 597/1151/1
f 597/1152/3 598/1155/3 600/1159/3 599/1157/3
f 599/1158/4 593/1142/4 595/1147/4 597/1153/4
f 594/1144/5 600/1160/5 598/1156/5 596/1150/5
f 601/1161/2 602/1163/2 604/1168/2 603/1165/2
f 603/1166/1 604/1169/1 606/1174/1 605/1171/1
f 605/1172/3 606/1175/3 608/1179/3 607/1177/3
f 607/1178/4 601/1162/4 603/1167/4 605/1173/4
f 602/1164/5 608/1180/5 606/1176/5 604/1170/5
f 609/1181/2 610/1183/2 612/1188/2 611/1185/2
f 611/1186/1 612/1189/1 614/1194/1 613/1191/1
f 613/1192/3 614/1195/3 616/1199/3 615/1197/3
f 615/1198/4 609/1182/4 611/1187/4 613/1193/4
f 610/1184/5 616/1200/5 614/1196/5 612/1190/5
f 617/1201/2 618/1203/2 620/1208/2 619/1205/2
f 619/1206/1 620/1209/1 622/1214/1 621/1211/1
f 621/1212/3 622/1215/3 624/1219/3 623/1217/3
f 623/1218/4 617/1202/4 619/1207/4 621/1213/4
f 618/1204/5 624/1220/5 622/1216/5 620/1210/5
f 625/1221/2 626/1223/2 628/1228/2 627/1225/2
f 627/1226/1 628/1229/1 630/1234/1 629/1231/1
f 629/1232/3 630/1235/3 632/1239/3 631/1237/3
f 631/1238/4 625/1222/4 627/1227/4 629/1233/4
f 626/1224/5 632/1240/5 630/1236/5 628/1230/5
f 633/1241/2 634/1243/2 636/1248/2 635/1245/2
f 635/1246/1 636/1249/1 638/1254/1 637/1251/1
f 637/1252/3 638/1255/3 640/1259/3 639/1257/3
f 639/1258/4 633/1242/4 635/1247/4 637/1253/4
f 634/1244/5 640/1260/5 638/1256/5 636/1250/5
f 641/1261/2 642/1263/2 644/1268/2 643/1265/2
f 643/1266/1 644/1269/1 646/1274/1 645/1271/1
f 645/1272/3 646/1275/3 648/1279/3 647/1277/3
f 647/1278/4 641/1262/4 643/1267/4 645/1273/4
f 642/1264/5 648/1280/5 646/1276/5 644/1270/5
f 649/1281/2 650/1283/2 652/1288/2 651/1285/2
f 651/1286/1 652/1289/1 654/1294/1 653/1291/1
f 653/1292/3 654/1295/3 656/1299/3 655/1297/3
f 655/1298/4 649/1282/4 651/1287/4 653/1293/4
f 650/1284/5 656/1300/5 654/1296/5 652/1290/5
f 657/1301/2 658/1303/2 660/1308/2 659/1305/2
f 659/1306/1 660/1309/1 662/1314/1 661/1311/1
f 661/1312/3 662/1315/3 664/1319/3 663/1317/3
f 663/1318/4 657/1302/4 659/1307/4 661/1313/4
f 658/1304/5 664/1320/5 662/1316/5 660/1310/5
f 665/1321/2 666/1323/2 668/1328/2 667/1325/2
f 667/1326/1 668/1329/1 670/1334/1 669/1331/1
f 669/1332/3 670/1335/3 672/1339/3 671/1337/3
f 671/1338/4 665/1322/4 667/1327/4 669/1333/4
f 666/1324/5 672/1340/5 670/1336/5 668/1330/5
f 673/1341/2 674/1343/2 676/1348/2 675/1345/2
f 675/1346/1 676/1349/1 678/1354/1 677/1351/1
f 677/1352/3 678/1355/3 680/1359/3 679/1357/3
f 679/1358/4 673/1342/4 675/1347/4 677/1353/4
f 674/1344/5 680/1360/5 678/1356/5 676/1350/5
f 681/1361/2 682/1363/2 684/1368/2 683/1365/2
f 683/1366/1 684/1369/1 686/1374/1 685/1371/1
f 685/1372/3 686/1375/3 688/1379/3 687/1377/3
f 687/1378/4 681/1362/4 683/1367/4 685/1373/4
f 682/1364/5 688/1380/5 686/1376/5 684/1370/5
f 689/1381/2 690/1383/2 692/1388/2 691/1385/2
f 691/1386/1 692/1389/1 694/1394/1 693/1391/1
f 693/1392/3 694/1395/3 696/1399/3 695/1397/3
f 695/1398/4 689/1382/4 691/1387/4 693/1393/4
f 690/1384/5 696/1400/5 694/1396/5 692/1390/5
f 697/1401/2 698/1403/2 700/1408/2 699/1405/2
f 699/1406/1 700/1409/1 702/1414/1 701/1411/1
f 701/1412/3 702/1415/3 704/1419/3 703/1417/3
f 703/1418/4 697/1402/4 699/1407/4 701/1413/4
f 698/1404/5 704/1420/5 702/1416/5 700/1410/5
f 705/1421/2 706/1423/2 708/1428/2 707/1425/2
f 707/1426/1 708/1429/1 710/1434/1 709/1431/1
f 709/1432/3 710/1435/3 712/1439/3 711/1437/3
f 711/1438/4 705/1422/4 707/1427/4 709/1433/4
f 706/1424/5 712/1440/5 710/1436/5 708/1430/5
f 713/1441/2 714/1443/2 716/1448/2 715/1445/2
f 715/1446/1 716/1449/1 718/1454/1 717/1451/1
f 717/1452/3 718/1455/3 720/1459/3 719/1457/3
f 719/1458/4 713/1442/4 715/1447/4 717/1453/4
f 714/1444/5 720/1460/5 718/1456/5 716/1450/5
f 721/1461/2 722/1463/2 724/1468/2 723/1465/2
f 723/1466/1 724/1469/1 726/1474/1 725/1471/1
f 725/1472/3 726/1475/3 728/1479/3 727/1477/3
f 727/1478/4 721/1462/4 723/1467/4 725/1473/4
f 722/1464/5 728/1480/5 726/1476/5 724/1470/5
f 729/1481/2 730/1483/2 732/1488/2 731/1485/2
f 731/1486/1 732/1489/1 734/1494/1 733/1491/1
f 733/1492/3 734/1495/3 736/1499/3 735/1497/3
f 735/1498/4 729/1482/4 731/1487/4 733/1493/4
f 730/1484/5 736/1500/5 734/1496/5 732/1490/5
f 737/1501/2 738/1503/2 740/1508/2 739/1505/2
f 739/1506/1 740/1509/1 742/1514/1 741/1511/1
f 741/1512/3 742/1515/3 744/1519/3 743/1517/3
f 743/1518/4 737/1502/4 739/1507/4 741/1513/4
f 738/1504/5 744/1520/5 742/1516/5 740/1510/5
f 745/1521/2 746/1523/2 748/1528/2 747/1525/2
f 747/1526/1 748/1529/1 750/1534/1 749/1531/1
f 749/1532/3 750/1535/3 752/1539/3 751/1537/3
f 751/1538/4 745/1522/4 747/1527/4 749/1533/4
f 746/1524/5 752/1540/5 750/1536/5 748/1530/5
f 753/1541/2 754/1543/2 756/1548/2 755/1545/2
f 755/1546/1 756/1549/1 758/1554/1 757/1551/1
f 757/1552/3 758/1555/3 760/1559/3 759/1557/3
f 759/1558/4 753/1542/4 755/1547/4 757/1553/4
f 754/1544/5 760/1560/5 758/1556/5 756/1550/5
f 761/1561/2 762/1563/2 764/1568/2 763/1565/2
f 763/1566/1 764/1569/1 766/1574/1 765/1571/1
f 765/1572/3 766/1575/3 768/1579/3 767/1577/3
f 767/1578/4 761/1562/4 763/1567/4 765/1573/4
f 762/1564/5 768/1580/5 766/1576/5 764/1570/5
f 769/1581/2 770/1583/2 772/1588/2 771/1585/2
f 771/1586/1 772/1589/1 774/1594/1 773/1591/1
f 773/1592/3 774/1595/3 776/1599/3 775/1597/3
f 775/1598/4 769/1582/4 771/1587/4 773/1593/4
f 770/1584/5 776/1600/5 774/1596/5 772/1590/5
f 777/1601/2 778/1603/2 780/1608/2 779/1605/2
f 779/1606/1 780/1609/1 782/1614/1 781/1611/1
f 781/1612/3 782/1615/3 784/1619/3 783/1617/3
f 783/1618/4 777/1602/4 779/1607/4 781/1613/4
f 778/1604/5 784/1620/5 782/1616/5 780/1610/5
f 785/1621/2 786/1623/2 788/1628/2 787/1625/2
f 787/1626/1 788/1629/1 790/1634/1 789/1631/1
f 789/1632/3 790/1635/3 792/1639/3 791/1637/3
f 791/1638/4 785/1622/4 787/1627/4 789/1633/4
f 786/1624/5 792/1640/5 790/1636/5 788/1630/5
f 793/1641/2 794/1643/2 796/1648/2 795/1645/2
f 795/1646/1 796/1649/1 798/1654/1 797/1651/1
f 797/1652/3 798/1655/3 800/1659/3 799/1657/3
f 799/1658/4 793/1642/4 795/1647/4 797/1653/4
f 794/1644/5 800/1660/5 798/1656/5 796/1650/5
f 801/1661/2 802/1663/2 804/1668/2 803/1665/2
f 803/1666/1 804/1669/1 806/1674/1 805/1671/1
f 805/1672/3 806/1675/3 808/1679/3 807/1677/3
f 807/1678/4 801/1662/4 803/1667/4 805/1673/4
f 802/1664/5 808/1680/5 806/1676/5 804/1670/5
f 809/1681/2 810/1683/2 812/1688/2 811/1685/2
f 811/1686/1 812/1689/1 814/1694/1 813/1691/1
f 813/1692/3 814/1695/3 816/1699/3 815/1697/3
f 815/1698/4 809/1682/4 811/1687/4 813/1693/4
f 810/1684/5 816/1700/5 814/1696/5 812/1690/5
f 817/1701/2 818/1703/2 820/1708/2 819/1705/2
f 819/1706/1 820/1709/1 822/1714/1 821/1711/1
f 821/1712/3 822/1715/3 824/1719/3 823/1717/3
f 823/1718/4 817/1702/4 819/1707/4 821/1713/4
f 818/1704/5 824/1720/5 822/1716/5 820/1710/5
f 825/1721/2 826/1723/2 828/1728/2 827/1725/2
f 827/1726/1 828/1729/1 830/1734/1 829/1731/1
f 829/1732/3 830/1735/3 832/1739/3 831/1737/3
f 831/1738/4 825/1722/4 827/1727/4 829/1733/4
f 826/1724/5 832/1740/5 830/1736/5 828/1730/5
f 833/1741/2 834/1743/2 836/1748/2 835/1745/2
f 835/1746/1 836/1749/1 838/1754/1 837/1751/1
f 837/1752/3 838/1755/3 840/1759/3 839/1757/3
f 839/1758/4 833/1742/4 835/1747/4 837/1753/4
f 834/1744/5 840/1760/5 838/1756/5 836/1750/5
f 841/1761/2 842/1763/2 844/1768/2 843/1765/2
f 843/1766/1 844/1769/1 846/1774/1 845/1771/1
f 845/1772/3 846/1775/3 848/1779/3 847/1777/3
f 847/1778/4 841/1762/4 843/1767/4 845/1773/4
f 842/1764/5 848/1780/5 846/1776/5 844/1770/5
f 849/1781/2 850/1783/2 852/1788/2 851/1785/2
f 851/1786/1 852/1789/1 854/1794/1 853/1791/1
f 853/1792/3 854/1795/3 856/1799/3 855/1797/3
f 855/1798/4 849/1782/4 851/1787/4 853/1793/4
f 850/1784/5 856/1800/5 854/1796/5 852/1790/5
f 857/1801/2 858/1803/2 860/1808/2 859/1805/2
f 859/1806/1 860/1809/1 862/1814/1 861/1811/1
f 861/1812/3 862/1815/3 864/1819/3 863/1817/3
f 863/1818/4 857/1802/4 859/1807/4 861/1813/4
f 858/1804/5 864/1820/5 862/1816/5 860/1810/5
f 865/1821/2 866/1823/2 868/1828/2 867/1825/2
f 867/1826/1 868/1829/1 870/1834/1 869/1831/1
f 869/1832/3 870/1835/3 872/1839/3 871/1837/3
f 871/1838/4 865/1822/4 867/1827/4 869/1833/4
f 866/1824/5 872/1840/5 870/1836/5 868/1830/5
f 873/1841/2 874/1843/2 876/1848/2 875/1845/2
f 875/1846/1 876/1849/1 878/1854/1 877/1851/1
f 877/1852/3 878/1855/3 880/1859/3 879/1857/3
f 879/1858/4 873/1842/4 875/1847/4 877/1853/4
f 874/1844/5 880/1860/5 878/1856/5 876/1850/5
f 881/1861/2 882/1863/2 884/1868/2 883/1865/2
f 883/1866/1 884/1869/1 886/1874/1 885/1871/1
f 885/1872/3 886/1875/3 888/1879/3 887/1877/3
f 887/1878/4 881/1862/4 883/1867/4 885/1873/4
f 882/1864/5 888/1880/5 886/1876/5 884/1870/5
f 889/1881/2 890/1883/2 892/1888/2 891/1885/2
f 891/1886/1 892/1889/1 894/1894/1 893/1891/1
f 893/1892/3 894/1895/3 896/1899/3 895/1897/3
f 895/1898/4 889/1882/4 891/1887/4 893/1893/4
f 890/1884/5 896/1900/5 894/1896/5 892/1890/5
f 897/1901/2 898/1903/2 900/1908/2 899/1905/2
f 899/1906/1 900/1909/1 902/1914/1 901/1911/1
f 901/1912/3 902/1915/3 904/1919/3 903/1917/3
f 903/1918/4 897/1902/4 899/1907/4 901/1913/4
f 898/1904/5 904/1920/5 902/1916/5 900/1910/5
f 905/1921/2 906/1923/2 908/1928/2 907/1925/2
f 907/1926/1 908/1929/1 910/1934/1 909/1931/1
f 909/1932/3 910/1935/3 912/1939/3 911/1937/3
f 911/1938/4 905/1922/4 907/1927/4 909/1933/4
f 906/1924/5 912/1940/5 910/1936/5 908/1930/5
f 913/1941/2 914/1943/2 916/1948/2 915/1945/2
f 915/1946/1 916/1949/1 918/1954/1 917/1951/1
f 917/1952/3 918/1955/3 920/1959/3 919/1957/3
f 919/1958/4 913/1942/4 915/1947/4 917/1953/4
f 914/1944/5 920/1960/5 918/1956/5 916/1950/5
