# Blender 3.3.21
# www.blender.org
mtllib Vampiro.mtl
o Capa_Vampiro
v -3.526732 19.407845 1.518727
v 3.526732 19.407845 1.518727
v 4.937425 20.907845 -1.981273
v -4.937425 20.907845 -1.981273
v 0.000000 21.407845 -2.481273
v -2.116040 15.907845 1.318727
v 2.116040 15.907845 1.318727
v 3.103524 15.907845 -0.981273
v -3.103524 15.907845 -0.981273
v -5.642772 13.907845 1.018727
v 5.642772 13.907845 1.018727
v 4.232079 13.707845 -1.681273
v -4.232079 13.707845 -1.681273
v -7.053464 7.907845 1.318727
v 7.053464 7.907845 1.318727
v 5.924910 7.407845 -2.481273
v -5.924910 7.407845 -2.481273
v 0.000000 7.407845 -2.981273
v -8.464158 0.907845 1.518727
v 8.464158 0.907845 1.518727
v 7.335603 -0.092155 -3.481273
v -7.335603 -0.092155 -3.481273
v 0.000000 -0.592155 -3.981273
v -2.991216 19.501034 1.433814
v 2.991702 19.519661 1.458286
v 4.594842 21.037289 -1.690981
v -4.593948 21.029751 -1.688262
v 0.000000 21.501270 -2.092337
v -1.563541 15.855230 1.256747
v 1.588001 15.808276 1.218843
v 2.705054 15.818284 -0.712586
v -2.646441 15.894388 -0.747106
v -5.183917 13.710640 1.142462
v 5.138179 13.755974 1.113553
v 3.923227 13.592602 -1.366971
v -3.923887 13.552343 -1.384472
v -6.508890 7.848196 1.404867
v 6.513735 7.842879 1.415668
v 5.556973 7.324774 -2.189602
v -5.556848 7.334875 -2.186990
v -0.006829 7.338471 -2.587365
v -7.914542 0.854273 1.591778
v 7.917190 0.848887 1.597400
v 6.993739 -0.162216 -3.170847
v -6.998268 -0.162710 -3.168479
v 0.002786 -0.644299 -3.584691
vn -0.0759 -0.2223 -0.9720
vn -0.0000 -0.2336 -0.9723
vn -0.0131 0.0344 -0.9993
vn 0.0759 -0.2223 -0.9720
vn 0.0131 0.0344 -0.9993
vn -0.9055 -0.3136 0.2857
vn -0.9244 -0.2893 0.2486
vn -0.9306 0.0096 0.3660
vn -0.9037 -0.1813 0.3880
vn 0.9035 -0.3270 0.2770
vn 0.9041 -0.3760 0.2032
vn 0.9005 -0.3013 0.3135
vn 0.8897 -0.2499 0.3820
vn -0.8684 0.3268 0.3728
vn -0.4515 0.8409 -0.2982
vn -0.7320 0.5348 -0.4221
vn -0.7037 0.6018 -0.3776
vn 0.6520 0.7547 -0.0731
vn 0.4956 0.8421 0.2128
vn 0.8169 0.4893 -0.3055
vn 0.8306 0.3601 -0.4248
vn -0.0000 0.2000 -0.9798
vn -0.0061 0.2222 -0.9750
vn -0.9195 0.2212 -0.3249
vn -0.9339 0.2036 -0.2940
vn 0.9186 0.2200 -0.3283
vn 0.9271 0.2319 -0.2946
vn 0.0650 0.1685 -0.9836
vn 0.0086 0.1734 -0.9848
vn -0.0782 0.1382 -0.9873
vn -0.9433 0.1947 -0.2690
vn -0.9502 0.1843 -0.2513
vn 0.9416 0.2020 -0.2695
vn 0.9435 0.2115 -0.2552
vn -0.0035 0.1304 -0.9915
vn -0.0576 0.1426 -0.9881
vn 0.0665 0.1310 -0.9891
vn 0.0650 0.2037 0.9769
vn 0.0076 -0.0262 0.9996
vn -0.0004 0.2120 0.9773
vn -0.0166 -0.0422 0.9990
vn -0.0644 0.2064 0.9763
vn 0.8846 0.3003 -0.3568
vn 0.8926 -0.0123 -0.4507
vn 0.9025 0.2827 -0.3249
vn 0.8719 0.1431 -0.4684
vn -0.8813 0.3066 -0.3596
vn -0.8683 0.2665 -0.4183
vn -0.8911 0.3552 -0.2824
vn -0.8459 0.2148 -0.4881
vn 0.8283 -0.3282 -0.4540
vn 0.4807 -0.8270 0.2915
vn 0.7258 -0.5839 0.3637
vn 0.7404 -0.5381 0.4029
vn -0.4860 -0.8261 -0.2854
vn -0.7486 -0.5277 0.4014
vn -0.8394 -0.3659 0.4018
vn -0.8454 -0.3107 0.4345
vn -0.0036 -0.1916 0.9815
vn 0.0040 -0.2016 0.9795
vn 0.9284 -0.2199 0.2995
vn 0.9417 -0.2025 0.2687
vn -0.9275 -0.2200 0.3023
vn -0.9352 -0.2291 0.2701
vn -0.0564 -0.1626 0.9851
vn 0.0672 -0.1367 0.9883
vn -0.0069 -0.1653 0.9862
vn 0.9504 -0.1960 0.2416
vn 0.9566 -0.1863 0.2239
vn -0.9484 -0.2036 0.2429
vn -0.9500 -0.2123 0.2290
vn 0.0030 -0.1292 0.9916
vn 0.0492 -0.1389 0.9891
vn -0.0562 -0.1295 0.9900
vn 0.3499 0.7832 0.5140
vn -0.3165 0.7999 0.5099
vn -0.0000 0.9682 -0.2502
vn -0.1211 0.9625 -0.2429
vn -0.0001 0.9682 -0.2502
vn 0.1338 0.0008 0.9910
vn 0.0296 0.0024 0.9996
vn 0.0520 0.0021 0.9986
vn -0.1207 0.0457 0.9916
vn -0.1219 0.0465 0.9914
vn -0.1603 0.0719 0.9845
vn -0.1600 0.0717 0.9845
vn -0.1382 0.0551 0.9889
vn 0.1577 0.0729 0.9848
vn 0.0961 0.0143 0.9953
vn 0.0835 0.0003 0.9965
vn 0.1575 0.0724 0.9849
vn 0.1210 0.9596 -0.2538
vn -0.0667 -0.0398 0.9970
vn -0.1491 -0.0020 0.9888
vn -0.0706 -0.0380 0.9968
vn 0.1529 0.0577 0.9866
vn -0.0002 -0.9909 -0.1347
vn 0.1399 -0.9902 0.0016
vn 0.1450 -0.9894 0.0127
vn 0.0002 -0.9909 -0.1347
vn 0.2081 -0.9657 0.1551
vn -0.1371 -0.9906 0.0010
vn -0.1429 -0.9896 0.0143
vn -0.2036 -0.9664 0.1571
vt 0.078251 0.446576
vt 0.194054 0.581015
vt 0.159226 0.228989
vt 0.207073 0.562253
vt 0.215081 0.581700
vt 0.252786 0.173982
vt 0.076852 0.672794
vt 0.217029 0.510126
vt 0.219831 0.646950
vt 0.074613 0.792020
vt 0.071652 0.383225
vt 0.190393 0.645991
vt 0.073426 0.731702
vt 0.204471 0.657763
vt 0.096178 0.450281
vt 0.175153 0.261744
vt 0.189887 0.546447
vt 0.237540 0.658839
vt 0.237183 0.205693
vt 0.191498 0.509295
vt 0.242292 0.622068
vt 0.152919 0.288689
vt 0.101158 0.702488
vt 0.096797 0.410071
vt 0.099750 0.777430
vt 0.105786 0.443786
vt 0.188109 0.229929
vt 0.225371 0.621517
vt 0.144205 0.329482
vt 0.223907 0.173042
vt 0.141445 0.282228
vt 0.112763 0.692327
vt 0.107935 0.400129
vt 0.110843 0.794521
vt 0.135682 0.456199
vt 0.218667 0.241361
vt 0.114333 0.346868
vt 0.193446 0.182328
vt 0.109358 0.281935
vt 0.145148 0.681661
vt 0.139670 0.394006
vt 0.142460 0.824732
vt 0.144011 0.753259
vt 0.170651 0.468436
vt 0.254138 0.257453
vt 0.250919 0.761366
vt 0.079384 0.364290
vt 0.158116 0.195959
vt 0.190279 0.759494
vt 0.071126 0.279938
vt 0.183584 0.676269
vt 0.194778 0.845289
vt 0.177563 0.386673
vt 0.180257 0.853405
vt 0.247332 0.846912
vt 0.184641 0.765667
vt 0.221104 0.854735
vt 0.886869 0.683691
vt 0.195521 0.583043
vt 0.158314 0.234809
vt 0.923437 0.531859
vt 0.213279 0.583371
vt 0.253852 0.179790
vt 0.697395 0.539994
vt 0.914444 0.489556
vt 0.218125 0.643284
vt 0.711754 0.443977
vt 0.903971 0.638147
vt 0.190749 0.642297
vt 0.701454 0.491055
vt 0.203755 0.652339
vt 0.861455 0.677374
vt 0.932411 0.657095
vt 0.174936 0.268438
vt 0.950054 0.520914
vt 0.082357 0.225429
vt 0.237210 0.212342
vt 0.951222 0.493605
vt 0.082539 0.261123
vt 0.847562 0.287536
vt 0.736110 0.530527
vt 0.865870 0.646681
vt 0.743926 0.474449
vt 0.918493 0.687173
vt 0.969315 0.424276
vt 0.188647 0.236190
vt 0.070939 0.243346
vt 0.857356 0.321965
vt 0.223691 0.179592
vt 0.864447 0.284818
vt 0.749758 0.547631
vt 0.851054 0.632321
vt 0.910177 0.654647
vt 0.969501 0.388848
vt 0.762259 0.465701
vt 0.926956 0.434586
vt 0.218462 0.247985
vt 0.897078 0.342406
vt 0.193686 0.188915
vt 0.909361 0.290016
vt 0.790715 0.577032
vt 0.925234 0.383606
vt 0.807949 0.460862
vt 0.799390 0.518854
vt 0.876475 0.445242
vt 0.253902 0.264108
vt 0.248944 0.760065
vt 0.944473 0.363771
vt 0.158390 0.202609
vt 0.192232 0.758219
vt 0.962969 0.295665
vt 0.840439 0.606772
vt 0.195975 0.840030
vt 0.871799 0.377723
vt 0.862228 0.460544
vt 0.246097 0.841537
vt 0.854764 0.534654
vt 0.221059 0.847962
s 1
usemtl Material.001
f 4/10/1 5/13/2 9/25/3
f 5/13/2 3/7/4 8/23/5
f 5/13/2 8/23/5 9/25/3
f 1/1/6 4/11/7 9/24/8
f 1/1/6 9/24/8 6/15/9
f 3/8/10 2/4/11 7/17/12
f 3/8/10 7/17/12 8/20/13
f 6/15/9 9/24/8 13/33/14
f 6/15/15 13/33/16 10/26/17
f 8/21/18 7/18/19 11/28/20
f 8/22/18 11/29/20 12/31/21
f 9/25/3 8/23/5 12/32/22
f 9/25/3 12/32/22 13/34/23
f 10/26/17 13/33/16 17/41/24
f 10/26/17 17/41/24 14/35/25
f 12/31/21 11/29/20 15/37/26
f 12/31/21 15/37/26 16/39/27
f 13/34/23 12/32/22 16/40/28
f 13/34/23 18/43/29 17/42/30
f 13/34/23 16/40/28 18/43/29
f 14/35/25 17/41/24 22/53/31
f 14/35/25 22/53/31 19/44/32
f 16/39/27 15/37/26 20/47/33
f 16/39/27 20/47/33 21/50/34
f 17/42/30 18/43/29 23/56/35
f 17/42/30 23/56/35 22/54/36
f 18/43/29 16/40/28 21/51/37
f 18/43/29 21/51/37 23/56/35
f 27/67/38 32/83/39 28/70/40
f 28/70/40 31/81/41 26/64/42
f 28/70/40 32/83/39 31/81/41
f 24/58/43 32/82/44 27/68/45
f 24/58/43 29/72/46 32/82/44
f 26/65/47 30/75/48 25/61/49
f 26/65/47 31/78/50 30/75/48
f 29/72/46 36/92/51 32/82/44
f 29/73/52 33/84/53 36/93/54
f 31/79/55 34/87/55 30/76/55
f 31/80/56 35/90/57 34/88/58
f 32/83/39 35/91/59 31/81/41
f 32/83/39 36/95/60 35/91/59
f 33/85/53 40/102/61 36/94/54
f 33/85/53 37/96/62 40/102/61
f 35/90/57 38/98/63 34/88/58
f 35/90/57 39/100/64 38/98/63
f 36/95/60 39/101/65 35/91/59
f 36/95/60 40/103/66 41/104/67
f 36/95/60 41/104/67 39/101/65
f 37/96/62 45/114/68 40/102/61
f 37/96/62 42/105/69 45/114/68
f 39/100/64 43/108/70 38/98/63
f 39/100/64 44/111/71 43/108/70
f 40/103/66 46/117/72 41/104/67
f 40/103/66 45/115/73 46/117/72
f 41/104/67 44/112/74 39/101/65
f 41/104/67 46/117/72 44/112/74
f 2/5/75 3/9/75 26/66/75 25/62/75
f 4/12/76 1/2/76 24/59/76 27/69/76
f 5/14/77 4/12/78 27/69/78 28/71/79
f 1/3/80 6/16/81 29/74/82 24/60/80
f 6/16/81 10/27/83 33/86/84 29/74/82
f 10/27/83 14/36/85 37/97/86 33/86/84
f 14/36/85 19/45/87 42/106/87 37/97/86
f 15/38/88 11/30/89 34/89/90 38/99/91
f 3/9/92 5/14/77 28/71/79 26/66/92
f 7/19/93 2/6/94 25/63/94 30/77/95
f 20/48/96 15/38/88 38/99/91 43/109/96
f 11/30/89 7/19/93 30/77/95 34/89/90
f 23/57/97 21/52/98 44/113/99 46/118/100
f 21/52/98 20/49/101 43/110/101 44/113/99
f 22/55/102 23/57/97 46/118/100 45/116/103
f 19/46/104 22/55/102 45/116/103 42/107/104
