# Blender 4.2.1 LTS
# www.blender.org
mtllib estanteria.mtl
o Plano
v -1.000000 0.000000 1.000000
v 1.000000 0.000000 1.000000
v -1.000000 0.000000 -1.000000
v 1.000000 0.000000 -1.000000
v -1.000000 0.999672 1.000000
v 1.000000 0.999672 1.000000
v -1.000000 0.999672 -1.000000
v 1.000000 0.999672 -1.000000
v -1.000000 0.000000 1.000000
v 1.000000 0.000000 1.000000
v -1.000000 0.000000 -1.000000
v 1.000000 0.000000 -1.000000
v -1.000000 0.999672 1.000000
v 1.000000 0.999672 1.000000
v -1.000000 0.999672 -1.000000
v 1.000000 0.999672 -1.000000
v -1.000000 0.000000 1.000000
v 1.000000 0.000000 1.000000
v -1.000000 0.000000 -1.000000
v 1.000000 0.000000 -1.000000
v -1.000000 0.999672 1.000000
v 1.000000 0.999672 1.000000
v -1.000000 0.999672 -1.000000
v 1.000000 0.999672 -1.000000
v -1.000000 0.000000 1.000000
v -1.000000 0.999672 1.000000
v 0.922774 0.140990 -0.846378
v 0.922774 0.006654 -0.846378
v 0.909670 0.140990 -0.847669
v 0.909670 0.006654 -0.847669
v 0.897070 0.140990 -0.851491
v 0.897070 0.006654 -0.851491
v 0.885458 0.140990 -0.857698
v 0.885458 0.006654 -0.857698
v 0.875279 0.140990 -0.866051
v 0.875279 0.006654 -0.866051
v 0.866926 0.140990 -0.876230
v 0.866926 0.006654 -0.876230
v 0.860719 0.140990 -0.887842
v 0.860719 0.006654 -0.887842
v 0.856897 0.140990 -0.900442
v 0.856897 0.006654 -0.900442
v 0.855606 0.140990 -0.913546
v 0.855606 0.006654 -0.913546
v 0.856897 0.140990 -0.926650
v 0.856897 0.006654 -0.926650
v 0.860719 0.140990 -0.939250
v 0.860719 0.006654 -0.939250
v 0.866926 0.140990 -0.950862
v 0.866926 0.006654 -0.950862
v 0.875279 0.140990 -0.961041
v 0.875279 0.006654 -0.961041
v 0.885458 0.140990 -0.969394
v 0.885458 0.006654 -0.969394
v 0.897070 0.140990 -0.975601
v 0.897070 0.006654 -0.975601
v 0.909670 0.140990 -0.979423
v 0.909670 0.006654 -0.979423
v 0.922774 0.140990 -0.980714
v 0.922774 0.006654 -0.980714
v 0.935878 0.140990 -0.979423
v 0.935878 0.006654 -0.979423
v 0.948478 0.140990 -0.975601
v 0.948478 0.006654 -0.975601
v 0.960090 0.140990 -0.969394
v 0.960090 0.006654 -0.969394
v 0.970269 0.140990 -0.961041
v 0.970269 0.006654 -0.961041
v 0.978622 0.140990 -0.950862
v 0.978622 0.006654 -0.950862
v 0.984829 0.140990 -0.939250
v 0.984829 0.006654 -0.939250
v 0.988651 0.140990 -0.926650
v 0.988651 0.006654 -0.926650
v 0.989941 0.140990 -0.913546
v 0.989941 0.006654 -0.913546
v 0.988651 0.140990 -0.900442
v 0.988651 0.006654 -0.900442
v 0.984829 0.140990 -0.887842
v 0.984829 0.006654 -0.887842
v 0.978622 0.140990 -0.876230
v 0.978622 0.006654 -0.876230
v 0.970269 0.140990 -0.866051
v 0.970269 0.006654 -0.866051
v 0.960090 0.140990 -0.857698
v 0.960090 0.006654 -0.857698
v 0.948478 0.140990 -0.851491
v 0.948478 0.006654 -0.851491
v 0.935878 0.140990 -0.847669
v 0.935878 0.006654 -0.847669
v 0.922774 0.993927 -0.846378
v 0.909670 0.993927 -0.847669
v 0.897070 0.993927 -0.851491
v 0.885458 0.993927 -0.857698
v 0.875279 0.993927 -0.866051
v 0.866926 0.993927 -0.876230
v 0.860719 0.993927 -0.887842
v 0.856897 0.993927 -0.900442
v 0.855606 0.993927 -0.913546
v 0.856897 0.993927 -0.926650
v 0.860719 0.993927 -0.939250
v 0.866926 0.993927 -0.950862
v 0.875279 0.993927 -0.961041
v 0.885458 0.993927 -0.969394
v 0.897070 0.993927 -0.975601
v 0.909670 0.993927 -0.979423
v 0.922774 0.993927 -0.980714
v 0.935878 0.993927 -0.979423
v 0.948478 0.993927 -0.975601
v 0.960090 0.993927 -0.969394
v 0.970269 0.993927 -0.961041
v 0.978622 0.993927 -0.950862
v 0.984829 0.993927 -0.939250
v 0.988651 0.993927 -0.926650
v 0.989942 0.993927 -0.913546
v 0.988651 0.993927 -0.900442
v 0.984829 0.993927 -0.887842
v 0.978622 0.993927 -0.876230
v 0.970269 0.993927 -0.866051
v 0.960090 0.993927 -0.857698
v 0.948478 0.993927 -0.851491
v 0.935878 0.993927 -0.847669
v -0.935146 0.140990 -0.846378
v -0.935146 0.006654 -0.846378
v -0.948250 0.140990 -0.847669
v -0.948250 0.006654 -0.847669
v -0.960850 0.140990 -0.851491
v -0.960850 0.006654 -0.851491
v -0.972463 0.140990 -0.857698
v -0.972463 0.006654 -0.857698
v -0.982641 0.140990 -0.866051
v -0.982641 0.006654 -0.866051
v -0.990994 0.140990 -0.876230
v -0.990994 0.006654 -0.876230
v -0.997201 0.140990 -0.887842
v -0.997201 0.006654 -0.887842
v -1.001023 0.140990 -0.900442
v -1.001023 0.006654 -0.900442
v -1.002314 0.140990 -0.913546
v -1.002314 0.006654 -0.913546
v -1.001023 0.140990 -0.926650
v -1.001023 0.006654 -0.926650
v -0.997201 0.140990 -0.939250
v -0.997201 0.006654 -0.939250
v -0.990994 0.140990 -0.950862
v -0.990994 0.006654 -0.950862
v -0.982641 0.140990 -0.961041
v -0.982641 0.006654 -0.961041
v -0.972463 0.140990 -0.969394
v -0.972463 0.006654 -0.969394
v -0.960850 0.140990 -0.975601
v -0.960850 0.006654 -0.975601
v -0.948250 0.140990 -0.979423
v -0.948250 0.006654 -0.979423
v -0.935146 0.140990 -0.980714
v -0.935146 0.006654 -0.980714
v -0.922043 0.140990 -0.979423
v -0.922043 0.006654 -0.979423
v -0.909442 0.140990 -0.975601
v -0.909442 0.006654 -0.975601
v -0.897830 0.140990 -0.969394
v -0.897830 0.006654 -0.969394
v -0.887652 0.140990 -0.961041
v -0.887652 0.006654 -0.961041
v -0.879299 0.140990 -0.950862
v -0.879299 0.006654 -0.950862
v -0.873092 0.140990 -0.939250
v -0.873092 0.006654 -0.939250
v -0.869269 0.140990 -0.926650
v -0.869269 0.006654 -0.926650
v -0.867979 0.140990 -0.913546
v -0.867979 0.006654 -0.913546
v -0.869269 0.140990 -0.900442
v -0.869269 0.006654 -0.900442
v -0.873092 0.140990 -0.887842
v -0.873092 0.006654 -0.887842
v -0.879299 0.140990 -0.876230
v -0.879299 0.006654 -0.876230
v -0.887652 0.140990 -0.866051
v -0.887652 0.006654 -0.866051
v -0.897830 0.140990 -0.857698
v -0.897830 0.006654 -0.857698
v -0.909442 0.140990 -0.851491
v -0.909442 0.006654 -0.851491
v -0.922043 0.140990 -0.847669
v -0.922043 0.006654 -0.847669
v -0.935146 0.993927 -0.846378
v -0.948250 0.993927 -0.847669
v -0.960850 0.993927 -0.851491
v -0.972463 0.993927 -0.857698
v -0.982641 0.993927 -0.866051
v -0.990994 0.993927 -0.876230
v -0.997201 0.993927 -0.887842
v -1.001023 0.993927 -0.900442
v -1.002314 0.993927 -0.913546
v -1.001023 0.993927 -0.926650
v -0.997201 0.993927 -0.939250
v -0.990994 0.993927 -0.950862
v -0.982641 0.993927 -0.961041
v -0.972463 0.993927 -0.969394
v -0.960850 0.993927 -0.975601
v -0.948250 0.993927 -0.979423
v -0.935146 0.993927 -0.980714
v -0.922043 0.993927 -0.979423
v -0.909442 0.993927 -0.975601
v -0.897830 0.993927 -0.969394
v -0.887652 0.993927 -0.961041
v -0.879299 0.993927 -0.950862
v -0.873092 0.993927 -0.939250
v -0.869269 0.993927 -0.926650
v -0.867979 0.993927 -0.913546
v -0.869269 0.993927 -0.900442
v -0.873092 0.993927 -0.887842
v -0.879299 0.993927 -0.876230
v -0.887652 0.993927 -0.866051
v -0.897830 0.993927 -0.857698
v -0.909442 0.993927 -0.851491
v -0.922043 0.993927 -0.847669
v -0.935146 0.140990 0.974829
v -0.935146 0.006654 0.974829
v -0.948250 0.140990 0.973538
v -0.948250 0.006654 0.973538
v -0.960850 0.140990 0.969716
v -0.960850 0.006654 0.969716
v -0.972463 0.140990 0.963509
v -0.972463 0.006654 0.963509
v -0.982641 0.140990 0.955156
v -0.982641 0.006654 0.955156
v -0.990994 0.140990 0.944977
v -0.990994 0.006654 0.944977
v -0.997201 0.140990 0.933365
v -0.997201 0.006654 0.933365
v -1.001023 0.140990 0.920765
v -1.001023 0.006654 0.920765
v -1.002314 0.140990 0.907661
v -1.002314 0.006654 0.907661
v -1.001023 0.140990 0.894557
v -1.001023 0.006654 0.894557
v -0.997201 0.140990 0.881957
v -0.997201 0.006654 0.881957
v -0.990994 0.140990 0.870345
v -0.990994 0.006654 0.870345
v -0.982641 0.140990 0.860166
v -0.982641 0.006654 0.860166
v -0.972463 0.140990 0.851813
v -0.972463 0.006654 0.851813
v -0.960850 0.140990 0.845606
v -0.960850 0.006654 0.845606
v -0.948250 0.140990 0.841784
v -0.948250 0.006654 0.841784
v -0.935146 0.140990 0.840493
v -0.935146 0.006654 0.840493
v -0.922043 0.140990 0.841784
v -0.922043 0.006654 0.841784
v -0.909442 0.140990 0.845606
v -0.909442 0.006654 0.845606
v -0.897830 0.140990 0.851813
v -0.897830 0.006654 0.851813
v -0.887652 0.140990 0.860166
v -0.887652 0.006654 0.860166
v -0.879299 0.140990 0.870345
v -0.879299 0.006654 0.870345
v -0.873092 0.140990 0.881957
v -0.873092 0.006654 0.881957
v -0.869269 0.140990 0.894557
v -0.869269 0.006654 0.894557
v -0.867979 0.140990 0.907661
v -0.867979 0.006654 0.907661
v -0.869269 0.140990 0.920765
v -0.869269 0.006654 0.920765
v -0.873092 0.140990 0.933365
v -0.873092 0.006654 0.933365
v -0.879299 0.140990 0.944977
v -0.879299 0.006654 0.944977
v -0.887652 0.140990 0.955156
v -0.887652 0.006654 0.955156
v -0.897830 0.140990 0.963509
v -0.897830 0.006654 0.963509
v -0.909442 0.140990 0.969716
v -0.909442 0.006654 0.969716
v -0.922043 0.140990 0.973538
v -0.922043 0.006654 0.973538
v -0.935146 0.993927 0.974829
v -0.948250 0.993927 0.973538
v -0.960850 0.993927 0.969716
v -0.972463 0.993927 0.963509
v -0.982641 0.993927 0.955156
v -0.990994 0.993927 0.944977
v -0.997201 0.993927 0.933365
v -1.001023 0.993927 0.920765
v -1.002314 0.993927 0.907661
v -1.001023 0.993927 0.894557
v -0.997201 0.993927 0.881957
v -0.990994 0.993927 0.870345
v -0.982641 0.993927 0.860166
v -0.972463 0.993927 0.851813
v -0.960850 0.993927 0.845606
v -0.948250 0.993927 0.841784
v -0.935146 0.993927 0.840493
v -0.922043 0.993927 0.841784
v -0.909442 0.993927 0.845606
v -0.897830 0.993927 0.851813
v -0.887652 0.993927 0.860166
v -0.879299 0.993927 0.870345
v -0.873092 0.993927 0.881957
v -0.869269 0.993927 0.894557
v -0.867979 0.993927 0.907661
v -0.869269 0.993927 0.920765
v -0.873092 0.993927 0.933365
v -0.879299 0.993927 0.944977
v -0.887652 0.993927 0.955156
v -0.897830 0.993927 0.963509
v -0.909442 0.993927 0.969716
v -0.922043 0.993927 0.973538
v 0.926483 0.137281 0.974829
v 0.926483 0.002946 0.974829
v 0.913379 0.137281 0.973538
v 0.913379 0.002946 0.973538
v 0.900779 0.137281 0.969716
v 0.900779 0.002946 0.969716
v 0.889166 0.137281 0.963509
v 0.889166 0.002946 0.963509
v 0.878988 0.137281 0.955156
v 0.878988 0.002946 0.955156
v 0.870635 0.137281 0.944977
v 0.870635 0.002946 0.944977
v 0.864428 0.137281 0.933365
v 0.864428 0.002946 0.933365
v 0.860606 0.137281 0.920765
v 0.860606 0.002946 0.920765
v 0.859315 0.137281 0.907661
v 0.859315 0.002946 0.907661
v 0.860606 0.137281 0.894557
v 0.860606 0.002946 0.894557
v 0.864428 0.137281 0.881957
v 0.864428 0.002946 0.881957
v 0.870635 0.137281 0.870345
v 0.870635 0.002946 0.870345
v 0.878988 0.137281 0.860166
v 0.878988 0.002946 0.860166
v 0.889166 0.137281 0.851813
v 0.889166 0.002946 0.851813
v 0.900779 0.137281 0.845606
v 0.900779 0.002946 0.845606
v 0.913379 0.137281 0.841784
v 0.913379 0.002946 0.841784
v 0.926483 0.137281 0.840493
v 0.926483 0.002946 0.840493
v 0.939587 0.137281 0.841784
v 0.939587 0.002946 0.841784
v 0.952187 0.137281 0.845606
v 0.952187 0.002946 0.845606
v 0.963799 0.137281 0.851813
v 0.963799 0.002946 0.851813
v 0.973978 0.137281 0.860166
v 0.973978 0.002946 0.860166
v 0.982331 0.137281 0.870345
v 0.982331 0.002946 0.870345
v 0.988538 0.137281 0.881957
v 0.988538 0.002946 0.881957
v 0.992360 0.137281 0.894557
v 0.992360 0.002946 0.894557
v 0.993650 0.137281 0.907661
v 0.993650 0.002946 0.907661
v 0.992360 0.137281 0.920765
v 0.992360 0.002946 0.920765
v 0.988538 0.137281 0.933365
v 0.988538 0.002946 0.933365
v 0.982331 0.137281 0.944977
v 0.982331 0.002946 0.944977
v 0.973978 0.137281 0.955156
v 0.973978 0.002946 0.955156
v 0.963799 0.137281 0.963509
v 0.963799 0.002946 0.963509
v 0.952187 0.137281 0.969716
v 0.952187 0.002946 0.969716
v 0.939587 0.137281 0.973538
v 0.939587 0.002946 0.973538
v 0.926483 0.990219 0.974829
v 0.913379 0.990219 0.973538
v 0.900779 0.990219 0.969716
v 0.889167 0.990219 0.963509
v 0.878988 0.990219 0.955156
v 0.870635 0.990219 0.944977
v 0.864428 0.990219 0.933365
v 0.860606 0.990219 0.920765
v 0.859315 0.990219 0.907661
v 0.860606 0.990219 0.894557
v 0.864428 0.990219 0.881957
v 0.870635 0.990219 0.870345
v 0.878988 0.990219 0.860166
v 0.889167 0.990219 0.851813
v 0.900779 0.990219 0.845606
v 0.913379 0.990219 0.841784
v 0.926483 0.990219 0.840493
v 0.939587 0.990219 0.841784
v 0.952187 0.990219 0.845606
v 0.963799 0.990219 0.851813
v 0.973978 0.990219 0.860166
v 0.982331 0.990219 0.870345
v 0.988538 0.990219 0.881957
v 0.992360 0.990219 0.894557
v 0.993650 0.990219 0.907661
v 0.992360 0.990219 0.920765
v 0.988538 0.990219 0.933365
v 0.982331 0.990219 0.944977
v 0.973978 0.990219 0.955156
v 0.963799 0.990219 0.963509
v 0.952187 0.990219 0.969716
v 0.939587 0.990219 0.973538
v -1.000000 1.005824 1.000000
v 1.000000 1.005824 1.000000
v -1.000000 1.005824 -1.000000
v 1.000000 1.005824 -1.000000
v -1.000000 2.005496 1.000000
v 1.000000 2.005496 1.000000
v -1.000000 2.005496 -1.000000
v 1.000000 2.005496 -1.000000
v -1.000000 1.005824 1.000000
v 1.000000 1.005824 1.000000
v -1.000000 1.005824 -1.000000
v 1.000000 1.005824 -1.000000
v -1.000000 2.005496 1.000000
v 1.000000 2.005496 1.000000
v -1.000000 2.005496 -1.000000
v 1.000000 2.005496 -1.000000
v -1.000000 1.005824 1.000000
v 1.000000 1.005824 1.000000
v -1.000000 1.005824 -1.000000
v 1.000000 1.005824 -1.000000
v -1.000000 2.005496 1.000000
v 1.000000 2.005496 1.000000
v -1.000000 2.005496 -1.000000
v 1.000000 2.005496 -1.000000
v -1.000000 1.005824 1.000000
v -1.000000 2.005496 1.000000
v 0.922774 1.146814 -0.846378
v 0.922774 1.012479 -0.846378
v 0.909670 1.146814 -0.847669
v 0.909670 1.012479 -0.847669
v 0.897070 1.146814 -0.851491
v 0.897070 1.012479 -0.851491
v 0.885458 1.146814 -0.857698
v 0.885458 1.012479 -0.857698
v 0.875279 1.146814 -0.866051
v 0.875279 1.012479 -0.866051
v 0.866926 1.146814 -0.876230
v 0.866926 1.012479 -0.876230
v 0.860719 1.146814 -0.887842
v 0.860719 1.012479 -0.887842
v 0.856897 1.146814 -0.900442
v 0.856897 1.012479 -0.900442
v 0.855606 1.146814 -0.913546
v 0.855606 1.012479 -0.913546
v 0.856897 1.146814 -0.926650
v 0.856897 1.012479 -0.926650
v 0.860719 1.146814 -0.939250
v 0.860719 1.012479 -0.939250
v 0.866926 1.146814 -0.950862
v 0.866926 1.012479 -0.950862
v 0.875279 1.146814 -0.961041
v 0.875279 1.012479 -0.961041
v 0.885458 1.146814 -0.969394
v 0.885458 1.012479 -0.969394
v 0.897070 1.146814 -0.975601
v 0.897070 1.012479 -0.975601
v 0.909670 1.146814 -0.979423
v 0.909670 1.012479 -0.979423
v 0.922774 1.146814 -0.980714
v 0.922774 1.012479 -0.980714
v 0.935878 1.146814 -0.979423
v 0.935878 1.012479 -0.979423
v 0.948478 1.146814 -0.975601
v 0.948478 1.012479 -0.975601
v 0.960090 1.146814 -0.969394
v 0.960090 1.012479 -0.969394
v 0.970269 1.146814 -0.961041
v 0.970269 1.012479 -0.961041
v 0.978622 1.146814 -0.950862
v 0.978622 1.012479 -0.950862
v 0.984829 1.146814 -0.939250
v 0.984829 1.012479 -0.939250
v 0.988651 1.146814 -0.926650
v 0.988651 1.012479 -0.926650
v 0.989941 1.146814 -0.913546
v 0.989941 1.012479 -0.913546
v 0.988651 1.146814 -0.900442
v 0.988651 1.012479 -0.900442
v 0.984829 1.146814 -0.887842
v 0.984829 1.012479 -0.887842
v 0.978622 1.146814 -0.876230
v 0.978622 1.012479 -0.876230
v 0.970269 1.146814 -0.866051
v 0.970269 1.012479 -0.866051
v 0.960090 1.146814 -0.857698
v 0.960090 1.012479 -0.857698
v 0.948478 1.146814 -0.851491
v 0.948478 1.012479 -0.851491
v 0.935878 1.146814 -0.847669
v 0.935878 1.012479 -0.847669
v 0.922774 1.999751 -0.846378
v 0.909670 1.999751 -0.847669
v 0.897070 1.999751 -0.851491
v 0.885458 1.999751 -0.857698
v 0.875279 1.999751 -0.866051
v 0.866926 1.999751 -0.876230
v 0.860719 1.999751 -0.887842
v 0.856897 1.999751 -0.900442
v 0.855606 1.999751 -0.913546
v 0.856897 1.999751 -0.926650
v 0.860719 1.999751 -0.939250
v 0.866926 1.999751 -0.950862
v 0.875279 1.999751 -0.961041
v 0.885458 1.999751 -0.969394
v 0.897070 1.999751 -0.975601
v 0.909670 1.999751 -0.979423
v 0.922774 1.999751 -0.980714
v 0.935878 1.999751 -0.979423
v 0.948478 1.999751 -0.975601
v 0.960090 1.999751 -0.969394
v 0.970269 1.999751 -0.961041
v 0.978622 1.999751 -0.950862
v 0.984829 1.999751 -0.939250
v 0.988651 1.999751 -0.926650
v 0.989942 1.999751 -0.913546
v 0.988651 1.999751 -0.900442
v 0.984829 1.999751 -0.887842
v 0.978622 1.999751 -0.876230
v 0.970269 1.999751 -0.866051
v 0.960090 1.999751 -0.857698
v 0.948478 1.999751 -0.851491
v 0.935878 1.999751 -0.847669
v -0.935146 1.146814 -0.846378
v -0.935146 1.012479 -0.846378
v -0.948250 1.146814 -0.847669
v -0.948250 1.012479 -0.847669
v -0.960850 1.146814 -0.851491
v -0.960850 1.012479 -0.851491
v -0.972463 1.146814 -0.857698
v -0.972463 1.012479 -0.857698
v -0.982641 1.146814 -0.866051
v -0.982641 1.012479 -0.866051
v -0.990994 1.146814 -0.876230
v -0.990994 1.012479 -0.876230
v -0.997201 1.146814 -0.887842
v -0.997201 1.012479 -0.887842
v -1.001023 1.146814 -0.900442
v -1.001023 1.012479 -0.900442
v -1.002314 1.146814 -0.913546
v -1.002314 1.012479 -0.913546
v -1.001023 1.146814 -0.926650
v -1.001023 1.012479 -0.926650
v -0.997201 1.146814 -0.939250
v -0.997201 1.012479 -0.939250
v -0.990994 1.146814 -0.950862
v -0.990994 1.012479 -0.950862
v -0.982641 1.146814 -0.961041
v -0.982641 1.012479 -0.961041
v -0.972463 1.146814 -0.969394
v -0.972463 1.012479 -0.969394
v -0.960850 1.146814 -0.975601
v -0.960850 1.012479 -0.975601
v -0.948250 1.146814 -0.979423
v -0.948250 1.012479 -0.979423
v -0.935146 1.146814 -0.980714
v -0.935146 1.012479 -0.980714
v -0.922043 1.146814 -0.979423
v -0.922043 1.012479 -0.979423
v -0.909442 1.146814 -0.975601
v -0.909442 1.012479 -0.975601
v -0.897830 1.146814 -0.969394
v -0.897830 1.012479 -0.969394
v -0.887652 1.146814 -0.961041
v -0.887652 1.012479 -0.961041
v -0.879299 1.146814 -0.950862
v -0.879299 1.012479 -0.950862
v -0.873092 1.146814 -0.939250
v -0.873092 1.012479 -0.939250
v -0.869269 1.146814 -0.926650
v -0.869269 1.012479 -0.926650
v -0.867979 1.146814 -0.913546
v -0.867979 1.012479 -0.913546
v -0.869269 1.146814 -0.900442
v -0.869269 1.012479 -0.900442
v -0.873092 1.146814 -0.887842
v -0.873092 1.012479 -0.887842
v -0.879299 1.146814 -0.876230
v -0.879299 1.012479 -0.876230
v -0.887652 1.146814 -0.866051
v -0.887652 1.012479 -0.866051
v -0.897830 1.146814 -0.857698
v -0.897830 1.012479 -0.857698
v -0.909442 1.146814 -0.851491
v -0.909442 1.012479 -0.851491
v -0.922043 1.146814 -0.847669
v -0.922043 1.012479 -0.847669
v -0.935146 1.999751 -0.846378
v -0.948250 1.999751 -0.847669
v -0.960850 1.999751 -0.851491
v -0.972463 1.999751 -0.857698
v -0.982641 1.999751 -0.866051
v -0.990994 1.999751 -0.876230
v -0.997201 1.999751 -0.887842
v -1.001023 1.999751 -0.900442
v -1.002314 1.999751 -0.913546
v -1.001023 1.999751 -0.926650
v -0.997201 1.999751 -0.939250
v -0.990994 1.999751 -0.950862
v -0.982641 1.999751 -0.961041
v -0.972463 1.999751 -0.969394
v -0.960850 1.999751 -0.975601
v -0.948250 1.999751 -0.979423
v -0.935146 1.999751 -0.980714
v -0.922043 1.999751 -0.979423
v -0.909442 1.999751 -0.975601
v -0.897830 1.999751 -0.969394
v -0.887652 1.999751 -0.961041
v -0.879299 1.999751 -0.950862
v -0.873092 1.999751 -0.939250
v -0.869269 1.999751 -0.926650
v -0.867979 1.999751 -0.913546
v -0.869269 1.999751 -0.900442
v -0.873092 1.999751 -0.887842
v -0.879299 1.999751 -0.876230
v -0.887652 1.999751 -0.866051
v -0.897830 1.999751 -0.857698
v -0.909442 1.999751 -0.851491
v -0.922043 1.999751 -0.847669
v -0.935146 1.146814 0.974829
v -0.935146 1.012479 0.974829
v -0.948250 1.146814 0.973538
v -0.948250 1.012479 0.973538
v -0.960850 1.146814 0.969716
v -0.960850 1.012479 0.969716
v -0.972463 1.146814 0.963509
v -0.972463 1.012479 0.963509
v -0.982641 1.146814 0.955156
v -0.982641 1.012479 0.955156
v -0.990994 1.146814 0.944977
v -0.990994 1.012479 0.944977
v -0.997201 1.146814 0.933365
v -0.997201 1.012479 0.933365
v -1.001023 1.146814 0.920765
v -1.001023 1.012479 0.920765
v -1.002314 1.146814 0.907661
v -1.002314 1.012479 0.907661
v -1.001023 1.146814 0.894557
v -1.001023 1.012479 0.894557
v -0.997201 1.146814 0.881957
v -0.997201 1.012479 0.881957
v -0.990994 1.146814 0.870345
v -0.990994 1.012479 0.870345
v -0.982641 1.146814 0.860166
v -0.982641 1.012479 0.860166
v -0.972463 1.146814 0.851813
v -0.972463 1.012479 0.851813
v -0.960850 1.146814 0.845606
v -0.960850 1.012479 0.845606
v -0.948250 1.146814 0.841784
v -0.948250 1.012479 0.841784
v -0.935146 1.146814 0.840493
v -0.935146 1.012479 0.840493
v -0.922043 1.146814 0.841784
v -0.922043 1.012479 0.841784
v -0.909442 1.146814 0.845606
v -0.909442 1.012479 0.845606
v -0.897830 1.146814 0.851813
v -0.897830 1.012479 0.851813
v -0.887652 1.146814 0.860166
v -0.887652 1.012479 0.860166
v -0.879299 1.146814 0.870345
v -0.879299 1.012479 0.870345
v -0.873092 1.146814 0.881957
v -0.873092 1.012479 0.881957
v -0.869269 1.146814 0.894557
v -0.869269 1.012479 0.894557
v -0.867979 1.146814 0.907661
v -0.867979 1.012479 0.907661
v -0.869269 1.146814 0.920765
v -0.869269 1.012479 0.920765
v -0.873092 1.146814 0.933365
v -0.873092 1.012479 0.933365
v -0.879299 1.146814 0.944977
v -0.879299 1.012479 0.944977
v -0.887652 1.146814 0.955156
v -0.887652 1.012479 0.955156
v -0.897830 1.146814 0.963509
v -0.897830 1.012479 0.963509
v -0.909442 1.146814 0.969716
v -0.909442 1.012479 0.969716
v -0.922043 1.146814 0.973538
v -0.922043 1.012479 0.973538
v -0.935146 1.999751 0.974829
v -0.948250 1.999751 0.973538
v -0.960850 1.999751 0.969716
v -0.972463 1.999751 0.963509
v -0.982641 1.999751 0.955156
v -0.990994 1.999751 0.944977
v -0.997201 1.999751 0.933365
v -1.001023 1.999751 0.920765
v -1.002314 1.999751 0.907661
v -1.001023 1.999751 0.894557
v -0.997201 1.999751 0.881957
v -0.990994 1.999751 0.870345
v -0.982641 1.999751 0.860166
v -0.972463 1.999751 0.851813
v -0.960850 1.999751 0.845606
v -0.948250 1.999751 0.841784
v -0.935146 1.999751 0.840493
v -0.922043 1.999751 0.841784
v -0.909442 1.999751 0.845606
v -0.897830 1.999751 0.851813
v -0.887652 1.999751 0.860166
v -0.879299 1.999751 0.870345
v -0.873092 1.999751 0.881957
v -0.869269 1.999751 0.894557
v -0.867979 1.999751 0.907661
v -0.869269 1.999751 0.920765
v -0.873092 1.999751 0.933365
v -0.879299 1.999751 0.944977
v -0.887652 1.999751 0.955156
v -0.897830 1.999751 0.963509
v -0.909442 1.999751 0.969716
v -0.922043 1.999751 0.973538
v 0.926483 1.143106 0.974829
v 0.926483 1.008770 0.974829
v 0.913379 1.143106 0.973538
v 0.913379 1.008770 0.973538
v 0.900779 1.143106 0.969716
v 0.900779 1.008770 0.969716
v 0.889166 1.143106 0.963509
v 0.889166 1.008770 0.963509
v 0.878988 1.143106 0.955156
v 0.878988 1.008770 0.955156
v 0.870635 1.143106 0.944977
v 0.870635 1.008770 0.944977
v 0.864428 1.143106 0.933365
v 0.864428 1.008770 0.933365
v 0.860606 1.143106 0.920765
v 0.860606 1.008770 0.920765
v 0.859315 1.143106 0.907661
v 0.859315 1.008770 0.907661
v 0.860606 1.143106 0.894557
v 0.860606 1.008770 0.894557
v 0.864428 1.143106 0.881957
v 0.864428 1.008770 0.881957
v 0.870635 1.143106 0.870345
v 0.870635 1.008770 0.870345
v 0.878988 1.143106 0.860166
v 0.878988 1.008770 0.860166
v 0.889166 1.143106 0.851813
v 0.889166 1.008770 0.851813
v 0.900779 1.143106 0.845606
v 0.900779 1.008770 0.845606
v 0.913379 1.143106 0.841784
v 0.913379 1.008770 0.841784
v 0.926483 1.143106 0.840493
v 0.926483 1.008770 0.840493
v 0.939587 1.143106 0.841784
v 0.939587 1.008770 0.841784
v 0.952187 1.143106 0.845606
v 0.952187 1.008770 0.845606
v 0.963799 1.143106 0.851813
v 0.963799 1.008770 0.851813
v 0.973978 1.143106 0.860166
v 0.973978 1.008770 0.860166
v 0.982331 1.143106 0.870345
v 0.982331 1.008770 0.870345
v 0.988538 1.143106 0.881957
v 0.988538 1.008770 0.881957
v 0.992360 1.143106 0.894557
v 0.992360 1.008770 0.894557
v 0.993650 1.143106 0.907661
v 0.993650 1.008770 0.907661
v 0.992360 1.143106 0.920765
v 0.992360 1.008770 0.920765
v 0.988538 1.143106 0.933365
v 0.988538 1.008770 0.933365
v 0.982331 1.143106 0.944977
v 0.982331 1.008770 0.944977
v 0.973978 1.143106 0.955156
v 0.973978 1.008770 0.955156
v 0.963799 1.143106 0.963509
v 0.963799 1.008770 0.963509
v 0.952187 1.143106 0.969716
v 0.952187 1.008770 0.969716
v 0.939587 1.143106 0.973538
v 0.939587 1.008770 0.973538
v 0.926483 1.996043 0.974829
v 0.913379 1.996043 0.973538
v 0.900779 1.996043 0.969716
v 0.889167 1.996043 0.963509
v 0.878988 1.996043 0.955156
v 0.870635 1.996043 0.944977
v 0.864428 1.996043 0.933365
v 0.860606 1.996043 0.920765
v 0.859315 1.996043 0.907661
v 0.860606 1.996043 0.894557
v 0.864428 1.996043 0.881957
v 0.870635 1.996043 0.870345
v 0.878988 1.996043 0.860166
v 0.889167 1.996043 0.851813
v 0.900779 1.996043 0.845606
v 0.913379 1.996043 0.841784
v 0.926483 1.996043 0.840493
v 0.939587 1.996043 0.841784
v 0.952187 1.996043 0.845606
v 0.963799 1.996043 0.851813
v 0.973978 1.996043 0.860166
v 0.982331 1.996043 0.870345
v 0.988538 1.996043 0.881957
v 0.992360 1.996043 0.894557
v 0.993650 1.996043 0.907661
v 0.992360 1.996043 0.920765
v 0.988538 1.996043 0.933365
v 0.982331 1.996043 0.944977
v 0.973978 1.996043 0.955156
v 0.963799 1.996043 0.963509
v 0.952187 1.996043 0.969716
v 0.939587 1.996043 0.973538
vn -0.0000 1.0000 -0.0000
vn 0.0980 -0.0000 -0.9952
vn 0.2903 -0.0000 -0.9569
vn 0.4714 -0.0000 -0.8819
vn 0.6344 -0.0000 -0.7730
vn 0.7730 -0.0000 -0.6344
vn 0.8819 -0.0000 -0.4714
vn 0.9569 -0.0000 -0.2903
vn 0.9952 -0.0000 -0.0980
vn 0.9952 -0.0000 0.0980
vn 0.9569 -0.0000 0.2903
vn 0.8819 -0.0000 0.4714
vn 0.7730 -0.0000 0.6344
vn 0.6344 -0.0000 0.7730
vn 0.4714 -0.0000 0.8819
vn 0.2903 -0.0000 0.9569
vn 0.0980 -0.0000 0.9952
vn -0.0980 -0.0000 0.9952
vn -0.2903 -0.0000 0.9569
vn -0.4714 -0.0000 0.8819
vn -0.6344 -0.0000 0.7730
vn -0.7730 -0.0000 0.6344
vn -0.8819 -0.0000 0.4714
vn -0.9569 -0.0000 0.2903
vn -0.9952 -0.0000 0.0980
vn -0.9952 -0.0000 -0.0980
vn -0.9569 -0.0000 -0.2903
vn -0.8819 -0.0000 -0.4714
vn -0.7730 -0.0000 -0.6344
vn -0.6344 -0.0000 -0.7730
vn -0.4714 -0.0000 -0.8819
vn -0.2903 -0.0000 -0.9569
vn -0.0980 -0.0000 -0.9952
vn -0.0000 -1.0000 -0.0000
vt 0.000000 0.000000
vt 1.000000 0.000000
vt 1.000000 1.000000
vt 0.000000 1.000000
vt 1.000000 0.500000
vt 0.968750 1.000000
vt 0.968750 0.500000
vt 0.937500 1.000000
vt 0.937500 0.500000
vt 0.906250 1.000000
vt 0.906250 0.500000
vt 0.875000 1.000000
vt 0.875000 0.500000
vt 0.843750 1.000000
vt 0.843750 0.500000
vt 0.812500 1.000000
vt 0.812500 0.500000
vt 0.781250 1.000000
vt 0.781250 0.500000
vt 0.750000 1.000000
vt 0.750000 0.500000
vt 0.718750 1.000000
vt 0.718750 0.500000
vt 0.687500 1.000000
vt 0.687500 0.500000
vt 0.656250 1.000000
vt 0.656250 0.500000
vt 0.625000 1.000000
vt 0.625000 0.500000
vt 0.593750 1.000000
vt 0.593750 0.500000
vt 0.562500 1.000000
vt 0.562500 0.500000
vt 0.531250 1.000000
vt 0.531250 0.500000
vt 0.500000 1.000000
vt 0.500000 0.500000
vt 0.468750 1.000000
vt 0.468750 0.500000
vt 0.437500 1.000000
vt 0.437500 0.500000
vt 0.406250 1.000000
vt 0.406250 0.500000
vt 0.375000 1.000000
vt 0.375000 0.500000
vt 0.343750 1.000000
vt 0.343750 0.500000
vt 0.312500 1.000000
vt 0.312500 0.500000
vt 0.281250 1.000000
vt 0.281250 0.500000
vt 0.250000 1.000000
vt 0.250000 0.500000
vt 0.218750 1.000000
vt 0.218750 0.500000
vt 0.187500 1.000000
vt 0.187500 0.500000
vt 0.156250 1.000000
vt 0.156250 0.500000
vt 0.125000 1.000000
vt 0.125000 0.500000
vt 0.093750 1.000000
vt 0.093750 0.500000
vt 0.062500 1.000000
vt 0.062500 0.500000
vt 0.296822 0.485388
vt 0.250000 0.490000
vt 0.203178 0.485388
vt 0.158156 0.471731
vt 0.116663 0.449553
vt 0.080294 0.419706
vt 0.050447 0.383337
vt 0.028269 0.341844
vt 0.014612 0.296822
vt 0.010000 0.250000
vt 0.014612 0.203178
vt 0.028269 0.158156
vt 0.050447 0.116663
vt 0.080294 0.080294
vt 0.116663 0.050447
vt 0.158156 0.028269
vt 0.203178 0.014612
vt 0.250000 0.010000
vt 0.296822 0.014612
vt 0.341844 0.028269
vt 0.383337 0.050447
vt 0.419706 0.080294
vt 0.449553 0.116663
vt 0.471731 0.158156
vt 0.485388 0.203178
vt 0.490000 0.250000
vt 0.485388 0.296822
vt 0.471731 0.341844
vt 0.449553 0.383337
vt 0.419706 0.419706
vt 0.383337 0.449553
vt 0.341844 0.471731
vt 0.031250 1.000000
vt 0.031250 0.500000
vt 0.000000 0.500000
vt 0.750000 0.490000
vt 0.796822 0.485388
vt 0.841844 0.471731
vt 0.883337 0.449553
vt 0.919706 0.419706
vt 0.949553 0.383337
vt 0.971731 0.341844
vt 0.985388 0.296822
vt 0.990000 0.250000
vt 0.985388 0.203178
vt 0.971731 0.158156
vt 0.949553 0.116663
vt 0.919706 0.080294
vt 0.883337 0.050447
vt 0.841844 0.028269
vt 0.796822 0.014612
vt 0.750000 0.010000
vt 0.703178 0.014612
vt 0.658156 0.028269
vt 0.616663 0.050447
vt 0.580294 0.080294
vt 0.550447 0.116663
vt 0.528269 0.158156
vt 0.514612 0.203178
vt 0.510000 0.250000
vt 0.514612 0.296822
vt 0.528269 0.341844
vt 0.550447 0.383337
vt 0.580294 0.419706
vt 0.616663 0.449553
vt 0.658156 0.471731
vt 0.703178 0.485388
s 0
f 1/1/1 2/2/1 4/3/1 3/4/1
f 5/1/1 6/2/1 8/3/1 7/4/1
f 6/1/1 2/1/1 10/1/1 14/1/1
f 7/1/1 3/1/1 11/1/1 15/1/1
f 5/1/1 1/1/1 9/1/1 13/1/1
f 8/1/1 4/1/1 12/1/1 16/1/1
f 14/1/1 10/1/1 18/1/1 22/1/1
f 15/1/1 11/1/1 19/1/1 23/1/1
f 13/1/1 9/1/1 17/1/1 21/1/1
f 16/1/1 12/1/1 20/1/1 24/1/1
f 21/1/1 17/1/1 25/1/1 26/1/1
f 27/5/2 28/3/2 30/6/2 29/7/2
f 29/7/3 30/6/3 32/8/3 31/9/3
f 31/9/4 32/8/4 34/10/4 33/11/4
f 33/11/5 34/10/5 36/12/5 35/13/5
f 35/13/6 36/12/6 38/14/6 37/15/6
f 37/15/7 38/14/7 40/16/7 39/17/7
f 39/17/8 40/16/8 42/18/8 41/19/8
f 41/19/9 42/18/9 44/20/9 43/21/9
f 43/21/10 44/20/10 46/22/10 45/23/10
f 45/23/11 46/22/11 48/24/11 47/25/11
f 47/25/12 48/24/12 50/26/12 49/27/12
f 49/27/13 50/26/13 52/28/13 51/29/13
f 51/29/14 52/28/14 54/30/14 53/31/14
f 53/31/15 54/30/15 56/32/15 55/33/15
f 55/33/16 56/32/16 58/34/16 57/35/16
f 57/35/17 58/34/17 60/36/17 59/37/17
f 59/37/18 60/36/18 62/38/18 61/39/18
f 61/39/19 62/38/19 64/40/19 63/41/19
f 63/41/20 64/40/20 66/42/20 65/43/20
f 65/43/21 66/42/21 68/44/21 67/45/21
f 67/45/22 68/44/22 70/46/22 69/47/22
f 69/47/23 70/46/23 72/48/23 71/49/23
f 71/49/24 72/48/24 74/50/24 73/51/24
f 73/51/25 74/50/25 76/52/25 75/53/25
f 75/53/26 76/52/26 78/54/26 77/55/26
f 77/55/27 78/54/27 80/56/27 79/57/27
f 79/57/28 80/56/28 82/58/28 81/59/28
f 81/59/29 82/58/29 84/60/29 83/61/29
f 83/61/30 84/60/30 86/62/30 85/63/30
f 85/63/31 86/62/31 88/64/31 87/65/31
f 30/66/1 28/67/1 90/68/1 88/69/1 86/70/1 84/71/1 82/72/1 80/73/1 78/74/1 76/75/1 74/76/1 72/77/1 70/78/1 68/79/1 66/80/1 64/81/1 62/82/1 60/83/1 58/84/1 56/85/1 54/86/1 52/87/1 50/88/1 48/89/1 46/90/1 44/91/1 42/92/1 40/93/1 38/94/1 36/95/1 34/96/1 32/97/1
f 87/65/32 88/64/32 90/98/32 89/99/32
f 89/99/33 90/98/33 28/4/33 27/100/33
f 83/61/30 85/63/30 120/63/30 119/61/30
f 91/101/34 92/102/34 93/103/34 94/104/34 95/105/34 96/106/34 97/107/34 98/108/34 99/109/34 100/110/34 101/111/34 102/112/34 103/113/34 104/114/34 105/115/34 106/116/34 107/117/34 108/118/34 109/119/34 110/120/34 111/121/34 112/122/34 113/123/34 114/124/34 115/125/34 116/126/34 117/127/34 118/128/34 119/129/34 120/130/34 121/131/34 122/132/34
f 39/17/8 41/19/8 98/19/8 97/17/8
f 57/35/17 59/37/17 107/37/17 106/35/17
f 75/53/26 77/55/26 116/55/26 115/53/26
f 31/9/4 33/11/4 94/11/4 93/9/4
f 49/27/13 51/29/13 103/29/13 102/27/13
f 67/45/22 69/47/22 112/47/22 111/45/22
f 85/63/31 87/65/31 121/65/31 120/63/31
f 41/19/9 43/21/9 99/21/9 98/19/9
f 59/37/18 61/39/18 108/39/18 107/37/18
f 77/55/27 79/57/27 117/57/27 116/55/27
f 33/11/5 35/13/5 95/13/5 94/11/5
f 51/29/14 53/31/14 104/31/14 103/29/14
f 69/47/23 71/49/23 113/49/23 112/47/23
f 87/65/32 89/99/32 122/99/32 121/65/32
f 43/21/10 45/23/10 100/23/10 99/21/10
f 61/39/19 63/41/19 109/41/19 108/39/19
f 79/57/28 81/59/28 118/59/28 117/57/28
f 35/13/6 37/15/6 96/15/6 95/13/6
f 53/31/15 55/33/15 105/33/15 104/31/15
f 71/49/24 73/51/24 114/51/24 113/49/24
f 27/5/2 29/7/2 92/7/2 91/5/2
f 89/99/33 27/100/33 91/100/33 122/99/33
f 45/23/11 47/25/11 101/25/11 100/23/11
f 63/41/20 65/43/20 110/43/20 109/41/20
f 81/59/29 83/61/29 119/61/29 118/59/29
f 37/15/7 39/17/7 97/17/7 96/15/7
f 55/33/16 57/35/16 106/35/16 105/33/16
f 73/51/25 75/53/25 115/53/25 114/51/25
f 29/7/3 31/9/3 93/9/3 92/7/3
f 47/25/12 49/27/12 102/27/12 101/25/12
f 65/43/21 67/45/21 111/45/21 110/43/21
f 123/5/2 124/3/2 126/6/2 125/7/2
f 125/7/3 126/6/3 128/8/3 127/9/3
f 127/9/4 128/8/4 130/10/4 129/11/4
f 129/11/5 130/10/5 132/12/5 131/13/5
f 131/13/6 132/12/6 134/14/6 133/15/6
f 133/15/7 134/14/7 136/16/7 135/17/7
f 135/17/8 136/16/8 138/18/8 137/19/8
f 137/19/9 138/18/9 140/20/9 139/21/9
f 139/21/10 140/20/10 142/22/10 141/23/10
f 141/23/11 142/22/11 144/24/11 143/25/11
f 143/25/12 144/24/12 146/26/12 145/27/12
f 145/27/13 146/26/13 148/28/13 147/29/13
f 147/29/14 148/28/14 150/30/14 149/31/14
f 149/31/15 150/30/15 152/32/15 151/33/15
f 151/33/16 152/32/16 154/34/16 153/35/16
f 153/35/17 154/34/17 156/36/17 155/37/17
f 155/37/18 156/36/18 158/38/18 157/39/18
f 157/39/19 158/38/19 160/40/19 159/41/19
f 159/41/20 160/40/20 162/42/20 161/43/20
f 161/43/21 162/42/21 164/44/21 163/45/21
f 163/45/22 164/44/22 166/46/22 165/47/22
f 165/47/23 166/46/23 168/48/23 167/49/23
f 167/49/24 168/48/24 170/50/24 169/51/24
f 169/51/25 170/50/25 172/52/25 171/53/25
f 171/53/26 172/52/26 174/54/26 173/55/26
f 173/55/27 174/54/27 176/56/27 175/57/27
f 175/57/28 176/56/28 178/58/28 177/59/28
f 177/59/29 178/58/29 180/60/29 179/61/29
f 179/61/30 180/60/30 182/62/30 181/63/30
f 181/63/31 182/62/31 184/64/31 183/65/31
f 126/66/1 124/67/1 186/68/1 184/69/1 182/70/1 180/71/1 178/72/1 176/73/1 174/74/1 172/75/1 170/76/1 168/77/1 166/78/1 164/79/1 162/80/1 160/81/1 158/82/1 156/83/1 154/84/1 152/85/1 150/86/1 148/87/1 146/88/1 144/89/1 142/90/1 140/91/1 138/92/1 136/93/1 134/94/1 132/95/1 130/96/1 128/97/1
f 183/65/32 184/64/32 186/98/32 185/99/32
f 185/99/33 186/98/33 124/4/33 123/100/33
f 179/61/30 181/63/30 216/63/30 215/61/30
f 187/101/34 188/102/34 189/103/34 190/104/34 191/105/34 192/106/34 193/107/34 194/108/34 195/109/34 196/110/34 197/111/34 198/112/34 199/113/34 200/114/34 201/115/34 202/116/34 203/117/34 204/118/34 205/119/34 206/120/34 207/121/34 208/122/34 209/123/34 210/124/34 211/125/34 212/126/34 213/127/34 214/128/34 215/129/34 216/130/34 217/131/34 218/132/34
f 135/17/8 137/19/8 194/19/8 193/17/8
f 153/35/17 155/37/17 203/37/17 202/35/17
f 171/53/26 173/55/26 212/55/26 211/53/26
f 127/9/4 129/11/4 190/11/4 189/9/4
f 145/27/13 147/29/13 199/29/13 198/27/13
f 163/45/22 165/47/22 208/47/22 207/45/22
f 181/63/31 183/65/31 217/65/31 216/63/31
f 137/19/9 139/21/9 195/21/9 194/19/9
f 155/37/18 157/39/18 204/39/18 203/37/18
f 173/55/27 175/57/27 213/57/27 212/55/27
f 129/11/5 131/13/5 191/13/5 190/11/5
f 147/29/14 149/31/14 200/31/14 199/29/14
f 165/47/23 167/49/23 209/49/23 208/47/23
f 183/65/32 185/99/32 218/99/32 217/65/32
f 139/21/10 141/23/10 196/23/10 195/21/10
f 157/39/19 159/41/19 205/41/19 204/39/19
f 175/57/28 177/59/28 214/59/28 213/57/28
f 131/13/6 133/15/6 192/15/6 191/13/6
f 149/31/15 151/33/15 201/33/15 200/31/15
f 167/49/24 169/51/24 210/51/24 209/49/24
f 123/5/2 125/7/2 188/7/2 187/5/2
f 185/99/33 123/100/33 187/100/33 218/99/33
f 141/23/11 143/25/11 197/25/11 196/23/11
f 159/41/20 161/43/20 206/43/20 205/41/20
f 177/59/29 179/61/29 215/61/29 214/59/29
f 133/15/7 135/17/7 193/17/7 192/15/7
f 151/33/16 153/35/16 202/35/16 201/33/16
f 169/51/25 171/53/25 211/53/25 210/51/25
f 125/7/3 127/9/3 189/9/3 188/7/3
f 143/25/12 145/27/12 198/27/12 197/25/12
f 161/43/21 163/45/21 207/45/21 206/43/21
f 219/5/2 220/3/2 222/6/2 221/7/2
f 221/7/3 222/6/3 224/8/3 223/9/3
f 223/9/4 224/8/4 226/10/4 225/11/4
f 225/11/5 226/10/5 228/12/5 227/13/5
f 227/13/6 228/12/6 230/14/6 229/15/6
f 229/15/7 230/14/7 232/16/7 231/17/7
f 231/17/8 232/16/8 234/18/8 233/19/8
f 233/19/9 234/18/9 236/20/9 235/21/9
f 235/21/10 236/20/10 238/22/10 237/23/10
f 237/23/11 238/22/11 240/24/11 239/25/11
f 239/25/12 240/24/12 242/26/12 241/27/12
f 241/27/13 242/26/13 244/28/13 243/29/13
f 243/29/14 244/28/14 246/30/14 245/31/14
f 245/31/15 246/30/15 248/32/15 247/33/15
f 247/33/16 248/32/16 250/34/16 249/35/16
f 249/35/17 250/34/17 252/36/17 251/37/17
f 251/37/18 252/36/18 254/38/18 253/39/18
f 253/39/19 254/38/19 256/40/19 255/41/19
f 255/41/20 256/40/20 258/42/20 257/43/20
f 257/43/21 258/42/21 260/44/21 259/45/21
f 259/45/22 260/44/22 262/46/22 261/47/22
f 261/47/23 262/46/23 264/48/23 263/49/23
f 263/49/24 264/48/24 266/50/24 265/51/24
f 265/51/25 266/50/25 268/52/25 267/53/25
f 267/53/26 268/52/26 270/54/26 269/55/26
f 269/55/27 270/54/27 272/56/27 271/57/27
f 271/57/28 272/56/28 274/58/28 273/59/28
f 273/59/29 274/58/29 276/60/29 275/61/29
f 275/61/30 276/60/30 278/62/30 277/63/30
f 277/63/31 278/62/31 280/64/31 279/65/31
f 222/66/1 220/67/1 282/68/1 280/69/1 278/70/1 276/71/1 274/72/1 272/73/1 270/74/1 268/75/1 266/76/1 264/77/1 262/78/1 260/79/1 258/80/1 256/81/1 254/82/1 252/83/1 250/84/1 248/85/1 246/86/1 244/87/1 242/88/1 240/89/1 238/90/1 236/91/1 234/92/1 232/93/1 230/94/1 228/95/1 226/96/1 224/97/1
f 279/65/32 280/64/32 282/98/32 281/99/32
f 281/99/33 282/98/33 220/4/33 219/100/33
f 275/61/30 277/63/30 312/63/30 311/61/30
f 283/101/34 284/102/34 285/103/34 286/104/34 287/105/34 288/106/34 289/107/34 290/108/34 291/109/34 292/110/34 293/111/34 294/112/34 295/113/34 296/114/34 297/115/34 298/116/34 299/117/34 300/118/34 301/119/34 302/120/34 303/121/34 304/122/34 305/123/34 306/124/34 307/125/34 308/126/34 309/127/34 310/128/34 311/129/34 312/130/34 313/131/34 314/132/34
f 231/17/8 233/19/8 290/19/8 289/17/8
f 249/35/17 251/37/17 299/37/17 298/35/17
f 267/53/26 269/55/26 308/55/26 307/53/26
f 223/9/4 225/11/4 286/11/4 285/9/4
f 241/27/13 243/29/13 295/29/13 294/27/13
f 259/45/22 261/47/22 304/47/22 303/45/22
f 277/63/31 279/65/31 313/65/31 312/63/31
f 233/19/9 235/21/9 291/21/9 290/19/9
f 251/37/18 253/39/18 300/39/18 299/37/18
f 269/55/27 271/57/27 309/57/27 308/55/27
f 225/11/5 227/13/5 287/13/5 286/11/5
f 243/29/14 245/31/14 296/31/14 295/29/14
f 261/47/23 263/49/23 305/49/23 304/47/23
f 279/65/32 281/99/32 314/99/32 313/65/32
f 235/21/10 237/23/10 292/23/10 291/21/10
f 253/39/19 255/41/19 301/41/19 300/39/19
f 271/57/28 273/59/28 310/59/28 309/57/28
f 227/13/6 229/15/6 288/15/6 287/13/6
f 245/31/15 247/33/15 297/33/15 296/31/15
f 263/49/24 265/51/24 306/51/24 305/49/24
f 219/5/2 221/7/2 284/7/2 283/5/2
f 281/99/33 219/100/33 283/100/33 314/99/33
f 237/23/11 239/25/11 293/25/11 292/23/11
f 255/41/20 257/43/20 302/43/20 301/41/20
f 273/59/29 275/61/29 311/61/29 310/59/29
f 229/15/7 231/17/7 289/17/7 288/15/7
f 247/33/16 249/35/16 298/35/16 297/33/16
f 265/51/25 267/53/25 307/53/25 306/51/25
f 221/7/3 223/9/3 285/9/3 284/7/3
f 239/25/12 241/27/12 294/27/12 293/25/12
f 257/43/21 259/45/21 303/45/21 302/43/21
f 315/5/2 316/3/2 318/6/2 317/7/2
f 317/7/3 318/6/3 320/8/3 319/9/3
f 319/9/4 320/8/4 322/10/4 321/11/4
f 321/11/5 322/10/5 324/12/5 323/13/5
f 323/13/6 324/12/6 326/14/6 325/15/6
f 325/15/7 326/14/7 328/16/7 327/17/7
f 327/17/8 328/16/8 330/18/8 329/19/8
f 329/19/9 330/18/9 332/20/9 331/21/9
f 331/21/10 332/20/10 334/22/10 333/23/10
f 333/23/11 334/22/11 336/24/11 335/25/11
f 335/25/12 336/24/12 338/26/12 337/27/12
f 337/27/13 338/26/13 340/28/13 339/29/13
f 339/29/14 340/28/14 342/30/14 341/31/14
f 341/31/15 342/30/15 344/32/15 343/33/15
f 343/33/16 344/32/16 346/34/16 345/35/16
f 345/35/17 346/34/17 348/36/17 347/37/17
f 347/37/18 348/36/18 350/38/18 349/39/18
f 349/39/19 350/38/19 352/40/19 351/41/19
f 351/41/20 352/40/20 354/42/20 353/43/20
f 353/43/21 354/42/21 356/44/21 355/45/21
f 355/45/22 356/44/22 358/46/22 357/47/22
f 357/47/23 358/46/23 360/48/23 359/49/23
f 359/49/24 360/48/24 362/50/24 361/51/24
f 361/51/25 362/50/25 364/52/25 363/53/25
f 363/53/26 364/52/26 366/54/26 365/55/26
f 365/55/27 366/54/27 368/56/27 367/57/27
f 367/57/28 368/56/28 370/58/28 369/59/28
f 369/59/29 370/58/29 372/60/29 371/61/29
f 371/61/30 372/60/30 374/62/30 373/63/30
f 373/63/31 374/62/31 376/64/31 375/65/31
f 318/66/1 316/67/1 378/68/1 376/69/1 374/70/1 372/71/1 370/72/1 368/73/1 366/74/1 364/75/1 362/76/1 360/77/1 358/78/1 356/79/1 354/80/1 352/81/1 350/82/1 348/83/1 346/84/1 344/85/1 342/86/1 340/87/1 338/88/1 336/89/1 334/90/1 332/91/1 330/92/1 328/93/1 326/94/1 324/95/1 322/96/1 320/97/1
f 375/65/32 376/64/32 378/98/32 377/99/32
f 377/99/33 378/98/33 316/4/33 315/100/33
f 371/61/30 373/63/30 408/63/30 407/61/30
f 379/101/34 380/102/34 381/103/34 382/104/34 383/105/34 384/106/34 385/107/34 386/108/34 387/109/34 388/110/34 389/111/34 390/112/34 391/113/34 392/114/34 393/115/34 394/116/34 395/117/34 396/118/34 397/119/34 398/120/34 399/121/34 400/122/34 401/123/34 402/124/34 403/125/34 404/126/34 405/127/34 406/128/34 407/129/34 408/130/34 409/131/34 410/132/34
f 327/17/8 329/19/8 386/19/8 385/17/8
f 345/35/17 347/37/17 395/37/17 394/35/17
f 363/53/26 365/55/26 404/55/26 403/53/26
f 319/9/4 321/11/4 382/11/4 381/9/4
f 337/27/13 339/29/13 391/29/13 390/27/13
f 355/45/22 357/47/22 400/47/22 399/45/22
f 373/63/31 375/65/31 409/65/31 408/63/31
f 329/19/9 331/21/9 387/21/9 386/19/9
f 347/37/18 349/39/18 396/39/18 395/37/18
f 365/55/27 367/57/27 405/57/27 404/55/27
f 321/11/5 323/13/5 383/13/5 382/11/5
f 339/29/14 341/31/14 392/31/14 391/29/14
f 357/47/23 359/49/23 401/49/23 400/47/23
f 375/65/32 377/99/32 410/99/32 409/65/32
f 331/21/10 333/23/10 388/23/10 387/21/10
f 349/39/19 351/41/19 397/41/19 396/39/19
f 367/57/28 369/59/28 406/59/28 405/57/28
f 323/13/6 325/15/6 384/15/6 383/13/6
f 341/31/15 343/33/15 393/33/15 392/31/15
f 359/49/24 361/51/24 402/51/24 401/49/24
f 315/5/2 317/7/2 380/7/2 379/5/2
f 377/99/33 315/100/33 379/100/33 410/99/33
f 333/23/11 335/25/11 389/25/11 388/23/11
f 351/41/20 353/43/20 398/43/20 397/41/20
f 369/59/29 371/61/29 407/61/29 406/59/29
f 325/15/7 327/17/7 385/17/7 384/15/7
f 343/33/16 345/35/16 394/35/16 393/33/16
f 361/51/25 363/53/25 403/53/25 402/51/25
f 317/7/3 319/9/3 381/9/3 380/7/3
f 335/25/12 337/27/12 390/27/12 389/25/12
f 353/43/21 355/45/21 399/45/21 398/43/21
f 415/1/1 416/2/1 418/3/1 417/4/1
f 416/1/1 412/1/1 420/1/1 424/1/1
f 417/1/1 413/1/1 421/1/1 425/1/1
f 415/1/1 411/1/1 419/1/1 423/1/1
f 418/1/1 414/1/1 422/1/1 426/1/1
f 424/1/1 420/1/1 428/1/1 432/1/1
f 425/1/1 421/1/1 429/1/1 433/1/1
f 423/1/1 419/1/1 427/1/1 431/1/1
f 426/1/1 422/1/1 430/1/1 434/1/1
f 437/5/2 438/3/2 440/6/2 439/7/2
f 439/7/3 440/6/3 442/8/3 441/9/3
f 441/9/4 442/8/4 444/10/4 443/11/4
f 443/11/5 444/10/5 446/12/5 445/13/5
f 445/13/6 446/12/6 448/14/6 447/15/6
f 447/15/7 448/14/7 450/16/7 449/17/7
f 449/17/8 450/16/8 452/18/8 451/19/8
f 451/19/9 452/18/9 454/20/9 453/21/9
f 453/21/10 454/20/10 456/22/10 455/23/10
f 455/23/11 456/22/11 458/24/11 457/25/11
f 457/25/12 458/24/12 460/26/12 459/27/12
f 459/27/13 460/26/13 462/28/13 461/29/13
f 461/29/14 462/28/14 464/30/14 463/31/14
f 463/31/15 464/30/15 466/32/15 465/33/15
f 465/33/16 466/32/16 468/34/16 467/35/16
f 467/35/17 468/34/17 470/36/17 469/37/17
f 469/37/18 470/36/18 472/38/18 471/39/18
f 471/39/19 472/38/19 474/40/19 473/41/19
f 473/41/20 474/40/20 476/42/20 475/43/20
f 475/43/21 476/42/21 478/44/21 477/45/21
f 477/45/22 478/44/22 480/46/22 479/47/22
f 479/47/23 480/46/23 482/48/23 481/49/23
f 481/49/24 482/48/24 484/50/24 483/51/24
f 483/51/25 484/50/25 486/52/25 485/53/25
f 485/53/26 486/52/26 488/54/26 487/55/26
f 487/55/27 488/54/27 490/56/27 489/57/27
f 489/57/28 490/56/28 492/58/28 491/59/28
f 491/59/29 492/58/29 494/60/29 493/61/29
f 493/61/30 494/60/30 496/62/30 495/63/30
f 495/63/31 496/62/31 498/64/31 497/65/31
f 440/66/1 438/67/1 500/68/1 498/69/1 496/70/1 494/71/1 492/72/1 490/73/1 488/74/1 486/75/1 484/76/1 482/77/1 480/78/1 478/79/1 476/80/1 474/81/1 472/82/1 470/83/1 468/84/1 466/85/1 464/86/1 462/87/1 460/88/1 458/89/1 456/90/1 454/91/1 452/92/1 450/93/1 448/94/1 446/95/1 444/96/1 442/97/1
f 497/65/32 498/64/32 500/98/32 499/99/32
f 499/99/33 500/98/33 438/4/33 437/100/33
f 493/61/30 495/63/30 530/63/30 529/61/30
f 501/101/34 502/102/34 503/103/34 504/104/34 505/105/34 506/106/34 507/107/34 508/108/34 509/109/34 510/110/34 511/111/34 512/112/34 513/113/34 514/114/34 515/115/34 516/116/34 517/117/34 518/118/34 519/119/34 520/120/34 521/121/34 522/122/34 523/123/34 524/124/34 525/125/34 526/126/34 527/127/34 528/128/34 529/129/34 530/130/34 531/131/34 532/132/34
f 449/17/8 451/19/8 508/19/8 507/17/8
f 467/35/17 469/37/17 517/37/17 516/35/17
f 485/53/26 487/55/26 526/55/26 525/53/26
f 441/9/4 443/11/4 504/11/4 503/9/4
f 459/27/13 461/29/13 513/29/13 512/27/13
f 477/45/22 479/47/22 522/47/22 521/45/22
f 495/63/31 497/65/31 531/65/31 530/63/31
f 451/19/9 453/21/9 509/21/9 508/19/9
f 469/37/18 471/39/18 518/39/18 517/37/18
f 487/55/27 489/57/27 527/57/27 526/55/27
f 443/11/5 445/13/5 505/13/5 504/11/5
f 461/29/14 463/31/14 514/31/14 513/29/14
f 479/47/23 481/49/23 523/49/23 522/47/23
f 497/65/32 499/99/32 532/99/32 531/65/32
f 453/21/10 455/23/10 510/23/10 509/21/10
f 471/39/19 473/41/19 519/41/19 518/39/19
f 489/57/28 491/59/28 528/59/28 527/57/28
f 445/13/6 447/15/6 506/15/6 505/13/6
f 463/31/15 465/33/15 515/33/15 514/31/15
f 481/49/24 483/51/24 524/51/24 523/49/24
f 437/5/2 439/7/2 502/7/2 501/5/2
f 499/99/33 437/100/33 501/100/33 532/99/33
f 455/23/11 457/25/11 511/25/11 510/23/11
f 473/41/20 475/43/20 520/43/20 519/41/20
f 491/59/29 493/61/29 529/61/29 528/59/29
f 447/15/7 449/17/7 507/17/7 506/15/7
f 465/33/16 467/35/16 516/35/16 515/33/16
f 483/51/25 485/53/25 525/53/25 524/51/25
f 439/7/3 441/9/3 503/9/3 502/7/3
f 457/25/12 459/27/12 512/27/12 511/25/12
f 475/43/21 477/45/21 521/45/21 520/43/21
f 533/5/2 534/3/2 536/6/2 535/7/2
f 535/7/3 536/6/3 538/8/3 537/9/3
f 537/9/4 538/8/4 540/10/4 539/11/4
f 539/11/5 540/10/5 542/12/5 541/13/5
f 541/13/6 542/12/6 544/14/6 543/15/6
f 543/15/7 544/14/7 546/16/7 545/17/7
f 545/17/8 546/16/8 548/18/8 547/19/8
f 547/19/9 548/18/9 550/20/9 549/21/9
f 549/21/10 550/20/10 552/22/10 551/23/10
f 551/23/11 552/22/11 554/24/11 553/25/11
f 553/25/12 554/24/12 556/26/12 555/27/12
f 555/27/13 556/26/13 558/28/13 557/29/13
f 557/29/14 558/28/14 560/30/14 559/31/14
f 559/31/15 560/30/15 562/32/15 561/33/15
f 561/33/16 562/32/16 564/34/16 563/35/16
f 563/35/17 564/34/17 566/36/17 565/37/17
f 565/37/18 566/36/18 568/38/18 567/39/18
f 567/39/19 568/38/19 570/40/19 569/41/19
f 569/41/20 570/40/20 572/42/20 571/43/20
f 571/43/21 572/42/21 574/44/21 573/45/21
f 573/45/22 574/44/22 576/46/22 575/47/22
f 575/47/23 576/46/23 578/48/23 577/49/23
f 577/49/24 578/48/24 580/50/24 579/51/24
f 579/51/25 580/50/25 582/52/25 581/53/25
f 581/53/26 582/52/26 584/54/26 583/55/26
f 583/55/27 584/54/27 586/56/27 585/57/27
f 585/57/28 586/56/28 588/58/28 587/59/28
f 587/59/29 588/58/29 590/60/29 589/61/29
f 589/61/30 590/60/30 592/62/30 591/63/30
f 591/63/31 592/62/31 594/64/31 593/65/31
f 536/66/1 534/67/1 596/68/1 594/69/1 592/70/1 590/71/1 588/72/1 586/73/1 584/74/1 582/75/1 580/76/1 578/77/1 576/78/1 574/79/1 572/80/1 570/81/1 568/82/1 566/83/1 564/84/1 562/85/1 560/86/1 558/87/1 556/88/1 554/89/1 552/90/1 550/91/1 548/92/1 546/93/1 544/94/1 542/95/1 540/96/1 538/97/1
f 593/65/32 594/64/32 596/98/32 595/99/32
f 595/99/33 596/98/33 534/4/33 533/100/33
f 589/61/30 591/63/30 626/63/30 625/61/30
f 597/101/34 598/102/34 599/103/34 600/104/34 601/105/34 602/106/34 603/107/34 604/108/34 605/109/34 606/110/34 607/111/34 608/112/34 609/113/34 610/114/34 611/115/34 612/116/34 613/117/34 614/118/34 615/119/34 616/120/34 617/121/34 618/122/34 619/123/34 620/124/34 621/125/34 622/126/34 623/127/34 624/128/34 625/129/34 626/130/34 627/131/34 628/132/34
f 545/17/8 547/19/8 604/19/8 603/17/8
f 563/35/17 565/37/17 613/37/17 612/35/17
f 581/53/26 583/55/26 622/55/26 621/53/26
f 537/9/4 539/11/4 600/11/4 599/9/4
f 555/27/13 557/29/13 609/29/13 608/27/13
f 573/45/22 575/47/22 618/47/22 617/45/22
f 591/63/31 593/65/31 627/65/31 626/63/31
f 547/19/9 549/21/9 605/21/9 604/19/9
f 565/37/18 567/39/18 614/39/18 613/37/18
f 583/55/27 585/57/27 623/57/27 622/55/27
f 539/11/5 541/13/5 601/13/5 600/11/5
f 557/29/14 559/31/14 610/31/14 609/29/14
f 575/47/23 577/49/23 619/49/23 618/47/23
f 593/65/32 595/99/32 628/99/32 627/65/32
f 549/21/10 551/23/10 606/23/10 605/21/10
f 567/39/19 569/41/19 615/41/19 614/39/19
f 585/57/28 587/59/28 624/59/28 623/57/28
f 541/13/6 543/15/6 602/15/6 601/13/6
f 559/31/15 561/33/15 611/33/15 610/31/15
f 577/49/24 579/51/24 620/51/24 619/49/24
f 533/5/2 535/7/2 598/7/2 597/5/2
f 595/99/33 533/100/33 597/100/33 628/99/33
f 551/23/11 553/25/11 607/25/11 606/23/11
f 569/41/20 571/43/20 616/43/20 615/41/20
f 587/59/29 589/61/29 625/61/29 624/59/29
f 543/15/7 545/17/7 603/17/7 602/15/7
f 561/33/16 563/35/16 612/35/16 611/33/16
f 579/51/25 581/53/25 621/53/25 620/51/25
f 535/7/3 537/9/3 599/9/3 598/7/3
f 553/25/12 555/27/12 608/27/12 607/25/12
f 571/43/21 573/45/21 617/45/21 616/43/21
f 629/5/2 630/3/2 632/6/2 631/7/2
f 631/7/3 632/6/3 634/8/3 633/9/3
f 633/9/4 634/8/4 636/10/4 635/11/4
f 635/11/5 636/10/5 638/12/5 637/13/5
f 637/13/6 638/12/6 640/14/6 639/15/6
f 639/15/7 640/14/7 642/16/7 641/17/7
f 641/17/8 642/16/8 644/18/8 643/19/8
f 643/19/9 644/18/9 646/20/9 645/21/9
f 645/21/10 646/20/10 648/22/10 647/23/10
f 647/23/11 648/22/11 650/24/11 649/25/11
f 649/25/12 650/24/12 652/26/12 651/27/12
f 651/27/13 652/26/13 654/28/13 653/29/13
f 653/29/14 654/28/14 656/30/14 655/31/14
f 655/31/15 656/30/15 658/32/15 657/33/15
f 657/33/16 658/32/16 660/34/16 659/35/16
f 659/35/17 660/34/17 662/36/17 661/37/17
f 661/37/18 662/36/18 664/38/18 663/39/18
f 663/39/19 664/38/19 666/40/19 665/41/19
f 665/41/20 666/40/20 668/42/20 667/43/20
f 667/43/21 668/42/21 670/44/21 669/45/21
f 669/45/22 670/44/22 672/46/22 671/47/22
f 671/47/23 672/46/23 674/48/23 673/49/23
f 673/49/24 674/48/24 676/50/24 675/51/24
f 675/51/25 676/50/25 678/52/25 677/53/25
f 677/53/26 678/52/26 680/54/26 679/55/26
f 679/55/27 680/54/27 682/56/27 681/57/27
f 681/57/28 682/56/28 684/58/28 683/59/28
f 683/59/29 684/58/29 686/60/29 685/61/29
f 685/61/30 686/60/30 688/62/30 687/63/30
f 687/63/31 688/62/31 690/64/31 689/65/31
f 632/66/1 630/67/1 692/68/1 690/69/1 688/70/1 686/71/1 684/72/1 682/73/1 680/74/1 678/75/1 676/76/1 674/77/1 672/78/1 670/79/1 668/80/1 666/81/1 664/82/1 662/83/1 660/84/1 658/85/1 656/86/1 654/87/1 652/88/1 650/89/1 648/90/1 646/91/1 644/92/1 642/93/1 640/94/1 638/95/1 636/96/1 634/97/1
f 689/65/32 690/64/32 692/98/32 691/99/32
f 691/99/33 692/98/33 630/4/33 629/100/33
f 685/61/30 687/63/30 722/63/30 721/61/30
f 693/101/34 694/102/34 695/103/34 696/104/34 697/105/34 698/106/34 699/107/34 700/108/34 701/109/34 702/110/34 703/111/34 704/112/34 705/113/34 706/114/34 707/115/34 708/116/34 709/117/34 710/118/34 711/119/34 712/120/34 713/121/34 714/122/34 715/123/34 716/124/34 717/125/34 718/126/34 719/127/34 720/128/34 721/129/34 722/130/34 723/131/34 724/132/34
f 641/17/8 643/19/8 700/19/8 699/17/8
f 659/35/17 661/37/17 709/37/17 708/35/17
f 677/53/26 679/55/26 718/55/26 717/53/26
f 633/9/4 635/11/4 696/11/4 695/9/4
f 651/27/13 653/29/13 705/29/13 704/27/13
f 669/45/22 671/47/22 714/47/22 713/45/22
f 687/63/31 689/65/31 723/65/31 722/63/31
f 643/19/9 645/21/9 701/21/9 700/19/9
f 661/37/18 663/39/18 710/39/18 709/37/18
f 679/55/27 681/57/27 719/57/27 718/55/27
f 635/11/5 637/13/5 697/13/5 696/11/5
f 653/29/14 655/31/14 706/31/14 705/29/14
f 671/47/23 673/49/23 715/49/23 714/47/23
f 689/65/32 691/99/32 724/99/32 723/65/32
f 645/21/10 647/23/10 702/23/10 701/21/10
f 663/39/19 665/41/19 711/41/19 710/39/19
f 681/57/28 683/59/28 720/59/28 719/57/28
f 637/13/6 639/15/6 698/15/6 697/13/6
f 655/31/15 657/33/15 707/33/15 706/31/15
f 673/49/24 675/51/24 716/51/24 715/49/24
f 629/5/2 631/7/2 694/7/2 693/5/2
f 691/99/33 629/100/33 693/100/33 724/99/33
f 647/23/11 649/25/11 703/25/11 702/23/11
f 665/41/20 667/43/20 712/43/20 711/41/20
f 683/59/29 685/61/29 721/61/29 720/59/29
f 639/15/7 641/17/7 699/17/7 698/15/7
f 657/33/16 659/35/16 708/35/16 707/33/16
f 675/51/25 677/53/25 717/53/25 716/51/25
f 631/7/3 633/9/3 695/9/3 694/7/3
f 649/25/12 651/27/12 704/27/12 703/25/12
f 667/43/21 669/45/21 713/45/21 712/43/21
f 725/5/2 726/3/2 728/6/2 727/7/2
f 727/7/3 728/6/3 730/8/3 729/9/3
f 729/9/4 730/8/4 732/10/4 731/11/4
f 731/11/5 732/10/5 734/12/5 733/13/5
f 733/13/6 734/12/6 736/14/6 735/15/6
f 735/15/7 736/14/7 738/16/7 737/17/7
f 737/17/8 738/16/8 740/18/8 739/19/8
f 739/19/9 740/18/9 742/20/9 741/21/9
f 741/21/10 742/20/10 744/22/10 743/23/10
f 743/23/11 744/22/11 746/24/11 745/25/11
f 745/25/12 746/24/12 748/26/12 747/27/12
f 747/27/13 748/26/13 750/28/13 749/29/13
f 749/29/14 750/28/14 752/30/14 751/31/14
f 751/31/15 752/30/15 754/32/15 753/33/15
f 753/33/16 754/32/16 756/34/16 755/35/16
f 755/35/17 756/34/17 758/36/17 757/37/17
f 757/37/18 758/36/18 760/38/18 759/39/18
f 759/39/19 760/38/19 762/40/19 761/41/19
f 761/41/20 762/40/20 764/42/20 763/43/20
f 763/43/21 764/42/21 766/44/21 765/45/21
f 765/45/22 766/44/22 768/46/22 767/47/22
f 767/47/23 768/46/23 770/48/23 769/49/23
f 769/49/24 770/48/24 772/50/24 771/51/24
f 771/51/25 772/50/25 774/52/25 773/53/25
f 773/53/26 774/52/26 776/54/26 775/55/26
f 775/55/27 776/54/27 778/56/27 777/57/27
f 777/57/28 778/56/28 780/58/28 779/59/28
f 779/59/29 780/58/29 782/60/29 781/61/29
f 781/61/30 782/60/30 784/62/30 783/63/30
f 783/63/31 784/62/31 786/64/31 785/65/31
f 728/66/1 726/67/1 788/68/1 786/69/1 784/70/1 782/71/1 780/72/1 778/73/1 776/74/1 774/75/1 772/76/1 770/77/1 768/78/1 766/79/1 764/80/1 762/81/1 760/82/1 758/83/1 756/84/1 754/85/1 752/86/1 750/87/1 748/88/1 746/89/1 744/90/1 742/91/1 740/92/1 738/93/1 736/94/1 734/95/1 732/96/1 730/97/1
f 785/65/32 786/64/32 788/98/32 787/99/32
f 787/99/33 788/98/33 726/4/33 725/100/33
f 781/61/30 783/63/30 818/63/30 817/61/30
f 789/101/34 790/102/34 791/103/34 792/104/34 793/105/34 794/106/34 795/107/34 796/108/34 797/109/34 798/110/34 799/111/34 800/112/34 801/113/34 802/114/34 803/115/34 804/116/34 805/117/34 806/118/34 807/119/34 808/120/34 809/121/34 810/122/34 811/123/34 812/124/34 813/125/34 814/126/34 815/127/34 816/128/34 817/129/34 818/130/34 819/131/34 820/132/34
f 737/17/8 739/19/8 796/19/8 795/17/8
f 755/35/17 757/37/17 805/37/17 804/35/17
f 773/53/26 775/55/26 814/55/26 813/53/26
f 729/9/4 731/11/4 792/11/4 791/9/4
f 747/27/13 749/29/13 801/29/13 800/27/13
f 765/45/22 767/47/22 810/47/22 809/45/22
f 783/63/31 785/65/31 819/65/31 818/63/31
f 739/19/9 741/21/9 797/21/9 796/19/9
f 757/37/18 759/39/18 806/39/18 805/37/18
f 775/55/27 777/57/27 815/57/27 814/55/27
f 731/11/5 733/13/5 793/13/5 792/11/5
f 749/29/14 751/31/14 802/31/14 801/29/14
f 767/47/23 769/49/23 811/49/23 810/47/23
f 785/65/32 787/99/32 820/99/32 819/65/32
f 741/21/10 743/23/10 798/23/10 797/21/10
f 759/39/19 761/41/19 807/41/19 806/39/19
f 777/57/28 779/59/28 816/59/28 815/57/28
f 733/13/6 735/15/6 794/15/6 793/13/6
f 751/31/15 753/33/15 803/33/15 802/31/15
f 769/49/24 771/51/24 812/51/24 811/49/24
f 725/5/2 727/7/2 790/7/2 789/5/2
f 787/99/33 725/100/33 789/100/33 820/99/33
f 743/23/11 745/25/11 799/25/11 798/23/11
f 761/41/20 763/43/20 808/43/20 807/41/20
f 779/59/29 781/61/29 817/61/29 816/59/29
f 735/15/7 737/17/7 795/17/7 794/15/7
f 753/33/16 755/35/16 804/35/16 803/33/16
f 771/51/25 773/53/25 813/53/25 812/51/25
f 727/7/3 729/9/3 791/9/3 790/7/3
f 745/25/12 747/27/12 800/27/12 799/25/12
f 763/43/21 765/45/21 809/45/21 808/43/21
l 431 436
l 435 427
