# Blender 5.0.0
# www.blender.org
mtllib tuberias.mtl
o BézierCurve
v -4.320484 0.160000 0.001173
v -4.203357 0.277128 0.000677
v -4.043358 0.320000 0.000000
v -3.883360 0.277128 -0.000677
v -3.766233 0.160000 -0.001173
v -3.723361 0.000000 -0.001355
v -3.766232 -0.160000 -0.001173
v -3.883359 -0.277128 -0.000677
v -4.043358 -0.320000 -0.000000
v -4.203357 -0.277128 0.000677
v -4.320484 -0.160000 0.001173
v -4.363356 -0.000000 0.001355
v -4.204062 0.160000 -0.352664
v -4.106720 0.277128 -0.287522
v -3.973749 0.320000 -0.198535
v -3.840778 0.277128 -0.109548
v -3.743436 0.160000 -0.044406
v -3.707807 0.000000 -0.020562
v -3.743436 -0.160000 -0.044406
v -3.840778 -0.277128 -0.109548
v -3.973749 -0.320000 -0.198535
v -4.106720 -0.277128 -0.287521
v -4.204062 -0.160000 -0.352664
v -4.239692 -0.000000 -0.376508
v -3.930321 0.160000 -0.605442
v -3.864532 0.277128 -0.508536
v -3.774661 0.320000 -0.376161
v -3.684791 0.277128 -0.243785
v -3.619001 0.160000 -0.146879
v -3.594920 0.000000 -0.111409
v -3.619001 -0.160000 -0.146879
v -3.684790 -0.277128 -0.243785
v -3.774661 -0.320000 -0.376160
v -3.864532 -0.277128 -0.508536
v -3.930321 -0.160000 -0.605442
v -3.954402 -0.000000 -0.640912
v -3.568942 0.160000 -0.788320
v -3.524315 0.277128 -0.680026
v -3.463354 0.320000 -0.532095
v -3.402393 0.277128 -0.384164
v -3.357766 0.160000 -0.275870
v -3.341432 0.000000 -0.236232
v -3.357766 -0.160000 -0.275870
v -3.402393 -0.277128 -0.384163
v -3.463354 -0.320000 -0.532095
v -3.524315 -0.277128 -0.680026
v -3.568942 -0.160000 -0.788320
v -3.585277 -0.000000 -0.827958
v -3.131181 0.160000 -0.932597
v -3.099866 0.277128 -0.819733
v -3.057089 0.320000 -0.665557
v -3.014311 0.277128 -0.511382
v -2.982996 0.160000 -0.398517
v -2.971534 0.000000 -0.357206
v -2.982996 -0.160000 -0.398517
v -3.014311 -0.277128 -0.511381
v -3.057089 -0.320000 -0.665557
v -3.099866 -0.277128 -0.819732
v -3.131181 -0.160000 -0.932597
v -3.142644 -0.000000 -0.973908
v -2.625583 0.160000 -1.047883
v -2.603412 0.277128 -0.932872
v -2.573124 0.320000 -0.775765
v -2.542837 0.277128 -0.618658
v -2.520666 0.160000 -0.503647
v -2.512550 0.000000 -0.461550
v -2.520666 -0.160000 -0.503647
v -2.542837 -0.277128 -0.618657
v -2.573124 -0.320000 -0.775765
v -2.603411 -0.277128 -0.932872
v -2.625583 -0.160000 -1.047883
v -2.633699 -0.000000 -1.089980
v -2.064789 0.160000 -1.136709
v -2.049545 0.277128 -1.020577
v -2.028722 0.320000 -0.861938
v -2.007899 0.277128 -0.703299
v -1.992655 0.160000 -0.587167
v -1.987075 0.000000 -0.544659
v -1.992655 -0.160000 -0.587166
v -2.007899 -0.277128 -0.703298
v -2.028722 -0.320000 -0.861937
v -2.049545 -0.277128 -1.020577
v -2.064789 -0.160000 -1.136709
v -2.070368 -0.000000 -1.179216
v -1.463600 0.160000 -1.199510
v -1.454107 0.277128 -1.082767
v -1.441141 0.320000 -0.923294
v -1.428174 0.277128 -0.763820
v -1.418682 0.160000 -0.647077
v -1.415207 0.000000 -0.604346
v -1.418682 -0.160000 -0.647077
v -1.428174 -0.277128 -0.763820
v -1.441141 -0.320000 -0.923293
v -1.454107 -0.277128 -1.082767
v -1.463600 -0.160000 -1.199510
v -1.467074 -0.000000 -1.242241
v -0.837794 0.160000 -1.235993
v -0.833503 0.277128 -1.118944
v -0.827641 0.320000 -0.959051
v -0.821779 0.277128 -0.799159
v -0.817488 0.160000 -0.682109
v -0.815917 0.000000 -0.639266
v -0.817488 -0.160000 -0.682109
v -0.821779 -0.277128 -0.799158
v -0.827641 -0.320000 -0.959051
v -0.833503 -0.277128 -1.118943
v -0.837794 -0.160000 -1.235993
v -0.839365 -0.000000 -1.278836
v -0.203557 0.160000 -1.245550
v -0.204371 0.277128 -1.128425
v -0.205483 0.320000 -0.968429
v -0.206596 0.277128 -0.808433
v -0.207410 0.160000 -0.691307
v -0.207708 0.000000 -0.648436
v -0.207410 -0.160000 -0.691307
v -0.206596 -0.277128 -0.808432
v -0.205483 -0.320000 -0.968428
v -0.204371 -0.277128 -1.128425
v -0.203557 -0.160000 -1.245550
v -0.203259 -0.000000 -1.288421
v 0.422840 0.160000 -1.227380
v 0.416599 0.277128 -1.110418
v 0.408073 0.320000 -0.950645
v 0.399547 0.277128 -0.790873
v 0.393305 0.160000 -0.673911
v 0.391021 0.000000 -0.631100
v 0.393305 -0.160000 -0.673910
v 0.399547 -0.277128 -0.790872
v 0.408073 -0.320000 -0.950645
v 0.416599 -0.277128 -1.110417
v 0.422840 -0.160000 -1.227379
v 0.425125 -0.000000 -1.270190
v 1.025297 0.160000 -1.180469
v 1.012816 0.277128 -1.064008
v 0.995767 0.320000 -0.904919
v 0.978718 0.277128 -0.745830
v 0.966237 0.160000 -0.629368
v 0.961668 0.000000 -0.586740
v 0.966237 -0.160000 -0.629368
v 0.978718 -0.277128 -0.745829
v 0.995767 -0.320000 -0.904918
v 1.012816 -0.277128 -1.064007
v 1.025297 -0.160000 -1.180469
v 1.029866 -0.000000 -1.223097
v 1.588229 0.160000 -1.103427
v 1.567989 0.277128 -0.988061
v 1.540339 0.320000 -0.830468
v 1.512690 0.277128 -0.672875
v 1.492449 0.160000 -0.557509
v 1.485040 0.000000 -0.515282
v 1.492449 -0.160000 -0.557509
v 1.512689 -0.277128 -0.672875
v 1.540339 -0.320000 -0.830468
v 1.567988 -0.277128 -0.988060
v 1.588229 -0.160000 -1.103427
v 1.595638 -0.000000 -1.145654
v 2.097168 0.160000 -0.993951
v 2.066467 0.277128 -0.880918
v 2.024529 0.320000 -0.726512
v 1.982591 0.277128 -0.572106
v 1.951890 0.160000 -0.459073
v 1.940653 0.000000 -0.417700
v 1.951890 -0.160000 -0.459072
v 1.982591 -0.277128 -0.572105
v 2.024529 -0.320000 -0.726511
v 2.066467 -0.277128 -0.880917
v 2.097168 -0.160000 -0.993950
v 2.108405 -0.000000 -1.035324
v 2.539843 0.160000 -0.847161
v 2.493873 0.277128 -0.739430
v 2.431077 0.320000 -0.592268
v 2.368281 0.277128 -0.445106
v 2.322311 0.160000 -0.337376
v 2.305485 0.000000 -0.297944
v 2.322311 -0.160000 -0.337376
v 2.368281 -0.277128 -0.445106
v 2.431077 -0.320000 -0.592268
v 2.493873 -0.277128 -0.739430
v 2.539843 -0.160000 -0.847160
v 2.556669 -0.000000 -0.886592
v 2.906803 0.160000 -0.650290
v 2.837454 0.277128 -0.555898
v 2.742723 0.320000 -0.426956
v 2.647991 0.277128 -0.298015
v 2.578643 0.160000 -0.203623
v 2.553260 0.000000 -0.169073
v 2.578643 -0.160000 -0.203622
v 2.647991 -0.277128 -0.298014
v 2.742723 -0.320000 -0.426956
v 2.837454 -0.277128 -0.555897
v 2.906802 -0.160000 -0.650289
v 2.932186 -0.000000 -0.684839
v 3.179389 0.160000 -0.373127
v 3.079144 0.277128 -0.312547
v 2.942206 0.320000 -0.229794
v 2.805269 0.277128 -0.147040
v 2.705024 0.160000 -0.086461
v 2.668331 0.000000 -0.064287
v 2.705023 -0.160000 -0.086460
v 2.805269 -0.277128 -0.147040
v 2.942206 -0.320000 -0.229794
v 3.079143 -0.277128 -0.312547
v 3.179389 -0.160000 -0.373127
v 3.216081 -0.000000 -0.395301
v 3.289392 0.160000 0.000454
v 3.172265 0.277128 0.000262
v 3.012265 0.320000 -0.000000
v 2.852265 0.277128 -0.000262
v 2.735137 0.160000 -0.000454
v 2.692265 0.000000 -0.000525
v 2.735137 -0.160000 -0.000454
v 2.852265 -0.277128 -0.000262
v 3.012264 -0.320000 0.000000
v 3.172264 -0.277128 0.000262
v 3.289392 -0.160000 0.000454
v 3.332264 -0.000000 0.000525
vn -0.8425 0.4617 -0.2776
vn -0.5274 0.8312 -0.1761
vn -0.0562 0.9983 -0.0168
vn 0.4351 0.8828 0.1769
vn 0.7618 0.5131 0.3956
vn 0.8521 -0.0000 0.5234
vn 0.7618 -0.5131 0.3956
vn 0.4351 -0.8828 0.1769
vn -0.0562 -0.9983 -0.0168
vn -0.5274 -0.8312 -0.1761
vn -0.8425 -0.4617 -0.2776
vn -0.9502 -0.0000 -0.3118
vn -0.7364 0.4829 -0.4738
vn -0.4452 0.8480 -0.2876
vn -0.0357 0.9991 -0.0210
vn 0.3826 0.8821 0.2747
vn 0.6676 0.5080 0.5443
vn 0.7491 -0.0000 0.6625
vn 0.6676 -0.5080 0.5443
vn 0.3826 -0.8821 0.2747
vn -0.0357 -0.9991 -0.0210
vn -0.4452 -0.8480 -0.2876
vn -0.7364 -0.4829 -0.4738
vn -0.8412 -0.0000 -0.5407
vn -0.4973 0.4894 -0.7164
vn -0.2943 0.8556 -0.4258
vn -0.0131 0.9998 -0.0173
vn 0.2684 0.8738 0.4055
vn 0.4692 0.5059 0.7238
vn 0.5400 -0.0000 0.8417
vn 0.4692 -0.5059 0.7238
vn 0.2684 -0.8738 0.4055
vn -0.0131 -0.9998 -0.0173
vn -0.2943 -0.8556 -0.4258
vn -0.4973 -0.4894 -0.7164
vn -0.5708 -0.0000 -0.8211
vn -0.3332 0.4944 -0.8028
vn -0.1950 0.8605 -0.4706
vn -0.0048 0.9999 -0.0111
vn 0.1863 0.8709 0.4547
vn 0.3263 0.5047 0.7992
vn 0.3775 -0.0000 0.9260
vn 0.3263 -0.5047 0.7992
vn 0.1863 -0.8709 0.4547
vn -0.0048 -0.9999 -0.0111
vn -0.1950 -0.8605 -0.4706
vn -0.3332 -0.4944 -0.8028
vn -0.3835 -0.0000 -0.9235
vn -0.2326 0.4966 -0.8362
vn -0.1355 0.8626 -0.4874
vn -0.0021 1.0000 -0.0074
vn 0.1319 0.8693 0.4764
vn 0.2305 0.5032 0.8328
vn 0.2666 -0.0000 0.9638
vn 0.2305 -0.5032 0.8328
vn 0.1319 -0.8693 0.4764
vn -0.0021 -1.0000 -0.0074
vn -0.1355 -0.8626 -0.4874
vn -0.2326 -0.4966 -0.8362
vn -0.2680 -0.0000 -0.9634
vn -0.1644 0.4976 -0.8517
vn -0.0955 0.8636 -0.4950
vn -0.0011 1.0000 -0.0054
vn 0.0938 0.8684 0.4869
vn 0.1635 0.5024 0.8491
vn 0.1891 -0.0000 0.9820
vn 0.1635 -0.5024 0.8491
vn 0.0938 -0.8684 0.4869
vn -0.0011 -1.0000 -0.0054
vn -0.0955 -0.8636 -0.4950
vn -0.1644 -0.4976 -0.8517
vn -0.1895 -0.0000 -0.9819
vn -0.1129 0.4981 -0.8597
vn -0.0655 0.8641 -0.4990
vn -0.0006 1.0000 -0.0043
vn 0.0646 0.8679 0.4925
vn 0.1125 0.5019 0.8576
vn 0.1301 -0.0000 0.9915
vn 0.1125 -0.5019 0.8576
vn 0.0646 -0.8679 0.4925
vn -0.0006 -1.0000 -0.0043
vn -0.0655 -0.8641 -0.4990
vn -0.1129 -0.4981 -0.8597
vn -0.1302 -0.0000 -0.9915
vn -0.0703 0.4984 -0.8641
vn -0.0408 0.8644 -0.5012
vn -0.0003 1.0000 -0.0038
vn 0.0403 0.8677 0.4955
vn 0.0701 0.5016 0.8622
vn 0.0810 -0.0000 0.9967
vn 0.0701 -0.5016 0.8622
vn 0.0403 -0.8677 0.4955
vn -0.0003 -1.0000 -0.0038
vn -0.0408 -0.8644 -0.5012
vn -0.0703 -0.4984 -0.8641
vn -0.0811 -0.0000 -0.9967
vn -0.0318 0.4985 -0.8663
vn -0.0184 0.8645 -0.5023
vn -0.0001 1.0000 -0.0035
vn 0.0182 0.8676 0.4970
vn 0.0317 0.5015 0.8646
vn 0.0366 -0.0000 0.9993
vn 0.0317 -0.5015 0.8646
vn 0.0182 -0.8676 0.4970
vn -0.0001 -1.0000 -0.0035
vn -0.0184 -0.8645 -0.5023
vn -0.0318 -0.4985 -0.8663
vn -0.0366 -0.0000 -0.9993
vn 0.0060 0.4984 -0.8669
vn 0.0035 0.8645 -0.5027
vn -0.0000 1.0000 -0.0036
vn -0.0035 0.8676 0.4973
vn -0.0060 0.5016 0.8651
vn -0.0069 -0.0000 1.0000
vn -0.0060 -0.5016 0.8651
vn -0.0035 -0.8676 0.4973
vn -0.0000 -1.0000 -0.0036
vn 0.0035 -0.8645 -0.5027
vn 0.0060 -0.4984 -0.8669
vn 0.0070 -0.0000 -1.0000
vn 0.0462 0.4983 -0.8658
vn 0.0268 0.8643 -0.5023
vn 0.0002 1.0000 -0.0040
vn -0.0265 0.8678 0.4963
vn -0.0461 0.5017 0.8638
vn -0.0532 -0.0000 0.9986
vn -0.0461 -0.5017 0.8638
vn -0.0265 -0.8678 0.4963
vn 0.0002 -1.0000 -0.0040
vn 0.0268 -0.8643 -0.5023
vn 0.0462 -0.4983 -0.8658
vn 0.0533 -0.0000 -0.9986
vn 0.0925 0.4979 -0.8623
vn 0.0537 0.8639 -0.5007
vn 0.0005 1.0000 -0.0048
vn -0.0529 0.8681 0.4936
vn -0.0921 0.5021 0.8599
vn -0.1064 -0.0000 0.9943
vn -0.0921 -0.5021 0.8599
vn -0.0529 -0.8681 0.4936
vn 0.0005 -1.0000 -0.0048
vn 0.0537 -0.8639 -0.5007
vn 0.0925 -0.4979 -0.8623
vn 0.1067 -0.0000 -0.9943
vn 0.1501 0.4973 -0.8545
vn 0.0873 0.8633 -0.4971
vn 0.0011 1.0000 -0.0061
vn -0.0855 0.8687 0.4879
vn -0.1492 0.5027 0.8515
vn -0.1725 -0.0000 0.9850
vn -0.1492 -0.5027 0.8515
vn -0.0855 -0.8687 0.4879
vn 0.0011 -1.0000 -0.0061
vn 0.0873 -0.8633 -0.4971
vn 0.1501 -0.4973 -0.8545
vn 0.1731 -0.0000 -0.9849
vn 0.2283 0.4961 -0.8377
vn 0.1331 0.8621 -0.4889
vn 0.0024 1.0000 -0.0085
vn -0.1291 0.8698 0.4763
vn -0.2257 0.5037 0.8339
vn -0.2611 -0.0000 0.9653
vn -0.2257 -0.5037 0.8339
vn -0.1291 -0.8698 0.4763
vn 0.0024 -1.0000 -0.0085
vn 0.1331 -0.8621 -0.4889
vn 0.2283 -0.4961 -0.8377
vn 0.2630 -0.0000 -0.9648
vn 0.3436 0.4936 -0.7989
vn 0.2015 0.8597 -0.4693
vn 0.0057 0.9999 -0.0127
vn -0.1913 0.8717 0.4512
vn -0.3356 0.5054 0.7950
vn -0.3883 -0.0000 0.9216
vn -0.3356 -0.5054 0.7950
vn -0.1913 -0.8717 0.4512
vn 0.0057 -0.9999 -0.0127
vn 0.2015 -0.8597 -0.4693
vn 0.3436 -0.4936 -0.7989
vn 0.3954 -0.0000 -0.9185
vn 0.5230 0.4889 -0.6982
vn 0.3103 0.8549 -0.4158
vn 0.0150 0.9997 -0.0187
vn -0.2825 0.8752 0.3927
vn -0.4973 0.5078 0.7034
vn -0.5740 -0.0000 0.8189
vn -0.4973 -0.5078 0.7034
vn -0.2826 -0.8752 0.3927
vn 0.0150 -0.9997 -0.0187
vn 0.3103 -0.8549 -0.4158
vn 0.5230 -0.4889 -0.6982
vn 0.5999 -0.0000 -0.8001
vn 0.7543 0.4839 -0.4438
vn 0.4553 0.8488 -0.2687
vn 0.0356 0.9992 -0.0198
vn -0.3967 0.8837 0.2483
vn -0.7166 0.5177 0.4674
vn -0.8316 -0.0000 0.5553
vn -0.7166 -0.5177 0.4674
vn -0.3967 -0.8837 0.2483
vn 0.0356 -0.9992 -0.0198
vn 0.4553 -0.8488 -0.2687
vn 0.7543 -0.4839 -0.4438
vn 0.8620 -0.0000 -0.5068
vn 0.8484 0.4666 -0.2500
vn 0.5262 0.8359 -0.1562
vn 0.0489 0.9987 -0.0136
vn -0.4512 0.8804 0.1463
vn -0.8129 0.5096 0.2819
vn -0.9406 -0.0000 0.3394
vn -0.8129 -0.5096 0.2819
vn -0.4512 -0.8804 0.1463
vn 0.0489 -0.9987 -0.0136
vn 0.5262 -0.8359 -0.1562
vn 0.8484 -0.4666 -0.2500
vn 0.9594 -0.0000 -0.2820
vt 0.000000 1.000000
vt 0.058824 1.000000
vt 0.058824 0.916667
vt 0.000000 0.916667
vt 0.000000 0.083333
vt 0.058824 0.083333
vt 0.058824 0.000000
vt 0.000000 0.000000
vt 0.000000 0.166667
vt 0.058824 0.166667
vt 0.000000 0.250000
vt 0.058824 0.250000
vt 0.000000 0.333333
vt 0.058824 0.333333
vt 0.000000 0.416667
vt 0.058824 0.416667
vt 0.000000 0.500000
vt 0.058824 0.500000
vt 0.000000 0.583333
vt 0.058824 0.583333
vt 0.000000 0.666667
vt 0.058824 0.666667
vt 0.000000 0.750000
vt 0.058824 0.750000
vt 0.000000 0.833333
vt 0.058824 0.833333
vt 0.117647 1.000000
vt 0.117647 0.916667
vt 0.117647 0.083333
vt 0.117647 0.000000
vt 0.117647 0.166667
vt 0.117647 0.250000
vt 0.117647 0.333333
vt 0.117647 0.416667
vt 0.117647 0.500000
vt 0.117647 0.583333
vt 0.117647 0.666667
vt 0.117647 0.750000
vt 0.117647 0.833333
vt 0.176471 1.000000
vt 0.176471 0.916667
vt 0.176471 0.083333
vt 0.176471 0.000000
vt 0.176471 0.166667
vt 0.176471 0.250000
vt 0.176471 0.333333
vt 0.176471 0.416667
vt 0.176471 0.500000
vt 0.176471 0.583333
vt 0.176471 0.666667
vt 0.176471 0.750000
vt 0.176471 0.833333
vt 0.235294 1.000000
vt 0.235294 0.916667
vt 0.235294 0.083333
vt 0.235294 0.000000
vt 0.235294 0.166667
vt 0.235294 0.250000
vt 0.235294 0.333333
vt 0.235294 0.416667
vt 0.235294 0.500000
vt 0.235294 0.583333
vt 0.235294 0.666667
vt 0.235294 0.750000
vt 0.235294 0.833333
vt 0.294118 1.000000
vt 0.294118 0.916667
vt 0.294118 0.083333
vt 0.294118 0.000000
vt 0.294118 0.166667
vt 0.294118 0.250000
vt 0.294118 0.333333
vt 0.294118 0.416667
vt 0.294118 0.500000
vt 0.294118 0.583333
vt 0.294118 0.666667
vt 0.294118 0.750000
vt 0.294118 0.833333
vt 0.352941 1.000000
vt 0.352941 0.916667
vt 0.352941 0.083333
vt 0.352941 0.000000
vt 0.352941 0.166667
vt 0.352941 0.250000
vt 0.352941 0.333333
vt 0.352941 0.416667
vt 0.352941 0.500000
vt 0.352941 0.583333
vt 0.352941 0.666667
vt 0.352941 0.750000
vt 0.352941 0.833333
vt 0.411765 1.000000
vt 0.411765 0.916667
vt 0.411765 0.083333
vt 0.411765 0.000000
vt 0.411765 0.166667
vt 0.411765 0.250000
vt 0.411765 0.333333
vt 0.411765 0.416667
vt 0.411765 0.500000
vt 0.411765 0.583333
vt 0.411765 0.666667
vt 0.411765 0.750000
vt 0.411765 0.833333
vt 0.470588 1.000000
vt 0.470588 0.916667
vt 0.470588 0.083333
vt 0.470588 0.000000
vt 0.470588 0.166667
vt 0.470588 0.250000
vt 0.470588 0.333333
vt 0.470588 0.416667
vt 0.470588 0.500000
vt 0.470588 0.583333
vt 0.470588 0.666667
vt 0.470588 0.750000
vt 0.470588 0.833333
vt 0.529412 1.000000
vt 0.529412 0.916667
vt 0.529412 0.083333
vt 0.529412 0.000000
vt 0.529412 0.166667
vt 0.529412 0.250000
vt 0.529412 0.333333
vt 0.529412 0.416667
vt 0.529412 0.500000
vt 0.529412 0.583333
vt 0.529412 0.666667
vt 0.529412 0.750000
vt 0.529412 0.833333
vt 0.588235 1.000000
vt 0.588235 0.916667
vt 0.588235 0.083333
vt 0.588235 0.000000
vt 0.588235 0.166667
vt 0.588235 0.250000
vt 0.588235 0.333333
vt 0.588235 0.416667
vt 0.588235 0.500000
vt 0.588235 0.583333
vt 0.588235 0.666667
vt 0.588235 0.750000
vt 0.588235 0.833333
vt 0.647059 1.000000
vt 0.647059 0.916667
vt 0.647059 0.083333
vt 0.647059 0.000000
vt 0.647059 0.166667
vt 0.647059 0.250000
vt 0.647059 0.333333
vt 0.647059 0.416667
vt 0.647059 0.500000
vt 0.647059 0.583333
vt 0.647059 0.666667
vt 0.647059 0.750000
vt 0.647059 0.833333
vt 0.705882 1.000000
vt 0.705882 0.916667
vt 0.705882 0.083333
vt 0.705882 0.000000
vt 0.705882 0.166667
vt 0.705882 0.250000
vt 0.705882 0.333333
vt 0.705882 0.416667
vt 0.705882 0.500000
vt 0.705882 0.583333
vt 0.705882 0.666667
vt 0.705882 0.750000
vt 0.705882 0.833333
vt 0.764706 1.000000
vt 0.764706 0.916667
vt 0.764706 0.083333
vt 0.764706 0.000000
vt 0.764706 0.166667
vt 0.764706 0.250000
vt 0.764706 0.333333
vt 0.764706 0.416667
vt 0.764706 0.500000
vt 0.764706 0.583333
vt 0.764706 0.666667
vt 0.764706 0.750000
vt 0.764706 0.833333
vt 0.823529 1.000000
vt 0.823529 0.916667
vt 0.823529 0.083333
vt 0.823529 0.000000
vt 0.823529 0.166667
vt 0.823529 0.250000
vt 0.823529 0.333333
vt 0.823529 0.416667
vt 0.823529 0.500000
vt 0.823529 0.583333
vt 0.823529 0.666667
vt 0.823529 0.750000
vt 0.823529 0.833333
vt 0.882353 1.000000
vt 0.882353 0.916667
vt 0.882353 0.083333
vt 0.882353 0.000000
vt 0.882353 0.166667
vt 0.882353 0.250000
vt 0.882353 0.333333
vt 0.882353 0.416667
vt 0.882353 0.500000
vt 0.882353 0.583333
vt 0.882353 0.666667
vt 0.882353 0.750000
vt 0.882353 0.833333
vt 0.941176 1.000000
vt 0.941176 0.916667
vt 0.941176 0.083333
vt 0.941176 0.000000
vt 0.941176 0.166667
vt 0.941176 0.250000
vt 0.941176 0.333333
vt 0.941176 0.416667
vt 0.941176 0.500000
vt 0.941176 0.583333
vt 0.941176 0.666667
vt 0.941176 0.750000
vt 0.941176 0.833333
vt 1.000000 1.000000
vt 1.000000 0.916667
vt 1.000000 0.083333
vt 1.000000 0.000000
vt 1.000000 0.166667
vt 1.000000 0.250000
vt 1.000000 0.333333
vt 1.000000 0.416667
vt 1.000000 0.500000
vt 1.000000 0.583333
vt 1.000000 0.666667
vt 1.000000 0.750000
vt 1.000000 0.833333
s 1
f 1/1/1 13/2/13 24/3/24 12/4/12
f 2/5/2 14/6/14 13/7/13 1/8/1
f 3/9/3 15/10/15 14/6/14 2/5/2
f 4/11/4 16/12/16 15/10/15 3/9/3
f 5/13/5 17/14/17 16/12/16 4/11/4
f 6/15/6 18/16/18 17/14/17 5/13/5
f 7/17/7 19/18/19 18/16/18 6/15/6
f 8/19/8 20/20/20 19/18/19 7/17/7
f 9/21/9 21/22/21 20/20/20 8/19/8
f 10/23/10 22/24/22 21/22/21 9/21/9
f 11/25/11 23/26/23 22/24/22 10/23/10
f 12/4/12 24/3/24 23/26/23 11/25/11
f 13/2/13 25/27/25 36/28/36 24/3/24
f 14/6/14 26/29/26 25/30/25 13/7/13
f 15/10/15 27/31/27 26/29/26 14/6/14
f 16/12/16 28/32/28 27/31/27 15/10/15
f 17/14/17 29/33/29 28/32/28 16/12/16
f 18/16/18 30/34/30 29/33/29 17/14/17
f 19/18/19 31/35/31 30/34/30 18/16/18
f 20/20/20 32/36/32 31/35/31 19/18/19
f 21/22/21 33/37/33 32/36/32 20/20/20
f 22/24/22 34/38/34 33/37/33 21/22/21
f 23/26/23 35/39/35 34/38/34 22/24/22
f 24/3/24 36/28/36 35/39/35 23/26/23
f 25/27/25 37/40/37 48/41/48 36/28/36
f 26/29/26 38/42/38 37/43/37 25/30/25
f 27/31/27 39/44/39 38/42/38 26/29/26
f 28/32/28 40/45/40 39/44/39 27/31/27
f 29/33/29 41/46/41 40/45/40 28/32/28
f 30/34/30 42/47/42 41/46/41 29/33/29
f 31/35/31 43/48/43 42/47/42 30/34/30
f 32/36/32 44/49/44 43/48/43 31/35/31
f 33/37/33 45/50/45 44/49/44 32/36/32
f 34/38/34 46/51/46 45/50/45 33/37/33
f 35/39/35 47/52/47 46/51/46 34/38/34
f 36/28/36 48/41/48 47/52/47 35/39/35
f 37/40/37 49/53/49 60/54/60 48/41/48
f 38/42/38 50/55/50 49/56/49 37/43/37
f 39/44/39 51/57/51 50/55/50 38/42/38
f 40/45/40 52/58/52 51/57/51 39/44/39
f 41/46/41 53/59/53 52/58/52 40/45/40
f 42/47/42 54/60/54 53/59/53 41/46/41
f 43/48/43 55/61/55 54/60/54 42/47/42
f 44/49/44 56/62/56 55/61/55 43/48/43
f 45/50/45 57/63/57 56/62/56 44/49/44
f 46/51/46 58/64/58 57/63/57 45/50/45
f 47/52/47 59/65/59 58/64/58 46/51/46
f 48/41/48 60/54/60 59/65/59 47/52/47
f 49/53/49 61/66/61 72/67/72 60/54/60
f 50/55/50 62/68/62 61/69/61 49/56/49
f 51/57/51 63/70/63 62/68/62 50/55/50
f 52/58/52 64/71/64 63/70/63 51/57/51
f 53/59/53 65/72/65 64/71/64 52/58/52
f 54/60/54 66/73/66 65/72/65 53/59/53
f 55/61/55 67/74/67 66/73/66 54/60/54
f 56/62/56 68/75/68 67/74/67 55/61/55
f 57/63/57 69/76/69 68/75/68 56/62/56
f 58/64/58 70/77/70 69/76/69 57/63/57
f 59/65/59 71/78/71 70/77/70 58/64/58
f 60/54/60 72/67/72 71/78/71 59/65/59
f 61/66/61 73/79/73 84/80/84 72/67/72
f 62/68/62 74/81/74 73/82/73 61/69/61
f 63/70/63 75/83/75 74/81/74 62/68/62
f 64/71/64 76/84/76 75/83/75 63/70/63
f 65/72/65 77/85/77 76/84/76 64/71/64
f 66/73/66 78/86/78 77/85/77 65/72/65
f 67/74/67 79/87/79 78/86/78 66/73/66
f 68/75/68 80/88/80 79/87/79 67/74/67
f 69/76/69 81/89/81 80/88/80 68/75/68
f 70/77/70 82/90/82 81/89/81 69/76/69
f 71/78/71 83/91/83 82/90/82 70/77/70
f 72/67/72 84/80/84 83/91/83 71/78/71
f 73/79/73 85/92/85 96/93/96 84/80/84
f 74/81/74 86/94/86 85/95/85 73/82/73
f 75/83/75 87/96/87 86/94/86 74/81/74
f 76/84/76 88/97/88 87/96/87 75/83/75
f 77/85/77 89/98/89 88/97/88 76/84/76
f 78/86/78 90/99/90 89/98/89 77/85/77
f 79/87/79 91/100/91 90/99/90 78/86/78
f 80/88/80 92/101/92 91/100/91 79/87/79
f 81/89/81 93/102/93 92/101/92 80/88/80
f 82/90/82 94/103/94 93/102/93 81/89/81
f 83/91/83 95/104/95 94/103/94 82/90/82
f 84/80/84 96/93/96 95/104/95 83/91/83
f 85/92/85 97/105/97 108/106/108 96/93/96
f 86/94/86 98/107/98 97/108/97 85/95/85
f 87/96/87 99/109/99 98/107/98 86/94/86
f 88/97/88 100/110/100 99/109/99 87/96/87
f 89/98/89 101/111/101 100/110/100 88/97/88
f 90/99/90 102/112/102 101/111/101 89/98/89
f 91/100/91 103/113/103 102/112/102 90/99/90
f 92/101/92 104/114/104 103/113/103 91/100/91
f 93/102/93 105/115/105 104/114/104 92/101/92
f 94/103/94 106/116/106 105/115/105 93/102/93
f 95/104/95 107/117/107 106/116/106 94/103/94
f 96/93/96 108/106/108 107/117/107 95/104/95
f 97/105/97 109/118/109 120/119/120 108/106/108
f 98/107/98 110/120/110 109/121/109 97/108/97
f 99/109/99 111/122/111 110/120/110 98/107/98
f 100/110/100 112/123/112 111/122/111 99/109/99
f 101/111/101 113/124/113 112/123/112 100/110/100
f 102/112/102 114/125/114 113/124/113 101/111/101
f 103/113/103 115/126/115 114/125/114 102/112/102
f 104/114/104 116/127/116 115/126/115 103/113/103
f 105/115/105 117/128/117 116/127/116 104/114/104
f 106/116/106 118/129/118 117/128/117 105/115/105
f 107/117/107 119/130/119 118/129/118 106/116/106
f 108/106/108 120/119/120 119/130/119 107/117/107
f 109/118/109 121/131/121 132/132/132 120/119/120
f 110/120/110 122/133/122 121/134/121 109/121/109
f 111/122/111 123/135/123 122/133/122 110/120/110
f 112/123/112 124/136/124 123/135/123 111/122/111
f 113/124/113 125/137/125 124/136/124 112/123/112
f 114/125/114 126/138/126 125/137/125 113/124/113
f 115/126/115 127/139/127 126/138/126 114/125/114
f 116/127/116 128/140/128 127/139/127 115/126/115
f 117/128/117 129/141/129 128/140/128 116/127/116
f 118/129/118 130/142/130 129/141/129 117/128/117
f 119/130/119 131/143/131 130/142/130 118/129/118
f 120/119/120 132/132/132 131/143/131 119/130/119
f 121/131/121 133/144/133 144/145/144 132/132/132
f 122/133/122 134/146/134 133/147/133 121/134/121
f 123/135/123 135/148/135 134/146/134 122/133/122
f 124/136/124 136/149/136 135/148/135 123/135/123
f 125/137/125 137/150/137 136/149/136 124/136/124
f 126/138/126 138/151/138 137/150/137 125/137/125
f 127/139/127 139/152/139 138/151/138 126/138/126
f 128/140/128 140/153/140 139/152/139 127/139/127
f 129/141/129 141/154/141 140/153/140 128/140/128
f 130/142/130 142/155/142 141/154/141 129/141/129
f 131/143/131 143/156/143 142/155/142 130/142/130
f 132/132/132 144/145/144 143/156/143 131/143/131
f 133/144/133 145/157/145 156/158/156 144/145/144
f 134/146/134 146/159/146 145/160/145 133/147/133
f 135/148/135 147/161/147 146/159/146 134/146/134
f 136/149/136 148/162/148 147/161/147 135/148/135
f 137/150/137 149/163/149 148/162/148 136/149/136
f 138/151/138 150/164/150 149/163/149 137/150/137
f 139/152/139 151/165/151 150/164/150 138/151/138
f 140/153/140 152/166/152 151/165/151 139/152/139
f 141/154/141 153/167/153 152/166/152 140/153/140
f 142/155/142 154/168/154 153/167/153 141/154/141
f 143/156/143 155/169/155 154/168/154 142/155/142
f 144/145/144 156/158/156 155/169/155 143/156/143
f 145/157/145 157/170/157 168/171/168 156/158/156
f 146/159/146 158/172/158 157/173/157 145/160/145
f 147/161/147 159/174/159 158/172/158 146/159/146
f 148/162/148 160/175/160 159/174/159 147/161/147
f 149/163/149 161/176/161 160/175/160 148/162/148
f 150/164/150 162/177/162 161/176/161 149/163/149
f 151/165/151 163/178/163 162/177/162 150/164/150
f 152/166/152 164/179/164 163/178/163 151/165/151
f 153/167/153 165/180/165 164/179/164 152/166/152
f 154/168/154 166/181/166 165/180/165 153/167/153
f 155/169/155 167/182/167 166/181/166 154/168/154
f 156/158/156 168/171/168 167/182/167 155/169/155
f 157/170/157 169/183/169 180/184/180 168/171/168
f 158/172/158 170/185/170 169/186/169 157/173/157
f 159/174/159 171/187/171 170/185/170 158/172/158
f 160/175/160 172/188/172 171/187/171 159/174/159
f 161/176/161 173/189/173 172/188/172 160/175/160
f 162/177/162 174/190/174 173/189/173 161/176/161
f 163/178/163 175/191/175 174/190/174 162/177/162
f 164/179/164 176/192/176 175/191/175 163/178/163
f 165/180/165 177/193/177 176/192/176 164/179/164
f 166/181/166 178/194/178 177/193/177 165/180/165
f 167/182/167 179/195/179 178/194/178 166/181/166
f 168/171/168 180/184/180 179/195/179 167/182/167
f 169/183/169 181/196/181 192/197/192 180/184/180
f 170/185/170 182/198/182 181/199/181 169/186/169
f 171/187/171 183/200/183 182/198/182 170/185/170
f 172/188/172 184/201/184 183/200/183 171/187/171
f 173/189/173 185/202/185 184/201/184 172/188/172
f 174/190/174 186/203/186 185/202/185 173/189/173
f 175/191/175 187/204/187 186/203/186 174/190/174
f 176/192/176 188/205/188 187/204/187 175/191/175
f 177/193/177 189/206/189 188/205/188 176/192/176
f 178/194/178 190/207/190 189/206/189 177/193/177
f 179/195/179 191/208/191 190/207/190 178/194/178
f 180/184/180 192/197/192 191/208/191 179/195/179
f 181/196/181 193/209/193 204/210/204 192/197/192
f 182/198/182 194/211/194 193/212/193 181/199/181
f 183/200/183 195/213/195 194/211/194 182/198/182
f 184/201/184 196/214/196 195/213/195 183/200/183
f 185/202/185 197/215/197 196/214/196 184/201/184
f 186/203/186 198/216/198 197/215/197 185/202/185
f 187/204/187 199/217/199 198/216/198 186/203/186
f 188/205/188 200/218/200 199/217/199 187/204/187
f 189/206/189 201/219/201 200/218/200 188/205/188
f 190/207/190 202/220/202 201/219/201 189/206/189
f 191/208/191 203/221/203 202/220/202 190/207/190
f 192/197/192 204/210/204 203/221/203 191/208/191
f 193/209/193 205/222/205 216/223/216 204/210/204
f 194/211/194 206/224/206 205/225/205 193/212/193
f 195/213/195 207/226/207 206/224/206 194/211/194
f 196/214/196 208/227/208 207/226/207 195/213/195
f 197/215/197 209/228/209 208/227/208 196/214/196
f 198/216/198 210/229/210 209/228/209 197/215/197
f 199/217/199 211/230/211 210/229/210 198/216/198
f 200/218/200 212/231/212 211/230/211 199/217/199
f 201/219/201 213/232/213 212/231/212 200/218/200
f 202/220/202 214/233/214 213/232/213 201/219/201
f 203/221/203 215/234/215 214/233/214 202/220/202
f 204/210/204 216/223/216 215/234/215 203/221/203
o BézierCurve
v -4.320484 0.160000 0.001173
v -4.203357 0.277128 0.000677
v -4.043358 0.320000 0.000000
v -3.883360 0.277128 -0.000677
v -3.766233 0.160000 -0.001173
v -3.723361 0.000000 -0.001355
v -3.766232 -0.160000 -0.001173
v -3.883359 -0.277128 -0.000677
v -4.043358 -0.320000 -0.000000
v -4.203357 -0.277128 0.000677
v -4.320484 -0.160000 0.001173
v -4.363356 -0.000000 0.001355
v -4.204062 0.160000 -0.352664
v -4.106720 0.277128 -0.287522
v -3.973749 0.320000 -0.198535
v -3.840778 0.277128 -0.109548
v -3.743436 0.160000 -0.044406
v -3.707807 0.000000 -0.020562
v -3.743436 -0.160000 -0.044406
v -3.840778 -0.277128 -0.109548
v -3.973749 -0.320000 -0.198535
v -4.106720 -0.277128 -0.287521
v -4.204062 -0.160000 -0.352664
v -4.239692 -0.000000 -0.376508
v -3.930321 0.160000 -0.605442
v -3.864532 0.277128 -0.508536
v -3.774661 0.320000 -0.376161
v -3.684791 0.277128 -0.243785
v -3.619001 0.160000 -0.146879
v -3.594920 0.000000 -0.111409
v -3.619001 -0.160000 -0.146879
v -3.684790 -0.277128 -0.243785
v -3.774661 -0.320000 -0.376160
v -3.864532 -0.277128 -0.508536
v -3.930321 -0.160000 -0.605442
v -3.954402 -0.000000 -0.640912
v -3.568942 0.160000 -0.788320
v -3.524315 0.277128 -0.680026
v -3.463354 0.320000 -0.532095
v -3.402393 0.277128 -0.384164
v -3.357766 0.160000 -0.275870
v -3.341432 0.000000 -0.236232
v -3.357766 -0.160000 -0.275870
v -3.402393 -0.277128 -0.384163
v -3.463354 -0.320000 -0.532095
v -3.524315 -0.277128 -0.680026
v -3.568942 -0.160000 -0.788320
v -3.585277 -0.000000 -0.827958
v -3.131181 0.160000 -0.932597
v -3.099866 0.277128 -0.819733
v -3.057089 0.320000 -0.665557
v -3.014311 0.277128 -0.511382
v -2.982996 0.160000 -0.398517
v -2.971534 0.000000 -0.357206
v -2.982996 -0.160000 -0.398517
v -3.014311 -0.277128 -0.511381
v -3.057089 -0.320000 -0.665557
v -3.099866 -0.277128 -0.819732
v -3.131181 -0.160000 -0.932597
v -3.142644 -0.000000 -0.973908
v -2.625583 0.160000 -1.047883
v -2.603412 0.277128 -0.932872
v -2.573124 0.320000 -0.775765
v -2.542837 0.277128 -0.618658
v -2.520666 0.160000 -0.503647
v -2.512550 0.000000 -0.461550
v -2.520666 -0.160000 -0.503647
v -2.542837 -0.277128 -0.618657
v -2.573124 -0.320000 -0.775765
v -2.603411 -0.277128 -0.932872
v -2.625583 -0.160000 -1.047883
v -2.633699 -0.000000 -1.089980
v -2.064789 0.160000 -1.136709
v -2.049545 0.277128 -1.020577
v -2.028722 0.320000 -0.861938
v -2.007899 0.277128 -0.703299
v -1.992655 0.160000 -0.587167
v -1.987075 0.000000 -0.544659
v -1.992655 -0.160000 -0.587166
v -2.007899 -0.277128 -0.703298
v -2.028722 -0.320000 -0.861937
v -2.049545 -0.277128 -1.020577
v -2.064789 -0.160000 -1.136709
v -2.070368 -0.000000 -1.179216
v -1.463600 0.160000 -1.199510
v -1.454107 0.277128 -1.082767
v -1.441141 0.320000 -0.923294
v -1.428174 0.277128 -0.763820
v -1.418682 0.160000 -0.647077
v -1.415207 0.000000 -0.604346
v -1.418682 -0.160000 -0.647077
v -1.428174 -0.277128 -0.763820
v -1.441141 -0.320000 -0.923293
v -1.454107 -0.277128 -1.082767
v -1.463600 -0.160000 -1.199510
v -1.467074 -0.000000 -1.242241
v -0.837794 0.160000 -1.235993
v -0.833503 0.277128 -1.118944
v -0.827641 0.320000 -0.959051
v -0.821779 0.277128 -0.799159
v -0.817488 0.160000 -0.682109
v -0.815917 0.000000 -0.639266
v -0.817488 -0.160000 -0.682109
v -0.821779 -0.277128 -0.799158
v -0.827641 -0.320000 -0.959051
v -0.833503 -0.277128 -1.118943
v -0.837794 -0.160000 -1.235993
v -0.839365 -0.000000 -1.278836
v -0.203557 0.160000 -1.245550
v -0.204371 0.277128 -1.128425
v -0.205483 0.320000 -0.968429
v -0.206596 0.277128 -0.808433
v -0.207410 0.160000 -0.691307
v -0.207708 0.000000 -0.648436
v -0.207410 -0.160000 -0.691307
v -0.206596 -0.277128 -0.808432
v -0.205483 -0.320000 -0.968428
v -0.204371 -0.277128 -1.128425
v -0.203557 -0.160000 -1.245550
v -0.203259 -0.000000 -1.288421
v 0.422840 0.160000 -1.227380
v 0.416599 0.277128 -1.110418
v 0.408073 0.320000 -0.950645
v 0.399547 0.277128 -0.790873
v 0.393305 0.160000 -0.673911
v 0.391021 0.000000 -0.631100
v 0.393305 -0.160000 -0.673910
v 0.399547 -0.277128 -0.790872
v 0.408073 -0.320000 -0.950645
v 0.416599 -0.277128 -1.110417
v 0.422840 -0.160000 -1.227379
v 0.425125 -0.000000 -1.270190
v 1.025297 0.160000 -1.180469
v 1.012816 0.277128 -1.064008
v 0.995767 0.320000 -0.904919
v 0.978718 0.277128 -0.745830
v 0.966237 0.160000 -0.629368
v 0.961668 0.000000 -0.586740
v 0.966237 -0.160000 -0.629368
v 0.978718 -0.277128 -0.745829
v 0.995767 -0.320000 -0.904918
v 1.012816 -0.277128 -1.064007
v 1.025297 -0.160000 -1.180469
v 1.029866 -0.000000 -1.223097
v 1.588229 0.160000 -1.103427
v 1.567989 0.277128 -0.988061
v 1.540339 0.320000 -0.830468
v 1.512690 0.277128 -0.672875
v 1.492449 0.160000 -0.557509
v 1.485040 0.000000 -0.515282
v 1.492449 -0.160000 -0.557509
v 1.512689 -0.277128 -0.672875
v 1.540339 -0.320000 -0.830468
v 1.567988 -0.277128 -0.988060
v 1.588229 -0.160000 -1.103427
v 1.595638 -0.000000 -1.145654
v 2.097168 0.160000 -0.993951
v 2.066467 0.277128 -0.880918
v 2.024529 0.320000 -0.726512
v 1.982591 0.277128 -0.572106
v 1.951890 0.160000 -0.459073
v 1.940653 0.000000 -0.417700
v 1.951890 -0.160000 -0.459072
v 1.982591 -0.277128 -0.572105
v 2.024529 -0.320000 -0.726511
v 2.066467 -0.277128 -0.880917
v 2.097168 -0.160000 -0.993950
v 2.108405 -0.000000 -1.035324
v 2.539843 0.160000 -0.847161
v 2.493873 0.277128 -0.739430
v 2.431077 0.320000 -0.592268
v 2.368281 0.277128 -0.445106
v 2.322311 0.160000 -0.337376
v 2.305485 0.000000 -0.297944
v 2.322311 -0.160000 -0.337376
v 2.368281 -0.277128 -0.445106
v 2.431077 -0.320000 -0.592268
v 2.493873 -0.277128 -0.739430
v 2.539843 -0.160000 -0.847160
v 2.556669 -0.000000 -0.886592
v 2.906803 0.160000 -0.650290
v 2.837454 0.277128 -0.555898
v 2.742723 0.320000 -0.426956
v 2.647991 0.277128 -0.298015
v 2.578643 0.160000 -0.203623
v 2.553260 0.000000 -0.169073
v 2.578643 -0.160000 -0.203622
v 2.647991 -0.277128 -0.298014
v 2.742723 -0.320000 -0.426956
v 2.837454 -0.277128 -0.555897
v 2.906802 -0.160000 -0.650289
v 2.932186 -0.000000 -0.684839
v 3.179389 0.160000 -0.373127
v 3.079144 0.277128 -0.312547
v 2.942206 0.320000 -0.229794
v 2.805269 0.277128 -0.147040
v 2.705024 0.160000 -0.086461
v 2.668331 0.000000 -0.064287
v 2.705023 -0.160000 -0.086460
v 2.805269 -0.277128 -0.147040
v 2.942206 -0.320000 -0.229794
v 3.079143 -0.277128 -0.312547
v 3.179389 -0.160000 -0.373127
v 3.216081 -0.000000 -0.395301
v 3.289392 0.160000 0.000454
v 3.172265 0.277128 0.000262
v 3.012265 0.320000 -0.000000
v 2.852265 0.277128 -0.000262
v 2.735137 0.160000 -0.000454
v 2.692265 0.000000 -0.000525
v 2.735137 -0.160000 -0.000454
v 2.852265 -0.277128 -0.000262
v 3.012264 -0.320000 0.000000
v 3.172264 -0.277128 0.000262
v 3.289392 -0.160000 0.000454
v 3.332264 -0.000000 0.000525
vn -0.8425 0.4617 -0.2776
vn -0.5274 0.8312 -0.1761
vn -0.0562 0.9983 -0.0168
vn 0.4351 0.8828 0.1769
vn 0.7618 0.5131 0.3956
vn 0.8521 -0.0000 0.5234
vn 0.7618 -0.5131 0.3956
vn 0.4351 -0.8828 0.1769
vn -0.0562 -0.9983 -0.0168
vn -0.5274 -0.8312 -0.1761
vn -0.8425 -0.4617 -0.2776
vn -0.9502 -0.0000 -0.3118
vn -0.7364 0.4829 -0.4738
vn -0.4452 0.8480 -0.2876
vn -0.0357 0.9991 -0.0210
vn 0.3826 0.8821 0.2747
vn 0.6676 0.5080 0.5443
vn 0.7491 -0.0000 0.6625
vn 0.6676 -0.5080 0.5443
vn 0.3826 -0.8821 0.2747
vn -0.0357 -0.9991 -0.0210
vn -0.4452 -0.8480 -0.2876
vn -0.7364 -0.4829 -0.4738
vn -0.8412 -0.0000 -0.5407
vn -0.4973 0.4894 -0.7164
vn -0.2943 0.8556 -0.4258
vn -0.0131 0.9998 -0.0173
vn 0.2684 0.8738 0.4055
vn 0.4692 0.5059 0.7238
vn 0.5400 -0.0000 0.8417
vn 0.4692 -0.5059 0.7238
vn 0.2684 -0.8738 0.4055
vn -0.0131 -0.9998 -0.0173
vn -0.2943 -0.8556 -0.4258
vn -0.4973 -0.4894 -0.7164
vn -0.5708 -0.0000 -0.8211
vn -0.3332 0.4944 -0.8028
vn -0.1950 0.8605 -0.4706
vn -0.0048 0.9999 -0.0111
vn 0.1863 0.8709 0.4547
vn 0.3263 0.5047 0.7992
vn 0.3775 -0.0000 0.9260
vn 0.3263 -0.5047 0.7992
vn 0.1863 -0.8709 0.4547
vn -0.0048 -0.9999 -0.0111
vn -0.1950 -0.8605 -0.4706
vn -0.3332 -0.4944 -0.8028
vn -0.3835 -0.0000 -0.9235
vn -0.2326 0.4966 -0.8362
vn -0.1355 0.8626 -0.4874
vn -0.0021 1.0000 -0.0074
vn 0.1319 0.8693 0.4764
vn 0.2305 0.5032 0.8328
vn 0.2666 -0.0000 0.9638
vn 0.2305 -0.5032 0.8328
vn 0.1319 -0.8693 0.4764
vn -0.0021 -1.0000 -0.0074
vn -0.1355 -0.8626 -0.4874
vn -0.2326 -0.4966 -0.8362
vn -0.2680 -0.0000 -0.9634
vn -0.1644 0.4976 -0.8517
vn -0.0955 0.8636 -0.4950
vn -0.0011 1.0000 -0.0054
vn 0.0938 0.8684 0.4869
vn 0.1635 0.5024 0.8491
vn 0.1891 -0.0000 0.9820
vn 0.1635 -0.5024 0.8491
vn 0.0938 -0.8684 0.4869
vn -0.0011 -1.0000 -0.0054
vn -0.0955 -0.8636 -0.4950
vn -0.1644 -0.4976 -0.8517
vn -0.1895 -0.0000 -0.9819
vn -0.1129 0.4981 -0.8597
vn -0.0655 0.8641 -0.4990
vn -0.0006 1.0000 -0.0043
vn 0.0646 0.8679 0.4925
vn 0.1125 0.5019 0.8576
vn 0.1301 -0.0000 0.9915
vn 0.1125 -0.5019 0.8576
vn 0.0646 -0.8679 0.4925
vn -0.0006 -1.0000 -0.0043
vn -0.0655 -0.8641 -0.4990
vn -0.1129 -0.4981 -0.8597
vn -0.1302 -0.0000 -0.9915
vn -0.0703 0.4984 -0.8641
vn -0.0408 0.8644 -0.5012
vn -0.0003 1.0000 -0.0038
vn 0.0403 0.8677 0.4955
vn 0.0701 0.5016 0.8622
vn 0.0810 -0.0000 0.9967
vn 0.0701 -0.5016 0.8622
vn 0.0403 -0.8677 0.4955
vn -0.0003 -1.0000 -0.0038
vn -0.0408 -0.8644 -0.5012
vn -0.0703 -0.4984 -0.8641
vn -0.0811 -0.0000 -0.9967
vn -0.0318 0.4985 -0.8663
vn -0.0184 0.8645 -0.5023
vn -0.0001 1.0000 -0.0035
vn 0.0182 0.8676 0.4970
vn 0.0317 0.5015 0.8646
vn 0.0366 -0.0000 0.9993
vn 0.0317 -0.5015 0.8646
vn 0.0182 -0.8676 0.4970
vn -0.0001 -1.0000 -0.0035
vn -0.0184 -0.8645 -0.5023
vn -0.0318 -0.4985 -0.8663
vn -0.0366 -0.0000 -0.9993
vn 0.0060 0.4984 -0.8669
vn 0.0035 0.8645 -0.5027
vn -0.0000 1.0000 -0.0036
vn -0.0035 0.8676 0.4973
vn -0.0060 0.5016 0.8651
vn -0.0069 -0.0000 1.0000
vn -0.0060 -0.5016 0.8651
vn -0.0035 -0.8676 0.4973
vn -0.0000 -1.0000 -0.0036
vn 0.0035 -0.8645 -0.5027
vn 0.0060 -0.4984 -0.8669
vn 0.0070 -0.0000 -1.0000
vn 0.0462 0.4983 -0.8658
vn 0.0268 0.8643 -0.5023
vn 0.0002 1.0000 -0.0040
vn -0.0265 0.8678 0.4963
vn -0.0461 0.5017 0.8638
vn -0.0532 -0.0000 0.9986
vn -0.0461 -0.5017 0.8638
vn -0.0265 -0.8678 0.4963
vn 0.0002 -1.0000 -0.0040
vn 0.0268 -0.8643 -0.5023
vn 0.0462 -0.4983 -0.8658
vn 0.0533 -0.0000 -0.9986
vn 0.0925 0.4979 -0.8623
vn 0.0537 0.8639 -0.5007
vn 0.0005 1.0000 -0.0048
vn -0.0529 0.8681 0.4936
vn -0.0921 0.5021 0.8599
vn -0.1064 -0.0000 0.9943
vn -0.0921 -0.5021 0.8599
vn -0.0529 -0.8681 0.4936
vn 0.0005 -1.0000 -0.0048
vn 0.0537 -0.8639 -0.5007
vn 0.0925 -0.4979 -0.8623
vn 0.1067 -0.0000 -0.9943
vn 0.1501 0.4973 -0.8545
vn 0.0873 0.8633 -0.4971
vn 0.0011 1.0000 -0.0061
vn -0.0855 0.8687 0.4879
vn -0.1492 0.5027 0.8515
vn -0.1725 -0.0000 0.9850
vn -0.1492 -0.5027 0.8515
vn -0.0855 -0.8687 0.4879
vn 0.0011 -1.0000 -0.0061
vn 0.0873 -0.8633 -0.4971
vn 0.1501 -0.4973 -0.8545
vn 0.1731 -0.0000 -0.9849
vn 0.2283 0.4961 -0.8377
vn 0.1331 0.8621 -0.4889
vn 0.0024 1.0000 -0.0085
vn -0.1291 0.8698 0.4763
vn -0.2257 0.5037 0.8339
vn -0.2611 -0.0000 0.9653
vn -0.2257 -0.5037 0.8339
vn -0.1291 -0.8698 0.4763
vn 0.0024 -1.0000 -0.0085
vn 0.1331 -0.8621 -0.4889
vn 0.2283 -0.4961 -0.8377
vn 0.2630 -0.0000 -0.9648
vn 0.3436 0.4936 -0.7989
vn 0.2015 0.8597 -0.4693
vn 0.0057 0.9999 -0.0127
vn -0.1913 0.8717 0.4512
vn -0.3356 0.5054 0.7950
vn -0.3883 -0.0000 0.9216
vn -0.3356 -0.5054 0.7950
vn -0.1913 -0.8717 0.4512
vn 0.0057 -0.9999 -0.0127
vn 0.2015 -0.8597 -0.4693
vn 0.3436 -0.4936 -0.7989
vn 0.3954 -0.0000 -0.9185
vn 0.5230 0.4889 -0.6982
vn 0.3103 0.8549 -0.4158
vn 0.0150 0.9997 -0.0187
vn -0.2825 0.8752 0.3927
vn -0.4973 0.5078 0.7034
vn -0.5740 -0.0000 0.8189
vn -0.4973 -0.5078 0.7034
vn -0.2826 -0.8752 0.3927
vn 0.0150 -0.9997 -0.0187
vn 0.3103 -0.8549 -0.4158
vn 0.5230 -0.4889 -0.6982
vn 0.5999 -0.0000 -0.8001
vn 0.7543 0.4839 -0.4438
vn 0.4553 0.8488 -0.2687
vn 0.0356 0.9992 -0.0198
vn -0.3967 0.8837 0.2483
vn -0.7166 0.5177 0.4674
vn -0.8316 -0.0000 0.5553
vn -0.7166 -0.5177 0.4674
vn -0.3967 -0.8837 0.2483
vn 0.0356 -0.9992 -0.0198
vn 0.4553 -0.8488 -0.2687
vn 0.7543 -0.4839 -0.4438
vn 0.8620 -0.0000 -0.5068
vn 0.8484 0.4666 -0.2500
vn 0.5262 0.8359 -0.1562
vn 0.0489 0.9987 -0.0136
vn -0.4512 0.8804 0.1463
vn -0.8129 0.5096 0.2819
vn -0.9406 -0.0000 0.3394
vn -0.8129 -0.5096 0.2819
vn -0.4512 -0.8804 0.1463
vn 0.0489 -0.9987 -0.0136
vn 0.5262 -0.8359 -0.1562
vn 0.8484 -0.4666 -0.2500
vn 0.9594 -0.0000 -0.2820
vt 0.000000 1.000000
vt 0.058824 1.000000
vt 0.058824 0.916667
vt 0.000000 0.916667
vt 0.000000 0.083333
vt 0.058824 0.083333
vt 0.058824 0.000000
vt 0.000000 0.000000
vt 0.000000 0.166667
vt 0.058824 0.166667
vt 0.000000 0.250000
vt 0.058824 0.250000
vt 0.000000 0.333333
vt 0.058824 0.333333
vt 0.000000 0.416667
vt 0.058824 0.416667
vt 0.000000 0.500000
vt 0.058824 0.500000
vt 0.000000 0.583333
vt 0.058824 0.583333
vt 0.000000 0.666667
vt 0.058824 0.666667
vt 0.000000 0.750000
vt 0.058824 0.750000
vt 0.000000 0.833333
vt 0.058824 0.833333
vt 0.117647 1.000000
vt 0.117647 0.916667
vt 0.117647 0.083333
vt 0.117647 0.000000
vt 0.117647 0.166667
vt 0.117647 0.250000
vt 0.117647 0.333333
vt 0.117647 0.416667
vt 0.117647 0.500000
vt 0.117647 0.583333
vt 0.117647 0.666667
vt 0.117647 0.750000
vt 0.117647 0.833333
vt 0.176471 1.000000
vt 0.176471 0.916667
vt 0.176471 0.083333
vt 0.176471 0.000000
vt 0.176471 0.166667
vt 0.176471 0.250000
vt 0.176471 0.333333
vt 0.176471 0.416667
vt 0.176471 0.500000
vt 0.176471 0.583333
vt 0.176471 0.666667
vt 0.176471 0.750000
vt 0.176471 0.833333
vt 0.235294 1.000000
vt 0.235294 0.916667
vt 0.235294 0.083333
vt 0.235294 0.000000
vt 0.235294 0.166667
vt 0.235294 0.250000
vt 0.235294 0.333333
vt 0.235294 0.416667
vt 0.235294 0.500000
vt 0.235294 0.583333
vt 0.235294 0.666667
vt 0.235294 0.750000
vt 0.235294 0.833333
vt 0.294118 1.000000
vt 0.294118 0.916667
vt 0.294118 0.083333
vt 0.294118 0.000000
vt 0.294118 0.166667
vt 0.294118 0.250000
vt 0.294118 0.333333
vt 0.294118 0.416667
vt 0.294118 0.500000
vt 0.294118 0.583333
vt 0.294118 0.666667
vt 0.294118 0.750000
vt 0.294118 0.833333
vt 0.352941 1.000000
vt 0.352941 0.916667
vt 0.352941 0.083333
vt 0.352941 0.000000
vt 0.352941 0.166667
vt 0.352941 0.250000
vt 0.352941 0.333333
vt 0.352941 0.416667
vt 0.352941 0.500000
vt 0.352941 0.583333
vt 0.352941 0.666667
vt 0.352941 0.750000
vt 0.352941 0.833333
vt 0.411765 1.000000
vt 0.411765 0.916667
vt 0.411765 0.083333
vt 0.411765 0.000000
vt 0.411765 0.166667
vt 0.411765 0.250000
vt 0.411765 0.333333
vt 0.411765 0.416667
vt 0.411765 0.500000
vt 0.411765 0.583333
vt 0.411765 0.666667
vt 0.411765 0.750000
vt 0.411765 0.833333
vt 0.470588 1.000000
vt 0.470588 0.916667
vt 0.470588 0.083333
vt 0.470588 0.000000
vt 0.470588 0.166667
vt 0.470588 0.250000
vt 0.470588 0.333333
vt 0.470588 0.416667
vt 0.470588 0.500000
vt 0.470588 0.583333
vt 0.470588 0.666667
vt 0.470588 0.750000
vt 0.470588 0.833333
vt 0.529412 1.000000
vt 0.529412 0.916667
vt 0.529412 0.083333
vt 0.529412 0.000000
vt 0.529412 0.166667
vt 0.529412 0.250000
vt 0.529412 0.333333
vt 0.529412 0.416667
vt 0.529412 0.500000
vt 0.529412 0.583333
vt 0.529412 0.666667
vt 0.529412 0.750000
vt 0.529412 0.833333
vt 0.588235 1.000000
vt 0.588235 0.916667
vt 0.588235 0.083333
vt 0.588235 0.000000
vt 0.588235 0.166667
vt 0.588235 0.250000
vt 0.588235 0.333333
vt 0.588235 0.416667
vt 0.588235 0.500000
vt 0.588235 0.583333
vt 0.588235 0.666667
vt 0.588235 0.750000
vt 0.588235 0.833333
vt 0.647059 1.000000
vt 0.647059 0.916667
vt 0.647059 0.083333
vt 0.647059 0.000000
vt 0.647059 0.166667
vt 0.647059 0.250000
vt 0.647059 0.333333
vt 0.647059 0.416667
vt 0.647059 0.500000
vt 0.647059 0.583333
vt 0.647059 0.666667
vt 0.647059 0.750000
vt 0.647059 0.833333
vt 0.705882 1.000000
vt 0.705882 0.916667
vt 0.705882 0.083333
vt 0.705882 0.000000
vt 0.705882 0.166667
vt 0.705882 0.250000
vt 0.705882 0.333333
vt 0.705882 0.416667
vt 0.705882 0.500000
vt 0.705882 0.583333
vt 0.705882 0.666667
vt 0.705882 0.750000
vt 0.705882 0.833333
vt 0.764706 1.000000
vt 0.764706 0.916667
vt 0.764706 0.083333
vt 0.764706 0.000000
vt 0.764706 0.166667
vt 0.764706 0.250000
vt 0.764706 0.333333
vt 0.764706 0.416667
vt 0.764706 0.500000
vt 0.764706 0.583333
vt 0.764706 0.666667
vt 0.764706 0.750000
vt 0.764706 0.833333
vt 0.823529 1.000000
vt 0.823529 0.916667
vt 0.823529 0.083333
vt 0.823529 0.000000
vt 0.823529 0.166667
vt 0.823529 0.250000
vt 0.823529 0.333333
vt 0.823529 0.416667
vt 0.823529 0.500000
vt 0.823529 0.583333
vt 0.823529 0.666667
vt 0.823529 0.750000
vt 0.823529 0.833333
vt 0.882353 1.000000
vt 0.882353 0.916667
vt 0.882353 0.083333
vt 0.882353 0.000000
vt 0.882353 0.166667
vt 0.882353 0.250000
vt 0.882353 0.333333
vt 0.882353 0.416667
vt 0.882353 0.500000
vt 0.882353 0.583333
vt 0.882353 0.666667
vt 0.882353 0.750000
vt 0.882353 0.833333
vt 0.941176 1.000000
vt 0.941176 0.916667
vt 0.941176 0.083333
vt 0.941176 0.000000
vt 0.941176 0.166667
vt 0.941176 0.250000
vt 0.941176 0.333333
vt 0.941176 0.416667
vt 0.941176 0.500000
vt 0.941176 0.583333
vt 0.941176 0.666667
vt 0.941176 0.750000
vt 0.941176 0.833333
vt 1.000000 1.000000
vt 1.000000 0.916667
vt 1.000000 0.083333
vt 1.000000 0.000000
vt 1.000000 0.166667
vt 1.000000 0.250000
vt 1.000000 0.333333
vt 1.000000 0.416667
vt 1.000000 0.500000
vt 1.000000 0.583333
vt 1.000000 0.666667
vt 1.000000 0.750000
vt 1.000000 0.833333
s 1
f 217/235/217 229/236/229 240/237/240 228/238/228
f 218/239/218 230/240/230 229/241/229 217/242/217
f 219/243/219 231/244/231 230/240/230 218/239/218
f 220/245/220 232/246/232 231/244/231 219/243/219
f 221/247/221 233/248/233 232/246/232 220/245/220
f 222/249/222 234/250/234 233/248/233 221/247/221
f 223/251/223 235/252/235 234/250/234 222/249/222
f 224/253/224 236/254/236 235/252/235 223/251/223
f 225/255/225 237/256/237 236/254/236 224/253/224
f 226/257/226 238/258/238 237/256/237 225/255/225
f 227/259/227 239/260/239 238/258/238 226/257/226
f 228/238/228 240/237/240 239/260/239 227/259/227
f 229/236/229 241/261/241 252/262/252 240/237/240
f 230/240/230 242/263/242 241/264/241 229/241/229
f 231/244/231 243/265/243 242/263/242 230/240/230
f 232/246/232 244/266/244 243/265/243 231/244/231
f 233/248/233 245/267/245 244/266/244 232/246/232
f 234/250/234 246/268/246 245/267/245 233/248/233
f 235/252/235 247/269/247 246/268/246 234/250/234
f 236/254/236 248/270/248 247/269/247 235/252/235
f 237/256/237 249/271/249 248/270/248 236/254/236
f 238/258/238 250/272/250 249/271/249 237/256/237
f 239/260/239 251/273/251 250/272/250 238/258/238
f 240/237/240 252/262/252 251/273/251 239/260/239
f 241/261/241 253/274/253 264/275/264 252/262/252
f 242/263/242 254/276/254 253/277/253 241/264/241
f 243/265/243 255/278/255 254/276/254 242/263/242
f 244/266/244 256/279/256 255/278/255 243/265/243
f 245/267/245 257/280/257 256/279/256 244/266/244
f 246/268/246 258/281/258 257/280/257 245/267/245
f 247/269/247 259/282/259 258/281/258 246/268/246
f 248/270/248 260/283/260 259/282/259 247/269/247
f 249/271/249 261/284/261 260/283/260 248/270/248
f 250/272/250 262/285/262 261/284/261 249/271/249
f 251/273/251 263/286/263 262/285/262 250/272/250
f 252/262/252 264/275/264 263/286/263 251/273/251
f 253/274/253 265/287/265 276/288/276 264/275/264
f 254/276/254 266/289/266 265/290/265 253/277/253
f 255/278/255 267/291/267 266/289/266 254/276/254
f 256/279/256 268/292/268 267/291/267 255/278/255
f 257/280/257 269/293/269 268/292/268 256/279/256
f 258/281/258 270/294/270 269/293/269 257/280/257
f 259/282/259 271/295/271 270/294/270 258/281/258
f 260/283/260 272/296/272 271/295/271 259/282/259
f 261/284/261 273/297/273 272/296/272 260/283/260
f 262/285/262 274/298/274 273/297/273 261/284/261
f 263/286/263 275/299/275 274/298/274 262/285/262
f 264/275/264 276/288/276 275/299/275 263/286/263
f 265/287/265 277/300/277 288/301/288 276/288/276
f 266/289/266 278/302/278 277/303/277 265/290/265
f 267/291/267 279/304/279 278/302/278 266/289/266
f 268/292/268 280/305/280 279/304/279 267/291/267
f 269/293/269 281/306/281 280/305/280 268/292/268
f 270/294/270 282/307/282 281/306/281 269/293/269
f 271/295/271 283/308/283 282/307/282 270/294/270
f 272/296/272 284/309/284 283/308/283 271/295/271
f 273/297/273 285/310/285 284/309/284 272/296/272
f 274/298/274 286/311/286 285/310/285 273/297/273
f 275/299/275 287/312/287 286/311/286 274/298/274
f 276/288/276 288/301/288 287/312/287 275/299/275
f 277/300/277 289/313/289 300/314/300 288/301/288
f 278/302/278 290/315/290 289/316/289 277/303/277
f 279/304/279 291/317/291 290/315/290 278/302/278
f 280/305/280 292/318/292 291/317/291 279/304/279
f 281/306/281 293/319/293 292/318/292 280/305/280
f 282/307/282 294/320/294 293/319/293 281/306/281
f 283/308/283 295/321/295 294/320/294 282/307/282
f 284/309/284 296/322/296 295/321/295 283/308/283
f 285/310/285 297/323/297 296/322/296 284/309/284
f 286/311/286 298/324/298 297/323/297 285/310/285
f 287/312/287 299/325/299 298/324/298 286/311/286
f 288/301/288 300/314/300 299/325/299 287/312/287
f 289/313/289 301/326/301 312/327/312 300/314/300
f 290/315/290 302/328/302 301/329/301 289/316/289
f 291/317/291 303/330/303 302/328/302 290/315/290
f 292/318/292 304/331/304 303/330/303 291/317/291
f 293/319/293 305/332/305 304/331/304 292/318/292
f 294/320/294 306/333/306 305/332/305 293/319/293
f 295/321/295 307/334/307 306/333/306 294/320/294
f 296/322/296 308/335/308 307/334/307 295/321/295
f 297/323/297 309/336/309 308/335/308 296/322/296
f 298/324/298 310/337/310 309/336/309 297/323/297
f 299/325/299 311/338/311 310/337/310 298/324/298
f 300/314/300 312/327/312 311/338/311 299/325/299
f 301/326/301 313/339/313 324/340/324 312/327/312
f 302/328/302 314/341/314 313/342/313 301/329/301
f 303/330/303 315/343/315 314/341/314 302/328/302
f 304/331/304 316/344/316 315/343/315 303/330/303
f 305/332/305 317/345/317 316/344/316 304/331/304
f 306/333/306 318/346/318 317/345/317 305/332/305
f 307/334/307 319/347/319 318/346/318 306/333/306
f 308/335/308 320/348/320 319/347/319 307/334/307
f 309/336/309 321/349/321 320/348/320 308/335/308
f 310/337/310 322/350/322 321/349/321 309/336/309
f 311/338/311 323/351/323 322/350/322 310/337/310
f 312/327/312 324/340/324 323/351/323 311/338/311
f 313/339/313 325/352/325 336/353/336 324/340/324
f 314/341/314 326/354/326 325/355/325 313/342/313
f 315/343/315 327/356/327 326/354/326 314/341/314
f 316/344/316 328/357/328 327/356/327 315/343/315
f 317/345/317 329/358/329 328/357/328 316/344/316
f 318/346/318 330/359/330 329/358/329 317/345/317
f 319/347/319 331/360/331 330/359/330 318/346/318
f 320/348/320 332/361/332 331/360/331 319/347/319
f 321/349/321 333/362/333 332/361/332 320/348/320
f 322/350/322 334/363/334 333/362/333 321/349/321
f 323/351/323 335/364/335 334/363/334 322/350/322
f 324/340/324 336/353/336 335/364/335 323/351/323
f 325/352/325 337/365/337 348/366/348 336/353/336
f 326/354/326 338/367/338 337/368/337 325/355/325
f 327/356/327 339/369/339 338/367/338 326/354/326
f 328/357/328 340/370/340 339/369/339 327/356/327
f 329/358/329 341/371/341 340/370/340 328/357/328
f 330/359/330 342/372/342 341/371/341 329/358/329
f 331/360/331 343/373/343 342/372/342 330/359/330
f 332/361/332 344/374/344 343/373/343 331/360/331
f 333/362/333 345/375/345 344/374/344 332/361/332
f 334/363/334 346/376/346 345/375/345 333/362/333
f 335/364/335 347/377/347 346/376/346 334/363/334
f 336/353/336 348/366/348 347/377/347 335/364/335
f 337/365/337 349/378/349 360/379/360 348/366/348
f 338/367/338 350/380/350 349/381/349 337/368/337
f 339/369/339 351/382/351 350/380/350 338/367/338
f 340/370/340 352/383/352 351/382/351 339/369/339
f 341/371/341 353/384/353 352/383/352 340/370/340
f 342/372/342 354/385/354 353/384/353 341/371/341
f 343/373/343 355/386/355 354/385/354 342/372/342
f 344/374/344 356/387/356 355/386/355 343/373/343
f 345/375/345 357/388/357 356/387/356 344/374/344
f 346/376/346 358/389/358 357/388/357 345/375/345
f 347/377/347 359/390/359 358/389/358 346/376/346
f 348/366/348 360/379/360 359/390/359 347/377/347
f 349/378/349 361/391/361 372/392/372 360/379/360
f 350/380/350 362/393/362 361/394/361 349/381/349
f 351/382/351 363/395/363 362/393/362 350/380/350
f 352/383/352 364/396/364 363/395/363 351/382/351
f 353/384/353 365/397/365 364/396/364 352/383/352
f 354/385/354 366/398/366 365/397/365 353/384/353
f 355/386/355 367/399/367 366/398/366 354/385/354
f 356/387/356 368/400/368 367/399/367 355/386/355
f 357/388/357 369/401/369 368/400/368 356/387/356
f 358/389/358 370/402/370 369/401/369 357/388/357
f 359/390/359 371/403/371 370/402/370 358/389/358
f 360/379/360 372/392/372 371/403/371 359/390/359
f 361/391/361 373/404/373 384/405/384 372/392/372
f 362/393/362 374/406/374 373/407/373 361/394/361
f 363/395/363 375/408/375 374/406/374 362/393/362
f 364/396/364 376/409/376 375/408/375 363/395/363
f 365/397/365 377/410/377 376/409/376 364/396/364
f 366/398/366 378/411/378 377/410/377 365/397/365
f 367/399/367 379/412/379 378/411/378 366/398/366
f 368/400/368 380/413/380 379/412/379 367/399/367
f 369/401/369 381/414/381 380/413/380 368/400/368
f 370/402/370 382/415/382 381/414/381 369/401/369
f 371/403/371 383/416/383 382/415/382 370/402/370
f 372/392/372 384/405/384 383/416/383 371/403/371
f 373/404/373 385/417/385 396/418/396 384/405/384
f 374/406/374 386/419/386 385/420/385 373/407/373
f 375/408/375 387/421/387 386/419/386 374/406/374
f 376/409/376 388/422/388 387/421/387 375/408/375
f 377/410/377 389/423/389 388/422/388 376/409/376
f 378/411/378 390/424/390 389/423/389 377/410/377
f 379/412/379 391/425/391 390/424/390 378/411/378
f 380/413/380 392/426/392 391/425/391 379/412/379
f 381/414/381 393/427/393 392/426/392 380/413/380
f 382/415/382 394/428/394 393/427/393 381/414/381
f 383/416/383 395/429/395 394/428/394 382/415/382
f 384/405/384 396/418/396 395/429/395 383/416/383
f 385/417/385 397/430/397 408/431/408 396/418/396
f 386/419/386 398/432/398 397/433/397 385/420/385
f 387/421/387 399/434/399 398/432/398 386/419/386
f 388/422/388 400/435/400 399/434/399 387/421/387
f 389/423/389 401/436/401 400/435/400 388/422/388
f 390/424/390 402/437/402 401/436/401 389/423/389
f 391/425/391 403/438/403 402/437/402 390/424/390
f 392/426/392 404/439/404 403/438/403 391/425/391
f 393/427/393 405/440/405 404/439/404 392/426/392
f 394/428/394 406/441/406 405/440/405 393/427/393
f 395/429/395 407/442/407 406/441/406 394/428/394
f 396/418/396 408/431/408 407/442/407 395/429/395
f 397/430/397 409/443/409 420/444/420 408/431/408
f 398/432/398 410/445/410 409/446/409 397/433/397
f 399/434/399 411/447/411 410/445/410 398/432/398
f 400/435/400 412/448/412 411/447/411 399/434/399
f 401/436/401 413/449/413 412/448/412 400/435/400
f 402/437/402 414/450/414 413/449/413 401/436/401
f 403/438/403 415/451/415 414/450/414 402/437/402
f 404/439/404 416/452/416 415/451/415 403/438/403
f 405/440/405 417/453/417 416/452/416 404/439/404
f 406/441/406 418/454/418 417/453/417 405/440/405
f 407/442/407 419/455/419 418/454/418 406/441/406
f 408/431/408 420/444/420 419/455/419 407/442/407
f 409/443/409 421/456/421 432/457/432 420/444/420
f 410/445/410 422/458/422 421/459/421 409/446/409
f 411/447/411 423/460/423 422/458/422 410/445/410
f 412/448/412 424/461/424 423/460/423 411/447/411
f 413/449/413 425/462/425 424/461/424 412/448/412
f 414/450/414 426/463/426 425/462/425 413/449/413
f 415/451/415 427/464/427 426/463/426 414/450/414
f 416/452/416 428/465/428 427/464/427 415/451/415
f 417/453/417 429/466/429 428/465/428 416/452/416
f 418/454/418 430/467/430 429/466/429 417/453/417
f 419/455/419 431/468/431 430/467/430 418/454/418
f 420/444/420 432/457/432 431/468/431 419/455/419
