# Blender 3.3.21
# www.blender.org
mtllib calderoCarro.mtl
o Caldero
v -0.604345 0.600000 0.413913
v -0.825902 0.200000 0.566810
v -0.825902 -0.200000 0.566810
v -0.614704 -0.600000 0.428368
v -0.744283 -0.600000 0.110717
v -1.000000 -0.200000 0.146500
v -1.000000 0.200000 0.146500
v -0.731740 0.600000 0.106981
v -0.421867 -0.600000 0.624177
v -0.566810 -0.200000 0.825902
v -0.566810 0.200000 0.825902
v -0.414758 0.600000 0.603114
v -0.107200 0.600000 0.730249
v -0.146500 0.200000 1.000000
v -0.146500 -0.200000 1.000000
v -0.109037 -0.600000 0.755752
v -0.051598 -0.759739 0.353049
v -0.199632 -0.759739 0.291583
v -0.290885 -0.759739 0.200112
v -0.352203 -0.759739 0.051721
v -0.721105 0.735906 0.104081
v -0.595562 0.735906 0.402691
v -0.408730 0.735906 0.586762
v -0.105642 0.735906 0.710451
v -0.352203 -0.759739 -0.051721
v -0.290885 -0.759739 -0.200112
v -0.199632 -0.759739 -0.291583
v -0.051598 -0.759739 -0.353049
v -0.105642 0.735906 -0.710451
v -0.408730 0.735906 -0.586762
v -0.595562 0.735906 -0.402691
v -0.721105 0.735906 -0.104081
v 0.352203 -0.759739 0.051721
v 0.290885 -0.759739 0.200112
v 0.199632 -0.759739 0.291583
v 0.051598 -0.759739 0.353049
v 0.105642 0.735906 0.710451
v 0.408730 0.735906 0.586762
v 0.595562 0.735906 0.402691
v 0.721105 0.735906 0.104081
v 0.051598 -0.759739 -0.353049
v 0.199632 -0.759739 -0.291583
v 0.290885 -0.759739 -0.200112
v 0.352203 -0.759739 -0.051721
v 0.721105 0.735906 -0.104081
v 0.595562 0.735906 -0.402691
v 0.408730 0.735906 -0.586762
v 0.105642 0.735906 -0.710451
v -0.107200 0.600000 -0.730249
v -0.146500 0.200000 -1.000000
v -0.146500 -0.200000 -1.000000
v -0.109037 -0.600000 -0.755752
v -0.421867 -0.600000 -0.624177
v -0.566810 -0.200000 -0.825902
v -0.566810 0.200000 -0.825902
v -0.414758 0.600000 -0.603114
v -0.744283 -0.600000 -0.110717
v -1.000000 -0.200000 -0.146500
v -1.000000 0.200000 -0.146500
v -0.731740 0.600000 -0.106981
v -0.604345 0.600000 -0.413913
v -0.825902 0.200000 -0.566810
v -0.825902 -0.200000 -0.566810
v -0.614704 -0.600000 -0.428368
v 0.731740 0.600000 -0.106981
v 1.000000 0.200000 -0.146500
v 1.000000 -0.200000 -0.146500
v 0.744283 -0.600000 -0.110717
v 0.614704 -0.600000 -0.428368
v 0.825902 -0.200000 -0.566810
v 0.825902 0.200000 -0.566810
v 0.604345 0.600000 -0.413913
v 0.109037 -0.600000 -0.755752
v 0.146500 -0.200000 -1.000000
v 0.146500 0.200000 -1.000000
v 0.107200 0.600000 -0.730249
v 0.414758 0.600000 -0.603114
v 0.566810 0.200000 -0.825902
v 0.566810 -0.200000 -0.825902
v 0.421867 -0.600000 -0.624177
v 0.107200 0.600000 0.730249
v 0.146500 0.200000 1.000000
v 0.146500 -0.200000 1.000000
v 0.109037 -0.600000 0.755752
v 0.421867 -0.600000 0.624177
v 0.566810 -0.200000 0.825902
v 0.566810 0.200000 0.825902
v 0.414758 0.600000 0.603114
v 0.744283 -0.600000 0.110717
v 1.000000 -0.200000 0.146500
v 1.000000 0.200000 0.146500
v 0.731740 0.600000 0.106981
v 0.604345 0.600000 0.413913
v 0.825902 0.200000 0.566810
v 0.825902 -0.200000 0.566810
v 0.614704 -0.600000 0.428368
v -0.823128 0.736181 0.115896
v -0.835268 0.595221 0.119126
v -0.120588 0.736181 -0.791100
v -0.122366 0.595221 -0.813146
v -0.466557 0.736181 0.653371
v -0.473439 0.595221 0.671578
v -0.122366 0.595221 0.813146
v -0.120588 0.736181 0.791100
v -0.679823 0.736181 0.448403
v -0.689849 0.595221 0.460899
v -0.466557 0.736181 -0.653371
v -0.473439 0.595221 -0.671578
v -0.835268 0.595221 -0.119126
v -0.823128 0.736181 -0.115896
v -0.679823 0.736181 -0.448403
v 0.679823 0.736181 -0.448403
v 0.823128 0.736181 -0.115896
v 0.689849 0.595221 -0.460899
v 0.122366 0.595221 -0.813146
v 0.120588 0.736181 -0.791100
v 0.466557 0.736181 -0.653371
v 0.466557 0.736181 0.653371
v 0.120588 0.736181 0.791100
v 0.473439 0.595221 0.671578
v 0.835268 0.595221 0.119126
v 0.823128 0.736181 0.115896
v 0.679823 0.736181 0.448403
v -0.689849 0.595221 -0.460899
v 0.835268 0.595221 -0.119125
v 0.473439 0.595221 -0.671578
v 0.122366 0.595221 0.813146
v 0.689849 0.595221 0.460899
v -0.105642 0.562851 0.710451
v -0.408730 0.562851 0.586762
v -0.595562 0.562851 0.402691
v -0.721105 0.562851 0.104081
v -0.408730 0.562851 -0.586762
v -0.105642 0.562851 -0.710451
v -0.721105 0.562851 -0.104081
v -0.595562 0.562851 -0.402691
v 0.595562 0.562851 -0.402691
v 0.721105 0.562851 -0.104081
v 0.105642 0.562851 -0.710451
v 0.408730 0.562851 -0.586762
v 0.408730 0.562851 0.586762
v 0.105642 0.562851 0.710451
v 0.721105 0.562851 0.104081
v 0.595562 0.562851 0.402691
v 0.990747 0.067509 0.165150
v 1.046608 0.079573 0.200000
v 1.102469 0.067509 0.165150
v 1.102469 0.168005 0.067898
v 1.046608 0.197347 0.082226
v 0.990747 0.168005 0.067898
v 1.102469 0.067509 -0.165150
v 1.046608 0.079573 -0.200000
v 0.990747 0.067509 -0.165150
v 0.990747 0.168005 -0.067898
v 1.046608 0.197347 -0.082226
v 1.102469 0.168005 -0.067898
v 1.102469 -0.173312 -0.067898
v 1.046608 -0.202653 -0.082226
v 0.990747 -0.173312 -0.067898
v 0.990747 -0.072816 -0.165150
v 1.046608 -0.084879 -0.200000
v 1.102469 -0.072816 -0.165150
v 1.102469 -0.072816 0.165150
v 1.046608 -0.084879 0.200000
v 0.990747 -0.072816 0.165150
v 0.990747 -0.173312 0.067898
v 1.046608 -0.202653 0.082226
v 1.102469 -0.173312 0.067898
v 1.057611 0.039077 0.093002
v 1.057611 0.098848 0.038236
v 1.057611 0.039077 -0.093002
v 1.057611 0.098848 -0.038236
v 1.057611 -0.104155 -0.038236
v 1.057611 -0.044383 -0.093002
v 1.057611 -0.044383 0.093002
v 1.057611 -0.104155 0.038236
v 1.007619 0.039585 0.092527
v 1.007619 0.100085 0.038041
v 1.007619 0.039585 -0.092527
v 1.007619 0.100085 -0.038041
v 1.007619 -0.105391 -0.038041
v 1.007619 -0.044892 -0.092527
v 1.007619 -0.044892 0.092527
v 1.007619 -0.105391 0.038041
v -1.114581 0.067509 0.165150
v -1.058719 0.079573 0.200000
v -1.002858 0.067509 0.165150
v -1.002858 0.168005 0.067898
v -1.058719 0.197347 0.082226
v -1.114581 0.168005 0.067898
v -1.002858 0.067509 -0.165150
v -1.058719 0.079573 -0.200000
v -1.114581 0.067509 -0.165150
v -1.114581 0.168005 -0.067898
v -1.058719 0.197347 -0.082226
v -1.002858 0.168005 -0.067898
v -1.002858 -0.173312 -0.067898
v -1.058719 -0.202653 -0.082226
v -1.114581 -0.173312 -0.067898
v -1.114581 -0.072816 -0.165150
v -1.058719 -0.084879 -0.200000
v -1.002858 -0.072816 -0.165150
v -1.002858 -0.072816 0.165150
v -1.058719 -0.084879 0.200000
v -1.114581 -0.072816 0.165150
v -1.114581 -0.173312 0.067898
v -1.058719 -0.202653 0.082226
v -1.002858 -0.173312 0.067898
v -1.047716 0.039077 0.093002
v -1.047716 0.098848 0.038236
v -1.047716 0.039077 -0.093002
v -1.047716 0.098848 -0.038236
v -1.047716 -0.104155 -0.038236
v -1.047716 -0.044383 -0.093002
v -1.047716 -0.044383 0.093002
v -1.047716 -0.104155 0.038236
v -1.097708 0.039585 0.092527
v -1.097708 0.100085 0.038041
v -1.097708 0.039585 -0.092527
v -1.097708 0.100085 -0.038041
v -1.097708 -0.105391 -0.038041
v -1.097708 -0.044892 -0.092527
v -1.097708 -0.044892 0.092527
v -1.097708 -0.105391 0.038041
v -1.084297 -0.704621 -0.101754
v 1.060408 -0.704621 -0.101754
v -1.084297 -0.724473 -0.099798
v 1.060408 -0.724473 -0.099798
v -1.084297 -0.743561 -0.094008
v 1.060408 -0.743561 -0.094008
v -1.084297 -0.761153 -0.084605
v 1.060408 -0.761153 -0.084605
v -1.084297 -0.776572 -0.071951
v 1.060408 -0.776572 -0.071951
v -1.084297 -0.789226 -0.056531
v 1.060408 -0.789227 -0.056531
v -1.084297 -0.798630 -0.038939
v 1.060408 -0.798630 -0.038939
v -1.084297 -0.804420 -0.019851
v 1.060408 -0.804420 -0.019851
v -1.084297 -0.806375 0.000000
v 1.060408 -0.806375 0.000000
v -1.084297 -0.804420 0.019851
v 1.060408 -0.804420 0.019851
v -1.084297 -0.798630 0.038939
v 1.060408 -0.798630 0.038939
v -1.084297 -0.789226 0.056531
v 1.060408 -0.789227 0.056531
v -1.084297 -0.776572 0.071951
v 1.060408 -0.776572 0.071951
v -1.084297 -0.761153 0.084605
v 1.060408 -0.761153 0.084605
v -1.084297 -0.743561 0.094008
v 1.060408 -0.743561 0.094008
v -1.084297 -0.724473 0.099798
v 1.060408 -0.724473 0.099798
v -1.084297 -0.704621 0.101754
v 1.060408 -0.704621 0.101754
v -1.084297 -0.684770 0.099798
v 1.060408 -0.684770 0.099798
v -1.084297 -0.665682 0.094008
v 1.060408 -0.665682 0.094008
v -1.084297 -0.648090 0.084605
v 1.060408 -0.648090 0.084605
v -1.084297 -0.632671 0.071951
v 1.060408 -0.632671 0.071951
v -1.084297 -0.620016 0.056531
v 1.060408 -0.620016 0.056531
v -1.084297 -0.610613 0.038939
v 1.060408 -0.610613 0.038939
v -1.084297 -0.604823 0.019851
v 1.060408 -0.604823 0.019851
v -1.084297 -0.602868 0.000000
v 1.060408 -0.602868 0.000000
v -1.084297 -0.604823 -0.019851
v 1.060408 -0.604823 -0.019851
v -1.084297 -0.610613 -0.038939
v 1.060408 -0.610613 -0.038939
v -1.084297 -0.620016 -0.056531
v 1.060408 -0.620016 -0.056531
v -1.084297 -0.632671 -0.071951
v 1.060408 -0.632671 -0.071951
v -1.084297 -0.648090 -0.084605
v 1.060408 -0.648090 -0.084605
v -1.084297 -0.665682 -0.094008
v 1.060408 -0.665682 -0.094008
v -1.084297 -0.684770 -0.099798
v 1.060408 -0.684770 -0.099798
v -1.126168 -1.099098 0.051758
v -1.126168 -0.307197 0.055904
v -1.126168 -1.098544 -0.054143
v -1.126168 -0.306643 -0.049997
v -1.073217 -1.099098 0.051758
v -1.073217 -0.307197 0.055904
v -1.073217 -1.098544 -0.054143
v -1.073217 -0.306643 -0.049997
v -1.226380 -0.513566 0.439121
v -1.078485 -0.482112 0.531554
v -0.930589 -0.513566 0.439121
v -0.930589 -0.246154 0.183038
v -1.078485 -0.168671 0.221378
v -1.226380 -0.246154 0.183038
v -0.930589 -0.508988 -0.435353
v -1.078485 -0.476567 -0.527452
v -1.226380 -0.508987 -0.435353
v -1.226380 -0.244272 -0.176484
v -1.078485 -0.166391 -0.214011
v -0.930589 -0.244272 -0.176484
v -0.930589 -1.147914 -0.181216
v -1.078485 -1.225397 -0.219556
v -1.226380 -1.147914 -0.181216
v -1.226380 -0.880502 -0.437298
v -1.078485 -0.911956 -0.529732
v -0.930589 -0.880502 -0.437298
v -0.930589 -0.885080 0.437175
v -1.078485 -0.917501 0.529274
v -1.226380 -0.885080 0.437175
v -1.226380 -1.149796 0.178306
v -1.078485 -1.227677 0.215833
v -0.930589 -1.149796 0.178306
v -1.049353 -0.540513 0.364804
v -1.049353 -0.312483 0.152195
v -1.049353 -0.536711 -0.361323
v -1.049353 -0.310920 -0.146337
v -1.049353 -1.081584 -0.150373
v -1.049353 -0.853554 -0.362982
v -1.049353 -0.857356 0.363145
v -1.049353 -1.083148 0.148160
v -1.181710 -0.538574 0.362961
v -1.181710 -0.307785 0.151457
v -1.181710 -0.534791 -0.359459
v -1.181710 -0.306229 -0.145551
v -1.181710 -1.086283 -0.149635
v -1.181710 -0.855494 -0.361139
v -1.181710 -0.859277 0.361282
v -1.181710 -1.087838 0.147373
v -1.126168 -0.746010 -0.395048
v -1.126168 -0.750156 0.396852
v -1.126168 -0.640109 -0.394494
v -1.126168 -0.644256 0.397407
v -1.073217 -0.746010 -0.395048
v -1.073217 -0.750156 0.396852
v -1.073217 -0.640109 -0.394494
v -1.073217 -0.644256 0.397407
v -1.126168 -0.935997 0.341989
v -1.126168 -0.373107 -0.215038
v -1.126168 -1.010488 0.266714
v -1.126168 -0.447598 -0.290313
v -1.073217 -0.935997 0.341989
v -1.073217 -0.373107 -0.215038
v -1.073217 -1.010488 0.266714
v -1.073217 -0.447598 -0.290313
v -1.126168 -1.024373 -0.245730
v -1.126168 -0.467346 0.317160
v -1.126168 -0.949098 -0.320221
v -1.126168 -0.392071 0.242669
v -1.073217 -1.024373 -0.245730
v -1.073217 -0.467346 0.317160
v -1.073217 -0.949097 -0.320221
v -1.073217 -0.392071 0.242669
v 1.119356 -0.297425 0.053856
v 1.119356 -1.089337 0.053856
v 1.119356 -0.297425 -0.052046
v 1.119356 -1.089337 -0.052046
v 1.066405 -0.297425 0.053856
v 1.066405 -1.089337 0.053856
v 1.066405 -0.297425 -0.052046
v 1.066405 -1.089337 -0.052046
v 1.219568 -0.884977 0.438148
v 1.071673 -0.916915 0.530416
v 0.923777 -0.884977 0.438148
v 0.923777 -1.151045 0.180669
v 1.071673 -1.228728 0.218603
v 1.219568 -1.151045 0.180669
v 0.923777 -0.884977 -0.436337
v 1.071673 -0.916915 -0.528605
v 1.219568 -0.884977 -0.436337
v 1.219568 -1.151045 -0.178858
v 1.071673 -1.228728 -0.216792
v 0.923777 -1.151045 -0.178858
v 0.923777 -0.247390 -0.178858
v 1.071673 -0.169707 -0.216792
v 1.219568 -0.247391 -0.178858
v 1.219568 -0.513458 -0.436337
v 1.071673 -0.481520 -0.528605
v 0.923777 -0.513458 -0.436337
v 0.923777 -0.513458 0.438148
v 1.071673 -0.481520 0.530416
v 1.219568 -0.513458 0.438148
v 1.219568 -0.247391 0.180669
v 1.071673 -0.169707 0.218603
v 0.923777 -0.247390 0.180669
v 1.042541 -0.857641 0.363974
v 1.042541 -1.084555 0.150174
v 1.042541 -0.857641 -0.362163
v 1.042541 -1.084555 -0.148363
v 1.042541 -0.313880 -0.148363
v 1.042541 -0.540794 -0.362163
v 1.042541 -0.540794 0.363974
v 1.042541 -0.313880 0.150174
v 1.174898 -0.859572 0.362120
v 1.174898 -1.089250 0.149412
v 1.174898 -0.859572 -0.360310
v 1.174898 -1.089250 -0.147601
v 1.174898 -0.309185 -0.147601
v 1.174898 -0.538864 -0.360310
v 1.174898 -0.538864 0.362120
v 1.174898 -0.309185 0.149412
v 1.119356 -0.648169 -0.394792
v 1.119356 -0.648169 0.397119
v 1.119356 -0.754071 -0.394792
v 1.119356 -0.754071 0.397119
v 1.066405 -0.648169 -0.394792
v 1.066405 -0.648169 0.397119
v 1.066405 -0.754071 -0.394792
v 1.066405 -0.754071 0.397119
v 1.119356 -0.462043 0.343230
v 1.119356 -1.022010 -0.216736
v 1.119356 -0.387159 0.268346
v 1.119356 -0.947125 -0.291620
v 1.066405 -0.462043 0.343230
v 1.066405 -1.022010 -0.216736
v 1.066405 -0.387159 0.268346
v 1.066405 -0.947125 -0.291620
v 1.119356 -0.370592 -0.244019
v 1.119356 -0.930558 0.315948
v 1.119356 -0.445476 -0.318903
v 1.119356 -1.005442 0.241064
v 1.066405 -0.370592 -0.244019
v 1.066405 -0.930558 0.315948
v 1.066405 -0.445476 -0.318903
v 1.066405 -1.005442 0.241064
vn -0.0013 1.0000 -0.0031
vn 0.2687 -0.9258 -0.2657
vn -0.2687 -0.9258 -0.2657
vn -1.0000 -0.0000 -0.0000
vn 0.2687 -0.9258 0.2657
vn -0.0446 -0.9988 -0.0188
vn -0.0000 -0.9983 0.0576
vn 0.3541 -0.9239 0.1450
vn -0.0365 -0.9986 0.0371
vn -0.0013 1.0000 0.0031
vn 0.0013 1.0000 0.0031
vn -0.3541 -0.9239 0.1450
vn -0.1454 -0.9264 -0.3472
vn -0.0021 1.0000 -0.0022
vn 0.3541 -0.9239 -0.1450
vn -0.0461 -0.9989 -0.0000
vn 0.1454 -0.9264 0.3472
vn -0.0446 -0.9988 0.0188
vn -0.0000 -1.0000 -0.0000
vn 0.7850 -0.5285 0.3230
vn 0.9239 -0.0000 0.3827
vn 0.7718 0.5495 0.3200
vn 0.0365 -0.9986 0.0371
vn 0.3191 0.5510 0.7711
vn 0.3827 -0.0000 0.9239
vn 0.3297 -0.5159 0.7907
vn 0.1454 -0.9264 -0.3472
vn 0.3297 -0.5159 -0.7907
vn 0.3827 -0.0000 -0.9239
vn 0.3191 0.5510 -0.7711
vn 0.0021 1.0000 0.0022
vn 0.7718 0.5495 -0.3200
vn 0.9239 -0.0000 -0.3827
vn 0.7850 -0.5285 -0.3230
vn -0.3541 -0.9239 -0.1450
vn -0.7850 -0.5285 -0.3230
vn -0.9239 -0.0000 -0.3827
vn -0.7718 0.5495 -0.3200
vn -0.0215 -0.9984 0.0526
vn -0.3191 0.5510 -0.7711
vn -0.3827 -0.0000 -0.9239
vn -0.3297 -0.5159 -0.7907
vn -0.0000 1.0000 0.0034
vn -0.7718 0.5495 0.3200
vn -0.9239 -0.0000 0.3827
vn -0.7850 -0.5285 0.3230
vn -0.1454 -0.9264 0.3472
vn -0.3297 -0.5159 0.7907
vn -0.3827 -0.0000 0.9239
vn -0.3191 0.5510 0.7711
vn -0.2687 -0.9258 0.2657
vn -0.6042 -0.5242 0.6002
vn -0.7071 -0.0000 0.7071
vn -0.5893 0.5522 0.5898
vn 0.3773 -0.9261 -0.0000
vn 0.8425 -0.5386 -0.0000
vn 1.0000 -0.0000 -0.0000
vn 0.8305 0.5570 -0.0000
vn -0.0000 -0.9295 -0.3687
vn -0.0000 -0.5211 -0.8535
vn -0.0000 -0.0000 -1.0000
vn -0.0000 0.5591 -0.8291
vn -0.0000 -0.9295 0.3687
vn -0.0000 -0.5211 0.8535
vn -0.0000 -0.0000 1.0000
vn -0.0000 0.5591 0.8291
vn 0.0446 -0.9988 -0.0188
vn 0.5893 0.5522 0.5898
vn 0.7071 -0.0000 0.7071
vn 0.6042 -0.5242 0.6002
vn 0.0026 1.0000 -0.0011
vn -0.5893 0.5522 -0.5898
vn -0.7071 -0.0000 -0.7071
vn -0.6042 -0.5242 -0.6002
vn -0.0021 1.0000 0.0022
vn 0.5893 0.5522 -0.5898
vn 0.7071 -0.0000 -0.7071
vn 0.6042 -0.5242 -0.6002
vn -0.3773 -0.9261 -0.0000
vn -0.8425 -0.5386 -0.0000
vn -0.8305 0.5570 -0.0000
vn -0.9963 0.0858 -0.0000
vn -0.0000 0.1545 0.9880
vn -0.0000 0.1545 -0.9880
vn 0.9963 0.0858 -0.0000
vn -0.6903 0.1191 0.7136
vn -0.3681 0.1425 0.9188
vn -0.9152 0.0938 -0.3919
vn 0.3681 0.1425 -0.9188
vn 0.9152 0.0938 0.3919
vn 0.3681 0.1425 0.9188
vn 0.9152 0.0938 -0.3919
vn -0.3681 0.1425 -0.9188
vn -0.9152 0.0938 0.3919
vn 0.6903 0.1191 0.7136
vn -0.6903 0.1191 -0.7136
vn 0.6903 0.1191 -0.7136
vn -0.0215 -0.9984 -0.0526
vn 0.0215 -0.9984 -0.0526
vn 0.0446 -0.9988 0.0188
vn 0.0021 1.0000 -0.0022
vn 0.0026 1.0000 0.0011
vn 0.0215 -0.9984 0.0526
vn -0.0000 1.0000 -0.0034
vn -0.0000 -0.9983 -0.0576
vn 0.0027 1.0000 -0.0000
vn -0.0365 -0.9986 -0.0371
vn 0.0013 1.0000 -0.0031
vn 0.0365 -0.9986 -0.0371
vn -0.0026 1.0000 0.0011
vn -0.0027 1.0000 -0.0000
vn -0.0026 1.0000 -0.0011
vn 0.0461 -0.9989 -0.0000
vn -0.0000 1.0000 -0.0000
vn 0.9218 -0.0000 0.3876
vn -0.7018 -0.0000 0.7123
vn -0.3778 -0.0000 0.9259
vn -0.9218 -0.0000 -0.3876
vn 0.3778 -0.0000 0.9259
vn -0.9218 -0.0000 0.3876
vn 0.7018 -0.0000 0.7123
vn -0.3778 -0.0000 -0.9259
vn 0.3778 -0.0000 -0.9259
vn -0.7018 -0.0000 -0.7123
vn 0.7018 -0.0000 -0.7123
vn 0.9218 -0.0000 -0.3876
vn 0.4976 -0.6087 0.6179
vn -0.4976 -0.6087 0.6179
vn 0.4976 -0.6087 -0.6179
vn -0.4976 -0.6087 -0.6179
vn 0.4976 0.6087 -0.6179
vn -0.4976 0.6087 -0.6179
vn -0.4976 0.6087 0.6179
vn 0.4976 0.6087 0.6179
vn -0.5293 -0.0000 -0.8484
vn 0.5293 -0.0000 -0.8484
vn -0.4650 0.8853 -0.0000
vn 0.4650 0.8853 -0.0000
vn -0.4650 -0.8853 -0.0000
vn 0.4650 -0.8853 -0.0000
vn -0.5293 -0.0000 0.8484
vn 0.5293 -0.0000 0.8484
vn 0.8492 -0.0000 -0.5280
vn 0.8390 -0.5442 -0.0000
vn 0.8437 -0.3694 0.3894
vn 0.8437 0.3694 -0.3894
vn 0.8437 -0.3694 -0.3894
vn 0.8390 0.5442 -0.0000
vn 0.8492 -0.0000 0.5280
vn 0.8437 0.3694 0.3894
vn -0.9741 -0.0000 0.2263
vn -0.9741 -0.0000 -0.2263
vn -0.9723 -0.1604 0.1702
vn -0.9705 -0.2411 -0.0000
vn -0.9723 0.1604 -0.1702
vn -0.9723 -0.1604 -0.1702
vn -0.9705 0.2411 -0.0000
vn -0.9723 0.1604 0.1702
vn -0.0068 -0.6724 -0.7402
vn 0.0095 -0.0000 -1.0000
vn -0.0068 0.6724 -0.7402
vn -0.0247 0.9997 -0.0000
vn -0.0068 0.6724 0.7402
vn 0.0095 -0.0000 1.0000
vn -0.0068 -0.6724 0.7402
vn -0.0247 -0.9997 -0.0000
vn -0.0000 -0.0980 -0.9952
vn -0.0000 -0.2903 -0.9569
vn -0.0000 -0.4714 -0.8819
vn -0.0000 -0.6344 -0.7730
vn -0.0000 -0.7730 -0.6344
vn -0.0000 -0.8819 -0.4714
vn -0.0000 -0.9569 -0.2903
vn -0.0000 -0.9952 -0.0980
vn -0.0000 -0.9952 0.0980
vn -0.0000 -0.9569 0.2903
vn -0.0000 -0.8819 0.4714
vn -0.0000 -0.7730 0.6344
vn -0.0000 -0.6344 0.7730
vn -0.0000 -0.4714 0.8819
vn -0.0000 -0.2903 0.9569
vn -0.0000 -0.0980 0.9952
vn -0.0000 0.0980 0.9952
vn -0.0000 0.2903 0.9569
vn -0.0000 0.4714 0.8819
vn -0.0000 0.6344 0.7730
vn -0.0000 0.7730 0.6344
vn -0.0000 0.8819 0.4714
vn -0.0000 0.9569 0.2903
vn -0.0000 0.9952 0.0980
vn -0.0000 0.9952 -0.0980
vn -0.0000 0.9569 -0.2903
vn -0.0000 0.8819 -0.4714
vn -0.0000 0.7730 -0.6344
vn -0.0000 0.6344 -0.7730
vn -0.0000 0.4714 -0.8819
vn -0.0000 0.2903 -0.9569
vn -0.0000 0.0980 -0.9952
vn -0.0000 0.0052 -1.0000
vn -0.0000 -0.0052 1.0000
vn -0.0000 -1.0000 -0.0052
vn -0.0000 1.0000 0.0052
vn 0.4976 -0.6120 0.6147
vn -0.4976 -0.6120 0.6147
vn 0.4976 -0.6055 -0.6211
vn -0.4976 -0.6055 -0.6211
vn 0.4976 0.6120 -0.6147
vn -0.4976 0.6120 -0.6147
vn -0.4976 0.6055 0.6211
vn 0.4976 0.6055 0.6211
vn -0.5293 0.0044 -0.8484
vn 0.5293 0.0044 -0.8484
vn -0.4650 0.8853 0.0046
vn 0.4650 0.8853 0.0046
vn -0.4650 -0.8853 -0.0046
vn 0.4650 -0.8853 -0.0046
vn -0.5293 -0.0044 0.8484
vn 0.5293 -0.0044 0.8484
vn 0.5297 0.0044 -0.8482
vn 0.4885 -0.8726 -0.0046
vn 0.5091 -0.5980 0.6190
vn 0.5091 0.5980 -0.6190
vn 0.5091 -0.5915 -0.6253
vn 0.4885 0.8726 0.0046
vn 0.5297 -0.0044 0.8482
vn 0.5091 0.5915 0.6253
vn -0.8622 -0.0027 0.5066
vn -0.8622 0.0027 -0.5066
vn -0.8392 -0.3763 0.3926
vn -0.8104 -0.5858 -0.0031
vn -0.8392 0.3763 -0.3926
vn -0.8392 -0.3722 -0.3966
vn -0.8104 0.5858 0.0031
vn -0.8392 0.3722 0.3966
vn -0.0099 -0.6788 -0.7343
vn 0.0140 0.0052 -0.9999
vn -0.0099 0.6864 -0.7272
vn -0.0354 0.9994 0.0052
vn -0.0099 0.6788 0.7343
vn 0.0140 -0.0052 0.9999
vn -0.0099 -0.6864 0.7272
vn -0.0354 -0.9994 -0.0052
vn -0.0000 -0.7034 -0.7108
vn -0.0000 0.7034 0.7108
vn -0.0000 -0.7108 0.7034
vn -0.0000 0.7108 -0.7034
vn -0.5297 -0.0000 -0.8482
vn -0.4885 0.8726 -0.0000
vn -0.5091 0.5948 0.6222
vn -0.5091 -0.5948 -0.6222
vn -0.5091 0.5948 -0.6222
vn -0.4885 -0.8726 -0.0000
vn -0.5297 -0.0000 0.8482
vn -0.5091 -0.5948 0.6222
vn 0.8622 -0.0000 0.5066
vn 0.8622 -0.0000 -0.5066
vn 0.8392 0.3743 0.3946
vn 0.8104 0.5858 -0.0000
vn 0.8392 -0.3743 -0.3946
vn 0.8392 0.3743 -0.3946
vn 0.8104 -0.5858 -0.0000
vn 0.8392 -0.3743 0.3946
vn 0.0099 0.6826 -0.7307
vn -0.0140 -0.0000 -0.9999
vn 0.0099 -0.6826 -0.7307
vn 0.0354 -0.9994 -0.0000
vn 0.0099 -0.6826 0.7307
vn -0.0140 -0.0000 0.9999
vn 0.0099 0.6826 0.7307
vn 0.0355 0.9994 -0.0000
vn -0.0000 0.7071 -0.7071
vn -0.0000 -0.7071 0.7071
vn -0.0000 0.7071 0.7071
vn -0.0000 -0.7071 -0.7071
vt 0.545857 0.270259
vt 0.352773 0.570733
vt 0.088752 0.030078
vt 0.504254 0.254296
vt 0.311069 0.593874
vt 0.462494 0.254296
vt 0.345882 0.238285
vt 0.420584 0.268750
vt 0.371210 0.263610
vt 0.420676 0.301913
vt 0.462618 0.298177
vt 0.504378 0.298177
vt 0.545947 0.302303
vt 0.123445 0.030385
vt 0.227569 0.551696
vt 0.319399 0.227246
vt 0.420447 0.248307
vt 0.269403 0.566841
vt 0.462310 0.227246
vt 0.504070 0.227246
vt 0.311164 0.566841
vt 0.352843 0.550952
vt 0.062826 0.040558
vt 0.352889 0.518850
vt 0.038041 0.064907
vt 0.311228 0.522970
vt 0.269467 0.522970
vt 0.283967 0.227246
vt 0.227617 0.519044
vt 0.294722 0.268324
vt 0.311456 0.268247
vt 0.323941 0.273356
vt 0.335848 0.285155
vt 0.269715 0.168488
vt 0.758869 0.051119
vt 0.246272 0.144112
vt 0.303757 0.633761
vt 0.758775 0.019944
vt 0.236344 0.118593
vt 0.303725 0.653279
vt 0.237009 0.084423
vt 0.303703 0.684929
vt 0.340035 0.295110
vt 0.340140 0.311872
vt 0.335061 0.324369
vt 0.323303 0.336276
vt 0.373241 0.143137
vt 0.245636 0.706949
vt 0.348858 0.167085
vt 0.245681 0.738600
vt 0.323490 0.177392
vt 0.758775 0.104027
vt 0.245749 0.758117
vt 0.289672 0.177089
vt 0.758869 0.072852
vt 0.268059 0.313667
vt 0.267953 0.296904
vt 0.273033 0.284408
vt 0.284791 0.272501
vt 0.245740 0.064166
vt 0.303703 0.706988
vt 0.270123 0.040218
vt 0.303725 0.738623
vt 0.295491 0.029911
vt 0.151129 0.790277
vt 0.303757 0.758117
vt 0.329308 0.030214
vt 0.151218 0.759102
vt 0.313372 0.340453
vt 0.296637 0.340530
vt 0.284153 0.335420
vt 0.272246 0.323622
vt 0.349266 0.038815
vt 0.151218 0.737369
vt 0.372708 0.063191
vt 0.245749 0.633761
vt 0.151129 0.706194
vt 0.382636 0.088710
vt 0.245681 0.653255
vt 0.381971 0.122880
vt 0.245636 0.684891
vt 0.420448 0.537013
vt 0.178348 0.124606
vt 0.462161 0.541133
vt 0.503922 0.541134
vt 0.345148 0.372708
vt 0.545725 0.537207
vt 0.369928 0.347384
vt 0.545748 0.569859
vt 0.420447 0.378638
vt 0.503953 0.585004
vt 0.462310 0.399698
vt 0.462192 0.585004
vt 0.504070 0.399698
vt 0.420470 0.569115
vt 0.178706 0.089862
vt 0.380173 0.284920
vt 0.420676 0.325031
vt 0.462618 0.328767
vt 0.504378 0.328767
vt 0.545947 0.324641
vt 0.144000 0.039131
vt 0.545857 0.356686
vt 0.420503 0.588897
vt 0.168279 0.063916
vt 0.462237 0.612037
vt 0.504254 0.372649
vt 0.462494 0.372649
vt 0.380560 0.320734
vt 0.420584 0.358195
vt 0.084180 0.179724
vt 0.145455 0.305111
vt 0.103896 0.300985
vt 0.062137 0.300985
vt 0.236919 0.345172
vt 0.020185 0.304721
vt 0.262246 0.370497
vt 0.020088 0.271558
vt 0.503998 0.439586
vt 0.062006 0.257104
vt 0.103766 0.257104
vt 0.462237 0.439585
vt 0.118874 0.180032
vt 0.145360 0.273067
vt 0.420503 0.462707
vt 0.324161 0.381535
vt 0.545725 0.514440
vt 0.503922 0.510544
vt 0.462161 0.510544
vt 0.169585 0.145202
vt 0.420448 0.514630
vt 0.144800 0.169552
vt 0.420470 0.482512
vt 0.462192 0.466651
vt 0.503953 0.466651
vt 0.061812 0.230054
vt 0.288730 0.381535
vt 0.545748 0.481771
vt 0.019944 0.251115
vt 0.352889 0.496466
vt 0.029278 0.085504
vt 0.311228 0.492380
vt 0.269467 0.492381
vt 0.262981 0.236073
vt 0.227617 0.496276
vt 0.238201 0.261398
vt 0.227569 0.463608
vt 0.019944 0.381445
vt 0.269403 0.448488
vt 0.061812 0.402506
vt 0.311164 0.448488
vt 0.352843 0.464349
vt 0.028920 0.120247
vt 0.227956 0.323862
vt 0.020185 0.327839
vt 0.062137 0.331575
vt 0.103896 0.331575
vt 0.063626 0.170979
vt 0.145455 0.327449
vt 0.145360 0.359493
vt 0.352773 0.444544
vt 0.039347 0.146194
vt 0.103766 0.375456
vt 0.311069 0.421422
vt 0.269308 0.421422
vt 0.062006 0.375456
vt 0.227569 0.288047
vt 0.020088 0.361003
vt 0.742215 0.710999
vt 0.264366 0.177781
vt 0.727507 0.710662
vt 0.126510 0.019944
vt 0.380356 0.147902
vt 0.750567 0.311879
vt 0.765280 0.312066
vt 0.186931 0.126537
vt 0.727454 0.514349
vt 0.227569 0.121385
vt 0.742164 0.513630
vt 0.058647 0.032122
vt 0.742112 0.550273
vt 0.030697 0.060062
vt 0.727404 0.550460
vt 0.228660 0.082524
vt 0.727529 0.492097
vt 0.742113 0.676284
vt 0.238408 0.150302
vt 0.742241 0.491049
vt 0.727404 0.674980
vt 0.087733 0.019944
vt 0.352855 0.175381
vt 0.750591 0.347990
vt 0.765304 0.348709
vt 0.187681 0.087024
vt 0.727507 0.735536
vt 0.149398 0.029682
vt 0.742215 0.735198
vt 0.286590 0.187359
vt 0.742113 0.769913
vt 0.750627 0.370242
vt 0.324391 0.187359
vt 0.501272 0.653229
vt 0.750627 0.228292
vt 0.380573 0.057001
vt 0.501380 0.687944
vt 0.354615 0.029522
vt 0.119892 0.190167
vt 0.486564 0.651925
vt 0.765341 0.227246
vt 0.176928 0.150048
vt 0.765280 0.286515
vt 0.390321 0.124779
vt 0.750567 0.286699
vt 0.391412 0.085917
vt 0.750591 0.250571
vt 0.266126 0.031921
vt 0.727454 0.611768
vt 0.727404 0.575640
vt 0.238625 0.059401
vt 0.742164 0.612486
vt 0.019944 0.123087
vt 0.058227 0.180428
vt 0.486673 0.712480
vt 0.501380 0.712143
vt 0.332391 0.019944
vt 0.501272 0.746858
vt 0.727529 0.634047
vt 0.294590 0.019944
vt 0.727404 0.771218
vt 0.765341 0.371290
vt 0.176288 0.057622
vt 0.081115 0.190167
vt 0.486673 0.687606
vt 0.148978 0.177988
vt 0.765304 0.249853
vt 0.742112 0.575824
vt 0.020694 0.083573
vt 0.486564 0.748162
vt 0.742241 0.635093
vt 0.031337 0.152488
vt 0.431659 0.074976
vt 0.285636 0.684929
vt 0.431299 0.109151
vt 0.285657 0.653279
vt 0.441455 0.134580
vt 0.285690 0.633761
vt 0.776842 0.019944
vt 0.465114 0.158745
vt 0.776936 0.051119
vt 0.544242 0.156635
vt 0.227614 0.738600
vt 0.568410 0.132470
vt 0.227569 0.706949
vt 0.485148 0.167168
vt 0.776936 0.072852
vt 0.518967 0.167168
vt 0.776842 0.104027
vt 0.227681 0.758117
vt 0.567163 0.052531
vt 0.227681 0.633761
vt 0.169196 0.706194
vt 0.543504 0.028366
vt 0.169285 0.737369
vt 0.576959 0.112135
vt 0.227569 0.684891
vt 0.577319 0.077961
vt 0.227614 0.653255
vt 0.464376 0.030477
vt 0.285657 0.738623
vt 0.440208 0.054642
vt 0.285636 0.706988
vt 0.523470 0.019944
vt 0.169285 0.759102
vt 0.489651 0.019944
vt 0.169196 0.790277
vt 0.285690 0.758117
vt 0.432118 0.922242
vt 0.867630 0.169056
vt 0.426288 0.920970
vt 0.420454 0.922242
vt 0.019944 0.858556
vt 0.420447 0.911785
vt 0.485956 0.926287
vt 0.030097 0.869048
vt 0.426280 0.908717
vt 0.491784 0.927781
vt 0.432112 0.911785
vt 0.497620 0.926287
vt 0.857477 0.179548
vt 0.941095 0.603344
vt 0.054428 0.858556
vt 0.935261 0.602079
vt 0.929431 0.603344
vt 0.833146 0.169056
vt 0.929437 0.592869
vt 0.497620 0.912110
vt 0.843300 0.179548
vt 0.935268 0.589804
vt 0.491784 0.910612
vt 0.941101 0.592869
vt 0.485956 0.912110
vt 0.044274 0.869048
vt 0.941101 0.628504
vt 0.750567 0.426852
vt 0.044274 0.833414
vt 0.935268 0.631564
vt 0.756396 0.428346
vt 0.929437 0.628504
vt 0.762231 0.426852
vt 0.843300 0.143914
vt 0.929431 0.617995
vt 0.833146 0.154406
vt 0.935261 0.619248
vt 0.941095 0.617995
vt 0.054428 0.843906
vt 0.420454 0.936892
vt 0.019944 0.843906
vt 0.426288 0.938139
vt 0.432118 0.936892
vt 0.867630 0.154406
vt 0.432112 0.947420
vt 0.762231 0.412675
vt 0.857477 0.143914
vt 0.426280 0.950478
vt 0.756396 0.411177
vt 0.420447 0.947419
vt 0.750567 0.412675
vt 0.030097 0.833414
vt 0.027476 0.855554
vt 0.298337 0.813077
vt 0.033194 0.861794
vt 0.298341 0.819327
vt 0.974837 0.674980
vt 0.046895 0.855554
vt 0.952531 0.393425
vt 0.041178 0.861794
vt 0.952534 0.387165
vt 0.974837 0.682964
vt 0.041178 0.840601
vt 0.542727 0.979937
vt 0.952534 0.408358
vt 0.046895 0.846841
vt 0.952531 0.402138
vt 0.027476 0.846841
vt 0.298337 0.804364
vt 0.033194 0.840601
vt 0.298341 0.798133
vt 0.542727 0.971953
vt 0.860048 0.166129
vt 0.303556 0.813131
vt 0.854360 0.172445
vt 0.303560 0.819456
vt 0.980057 0.675000
vt 0.840728 0.166129
vt 0.957750 0.393372
vt 0.846417 0.172445
vt 0.957754 0.387035
vt 0.980057 0.682943
vt 0.846417 0.150993
vt 0.537507 0.979917
vt 0.957754 0.408487
vt 0.840728 0.157309
vt 0.957750 0.402191
vt 0.860048 0.157309
vt 0.303556 0.804311
vt 0.854360 0.150993
vt 0.303560 0.798004
vt 0.537507 0.971974
vt 0.938912 0.917279
vt 0.793259 0.169056
vt 0.933082 0.916007
vt 0.927248 0.917279
vt 0.852870 0.822686
vt 0.927242 0.906823
vt 0.151129 0.931183
vt 0.863024 0.833178
vt 0.933074 0.903754
vt 0.156957 0.932677
vt 0.938906 0.906823
vt 0.162793 0.931183
vt 0.783106 0.179548
vt 0.919182 0.157455
vt 0.887354 0.822686
vt 0.913347 0.156190
vt 0.907517 0.157455
vt 0.758775 0.169056
vt 0.907524 0.146980
vt 0.162793 0.917006
vt 0.768928 0.179548
vt 0.913355 0.143914
vt 0.156957 0.915508
vt 0.919188 0.146980
vt 0.151129 0.917006
vt 0.877201 0.833178
vt 0.919188 0.182614
vt 0.019944 0.924610
vt 0.877201 0.797544
vt 0.913355 0.185675
vt 0.025773 0.926104
vt 0.907524 0.182614
vt 0.031608 0.924610
vt 0.768928 0.143914
vt 0.907517 0.172105
vt 0.758775 0.154406
vt 0.913347 0.173359
vt 0.919182 0.172105
vt 0.887354 0.808036
vt 0.927248 0.931929
vt 0.852870 0.808036
vt 0.933082 0.933176
vt 0.938912 0.931929
vt 0.793259 0.154406
vt 0.938906 0.942457
vt 0.031608 0.910433
vt 0.783106 0.143914
vt 0.933074 0.945515
vt 0.025773 0.908935
vt 0.927242 0.942457
vt 0.019944 0.910433
vt 0.863024 0.797544
vt 0.860403 0.819684
vt 0.537507 0.925687
vt 0.866120 0.825924
vt 0.537511 0.931937
vt 0.980056 0.730835
vt 0.879822 0.819684
vt 0.952531 0.332086
vt 0.874104 0.825924
vt 0.952534 0.325825
vt 0.980056 0.722851
vt 0.874104 0.804731
vt 0.977894 0.853250
vt 0.952534 0.347019
vt 0.879822 0.810971
vt 0.952531 0.340799
vt 0.860403 0.810971
vt 0.537507 0.916974
vt 0.866120 0.804731
vt 0.537511 0.910743
vt 0.977894 0.845266
vt 0.785677 0.166129
vt 0.542727 0.925740
vt 0.779989 0.172445
vt 0.542730 0.932066
vt 0.974837 0.730814
vt 0.766357 0.166129
vt 0.957750 0.332032
vt 0.772046 0.172445
vt 0.957754 0.325696
vt 0.974837 0.722871
vt 0.772046 0.150993
vt 0.972674 0.853229
vt 0.957754 0.347148
vt 0.766357 0.157309
vt 0.957750 0.340852
vt 0.785677 0.157309
vt 0.542727 0.916921
vt 0.779989 0.150993
vt 0.542730 0.910614
vt 0.972674 0.845286
vt 0.158646 0.442393
vt 0.791659 0.634758
vt 0.854773 0.613614
vt 0.158646 0.666305
vt 0.156573 0.442393
vt 0.789617 0.634352
vt 0.156573 0.666305
vt 0.852690 0.613614
vt 0.154579 0.442394
vt 0.787693 0.633555
vt 0.154579 0.666305
vt 0.850648 0.614020
vt 0.152741 0.442394
vt 0.785961 0.632398
vt 0.152741 0.666306
vt 0.848724 0.614817
vt 0.151129 0.442395
vt 0.655769 0.227246
vt 0.784489 0.630925
vt 0.151129 0.666307
vt 0.655769 0.451158
vt 0.846992 0.615974
vt 0.654158 0.227248
vt 0.783332 0.629194
vt 0.654158 0.451159
vt 0.845520 0.617446
vt 0.652321 0.227249
vt 0.782535 0.627270
vt 0.652321 0.451160
vt 0.844363 0.619178
vt 0.650328 0.227249
vt 0.782129 0.625227
vt 0.650328 0.451161
vt 0.843566 0.621102
vt 0.648255 0.227249
vt 0.782129 0.623145
vt 0.648255 0.451161
vt 0.843160 0.623145
vt 0.646183 0.227249
vt 0.782535 0.621102
vt 0.646183 0.451161
vt 0.843160 0.625227
vt 0.644190 0.227249
vt 0.783332 0.619178
vt 0.644190 0.451160
vt 0.843566 0.627270
vt 0.642354 0.227248
vt 0.784489 0.617446
vt 0.642354 0.451159
vt 0.844363 0.629194
vt 0.640745 0.227246
vt 0.695656 0.451158
vt 0.785961 0.615974
vt 0.640745 0.451158
vt 0.695656 0.227247
vt 0.845520 0.630925
vt 0.697271 0.451159
vt 0.787693 0.614817
vt 0.697271 0.227247
vt 0.846992 0.632398
vt 0.699111 0.451159
vt 0.789617 0.614020
vt 0.699111 0.227248
vt 0.848724 0.633555
vt 0.701106 0.451160
vt 0.791659 0.613614
vt 0.701106 0.227248
vt 0.850648 0.634352
vt 0.703179 0.451160
vt 0.793742 0.613614
vt 0.703179 0.227248
vt 0.852690 0.634758
vt 0.705251 0.451160
vt 0.795784 0.614020
vt 0.705251 0.227248
vt 0.854773 0.634758
vt 0.707241 0.451159
vt 0.797708 0.614817
vt 0.707241 0.227248
vt 0.856815 0.634352
vt 0.709074 0.451159
vt 0.799440 0.615974
vt 0.709074 0.227247
vt 0.858739 0.633555
vt 0.710680 0.451158
vt 0.585834 0.451162
vt 0.800912 0.617446
vt 0.710680 0.227246
vt 0.585834 0.227250
vt 0.860471 0.632398
vt 0.587445 0.451160
vt 0.802069 0.619178
vt 0.587445 0.227249
vt 0.861943 0.630925
vt 0.589283 0.451159
vt 0.802866 0.621102
vt 0.589283 0.227247
vt 0.863100 0.629194
vt 0.591276 0.451158
vt 0.803272 0.623145
vt 0.591276 0.227247
vt 0.863897 0.627270
vt 0.593349 0.451158
vt 0.803272 0.625227
vt 0.593349 0.227246
vt 0.864303 0.625227
vt 0.595421 0.451158
vt 0.802866 0.627270
vt 0.595421 0.227247
vt 0.864303 0.623145
vt 0.597413 0.451159
vt 0.802069 0.629194
vt 0.597413 0.227247
vt 0.863897 0.621102
vt 0.599249 0.451160
vt 0.800912 0.630925
vt 0.599249 0.227249
vt 0.863100 0.619178
vt 0.600858 0.451162
vt 0.166153 0.442395
vt 0.799440 0.632398
vt 0.600858 0.227250
vt 0.166153 0.666307
vt 0.861943 0.617446
vt 0.164545 0.442394
vt 0.797708 0.633555
vt 0.164545 0.666306
vt 0.860471 0.615974
vt 0.162710 0.442394
vt 0.795784 0.634352
vt 0.858739 0.614817
vt 0.162710 0.666305
vt 0.160718 0.442393
vt 0.793742 0.634758
vt 0.856815 0.614020
vt 0.160718 0.666305
vt 0.856172 0.432486
vt 0.883989 0.674980
vt 0.964603 0.143914
vt 0.856172 0.349810
vt 0.883989 0.757657
vt 0.958598 0.070887
vt 0.867228 0.432486
vt 0.913182 0.102619
vt 0.964603 0.154971
vt 0.867228 0.349810
vt 0.913182 0.019944
vt 0.958598 0.081944
vt 0.420448 0.786155
vt 0.889517 0.674980
vt 0.959075 0.143914
vt 0.420448 0.868830
vt 0.889517 0.757657
vt 0.964126 0.070887
vt 0.918710 0.102619
vt 0.431504 0.786155
vt 0.959075 0.154971
vt 0.918710 0.019944
vt 0.431504 0.868830
vt 0.964126 0.081944
vt 0.616732 0.526977
vt 0.019944 0.470171
vt 0.601297 0.523659
vt 0.585851 0.526977
vt 0.585834 0.707878
vt 0.585834 0.499153
vt 0.742214 0.815102
vt 0.253780 0.920883
vt 0.585851 0.735842
vt 0.601277 0.491049
vt 0.726784 0.811105
vt 0.616716 0.499153
vt 0.711333 0.815101
vt 0.046825 0.442393
vt 0.718872 0.055673
vt 0.343644 0.661493
vt 0.703425 0.052272
vt 0.687990 0.055673
vt 0.111242 0.470171
vt 0.688007 0.028081
vt 0.711333 0.852636
vt 0.084360 0.442393
vt 0.703445 0.019944
vt 0.726784 0.856560
vt 0.718888 0.028081
vt 0.742215 0.852637
vt 0.253780 0.883348
vt 0.343660 0.633761
vt 0.718888 0.122422
vt 0.151129 0.871622
vt 0.369853 0.928091
vt 0.343660 0.728105
vt 0.703445 0.130505
vt 0.166562 0.875620
vt 0.688007 0.122422
vt 0.182010 0.871622
vt 0.084360 0.536734
vt 0.687990 0.094459
vt 0.111242 0.508957
vt 0.703425 0.097727
vt 0.718872 0.094459
vt 0.343644 0.700280
vt 0.585851 0.565764
vt 0.585834 0.669092
vt 0.601297 0.569115
vt 0.616732 0.565764
vt 0.019944 0.508957
vt 0.616716 0.593496
vt 0.182010 0.834087
vt 0.046825 0.536734
vt 0.601277 0.601613
vt 0.166562 0.830165
vt 0.585834 0.593496
vt 0.151129 0.834087
vt 0.585851 0.641500
vt 0.369853 0.890556
vt 0.598238 0.705078
vt 0.598252 0.728922
vt 0.241387 0.917666
vt 0.356048 0.664360
vt 0.356061 0.640708
vt 0.241387 0.886499
vt 0.357463 0.924876
vt 0.356061 0.721168
vt 0.356048 0.697440
vt 0.598238 0.671999
vt 0.598252 0.648464
vt 0.357463 0.893708
vt 0.027881 0.472855
vt 0.612057 0.705281
vt 0.050088 0.448876
vt 0.612070 0.729413
vt 0.227569 0.917589
vt 0.103304 0.472855
vt 0.369866 0.664159
vt 0.081097 0.448876
vt 0.369880 0.640218
vt 0.227569 0.886581
vt 0.081097 0.530315
vt 0.343644 0.924798
vt 0.369880 0.721659
vt 0.103304 0.506336
vt 0.369866 0.697641
vt 0.027881 0.506336
vt 0.612057 0.671799
vt 0.050088 0.530315
vt 0.612070 0.647974
vt 0.343644 0.893790
vt 0.782129 0.573726
vt 0.099843 0.916091
vt 0.094315 0.967034
vt 0.782129 0.491049
vt 0.099843 0.833415
vt 0.617206 0.170395
vt 0.793185 0.573726
vt 0.907115 0.432487
vt 0.094315 0.955978
vt 0.793185 0.491049
vt 0.907115 0.349810
vt 0.617206 0.181451
vt 0.019944 0.710850
vt 0.094315 0.916091
vt 0.099843 0.967034
vt 0.019944 0.793527
vt 0.094315 0.833415
vt 0.622734 0.170395
vt 0.912644 0.432487
vt 0.031000 0.710850
vt 0.099843 0.955978
vt 0.912644 0.349810
vt 0.031000 0.793527
vt 0.622734 0.181451
vt 0.827880 0.019944
vt 0.656619 0.898295
vt 0.025472 0.965991
vt 0.827880 0.102620
vt 0.656619 0.956857
vt 0.227569 0.960777
vt 0.816823 0.019944
vt 0.934959 0.491052
vt 0.025472 0.973846
vt 0.816823 0.102620
vt 0.934959 0.549916
vt 0.227569 0.968630
vt 0.667675 0.858407
vt 0.662147 0.898298
vt 0.019944 0.965996
vt 0.667675 0.775731
vt 0.662147 0.956860
vt 0.233097 0.960770
vt 0.929431 0.491049
vt 0.656619 0.858407
vt 0.019944 0.973851
vt 0.929431 0.549913
vt 0.656619 0.775731
vt 0.233097 0.968623
vt 0.805228 0.309923
vt 0.299196 0.942083
vt 0.782102 0.968182
vt 0.805228 0.227246
vt 0.299196 0.883348
vt 0.343644 0.967978
vt 0.816285 0.309923
vt 0.711334 0.955178
vt 0.782102 0.960310
vt 0.816285 0.227247
vt 0.711334 0.896455
vt 0.343644 0.975809
vt 0.585835 0.775729
vt 0.293668 0.942088
vt 0.787630 0.968185
vt 0.585834 0.858405
vt 0.293668 0.883353
vt 0.349172 0.967981
vt 0.716862 0.955171
vt 0.596891 0.775729
vt 0.787630 0.960314
vt 0.716862 0.896448
vt 0.596891 0.858405
vt 0.349172 0.975813
vt 0.486564 0.870725
vt 0.912644 0.309923
vt 0.668149 0.170395
vt 0.486564 0.788049
vt 0.912644 0.227246
vt 0.708037 0.170395
vt 0.497620 0.870725
vt 0.889544 0.491049
vt 0.668149 0.181451
vt 0.497620 0.788049
vt 0.889544 0.573726
vt 0.708037 0.181451
vt 0.867228 0.309922
vt 0.907115 0.309923
vt 0.662621 0.170395
vt 0.867228 0.227246
vt 0.907115 0.227246
vt 0.713565 0.170395
vt 0.884015 0.491049
vt 0.856172 0.309922
vt 0.662621 0.181451
vt 0.884015 0.573726
vt 0.856172 0.227246
vt 0.713565 0.181451
vt 0.656635 0.565644
vt 0.111242 0.643185
vt 0.672082 0.568945
vt 0.687516 0.565644
vt 0.682832 0.669233
vt 0.687500 0.593516
vt 0.812983 0.801509
vt 0.879096 0.910600
vt 0.682848 0.641500
vt 0.672062 0.601613
vt 0.797535 0.797544
vt 0.656619 0.593516
vt 0.782102 0.801509
vt 0.084360 0.670963
vt 0.617206 0.094581
vt 0.446660 0.718584
vt 0.632641 0.097899
vt 0.648087 0.094581
vt 0.019944 0.643185
vt 0.648103 0.122404
vt 0.782102 0.839044
vt 0.046825 0.670963
vt 0.632660 0.130507
vt 0.797535 0.843000
vt 0.617222 0.122404
vt 0.812983 0.839044
vt 0.879096 0.873065
vt 0.446676 0.746267
vt 0.617222 0.028061
vt 0.258450 0.801971
vt 0.782102 0.882888
vt 0.446676 0.651924
vt 0.632660 0.019944
vt 0.242999 0.798004
vt 0.648103 0.028060
vt 0.227569 0.801971
vt 0.046825 0.576622
vt 0.648087 0.055794
vt 0.019944 0.604399
vt 0.632641 0.052443
vt 0.617206 0.055794
vt 0.446660 0.679797
vt 0.687516 0.526857
vt 0.682832 0.708021
vt 0.672082 0.523489
vt 0.656635 0.526857
vt 0.111242 0.604399
vt 0.656619 0.499173
vt 0.227569 0.839506
vt 0.084360 0.576622
vt 0.672062 0.491049
vt 0.242999 0.843460
vt 0.687500 0.499173
vt 0.258450 0.839506
vt 0.682848 0.735844
vt 0.782102 0.920423
vt 0.670437 0.672100
vt 0.670451 0.648447
vt 0.866688 0.907411
vt 0.434266 0.715703
vt 0.434279 0.739314
vt 0.866688 0.876243
vt 0.794507 0.886075
vt 0.434279 0.658855
vt 0.434266 0.682623
vt 0.670437 0.705180
vt 0.670451 0.728907
vt 0.794507 0.917243
vt 0.103304 0.640567
vt 0.656619 0.671899
vt 0.081097 0.664545
vt 0.656633 0.647957
vt 0.852870 0.907332
vt 0.027881 0.640567
vt 0.420447 0.715904
vt 0.050088 0.664545
vt 0.420461 0.739804
vt 0.852870 0.876323
vt 0.050088 0.583107
vt 0.808325 0.886154
vt 0.420461 0.658364
vt 0.027881 0.607085
vt 0.420447 0.682421
vt 0.103304 0.607085
vt 0.656619 0.705382
vt 0.081097 0.583107
vt 0.656633 0.729398
vt 0.808325 0.917163
vt 0.081943 0.710850
vt 0.873295 0.102621
vt 0.858399 0.950487
vt 0.081943 0.793527
vt 0.873295 0.019944
vt 0.964126 0.031000
vt 0.070887 0.710850
vt 0.537507 0.870727
vt 0.858399 0.961544
vt 0.070887 0.793527
vt 0.537507 0.788049
vt 0.964126 0.019944
vt 0.793158 0.757657
vt 0.867767 0.102621
vt 0.852870 0.950487
vt 0.793158 0.674980
vt 0.867767 0.019944
vt 0.958598 0.031000
vt 0.543036 0.870727
vt 0.782102 0.757657
vt 0.852870 0.961544
vt 0.543036 0.788049
vt 0.782102 0.674980
vt 0.958598 0.019944
vt 0.833072 0.573726
vt 0.591363 0.956959
vt 0.929422 0.741227
vt 0.833072 0.491049
vt 0.591363 0.898292
vt 0.972674 0.797544
vt 0.844128 0.573725
vt 0.929404 0.733403
vt 0.844128 0.491049
vt 0.929422 0.674985
vt 0.972674 0.805375
vt 0.805228 0.349810
vt 0.585834 0.956962
vt 0.934950 0.741222
vt 0.805228 0.432487
vt 0.585834 0.898296
vt 0.978202 0.797548
vt 0.816284 0.349811
vt 0.934933 0.733398
vt 0.934950 0.674980
vt 0.816284 0.432487
vt 0.978202 0.805379
vt 0.343644 0.850668
vt 0.927242 0.805357
vt 0.343644 0.767992
vt 0.927259 0.863862
vt 0.491484 0.975514
vt 0.354700 0.850668
vt 0.958059 0.227250
vt 0.927259 0.797544
vt 0.354700 0.767992
vt 0.958059 0.285809
vt 0.491484 0.967668
vt 0.833045 0.674980
vt 0.932770 0.805362
vt 0.833045 0.757656
vt 0.932787 0.863867
vt 0.485956 0.975517
vt 0.952531 0.227246
vt 0.844102 0.674980
vt 0.932787 0.797550
vt 0.952531 0.285806
vt 0.844102 0.757656
vt 0.485956 0.967671
s 0
usemtl Material
f 38/62/1 37/60/1 119/219/1 118/216/1
f 69/117/2 43/71/2 42/70/2 80/137/2
f 53/88/3 27/45/3 26/44/3 64/109/3
f 40/68/4 45/74/4 138/263/4 143/273/4
f 85/146/5 35/58/5 34/57/5 96/167/5
f 93/162/6 92/158/6 121/222/6 128/240/6
f 76/130/7 49/83/7 100/176/7 115/210/7
f 33/56/8 89/154/8 96/167/8 34/57/8
f 72/123/9 77/132/9 126/234/9 114/207/9
f 48/80/10 47/78/10 117/214/10 116/212/10
f 30/49/11 29/47/11 99/173/11 107/191/11
f 5/9/12 20/33/12 19/32/12 4/7/12
f 52/86/13 28/46/13 27/45/13 53/88/13
f 39/64/14 38/62/14 118/216/14 123/228/14
f 68/115/15 44/72/15 43/71/15 69/117/15
f 92/158/16 65/111/16 125/232/16 121/222/16
f 84/144/17 36/59/17 35/58/17 85/146/17
f 65/111/18 72/123/18 114/207/18 125/232/18
f 25/43/19 26/44/19 27/45/19 28/46/19 41/69/19 42/70/19 43/71/19 44/72/19 33/56/19 34/57/19 35/58/19 36/59/19 17/30/19 18/31/19 19/32/19 20/33/19
f 89/155/20 90/156/20 95/166/20 96/168/20
f 90/156/21 91/157/21 94/163/21 95/166/21
f 91/157/22 92/159/22 93/160/22 94/163/22
f 56/96/23 61/105/23 124/231/23 108/194/23
f 81/140/24 82/142/24 87/151/24 88/152/24
f 82/142/25 83/143/25 86/149/25 87/151/25
f 83/143/26 84/145/26 85/147/26 86/149/26
f 41/69/27 73/126/27 80/137/27 42/70/27
f 73/127/28 74/128/28 79/135/28 80/138/28
f 74/128/29 75/129/29 78/134/29 79/135/29
f 75/129/30 76/131/30 77/133/30 78/134/30
f 31/51/31 30/49/31 107/191/31 111/201/31
f 65/112/32 66/113/32 71/121/32 72/124/32
f 66/113/33 67/114/33 70/120/33 71/121/33
f 67/114/34 68/116/34 69/118/34 70/120/34
f 25/43/35 57/97/35 64/109/35 26/44/35
f 57/98/36 58/99/36 63/108/36 64/110/36
f 58/99/37 59/100/37 62/107/37 63/108/37
f 59/100/38 60/101/38 61/103/38 62/107/38
f 77/132/39 76/130/39 115/210/39 126/234/39
f 49/82/40 50/84/40 55/93/40 56/95/40
f 50/84/41 51/85/41 54/91/41 55/93/41
f 51/85/42 52/87/42 53/89/42 54/91/42
f 29/47/43 48/80/43 116/212/43 99/173/43
f 8/13/44 7/12/44 2/4/44 1/1/44
f 7/12/45 6/11/45 3/6/45 2/4/45
f 6/11/46 5/10/46 4/8/46 3/6/46
f 17/30/47 16/28/47 9/16/47 18/31/47
f 16/29/48 15/27/48 10/18/48 9/15/48
f 15/27/49 14/26/49 11/21/49 10/18/49
f 14/26/50 13/24/50 12/22/50 11/21/50
f 18/31/51 9/16/51 4/7/51 19/32/51
f 9/17/52 10/19/52 3/6/52 4/8/52
f 10/19/53 11/20/53 2/4/53 3/6/53
f 11/21/54 12/22/54 1/2/54 2/5/54
f 44/72/55 68/115/55 89/154/55 33/56/55
f 68/116/56 67/114/56 90/156/56 89/155/56
f 67/114/57 66/113/57 91/157/57 90/156/57
f 66/113/58 65/112/58 92/159/58 91/157/58
f 28/46/59 52/86/59 73/126/59 41/69/59
f 52/87/60 51/85/60 74/128/60 73/127/60
f 51/85/61 50/84/61 75/129/61 74/128/61
f 50/84/62 49/82/62 76/131/62 75/129/62
f 36/59/63 84/144/63 16/28/63 17/30/63
f 84/145/64 83/143/64 15/27/64 16/29/64
f 83/143/65 82/142/65 14/26/65 15/27/65
f 82/142/66 81/140/66 13/24/66 14/26/66
f 8/14/67 1/3/67 106/190/67 98/172/67
f 88/152/68 87/151/68 94/164/68 93/161/68
f 87/151/69 86/149/69 95/165/69 94/164/69
f 86/150/70 85/148/70 96/168/70 95/166/70
f 22/36/71 21/34/71 97/170/71 105/187/71
f 56/95/72 55/93/72 62/106/72 61/104/72
f 55/94/73 54/92/73 63/108/73 62/107/73
f 54/92/74 53/90/74 64/110/74 63/108/74
f 47/78/75 46/75/75 112/204/75 117/214/75
f 72/125/76 71/122/76 78/134/76 77/133/76
f 71/122/77 70/119/77 79/135/77 78/134/77
f 70/120/78 69/118/78 80/139/78 79/136/78
f 20/33/79 5/9/79 57/97/79 25/43/79
f 5/10/80 6/11/80 58/99/80 57/98/80
f 6/11/4 7/12/4 59/100/4 58/99/4
f 7/12/81 8/13/81 60/101/81 59/100/81
f 98/171/82 97/169/82 110/197/82 109/195/82
f 127/236/83 119/218/83 104/183/83 103/181/83
f 100/175/84 99/174/84 116/213/84 115/211/84
f 125/233/85 113/205/85 122/224/85 121/223/85
f 102/179/86 101/177/86 105/185/86 106/188/86
f 103/181/87 104/183/87 101/177/87 102/179/87
f 109/195/88 110/197/88 111/199/88 124/229/88
f 115/211/89 116/213/89 117/215/89 126/235/89
f 121/223/90 122/224/90 123/226/90 128/238/90
f 119/218/91 127/236/91 120/220/91 118/217/91
f 113/205/92 125/233/92 114/208/92 112/202/92
f 99/174/93 100/175/93 108/193/93 107/192/93
f 97/169/94 98/171/94 106/189/94 105/186/94
f 118/217/95 120/220/95 128/239/95 123/227/95
f 107/192/96 108/193/96 124/230/96 111/200/96
f 112/203/97 114/209/97 126/235/97 117/215/97
f 81/141/98 88/153/98 120/221/98 127/237/98
f 12/23/99 13/25/99 103/182/99 102/180/99
f 61/105/100 60/102/100 109/196/100 124/231/100
f 23/39/101 22/36/101 105/187/101 101/178/101
f 32/54/102 31/51/102 111/201/102 110/198/102
f 49/83/103 56/96/103 108/194/103 100/176/103
f 37/60/104 24/41/104 104/184/104 119/219/104
f 13/25/105 81/141/105 127/237/105 103/182/105
f 21/34/106 32/54/106 110/198/106 97/170/106
f 88/153/107 93/162/107 128/240/107 120/221/107
f 24/41/108 23/39/108 101/178/108 104/184/108
f 1/3/109 12/23/109 102/180/109 106/190/109
f 46/75/110 45/73/110 113/206/110 112/204/110
f 45/73/111 40/67/111 122/225/111 113/206/111
f 40/67/112 39/64/112 123/228/112 122/225/112
f 60/102/113 8/14/113 98/172/113 109/196/113
f 138/262/114 137/259/114 140/266/114 139/264/114 134/252/114 133/250/114 136/256/114 135/254/114 132/248/114 131/245/114 130/243/114 129/241/114 142/270/114 141/268/114 144/274/114 143/272/114
f 31/52/115 32/55/115 135/255/115 136/257/115
f 46/76/116 47/79/116 140/267/116 137/260/116
f 47/79/117 48/81/117 139/265/117 140/267/117
f 39/65/118 40/68/118 143/273/118 144/275/118
f 48/81/65 29/48/65 134/253/65 139/265/65
f 29/48/119 30/50/119 133/251/119 134/253/119
f 45/74/120 46/77/120 137/261/120 138/263/120
f 30/50/121 31/53/121 136/258/121 133/251/121
f 37/61/122 38/63/122 141/269/122 142/271/122
f 23/40/123 24/42/123 129/242/123 130/244/123
f 38/63/124 39/66/124 144/276/124 141/269/124
f 22/37/125 23/40/125 130/244/125 131/246/125
f 21/35/126 22/38/126 131/247/126 132/249/126
f 24/42/61 37/61/61 142/271/61 129/242/61
f 32/55/57 21/35/57 132/249/57 135/255/57
f 163/316/127 164/318/127 167/324/127 168/326/127
f 164/318/128 165/319/128 166/321/128 167/324/128
f 157/303/129 158/306/129 161/313/129 162/314/129
f 158/306/130 159/308/130 160/311/130 161/313/130
f 151/290/131 152/292/131 155/298/131 156/300/131
f 152/292/132 153/293/132 154/295/132 155/298/132
f 145/277/133 146/279/133 149/285/133 150/287/133
f 146/279/134 147/280/134 148/282/134 149/285/134
f 153/293/135 152/292/135 161/313/135 160/311/135
f 152/292/136 151/290/136 162/314/136 161/313/136
f 150/288/137 149/286/137 155/299/137 154/296/137
f 149/286/138 148/283/138 156/301/138 155/299/138
f 159/309/139 158/307/139 167/325/139 166/322/139
f 158/307/140 157/304/140 168/327/140 167/325/140
f 165/319/141 164/318/141 146/279/141 145/277/141
f 164/318/142 163/316/142 147/280/142 146/279/142
f 147/281/143 163/317/143 175/344/143 169/329/143
f 156/302/144 148/284/144 170/331/144 172/336/144
f 151/291/145 156/302/145 172/336/145 171/334/145
f 163/317/146 168/328/146 176/346/146 175/344/146
f 148/284/147 147/281/147 169/329/147 170/331/147
f 168/328/148 157/305/148 173/339/148 176/346/148
f 162/315/149 151/291/149 171/334/149 174/342/149
f 157/305/150 162/315/150 174/342/150 173/339/150
f 153/294/151 160/312/151 182/362/151 179/354/151
f 165/320/152 145/278/152 177/349/152 183/364/152
f 154/297/153 153/294/153 179/354/153 180/356/153
f 150/289/154 154/297/154 180/356/154 178/351/154
f 166/323/155 165/320/155 183/364/155 184/366/155
f 145/278/156 150/289/156 178/351/156 177/349/156
f 159/310/157 166/323/157 184/366/157 181/359/157
f 160/312/158 159/310/158 181/359/158 182/362/158
f 170/332/159 169/330/159 177/350/159 178/352/159
f 169/330/160 175/345/160 183/365/160 177/350/160
f 176/347/161 184/367/161 183/365/161 175/345/161
f 176/348/162 173/340/162 181/360/162 184/368/162
f 174/343/163 182/363/163 181/361/163 173/341/163
f 174/343/164 171/335/164 179/355/164 182/363/164
f 172/337/165 180/357/165 179/355/165 171/335/165
f 172/338/166 170/333/166 178/353/166 180/358/166
f 203/408/127 204/410/127 207/416/127 208/418/127
f 204/410/128 205/411/128 206/413/128 207/416/128
f 197/395/129 198/398/129 201/405/129 202/406/129
f 198/398/130 199/400/130 200/403/130 201/405/130
f 191/382/131 192/384/131 195/390/131 196/392/131
f 192/384/132 193/385/132 194/387/132 195/390/132
f 185/369/133 186/371/133 189/377/133 190/379/133
f 186/371/134 187/372/134 188/374/134 189/377/134
f 193/385/135 192/384/135 201/405/135 200/403/135
f 192/384/136 191/382/136 202/406/136 201/405/136
f 190/380/137 189/378/137 195/391/137 194/388/137
f 189/378/138 188/375/138 196/393/138 195/391/138
f 199/401/139 198/399/139 207/417/139 206/414/139
f 198/399/140 197/396/140 208/419/140 207/417/140
f 205/411/141 204/410/141 186/371/141 185/369/141
f 204/410/142 203/408/142 187/372/142 186/371/142
f 187/373/143 203/409/143 215/436/143 209/421/143
f 196/394/144 188/376/144 210/423/144 212/428/144
f 191/383/145 196/394/145 212/428/145 211/426/145
f 203/409/146 208/420/146 216/438/146 215/436/146
f 188/376/147 187/373/147 209/421/147 210/423/147
f 208/420/148 197/397/148 213/431/148 216/438/148
f 202/407/149 191/383/149 211/426/149 214/434/149
f 197/397/150 202/407/150 214/434/150 213/431/150
f 193/386/151 200/404/151 222/454/151 219/446/151
f 205/412/152 185/370/152 217/441/152 223/456/152
f 194/389/153 193/386/153 219/446/153 220/448/153
f 190/381/154 194/389/154 220/448/154 218/443/154
f 206/415/155 205/412/155 223/456/155 224/458/155
f 185/370/156 190/381/156 218/443/156 217/441/156
f 199/402/157 206/415/157 224/458/157 221/451/157
f 200/404/158 199/402/158 221/451/158 222/454/158
f 210/424/159 209/422/159 217/442/159 218/444/159
f 209/422/160 215/437/160 223/457/160 217/442/160
f 216/439/161 224/459/161 223/457/161 215/437/161
f 216/440/162 213/432/162 221/452/162 224/460/162
f 214/435/163 222/455/163 221/453/163 213/433/163
f 214/435/164 211/427/164 219/447/164 222/455/164
f 212/429/165 220/449/165 219/447/165 211/427/165
f 212/430/166 210/425/166 218/445/166 220/450/166
f 225/461/167 226/464/167 228/467/167 227/465/167
f 227/465/168 228/467/168 230/471/168 229/469/168
f 229/469/169 230/471/169 232/475/169 231/473/169
f 231/473/170 232/475/170 234/480/170 233/477/170
f 233/478/171 234/481/171 236/485/171 235/483/171
f 235/483/172 236/485/172 238/489/172 237/487/172
f 237/487/173 238/489/173 240/493/173 239/491/173
f 239/491/174 240/493/174 242/497/174 241/495/174
f 241/495/175 242/497/175 244/501/175 243/499/175
f 243/499/176 244/501/176 246/505/176 245/503/176
f 245/503/177 246/505/177 248/509/177 247/507/177
f 247/507/178 248/509/178 250/514/178 249/511/178
f 249/512/179 250/515/179 252/519/179 251/517/179
f 251/517/180 252/519/180 254/523/180 253/521/180
f 253/521/181 254/523/181 256/527/181 255/525/181
f 255/525/182 256/527/182 258/531/182 257/529/182
f 257/529/183 258/531/183 260/535/183 259/533/183
f 259/533/184 260/535/184 262/539/184 261/537/184
f 261/537/185 262/539/185 264/543/185 263/541/185
f 263/541/186 264/543/186 266/548/186 265/545/186
f 265/546/187 266/549/187 268/553/187 267/551/187
f 267/551/188 268/553/188 270/557/188 269/555/188
f 269/555/189 270/557/189 272/561/189 271/559/189
f 271/559/190 272/561/190 274/565/190 273/563/190
f 273/563/191 274/565/191 276/569/191 275/567/191
f 275/567/192 276/569/192 278/573/192 277/571/192
f 277/571/193 278/573/193 280/577/193 279/575/193
f 279/575/194 280/577/194 282/582/194 281/579/194
f 281/580/195 282/583/195 284/587/195 283/585/195
f 283/585/196 284/587/196 286/592/196 285/589/196
f 228/468/57 226/463/57 288/595/57 286/591/57 284/588/57 282/584/57 280/578/57 278/574/57 276/570/57 274/566/57 272/562/57 270/558/57 268/554/57 266/550/57 264/544/57 262/540/57 260/536/57 258/532/57 256/528/57 254/524/57 252/520/57 250/516/57 248/510/57 246/506/57 244/502/57 242/498/57 240/494/57 238/490/57 236/486/57 234/482/57 232/476/57 230/472/57
f 285/589/197 286/592/197 288/596/197 287/593/197
f 287/593/198 288/596/198 226/464/198 225/461/198
f 225/462/4 227/466/4 229/470/4 231/474/4 233/479/4 235/484/4 237/488/4 239/492/4 241/496/4 243/500/4 245/504/4 247/508/4 249/513/4 251/518/4 253/522/4 255/526/4 257/530/4 259/534/4 261/538/4 263/542/4 265/547/4 267/552/4 269/556/4 271/560/4 273/564/4 275/568/4 277/572/4 279/576/4 281/581/4 283/586/4 285/590/4 287/594/4
f 289/597/4 290/600/4 292/606/4 291/603/4
f 291/604/199 292/607/199 296/618/199 295/615/199
f 295/616/57 296/619/57 294/612/57 293/609/57
f 293/610/200 294/613/200 290/601/200 289/598/200
f 291/605/201 295/617/201 293/611/201 289/599/201
f 296/620/202 292/608/202 290/602/202 294/614/202
f 315/663/203 316/665/203 319/671/203 320/673/203
f 316/665/204 317/666/204 318/668/204 319/671/204
f 309/649/205 310/653/205 313/660/205 314/661/205
f 310/653/206 311/655/206 312/658/206 313/660/206
f 303/635/207 304/637/207 307/643/207 308/645/207
f 304/637/208 305/638/208 306/640/208 307/643/208
f 297/621/209 298/623/209 301/630/209 302/632/209
f 298/623/210 299/624/210 300/626/210 301/630/210
f 305/638/211 304/637/211 313/660/211 312/658/211
f 304/637/212 303/635/212 314/661/212 313/660/212
f 302/633/213 301/631/213 307/644/213 306/641/213
f 301/631/214 300/627/214 308/646/214 307/644/214
f 311/656/215 310/654/215 319/672/215 318/669/215
f 310/654/216 309/650/216 320/674/216 319/672/216
f 317/666/217 316/665/217 298/623/217 297/621/217
f 316/665/218 315/663/218 299/624/218 298/623/218
f 299/625/219 315/664/219 327/686/219 321/677/219
f 308/647/220 300/628/220 322/679/220 324/682/220
f 303/636/221 308/648/221 324/681/221 323/680/221
f 315/664/222 320/675/222 328/687/222 327/686/222
f 300/629/223 299/625/223 321/677/223 322/678/223
f 320/676/224 309/651/224 325/683/224 328/688/224
f 314/662/225 303/636/225 323/680/225 326/685/225
f 309/652/226 314/662/226 326/685/226 325/684/226
f 305/639/227 312/659/227 334/702/227 331/694/227
f 317/667/228 297/622/228 329/689/228 335/704/228
f 306/642/229 305/639/229 331/694/229 332/696/229
f 302/634/230 306/642/230 332/696/230 330/691/230
f 318/670/231 317/667/231 335/704/231 336/706/231
f 297/622/232 302/634/232 330/691/232 329/689/232
f 311/657/233 318/670/233 336/706/233 333/699/233
f 312/659/234 311/657/234 333/699/234 334/702/234
f 322/678/235 321/677/235 329/690/235 330/692/235
f 321/677/236 327/686/236 335/705/236 329/690/236
f 328/687/237 336/707/237 335/705/237 327/686/237
f 328/688/238 325/683/238 333/700/238 336/708/238
f 326/685/239 334/703/239 333/701/239 325/684/239
f 326/685/240 323/680/240 331/695/240 334/703/240
f 324/681/241 332/697/241 331/695/241 323/680/241
f 324/682/242 322/679/242 330/693/242 332/698/242
f 337/709/4 338/712/4 340/718/4 339/715/4
f 339/716/202 340/719/202 344/730/202 343/727/202
f 343/728/57 344/731/57 342/724/57 341/721/57
f 341/722/201 342/725/201 338/713/201 337/710/201
f 339/717/199 343/729/199 341/723/199 337/711/199
f 344/732/200 340/720/200 338/714/200 342/726/200
f 345/733/4 346/736/4 348/742/4 347/739/4
f 347/740/243 348/743/243 352/754/243 351/751/243
f 351/752/57 352/755/57 350/748/57 349/745/57
f 349/746/244 350/749/244 346/737/244 345/734/244
f 347/741/245 351/753/245 349/747/245 345/735/245
f 352/756/246 348/744/246 346/738/246 350/750/246
f 353/757/4 354/760/4 356/766/4 355/763/4
f 355/764/246 356/767/246 360/778/246 359/775/246
f 359/776/57 360/779/57 358/772/57 357/769/57
f 357/770/245 358/773/245 354/761/245 353/758/245
f 355/765/243 359/777/243 357/771/243 353/759/243
f 360/780/244 356/768/244 354/762/244 358/774/244
f 361/781/57 362/784/57 364/790/57 363/787/57
f 363/788/61 364/791/61 368/802/61 367/799/61
f 367/800/4 368/803/4 366/796/4 365/793/4
f 365/794/65 366/797/65 362/785/65 361/782/65
f 363/789/114 367/801/114 365/795/114 361/783/114
f 368/804/19 364/792/19 362/786/19 366/798/19
f 387/847/133 388/849/133 391/855/133 392/857/133
f 388/849/134 389/850/134 390/852/134 391/855/134
f 381/833/132 382/837/132 385/844/132 386/845/132
f 382/837/131 383/839/131 384/842/131 385/844/131
f 375/819/130 376/821/130 379/827/130 380/829/130
f 376/821/129 377/822/129 378/824/129 379/827/129
f 369/805/127 370/807/127 373/814/127 374/816/127
f 370/807/128 371/808/128 372/810/128 373/814/128
f 377/822/136 376/821/136 385/844/136 384/842/136
f 376/821/135 375/819/135 386/845/135 385/844/135
f 374/817/140 373/815/140 379/828/140 378/825/140
f 373/815/139 372/811/139 380/830/139 379/828/139
f 383/840/138 382/838/138 391/856/138 390/853/138
f 382/838/137 381/834/137 392/858/137 391/856/137
f 389/850/142 388/849/142 370/807/142 369/805/142
f 388/849/141 387/847/141 371/808/141 370/807/141
f 371/809/247 387/848/247 399/870/247 393/861/247
f 380/831/248 372/812/248 394/863/248 396/866/248
f 375/820/249 380/832/249 396/865/249 395/864/249
f 387/848/250 392/859/250 400/871/250 399/870/250
f 372/813/251 371/809/251 393/861/251 394/862/251
f 392/860/252 381/835/252 397/867/252 400/872/252
f 386/846/253 375/820/253 395/864/253 398/869/253
f 381/836/254 386/846/254 398/869/254 397/868/254
f 377/823/255 384/843/255 406/886/255 403/878/255
f 389/851/256 369/806/256 401/873/256 407/888/256
f 378/826/257 377/823/257 403/878/257 404/880/257
f 374/818/258 378/826/258 404/880/258 402/875/258
f 390/854/259 389/851/259 407/888/259 408/890/259
f 369/806/260 374/818/260 402/875/260 401/873/260
f 383/841/261 390/854/261 408/890/261 405/883/261
f 384/843/262 383/841/262 405/883/262 406/886/262
f 394/862/263 393/861/263 401/874/263 402/876/263
f 393/861/264 399/870/264 407/889/264 401/874/264
f 400/871/265 408/891/265 407/889/265 399/870/265
f 400/872/266 397/867/266 405/884/266 408/892/266
f 398/869/267 406/887/267 405/885/267 397/868/267
f 398/869/268 395/864/268 403/879/268 406/887/268
f 396/865/269 404/881/269 403/879/269 395/864/269
f 396/866/270 394/863/270 402/877/270 404/882/270
f 409/893/57 410/896/57 412/902/57 411/899/57
f 411/900/19 412/903/19 416/914/19 415/911/19
f 415/912/4 416/915/4 414/908/4 413/905/4
f 413/906/114 414/909/114 410/897/114 409/894/114
f 411/901/61 415/913/61 413/907/61 409/895/61
f 416/916/65 412/904/65 410/898/65 414/910/65
f 417/917/57 418/920/57 420/925/57 419/923/57
f 419/924/271 420/926/271 424/936/271 423/935/271
f 423/934/4 424/937/4 422/931/4 421/928/4
f 421/929/272 422/932/272 418/921/272 417/918/272
f 419/924/273 423/935/273 421/930/273 417/919/273
f 424/938/274 420/927/274 418/922/274 422/933/274
f 425/939/57 426/941/57 428/947/57 427/944/57
f 427/945/274 428/948/274 432/958/274 431/955/274
f 431/956/4 432/959/4 430/952/4 429/950/4
f 429/951/273 430/953/273 426/942/273 425/940/273
f 427/946/271 431/957/271 429/951/271 425/940/271
f 432/960/272 428/949/272 426/943/272 430/954/272
