# Blender 3.3.21
# www.blender.org
mtllib SupermercadoDecoracion.mtl
o Cubo
v -6.167020 5.279046 7.458018
v -6.167020 5.279046 -7.458018
v 0.000000 0.418519 7.883299
v 6.167020 5.279046 7.458018
v 6.167020 5.279046 -7.458018
v -6.518684 0.418519 7.883299
v -6.393466 1.415774 -7.883299
v 6.431807 1.443750 -7.883299
v 6.518684 0.418519 7.883299
v -6.518684 0.418519 -7.883299
v 0.000000 0.418519 7.883299
v 6.518684 0.418519 -7.883299
v 0.000000 0.418519 7.883299
v 6.518684 0.418519 7.883299
v -6.518684 0.418519 7.883299
v -6.518684 0.418519 -7.883299
v 6.518684 0.418519 -7.883299
v 6.518684 0.418519 7.883299
v -6.518684 0.418519 7.883299
v 6.518684 0.418519 9.428755
v 6.518684 0.086434 9.428755
v -6.518684 0.086434 9.428755
v -6.518684 0.418519 9.428755
v -7.518684 0.086433 -7.883299
v -7.518684 0.086434 7.883299
v -7.518684 0.418519 -7.883299
v -7.518684 0.418519 7.883299
v -6.518684 0.418519 -9.428755
v -6.518684 0.086433 -9.428755
v 6.518684 0.086433 -9.428755
v 6.518684 0.418519 -9.428755
v 7.518684 0.418519 -7.883299
v 7.518684 0.086433 -7.883299
v 7.518684 0.086434 7.883299
v 7.518684 0.418519 7.883299
v -3.259342 0.418519 -7.883299
v -3.259342 0.418519 7.883299
v -3.384560 1.415774 -7.883299
v -3.259342 0.418519 7.883299
v -3.259342 0.418519 7.883299
v 3.259342 0.418519 7.883299
v 3.259342 0.418519 7.883299
v 3.346220 1.443750 -7.883299
v 3.259342 0.418519 -7.883299
v 3.259342 0.418519 7.883299
v 1.303737 0.417614 -6.802408
v -6.393466 3.508675 -7.883299
v 6.431807 3.548641 -7.883299
v -1.303737 0.417614 -6.802408
v -3.384560 3.508675 -7.883299
v 3.346220 3.548641 -7.883299
v -3.073351 4.369546 -6.802408
v -3.259342 0.418519 -6.802408
v 3.073351 4.369546 -6.802408
v 3.259342 0.418519 -6.802408
v 6.518684 4.693179 -7.883299
v 6.518684 0.418519 -7.883299
v 6.518684 0.418519 -7.883299
v 3.259342 0.418519 -7.883299
v 3.259342 0.418519 -7.883299
v 3.259342 0.418519 -7.883299
v 3.259342 4.693179 -7.883299
v 3.259342 4.693179 -7.883299
v 3.259342 4.693179 -7.883299
v 3.259342 0.418519 -7.883299
v 3.259342 4.693179 -7.883299
v -6.518684 5.279046 7.883299
v -6.518684 5.279046 -7.883299
v 6.518684 5.279046 -7.883299
v 6.518684 5.279046 7.883299
v -6.167020 4.793890 7.458018
v -6.167020 4.793889 -7.458018
v 6.167020 4.793889 -7.458018
v 6.167020 4.793890 7.458018
v 6.526905 3.767295 -8.082717
v 6.526905 3.596536 -8.082717
v 6.526905 3.767295 -7.842250
v 6.526905 3.596536 -7.842250
v 3.254458 3.767295 -8.082717
v 3.254458 3.596536 -8.082717
v 3.254458 3.767295 -7.842250
v 3.254458 3.596536 -7.842250
v 1.510084 3.389979 -7.224762
v 1.510084 0.621571 -7.224762
v 1.696671 3.549923 -6.802631
v 1.696671 0.461627 -6.802631
v 0.124149 3.389979 -7.224762
v 0.124149 0.621571 -7.224762
v -0.062438 3.549923 -6.802631
v -0.062438 0.461627 -6.802631
v 3.254458 1.157019 -7.842250
v 3.254458 1.327778 -7.842250
v 3.254458 1.157019 -8.082717
v 3.254458 1.327778 -8.082717
v 6.526905 1.157019 -7.842250
v 6.526905 1.327778 -7.842250
v 6.526905 1.157019 -8.082717
v 6.526905 1.327778 -8.082717
v -3.264698 3.767295 -8.082717
v -3.264698 3.596536 -8.082717
v -3.264698 3.767295 -7.842250
v -3.264698 3.596536 -7.842250
v -6.537145 3.767295 -8.082717
v -6.537145 3.596536 -8.082717
v -6.537145 3.767295 -7.842250
v -6.537145 3.596536 -7.842250
v -6.537145 1.157019 -7.842250
v -6.537145 1.327778 -7.842250
v -6.537145 1.157019 -8.082717
v -6.537145 1.327778 -8.082717
v -3.264698 1.157019 -7.842250
v -3.264698 1.327778 -7.842250
v -3.264698 1.157019 -8.082717
v -3.264698 1.327778 -8.082717
v 1.696671 3.549923 -7.224762
v 1.696671 0.461627 -7.224762
v -0.062438 3.549923 -7.224762
v -0.062438 0.461627 -7.224762
v 1.510084 3.389979 -7.115685
v 1.510084 0.621571 -7.115685
v 0.124149 3.389979 -7.115685
v 0.124149 0.621571 -7.115685
v -0.249576 3.389979 -7.224762
v -0.249576 0.621571 -7.224762
v -0.062988 3.549923 -6.802631
v -0.062988 0.461627 -6.802631
v -1.635509 3.389979 -7.224762
v -1.635509 0.621571 -7.224762
v -1.822096 3.549923 -6.802631
v -1.822096 0.461627 -6.802631
v -0.062988 3.549923 -7.224762
v -0.062988 0.461627 -7.224762
v -1.822096 3.549923 -7.224762
v -1.822096 0.461627 -7.224762
v -0.249576 3.389979 -7.115685
v -0.249576 0.621571 -7.115685
v -1.635509 3.389979 -7.115685
v -1.635509 0.621571 -7.115685
v -6.518684 4.693179 -7.883299
v -6.518684 0.418519 -7.883299
v -3.259342 0.418519 -7.883299
v -3.259342 4.693179 -7.883299
v 6.518684 4.693179 -7.883299
v 6.518684 0.418519 -7.883299
v 3.259342 0.418519 -7.883299
v 3.259342 4.693179 -7.883299
v -3.259342 4.693179 -6.802408
v 3.259342 4.693179 -6.802408
v -3.073351 0.424301 -6.802408
v -1.407842 0.423588 -6.802408
v 3.073351 0.424301 -6.802408
v 1.407842 0.423588 -6.802408
vn -0.0000 -0.0000 -0.0000
vn -0.0000 1.0000 -0.0000
vn -0.0000 -0.0000 -1.0000
vn -0.0000 -0.0000 1.0000
vn -1.0000 -0.0000 -0.0000
vn 1.0000 -0.0000 -0.0000
vn 0.8396 -0.0000 -0.5433
vn -0.8396 -0.0000 -0.5433
vn -0.8396 -0.0000 0.5433
vn 0.8396 -0.0000 0.5433
vn -0.0000 -1.0000 -0.0000
vt 0.859737 0.803460
vt 0.569426 0.254131
vt 0.169856 0.620871
vt 0.569426 0.023816
vt 0.169856 0.851187
vt 0.766715 0.017250
vt 0.496243 0.946699
vt 0.859737 0.573145
vt 0.339110 0.254131
vt 0.112611 0.851187
vt 0.339110 0.023816
vt 0.112611 0.620871
vt 0.766715 0.247565
vt 0.496243 0.946699
vt 0.560423 0.573145
vt 0.560423 0.538646
vt 0.776046 0.536308
vt 0.018872 0.668938
vt 0.560423 0.816594
vt 0.245129 0.342924
vt 0.496243 0.946699
vt 0.496243 0.946699
vt 0.496243 0.946699
vt 0.560423 0.694870
vt 0.496243 0.946699
vt 0.157647 0.284561
vt 0.496243 0.946699
vt 0.496243 0.946699
vt 0.496243 0.946699
vt 0.496243 0.946699
vt 0.279371 0.041113
vt 0.496243 0.946699
vt 0.035923 0.041113
vt 0.035923 0.284561
vt 0.496243 0.946699
vt 0.496243 0.946699
vt 0.279371 0.284561
vt 0.035923 0.308424
vt 0.227102 0.864320
vt 0.295197 0.634098
vt 0.242671 0.864320
vt 0.279628 0.634098
vt 0.242671 0.620871
vt 0.857301 0.247472
vt 0.279371 0.308424
vt 0.227102 0.620871
vt 0.872870 0.247472
vt 0.857301 0.514783
vt 0.857301 0.271335
vt 0.872870 0.514783
vt 0.298044 0.041113
vt 0.298044 0.284561
vt 0.872870 0.271335
vt 0.872870 0.538646
vt 0.279628 0.912046
vt 0.279371 0.017250
vt 0.857301 0.538646
vt 0.295197 0.912046
vt 0.279628 0.342924
vt 0.295197 0.668597
vt 0.295197 0.342924
vt 0.279628 0.668597
vt 0.035923 0.017250
vt 0.295197 0.366787
vt 0.017250 0.041113
vt 0.279628 0.366787
vt 0.279628 0.610235
vt 0.017250 0.284561
vt 0.295197 0.610235
vt 0.496243 0.946699
vt 0.218509 0.041113
vt 0.496243 0.946699
vt 0.560423 0.634007
vt 0.776046 0.480122
vt 0.496243 0.946699
vt 0.218509 0.284561
vt 0.496243 0.946699
vt 0.096785 0.284561
vt 0.496243 0.946699
vt 0.496243 0.946699
vt 0.076490 0.668938
vt 0.096785 0.041113
vt 0.496243 0.946699
vt 0.560423 0.755732
vt 0.496243 0.946699
vt 0.647009 0.017250
vt 0.677924 0.536308
vt 0.018872 0.767623
vt 0.695699 0.017250
vt 0.677924 0.480122
vt 0.076490 0.767623
vt 0.728743 0.202531
vt 0.218509 0.057803
vt 0.907369 0.247472
vt 0.732216 0.017292
vt 0.613965 0.202531
vt 0.096785 0.057803
vt 0.933672 0.573145
vt 0.610492 0.017292
vt 0.622390 0.295197
vt 0.496243 0.946699
vt 0.044717 0.586372
vt 0.496243 0.946699
vt 0.245129 0.586372
vt 0.496243 0.946699
vt 0.096785 0.041113
vt 0.916982 0.573145
vt 0.496243 0.946699
vt 0.096785 0.041113
vt 0.496243 0.946699
vt 0.096785 0.041113
vt 0.496243 0.946699
vt 0.916982 0.773557
vt 0.671991 0.959684
vt 0.496243 0.946699
vt 0.622390 0.356060
vt 0.496243 0.946699
vt 0.622390 0.356060
vt 0.496243 0.946699
vt 0.671991 0.959684
vt 0.496243 0.946699
vt 0.496243 0.946699
vt 0.332544 0.573145
vt 0.332544 0.538646
vt 0.575992 0.260698
vt 0.594922 0.538646
vt 0.332544 0.295197
vt 0.575992 0.017250
vt 0.594922 0.295197
vt 0.017250 0.586372
vt 0.332544 0.017250
vt 0.332544 0.816594
vt 0.017250 0.342924
vt 0.332544 0.260698
vt 0.882483 0.803460
vt 0.825237 0.803460
vt 0.192602 0.620871
vt 0.825237 0.573145
vt 0.192602 0.851187
vt 0.789461 0.017250
vt 0.594922 0.573145
vt 0.135357 0.620871
vt 0.789461 0.247565
vt 0.882483 0.573145
vt 0.594922 0.803460
vt 0.135357 0.851187
vt 0.230815 0.898819
vt 0.728842 0.260209
vt 0.375049 0.851093
vt 0.962272 0.487868
vt 0.728842 0.252203
vt 0.383055 0.851093
vt 0.227102 0.898819
vt 0.725129 0.260209
vt 0.958559 0.487868
vt 0.725129 0.252203
vt 0.230815 0.959926
vt 0.375049 0.912200
vt 0.938597 0.204545
vt 0.962272 0.426761
vt 0.383055 0.912200
vt 0.938597 0.196540
vt 0.227102 0.959926
vt 0.942310 0.204545
vt 0.958559 0.426761
vt 0.942310 0.196540
vt 0.827445 0.154541
vt 0.819875 0.967753
vt 0.190720 0.911566
vt 0.190720 0.946065
vt 0.827445 0.024748
vt 0.819875 0.837960
vt 0.907369 0.482382
vt 0.958559 0.392262
vt 0.279628 0.979393
vt 0.958559 0.247472
vt 0.853324 0.154541
vt 0.785376 0.967753
vt 0.190720 0.885686
vt 0.190720 0.971945
vt 0.853324 0.024748
vt 0.785376 0.837960
vt 0.907369 0.515230
vt 0.713009 0.982750
vt 0.279628 0.946545
vt 0.713009 0.837960
vt 0.652417 0.252203
vt 0.150824 0.885686
vt 0.652417 0.260209
vt 0.112611 0.946793
vt 0.648704 0.252203
vt 0.340550 0.912200
vt 0.154536 0.885686
vt 0.648704 0.260209
vt 0.332544 0.912200
vt 0.116324 0.946793
vt 0.823961 0.196540
vt 0.150824 0.946793
vt 0.823961 0.204545
vt 0.112611 0.885686
vt 0.340550 0.851093
vt 0.827673 0.196540
vt 0.154536 0.946793
vt 0.332544 0.851093
vt 0.827673 0.204545
vt 0.116324 0.885686
vt 0.506277 0.851093
vt 0.690629 0.260209
vt 0.460059 0.851093
vt 0.544490 0.912200
vt 0.690629 0.252203
vt 0.468065 0.851093
vt 0.502565 0.851093
vt 0.686916 0.260209
vt 0.540777 0.912200
vt 0.686916 0.252203
vt 0.506277 0.912200
vt 0.460059 0.912200
vt 0.900385 0.204545
vt 0.544490 0.851093
vt 0.468065 0.912200
vt 0.900385 0.196540
vt 0.502565 0.912200
vt 0.904098 0.204545
vt 0.540777 0.851093
vt 0.904098 0.196540
vt 0.614205 0.252203
vt 0.017250 0.855782
vt 0.614205 0.260209
vt 0.055462 0.916889
vt 0.610492 0.252203
vt 0.425560 0.912200
vt 0.020963 0.855782
vt 0.610492 0.260209
vt 0.417554 0.912200
vt 0.059175 0.916889
vt 0.862173 0.196540
vt 0.017250 0.916889
vt 0.862173 0.204545
vt 0.055462 0.855782
vt 0.425560 0.851093
vt 0.865886 0.196540
vt 0.020963 0.916889
vt 0.417554 0.851093
vt 0.865886 0.204545
vt 0.059175 0.855782
vt 0.913887 0.482382
vt 0.965077 0.392262
vt 0.823960 0.162040
vt 0.286146 0.979393
vt 0.965077 0.247472
vt 0.823961 0.017250
vt 0.913887 0.515230
vt 0.706491 0.982750
vt 0.856809 0.162040
vt 0.286146 0.946545
vt 0.706491 0.837960
vt 0.856809 0.017250
vt 0.916982 0.937849
vt 0.821559 0.967753
vt 0.189036 0.911566
vt 0.189036 0.946065
vt 0.916982 0.808056
vt 0.821559 0.837960
vt 0.942862 0.937849
vt 0.783691 0.967753
vt 0.189036 0.885686
vt 0.189036 0.971945
vt 0.942862 0.808056
vt 0.783691 0.837960
vt 0.894792 0.154541
vt 0.859737 0.967753
vt 0.461744 0.972579
vt 0.425560 0.946699
vt 0.894792 0.024748
vt 0.859737 0.837960
vt 0.373561 0.946699
vt 0.958655 0.162040
vt 0.332544 0.979548
vt 0.958655 0.017250
vt 0.920672 0.154541
vt 0.749192 0.967753
vt 0.461744 0.946699
vt 0.425560 0.972579
vt 0.920672 0.024748
vt 0.749192 0.837960
vt 0.373561 0.979547
vt 0.974689 0.717936
vt 0.332544 0.946699
vt 0.974689 0.573145
vt 0.380079 0.946699
vt 0.965173 0.162040
vt 0.891308 0.162040
vt 0.339062 0.979548
vt 0.965173 0.017250
vt 0.891308 0.017250
vt 0.380079 0.979547
vt 0.968171 0.717936
vt 0.924156 0.162040
vt 0.339062 0.946699
vt 0.968171 0.573145
vt 0.924156 0.017250
vt 0.594922 0.967753
vt 0.861421 0.967753
vt 0.460059 0.972579
vt 0.423876 0.946699
vt 0.594922 0.837960
vt 0.861421 0.837960
vt 0.620802 0.967753
vt 0.747508 0.967753
vt 0.460059 0.946699
vt 0.423876 0.972579
vt 0.620802 0.837960
vt 0.747508 0.837960
vt 0.360011 0.295197
vt 0.622390 0.538646
vt 0.496243 0.946699
vt 0.560423 0.295197
vt 0.822801 0.538646
vt 0.496243 0.946699
vt 0.218509 0.041113
vt 0.924059 0.247472
vt 0.822801 0.477784
vt 0.924059 0.447883
vt 0.671991 0.837960
vt 0.622390 0.477784
vt 0.496243 0.946699
vt 0.017250 0.821283
vt 0.496243 0.946699
vt 0.017250 0.620871
vt 0.496243 0.946699
vt 0.078112 0.620871
vt 0.496243 0.946699
vt 0.078112 0.821283
vt 0.907369 0.447883
vt 0.655301 0.837960
vt 0.732216 0.217704
vt 0.933672 0.773557
vt 0.655301 0.959684
vt 0.610492 0.217704
vt 0.728743 0.017563
vt 0.697643 0.017530
vt 0.613965 0.017563
vt 0.645065 0.017530
s 1
usemtl Material.004
f 146/333/1 63/117/2 56/101/1 143/327/1
f 146/333/1 145/331/1 59/108/1 62/115/1
f 1/1/3 4/8/3 74/144/3 71/135/3
f 144/329/1 58/105/1 57/103/2
f 6/14/2 140/317/2 10/22/2 15/29/2
f 45/85/2 11/23/2 3/7/2 42/80/2
f 39/75/2 15/29/2 19/36/2 40/77/2
f 44/83/2 12/25/2 17/32/2
f 145/331/1 144/329/1 57/103/2 61/112/2
f 37/72/2 6/14/2 15/29/2 39/75/2
f 13/26/2 40/76/2 19/37/2 27/52/2 23/45/2 20/38/2 35/68/2 18/34/2 41/78/2
f 15/29/2 10/22/2 16/30/2 19/36/2
f 42/80/2 3/7/2 13/27/2 41/79/2
f 12/25/2 14/28/2 18/35/2 17/32/2
f 20/39/4 23/46/4 22/43/4 21/41/4
f 25/49/5 27/53/5 26/50/5 24/48/5
f 19/37/2 16/31/2 26/51/2 27/52/2
f 33/66/6 32/64/6 35/69/6 34/67/6
f 17/33/2 18/34/2 35/68/2 32/65/2
f 30/59/7 31/61/7 32/64/7 33/66/7
f 24/48/8 26/50/8 28/54/8 29/57/8
f 23/47/9 27/53/9 25/49/9 22/44/9
f 21/42/10 34/67/10 35/69/10 20/40/10
f 64/119/2 146/333/1 62/115/1
f 68/126/3 69/129/3 56/100/3 63/116/3 64/118/3 142/326/3 139/316/3
f 10/22/2 36/70/2 16/30/2
f 11/23/2 37/72/2 39/75/2 3/7/2
f 28/55/3 31/62/3 30/60/3 29/58/3
f 3/7/2 39/75/2 40/77/2 13/27/2
f 140/317/2 141/320/2 36/70/2 10/22/2
f 70/132/4 67/123/4 6/15/4 37/73/4 11/24/4 45/84/4 9/19/4
f 6/16/5 67/124/5 68/127/5 139/315/5 140/318/5
f 14/28/2 42/80/2 41/79/2 18/35/2
f 60/110/2 145/331/1 61/112/2
f 44/82/2 17/33/2 32/65/2 31/63/2 28/56/2 26/51/2 16/31/2 36/71/2 141/321/2 53/93/2 55/97/2 59/106/1 60/109/2 61/111/2
f 9/21/2 45/85/2 42/80/2 14/28/2
f 64/119/2 63/117/2 146/333/1
f 7/17/3 47/87/3 50/90/3 38/74/3
f 144/329/1 143/327/1 56/101/1 58/105/1
f 141/322/6 142/324/6 147/335/6 53/94/6
f 43/81/3 51/91/3 48/88/3 8/18/3
f 60/110/2 59/108/1 145/331/1
f 150/342/3 149/341/3 52/92/3 54/96/3 151/343/3 152/344/3
f 58/104/6 56/102/6 69/130/6 70/133/6 9/20/6
f 58/105/1 9/21/2 14/28/2 12/25/2 57/103/2
f 61/112/2 57/103/2 12/25/2 44/83/2
f 62/113/5 59/107/5 55/98/5 148/338/5
f 142/325/11 64/120/11 62/114/11 148/339/11 147/336/11
f 59/108/1 62/115/1 66/122/1 65/121/1
f 1/2/2 2/4/2 68/128/2 67/125/2
f 2/4/2 5/11/2 69/131/2 68/128/2
f 5/11/2 4/9/2 70/134/2 69/131/2
f 4/9/2 1/2/2 67/125/2 70/134/2
f 72/138/2 71/136/2 74/145/2 73/141/2
f 4/10/5 5/12/5 73/142/5 74/146/5
f 2/5/6 1/3/6 71/137/6 72/139/6
f 2/6/4 72/140/4 73/143/4 5/13/4
f 75/147/2 79/157/2 81/163/2 77/153/2
f 80/160/11 76/150/11 78/155/11 82/165/11
f 76/151/6 75/148/6 77/154/6 78/156/6
f 80/161/3 79/158/3 75/149/3 76/152/3
f 82/166/5 81/164/5 79/159/5 80/162/5
f 115/247/2 117/253/2 89/183/2 85/173/2
f 118/256/11 116/250/11 86/175/11 90/185/11
f 116/251/6 115/248/6 85/174/6 86/176/6
f 84/170/2 88/180/2 122/268/2 120/262/2
f 90/186/5 89/184/5 117/254/5 118/257/5
f 91/187/5 92/189/5 94/194/5 93/191/5
f 93/192/3 94/195/3 98/204/3 97/201/3
f 97/202/6 98/205/6 96/199/6 95/197/6
f 93/193/11 97/203/11 95/198/11 91/188/11
f 98/206/2 94/196/2 92/190/2 96/200/2
f 99/207/2 103/217/2 105/223/2 101/213/2
f 104/220/11 100/210/11 102/215/11 106/225/11
f 100/211/6 99/208/6 101/214/6 102/216/6
f 104/221/3 103/218/3 99/209/3 100/212/3
f 106/226/5 105/224/5 103/219/5 104/222/5
f 107/227/5 108/229/5 110/234/5 109/231/5
f 109/232/3 110/235/3 114/244/3 113/241/3
f 113/242/6 114/245/6 112/239/6 111/237/6
f 109/233/11 113/243/11 111/238/11 107/228/11
f 114/246/2 110/236/2 108/230/2 112/240/2
f 84/171/3 83/167/3 115/249/3 116/252/3
f 83/167/3 87/177/3 117/255/3 115/249/3
f 88/181/3 84/171/3 116/252/3 118/258/3
f 87/177/3 88/181/3 118/258/3 117/255/3
f 122/269/3 121/265/3 119/259/3 120/263/3
f 83/168/5 84/172/5 120/264/5 119/260/5
f 88/182/6 87/178/6 121/266/6 122/270/6
f 87/179/11 83/169/11 119/261/11 121/267/11
f 131/291/2 133/297/2 129/287/2 125/277/2
f 134/300/11 132/294/11 126/279/11 130/289/11
f 132/295/6 131/292/6 125/278/6 126/280/6
f 124/274/2 128/284/2 138/312/2 136/306/2
f 130/290/5 129/288/5 133/298/5 134/301/5
f 124/275/3 123/271/3 131/293/3 132/296/3
f 123/271/3 127/281/3 133/299/3 131/293/3
f 128/285/3 124/275/3 132/296/3 134/302/3
f 127/281/3 128/285/3 134/302/3 133/299/3
f 138/313/3 137/309/3 135/303/3 136/307/3
f 123/272/5 124/276/5 136/308/5 135/304/5
f 128/286/6 127/282/6 137/310/6 138/314/6
f 127/283/11 123/273/11 135/305/11 137/311/11
f 47/87/3 7/17/3 140/319/3 139/316/3
f 7/17/3 38/74/3 141/323/3 140/319/3
f 38/74/3 50/90/3 142/326/3 141/323/3
f 50/90/3 47/87/3 139/316/3 142/326/3
f 8/18/3 48/88/3 143/328/3 144/330/3
f 43/81/3 8/18/3 144/330/3 145/332/3
f 51/91/3 43/81/3 145/332/3 146/334/3
f 48/88/3 51/91/3 146/334/3 143/328/3
f 52/92/3 149/341/3 53/95/3 147/337/3
f 54/96/3 52/92/3 147/337/3 148/340/3
f 151/343/3 54/96/3 148/340/3 55/99/3
f 150/342/3 152/344/3 46/86/3 49/89/3
f 149/341/3 150/342/3 49/89/3 53/95/3
f 152/344/3 151/343/3 55/99/3 46/86/3
