# Blender 4.2.1 LTS
# www.blender.org
mtllib sin_nombre.mtl
o Cubo
v -1.000000 -1.000000 1.000000
v -1.000000 1.000000 1.951794
v -1.000000 -1.000000 -1.788974
v -1.000000 1.000000 -1.951794
v 1.000000 -1.000000 1.000000
v 1.000000 1.000000 1.951794
v 1.000000 -1.000000 -1.788974
v 1.000000 1.000000 -1.951794
v -0.974193 0.768641 -2.189555
v -0.974193 0.926162 -2.032035
v -0.974193 0.789745 -2.110795
v -0.974193 0.847401 -2.053139
v -0.974193 0.962471 -2.032035
v -0.974193 1.119991 -2.189555
v -0.974193 1.041231 -2.053139
v -0.974193 1.098888 -2.110795
v -0.974193 0.926162 -2.361316
v -0.974193 0.768641 -2.203796
v -0.974193 0.847401 -2.340212
v -0.974193 0.789745 -2.282556
v -0.974193 1.119991 -2.203796
v -0.974193 0.962471 -2.361316
v -0.974193 1.098888 -2.282556
v -0.974193 1.041231 -2.340212
v 0.974193 0.926162 -2.032035
v 0.974193 0.768641 -2.189555
v 0.974193 0.847401 -2.053139
v 0.974193 0.789745 -2.110795
v 0.974193 1.119991 -2.189555
v 0.974193 0.962471 -2.032035
v 0.974193 1.098888 -2.110795
v 0.974193 1.041231 -2.053139
v 0.974193 0.768641 -2.203796
v 0.974193 0.926162 -2.361316
v 0.974193 0.789745 -2.282556
v 0.974193 0.847401 -2.340212
v 0.974193 0.962471 -2.361316
v 0.974193 1.119991 -2.203796
v 0.974193 1.041231 -2.340212
v 0.974193 1.098888 -2.282556
v -1.070026 -1.390566 0.998115
v 1.071651 -1.388127 0.998115
v -1.069245 -1.449401 0.980267
v 1.072432 -1.446963 0.980267
v -1.068526 -1.503624 0.951285
v 1.073151 -1.501185 0.951285
v -1.067894 -1.551151 0.912280
v 1.073783 -1.548712 0.912280
v -1.067377 -1.590155 0.864753
v 1.074300 -1.587716 0.864753
v -1.066992 -1.619138 0.810530
v 1.074685 -1.616699 0.810530
v -1.066756 -1.636985 0.751694
v 1.074922 -1.634546 0.751694
v -1.066675 -1.643011 0.690507
v 1.075002 -1.640573 0.690507
v -1.066756 -1.636985 0.629321
v 1.074922 -1.634546 0.629321
v -1.066992 -1.619138 0.570485
v 1.074685 -1.616699 0.570485
v -1.067377 -1.590155 0.516262
v 1.074300 -1.587716 0.516262
v -1.067894 -1.551151 0.468735
v 1.073783 -1.548712 0.468735
v -1.068526 -1.503624 0.429730
v 1.073151 -1.501185 0.429730
v -1.069245 -1.449401 0.400747
v 1.072432 -1.446963 0.400747
v -1.070026 -1.390566 0.382900
v 1.071651 -1.388127 0.382900
v -1.070839 -1.329380 0.376873
v 1.070838 -1.326941 0.376873
v -1.071651 -1.268193 0.382900
v 1.070027 -1.265754 0.382900
v -1.072432 -1.209358 0.400747
v 1.069246 -1.206919 0.400747
v -1.073151 -1.155135 0.429730
v 1.068526 -1.152697 0.429730
v -1.073783 -1.107609 0.468735
v 1.067894 -1.105170 0.468735
v -1.074300 -1.068605 0.516262
v 1.067377 -1.066166 0.516262
v -1.074685 -1.039622 0.570485
v 1.066992 -1.037183 0.570485
v -1.074922 -1.021774 0.629321
v 1.066756 -1.019336 0.629321
v -1.075002 -1.015748 0.690507
v 1.066675 -1.013309 0.690507
v -1.074922 -1.021774 0.751694
v 1.066756 -1.019336 0.751694
v -1.074685 -1.039622 0.810530
v 1.066992 -1.037183 0.810530
v -1.074300 -1.068605 0.864753
v 1.067377 -1.066166 0.864753
v -1.073783 -1.107609 0.912280
v 1.067894 -1.105170 0.912280
v -1.073151 -1.155135 0.951285
v 1.068526 -1.152697 0.951285
v -1.072432 -1.209358 0.980267
v 1.069246 -1.206919 0.980267
v -1.070839 -1.329380 1.004141
v -1.071651 -1.268193 0.998115
v 1.070027 -1.265754 0.998115
v 1.070838 -1.326941 1.004141
v 1.070838 -1.326941 -1.031526
v 1.070027 -1.265754 -1.037552
v -1.071651 -1.268193 -1.037552
v -1.070839 -1.329380 -1.031526
v 1.069246 -1.206919 -1.055400
v -1.072432 -1.209358 -1.055400
v 1.068526 -1.152697 -1.084383
v -1.073151 -1.155135 -1.084383
v 1.067894 -1.105170 -1.123387
v -1.073783 -1.107609 -1.123387
v 1.067377 -1.066166 -1.170914
v -1.074300 -1.068605 -1.170914
v 1.066992 -1.037183 -1.225137
v -1.074685 -1.039622 -1.225137
v 1.066756 -1.019336 -1.283973
v -1.074922 -1.021774 -1.283973
v 1.066675 -1.013309 -1.345160
v -1.075002 -1.015748 -1.345160
v 1.066756 -1.019336 -1.406347
v -1.074922 -1.021774 -1.406347
v 1.066992 -1.037183 -1.465182
v -1.074685 -1.039622 -1.465182
v 1.067377 -1.066166 -1.519406
v -1.074300 -1.068605 -1.519406
v 1.067894 -1.105170 -1.566933
v -1.073783 -1.107609 -1.566933
v 1.068526 -1.152697 -1.605937
v -1.073151 -1.155135 -1.605937
v 1.069246 -1.206919 -1.634920
v -1.072432 -1.209358 -1.634920
v 1.070027 -1.265754 -1.652767
v -1.071651 -1.268193 -1.652767
v 1.070838 -1.326941 -1.658794
v -1.070839 -1.329380 -1.658794
v 1.071651 -1.388127 -1.652767
v -1.070026 -1.390566 -1.652767
v 1.072432 -1.446963 -1.634920
v -1.069245 -1.449401 -1.634920
v 1.073151 -1.501185 -1.605937
v -1.068526 -1.503624 -1.605937
v 1.073783 -1.548712 -1.566933
v -1.067894 -1.551151 -1.566933
v 1.074300 -1.587716 -1.519406
v -1.067377 -1.590155 -1.519406
v 1.074685 -1.616699 -1.465182
v -1.066992 -1.619138 -1.465182
v 1.074922 -1.634546 -1.406347
v -1.066756 -1.636985 -1.406347
v 1.075002 -1.640573 -1.345160
v -1.066675 -1.643011 -1.345160
v 1.074922 -1.634546 -1.283973
v -1.066756 -1.636985 -1.283973
v 1.074685 -1.616699 -1.225137
v -1.066992 -1.619138 -1.225137
v 1.074300 -1.587716 -1.170914
v -1.067377 -1.590155 -1.170914
v 1.073783 -1.548712 -1.123387
v -1.067894 -1.551151 -1.123387
v 1.073151 -1.501185 -1.084383
v -1.068526 -1.503624 -1.084383
v 1.072432 -1.446963 -1.055400
v -1.069245 -1.449401 -1.055400
v 1.071651 -1.388127 -1.037552
v -1.070026 -1.390566 -1.037552
v 0.000000 -1.328160 -1.322393
v -0.000059 -1.323719 -1.322830
v -0.000116 -1.319448 -1.324126
v -0.000168 -1.315512 -1.326230
v -0.000214 -1.312062 -1.329061
v -0.000251 -1.309230 -1.332511
v -0.000279 -1.307126 -1.336447
v -0.000296 -1.305831 -1.340718
v -0.000302 -1.305393 -1.345160
v -0.000296 -1.305831 -1.349602
v -0.000279 -1.307126 -1.353873
v -0.000251 -1.309230 -1.357809
v -0.000214 -1.312062 -1.361259
v -0.000168 -1.315512 -1.364090
v -0.000116 -1.319448 -1.366194
v -0.000059 -1.323719 -1.367490
v 0.000000 -1.328160 -1.367927
v 0.000059 -1.332602 -1.367490
v 0.000116 -1.336873 -1.366194
v 0.000168 -1.340809 -1.364090
v 0.000214 -1.344259 -1.361259
v 0.000251 -1.347091 -1.357809
v 0.000279 -1.349194 -1.353873
v 0.000296 -1.350490 -1.349602
v 0.000302 -1.350927 -1.345160
v 0.000296 -1.350490 -1.340718
v 0.000279 -1.349194 -1.336447
v 0.000251 -1.347091 -1.332511
v 0.000214 -1.344259 -1.329061
v 0.000168 -1.340809 -1.326230
v 0.000116 -1.336873 -1.324126
v 0.000059 -1.332602 -1.322830
v 0.000039 -1.331078 0.705178
v 0.000076 -1.333884 0.704327
v 0.000110 -1.336470 0.702945
v 0.000140 -1.338737 0.701084
v 0.000165 -1.340597 0.698818
v 0.000183 -1.341980 0.696232
v 0.000195 -1.342831 0.693426
v 0.000199 -1.343118 0.690508
v 0.000195 -1.342831 0.687589
v 0.000183 -1.341980 0.684783
v 0.000165 -1.340597 0.682197
v 0.000140 -1.338737 0.679931
v 0.000110 -1.336470 0.678070
v 0.000076 -1.333884 0.676688
v 0.000039 -1.331078 0.675837
v 0.000000 -1.328160 0.675549
v -0.000039 -1.325242 0.675837
v -0.000076 -1.322436 0.676688
v -0.000110 -1.319850 0.678070
v -0.000140 -1.317583 0.679931
v -0.000165 -1.315723 0.682197
v -0.000183 -1.314341 0.684783
v -0.000195 -1.313490 0.687589
v -0.000199 -1.313202 0.690508
v -0.000195 -1.313490 0.693426
v -0.000183 -1.314341 0.696232
v -0.000165 -1.315723 0.698818
v -0.000140 -1.317583 0.701084
v -0.000110 -1.319850 0.702945
v -0.000076 -1.322436 0.704327
v -0.000039 -1.325242 0.705178
v 0.000000 -1.328160 0.705466
vn -1.0000 -0.0000 -0.0000
vn -0.0000 -0.0811 -0.9967
vn 1.0000 -0.0000 -0.0000
vn -0.0000 -0.4297 0.9030
vn -0.0000 -1.0000 -0.0000
vn -0.0000 -0.0000 1.0000
vn -0.0000 1.0000 -0.0000
vn -0.0000 -0.0000 -1.0000
vn -0.0000 -0.9659 -0.2588
vn -0.0000 -0.7071 -0.7071
vn -0.0000 -0.2588 -0.9659
vn -0.0000 0.9659 -0.2588
vn -0.0000 0.7071 -0.7071
vn -0.0000 0.2588 -0.9659
vn -0.0000 -0.9659 0.2588
vn -0.0000 -0.7071 0.7071
vn -0.0000 -0.2588 0.9659
vn -0.0000 0.9659 0.2588
vn -0.0000 0.7071 0.7071
vn -0.0000 0.2588 0.9659
vn -0.9999 -0.0133 -0.0000
vn -0.2676 0.0909 -0.9592
vn -0.2680 0.2764 -0.9229
vn 0.9999 0.0133 -0.0000
vn -0.2684 0.4513 -0.8510
vn -0.2687 0.6089 -0.7463
vn -0.2690 0.7431 -0.6128
vn -0.2692 0.8486 -0.4555
vn -0.2693 0.9213 -0.2806
vn -0.2694 0.9584 -0.0947
vn -0.2694 0.9584 0.0947
vn -0.2693 0.9213 0.2806
vn -0.2692 0.8486 0.4555
vn -0.2690 0.7431 0.6128
vn -0.2687 0.6089 0.7463
vn -0.2684 0.4513 0.8510
vn -0.2680 0.2764 0.9229
vn -0.2676 0.0909 0.9592
vn -0.2673 -0.0980 0.9586
vn -0.2669 -0.2830 0.9212
vn -0.2665 -0.4571 0.8485
vn -0.2662 -0.6136 0.7434
vn -0.2660 -0.7466 0.6098
vn -0.2658 -0.8510 0.4530
vn -0.2656 -0.9229 0.2789
vn -0.2655 -0.9595 0.0942
vn -0.2655 -0.9595 -0.0942
vn -0.2656 -0.9229 -0.2789
vn -0.2658 -0.8510 -0.4530
vn -0.2660 -0.7466 -0.6098
vn -0.2662 -0.6136 -0.7434
vn -0.2665 -0.4571 -0.8485
vn -0.2669 -0.2830 -0.9212
vn -0.2673 -0.0980 -0.9586
vn -0.2608 -0.0981 -0.9604
vn -0.2604 -0.2834 -0.9230
vn -0.2601 -0.4579 -0.8501
vn -0.2597 -0.6147 -0.7448
vn -0.2595 -0.7479 -0.6110
vn -0.2593 -0.8525 -0.4538
vn -0.2591 -0.9245 -0.2794
vn -0.2591 -0.9612 -0.0943
vn -0.2591 -0.9612 0.0943
vn -0.2591 -0.9245 0.2794
vn -0.2593 -0.8525 0.4538
vn -0.2595 -0.7479 0.6110
vn -0.2597 -0.6147 0.7448
vn -0.2601 -0.4579 0.8501
vn -0.2604 -0.2834 0.9230
vn -0.2608 -0.0981 0.9604
vn -0.2611 0.0912 0.9610
vn -0.2615 0.2770 0.9246
vn -0.2618 0.4522 0.8526
vn -0.2622 0.6101 0.7477
vn -0.2624 0.7445 0.6139
vn -0.2626 0.8502 0.4563
vn -0.2628 0.9230 0.2811
vn -0.2628 0.9602 0.0949
vn -0.2628 0.9602 -0.0949
vn -0.2628 0.9230 -0.2811
vn -0.2626 0.8502 -0.4563
vn -0.2624 0.7445 -0.6139
vn -0.2622 0.6101 -0.7477
vn -0.2618 0.4522 -0.8526
vn -0.2615 0.2770 -0.9246
vn -0.2611 0.0912 -0.9610
vn 0.2608 0.0981 -0.9604
vn 0.2604 0.2834 -0.9230
vn 0.2601 0.4579 -0.8501
vn 0.2597 0.6147 -0.7448
vn 0.2595 0.7479 -0.6110
vn 0.2593 0.8525 -0.4538
vn 0.2591 0.9245 -0.2794
vn 0.2591 0.9612 -0.0943
vn 0.2591 0.9612 0.0943
vn 0.2591 0.9245 0.2794
vn 0.2593 0.8525 0.4538
vn 0.2595 0.7479 0.6110
vn 0.2597 0.6147 0.7448
vn 0.2601 0.4579 0.8501
vn 0.2604 0.2834 0.9230
vn 0.2608 0.0981 0.9604
vn 0.2611 -0.0912 0.9610
vn 0.2615 -0.2770 0.9246
vn 0.2618 -0.4522 0.8526
vn 0.2622 -0.6101 0.7477
vn 0.2624 -0.7445 0.6139
vn 0.2626 -0.8502 0.4563
vn 0.2628 -0.9230 0.2810
vn 0.2628 -0.9602 0.0949
vn 0.2628 -0.9602 -0.0949
vn 0.2628 -0.9230 -0.2810
vn 0.2626 -0.8502 -0.4563
vn 0.2624 -0.7445 -0.6139
vn 0.2622 -0.6101 -0.7477
vn 0.2618 -0.4522 -0.8526
vn 0.2615 -0.2770 -0.9246
vn 0.2611 -0.0912 -0.9610
vn 0.2676 -0.0909 -0.9592
vn 0.2680 -0.2764 -0.9229
vn 0.2684 -0.4513 -0.8510
vn 0.2687 -0.6089 -0.7463
vn 0.2690 -0.7431 -0.6128
vn 0.2692 -0.8486 -0.4555
vn 0.2693 -0.9213 -0.2806
vn 0.2694 -0.9584 -0.0947
vn 0.2694 -0.9584 0.0947
vn 0.2693 -0.9213 0.2806
vn 0.2692 -0.8486 0.4555
vn 0.2690 -0.7431 0.6128
vn 0.2687 -0.6089 0.7463
vn 0.2684 -0.4513 0.8510
vn 0.2680 -0.2764 0.9229
vn 0.2676 -0.0909 0.9592
vn 0.2673 0.0980 0.9586
vn 0.2669 0.2830 0.9212
vn 0.2665 0.4571 0.8485
vn 0.2662 0.6136 0.7434
vn 0.2660 0.7466 0.6098
vn 0.2658 0.8510 0.4530
vn 0.2656 0.9229 0.2789
vn 0.2655 0.9595 0.0942
vn 0.2655 0.9595 -0.0942
vn 0.2656 0.9229 -0.2789
vn 0.2658 0.8510 -0.4530
vn 0.2660 0.7466 -0.6098
vn 0.2662 0.6136 -0.7434
vn 0.2665 0.4571 -0.8485
vn 0.2669 0.2830 -0.9212
vn 0.2673 0.0980 -0.9586
vt 0.375000 0.000000
vt 0.625000 0.000000
vt 0.625000 0.250000
vt 0.375000 0.250000
vt 0.625000 0.500000
vt 0.375000 0.500000
vt 0.625000 0.750000
vt 0.375000 0.750000
vt 0.625000 1.000000
vt 0.375000 1.000000
vt 0.125000 0.500000
vt 0.125000 0.750000
vt 0.487082 0.750000
vt 0.512918 0.750000
vt 0.512918 1.000000
vt 0.487082 1.000000
vt 0.375000 0.619594
vt 0.390016 0.559797
vt 0.431041 0.516023
vt 0.487082 0.500000
vt 0.512918 0.500000
vt 0.568959 0.516023
vt 0.609984 0.559797
vt 0.625000 0.619594
vt 0.625000 0.630406
vt 0.609984 0.690203
vt 0.568959 0.733977
vt 0.487082 0.750000
vt 0.431041 0.733977
vt 0.390016 0.690203
vt 0.375000 0.630406
vt 0.875000 0.619594
vt 0.875000 0.630406
vt 0.375000 0.119594
vt 0.390016 0.059797
vt 0.431041 0.016023
vt 0.487082 0.000000
vt 0.512918 0.000000
vt 0.568959 0.016023
vt 0.609984 0.059797
vt 0.625000 0.119594
vt 0.625000 0.130406
vt 0.609984 0.190203
vt 0.568959 0.233977
vt 0.512918 0.250000
vt 0.487082 0.250000
vt 0.431041 0.233977
vt 0.390016 0.190203
vt 0.375000 0.130406
vt 0.487082 0.250000
vt 0.487082 0.500000
vt 0.125000 0.619594
vt 0.125000 0.559797
vt 0.375000 0.559797
vt 0.875000 0.500000
vt 0.568959 0.500000
vt 0.568959 0.250000
vt 0.125000 0.630406
vt 0.375000 0.690203
vt 0.125000 0.690203
vt 0.875000 0.750000
vt 0.568959 1.000000
vt 0.568959 0.750000
vt 0.750000 0.490000
vt 0.796822 0.485388
vt 0.841844 0.471731
vt 0.883337 0.449553
vt 0.919706 0.419706
vt 0.949553 0.383337
vt 0.971731 0.341844
vt 0.985388 0.296822
vt 0.990000 0.250000
vt 0.985388 0.203178
vt 0.971731 0.158156
vt 0.949553 0.116663
vt 0.919706 0.080294
vt 0.883337 0.050447
vt 0.841844 0.028269
vt 0.796822 0.014612
vt 0.750000 0.010000
vt 0.703178 0.014612
vt 0.658156 0.028269
vt 0.616663 0.050447
vt 0.580294 0.080294
vt 0.550447 0.116663
vt 0.528269 0.158156
vt 0.514612 0.203178
vt 0.510000 0.250000
vt 0.514612 0.296822
vt 0.528269 0.341844
vt 0.550447 0.383337
vt 0.580294 0.419706
vt 0.616663 0.449553
vt 0.658156 0.471731
vt 0.703178 0.485388
vt 0.031250 0.750000
vt 0.031250 1.000000
vt 0.000000 1.000000
vt 0.000000 0.750000
vt 0.062500 0.750000
vt 0.062500 1.000000
vt 0.296822 0.485388
vt 0.250000 0.490000
vt 0.203178 0.485388
vt 0.158156 0.471731
vt 0.116663 0.449553
vt 0.080294 0.419706
vt 0.050447 0.383337
vt 0.028269 0.341844
vt 0.014612 0.296822
vt 0.010000 0.250000
vt 0.014612 0.203178
vt 0.028269 0.158156
vt 0.050447 0.116663
vt 0.080294 0.080294
vt 0.116663 0.050447
vt 0.158156 0.028269
vt 0.203178 0.014612
vt 0.250000 0.010000
vt 0.296822 0.014612
vt 0.341844 0.028269
vt 0.383337 0.050447
vt 0.419706 0.080294
vt 0.449553 0.116663
vt 0.471731 0.158156
vt 0.485388 0.203178
vt 0.490000 0.250000
vt 0.485388 0.296822
vt 0.471731 0.341844
vt 0.449553 0.383337
vt 0.419706 0.419706
vt 0.383337 0.449553
vt 0.341844 0.471731
vt 0.093750 0.750000
vt 0.093750 1.000000
vt 0.125000 0.750000
vt 0.125000 1.000000
vt 0.156250 0.750000
vt 0.156250 1.000000
vt 0.187500 0.750000
vt 0.187500 1.000000
vt 0.218750 0.750000
vt 0.218750 1.000000
vt 0.250000 0.750000
vt 0.250000 1.000000
vt 0.281250 0.750000
vt 0.281250 1.000000
vt 0.312500 0.750000
vt 0.312500 1.000000
vt 0.343750 0.750000
vt 0.343750 1.000000
vt 0.375000 0.750000
vt 0.406250 0.750000
vt 0.406250 1.000000
vt 0.437500 0.750000
vt 0.437500 1.000000
vt 0.468750 0.750000
vt 0.468750 1.000000
vt 0.500000 0.750000
vt 0.500000 1.000000
vt 0.531250 0.750000
vt 0.531250 1.000000
vt 0.562500 0.750000
vt 0.562500 1.000000
vt 0.593750 0.750000
vt 0.593750 1.000000
vt 0.656250 0.750000
vt 0.656250 1.000000
vt 0.687500 0.750000
vt 0.687500 1.000000
vt 0.718750 0.750000
vt 0.718750 1.000000
vt 0.750000 0.750000
vt 0.750000 1.000000
vt 0.781250 0.750000
vt 0.781250 1.000000
vt 0.812500 0.750000
vt 0.812500 1.000000
vt 0.843750 0.750000
vt 0.843750 1.000000
vt 0.875000 0.750000
vt 0.875000 1.000000
vt 0.906250 0.750000
vt 0.906250 1.000000
vt 0.937500 0.750000
vt 0.937500 1.000000
vt 0.968750 0.750000
vt 0.968750 1.000000
vt 1.000000 0.750000
vt 1.000000 1.000000
vt 0.968750 0.750000
vt 0.937500 0.750000
vt 0.906250 0.750000
vt 0.875000 0.750000
vt 0.843750 0.750000
vt 0.812500 0.750000
vt 0.781250 0.750000
vt 0.656250 0.750000
vt 0.625000 0.750000
vt 0.593750 0.750000
vt 0.500000 0.750000
vt 0.468750 0.750000
vt 0.406250 0.750000
vt 0.375000 0.750000
vt 0.343750 0.750000
vt 0.312500 0.750000
vt 0.281250 0.750000
vt 0.187500 0.750000
vt 0.156250 0.750000
vt 0.093750 0.750000
vt 0.062500 0.750000
vt 0.031250 0.500000
vt 0.000000 0.500000
vt 0.062500 0.500000
vt 0.093750 0.500000
vt 0.156250 0.500000
vt 0.187500 0.500000
vt 0.218750 0.500000
vt 0.250000 0.500000
vt 0.281250 0.500000
vt 0.312500 0.500000
vt 0.343750 0.500000
vt 0.406250 0.500000
vt 0.437500 0.500000
vt 0.468750 0.500000
vt 0.500000 0.500000
vt 0.531250 0.500000
vt 0.562500 0.500000
vt 0.593750 0.500000
vt 0.656250 0.500000
vt 0.687500 0.500000
vt 0.718750 0.500000
vt 0.750000 0.500000
vt 0.781250 0.500000
vt 0.812500 0.500000
vt 0.843750 0.500000
vt 0.906250 0.500000
vt 0.937500 0.500000
vt 0.968750 0.500000
vt 1.000000 0.500000
s 0
f 1/1/1 2/2/1 4/3/1 3/4/1
f 3/4/2 4/3/2 8/5/2 7/6/2
f 7/6/3 8/5/3 6/7/3 5/8/3
f 5/8/4 6/7/4 2/9/4 1/10/4
f 3/11/5 7/6/5 5/8/5 1/12/5
f 25/13/6 30/14/6 13/15/6 10/16/6
f 33/17/3 35/18/3 36/19/3 34/20/3 37/21/3 39/22/3 40/23/3 38/24/3 29/25/3 31/26/3 32/27/3 30/14/3 25/28/3 27/29/3 28/30/3 26/31/3
f 38/24/7 21/32/7 14/33/7 29/25/7
f 9/34/1 11/35/1 12/36/1 10/37/1 13/38/1 15/39/1 16/40/1 14/41/1 21/42/1 23/43/1 24/44/1 22/45/1 17/46/1 19/47/1 20/48/1 18/49/1
f 17/50/8 22/45/8 37/21/8 34/51/8
f 33/17/9 18/52/9 20/53/9 35/54/9
f 35/54/10 20/53/10 19/11/10 36/6/10
f 36/6/11 19/4/11 17/50/11 34/51/11
f 21/32/12 38/24/12 40/5/12 23/55/12
f 23/3/13 40/5/13 39/56/13 24/57/13
f 24/57/14 39/56/14 37/21/14 22/45/14
f 9/58/15 26/31/15 28/59/15 11/60/15
f 11/60/16 28/59/16 27/8/16 12/12/16
f 12/10/17 27/8/17 25/13/17 10/16/17
f 29/25/18 14/33/18 16/61/18 31/7/18
f 31/7/19 16/9/19 15/62/19 32/63/19
f 32/63/20 15/62/20 13/15/20 30/14/20
f 18/52/5 33/17/5 26/31/5 9/58/5
f 104/64/21 103/65/21 100/66/21 98/67/21 96/68/21 94/69/21 92/70/21 90/71/21 88/72/21 86/73/21 84/74/21 82/75/21 80/76/21 78/77/21 76/78/21 74/79/21 72/80/21 70/81/21 68/82/21 66/83/21 64/84/21 62/85/21 60/86/21 58/87/21 56/88/21 54/89/21 52/90/21 50/91/21 48/92/21 46/93/21 44/94/21 42/95/21
f 201/96/22 41/97/22 101/98/22 232/99/22
f 202/100/23 43/101/23 41/97/23 201/96/23
f 102/102/24 101/103/24 41/104/24 43/105/24 45/106/24 47/107/24 49/108/24 51/109/24 53/110/24 55/111/24 57/112/24 59/113/24 61/114/24 63/115/24 65/116/24 67/117/24 69/118/24 71/119/24 73/120/24 75/121/24 77/122/24 79/123/24 81/124/24 83/125/24 85/126/24 87/127/24 89/128/24 91/129/24 93/130/24 95/131/24 97/132/24 99/133/24
f 203/134/25 45/135/25 43/101/25 202/100/25
f 204/136/26 47/137/26 45/135/26 203/134/26
f 205/138/27 49/139/27 47/137/27 204/136/27
f 206/140/28 51/141/28 49/139/28 205/138/28
f 207/142/29 53/143/29 51/141/29 206/140/29
f 208/144/30 55/145/30 53/143/30 207/142/30
f 209/146/31 57/147/31 55/145/31 208/144/31
f 210/148/32 59/149/32 57/147/32 209/146/32
f 211/150/33 61/151/33 59/149/33 210/148/33
f 212/152/34 63/10/34 61/151/34 211/150/34
f 213/153/35 65/154/35 63/10/35 212/152/35
f 214/155/36 67/156/36 65/154/36 213/153/36
f 215/157/37 69/158/37 67/156/37 214/155/37
f 216/159/38 71/160/38 69/158/38 215/157/38
f 217/161/39 73/162/39 71/160/39 216/159/39
f 218/163/40 75/164/40 73/162/40 217/161/40
f 219/165/41 77/166/41 75/164/41 218/163/41
f 220/7/42 79/9/42 77/166/42 219/165/42
f 221/167/43 81/168/43 79/9/43 220/7/43
f 222/169/44 83/170/44 81/168/44 221/167/44
f 223/171/45 85/172/45 83/170/45 222/169/45
f 224/173/46 87/174/46 85/172/46 223/171/46
f 225/175/47 89/176/47 87/174/47 224/173/47
f 226/177/48 91/178/48 89/176/48 225/175/48
f 227/179/49 93/180/49 91/178/49 226/177/49
f 228/181/50 95/182/50 93/180/50 227/179/50
f 229/183/51 97/184/51 95/182/51 228/181/51
f 230/185/52 99/186/52 97/184/52 229/183/52
f 231/187/53 102/188/53 99/186/53 230/185/53
f 232/189/54 101/190/54 102/188/54 231/187/54
f 169/189/55 108/190/55 107/188/55 170/191/55
f 170/191/56 107/188/56 110/186/56 171/192/56
f 171/192/57 110/186/57 112/184/57 172/193/57
f 172/193/58 112/184/58 114/182/58 173/194/58
f 173/194/59 114/182/59 116/180/59 174/195/59
f 174/195/60 116/180/60 118/178/60 175/196/60
f 175/196/61 118/178/61 120/176/61 176/197/61
f 176/197/62 120/176/62 122/174/62 177/173/62
f 177/173/63 122/174/63 124/172/63 178/171/63
f 178/171/64 124/172/64 126/170/64 179/169/64
f 179/169/65 126/170/65 128/168/65 180/198/65
f 180/198/66 128/168/66 130/9/66 181/199/66
f 181/199/67 130/9/67 132/166/67 182/200/67
f 182/200/68 132/166/68 134/164/68 183/163/68
f 183/163/69 134/164/69 136/162/69 184/161/69
f 184/161/70 136/162/70 138/160/70 185/201/70
f 185/201/71 138/160/71 140/158/71 186/202/71
f 186/202/72 140/158/72 142/156/72 187/155/72
f 187/155/73 142/156/73 144/154/73 188/203/73
f 188/203/74 144/154/74 146/10/74 189/204/74
f 189/204/75 146/10/75 148/151/75 190/205/75
f 190/205/76 148/151/76 150/149/76 191/206/76
f 191/206/77 150/149/77 152/147/77 192/207/77
f 192/207/78 152/147/78 154/145/78 193/144/78
f 193/144/79 154/145/79 156/143/79 194/142/79
f 194/142/80 156/143/80 158/141/80 195/208/80
f 195/208/81 158/141/81 160/139/81 196/209/81
f 196/209/82 160/139/82 162/137/82 197/12/82
f 197/12/83 162/137/83 164/135/83 198/210/83
f 198/210/84 164/135/84 166/101/84 199/211/84
f 107/102/24 108/103/24 168/104/24 166/105/24 164/106/24 162/107/24 160/108/24 158/109/24 156/110/24 154/111/24 152/112/24 150/113/24 148/114/24 146/115/24 144/116/24 142/117/24 140/118/24 138/119/24 136/120/24 134/121/24 132/122/24 130/123/24 128/124/24 126/125/24 124/126/24 122/127/24 120/128/24 118/129/24 116/130/24 114/131/24 112/132/24 110/133/24
f 199/211/85 166/101/85 168/97/85 200/96/85
f 200/96/86 168/97/86 108/98/86 169/99/86
f 105/64/21 106/65/21 109/66/21 111/67/21 113/68/21 115/69/21 117/70/21 119/71/21 121/72/21 123/73/21 125/74/21 127/75/21 129/76/21 131/77/21 133/78/21 135/79/21 137/80/21 139/81/21 141/82/21 143/83/21 145/84/21 147/85/21 149/86/21 151/87/21 153/88/21 155/89/21 157/90/21 159/91/21 161/92/21 163/93/21 165/94/21 167/95/21
f 167/212/87 200/96/87 169/99/87 105/213/87
f 165/214/88 199/211/88 200/96/88 167/212/88
f 163/215/89 198/210/89 199/211/89 165/214/89
f 161/11/90 197/12/90 198/210/90 163/215/90
f 159/216/91 196/209/91 197/12/91 161/11/91
f 157/217/92 195/208/92 196/209/92 159/216/92
f 155/218/93 194/142/93 195/208/93 157/217/93
f 153/219/94 193/144/94 194/142/94 155/218/94
f 151/220/95 192/207/95 193/144/95 153/219/95
f 149/221/96 191/206/96 192/207/96 151/220/96
f 147/222/97 190/205/97 191/206/97 149/221/97
f 145/6/98 189/204/98 190/205/98 147/222/98
f 143/223/99 188/203/99 189/204/99 145/6/99
f 141/224/100 187/155/100 188/203/100 143/223/100
f 139/225/101 186/202/101 187/155/101 141/224/101
f 137/226/102 185/201/102 186/202/102 139/225/102
f 135/227/103 184/161/103 185/201/103 137/226/103
f 133/228/104 183/163/104 184/161/104 135/227/104
f 131/229/105 182/200/105 183/163/105 133/228/105
f 129/5/106 181/199/106 182/200/106 131/229/106
f 127/230/107 180/198/107 181/199/107 129/5/107
f 125/231/108 179/169/108 180/198/108 127/230/108
f 123/232/109 178/171/109 179/169/109 125/231/109
f 121/233/110 177/173/110 178/171/110 123/232/110
f 119/234/111 176/197/111 177/173/111 121/233/111
f 117/235/112 175/196/112 176/197/112 119/234/112
f 115/236/113 174/195/113 175/196/113 117/235/113
f 113/55/114 173/194/114 174/195/114 115/236/114
f 111/237/115 172/193/115 173/194/115 113/55/115
f 109/238/116 171/192/116 172/193/116 111/237/116
f 106/239/117 170/191/117 171/192/117 109/238/117
f 105/240/118 169/189/118 170/191/118 106/239/118
f 104/240/119 232/189/119 231/187/119 103/239/119
f 103/239/120 231/187/120 230/185/120 100/238/120
f 100/238/121 230/185/121 229/183/121 98/237/121
f 98/237/122 229/183/122 228/181/122 96/55/122
f 96/55/123 228/181/123 227/179/123 94/236/123
f 94/236/124 227/179/124 226/177/124 92/235/124
f 92/235/125 226/177/125 225/175/125 90/234/125
f 90/234/126 225/175/126 224/173/126 88/233/126
f 88/233/127 224/173/127 223/171/127 86/232/127
f 86/232/128 223/171/128 222/169/128 84/231/128
f 84/231/129 222/169/129 221/167/129 82/230/129
f 82/230/130 221/167/130 220/7/130 80/5/130
f 80/5/131 220/7/131 219/165/131 78/229/131
f 78/229/132 219/165/132 218/163/132 76/228/132
f 76/228/133 218/163/133 217/161/133 74/227/133
f 74/227/134 217/161/134 216/159/134 72/226/134
f 72/226/135 216/159/135 215/157/135 70/225/135
f 70/225/136 215/157/136 214/155/136 68/224/136
f 68/224/137 214/155/137 213/153/137 66/223/137
f 66/223/138 213/153/138 212/152/138 64/6/138
f 64/6/139 212/152/139 211/150/139 62/222/139
f 62/222/140 211/150/140 210/148/140 60/221/140
f 60/221/141 210/148/141 209/146/141 58/220/141
f 58/220/142 209/146/142 208/144/142 56/219/142
f 56/219/143 208/144/143 207/142/143 54/218/143
f 54/218/144 207/142/144 206/140/144 52/217/144
f 52/217/145 206/140/145 205/138/145 50/216/145
f 50/216/146 205/138/146 204/136/146 48/11/146
f 48/11/147 204/136/147 203/134/147 46/215/147
f 46/215/148 203/134/148 202/100/148 44/214/148
f 44/214/149 202/100/149 201/96/149 42/212/149
f 42/212/150 201/96/150 232/99/150 104/213/150
