# Blender 4.2.1 LTS
# www.blender.org
mtllib cajaJugo.mtl
o Cubo
v -1.000000 -2.253242 1.000000
v -1.000000 2.253242 1.000000
v -1.000000 -2.253242 -1.000000
v -1.000000 2.253242 -1.000000
v 1.000000 -2.253242 1.000000
v 1.000000 2.253242 1.000000
v 1.000000 -2.253242 -1.000000
v 1.000000 2.253242 -1.000000
v -1.000000 -2.253242 0.000000
v -1.000000 3.120011 0.000000
v 1.000000 -2.253242 0.000000
v 1.000000 3.120011 0.000000
vn -1.0000 -0.0000 -0.0000
vn -0.0000 -0.0000 -1.0000
vn 1.0000 -0.0000 -0.0000
vn -0.0000 -0.0000 1.0000
vn -0.0000 -1.0000 -0.0000
vn -0.0000 0.7557 0.6550
vn -0.0000 0.7557 -0.6550
vt 0.375000 0.125000
vt 0.625000 0.125000
vt 0.625000 0.250000
vt 0.375000 0.250000
vt 0.625000 0.500000
vt 0.375000 0.500000
vt 0.375000 0.625000
vt 0.625000 0.625000
vt 0.625000 0.750000
vt 0.375000 0.750000
vt 0.625000 1.000000
vt 0.375000 1.000000
vt 0.125000 0.625000
vt 0.125000 0.750000
vt 0.875000 0.625000
vt 0.875000 0.750000
vt 0.875000 0.500000
vt 0.125000 0.500000
vt 0.375000 0.000000
vt 0.625000 0.000000
s 0
f 9/1/1 10/2/1 4/3/1 3/4/1
f 3/4/2 4/3/2 8/5/2 7/6/2
f 11/7/3 12/8/3 6/9/3 5/10/3
f 5/10/4 6/9/4 2/11/4 1/12/4
f 9/13/5 11/7/5 5/10/5 1/14/5
f 12/8/6 10/15/6 2/16/6 6/9/6
f 8/5/7 4/17/7 10/15/7 12/8/7
f 3/18/5 7/6/5 11/7/5 9/13/5
f 7/6/3 8/5/3 12/8/3 11/7/3
f 1/19/1 2/20/1 10/2/1 9/1/1
o Plano
v -1.000000 3.103582 -0.000000
v 1.000000 3.103582 -0.000000
v -1.000000 3.423823 0.000000
v 1.000000 3.423823 0.000000
vn -0.0000 -0.0000 1.0000
vt 0.000000 0.000000
vt 1.000000 0.000000
vt 1.000000 1.000000
vt 0.000000 1.000000
s 0
f 13/21/8 14/22/8 16/23/8 15/24/8
o Cilindro
v 0.000000 2.603829 0.692385
v 0.000000 2.263571 0.352126
v -0.046939 2.607098 0.689116
v -0.046939 2.266840 0.348857
v -0.092073 2.616780 0.679434
v -0.092073 2.276521 0.339176
v -0.133670 2.632501 0.663713
v -0.133670 2.292243 0.323454
v -0.170129 2.653659 0.642555
v -0.170129 2.313401 0.302297
v -0.200051 2.679440 0.616774
v -0.200051 2.339182 0.276516
v -0.222284 2.708853 0.587361
v -0.222284 2.368595 0.247103
v -0.235976 2.740768 0.555446
v -0.235976 2.400510 0.215188
v -0.240599 2.773958 0.522256
v -0.240599 2.433700 0.181997
v -0.235976 2.807149 0.489065
v -0.235976 2.466891 0.148807
v -0.222284 2.839064 0.457150
v -0.222284 2.498806 0.116892
v -0.200051 2.868477 0.427737
v -0.200051 2.528219 0.087479
v -0.170129 2.894258 0.401956
v -0.170129 2.554000 0.061698
v -0.133670 2.915416 0.380798
v -0.133670 2.575157 0.040540
v -0.092073 2.931137 0.365077
v -0.092073 2.590879 0.024818
v -0.046939 2.940819 0.355395
v -0.046939 2.600560 0.015137
v 0.000000 2.944088 0.352126
v 0.000000 2.603829 0.011868
v 0.046939 2.940819 0.355395
v 0.046939 2.600560 0.015137
v 0.092073 2.931137 0.365077
v 0.092073 2.590879 0.024818
v 0.133670 2.915416 0.380798
v 0.133670 2.575157 0.040540
v 0.170129 2.894258 0.401956
v 0.170129 2.554000 0.061698
v 0.200051 2.868477 0.427737
v 0.200051 2.528219 0.087479
v 0.222284 2.839064 0.457150
v 0.222284 2.498806 0.116892
v 0.235976 2.807149 0.489065
v 0.235976 2.466891 0.148807
v 0.240599 2.773958 0.522256
v 0.240599 2.433700 0.181997
v 0.235976 2.740768 0.555446
v 0.235976 2.400510 0.215188
v 0.222284 2.708853 0.587361
v 0.222284 2.368595 0.247103
v 0.200051 2.679440 0.616774
v 0.200051 2.339182 0.276516
v 0.170129 2.653659 0.642555
v 0.170129 2.313401 0.302297
v 0.133670 2.632501 0.663713
v 0.133670 2.292243 0.323454
v 0.092073 2.616780 0.679434
v 0.092073 2.276521 0.339176
v 0.046939 2.607098 0.689116
v 0.046939 2.266840 0.348857
v 0.000000 2.561765 0.734449
v -0.058544 2.565842 0.730372
v -0.114838 2.577917 0.718297
v -0.166719 2.597526 0.698688
v -0.212194 2.623915 0.672299
v -0.249513 2.656070 0.640144
v -0.277244 2.692755 0.603459
v -0.294321 2.732562 0.563653
v -0.300087 2.773958 0.522256
v -0.294321 2.815355 0.480859
v -0.277244 2.855161 0.441053
v -0.249513 2.891847 0.404367
v -0.212194 2.924002 0.372212
v -0.166719 2.950391 0.345823
v -0.114838 2.970000 0.326214
v -0.058544 2.982075 0.314139
v 0.000000 2.986152 0.310062
v 0.058544 2.982075 0.314139
v 0.114838 2.970000 0.326214
v 0.166719 2.950391 0.345823
v 0.212194 2.924002 0.372212
v 0.249513 2.891847 0.404367
v 0.277244 2.855161 0.441053
v 0.294321 2.815355 0.480859
v 0.300087 2.773958 0.522256
v 0.294321 2.732562 0.563653
v 0.277244 2.692755 0.603459
v 0.249513 2.656070 0.640144
v 0.212194 2.623915 0.672299
v 0.166719 2.597526 0.698688
v 0.114838 2.577917 0.718297
v 0.058544 2.565842 0.730372
v 0.000000 2.648160 0.820844
v -0.058544 2.652237 0.816767
v -0.114838 2.664312 0.804692
v -0.166719 2.683921 0.785083
v -0.212194 2.710310 0.758694
v -0.249513 2.742465 0.726539
v -0.277244 2.779150 0.689853
v -0.294321 2.818956 0.650047
v -0.300087 2.860353 0.608650
v -0.294321 2.901750 0.567253
v -0.277244 2.941556 0.527447
v -0.249513 2.978242 0.490762
v -0.212194 3.010397 0.458607
v -0.166719 3.036786 0.432218
v -0.114838 3.056395 0.412609
v -0.058544 3.068470 0.400534
v 0.000000 3.072547 0.396457
v 0.058544 3.068470 0.400534
v 0.114838 3.056395 0.412609
v 0.166719 3.036786 0.432218
v 0.212194 3.010397 0.458607
v 0.249513 2.978242 0.490762
v 0.277244 2.941556 0.527447
v 0.294321 2.901750 0.567253
v 0.300087 2.860353 0.608650
v 0.294321 2.818956 0.650047
v 0.277244 2.779150 0.689853
v 0.249513 2.742465 0.726539
v 0.212194 2.710310 0.758694
v 0.166719 2.683921 0.785083
v 0.114838 2.664312 0.804692
v 0.058544 2.652237 0.816767
vn -0.0980 -0.7037 0.7037
vn -0.2903 -0.6767 0.6767
vn -0.4714 -0.6236 0.6236
vn -0.6344 -0.5466 0.5466
vn -0.7730 -0.4486 0.4486
vn -0.8819 -0.3333 0.3333
vn -0.9569 -0.2053 0.2053
vn -0.9952 -0.0693 0.0693
vn -0.9952 0.0693 -0.0693
vn -0.9569 0.2053 -0.2053
vn -0.8819 0.3333 -0.3333
vn -0.7730 0.4486 -0.4486
vn -0.6344 0.5466 -0.5466
vn -0.4714 0.6236 -0.6236
vn -0.2903 0.6767 -0.6767
vn -0.0980 0.7037 -0.7037
vn 0.0980 0.7037 -0.7037
vn 0.2903 0.6767 -0.6767
vn 0.4714 0.6236 -0.6236
vn 0.6344 0.5466 -0.5466
vn 0.7730 0.4486 -0.4486
vn 0.8819 0.3333 -0.3333
vn 0.9569 0.2053 -0.2053
vn 0.9952 0.0693 -0.0693
vn 0.9952 -0.0693 0.0693
vn 0.9569 -0.2053 0.2053
vn 0.8819 -0.3333 0.3333
vn 0.7730 -0.4486 0.4486
vn 0.6344 -0.5466 0.5466
vn 0.4714 -0.6236 0.6236
vn -0.0000 -0.7071 -0.7071
vn 0.2903 -0.6767 0.6767
vn 0.0980 -0.7037 0.7037
vn -0.0000 0.7071 0.7071
vt 1.000000 0.500000
vt 1.000000 1.000000
vt 0.968750 1.000000
vt 0.968750 0.500000
vt 0.937500 1.000000
vt 0.937500 0.500000
vt 0.906250 1.000000
vt 0.906250 0.500000
vt 0.875000 1.000000
vt 0.875000 0.500000
vt 0.843750 1.000000
vt 0.843750 0.500000
vt 0.812500 1.000000
vt 0.812500 0.500000
vt 0.781250 1.000000
vt 0.781250 0.500000
vt 0.750000 1.000000
vt 0.750000 0.500000
vt 0.718750 1.000000
vt 0.718750 0.500000
vt 0.687500 1.000000
vt 0.687500 0.500000
vt 0.656250 1.000000
vt 0.656250 0.500000
vt 0.625000 1.000000
vt 0.625000 0.500000
vt 0.593750 1.000000
vt 0.593750 0.500000
vt 0.562500 1.000000
vt 0.562500 0.500000
vt 0.531250 1.000000
vt 0.531250 0.500000
vt 0.500000 1.000000
vt 0.500000 0.500000
vt 0.468750 1.000000
vt 0.468750 0.500000
vt 0.437500 1.000000
vt 0.437500 0.500000
vt 0.406250 1.000000
vt 0.406250 0.500000
vt 0.375000 1.000000
vt 0.375000 0.500000
vt 0.343750 1.000000
vt 0.343750 0.500000
vt 0.312500 1.000000
vt 0.312500 0.500000
vt 0.281250 1.000000
vt 0.281250 0.500000
vt 0.250000 1.000000
vt 0.250000 0.500000
vt 0.218750 1.000000
vt 0.218750 0.500000
vt 0.187500 1.000000
vt 0.187500 0.500000
vt 0.156250 1.000000
vt 0.156250 0.500000
vt 0.125000 1.000000
vt 0.125000 0.500000
vt 0.093750 1.000000
vt 0.093750 0.500000
vt 0.062500 1.000000
vt 0.062500 0.500000
vt 0.296822 0.485388
vt 0.250000 0.490000
vt 0.203178 0.485388
vt 0.158156 0.471731
vt 0.116663 0.449553
vt 0.080294 0.419706
vt 0.050447 0.383337
vt 0.028269 0.341844
vt 0.014612 0.296822
vt 0.010000 0.250000
vt 0.014612 0.203178
vt 0.028269 0.158156
vt 0.050447 0.116663
vt 0.080294 0.080294
vt 0.116663 0.050447
vt 0.158156 0.028269
vt 0.203178 0.014612
vt 0.250000 0.010000
vt 0.296822 0.014612
vt 0.341844 0.028269
vt 0.383337 0.050447
vt 0.419706 0.080294
vt 0.449553 0.116663
vt 0.471731 0.158156
vt 0.485388 0.203178
vt 0.490000 0.250000
vt 0.485388 0.296822
vt 0.471731 0.341844
vt 0.449553 0.383337
vt 0.419706 0.419706
vt 0.383337 0.449553
vt 0.341844 0.471731
vt 0.031250 1.000000
vt 0.031250 0.500000
vt 0.000000 1.000000
vt 0.000000 0.500000
vt 0.750000 0.490000
vt 0.796822 0.485388
vt 0.841844 0.471731
vt 0.883337 0.449553
vt 0.919706 0.419706
vt 0.949553 0.383337
vt 0.971731 0.341844
vt 0.985388 0.296822
vt 0.990000 0.250000
vt 0.985388 0.203178
vt 0.971731 0.158156
vt 0.949553 0.116663
vt 0.919706 0.080294
vt 0.883337 0.050447
vt 0.841844 0.028269
vt 0.796822 0.014612
vt 0.750000 0.010000
vt 0.703178 0.014612
vt 0.658156 0.028269
vt 0.616663 0.050447
vt 0.580294 0.080294
vt 0.550447 0.116663
vt 0.528269 0.158156
vt 0.514612 0.203178
vt 0.510000 0.250000
vt 0.514612 0.296822
vt 0.528269 0.341844
vt 0.550447 0.383337
vt 0.580294 0.419706
vt 0.616663 0.449553
vt 0.658156 0.471731
vt 0.703178 0.485388
s 0
f 17/25/9 19/28/9 20/27/9 18/26/9
f 19/28/10 21/30/10 22/29/10 20/27/10
f 21/30/11 23/32/11 24/31/11 22/29/11
f 23/32/12 25/34/12 26/33/12 24/31/12
f 25/34/13 27/36/13 28/35/13 26/33/13
f 27/36/14 29/38/14 30/37/14 28/35/14
f 29/38/15 31/40/15 32/39/15 30/37/15
f 31/40/16 33/42/16 34/41/16 32/39/16
f 33/42/17 35/44/17 36/43/17 34/41/17
f 35/44/18 37/46/18 38/45/18 36/43/18
f 37/46/19 39/48/19 40/47/19 38/45/19
f 39/48/20 41/50/20 42/49/20 40/47/20
f 41/50/21 43/52/21 44/51/21 42/49/21
f 43/52/22 45/54/22 46/53/22 44/51/22
f 45/54/23 47/56/23 48/55/23 46/53/23
f 47/56/24 49/58/24 50/57/24 48/55/24
f 49/58/25 51/60/25 52/59/25 50/57/25
f 51/60/26 53/62/26 54/61/26 52/59/26
f 53/62/27 55/64/27 56/63/27 54/61/27
f 55/64/28 57/66/28 58/65/28 56/63/28
f 57/66/29 59/68/29 60/67/29 58/65/29
f 59/68/30 61/70/30 62/69/30 60/67/30
f 61/70/31 63/72/31 64/71/31 62/69/31
f 63/72/32 65/74/32 66/73/32 64/71/32
f 65/74/33 67/76/33 68/75/33 66/73/33
f 67/76/34 69/78/34 70/77/34 68/75/34
f 69/78/35 71/80/35 72/79/35 70/77/35
f 71/80/36 73/82/36 74/81/36 72/79/36
f 73/82/37 75/84/37 76/83/37 74/81/37
f 75/84/38 77/86/38 78/85/38 76/83/38
f 20/87/39 22/118/39 24/117/39 26/116/39 28/115/39 30/114/39 32/113/39 34/112/39 36/111/39 38/110/39 40/109/39 42/108/39 44/107/39 46/106/39 48/105/39 50/104/39 52/103/39 54/102/39 56/101/39 58/100/39 60/99/39 62/98/39 64/97/39 66/96/39 68/95/39 70/94/39 72/93/39 74/92/39 76/91/39 78/90/39 80/89/39 18/88/39
f 77/86/40 79/120/40 80/119/40 78/85/40
f 79/120/41 17/122/41 18/121/41 80/119/41
f 21/30/39 83/30/39 84/32/39 23/32/39
f 86/36/14 118/36/14 119/38/14 87/38/14
f 39/48/39 92/48/39 93/50/39 41/50/39
f 57/66/39 101/66/39 102/68/39 59/68/39
f 75/84/39 110/84/39 111/86/39 77/86/39
f 31/40/39 88/40/39 89/42/39 33/42/39
f 49/58/39 97/58/39 98/60/39 51/60/39
f 67/76/39 106/76/39 107/78/39 69/78/39
f 23/32/39 84/32/39 85/34/39 25/34/39
f 41/50/39 93/50/39 94/52/39 43/52/39
f 59/68/39 102/68/39 103/70/39 61/70/39
f 77/86/39 111/86/39 112/120/39 79/120/39
f 33/42/39 89/42/39 90/44/39 35/44/39
f 51/60/39 98/60/39 99/62/39 53/62/39
f 69/78/39 107/78/39 108/80/39 71/80/39
f 25/34/39 85/34/39 86/36/39 27/36/39
f 43/52/39 94/52/39 95/54/39 45/54/39
f 61/70/39 103/70/39 104/72/39 63/72/39
f 17/25/39 81/25/39 82/28/39 19/28/39
f 79/120/39 112/120/39 81/122/39 17/122/39
f 35/44/39 90/44/39 91/46/39 37/46/39
f 53/62/39 99/62/39 100/64/39 55/64/39
f 71/80/39 108/80/39 109/82/39 73/82/39
f 27/36/39 86/36/39 87/38/39 29/38/39
f 45/54/39 95/54/39 96/56/39 47/56/39
f 63/72/39 104/72/39 105/74/39 65/74/39
f 19/28/39 82/28/39 83/30/39 21/30/39
f 37/46/39 91/46/39 92/48/39 39/48/39
f 55/64/39 100/64/39 101/66/39 57/66/39
f 73/82/39 109/82/39 110/84/39 75/84/39
f 29/38/39 87/38/39 88/40/39 31/40/39
f 47/56/39 96/56/39 97/58/39 49/58/39
f 65/74/39 105/74/39 106/76/39 67/76/39
f 113/123/42 144/154/42 143/153/42 142/152/42 141/151/42 140/150/42 139/149/42 138/148/42 137/147/42 136/146/42 135/145/42 134/144/42 133/143/42 132/142/42 131/141/42 130/140/42 129/139/42 128/138/42 127/137/42 126/136/42 125/135/42 124/134/42 123/133/42 122/132/42 121/131/42 120/130/42 119/129/42 118/128/42 117/127/42 116/126/42 115/125/42 114/124/42
f 100/64/28 132/64/28 133/66/28 101/66/28
f 87/38/15 119/38/15 120/40/15 88/40/15
f 101/66/29 133/66/29 134/68/29 102/68/29
f 88/40/16 120/40/16 121/42/16 89/42/16
f 102/68/30 134/68/30 135/70/30 103/70/30
f 89/42/17 121/42/17 122/44/17 90/44/17
f 103/70/31 135/70/31 136/72/31 104/72/31
f 90/44/18 122/44/18 123/46/18 91/46/18
f 104/72/32 136/72/32 137/74/32 105/74/32
f 91/46/19 123/46/19 124/48/19 92/48/19
f 105/74/33 137/74/33 138/76/33 106/76/33
f 92/48/20 124/48/20 125/50/20 93/50/20
f 106/76/34 138/76/34 139/78/34 107/78/34
f 93/50/21 125/50/21 126/52/21 94/52/21
f 107/78/35 139/78/35 140/80/35 108/80/35
f 94/52/22 126/52/22 127/54/22 95/54/22
f 81/25/9 113/25/9 114/28/9 82/28/9
f 108/80/36 140/80/36 141/82/36 109/82/36
f 95/54/23 127/54/23 128/56/23 96/56/23
f 82/28/10 114/28/10 115/30/10 83/30/10
f 109/82/37 141/82/37 142/84/37 110/84/37
f 96/56/24 128/56/24 129/58/24 97/58/24
f 83/30/11 115/30/11 116/32/11 84/32/11
f 110/84/38 142/84/38 143/86/38 111/86/38
f 97/58/25 129/58/25 130/60/25 98/60/25
f 84/32/12 116/32/12 117/34/12 85/34/12
f 111/86/40 143/86/40 144/120/40 112/120/40
f 98/60/26 130/60/26 131/62/26 99/62/26
f 85/34/13 117/34/13 118/36/13 86/36/13
f 112/120/41 144/120/41 113/122/41 81/122/41
f 99/62/27 131/62/27 132/64/27 100/64/27
