# Blender 4.2.1 LTS
# www.blender.org
mtllib CajaDeLecheOJugo.mtl
o base
v 1.000000 1.000000 -1.000000
v 1.000000 -1.000000 -1.000000
v 1.000000 1.000000 1.000000
v 1.000000 -1.000000 1.000000
v -1.000000 1.000000 -1.000000
v -1.000000 -1.000000 -1.000000
v -1.000000 1.000000 1.000000
v -1.000000 -1.000000 1.000000
v 1.000000 2.805927 1.000000
v -1.000000 2.805927 1.000000
v 1.000000 2.805927 -1.000000
v -1.000000 2.805927 -1.000000
v 1.000000 1.000000 0.000000
v 1.000000 -1.000000 0.000000
v -1.000000 1.000000 0.000000
v -1.000000 -1.000000 0.000000
v 1.000000 2.805927 0.000000
v -1.000000 2.805927 0.000000
v 1.000000 3.425431 0.000000
v -1.000000 3.425431 0.000000
v 1.000000 3.716726 0.000000
v -1.000000 3.716726 0.000000
v -1.000000 3.425431 0.000000
v -1.000000 3.716726 0.000000
v 1.000000 3.425431 0.000000
v 1.000000 3.716726 0.000000
v 1.000000 2.805927 0.000000
v 1.000000 2.805927 1.000000
v 1.000000 2.805927 -1.000000
v 1.000000 3.425431 0.000000
vn -0.0000 -0.0000 -1.0000
vn -0.0000 -1.0000 -0.0000
vn -0.0000 -0.0000 1.0000
vn 1.0000 -0.0000 -0.0000
vn -1.0000 -0.0000 -0.0000
vn -0.0000 1.0000 -0.0000
vn -0.0000 -0.8501 0.5266
vn -0.0000 -0.8501 -0.5266
vt 0.375000 0.750000
vt 0.375000 0.500000
vt 0.375000 0.375000
vt 0.625000 0.375000
vt 0.625000 0.500000
vt 0.625000 0.750000
vt 0.375000 0.875000
vt 0.625000 0.875000
vt 0.625000 1.000000
vt 0.375000 1.000000
vt 0.125000 0.500000
vt 0.125000 0.750000
vt 0.625000 0.625000
vt 0.875000 0.625000
vt 0.875000 0.750000
vt 0.625000 0.250000
vt 0.625000 0.125000
vt 0.875000 0.500000
vt 0.000000 0.000000
vt 0.375000 0.250000
vt 0.375000 0.125000
s 0
usemtl Material.001
f 16/3/2 14/4/2 4/5/2 8/2/2
f 12/2/5 18/14/5 10/16/5 20/17/5
f 21/19/6 19/19/6 25/19/6 26/19/6
f 6/20/2 2/16/2 14/4/2 16/3/2
f 11/1/6 19/21/6 30/21/6 29/1/6
f 19/21/7 20/17/7 12/2/7 11/1/7
f 20/17/8 19/21/8 9/20/8 10/16/8
f 25/21/1 23/17/1 24/17/1 26/21/1
f 22/19/6 21/19/6 26/19/6 24/19/6
f 19/21/6 20/17/6 23/17/6 25/21/6
f 20/19/6 22/19/6 24/19/6 23/19/6
f 28/20/4 27/8/4 29/1/4 30/21/4
f 19/21/6 9/20/6 28/20/6 30/21/6
usemtl Material.002
f 1/1/1 5/2/1 12/2/1 11/1/1
f 4/2/3 3/5/3 7/6/3 8/1/3
f 14/7/4 13/8/4 3/9/4 4/10/4
f 6/11/1 5/2/1 1/1/1 2/12/1
f 16/13/5 15/14/5 5/15/5 6/6/5
f 7/6/3 3/5/3 9/5/3 10/6/3
f 15/14/5 7/18/5 10/18/5 18/14/5
f 13/8/4 1/6/4 11/6/4 17/8/4
f 3/9/4 13/8/4 17/8/4 9/9/4
f 5/15/5 15/14/5 18/14/5 12/15/5
f 8/5/5 7/18/5 15/14/5 16/13/5
f 2/1/4 1/6/4 13/8/4 14/7/4
f 9/9/6 17/8/6 27/8/6 28/9/6
f 17/8/6 11/6/6 29/6/6 27/8/6
