# Blender 4.2.1 LTS
# www.blender.org
mtllib personajeDemo.mtl
o Cubo
v 1.556479 1.211989 -1.556479
v 0.589258 0.161114 -0.589259
v 1.556479 1.211989 1.556479
v 0.589258 0.161114 0.589259
v -1.556479 1.211989 -1.556479
v -0.589258 0.161114 -0.589259
v -1.556479 1.211989 1.556479
v -0.589259 0.161114 0.589258
v 0.018598 0.732797 -0.018598
v 0.018598 0.732797 0.018598
v -0.018598 0.732797 0.018598
v -0.018598 0.732797 -0.018598
v 0.000000 3.328327 -0.518116
v 0.000000 3.061724 -0.775416
v 0.000000 2.713396 -0.914666
v 0.000001 2.524881 -0.932585
v 0.000000 2.336368 -0.914666
v 0.000000 1.988038 -0.775416
v 0.035494 3.472609 -0.178442
v 0.069625 3.417620 -0.350028
v 0.101080 3.328327 -0.508162
v 0.128650 3.208155 -0.646767
v 0.151276 3.061724 -0.760518
v 0.168089 2.894667 -0.845042
v 0.178443 2.713398 -0.897092
v 0.181939 2.524881 -0.914667
v 0.178443 2.336368 -0.897092
v 0.168089 2.155097 -0.845042
v 0.151276 1.988038 -0.760518
v 0.128650 1.841609 -0.646767
v 0.101080 1.721438 -0.508161
v 0.069625 1.632145 -0.350028
v 0.035494 1.577156 -0.178442
v 0.069625 3.472609 -0.168089
v 0.136574 3.417620 -0.329719
v 0.198275 3.328327 -0.478678
v 0.252356 3.208155 -0.609241
v 0.296740 3.061724 -0.716393
v 0.329719 2.894667 -0.796012
v 0.350028 2.713398 -0.845042
v 0.356885 2.524881 -0.861598
v 0.350028 2.336368 -0.845042
v 0.329719 2.155097 -0.796012
v 0.296740 1.988038 -0.716393
v 0.252356 1.841609 -0.609241
v 0.198275 1.721438 -0.478678
v 0.136574 1.632145 -0.329719
v 0.069625 1.577156 -0.168089
v 0.101080 3.472609 -0.151276
v 0.198275 3.417620 -0.296739
v 0.287851 3.328327 -0.430799
v 0.366364 3.208155 -0.548302
v 0.430799 3.061724 -0.644736
v 0.478678 2.894667 -0.716392
v 0.508162 2.713398 -0.760518
v 0.518117 2.524881 -0.775418
v 0.508162 2.336368 -0.760518
v 0.478678 2.155097 -0.716392
v 0.430799 1.988038 -0.644736
v 0.366364 1.841609 -0.548302
v 0.287851 1.721438 -0.430799
v 0.198275 1.632145 -0.296739
v 0.101080 1.577156 -0.151276
v 0.128650 3.472609 -0.128650
v 0.252356 3.417620 -0.252356
v 0.366364 3.328327 -0.366364
v 0.466293 3.208155 -0.466293
v 0.548303 3.061724 -0.548303
v 0.609241 2.894667 -0.609241
v 0.646767 2.713398 -0.646767
v 0.659438 2.524881 -0.659439
v 0.646767 2.336368 -0.646767
v 0.609241 2.155097 -0.609241
v 0.548303 1.988038 -0.548303
v 0.466293 1.841609 -0.466293
v 0.366364 1.721438 -0.366364
v 0.252356 1.632145 -0.252356
v 0.128650 1.577156 -0.128650
v 0.151276 3.472609 -0.101080
v 0.296739 3.417620 -0.198275
v 0.430799 3.328327 -0.287851
v 0.548302 3.208155 -0.366364
v 0.644736 3.061724 -0.430799
v 0.716393 2.894667 -0.478678
v 0.760518 2.713398 -0.508162
v 0.775418 2.524881 -0.518118
v 0.760518 2.336368 -0.508162
v 0.716393 2.155097 -0.478678
v 0.644736 1.988038 -0.430799
v 0.548302 1.841609 -0.366364
v 0.430799 1.721438 -0.287851
v 0.296739 1.632145 -0.198275
v 0.151276 1.577156 -0.101080
v 0.000000 3.457466 -0.000000
v 0.168089 3.472609 -0.069625
v 0.329719 3.417620 -0.136574
v 0.478678 3.328327 -0.198275
v 0.609241 3.208155 -0.252356
v 0.716393 3.061724 -0.296740
v 0.796012 2.894667 -0.329719
v 0.845042 2.713398 -0.350028
v 0.861598 2.524881 -0.356885
v 0.845042 2.336368 -0.350028
v 0.796012 2.155097 -0.329719
v 0.716393 1.988038 -0.296740
v 0.609241 1.841609 -0.252356
v 0.478678 1.721438 -0.198275
v 0.329719 1.632145 -0.136574
v 0.168089 1.577156 -0.069625
v 0.178443 3.472609 -0.035494
v 0.350028 3.417620 -0.069625
v 0.508162 3.328327 -0.101080
v 0.646767 3.208155 -0.128650
v 0.760519 3.061724 -0.151277
v 0.845042 2.894667 -0.168089
v 0.897092 2.713398 -0.178443
v 0.914667 2.524881 -0.181939
v 0.897092 2.336368 -0.178443
v 0.845042 2.155097 -0.168089
v 0.760519 1.988038 -0.151277
v 0.646767 1.841609 -0.128650
v 0.508162 1.721438 -0.101080
v 0.350028 1.632145 -0.069625
v 0.178443 1.577156 -0.035494
v 0.181939 3.472609 0.000000
v 0.356885 3.417620 0.000000
v 0.518117 3.328327 -0.000000
v 0.659438 3.208155 0.000000
v 0.775417 3.061724 -0.000000
v 0.861598 2.894667 0.000000
v 0.914667 2.713398 0.000000
v 0.932587 2.524881 0.000000
v 0.914667 2.336368 0.000000
v 0.861598 2.155097 0.000000
v 0.775417 1.988038 -0.000000
v 0.659438 1.841609 0.000000
v 0.518117 1.721438 -0.000000
v 0.356885 1.632145 0.000000
v 0.181939 1.577156 0.000000
v 0.178443 3.472609 0.035494
v 0.350028 3.417620 0.069625
v 0.508162 3.328327 0.101080
v 0.646767 3.208155 0.128650
v 0.760518 3.061724 0.151276
v 0.845042 2.894667 0.168090
v 0.897092 2.713398 0.178443
v 0.914668 2.524881 0.181939
v 0.897092 2.336368 0.178443
v 0.845042 2.155097 0.168090
v 0.760518 1.988038 0.151276
v 0.646767 1.841609 0.128650
v 0.508162 1.721438 0.101080
v 0.350028 1.632145 0.069625
v 0.178443 1.577156 0.035494
v 0.168089 3.472609 0.069625
v 0.329719 3.417620 0.136574
v 0.478678 3.328327 0.198275
v 0.609241 3.208155 0.252356
v 0.716393 3.061724 0.296739
v 0.796012 2.894667 0.329719
v 0.845042 2.713398 0.350028
v 0.861598 2.524881 0.356885
v 0.845042 2.336368 0.350028
v 0.796012 2.155097 0.329719
v 0.716393 1.988038 0.296739
v 0.609241 1.841609 0.252356
v 0.478678 1.721438 0.198275
v 0.329719 1.632145 0.136574
v 0.168089 1.577156 0.069625
v 0.151276 3.472609 0.101080
v 0.296739 3.417620 0.198275
v 0.430799 3.328327 0.287850
v 0.548302 3.208155 0.366364
v 0.644736 3.061724 0.430799
v 0.716393 2.894667 0.478678
v 0.760518 2.713398 0.508162
v 0.775417 2.524881 0.518117
v 0.760518 2.336368 0.508162
v 0.716393 2.155097 0.478678
v 0.644736 1.988038 0.430799
v 0.548302 1.841609 0.366364
v 0.430799 1.721438 0.287850
v 0.296739 1.632145 0.198275
v 0.151276 1.577156 0.101080
v 0.128650 3.472609 0.128650
v 0.252356 3.417620 0.252356
v 0.366364 3.328327 0.366364
v 0.466293 3.208155 0.466293
v 0.548303 3.061724 0.548303
v 0.609241 2.894667 0.609242
v 0.646767 2.713398 0.646767
v 0.659439 2.524881 0.659438
v 0.646767 2.336368 0.646767
v 0.609241 2.155097 0.609242
v 0.548303 1.988038 0.548303
v 0.466293 1.841609 0.466293
v 0.366364 1.721438 0.366364
v 0.252356 1.632145 0.252356
v 0.128650 1.577156 0.128650
v 0.101080 3.472609 0.151277
v 0.198275 3.417620 0.296739
v 0.287851 3.328327 0.430799
v 0.366364 3.208155 0.548303
v 0.430799 3.061724 0.644736
v 0.478678 2.894667 0.716393
v 0.508162 2.713398 0.760518
v 0.518117 2.524881 0.775418
v 0.508162 2.336368 0.760518
v 0.478678 2.155097 0.716393
v 0.430799 1.988038 0.644736
v 0.366364 1.841609 0.548303
v 0.287851 1.721438 0.430799
v 0.198275 1.632145 0.296739
v 0.101080 1.577156 0.151277
v 0.069625 3.472609 0.168089
v 0.136574 3.417620 0.329719
v 0.198275 3.328327 0.478678
v 0.252356 3.208155 0.609241
v 0.296739 3.061724 0.716393
v 0.329719 2.894667 0.796012
v 0.350028 2.713398 0.845042
v 0.356885 2.524881 0.861598
v 0.350028 2.336368 0.845042
v 0.329719 2.155097 0.796012
v 0.296739 1.988038 0.716393
v 0.252356 1.841609 0.609241
v 0.198275 1.721438 0.478678
v 0.136574 1.632145 0.329719
v 0.069625 1.577156 0.168089
v 0.035494 3.472609 0.178443
v 0.069625 3.417620 0.350028
v 0.101080 3.328327 0.508162
v 0.128650 3.208155 0.646767
v 0.151276 3.061724 0.760518
v 0.168089 2.894667 0.845042
v 0.178442 2.713398 0.897092
v 0.181939 2.524881 0.914668
v 0.178442 2.336368 0.897092
v 0.168089 2.155097 0.845042
v 0.151276 1.988038 0.760518
v 0.128650 1.841609 0.646767
v 0.101080 1.721438 0.508162
v 0.069625 1.632145 0.350028
v 0.035494 1.577156 0.178443
v -0.000000 3.472609 0.181939
v -0.000000 3.417620 0.356885
v 0.000000 3.328327 0.518117
v -0.000000 3.208155 0.659437
v 0.000000 3.061724 0.775417
v -0.000000 2.894667 0.861597
v -0.000000 2.713398 0.914666
v 0.000000 2.524881 0.932587
v -0.000000 2.336368 0.914666
v -0.000000 2.155097 0.861597
v 0.000000 1.988038 0.775417
v -0.000000 1.841609 0.659437
v 0.000000 1.721438 0.518117
v -0.000000 1.632145 0.356885
v -0.000000 1.577156 0.181939
v -0.035494 3.472609 0.178443
v -0.069625 3.417620 0.350028
v -0.101080 3.328327 0.508162
v -0.128650 3.208155 0.646766
v -0.151276 3.061724 0.760518
v -0.168090 2.894667 0.845042
v -0.178443 2.713398 0.897091
v -0.181939 2.524881 0.914667
v -0.178443 2.336368 0.897091
v -0.168090 2.155097 0.845042
v -0.151276 1.988038 0.760518
v -0.128650 1.841609 0.646766
v -0.101080 1.721438 0.508162
v -0.069625 1.632145 0.350028
v -0.035494 1.577156 0.178443
v -0.069625 3.472609 0.168089
v -0.136574 3.417620 0.329719
v -0.198275 3.328327 0.478678
v -0.252356 3.208155 0.609241
v -0.296739 3.061724 0.716392
v -0.329719 2.894667 0.796011
v -0.350028 2.713398 0.845041
v -0.356885 2.524881 0.861598
v -0.350028 2.336368 0.845041
v -0.329719 2.155097 0.796011
v -0.296739 1.988038 0.716392
v -0.252356 1.841609 0.609241
v -0.198275 1.721438 0.478678
v -0.136574 1.632145 0.329719
v -0.069625 1.577156 0.168089
v -0.101080 3.472609 0.151276
v -0.198275 3.417620 0.296739
v -0.287850 3.328327 0.430799
v -0.366364 3.208155 0.548303
v -0.430799 3.061724 0.644736
v -0.478678 2.894667 0.716392
v -0.508161 2.713398 0.760517
v -0.518117 2.524881 0.775417
v -0.508161 2.336368 0.760517
v -0.478678 2.155097 0.716392
v -0.430799 1.988038 0.644736
v -0.366364 1.841609 0.548303
v -0.287850 1.721438 0.430799
v -0.198275 1.632145 0.296739
v -0.101080 1.577156 0.151276
v -0.128650 3.472609 0.128650
v -0.252356 3.417620 0.252356
v -0.366364 3.328327 0.366364
v -0.466293 3.208155 0.466293
v -0.548303 3.061724 0.548303
v -0.609242 2.894667 0.609241
v -0.646767 2.713398 0.646767
v -0.659439 2.524881 0.659438
v -0.646767 2.336368 0.646767
v -0.609242 2.155097 0.609241
v -0.548303 1.988038 0.548303
v -0.466293 1.841609 0.466293
v -0.366364 1.721438 0.366364
v -0.252356 1.632145 0.252356
v -0.128650 1.577156 0.128650
v 0.000000 1.592293 -0.000000
v -0.151276 3.472609 0.101080
v -0.296739 3.417620 0.198275
v -0.430799 3.328327 0.287851
v -0.548303 3.208155 0.366364
v -0.644735 3.061724 0.430799
v -0.716393 2.894667 0.478678
v -0.760517 2.713398 0.508161
v -0.775417 2.524881 0.518117
v -0.760517 2.336368 0.508161
v -0.716393 2.155097 0.478678
v -0.644735 1.988038 0.430799
v -0.548303 1.841609 0.366364
v -0.430799 1.721438 0.287851
v -0.296739 1.632145 0.198275
v -0.151276 1.577156 0.101080
v -0.168089 3.472609 0.069625
v -0.329719 3.417620 0.136574
v -0.478678 3.328327 0.198275
v -0.609241 3.208155 0.252356
v -0.716392 3.061724 0.296739
v -0.796012 2.894667 0.329719
v -0.845042 2.713398 0.350028
v -0.861598 2.524881 0.356885
v -0.845042 2.336368 0.350028
v -0.796012 2.155097 0.329719
v -0.716392 1.988038 0.296739
v -0.609241 1.841609 0.252356
v -0.478678 1.721438 0.198275
v -0.329719 1.632145 0.136574
v -0.168089 1.577156 0.069625
v -0.178443 3.472609 0.035494
v -0.350027 3.417620 0.069625
v -0.508162 3.328327 0.101080
v -0.646766 3.208155 0.128650
v -0.760518 3.061724 0.151277
v -0.845042 2.894667 0.168089
v -0.897091 2.713398 0.178442
v -0.914667 2.524881 0.181939
v -0.897091 2.336368 0.178442
v -0.845042 2.155097 0.168089
v -0.760518 1.988038 0.151277
v -0.646766 1.841609 0.128650
v -0.508162 1.721438 0.101080
v -0.350027 1.632145 0.069625
v -0.178443 1.577156 0.035494
v -0.181939 3.472609 -0.000000
v -0.356885 3.417620 -0.000000
v -0.518117 3.328327 0.000000
v -0.659438 3.208155 -0.000000
v -0.775417 3.061724 0.000000
v -0.861597 2.894667 -0.000000
v -0.914666 2.713398 -0.000000
v -0.932587 2.524881 -0.000000
v -0.914666 2.336368 -0.000000
v -0.861597 2.155097 -0.000000
v -0.775417 1.988038 0.000000
v -0.659438 1.841609 -0.000000
v -0.518117 1.721438 0.000000
v -0.356885 1.632145 -0.000000
v -0.181939 1.577156 -0.000000
v -0.178443 3.472609 -0.035495
v -0.350028 3.417620 -0.069625
v -0.508162 3.328327 -0.101080
v -0.646767 3.208155 -0.128650
v -0.760518 3.061724 -0.151276
v -0.845041 2.894667 -0.168090
v -0.897092 2.713398 -0.178443
v -0.914667 2.524881 -0.181939
v -0.897092 2.336368 -0.178443
v -0.845041 2.155097 -0.168090
v -0.760518 1.988038 -0.151276
v -0.646767 1.841609 -0.128650
v -0.508162 1.721438 -0.101080
v -0.350028 1.632145 -0.069625
v -0.178443 1.577156 -0.035495
v -0.168089 3.472609 -0.069625
v -0.329719 3.417620 -0.136574
v -0.478678 3.328327 -0.198275
v -0.609240 3.208155 -0.252356
v -0.716392 3.061724 -0.296739
v -0.796012 2.894667 -0.329720
v -0.845041 2.713398 -0.350028
v -0.861597 2.524881 -0.356886
v -0.845041 2.336368 -0.350028
v -0.796012 2.155097 -0.329720
v -0.716392 1.988038 -0.296739
v -0.609240 1.841609 -0.252356
v -0.478678 1.721438 -0.198275
v -0.329719 1.632145 -0.136574
v -0.168089 1.577156 -0.069625
v -0.151276 3.472609 -0.101080
v -0.296739 3.417620 -0.198275
v -0.430799 3.328327 -0.287851
v -0.548302 3.208155 -0.366364
v -0.644736 3.061724 -0.430799
v -0.716391 2.894667 -0.478678
v -0.760518 2.713398 -0.508161
v -0.775417 2.524881 -0.518117
v -0.760518 2.336368 -0.508161
v -0.716391 2.155097 -0.478678
v -0.644736 1.988038 -0.430799
v -0.548302 1.841609 -0.366364
v -0.430799 1.721438 -0.287851
v -0.296739 1.632145 -0.198275
v -0.151276 1.577156 -0.101080
v -0.128650 3.472609 -0.128650
v -0.252356 3.417620 -0.252356
v -0.366364 3.328327 -0.366364
v -0.466293 3.208155 -0.466293
v -0.548302 3.061724 -0.548302
v -0.609241 2.894667 -0.609241
v -0.646766 2.713398 -0.646767
v -0.659438 2.524881 -0.659438
v -0.646766 2.336368 -0.646767
v -0.609241 2.155097 -0.609241
v -0.548302 1.988038 -0.548302
v -0.466293 1.841609 -0.466293
v -0.366364 1.721438 -0.366364
v -0.252356 1.632145 -0.252356
v -0.128650 1.577156 -0.128650
v -0.101080 3.472609 -0.151276
v -0.198274 3.417620 -0.296739
v -0.287851 3.328327 -0.430799
v -0.366363 3.208155 -0.548303
v -0.430799 3.061724 -0.644736
v -0.478677 2.894667 -0.716392
v -0.508161 2.713398 -0.760517
v -0.518117 2.524881 -0.775417
v -0.508161 2.336368 -0.760517
v -0.478677 2.155097 -0.716392
v -0.430799 1.988038 -0.644736
v -0.366363 1.841609 -0.548303
v -0.287851 1.721438 -0.430799
v -0.198274 1.632145 -0.296739
v -0.101080 1.577156 -0.151276
v -0.069625 3.472609 -0.168089
v -0.136574 3.417620 -0.329719
v -0.198275 3.328327 -0.478678
v -0.252355 3.208155 -0.609241
v -0.296739 3.061724 -0.716392
v -0.329718 2.894667 -0.796011
v -0.350028 2.713398 -0.845042
v -0.356885 2.524881 -0.861598
v -0.350028 2.336368 -0.845042
v -0.329718 2.155097 -0.796011
v -0.296739 1.988038 -0.716392
v -0.252355 1.841609 -0.609241
v -0.198275 1.721438 -0.478678
v -0.136574 1.632145 -0.329719
v -0.069625 1.577156 -0.168089
v -0.035494 3.472609 -0.178443
v -0.069625 3.417620 -0.350028
v -0.101080 3.328327 -0.508163
v -0.128650 3.208155 -0.646766
v -0.151277 3.061724 -0.760518
v -0.168089 2.894667 -0.845042
v -0.178442 2.713398 -0.897092
v -0.181939 2.524881 -0.914669
v -0.178442 2.336368 -0.897092
v -0.168089 2.155097 -0.845042
v -0.151277 1.988038 -0.760518
v -0.128650 1.841609 -0.646766
v -0.101080 1.721438 -0.508162
v -0.069625 1.632145 -0.350028
v -0.035494 1.577156 -0.178443
v 0.000000 3.472609 -0.181939
v -0.000000 3.417620 -0.356885
v -0.000000 3.208155 -0.659439
v -0.000000 2.894667 -0.861598
v -0.000000 2.155097 -0.861598
v 0.000000 1.841609 -0.659438
v -0.000000 1.721438 -0.518118
v 0.000000 1.632145 -0.356885
v 0.000000 1.577156 -0.181939
vn -0.7358 0.6772 -0.0000
vn -0.0000 0.6772 -0.7358
vn 0.7358 0.6772 -0.0000
vn -0.0000 0.6772 0.7358
vn -0.0000 -1.0000 -0.0000
vn -0.7077 0.7065 -0.0000
vn -0.0000 1.0000 -0.0000
vn 0.7077 0.7065 -0.0000
vn -0.0000 0.7065 -0.7077
vn -0.0000 0.7065 0.7077
vn 0.0637 -0.7603 -0.6465
vn 0.0872 0.4567 -0.8853
vn 0.0477 -0.8738 -0.4839
vn 0.0941 0.2797 -0.9555
vn 0.0295 -0.9536 -0.2997
vn 0.0976 0.0942 -0.9908
vn -0.0082 0.9965 0.0829
vn -0.0082 -0.9965 0.0829
vn 0.0976 -0.0942 -0.9908
vn 0.0295 0.9536 -0.2997
vn 0.0941 -0.2797 -0.9555
vn 0.0477 0.8738 -0.4839
vn 0.0872 -0.4567 -0.8853
vn 0.0637 0.7603 -0.6465
vn 0.0770 -0.6190 -0.7816
vn 0.0770 0.6190 -0.7816
vn 0.2280 -0.6190 -0.7515
vn 0.2280 0.6190 -0.7515
vn 0.1886 -0.7603 -0.6216
vn 0.2582 0.4567 -0.8513
vn 0.1412 -0.8738 -0.4653
vn 0.2787 0.2797 -0.9187
vn 0.0874 -0.9536 -0.2882
vn 0.2890 0.0942 -0.9527
vn -0.0242 0.9965 0.0798
vn -0.0242 -0.9965 0.0797
vn 0.2890 -0.0942 -0.9527
vn 0.0874 0.9536 -0.2882
vn 0.2787 -0.2797 -0.9187
vn 0.1412 0.8738 -0.4653
vn 0.2582 -0.4567 -0.8513
vn 0.1886 0.7603 -0.6216
vn -0.0393 0.9965 0.0735
vn -0.0393 -0.9965 0.0735
vn 0.4693 -0.0942 -0.8780
vn 0.1420 0.9536 -0.2656
vn 0.4526 -0.2797 -0.8467
vn 0.2292 0.8738 -0.4289
vn 0.4194 -0.4567 -0.7846
vn 0.3062 0.7603 -0.5729
vn 0.3702 -0.6190 -0.6926
vn 0.3702 0.6190 -0.6926
vn 0.3062 -0.7603 -0.5729
vn 0.4194 0.4567 -0.7846
vn 0.2292 -0.8738 -0.4289
vn 0.4526 0.2797 -0.8467
vn 0.1420 -0.9536 -0.2656
vn 0.4693 0.0942 -0.8780
vn 0.4982 0.6190 -0.6071
vn 0.4121 -0.7603 -0.5022
vn 0.5644 0.4567 -0.6877
vn 0.3085 -0.8738 -0.3759
vn 0.6091 0.2797 -0.7422
vn 0.1911 -0.9536 -0.2328
vn 0.6316 0.0942 -0.7696
vn -0.0529 0.9965 0.0644
vn -0.0528 -0.9965 0.0644
vn 0.6316 -0.0942 -0.7696
vn 0.1911 0.9536 -0.2328
vn 0.6091 -0.2797 -0.7422
vn 0.3085 0.8738 -0.3759
vn 0.5644 -0.4567 -0.6877
vn 0.4121 0.7603 -0.5022
vn 0.4982 -0.6190 -0.6071
vn 0.7696 -0.0942 -0.6316
vn 0.2328 0.9536 -0.1911
vn 0.7422 -0.2797 -0.6091
vn 0.3759 0.8738 -0.3085
vn 0.6877 -0.4567 -0.5644
vn 0.5022 0.7603 -0.4121
vn 0.6071 -0.6190 -0.4982
vn 0.6071 0.6190 -0.4982
vn 0.5022 -0.7603 -0.4121
vn 0.6877 0.4567 -0.5644
vn 0.3759 -0.8738 -0.3085
vn 0.7422 0.2797 -0.6091
vn 0.2328 -0.9536 -0.1911
vn 0.7696 0.0942 -0.6316
vn -0.0644 0.9965 0.0529
vn -0.0644 -0.9965 0.0529
vn 0.5729 -0.7603 -0.3062
vn 0.7846 0.4567 -0.4194
vn 0.4289 -0.8738 -0.2292
vn 0.8467 0.2797 -0.4526
vn 0.2656 -0.9536 -0.1420
vn 0.8780 0.0942 -0.4693
vn -0.0735 0.9965 0.0393
vn -0.0735 -0.9965 0.0393
vn 0.8780 -0.0942 -0.4693
vn 0.2656 0.9536 -0.1420
vn 0.8467 -0.2797 -0.4526
vn 0.4289 0.8738 -0.2292
vn 0.7846 -0.4567 -0.4194
vn 0.5729 0.7603 -0.3062
vn 0.6926 -0.6190 -0.3702
vn 0.6926 0.6190 -0.3702
vn 0.9187 -0.2797 -0.2787
vn 0.4653 0.8738 -0.1412
vn 0.8513 -0.4567 -0.2582
vn 0.6216 0.7603 -0.1886
vn 0.7515 -0.6190 -0.2280
vn 0.7515 0.6190 -0.2280
vn 0.6216 -0.7603 -0.1886
vn 0.8513 0.4567 -0.2582
vn 0.4653 -0.8738 -0.1412
vn 0.9187 0.2797 -0.2787
vn 0.2882 -0.9536 -0.0874
vn 0.9527 0.0942 -0.2890
vn -0.0798 0.9965 0.0242
vn -0.0797 -0.9965 0.0242
vn 0.9527 -0.0942 -0.2890
vn 0.2882 0.9536 -0.0874
vn 0.4839 -0.8738 -0.0477
vn 0.9555 0.2797 -0.0941
vn 0.2997 -0.9536 -0.0295
vn 0.9908 0.0942 -0.0976
vn -0.0829 0.9965 0.0082
vn -0.0829 -0.9965 0.0082
vn 0.9908 -0.0942 -0.0976
vn 0.2997 0.9536 -0.0295
vn 0.9555 -0.2797 -0.0941
vn 0.4839 0.8738 -0.0477
vn 0.8853 -0.4567 -0.0872
vn 0.6465 0.7603 -0.0637
vn 0.7816 -0.6190 -0.0770
vn 0.7816 0.6190 -0.0770
vn 0.6465 -0.7603 -0.0637
vn 0.8853 0.4567 -0.0872
vn 0.4839 0.8738 0.0477
vn 0.8853 -0.4567 0.0872
vn 0.6465 0.7603 0.0637
vn 0.7816 -0.6190 0.0770
vn 0.7816 0.6190 0.0770
vn 0.6465 -0.7603 0.0637
vn 0.8853 0.4567 0.0872
vn 0.4839 -0.8738 0.0477
vn 0.9555 0.2797 0.0941
vn 0.2997 -0.9536 0.0295
vn 0.9908 0.0942 0.0976
vn -0.0829 0.9965 -0.0082
vn -0.0829 -0.9965 -0.0082
vn 0.9908 -0.0942 0.0976
vn 0.2997 0.9536 0.0295
vn 0.9555 -0.2797 0.0941
vn 0.9187 0.2797 0.2787
vn 0.2882 -0.9536 0.0874
vn 0.9527 0.0942 0.2890
vn -0.0797 0.9965 -0.0242
vn -0.0797 -0.9965 -0.0242
vn 0.9527 -0.0942 0.2890
vn 0.2882 0.9536 0.0874
vn 0.9187 -0.2797 0.2787
vn 0.4653 0.8738 0.1412
vn 0.8513 -0.4567 0.2582
vn 0.6216 0.7603 0.1886
vn 0.7515 -0.6190 0.2280
vn 0.7515 0.6190 0.2280
vn 0.6216 -0.7603 0.1886
vn 0.8513 0.4567 0.2582
vn 0.4653 -0.8738 0.1412
vn 0.7846 -0.4567 0.4194
vn 0.5729 0.7603 0.3062
vn 0.6926 -0.6190 0.3702
vn 0.6926 0.6190 0.3702
vn 0.5729 -0.7603 0.3062
vn 0.7846 0.4567 0.4194
vn 0.4289 -0.8738 0.2292
vn 0.8467 0.2797 0.4526
vn 0.2656 -0.9536 0.1420
vn 0.8780 0.0942 0.4693
vn -0.0735 0.9965 -0.0393
vn -0.0735 -0.9965 -0.0393
vn 0.8780 -0.0942 0.4693
vn 0.2656 0.9536 0.1420
vn 0.8467 -0.2797 0.4526
vn 0.4289 0.8738 0.2292
vn 0.2328 -0.9536 0.1911
vn 0.7696 0.0942 0.6316
vn -0.0644 0.9965 -0.0529
vn -0.0644 -0.9965 -0.0529
vn 0.7696 -0.0942 0.6316
vn 0.2328 0.9536 0.1911
vn 0.7422 -0.2797 0.6091
vn 0.3759 0.8738 0.3085
vn 0.6877 -0.4567 0.5644
vn 0.5022 0.7603 0.4121
vn 0.6071 -0.6190 0.4982
vn 0.6071 0.6190 0.4982
vn 0.5022 -0.7603 0.4121
vn 0.6877 0.4567 0.5644
vn 0.3759 -0.8738 0.3085
vn 0.7421 0.2797 0.6091
vn 0.4121 0.7603 0.5022
vn 0.4982 -0.6190 0.6071
vn 0.4982 0.6190 0.6071
vn 0.4121 -0.7603 0.5022
vn 0.5644 0.4567 0.6877
vn 0.3085 -0.8738 0.3759
vn 0.6091 0.2797 0.7421
vn 0.1911 -0.9536 0.2328
vn 0.6316 0.0942 0.7696
vn -0.0529 0.9965 -0.0644
vn -0.0528 -0.9965 -0.0644
vn 0.6316 -0.0942 0.7696
vn 0.1911 0.9536 0.2328
vn 0.6091 -0.2797 0.7422
vn 0.3085 0.8738 0.3759
vn 0.5644 -0.4567 0.6877
vn 0.4693 0.0942 0.8780
vn -0.0393 0.9965 -0.0735
vn -0.0393 -0.9965 -0.0735
vn 0.4693 -0.0942 0.8780
vn 0.1420 0.9536 0.2656
vn 0.4526 -0.2797 0.8467
vn 0.2292 0.8738 0.4289
vn 0.4194 -0.4567 0.7846
vn 0.3062 0.7603 0.5729
vn 0.3702 -0.6190 0.6926
vn 0.3702 0.6190 0.6926
vn 0.3062 -0.7603 0.5729
vn 0.4194 0.4567 0.7846
vn 0.2292 -0.8738 0.4289
vn 0.4526 0.2797 0.8467
vn 0.1420 -0.9536 0.2656
vn 0.2280 -0.6190 0.7515
vn 0.2280 0.6190 0.7515
vn 0.1886 -0.7603 0.6216
vn 0.2582 0.4567 0.8513
vn 0.1412 -0.8738 0.4653
vn 0.2787 0.2797 0.9187
vn 0.0874 -0.9536 0.2882
vn 0.2890 0.0942 0.9527
vn -0.0242 0.9965 -0.0798
vn -0.0242 -0.9965 -0.0797
vn 0.2890 -0.0942 0.9527
vn 0.0874 0.9536 0.2882
vn 0.2787 -0.2797 0.9187
vn 0.1412 0.8738 0.4653
vn 0.2582 -0.4567 0.8513
vn 0.1886 0.7603 0.6216
vn -0.0082 -0.9965 -0.0829
vn 0.0976 -0.0942 0.9908
vn 0.0295 0.9536 0.2997
vn 0.0941 -0.2797 0.9555
vn 0.0477 0.8738 0.4839
vn 0.0872 -0.4567 0.8853
vn 0.0637 0.7603 0.6465
vn 0.0770 -0.6190 0.7816
vn 0.0770 0.6190 0.7816
vn 0.0637 -0.7603 0.6465
vn 0.0872 0.4567 0.8853
vn 0.0477 -0.8738 0.4839
vn 0.0941 0.2797 0.9555
vn 0.0295 -0.9536 0.2997
vn 0.0976 0.0942 0.9908
vn -0.0082 0.9965 -0.0829
vn -0.0637 -0.7603 0.6465
vn -0.0872 0.4567 0.8853
vn -0.0477 -0.8738 0.4839
vn -0.0941 0.2797 0.9555
vn -0.0295 -0.9536 0.2997
vn -0.0976 0.0942 0.9908
vn 0.0082 0.9965 -0.0829
vn 0.0082 -0.9965 -0.0829
vn -0.0976 -0.0942 0.9908
vn -0.0295 0.9536 0.2997
vn -0.0941 -0.2797 0.9555
vn -0.0477 0.8738 0.4839
vn -0.0872 -0.4567 0.8853
vn -0.0637 0.7603 0.6465
vn -0.0770 -0.6190 0.7816
vn -0.0770 0.6190 0.7816
vn -0.0874 0.9536 0.2882
vn -0.2787 -0.2797 0.9187
vn -0.1412 0.8738 0.4653
vn -0.2582 -0.4567 0.8513
vn -0.1886 0.7603 0.6216
vn -0.2280 -0.6190 0.7515
vn -0.2280 0.6190 0.7515
vn -0.1886 -0.7603 0.6216
vn -0.2582 0.4567 0.8513
vn -0.1412 -0.8738 0.4653
vn -0.2787 0.2797 0.9187
vn -0.0874 -0.9536 0.2882
vn -0.2890 0.0942 0.9527
vn 0.0242 0.9965 -0.0798
vn 0.0242 -0.9965 -0.0797
vn -0.2890 -0.0942 0.9527
vn -0.4194 0.4567 0.7846
vn -0.2292 -0.8738 0.4289
vn -0.4526 0.2797 0.8467
vn -0.1420 -0.9536 0.2656
vn -0.4693 0.0942 0.8780
vn 0.0393 0.9965 -0.0735
vn 0.0393 -0.9965 -0.0735
vn -0.4693 -0.0942 0.8780
vn -0.1420 0.9536 0.2656
vn -0.4526 -0.2797 0.8467
vn -0.2292 0.8738 0.4289
vn -0.4194 -0.4567 0.7846
vn -0.3062 0.7603 0.5729
vn -0.3702 -0.6190 0.6926
vn -0.3702 0.6190 0.6926
vn -0.3062 -0.7603 0.5729
vn -0.6091 -0.2797 0.7422
vn -0.3085 0.8738 0.3759
vn -0.5644 -0.4567 0.6877
vn -0.4121 0.7603 0.5022
vn -0.4982 -0.6190 0.6071
vn -0.4982 0.6190 0.6071
vn -0.4121 -0.7603 0.5022
vn -0.5644 0.4567 0.6877
vn -0.3085 -0.8738 0.3759
vn -0.6091 0.2797 0.7422
vn -0.1911 -0.9536 0.2328
vn -0.6316 0.0942 0.7696
vn 0.0529 0.9965 -0.0644
vn 0.0529 -0.9965 -0.0644
vn -0.6316 -0.0942 0.7696
vn -0.1911 0.9536 0.2328
vn -0.3759 -0.8738 0.3085
vn -0.7422 0.2797 0.6091
vn -0.2328 -0.9536 0.1911
vn -0.7696 0.0942 0.6316
vn 0.0644 0.9965 -0.0529
vn 0.0644 -0.9965 -0.0529
vn -0.7696 -0.0942 0.6316
vn -0.2328 0.9536 0.1911
vn -0.7422 -0.2797 0.6091
vn -0.3759 0.8738 0.3085
vn -0.6877 -0.4567 0.5644
vn -0.5022 0.7603 0.4121
vn -0.6071 -0.6190 0.4982
vn -0.6071 0.6190 0.4982
vn -0.5022 -0.7603 0.4121
vn -0.6877 0.4567 0.5644
vn -0.4288 0.8738 0.2292
vn -0.7846 -0.4567 0.4194
vn -0.5729 0.7603 0.3062
vn -0.6926 -0.6190 0.3702
vn -0.6926 0.6190 0.3702
vn -0.5729 -0.7603 0.3062
vn -0.7846 0.4567 0.4194
vn -0.4289 -0.8738 0.2292
vn -0.8467 0.2797 0.4526
vn -0.2656 -0.9536 0.1420
vn -0.8780 0.0942 0.4693
vn 0.0735 0.9965 -0.0393
vn 0.0735 -0.9965 -0.0393
vn -0.8780 -0.0942 0.4693
vn -0.2656 0.9536 0.1420
vn -0.8467 -0.2797 0.4526
vn -0.9187 0.2797 0.2787
vn -0.2882 -0.9536 0.0874
vn -0.9527 0.0942 0.2890
vn 0.0798 0.9965 -0.0242
vn 0.0797 -0.9965 -0.0242
vn -0.9527 -0.0942 0.2890
vn -0.2882 0.9536 0.0874
vn -0.9187 -0.2797 0.2787
vn -0.4653 0.8738 0.1412
vn -0.8513 -0.4567 0.2582
vn -0.6216 0.7603 0.1886
vn -0.7515 -0.6190 0.2280
vn -0.7515 0.6190 0.2280
vn -0.6216 -0.7603 0.1886
vn -0.8513 0.4567 0.2582
vn -0.4653 -0.8738 0.1412
vn -0.8853 -0.4567 0.0872
vn -0.6465 0.7603 0.0637
vn -0.7816 -0.6190 0.0770
vn -0.7816 0.6190 0.0770
vn -0.6465 -0.7603 0.0637
vn -0.8853 0.4567 0.0872
vn -0.4839 -0.8738 0.0477
vn -0.9555 0.2797 0.0941
vn -0.2997 -0.9536 0.0295
vn -0.9908 0.0942 0.0976
vn 0.0829 0.9965 -0.0082
vn 0.0829 -0.9965 -0.0082
vn -0.9908 -0.0942 0.0976
vn -0.2997 0.9536 0.0295
vn -0.9555 -0.2797 0.0941
vn -0.4839 0.8738 0.0477
vn -0.2997 -0.9536 -0.0295
vn -0.9908 0.0942 -0.0976
vn 0.0829 0.9965 0.0082
vn 0.0829 -0.9965 0.0082
vn -0.9908 -0.0942 -0.0976
vn -0.2997 0.9536 -0.0295
vn -0.9555 -0.2797 -0.0941
vn -0.4839 0.8738 -0.0477
vn -0.8853 -0.4567 -0.0872
vn -0.6465 0.7603 -0.0637
vn -0.7816 -0.6190 -0.0770
vn -0.7816 0.6190 -0.0770
vn -0.6465 -0.7603 -0.0637
vn -0.8853 0.4567 -0.0872
vn -0.4839 -0.8738 -0.0477
vn -0.9555 0.2797 -0.0941
vn -0.7515 -0.6190 -0.2280
vn -0.7515 0.6190 -0.2280
vn -0.6216 -0.7603 -0.1886
vn -0.8513 0.4567 -0.2582
vn -0.4653 -0.8738 -0.1412
vn -0.9187 0.2797 -0.2787
vn -0.2882 -0.9536 -0.0874
vn -0.9527 0.0942 -0.2890
vn 0.0797 0.9965 0.0242
vn 0.0797 -0.9965 0.0242
vn -0.9527 -0.0942 -0.2890
vn -0.2882 0.9536 -0.0874
vn -0.9187 -0.2797 -0.2787
vn -0.4653 0.8738 -0.1412
vn -0.8513 -0.4567 -0.2582
vn -0.6216 0.7603 -0.1886
vn 0.0735 0.9965 0.0393
vn 0.0735 -0.9965 0.0393
vn -0.8780 -0.0942 -0.4693
vn -0.2656 0.9536 -0.1420
vn -0.8467 -0.2797 -0.4526
vn -0.4289 0.8738 -0.2292
vn -0.7846 -0.4567 -0.4194
vn -0.5729 0.7603 -0.3062
vn -0.6926 -0.6190 -0.3702
vn -0.6926 0.6190 -0.3702
vn -0.5729 -0.7603 -0.3062
vn -0.7846 0.4567 -0.4194
vn -0.4289 -0.8738 -0.2292
vn -0.8467 0.2797 -0.4526
vn -0.2656 -0.9536 -0.1420
vn -0.8780 0.0942 -0.4693
vn -0.6071 0.6190 -0.4982
vn -0.5022 -0.7603 -0.4121
vn -0.6877 0.4567 -0.5644
vn -0.3759 -0.8738 -0.3085
vn -0.7422 0.2797 -0.6091
vn -0.2328 -0.9536 -0.1911
vn -0.7696 0.0942 -0.6316
vn 0.0644 0.9965 0.0529
vn 0.0644 -0.9965 0.0529
vn -0.7696 -0.0942 -0.6316
vn -0.2328 0.9536 -0.1911
vn -0.7422 -0.2797 -0.6091
vn -0.3759 0.8738 -0.3085
vn -0.6877 -0.4567 -0.5644
vn -0.5022 0.7603 -0.4121
vn -0.6071 -0.6190 -0.4982
vn -0.6316 -0.0942 -0.7696
vn -0.1911 0.9536 -0.2328
vn -0.6091 -0.2797 -0.7422
vn -0.3085 0.8738 -0.3759
vn -0.5644 -0.4567 -0.6877
vn -0.4121 0.7603 -0.5022
vn -0.4982 -0.6190 -0.6071
vn -0.4982 0.6190 -0.6071
vn -0.4121 -0.7603 -0.5022
vn -0.5644 0.4567 -0.6877
vn -0.3085 -0.8738 -0.3759
vn -0.6091 0.2797 -0.7422
vn -0.1911 -0.9536 -0.2328
vn -0.6316 0.0942 -0.7696
vn 0.0529 0.9965 0.0644
vn 0.0528 -0.9965 0.0644
vn -0.3062 -0.7603 -0.5729
vn -0.4194 0.4567 -0.7846
vn -0.2292 -0.8738 -0.4289
vn -0.4526 0.2797 -0.8467
vn -0.1420 -0.9536 -0.2656
vn -0.4693 0.0942 -0.8780
vn 0.0393 0.9965 0.0735
vn 0.0393 -0.9965 0.0735
vn -0.4693 -0.0942 -0.8780
vn -0.1420 0.9536 -0.2656
vn -0.4526 -0.2797 -0.8467
vn -0.2292 0.8738 -0.4288
vn -0.4194 -0.4567 -0.7846
vn -0.3062 0.7603 -0.5729
vn -0.3702 -0.6190 -0.6926
vn -0.3702 0.6190 -0.6926
vn -0.0874 0.9536 -0.2882
vn -0.2787 -0.2797 -0.9187
vn -0.1412 0.8738 -0.4653
vn -0.2582 -0.4567 -0.8513
vn -0.1886 0.7603 -0.6216
vn -0.2280 -0.6190 -0.7515
vn -0.2280 0.6190 -0.7515
vn -0.1886 -0.7603 -0.6216
vn -0.2582 0.4567 -0.8513
vn -0.1412 -0.8738 -0.4653
vn -0.2787 0.2797 -0.9187
vn -0.0874 -0.9536 -0.2882
vn -0.2890 0.0942 -0.9527
vn 0.0242 0.9965 0.0798
vn 0.0242 -0.9965 0.0797
vn -0.2890 -0.0942 -0.9527
vn -0.0872 0.4567 -0.8853
vn -0.0477 -0.8738 -0.4839
vn -0.0941 0.2797 -0.9555
vn -0.0295 -0.9536 -0.2997
vn -0.0976 0.0942 -0.9908
vn 0.0082 0.9965 0.0829
vn 0.0082 -0.9965 0.0829
vn -0.0976 -0.0942 -0.9908
vn -0.0295 0.9536 -0.2997
vn -0.0941 -0.2797 -0.9555
vn -0.0477 0.8738 -0.4839
vn -0.0872 -0.4567 -0.8853
vn -0.0637 0.7603 -0.6465
vn -0.0770 -0.6190 -0.7816
vn -0.0770 0.6190 -0.7816
vn -0.0637 -0.7603 -0.6465
vt 0.375000 0.000000
vt 0.625000 0.000000
vt 0.625000 0.250000
vt 0.375000 0.250000
vt 0.625000 0.500000
vt 0.375000 0.500000
vt 0.625000 0.750000
vt 0.375000 0.750000
vt 0.625000 1.000000
vt 0.375000 1.000000
vt 0.125000 0.500000
vt 0.125000 0.750000
vt 0.875000 0.500000
vt 0.875000 0.750000
vt 0.750000 0.187500
vt 0.750000 0.250000
vt 0.718750 0.250000
vt 0.718750 0.187500
vt 0.750000 0.625000
vt 0.750000 0.687500
vt 0.718750 0.687500
vt 0.718750 0.625000
vt 0.750000 0.125000
vt 0.718750 0.125000
vt 0.750000 0.562500
vt 0.718750 0.562500
vt 0.750000 0.062500
vt 0.718750 0.062500
vt 0.750000 0.500000
vt 0.718750 0.500000
vt 0.750000 0.937500
vt 0.734375 1.000000
vt 0.718750 0.937500
vt 0.734375 0.000000
vt 0.750000 0.437500
vt 0.718750 0.437500
vt 0.750000 0.875000
vt 0.718750 0.875000
vt 0.750000 0.375000
vt 0.718750 0.375000
vt 0.750000 0.812500
vt 0.718750 0.812500
vt 0.750000 0.312500
vt 0.718750 0.312500
vt 0.750000 0.750000
vt 0.718750 0.750000
vt 0.687500 0.312500
vt 0.687500 0.250000
vt 0.687500 0.750000
vt 0.687500 0.687500
vt 0.687500 0.187500
vt 0.687500 0.625000
vt 0.687500 0.125000
vt 0.687500 0.562500
vt 0.687500 0.062500
vt 0.687500 0.500000
vt 0.703125 1.000000
vt 0.687500 0.937500
vt 0.703125 0.000000
vt 0.687500 0.437500
vt 0.687500 0.875000
vt 0.687500 0.375000
vt 0.687500 0.812500
vt 0.671875 1.000000
vt 0.656250 0.937500
vt 0.671875 0.000000
vt 0.656250 0.062500
vt 0.656250 0.500000
vt 0.656250 0.437500
vt 0.656250 0.875000
vt 0.656250 0.375000
vt 0.656250 0.812500
vt 0.656250 0.312500
vt 0.656250 0.750000
vt 0.656250 0.250000
vt 0.656250 0.687500
vt 0.656250 0.187500
vt 0.656250 0.625000
vt 0.656250 0.125000
vt 0.656250 0.562500
vt 0.625000 0.687500
vt 0.625000 0.187500
vt 0.625000 0.625000
vt 0.625000 0.125000
vt 0.625000 0.562500
vt 0.625000 0.062500
vt 0.640625 1.000000
vt 0.625000 0.937500
vt 0.640625 0.000000
vt 0.625000 0.437500
vt 0.625000 0.875000
vt 0.625000 0.375000
vt 0.625000 0.812500
vt 0.625000 0.312500
vt 0.593750 0.500000
vt 0.593750 0.437500
vt 0.593750 0.937500
vt 0.593750 0.875000
vt 0.593750 0.375000
vt 0.593750 0.812500
vt 0.593750 0.312500
vt 0.593750 0.750000
vt 0.593750 0.250000
vt 0.593750 0.687500
vt 0.593750 0.187500
vt 0.593750 0.625000
vt 0.593750 0.125000
vt 0.593750 0.562500
vt 0.593750 0.062500
vt 0.609375 1.000000
vt 0.609375 0.000000
vt 0.562500 0.250000
vt 0.562500 0.187500
vt 0.562500 0.687500
vt 0.562500 0.625000
vt 0.562500 0.125000
vt 0.562500 0.562500
vt 0.562500 0.062500
vt 0.562500 0.500000
vt 0.578125 1.000000
vt 0.562500 0.937500
vt 0.578125 0.000000
vt 0.562500 0.437500
vt 0.562500 0.875000
vt 0.562500 0.375000
vt 0.562500 0.812500
vt 0.562500 0.312500
vt 0.562500 0.750000
vt 0.531250 0.437500
vt 0.531250 0.375000
vt 0.531250 0.875000
vt 0.531250 0.812500
vt 0.531250 0.312500
vt 0.531250 0.750000
vt 0.531250 0.250000
vt 0.531250 0.687500
vt 0.531250 0.187500
vt 0.531250 0.625000
vt 0.531250 0.125000
vt 0.531250 0.562500
vt 0.531250 0.062500
vt 0.531250 0.500000
vt 0.546875 1.000000
vt 0.531250 0.937500
vt 0.546875 0.000000
vt 0.500000 0.187500
vt 0.500000 0.125000
vt 0.500000 0.625000
vt 0.500000 0.562500
vt 0.500000 0.062500
vt 0.500000 0.500000
vt 0.515625 1.000000
vt 0.500000 0.937500
vt 0.515625 0.000000
vt 0.500000 0.437500
vt 0.500000 0.875000
vt 0.500000 0.375000
vt 0.500000 0.812500
vt 0.500000 0.312500
vt 0.500000 0.750000
vt 0.500000 0.250000
vt 0.500000 0.687500
vt 0.468750 0.875000
vt 0.468750 0.812500
vt 0.468750 0.375000
vt 0.468750 0.312500
vt 0.468750 0.750000
vt 0.468750 0.250000
vt 0.468750 0.687500
vt 0.468750 0.187500
vt 0.468750 0.625000
vt 0.468750 0.125000
vt 0.468750 0.562500
vt 0.468750 0.062500
vt 0.468750 0.500000
vt 0.484375 1.000000
vt 0.468750 0.937500
vt 0.484375 0.000000
vt 0.468750 0.437500
vt 0.437500 0.625000
vt 0.437500 0.562500
vt 0.437500 0.125000
vt 0.437500 0.062500
vt 0.437500 0.500000
vt 0.453125 1.000000
vt 0.437500 0.937500
vt 0.453125 0.000000
vt 0.437500 0.437500
vt 0.437500 0.875000
vt 0.437500 0.375000
vt 0.437500 0.812500
vt 0.437500 0.312500
vt 0.437500 0.750000
vt 0.437500 0.250000
vt 0.437500 0.687500
vt 0.437500 0.187500
vt 0.406250 0.375000
vt 0.406250 0.312500
vt 0.406250 0.812500
vt 0.406250 0.750000
vt 0.406250 0.250000
vt 0.406250 0.687500
vt 0.406250 0.187500
vt 0.406250 0.625000
vt 0.406250 0.125000
vt 0.406250 0.562500
vt 0.406250 0.062500
vt 0.406250 0.500000
vt 0.421875 1.000000
vt 0.406250 0.937500
vt 0.421875 0.000000
vt 0.406250 0.437500
vt 0.406250 0.875000
vt 0.375000 0.125000
vt 0.375000 0.062500
vt 0.375000 0.562500
vt 0.375000 0.500000
vt 0.390625 1.000000
vt 0.375000 0.937500
vt 0.390625 0.000000
vt 0.375000 0.437500
vt 0.375000 0.875000
vt 0.375000 0.375000
vt 0.375000 0.812500
vt 0.375000 0.312500
vt 0.375000 0.750000
vt 0.375000 0.687500
vt 0.375000 0.187500
vt 0.375000 0.625000
vt 0.343750 0.812500
vt 0.343750 0.750000
vt 0.343750 0.312500
vt 0.343750 0.250000
vt 0.343750 0.687500
vt 0.343750 0.187500
vt 0.343750 0.625000
vt 0.343750 0.125000
vt 0.343750 0.562500
vt 0.343750 0.062500
vt 0.343750 0.500000
vt 0.359375 1.000000
vt 0.343750 0.937500
vt 0.359375 0.000000
vt 0.343750 0.437500
vt 0.343750 0.875000
vt 0.343750 0.375000
vt 0.312500 0.562500
vt 0.312500 0.500000
vt 0.328125 1.000000
vt 0.312500 0.937500
vt 0.328125 0.000000
vt 0.312500 0.062500
vt 0.312500 0.437500
vt 0.312500 0.875000
vt 0.312500 0.375000
vt 0.312500 0.812500
vt 0.312500 0.312500
vt 0.312500 0.750000
vt 0.312500 0.250000
vt 0.312500 0.687500
vt 0.312500 0.187500
vt 0.312500 0.625000
vt 0.312500 0.125000
vt 0.281250 0.312500
vt 0.281250 0.250000
vt 0.281250 0.750000
vt 0.281250 0.687500
vt 0.281250 0.187500
vt 0.281250 0.625000
vt 0.281250 0.125000
vt 0.281250 0.562500
vt 0.281250 0.062500
vt 0.281250 0.500000
vt 0.296875 1.000000
vt 0.281250 0.937500
vt 0.296875 0.000000
vt 0.281250 0.437500
vt 0.281250 0.875000
vt 0.281250 0.375000
vt 0.281250 0.812500
vt 0.265625 0.000000
vt 0.250000 0.062500
vt 0.250000 0.500000
vt 0.250000 0.437500
vt 0.250000 0.937500
vt 0.250000 0.875000
vt 0.250000 0.375000
vt 0.250000 0.812500
vt 0.250000 0.312500
vt 0.250000 0.750000
vt 0.250000 0.250000
vt 0.250000 0.687500
vt 0.250000 0.187500
vt 0.250000 0.625000
vt 0.250000 0.125000
vt 0.250000 0.562500
vt 0.265625 1.000000
vt 0.218750 0.250000
vt 0.218750 0.187500
vt 0.218750 0.687500
vt 0.218750 0.625000
vt 0.218750 0.125000
vt 0.218750 0.562500
vt 0.218750 0.062500
vt 0.218750 0.500000
vt 0.234375 1.000000
vt 0.218750 0.937500
vt 0.234375 0.000000
vt 0.218750 0.437500
vt 0.218750 0.875000
vt 0.218750 0.375000
vt 0.218750 0.812500
vt 0.218750 0.312500
vt 0.218750 0.750000
vt 0.187500 0.937500
vt 0.187500 0.875000
vt 0.187500 0.437500
vt 0.187500 0.375000
vt 0.187500 0.812500
vt 0.187500 0.312500
vt 0.187500 0.750000
vt 0.187500 0.250000
vt 0.187500 0.687500
vt 0.187500 0.187500
vt 0.187500 0.625000
vt 0.187500 0.125000
vt 0.187500 0.562500
vt 0.187500 0.062500
vt 0.187500 0.500000
vt 0.203125 1.000000
vt 0.203125 0.000000
vt 0.156250 0.687500
vt 0.156250 0.625000
vt 0.156250 0.187500
vt 0.156250 0.125000
vt 0.156250 0.562500
vt 0.156250 0.062500
vt 0.156250 0.500000
vt 0.171875 1.000000
vt 0.156250 0.937500
vt 0.171875 0.000000
vt 0.156250 0.437500
vt 0.156250 0.875000
vt 0.156250 0.375000
vt 0.156250 0.812500
vt 0.156250 0.312500
vt 0.156250 0.750000
vt 0.156250 0.250000
vt 0.125000 0.437500
vt 0.125000 0.375000
vt 0.125000 0.875000
vt 0.125000 0.812500
vt 0.125000 0.312500
vt 0.125000 0.750000
vt 0.125000 0.250000
vt 0.125000 0.687500
vt 0.125000 0.187500
vt 0.125000 0.625000
vt 0.125000 0.125000
vt 0.125000 0.562500
vt 0.125000 0.062500
vt 0.125000 0.500000
vt 0.140625 1.000000
vt 0.125000 0.937500
vt 0.140625 0.000000
vt 0.093750 0.187500
vt 0.093750 0.125000
vt 0.093750 0.625000
vt 0.093750 0.562500
vt 0.093750 0.062500
vt 0.093750 0.500000
vt 0.109375 1.000000
vt 0.093750 0.937500
vt 0.109375 0.000000
vt 0.093750 0.437500
vt 0.093750 0.875000
vt 0.093750 0.375000
vt 0.093750 0.812500
vt 0.093750 0.312500
vt 0.093750 0.750000
vt 0.093750 0.250000
vt 0.093750 0.687500
vt 0.062500 0.875000
vt 0.062500 0.812500
vt 0.062500 0.375000
vt 0.062500 0.312500
vt 0.062500 0.750000
vt 0.062500 0.250000
vt 0.062500 0.687500
vt 0.062500 0.187500
vt 0.062500 0.625000
vt 0.062500 0.125000
vt 0.062500 0.562500
vt 0.062500 0.062500
vt 0.062500 0.500000
vt 0.078125 1.000000
vt 0.062500 0.937500
vt 0.078125 0.000000
vt 0.062500 0.437500
vt 0.031250 0.625000
vt 0.031250 0.562500
vt 0.031250 0.125000
vt 0.031250 0.062500
vt 0.031250 0.500000
vt 0.046875 1.000000
vt 0.031250 0.937500
vt 0.046875 0.000000
vt 0.031250 0.437500
vt 0.031250 0.875000
vt 0.031250 0.375000
vt 0.031250 0.812500
vt 0.031250 0.312500
vt 0.031250 0.750000
vt 0.031250 0.250000
vt 0.031250 0.687500
vt 0.031250 0.187500
vt 0.000000 0.375000
vt 0.000000 0.312500
vt 0.000000 0.812500
vt 0.000000 0.750000
vt 0.000000 0.250000
vt 0.000000 0.687500
vt 0.000000 0.187500
vt 0.000000 0.625000
vt 0.000000 0.125000
vt 0.000000 0.562500
vt 0.000000 0.062500
vt 0.000000 0.500000
vt 0.015625 1.000000
vt 0.000000 0.937500
vt 0.015625 0.000000
vt 0.000000 0.437500
vt 0.000000 0.875000
vt 1.000000 0.062500
vt 1.000000 0.125000
vt 0.968750 0.125000
vt 0.968750 0.062500
vt 1.000000 0.500000
vt 1.000000 0.562500
vt 0.968750 0.562500
vt 0.968750 0.500000
vt 1.000000 0.937500
vt 0.984375 1.000000
vt 0.968750 0.937500
vt 0.984375 0.000000
vt 1.000000 0.437500
vt 0.968750 0.437500
vt 1.000000 0.875000
vt 0.968750 0.875000
vt 1.000000 0.375000
vt 0.968750 0.375000
vt 1.000000 0.812500
vt 0.968750 0.812500
vt 1.000000 0.312500
vt 0.968750 0.312500
vt 1.000000 0.750000
vt 0.968750 0.750000
vt 1.000000 0.250000
vt 0.968750 0.250000
vt 1.000000 0.687500
vt 0.968750 0.687500
vt 1.000000 0.187500
vt 0.968750 0.187500
vt 1.000000 0.625000
vt 0.968750 0.625000
vt 0.937500 0.312500
vt 0.937500 0.250000
vt 0.937500 0.750000
vt 0.937500 0.687500
vt 0.937500 0.187500
vt 0.937500 0.625000
vt 0.937500 0.125000
vt 0.937500 0.562500
vt 0.937500 0.062500
vt 0.937500 0.500000
vt 0.953125 1.000000
vt 0.937500 0.937500
vt 0.953125 0.000000
vt 0.937500 0.437500
vt 0.937500 0.875000
vt 0.937500 0.375000
vt 0.937500 0.812500
vt 0.921875 1.000000
vt 0.906250 0.937500
vt 0.921875 0.000000
vt 0.906250 0.062500
vt 0.906250 0.500000
vt 0.906250 0.437500
vt 0.906250 0.875000
vt 0.906250 0.375000
vt 0.906250 0.812500
vt 0.906250 0.312500
vt 0.906250 0.750000
vt 0.906250 0.250000
vt 0.906250 0.687500
vt 0.906250 0.187500
vt 0.906250 0.625000
vt 0.906250 0.125000
vt 0.906250 0.562500
vt 0.875000 0.750000
vt 0.875000 0.687500
vt 0.875000 0.250000
vt 0.875000 0.187500
vt 0.875000 0.625000
vt 0.875000 0.125000
vt 0.875000 0.562500
vt 0.875000 0.062500
vt 0.875000 0.500000
vt 0.890625 1.000000
vt 0.875000 0.937500
vt 0.890625 0.000000
vt 0.875000 0.437500
vt 0.875000 0.875000
vt 0.875000 0.375000
vt 0.875000 0.812500
vt 0.875000 0.312500
vt 0.843750 0.500000
vt 0.843750 0.437500
vt 0.843750 0.937500
vt 0.843750 0.875000
vt 0.843750 0.375000
vt 0.843750 0.812500
vt 0.843750 0.312500
vt 0.843750 0.750000
vt 0.843750 0.250000
vt 0.843750 0.687500
vt 0.843750 0.187500
vt 0.843750 0.625000
vt 0.843750 0.125000
vt 0.843750 0.562500
vt 0.843750 0.062500
vt 0.859375 1.000000
vt 0.859375 0.000000
vt 0.812500 0.250000
vt 0.812500 0.187500
vt 0.812500 0.687500
vt 0.812500 0.625000
vt 0.812500 0.125000
vt 0.812500 0.562500
vt 0.812500 0.062500
vt 0.812500 0.500000
vt 0.828125 1.000000
vt 0.812500 0.937500
vt 0.828125 0.000000
vt 0.812500 0.437500
vt 0.812500 0.875000
vt 0.812500 0.375000
vt 0.812500 0.812500
vt 0.812500 0.312500
vt 0.812500 0.750000
vt 0.781250 0.937500
vt 0.781250 0.875000
vt 0.781250 0.437500
vt 0.781250 0.375000
vt 0.781250 0.812500
vt 0.781250 0.312500
vt 0.781250 0.750000
vt 0.781250 0.250000
vt 0.781250 0.687500
vt 0.781250 0.187500
vt 0.781250 0.625000
vt 0.781250 0.125000
vt 0.781250 0.562500
vt 0.781250 0.062500
vt 0.781250 0.500000
vt 0.796875 1.000000
vt 0.796875 0.000000
vt 0.765625 1.000000
vt 0.765625 0.000000
s 0
f 1/1/1 2/2/1 4/3/1 3/4/1
f 3/4/2 4/3/2 8/5/2 7/6/2
f 7/6/3 8/5/3 6/7/3 5/8/3
f 5/8/4 6/7/4 2/9/4 1/10/4
f 3/11/5 7/6/5 5/8/5 1/12/5
f 6/7/6 8/5/6 11/5/6 12/7/6
f 11/5/7 10/13/7 9/14/7 12/7/7
f 4/3/8 2/2/8 9/2/8 10/3/8
f 2/9/9 6/7/9 12/7/9 9/9/9
f 8/5/10 4/3/10 10/3/10 11/5/10
f 492/15/11 491/16/11 30/17/11 31/18/11
f 489/19/12 14/20/12 23/21/12 24/22/12
f 493/23/13 492/15/13 31/18/13 32/24/13
f 15/25/14 489/19/14 24/22/14 25/26/14
f 494/27/15 493/23/15 32/24/15 33/28/15
f 16/29/16 15/25/16 25/26/16 26/30/16
f 486/31/17 94/32/17 19/33/17
f 320/34/18 494/27/18 33/28/18
f 17/35/19 16/29/19 26/30/19 27/36/19
f 487/37/20 486/31/20 19/33/20 20/38/20
f 490/39/21 17/35/21 27/36/21 28/40/21
f 13/41/22 487/37/22 20/38/22 21/42/22
f 18/43/23 490/39/23 28/40/23 29/44/23
f 488/45/24 13/41/24 21/42/24 22/46/24
f 491/16/25 18/43/25 29/44/25 30/17/25
f 14/20/26 488/45/26 22/46/26 23/21/26
f 30/17/27 29/44/27 44/47/27 45/48/27
f 23/21/28 22/46/28 37/49/28 38/50/28
f 31/18/29 30/17/29 45/48/29 46/51/29
f 24/22/30 23/21/30 38/50/30 39/52/30
f 32/24/31 31/18/31 46/51/31 47/53/31
f 25/26/32 24/22/32 39/52/32 40/54/32
f 33/28/33 32/24/33 47/53/33 48/55/33
f 26/30/34 25/26/34 40/54/34 41/56/34
f 19/33/35 94/57/35 34/58/35
f 320/59/36 33/28/36 48/55/36
f 27/36/37 26/30/37 41/56/37 42/60/37
f 20/38/38 19/33/38 34/58/38 35/61/38
f 28/40/39 27/36/39 42/60/39 43/62/39
f 21/42/40 20/38/40 35/61/40 36/63/40
f 29/44/41 28/40/41 43/62/41 44/47/41
f 22/46/42 21/42/42 36/63/42 37/49/42
f 34/58/43 94/64/43 49/65/43
f 320/66/44 48/55/44 63/67/44
f 42/60/45 41/56/45 56/68/45 57/69/45
f 35/61/46 34/58/46 49/65/46 50/70/46
f 43/62/47 42/60/47 57/69/47 58/71/47
f 36/63/48 35/61/48 50/70/48 51/72/48
f 44/47/49 43/62/49 58/71/49 59/73/49
f 37/49/50 36/63/50 51/72/50 52/74/50
f 45/48/51 44/47/51 59/73/51 60/75/51
f 38/50/52 37/49/52 52/74/52 53/76/52
f 46/51/53 45/48/53 60/75/53 61/77/53
f 39/52/54 38/50/54 53/76/54 54/78/54
f 47/53/55 46/51/55 61/77/55 62/79/55
f 40/54/56 39/52/56 54/78/56 55/80/56
f 48/55/57 47/53/57 62/79/57 63/67/57
f 41/56/58 40/54/58 55/80/58 56/68/58
f 53/76/59 52/74/59 67/7/59 68/81/59
f 61/77/60 60/75/60 75/3/60 76/82/60
f 54/78/61 53/76/61 68/81/61 69/83/61
f 62/79/62 61/77/62 76/82/62 77/84/62
f 55/80/63 54/78/63 69/83/63 70/85/63
f 63/67/64 62/79/64 77/84/64 78/86/64
f 56/68/65 55/80/65 70/85/65 71/5/65
f 49/65/66 94/87/66 64/88/66
f 320/89/67 63/67/67 78/86/67
f 57/69/68 56/68/68 71/5/68 72/90/68
f 50/70/69 49/65/69 64/88/69 65/91/69
f 58/71/70 57/69/70 72/90/70 73/92/70
f 51/72/71 50/70/71 65/91/71 66/93/71
f 59/73/72 58/71/72 73/92/72 74/94/72
f 52/74/73 51/72/73 66/93/73 67/7/73
f 60/75/74 59/73/74 74/94/74 75/3/74
f 72/90/75 71/5/75 86/95/75 87/96/75
f 65/91/76 64/88/76 79/97/76 80/98/76
f 73/92/77 72/90/77 87/96/77 88/99/77
f 66/93/78 65/91/78 80/98/78 81/100/78
f 74/94/79 73/92/79 88/99/79 89/101/79
f 67/7/80 66/93/80 81/100/80 82/102/80
f 75/3/81 74/94/81 89/101/81 90/103/81
f 68/81/82 67/7/82 82/102/82 83/104/82
f 76/82/83 75/3/83 90/103/83 91/105/83
f 69/83/84 68/81/84 83/104/84 84/106/84
f 77/84/85 76/82/85 91/105/85 92/107/85
f 70/85/86 69/83/86 84/106/86 85/108/86
f 78/86/87 77/84/87 92/107/87 93/109/87
f 71/5/88 70/85/88 85/108/88 86/95/88
f 64/88/89 94/110/89 79/97/89
f 320/111/90 78/86/90 93/109/90
f 91/105/91 90/103/91 106/112/91 107/113/91
f 84/106/92 83/104/92 99/114/92 100/115/92
f 92/107/93 91/105/93 107/113/93 108/116/93
f 85/108/94 84/106/94 100/115/94 101/117/94
f 93/109/95 92/107/95 108/116/95 109/118/95
f 86/95/96 85/108/96 101/117/96 102/119/96
f 79/97/97 94/120/97 95/121/97
f 320/122/98 93/109/98 109/118/98
f 87/96/99 86/95/99 102/119/99 103/123/99
f 80/98/100 79/97/100 95/121/100 96/124/100
f 88/99/101 87/96/101 103/123/101 104/125/101
f 81/100/102 80/98/102 96/124/102 97/126/102
f 89/101/103 88/99/103 104/125/103 105/127/103
f 82/102/104 81/100/104 97/126/104 98/128/104
f 90/103/105 89/101/105 105/127/105 106/112/105
f 83/104/106 82/102/106 98/128/106 99/114/106
f 104/125/107 103/123/107 118/129/107 119/130/107
f 97/126/108 96/124/108 111/131/108 112/132/108
f 105/127/109 104/125/109 119/130/109 120/133/109
f 98/128/110 97/126/110 112/132/110 113/134/110
f 106/112/111 105/127/111 120/133/111 121/135/111
f 99/114/112 98/128/112 113/134/112 114/136/112
f 107/113/113 106/112/113 121/135/113 122/137/113
f 100/115/114 99/114/114 114/136/114 115/138/114
f 108/116/115 107/113/115 122/137/115 123/139/115
f 101/117/116 100/115/116 115/138/116 116/140/116
f 109/118/117 108/116/117 123/139/117 124/141/117
f 102/119/118 101/117/118 116/140/118 117/142/118
f 95/121/119 94/143/119 110/144/119
f 320/145/120 109/118/120 124/141/120
f 103/123/121 102/119/121 117/142/121 118/129/121
f 96/124/122 95/121/122 110/144/122 111/131/122
f 123/139/123 122/137/123 137/146/123 138/147/123
f 116/140/124 115/138/124 130/148/124 131/149/124
f 124/141/125 123/139/125 138/147/125 139/150/125
f 117/142/126 116/140/126 131/149/126 132/151/126
f 110/144/127 94/152/127 125/153/127
f 320/154/128 124/141/128 139/150/128
f 118/129/129 117/142/129 132/151/129 133/155/129
f 111/131/130 110/144/130 125/153/130 126/156/130
f 119/130/131 118/129/131 133/155/131 134/157/131
f 112/132/132 111/131/132 126/156/132 127/158/132
f 120/133/133 119/130/133 134/157/133 135/159/133
f 113/134/134 112/132/134 127/158/134 128/160/134
f 121/135/135 120/133/135 135/159/135 136/161/135
f 114/136/136 113/134/136 128/160/136 129/162/136
f 122/137/137 121/135/137 136/161/137 137/146/137
f 115/138/138 114/136/138 129/162/138 130/148/138
f 127/158/139 126/156/139 141/163/139 142/164/139
f 135/159/140 134/157/140 149/165/140 150/166/140
f 128/160/141 127/158/141 142/164/141 143/167/141
f 136/161/142 135/159/142 150/166/142 151/168/142
f 129/162/143 128/160/143 143/167/143 144/169/143
f 137/146/144 136/161/144 151/168/144 152/170/144
f 130/148/145 129/162/145 144/169/145 145/171/145
f 138/147/146 137/146/146 152/170/146 153/172/146
f 131/149/147 130/148/147 145/171/147 146/173/147
f 139/150/148 138/147/148 153/172/148 154/174/148
f 132/151/149 131/149/149 146/173/149 147/175/149
f 125/153/150 94/176/150 140/177/150
f 320/178/151 139/150/151 154/174/151
f 133/155/152 132/151/152 147/175/152 148/179/152
f 126/156/153 125/153/153 140/177/153 141/163/153
f 134/157/154 133/155/154 148/179/154 149/165/154
f 146/173/155 145/171/155 160/180/155 161/181/155
f 154/174/156 153/172/156 168/182/156 169/183/156
f 147/175/157 146/173/157 161/181/157 162/184/157
f 140/177/158 94/185/158 155/186/158
f 320/187/159 154/174/159 169/183/159
f 148/179/160 147/175/160 162/184/160 163/188/160
f 141/163/161 140/177/161 155/186/161 156/189/161
f 149/165/162 148/179/162 163/188/162 164/190/162
f 142/164/163 141/163/163 156/189/163 157/191/163
f 150/166/164 149/165/164 164/190/164 165/192/164
f 143/167/165 142/164/165 157/191/165 158/193/165
f 151/168/166 150/166/166 165/192/166 166/194/166
f 144/169/167 143/167/167 158/193/167 159/195/167
f 152/170/168 151/168/168 166/194/168 167/196/168
f 145/171/169 144/169/169 159/195/169 160/180/169
f 153/172/170 152/170/170 167/196/170 168/182/170
f 165/192/171 164/190/171 179/197/171 180/198/171
f 158/193/172 157/191/172 172/199/172 173/200/172
f 166/194/173 165/192/173 180/198/173 181/201/173
f 159/195/174 158/193/174 173/200/174 174/202/174
f 167/196/175 166/194/175 181/201/175 182/203/175
f 160/180/176 159/195/176 174/202/176 175/204/176
f 168/182/177 167/196/177 182/203/177 183/205/177
f 161/181/178 160/180/178 175/204/178 176/206/178
f 169/183/179 168/182/179 183/205/179 184/207/179
f 162/184/180 161/181/180 176/206/180 177/208/180
f 155/186/181 94/209/181 170/210/181
f 320/211/182 169/183/182 184/207/182
f 163/188/183 162/184/183 177/208/183 178/212/183
f 156/189/184 155/186/184 170/210/184 171/213/184
f 164/190/185 163/188/185 178/212/185 179/197/185
f 157/191/186 156/189/186 171/213/186 172/199/186
f 184/207/187 183/205/187 198/214/187 199/215/187
f 177/208/188 176/206/188 191/216/188 192/217/188
f 170/210/189 94/218/189 185/219/189
f 320/220/190 184/207/190 199/215/190
f 178/212/191 177/208/191 192/217/191 193/221/191
f 171/213/192 170/210/192 185/219/192 186/222/192
f 179/197/193 178/212/193 193/221/193 194/223/193
f 172/199/194 171/213/194 186/222/194 187/224/194
f 180/198/195 179/197/195 194/223/195 195/225/195
f 173/200/196 172/199/196 187/224/196 188/226/196
f 181/201/197 180/198/197 195/225/197 196/4/197
f 174/202/198 173/200/198 188/226/198 189/227/198
f 182/203/199 181/201/199 196/4/199 197/228/199
f 175/204/200 174/202/200 189/227/200 190/229/200
f 183/205/201 182/203/201 197/228/201 198/214/201
f 176/206/202 175/204/202 190/229/202 191/216/202
f 188/226/203 187/224/203 202/230/203 203/231/203
f 196/4/204 195/225/204 210/232/204 211/233/204
f 189/227/205 188/226/205 203/231/205 204/234/205
f 197/228/206 196/4/206 211/233/206 212/235/206
f 190/229/207 189/227/207 204/234/207 205/236/207
f 198/214/208 197/228/208 212/235/208 213/237/208
f 191/216/209 190/229/209 205/236/209 206/238/209
f 199/215/210 198/214/210 213/237/210 214/239/210
f 192/217/211 191/216/211 206/238/211 207/240/211
f 185/219/212 94/241/212 200/242/212
f 320/243/213 199/215/213 214/239/213
f 193/221/214 192/217/214 207/240/214 208/244/214
f 186/222/215 185/219/215 200/242/215 201/245/215
f 194/223/216 193/221/216 208/244/216 209/246/216
f 187/224/217 186/222/217 201/245/217 202/230/217
f 195/225/218 194/223/218 209/246/218 210/232/218
f 207/240/219 206/238/219 221/247/219 222/248/219
f 200/242/220 94/249/220 215/250/220
f 320/251/221 214/239/221 229/252/221
f 208/244/222 207/240/222 222/248/222 223/253/222
f 201/245/223 200/242/223 215/250/223 216/254/223
f 209/246/224 208/244/224 223/253/224 224/255/224
f 202/230/225 201/245/225 216/254/225 217/256/225
f 210/232/226 209/246/226 224/255/226 225/257/226
f 203/231/227 202/230/227 217/256/227 218/258/227
f 211/233/228 210/232/228 225/257/228 226/259/228
f 204/234/229 203/231/229 218/258/229 219/260/229
f 212/235/230 211/233/230 226/259/230 227/261/230
f 205/236/231 204/234/231 219/260/231 220/262/231
f 213/237/232 212/235/232 227/261/232 228/263/232
f 206/238/233 205/236/233 220/262/233 221/247/233
f 214/239/234 213/237/234 228/263/234 229/252/234
f 226/259/235 225/257/235 240/264/235 241/265/235
f 219/260/236 218/258/236 233/266/236 234/267/236
f 227/261/237 226/259/237 241/265/237 242/268/237
f 220/262/238 219/260/238 234/267/238 235/269/238
f 228/263/239 227/261/239 242/268/239 243/270/239
f 221/247/240 220/262/240 235/269/240 236/271/240
f 229/252/241 228/263/241 243/270/241 244/272/241
f 222/248/242 221/247/242 236/271/242 237/273/242
f 215/250/243 94/274/243 230/275/243
f 320/276/244 229/252/244 244/272/244
f 223/253/245 222/248/245 237/273/245 238/277/245
f 216/254/246 215/250/246 230/275/246 231/278/246
f 224/255/247 223/253/247 238/277/247 239/279/247
f 217/256/248 216/254/248 231/278/248 232/280/248
f 225/257/249 224/255/249 239/279/249 240/264/249
f 218/258/250 217/256/250 232/280/250 233/266/250
f 320/281/251 244/272/251 259/282/251
f 238/277/252 237/273/252 252/283/252 253/284/252
f 231/278/253 230/275/253 245/285/253 246/286/253
f 239/279/254 238/277/254 253/284/254 254/287/254
f 232/280/255 231/278/255 246/286/255 247/288/255
f 240/264/256 239/279/256 254/287/256 255/289/256
f 233/266/257 232/280/257 247/288/257 248/290/257
f 241/265/258 240/264/258 255/289/258 256/291/258
f 234/267/259 233/266/259 248/290/259 249/292/259
f 242/268/260 241/265/260 256/291/260 257/293/260
f 235/269/261 234/267/261 249/292/261 250/294/261
f 243/270/262 242/268/262 257/293/262 258/295/262
f 236/271/263 235/269/263 250/294/263 251/296/263
f 244/272/264 243/270/264 258/295/264 259/282/264
f 237/273/265 236/271/265 251/296/265 252/283/265
f 230/275/266 94/297/266 245/285/266
f 257/293/267 256/291/267 271/298/267 272/299/267
f 250/294/268 249/292/268 264/300/268 265/301/268
f 258/295/269 257/293/269 272/299/269 273/302/269
f 251/296/270 250/294/270 265/301/270 266/303/270
f 259/282/271 258/295/271 273/302/271 274/304/271
f 252/283/272 251/296/272 266/303/272 267/305/272
f 245/285/273 94/306/273 260/307/273
f 320/308/274 259/282/274 274/304/274
f 253/284/275 252/283/275 267/305/275 268/309/275
f 246/286/276 245/285/276 260/307/276 261/310/276
f 254/287/277 253/284/277 268/309/277 269/311/277
f 247/288/278 246/286/278 261/310/278 262/312/278
f 255/289/279 254/287/279 269/311/279 270/313/279
f 248/290/280 247/288/280 262/312/280 263/314/280
f 256/291/281 255/289/281 270/313/281 271/298/281
f 249/292/282 248/290/282 263/314/282 264/300/282
f 261/310/283 260/307/283 275/315/283 276/316/283
f 269/311/284 268/309/284 283/317/284 284/318/284
f 262/312/285 261/310/285 276/316/285 277/319/285
f 270/313/286 269/311/286 284/318/286 285/320/286
f 263/314/287 262/312/287 277/319/287 278/321/287
f 271/298/288 270/313/288 285/320/288 286/322/288
f 264/300/289 263/314/289 278/321/289 279/323/289
f 272/299/290 271/298/290 286/322/290 287/324/290
f 265/301/291 264/300/291 279/323/291 280/325/291
f 273/302/292 272/299/292 287/324/292 288/326/292
f 266/303/293 265/301/293 280/325/293 281/327/293
f 274/304/294 273/302/294 288/326/294 289/328/294
f 267/305/295 266/303/295 281/327/295 282/329/295
f 260/307/296 94/330/296 275/315/296
f 320/331/297 274/304/297 289/328/297
f 268/309/298 267/305/298 282/329/298 283/317/298
f 280/325/299 279/323/299 294/332/299 295/333/299
f 288/326/300 287/324/300 302/334/300 303/335/300
f 281/327/301 280/325/301 295/333/301 296/336/301
f 289/328/302 288/326/302 303/335/302 304/337/302
f 282/329/303 281/327/303 296/336/303 297/338/303
f 275/315/304 94/339/304 290/340/304
f 320/341/305 289/328/305 304/337/305
f 283/317/306 282/329/306 297/338/306 298/342/306
f 276/316/307 275/315/307 290/340/307 291/343/307
f 284/318/308 283/317/308 298/342/308 299/344/308
f 277/319/309 276/316/309 291/343/309 292/345/309
f 285/320/310 284/318/310 299/344/310 300/346/310
f 278/321/311 277/319/311 292/345/311 293/347/311
f 286/322/312 285/320/312 300/346/312 301/348/312
f 279/323/313 278/321/313 293/347/313 294/332/313
f 287/324/314 286/322/314 301/348/314 302/334/314
f 299/344/315 298/342/315 313/349/315 314/350/315
f 292/345/316 291/343/316 306/351/316 307/352/316
f 300/346/317 299/344/317 314/350/317 315/353/317
f 293/347/318 292/345/318 307/352/318 308/354/318
f 301/348/319 300/346/319 315/353/319 316/355/319
f 294/332/320 293/347/320 308/354/320 309/356/320
f 302/334/321 301/348/321 316/355/321 317/357/321
f 295/333/322 294/332/322 309/356/322 310/358/322
f 303/335/323 302/334/323 317/357/323 318/359/323
f 296/336/324 295/333/324 310/358/324 311/360/324
f 304/337/325 303/335/325 318/359/325 319/361/325
f 297/338/326 296/336/326 311/360/326 312/362/326
f 290/340/327 94/363/327 305/364/327
f 320/365/328 304/337/328 319/361/328
f 298/342/329 297/338/329 312/362/329 313/349/329
f 291/343/330 290/340/330 305/364/330 306/351/330
f 318/359/331 317/357/331 333/366/331 334/367/331
f 311/360/332 310/358/332 326/368/332 327/369/332
f 319/361/333 318/359/333 334/367/333 335/370/333
f 312/362/334 311/360/334 327/369/334 328/371/334
f 305/364/335 94/372/335 321/373/335
f 320/374/336 319/361/336 335/370/336
f 313/349/337 312/362/337 328/371/337 329/375/337
f 306/351/338 305/364/338 321/373/338 322/376/338
f 314/350/339 313/349/339 329/375/339 330/377/339
f 307/352/340 306/351/340 322/376/340 323/378/340
f 315/353/341 314/350/341 330/377/341 331/379/341
f 308/354/342 307/352/342 323/378/342 324/380/342
f 316/355/343 315/353/343 331/379/343 332/381/343
f 309/356/344 308/354/344 324/380/344 325/382/344
f 317/357/345 316/355/345 332/381/345 333/366/345
f 310/358/346 309/356/346 325/382/346 326/368/346
f 323/378/347 322/376/347 337/383/347 338/384/347
f 331/379/348 330/377/348 345/385/348 346/386/348
f 324/380/349 323/378/349 338/384/349 339/387/349
f 332/381/350 331/379/350 346/386/350 347/388/350
f 325/382/351 324/380/351 339/387/351 340/389/351
f 333/366/352 332/381/352 347/388/352 348/390/352
f 326/368/353 325/382/353 340/389/353 341/391/353
f 334/367/354 333/366/354 348/390/354 349/392/354
f 327/369/355 326/368/355 341/391/355 342/393/355
f 335/370/356 334/367/356 349/392/356 350/394/356
f 328/371/357 327/369/357 342/393/357 343/395/357
f 321/373/358 94/396/358 336/397/358
f 320/398/359 335/370/359 350/394/359
f 329/375/360 328/371/360 343/395/360 344/399/360
f 322/376/361 321/373/361 336/397/361 337/383/361
f 330/377/362 329/375/362 344/399/362 345/385/362
f 342/393/363 341/391/363 356/400/363 357/401/363
f 350/394/364 349/392/364 364/402/364 365/403/364
f 343/395/365 342/393/365 357/401/365 358/404/365
f 336/397/366 94/405/366 351/406/366
f 320/407/367 350/394/367 365/403/367
f 344/399/368 343/395/368 358/404/368 359/408/368
f 337/383/369 336/397/369 351/406/369 352/409/369
f 345/385/370 344/399/370 359/408/370 360/410/370
f 338/384/371 337/383/371 352/409/371 353/411/371
f 346/386/372 345/385/372 360/410/372 361/412/372
f 339/387/373 338/384/373 353/411/373 354/413/373
f 347/388/374 346/386/374 361/412/374 362/414/374
f 340/389/375 339/387/375 354/413/375 355/415/375
f 348/390/376 347/388/376 362/414/376 363/416/376
f 341/391/377 340/389/377 355/415/377 356/400/377
f 349/392/378 348/390/378 363/416/378 364/402/378
f 361/412/379 360/410/379 375/417/379 376/418/379
f 354/413/380 353/411/380 368/419/380 369/420/380
f 362/414/381 361/412/381 376/418/381 377/421/381
f 355/415/382 354/413/382 369/420/382 370/422/382
f 363/416/383 362/414/383 377/421/383 378/423/383
f 356/400/384 355/415/384 370/422/384 371/424/384
f 364/402/385 363/416/385 378/423/385 379/425/385
f 357/401/386 356/400/386 371/424/386 372/426/386
f 365/403/387 364/402/387 379/425/387 380/427/387
f 358/404/388 357/401/388 372/426/388 373/428/388
f 351/406/389 94/429/389 366/430/389
f 320/431/390 365/403/390 380/427/390
f 359/408/391 358/404/391 373/428/391 374/432/391
f 352/409/392 351/406/392 366/430/392 367/433/392
f 360/410/393 359/408/393 374/432/393 375/417/393
f 353/411/394 352/409/394 367/433/394 368/419/394
f 380/434/395 379/435/395 394/436/395 395/437/395
f 373/438/396 372/439/396 387/440/396 388/441/396
f 366/442/397 94/443/397 381/444/397
f 320/445/398 380/434/398 395/437/398
f 374/446/399 373/438/399 388/441/399 389/447/399
f 367/448/400 366/442/400 381/444/400 382/449/400
f 375/450/401 374/446/401 389/447/401 390/451/401
f 368/452/402 367/448/402 382/449/402 383/453/402
f 376/454/403 375/450/403 390/451/403 391/455/403
f 369/456/404 368/452/404 383/453/404 384/457/404
f 377/458/405 376/454/405 391/455/405 392/459/405
f 370/460/406 369/456/406 384/457/406 385/461/406
f 378/462/407 377/458/407 392/459/407 393/463/407
f 371/464/408 370/460/408 385/461/408 386/465/408
f 379/435/409 378/462/409 393/463/409 394/436/409
f 372/439/410 371/464/410 386/465/410 387/440/410
f 392/459/411 391/455/411 406/466/411 407/467/411
f 385/461/412 384/457/412 399/468/412 400/469/412
f 393/463/413 392/459/413 407/467/413 408/470/413
f 386/465/414 385/461/414 400/469/414 401/471/414
f 394/436/415 393/463/415 408/470/415 409/472/415
f 387/440/416 386/465/416 401/471/416 402/473/416
f 395/437/417 394/436/417 409/472/417 410/474/417
f 388/441/418 387/440/418 402/473/418 403/475/418
f 381/444/419 94/476/419 396/477/419
f 320/478/420 395/437/420 410/474/420
f 389/447/421 388/441/421 403/475/421 404/479/421
f 382/449/422 381/444/422 396/477/422 397/480/422
f 390/451/423 389/447/423 404/479/423 405/481/423
f 383/453/424 382/449/424 397/480/424 398/482/424
f 391/455/425 390/451/425 405/481/425 406/466/425
f 384/457/426 383/453/426 398/482/426 399/468/426
f 396/477/427 94/483/427 411/484/427
f 320/485/428 410/474/428 425/486/428
f 404/479/429 403/475/429 418/487/429 419/488/429
f 397/480/430 396/477/430 411/484/430 412/489/430
f 405/481/431 404/479/431 419/488/431 420/490/431
f 398/482/432 397/480/432 412/489/432 413/491/432
f 406/466/433 405/481/433 420/490/433 421/492/433
f 399/468/434 398/482/434 413/491/434 414/493/434
f 407/467/435 406/466/435 421/492/435 422/494/435
f 400/469/436 399/468/436 414/493/436 415/495/436
f 408/470/437 407/467/437 422/494/437 423/496/437
f 401/471/438 400/469/438 415/495/438 416/497/438
f 409/472/439 408/470/439 423/496/439 424/498/439
f 402/473/440 401/471/440 416/497/440 417/499/440
f 410/474/441 409/472/441 424/498/441 425/486/441
f 403/475/442 402/473/442 417/499/442 418/487/442
f 415/495/443 414/493/443 429/500/443 430/501/443
f 423/496/444 422/494/444 437/502/444 438/503/444
f 416/497/445 415/495/445 430/501/445 431/504/445
f 424/498/446 423/496/446 438/503/446 439/505/446
f 417/499/447 416/497/447 431/504/447 432/506/447
f 425/486/448 424/498/448 439/505/448 440/507/448
f 418/487/449 417/499/449 432/506/449 433/508/449
f 411/484/450 94/509/450 426/510/450
f 320/511/451 425/486/451 440/507/451
f 419/488/452 418/487/452 433/508/452 434/512/452
f 412/489/453 411/484/453 426/510/453 427/513/453
f 420/490/454 419/488/454 434/512/454 435/514/454
f 413/491/455 412/489/455 427/513/455 428/515/455
f 421/492/456 420/490/456 435/514/456 436/516/456
f 414/493/457 413/491/457 428/515/457 429/500/457
f 422/494/458 421/492/458 436/516/458 437/502/458
f 434/512/459 433/508/459 448/517/459 449/518/459
f 427/513/460 426/510/460 441/519/460 442/520/460
f 435/514/461 434/512/461 449/518/461 450/521/461
f 428/515/462 427/513/462 442/520/462 443/522/462
f 436/516/463 435/514/463 450/521/463 451/523/463
f 429/500/464 428/515/464 443/522/464 444/524/464
f 437/502/465 436/516/465 451/523/465 452/525/465
f 430/501/466 429/500/466 444/524/466 445/526/466
f 438/503/467 437/502/467 452/525/467 453/527/467
f 431/504/468 430/501/468 445/526/468 446/528/468
f 439/505/469 438/503/469 453/527/469 454/529/469
f 432/506/470 431/504/470 446/528/470 447/530/470
f 440/507/471 439/505/471 454/529/471 455/531/471
f 433/508/472 432/506/472 447/530/472 448/517/472
f 426/510/473 94/532/473 441/519/473
f 320/533/474 440/507/474 455/531/474
f 453/527/475 452/525/475 467/534/475 468/535/475
f 446/528/476 445/526/476 460/536/476 461/537/476
f 454/529/477 453/527/477 468/535/477 469/538/477
f 447/530/478 446/528/478 461/537/478 462/539/478
f 455/531/479 454/529/479 469/538/479 470/540/479
f 448/517/480 447/530/480 462/539/480 463/541/480
f 441/519/481 94/542/481 456/543/481
f 320/544/482 455/531/482 470/540/482
f 449/518/483 448/517/483 463/541/483 464/545/483
f 442/520/484 441/519/484 456/543/484 457/546/484
f 450/521/485 449/518/485 464/545/485 465/547/485
f 443/522/486 442/520/486 457/546/486 458/548/486
f 451/523/487 450/521/487 465/547/487 466/549/487
f 444/524/488 443/522/488 458/548/488 459/550/488
f 452/525/489 451/523/489 466/549/489 467/534/489
f 445/526/490 444/524/490 459/550/490 460/536/490
f 457/546/491 456/543/491 471/551/491 472/552/491
f 465/547/492 464/545/492 479/553/492 480/554/492
f 458/548/493 457/546/493 472/552/493 473/555/493
f 466/549/494 465/547/494 480/554/494 481/556/494
f 459/550/495 458/548/495 473/555/495 474/557/495
f 467/534/496 466/549/496 481/556/496 482/558/496
f 460/536/497 459/550/497 474/557/497 475/559/497
f 468/535/498 467/534/498 482/558/498 483/560/498
f 461/537/499 460/536/499 475/559/499 476/561/499
f 469/538/500 468/535/500 483/560/500 484/562/500
f 462/539/501 461/537/501 476/561/501 477/563/501
f 470/540/502 469/538/502 484/562/502 485/564/502
f 463/541/503 462/539/503 477/563/503 478/565/503
f 456/543/504 94/566/504 471/551/504
f 320/567/505 470/540/505 485/564/505
f 464/545/506 463/541/506 478/565/506 479/553/506
f 476/561/507 475/559/507 14/20/507 489/19/507
f 484/562/508 483/560/508 492/15/508 493/23/508
f 477/563/509 476/561/509 489/19/509 15/25/509
f 485/564/510 484/562/510 493/23/510 494/27/510
f 478/565/511 477/563/511 15/25/511 16/29/511
f 471/551/512 94/568/512 486/31/512
f 320/569/513 485/564/513 494/27/513
f 479/553/514 478/565/514 16/29/514 17/35/514
f 472/552/515 471/551/515 486/31/515 487/37/515
f 480/554/516 479/553/516 17/35/516 490/39/516
f 473/555/517 472/552/517 487/37/517 13/41/517
f 481/556/518 480/554/518 490/39/518 18/43/518
f 474/557/519 473/555/519 13/41/519 488/45/519
f 482/558/520 481/556/520 18/43/520 491/16/520
f 475/559/521 474/557/521 488/45/521 14/20/521
f 483/560/522 482/558/522 491/16/522 492/15/522
