# Blender 3.3.21
# www.blender.org
mtllib ataud.mtl
o Rueda.001
v 3.132593 -0.176556 1.407768
v 3.132593 -0.176556 -1.387601
v 3.134549 -0.196408 1.407768
v 3.134549 -0.196408 -1.387601
v 3.140339 -0.215496 1.407768
v 3.140339 -0.215496 -1.387601
v 3.149742 -0.233088 1.407768
v 3.149742 -0.233088 -1.387601
v 3.162396 -0.248507 1.407768
v 3.162396 -0.248507 -1.387601
v 3.177816 -0.261161 1.407768
v 3.177816 -0.261162 -1.387601
v 3.195408 -0.270565 1.407768
v 3.195408 -0.270565 -1.387601
v 3.214496 -0.276355 1.407768
v 3.214496 -0.276355 -1.387601
v 3.234347 -0.278310 1.407768
v 3.234347 -0.278310 -1.387601
v 3.254198 -0.276355 1.407768
v 3.254198 -0.276355 -1.387601
v 3.273286 -0.270565 1.407768
v 3.273286 -0.270565 -1.387601
v 3.290878 -0.261161 1.407768
v 3.290878 -0.261162 -1.387601
v 3.306298 -0.248507 1.407768
v 3.306298 -0.248507 -1.387601
v 3.318952 -0.233088 1.407768
v 3.318952 -0.233088 -1.387601
v 3.328355 -0.215496 1.407768
v 3.328355 -0.215496 -1.387601
v 3.334145 -0.196408 1.407768
v 3.334145 -0.196408 -1.387601
v 3.336101 -0.176556 1.407768
v 3.336101 -0.176556 -1.387601
v 3.334145 -0.156705 1.407768
v 3.334145 -0.156705 -1.387601
v 3.328355 -0.137617 1.407768
v 3.328355 -0.137617 -1.387601
v 3.318952 -0.120025 1.407768
v 3.318952 -0.120025 -1.387601
v 3.306298 -0.104606 1.407768
v 3.306298 -0.104606 -1.387601
v 3.290878 -0.091951 1.407768
v 3.290878 -0.091951 -1.387601
v 3.273286 -0.082548 1.407768
v 3.273286 -0.082548 -1.387601
v 3.254198 -0.076758 1.407768
v 3.254198 -0.076758 -1.387601
v 3.234347 -0.074803 1.407768
v 3.234347 -0.074803 -1.387601
v 3.214496 -0.076758 1.407768
v 3.214496 -0.076758 -1.387601
v 3.195408 -0.082548 1.407768
v 3.195408 -0.082548 -1.387601
v 3.177816 -0.091951 1.407768
v 3.177816 -0.091951 -1.387601
v 3.162396 -0.104606 1.407768
v 3.162396 -0.104606 -1.387601
v 3.149742 -0.120025 1.407768
v 3.149742 -0.120025 -1.387601
v 3.140339 -0.137617 1.407768
v 3.140339 -0.137617 -1.387601
v 3.134549 -0.156705 1.407768
v 3.134549 -0.156705 -1.387601
v 3.286105 -0.571033 1.462342
v 3.290251 0.220868 1.462342
v 3.180204 -0.570479 1.462342
v 3.184350 0.221422 1.462342
v 3.286105 -0.571033 1.393326
v 3.290251 0.220868 1.393326
v 3.180204 -0.570479 1.393326
v 3.184350 0.221422 1.393326
v 3.673468 0.014498 1.592956
v 3.765901 0.045952 1.400193
v 3.673468 0.014498 1.207428
v 3.417385 0.281911 1.207428
v 3.455726 0.359394 1.400193
v 3.417386 0.281911 1.592956
v 2.798994 0.019077 1.207428
v 2.706895 0.051498 1.400193
v 2.798994 0.019078 1.592956
v 3.057864 0.283793 1.592956
v 3.020337 0.361674 1.400193
v 3.057863 0.283793 1.207428
v 3.053131 -0.619849 1.207428
v 3.014791 -0.697332 1.400193
v 3.053131 -0.619849 1.592956
v 2.797049 -0.352437 1.592956
v 2.704615 -0.383891 1.400193
v 2.797049 -0.352437 1.207428
v 3.671522 -0.357015 1.207428
v 3.763621 -0.389436 1.400193
v 3.671522 -0.357015 1.592956
v 3.412653 -0.621731 1.592956
v 3.450180 -0.699612 1.400193
v 3.412653 -0.621731 1.207428
v 3.599151 -0.012448 1.362223
v 3.386542 0.215582 1.362223
v 2.873024 -0.008646 1.362223
v 3.088010 0.217145 1.362223
v 3.083974 -0.553519 1.362223
v 2.871365 -0.325489 1.362223
v 3.597492 -0.329291 1.362223
v 3.382507 -0.555083 1.362223
v 3.597308 -0.010509 1.534734
v 3.385805 0.220280 1.534734
v 2.874888 -0.006726 1.534734
v 3.088797 0.221836 1.534734
v 3.084712 -0.558218 1.534734
v 2.873208 -0.327429 1.534734
v 3.595629 -0.331212 1.534734
v 3.381720 -0.559774 1.534734
v 2.839299 -0.217945 1.462342
v 3.631199 -0.222091 1.462342
v 2.839853 -0.112044 1.462342
v 3.631754 -0.116191 1.462342
v 2.839299 -0.217945 1.393326
v 3.631199 -0.222091 1.393326
v 2.839853 -0.112044 1.393326
v 3.631754 -0.116191 1.393326
v 3.576336 -0.407933 1.462342
v 3.019309 0.154958 1.462342
v 3.501061 -0.482424 1.462342
v 2.944034 0.080467 1.462342
v 3.576336 -0.407933 1.393326
v 3.019309 0.154958 1.393326
v 3.501061 -0.482424 1.393326
v 2.944034 0.080467 1.393326
v 2.988617 -0.496308 1.462342
v 3.551507 0.060719 1.462342
v 2.914126 -0.421033 1.462342
v 3.477016 0.135994 1.462342
v 2.988617 -0.496308 1.393326
v 3.551507 0.060719 1.393326
v 2.914126 -0.421032 1.393326
v 3.477016 0.135994 1.393326
v 3.288203 0.230640 -1.464433
v 3.288203 -0.561272 -1.464433
v 3.182301 0.230640 -1.464433
v 3.182301 -0.561272 -1.464433
v 3.288203 0.230640 -1.395418
v 3.288203 -0.561272 -1.395418
v 3.182301 0.230640 -1.395418
v 3.182301 -0.561272 -1.395418
v 3.672495 -0.356912 -1.595048
v 3.764763 -0.388851 -1.402284
v 3.672495 -0.356912 -1.209519
v 3.415016 -0.622980 -1.209519
v 3.452950 -0.700664 -1.402284
v 3.415016 -0.622980 -1.595048
v 2.798010 -0.356912 -1.209519
v 2.705742 -0.388850 -1.402284
v 2.798010 -0.356912 -1.595048
v 3.055489 -0.622980 -1.595048
v 3.017555 -0.700663 -1.402284
v 3.055489 -0.622980 -1.209519
v 3.055489 0.280675 -1.209519
v 3.017555 0.358358 -1.402284
v 3.055489 0.280674 -1.595048
v 2.798010 0.014607 -1.595048
v 2.705742 0.046545 -1.402284
v 2.798010 0.014607 -1.209519
v 3.672495 0.014606 -1.209519
v 3.764763 0.046544 -1.402284
v 3.672495 0.014606 -1.595048
v 3.415016 0.280674 -1.595048
v 3.452950 0.358358 -1.402284
v 3.415016 0.280675 -1.209519
v 3.598321 -0.329576 -1.364314
v 3.384521 -0.556490 -1.364314
v 2.872184 -0.329576 -1.364314
v 3.085984 -0.556490 -1.364314
v 3.085984 0.214185 -1.364314
v 2.872184 -0.012729 -1.364314
v 3.598321 -0.012730 -1.364314
v 3.384521 0.214185 -1.364314
v 3.596467 -0.331507 -1.536826
v 3.383759 -0.561185 -1.536826
v 2.874037 -0.331507 -1.536826
v 3.086746 -0.561185 -1.536826
v 3.086746 0.218880 -1.536826
v 2.874037 -0.010799 -1.536826
v 3.596467 -0.010799 -1.536826
v 3.383759 0.218880 -1.536826
v 2.839555 -0.120104 -1.464433
v 3.631466 -0.120104 -1.464433
v 2.839555 -0.226006 -1.464433
v 3.631466 -0.226006 -1.464433
v 2.839555 -0.120104 -1.395418
v 3.631466 -0.120104 -1.395418
v 2.839555 -0.226006 -1.395418
v 3.631466 -0.226006 -1.395418
v 3.577577 0.066022 -1.464433
v 3.017611 -0.493945 -1.464433
v 3.502693 0.140906 -1.464433
v 2.942727 -0.419060 -1.464433
v 3.577577 0.066022 -1.395418
v 3.017611 -0.493945 -1.395418
v 3.502693 0.140906 -1.395418
v 2.942727 -0.419060 -1.395418
v 2.990328 0.157473 -1.464433
v 3.550295 -0.402494 -1.464433
v 2.915444 0.082589 -1.464433
v 3.475411 -0.477377 -1.464433
v 2.990328 0.157473 -1.395418
v 3.550295 -0.402494 -1.395418
v 2.915444 0.082589 -1.395418
v 3.475411 -0.477377 -1.395418
v -3.226363 -0.176556 1.384279
v -3.226363 -0.176556 -1.364370
v -3.224407 -0.196408 1.384279
v -3.224407 -0.196408 -1.364370
v -3.218617 -0.215496 1.384279
v -3.218617 -0.215496 -1.364370
v -3.209214 -0.233088 1.384279
v -3.209214 -0.233088 -1.364370
v -3.196560 -0.248507 1.384279
v -3.196560 -0.248507 -1.364370
v -3.181140 -0.261161 1.384279
v -3.181140 -0.261162 -1.364370
v -3.163548 -0.270565 1.384279
v -3.163548 -0.270565 -1.364370
v -3.144460 -0.276355 1.384279
v -3.144460 -0.276355 -1.364370
v -3.124609 -0.278310 1.384279
v -3.124609 -0.278310 -1.364370
v -3.104758 -0.276355 1.384279
v -3.104758 -0.276355 -1.364370
v -3.085670 -0.270565 1.384279
v -3.085670 -0.270565 -1.364370
v -3.068078 -0.261161 1.384279
v -3.068078 -0.261162 -1.364370
v -3.052658 -0.248507 1.384279
v -3.052658 -0.248507 -1.364370
v -3.040004 -0.233088 1.384279
v -3.040004 -0.233088 -1.364370
v -3.030601 -0.215496 1.384279
v -3.030601 -0.215496 -1.364370
v -3.024811 -0.196408 1.384279
v -3.024811 -0.196408 -1.364370
v -3.022855 -0.176556 1.384279
v -3.022855 -0.176556 -1.364370
v -3.024811 -0.156705 1.384279
v -3.024811 -0.156705 -1.364370
v -3.030601 -0.137617 1.384279
v -3.030601 -0.137617 -1.364370
v -3.040004 -0.120025 1.384279
v -3.040004 -0.120025 -1.364370
v -3.052658 -0.104606 1.384279
v -3.052658 -0.104606 -1.364370
v -3.068078 -0.091951 1.384279
v -3.068078 -0.091951 -1.364370
v -3.085670 -0.082548 1.384279
v -3.085670 -0.082548 -1.364370
v -3.104758 -0.076758 1.384279
v -3.104758 -0.076758 -1.364370
v -3.124609 -0.074803 1.384279
v -3.124609 -0.074803 -1.364370
v -3.144460 -0.076758 1.384279
v -3.144460 -0.076758 -1.364370
v -3.163548 -0.082548 1.384279
v -3.163548 -0.082548 -1.364370
v -3.181140 -0.091951 1.384279
v -3.181140 -0.091951 -1.364370
v -3.196560 -0.104606 1.384279
v -3.196560 -0.104606 -1.364370
v -3.209214 -0.120025 1.384279
v -3.209214 -0.120025 -1.364370
v -3.218617 -0.137617 1.384279
v -3.218617 -0.137617 -1.364370
v -3.224407 -0.156705 1.384279
v -3.224407 -0.156705 -1.364370
v -3.072851 -0.571033 1.437941
v -3.068705 0.220868 1.437941
v -3.178752 -0.570479 1.437941
v -3.174606 0.221422 1.437941
v -3.072851 -0.571033 1.370079
v -3.068705 0.220868 1.370079
v -3.178752 -0.570479 1.370079
v -3.174606 0.221422 1.370079
v -2.685488 0.014498 1.566373
v -2.593055 0.045952 1.376831
v -2.685488 0.014498 1.187287
v -2.941571 0.281911 1.187287
v -2.903231 0.359394 1.376831
v -2.941571 0.281911 1.566373
v -3.559962 0.019077 1.187287
v -3.652061 0.051498 1.376831
v -3.559962 0.019078 1.566373
v -3.301093 0.283793 1.566373
v -3.338620 0.361674 1.376831
v -3.301093 0.283793 1.187287
v -3.305825 -0.619849 1.187287
v -3.344165 -0.697332 1.376831
v -3.305825 -0.619849 1.566373
v -3.561907 -0.352437 1.566373
v -3.654341 -0.383891 1.376831
v -3.561907 -0.352437 1.187287
v -2.687434 -0.357015 1.187287
v -2.595335 -0.389436 1.376831
v -2.687434 -0.357015 1.566373
v -2.946303 -0.621731 1.566373
v -2.908776 -0.699612 1.376831
v -2.946303 -0.621731 1.187287
v -2.759805 -0.012448 1.339495
v -2.972414 0.215582 1.339495
v -3.485932 -0.008646 1.339495
v -3.270946 0.217145 1.339495
v -3.274982 -0.553519 1.339495
v -3.487591 -0.325489 1.339495
v -2.761464 -0.329291 1.339495
v -2.976449 -0.555083 1.339495
v -2.761648 -0.010509 1.509124
v -2.973152 0.220280 1.509124
v -3.484068 -0.006726 1.509124
v -3.270160 0.221836 1.509124
v -3.274244 -0.558218 1.509124
v -3.485748 -0.327429 1.509124
v -2.763327 -0.331212 1.509124
v -2.977236 -0.559774 1.509124
v -3.519657 -0.217945 1.437941
v -2.727757 -0.222091 1.437941
v -3.519103 -0.112044 1.437941
v -2.727202 -0.116191 1.437941
v -3.519657 -0.217945 1.370079
v -2.727757 -0.222091 1.370079
v -3.519103 -0.112044 1.370079
v -2.727202 -0.116191 1.370079
v -2.782620 -0.407932 1.437941
v -3.339647 0.154958 1.437941
v -2.857895 -0.482423 1.437941
v -3.414922 0.080467 1.437941
v -2.782620 -0.407932 1.370079
v -3.339647 0.154958 1.370079
v -2.857895 -0.482423 1.370079
v -3.414922 0.080467 1.370079
v -3.370339 -0.496308 1.437941
v -2.807449 0.060719 1.437941
v -3.444830 -0.421033 1.437941
v -2.881940 0.135994 1.437941
v -3.370339 -0.496308 1.370079
v -2.807449 0.060719 1.370079
v -3.444830 -0.421032 1.370079
v -2.881940 0.135994 1.370079
v -3.070753 0.230640 -1.439918
v -3.070753 -0.561272 -1.439918
v -3.176655 0.230640 -1.439918
v -3.176655 -0.561272 -1.439918
v -3.070753 0.230640 -1.372056
v -3.070753 -0.561272 -1.372056
v -3.176655 0.230640 -1.372056
v -3.176655 -0.561272 -1.372056
v -2.686461 -0.356912 -1.568349
v -2.594193 -0.388851 -1.378808
v -2.686461 -0.356912 -1.189264
v -2.943940 -0.622980 -1.189264
v -2.906006 -0.700664 -1.378808
v -2.943940 -0.622980 -1.568349
v -3.560946 -0.356912 -1.189264
v -3.653214 -0.388850 -1.378808
v -3.560946 -0.356912 -1.568349
v -3.303467 -0.622980 -1.568349
v -3.341401 -0.700663 -1.378808
v -3.303467 -0.622980 -1.189264
v -3.303467 0.280675 -1.189264
v -3.341401 0.358358 -1.378808
v -3.303467 0.280674 -1.568349
v -3.560946 0.014607 -1.568349
v -3.653214 0.046545 -1.378808
v -3.560946 0.014607 -1.189264
v -2.686461 0.014606 -1.189264
v -2.594193 0.046544 -1.378808
v -2.686461 0.014606 -1.568349
v -2.943940 0.280674 -1.568349
v -2.906006 0.358358 -1.378808
v -2.943940 0.280675 -1.189264
v -2.760635 -0.329576 -1.341472
v -2.974435 -0.556490 -1.341472
v -3.486772 -0.329576 -1.341472
v -3.272972 -0.556490 -1.341472
v -3.272972 0.214185 -1.341472
v -3.486772 -0.012729 -1.341472
v -2.760635 -0.012729 -1.341472
v -2.974435 0.214185 -1.341472
v -2.762489 -0.331507 -1.511101
v -2.975197 -0.561185 -1.511101
v -3.484919 -0.331507 -1.511101
v -3.272210 -0.561185 -1.511101
v -3.272210 0.218880 -1.511101
v -3.484919 -0.010799 -1.511101
v -2.762489 -0.010799 -1.511101
v -2.975197 0.218880 -1.511101
v -3.519401 -0.120104 -1.439918
v -2.727490 -0.120104 -1.439918
v -3.519401 -0.226006 -1.439918
v -2.727490 -0.226006 -1.439918
v -3.519401 -0.120104 -1.372056
v -2.727490 -0.120104 -1.372056
v -3.519401 -0.226006 -1.372056
v -2.727490 -0.226006 -1.372056
v -2.781379 0.066022 -1.439918
v -3.341345 -0.493945 -1.439918
v -2.856263 0.140906 -1.439918
v -3.416229 -0.419060 -1.439918
v -2.781379 0.066022 -1.372056
v -3.341345 -0.493945 -1.372056
v -2.856263 0.140906 -1.372056
v -3.416229 -0.419060 -1.372056
v -3.368628 0.157473 -1.439918
v -2.808661 -0.402493 -1.439918
v -3.443512 0.082589 -1.439918
v -2.883545 -0.477377 -1.439918
v -3.368628 0.157473 -1.372056
v -2.808661 -0.402493 -1.372056
v -3.443512 0.082589 -1.372056
v -2.883545 -0.477377 -1.372056
v 3.596194 0.138497 -0.938396
v 3.770129 -0.066225 -1.071809
v 3.596194 0.138497 0.938396
v 3.770129 -0.066225 1.071810
v -3.596194 0.138497 -0.968285
v -3.770129 -0.066225 -1.127732
v -3.596194 0.138497 0.968285
v -3.770129 -0.066225 1.127732
v 1.765374 -0.066225 -1.609793
v 3.770129 0.036136 -1.071809
v -3.770129 0.036136 1.127732
v 3.770129 0.036136 1.071810
v -3.770129 0.036136 -1.127732
v 1.749913 0.138498 1.433853
v 1.765374 -0.066225 1.609793
v 1.749913 0.138497 -1.433853
v 1.765375 0.036136 -1.609793
v 1.765374 0.036136 1.609793
v 1.765374 0.138498 1.609793
v -3.770129 0.138497 1.127732
v 3.770129 0.138497 -1.071809
v 3.770129 0.138497 1.071810
v -3.770129 0.138497 -1.127732
v 1.765375 0.138497 -1.609793
v 1.749913 1.385017 -1.433853
v 1.749913 1.385018 1.433853
v -3.596194 1.385018 0.968285
v 3.596194 1.385018 -0.938396
v 3.596194 1.385018 0.938396
v -3.596194 1.385018 -0.968285
v 1.808243 1.463742 -1.505546
v 1.808243 1.463742 1.505545
v -3.805169 1.463742 1.016699
v 3.746838 1.463742 -0.985316
v 3.746838 1.463742 0.985316
v -3.805169 1.463742 -1.016700
vn -0.9952 -0.0981 -0.0000
vn -0.9569 -0.2903 -0.0000
vn -0.8819 -0.4714 -0.0000
vn -0.7730 -0.6344 -0.0000
vn -0.6344 -0.7730 -0.0000
vn -0.4714 -0.8819 -0.0000
vn -0.2903 -0.9569 -0.0000
vn -0.0980 -0.9952 -0.0000
vn 0.0980 -0.9952 -0.0000
vn 0.2903 -0.9569 -0.0000
vn 0.4714 -0.8819 -0.0000
vn 0.6344 -0.7730 -0.0000
vn 0.7730 -0.6344 -0.0000
vn 0.8819 -0.4714 -0.0000
vn 0.9569 -0.2903 -0.0000
vn 0.9952 -0.0981 -0.0000
vn 0.9952 0.0981 -0.0000
vn 0.9569 0.2903 -0.0000
vn 0.8819 0.4714 -0.0000
vn 0.7730 0.6344 -0.0000
vn 0.6344 0.7730 -0.0000
vn 0.4714 0.8819 -0.0000
vn 0.2903 0.9569 -0.0000
vn 0.0980 0.9952 -0.0000
vn -0.0980 0.9952 -0.0000
vn -0.2903 0.9569 -0.0000
vn -0.4714 0.8819 -0.0000
vn -0.6344 0.7730 -0.0000
vn -0.7730 0.6344 -0.0000
vn -0.8819 0.4714 -0.0000
vn -0.0000 -0.0000 -1.0000
vn -0.9569 0.2903 -0.0000
vn -0.9952 0.0981 -0.0000
vn -0.0000 -0.0000 1.0000
vn -1.0000 0.0052 -0.0000
vn 1.0000 -0.0052 -0.0000
vn -0.0052 -1.0000 -0.0000
vn 0.0052 1.0000 -0.0000
vn 0.6486 -0.6457 -0.4028
vn 0.6486 -0.6457 0.4028
vn -0.6554 -0.6389 -0.4028
vn -0.6554 -0.6389 0.4028
vn -0.6486 0.6457 -0.4028
vn -0.6486 0.6457 0.4028
vn 0.6554 0.6389 0.4028
vn 0.6554 0.6389 -0.4028
vn -0.9020 0.0047 0.4317
vn -0.9020 0.0047 -0.4317
vn 0.0049 0.9275 0.3738
vn 0.0049 0.9275 -0.3738
vn -0.0049 -0.9275 0.3738
vn -0.0049 -0.9275 -0.3738
vn 0.9020 -0.0047 0.4317
vn 0.9020 -0.0047 -0.4317
vn -0.9018 0.0047 -0.4321
vn -0.0048 -0.9188 -0.3947
vn 0.6549 -0.6327 -0.4132
vn -0.6549 0.6327 -0.4132
vn -0.6615 -0.6258 -0.4132
vn 0.0048 0.9188 -0.3947
vn 0.9018 -0.0047 -0.4321
vn 0.6615 0.6258 -0.4132
vn 0.6080 -0.0032 0.7939
vn -0.6080 0.0032 0.7939
vn 0.4659 -0.4465 0.7639
vn -0.0036 -0.6857 0.7278
vn -0.4659 0.4465 0.7639
vn -0.4705 -0.4416 0.7639
vn 0.0036 0.6857 0.7278
vn 0.4705 0.4416 0.7639
vn -0.7343 -0.6788 0.0076
vn -0.9999 0.0052 -0.0107
vn -0.7272 0.6864 0.0076
vn 0.0052 0.9996 0.0272
vn 0.7343 0.6788 0.0076
vn 0.9999 -0.0052 -0.0107
vn 0.7272 -0.6864 0.0076
vn -0.0052 -0.9996 0.0272
vn -0.7108 -0.7034 -0.0000
vn 0.7108 0.7034 -0.0000
vn 0.7034 -0.7108 -0.0000
vn -0.7034 0.7108 -0.0000
vn -1.0000 -0.0000 -0.0000
vn 1.0000 -0.0000 -0.0000
vn -0.0000 1.0000 -0.0000
vn -0.0000 -1.0000 -0.0000
vn 0.6520 0.6423 0.4028
vn 0.6520 0.6423 -0.4028
vn -0.6520 0.6423 0.4028
vn -0.6520 0.6423 -0.4028
vn -0.6520 -0.6423 0.4028
vn -0.6520 -0.6423 -0.4028
vn 0.6520 -0.6423 -0.4028
vn 0.6520 -0.6423 0.4028
vn -0.9020 -0.0000 -0.4317
vn -0.9020 -0.0000 0.4317
vn -0.0000 -0.9275 -0.3738
vn -0.0000 -0.9275 0.3738
vn -0.0000 0.9275 -0.3738
vn -0.0000 0.9275 0.3738
vn 0.9020 -0.0000 -0.4317
vn 0.9020 -0.0000 0.4317
vn -0.9018 -0.0000 0.4321
vn -0.0000 0.9188 0.3947
vn 0.6582 0.6293 0.4132
vn -0.6582 -0.6293 0.4132
vn -0.6582 0.6293 0.4132
vn -0.0000 -0.9188 0.3947
vn 0.9018 -0.0000 0.4321
vn 0.6582 -0.6293 0.4132
vn 0.6080 -0.0000 -0.7939
vn -0.6080 -0.0000 -0.7939
vn 0.4682 0.4441 -0.7639
vn -0.0000 0.6858 -0.7278
vn -0.4682 -0.4441 -0.7639
vn -0.4682 0.4441 -0.7639
vn -0.0000 -0.6858 -0.7278
vn 0.4682 -0.4441 -0.7639
vn -0.7308 0.6826 -0.0076
vn -0.9999 -0.0000 0.0107
vn -0.7308 -0.6826 -0.0076
vn -0.0000 -0.9996 -0.0272
vn 0.7307 -0.6826 -0.0076
vn 0.9999 -0.0000 0.0107
vn 0.7307 0.6826 -0.0076
vn -0.0000 0.9996 -0.0272
vn -0.7071 0.7071 -0.0000
vn 0.7071 -0.7071 -0.0000
vn 0.7071 0.7071 -0.0000
vn -0.7071 -0.7071 -0.0000
vn 0.6469 -0.6439 -0.4086
vn 0.6469 -0.6439 0.4086
vn -0.6536 -0.6371 -0.4086
vn -0.6536 -0.6371 0.4086
vn -0.6469 0.6439 -0.4086
vn -0.6468 0.6439 0.4086
vn 0.6536 0.6371 0.4086
vn 0.6536 0.6371 -0.4086
vn -0.8991 0.0047 0.4377
vn -0.8991 0.0047 -0.4377
vn 0.0048 0.9253 0.3792
vn 0.0048 0.9253 -0.3792
vn -0.0048 -0.9253 0.3792
vn -0.0048 -0.9253 -0.3792
vn 0.8991 -0.0047 0.4377
vn 0.8991 -0.0047 -0.4377
vn -0.8989 0.0047 -0.4381
vn -0.0048 -0.9164 -0.4003
vn 0.6530 -0.6308 -0.4190
vn -0.6530 0.6308 -0.4190
vn -0.6596 -0.6240 -0.4190
vn 0.0048 0.9164 -0.4003
vn 0.8989 -0.0047 -0.4381
vn 0.6596 0.6240 -0.4190
vn 0.6015 -0.0031 0.7988
vn -0.6015 0.0032 0.7988
vn 0.4613 -0.4421 0.7693
vn -0.0036 -0.6796 0.7336
vn -0.4613 0.4421 0.7693
vn -0.4659 -0.4373 0.7693
vn 0.0036 0.6796 0.7336
vn 0.4659 0.4373 0.7693
vn -0.7343 -0.6788 0.0077
vn -0.9999 0.0052 -0.0109
vn -0.7272 0.6864 0.0077
vn 0.0052 0.9996 0.0277
vn 0.7343 0.6788 0.0077
vn 0.9999 -0.0052 -0.0109
vn 0.7272 -0.6864 0.0077
vn -0.0052 -0.9996 0.0277
vn 0.6502 0.6406 0.4086
vn 0.6502 0.6405 -0.4086
vn -0.6502 0.6406 0.4086
vn -0.6502 0.6406 -0.4086
vn -0.6502 -0.6406 0.4086
vn -0.6502 -0.6405 -0.4086
vn 0.6502 -0.6405 -0.4086
vn 0.6502 -0.6406 0.4086
vn -0.8991 -0.0000 -0.4377
vn -0.8991 -0.0000 0.4377
vn -0.0000 -0.9253 -0.3792
vn -0.0000 -0.9253 0.3792
vn -0.0000 0.9253 -0.3792
vn -0.0000 0.9253 0.3792
vn 0.8991 -0.0000 -0.4377
vn 0.8991 -0.0000 0.4377
vn -0.8989 -0.0000 0.4381
vn -0.0000 0.9164 0.4003
vn 0.6563 0.6274 0.4190
vn -0.6563 -0.6274 0.4190
vn -0.6563 0.6274 0.4190
vn -0.0000 -0.9164 0.4003
vn 0.8989 -0.0000 0.4381
vn 0.6563 -0.6274 0.4190
vn 0.6015 -0.0000 -0.7988
vn -0.6015 -0.0000 -0.7988
vn 0.4636 0.4397 -0.7693
vn -0.0000 0.6796 -0.7336
vn -0.4636 -0.4397 -0.7693
vn -0.4636 0.4397 -0.7693
vn -0.0000 -0.6796 -0.7336
vn 0.4636 -0.4397 -0.7693
vn -0.7307 0.6826 -0.0077
vn -0.9999 -0.0000 0.0109
vn -0.7308 -0.6826 -0.0077
vn -0.0000 -0.9996 -0.0277
vn 0.7307 -0.6826 -0.0077
vn 0.9999 -0.0000 0.0109
vn 0.7307 0.6826 -0.0077
vn -0.0000 0.9996 -0.0277
vn -0.0868 -0.0000 0.9962
vn 0.2592 -0.0000 -0.9658
vn -0.0868 -0.0000 -0.9962
vn 0.2592 -0.0000 0.9658
vn -0.3525 -0.9358 -0.0000
vn 0.1768 -0.7311 0.6589
vn -0.0663 -0.6445 0.7617
vn -0.0663 -0.6445 -0.7617
vn 0.1768 -0.7311 -0.6589
vn 0.4632 -0.8863 -0.0000
vt 0.244381 0.593230
vt 0.526821 0.929064
vt 0.231240 0.930507
vt 0.244381 0.720493
vt 0.243203 0.593230
vt 0.526821 0.930248
vt 0.243203 0.720493
vt 0.231240 0.931691
vt 0.242071 0.593230
vt 0.526590 0.931409
vt 0.242071 0.720493
vt 0.231471 0.932852
vt 0.241028 0.593230
vt 0.526137 0.932502
vt 0.241028 0.720493
vt 0.231924 0.933945
vt 0.240115 0.593230
vt 0.337413 0.502735
vt 0.525480 0.933486
vt 0.240115 0.720493
vt 0.337413 0.629999
vt 0.232581 0.934929
vt 0.336499 0.502735
vt 0.524643 0.934323
vt 0.336499 0.629999
vt 0.233418 0.935766
vt 0.335456 0.502735
vt 0.523659 0.934981
vt 0.335456 0.629999
vt 0.234402 0.936424
vt 0.334324 0.502735
vt 0.522565 0.935434
vt 0.334324 0.629999
vt 0.235496 0.936877
vt 0.333146 0.502735
vt 0.521405 0.935665
vt 0.333146 0.629999
vt 0.236657 0.937108
vt 0.331968 0.502735
vt 0.520221 0.935665
vt 0.331968 0.629999
vt 0.237840 0.937108
vt 0.330835 0.502735
vt 0.519060 0.935434
vt 0.330835 0.629999
vt 0.239001 0.936877
vt 0.329790 0.502735
vt 0.517967 0.934981
vt 0.329790 0.629999
vt 0.240094 0.936424
vt 0.328874 0.502735
vt 0.697025 0.630682
vt 0.516983 0.934323
vt 0.328874 0.629999
vt 0.697025 0.503418
vt 0.241078 0.935766
vt 0.697941 0.630682
vt 0.516146 0.933486
vt 0.697941 0.503418
vt 0.241915 0.934929
vt 0.698986 0.630682
vt 0.515488 0.932502
vt 0.698986 0.503418
vt 0.242573 0.933945
vt 0.700119 0.630682
vt 0.515035 0.931409
vt 0.700119 0.503418
vt 0.243026 0.932852
vt 0.701297 0.630682
vt 0.514804 0.930248
vt 0.701297 0.503418
vt 0.243257 0.931691
vt 0.702475 0.630682
vt 0.514804 0.929064
vt 0.702475 0.503418
vt 0.243257 0.930507
vt 0.703607 0.630682
vt 0.515035 0.927903
vt 0.703607 0.503418
vt 0.243026 0.929346
vt 0.704650 0.630682
vt 0.515488 0.926810
vt 0.704650 0.503418
vt 0.242573 0.928253
vt 0.705564 0.630682
vt 0.651614 0.630682
vt 0.516145 0.925826
vt 0.705564 0.503418
vt 0.651614 0.503418
vt 0.241915 0.927269
vt 0.652530 0.630682
vt 0.516982 0.924989
vt 0.652530 0.503418
vt 0.241079 0.926432
vt 0.653574 0.630682
vt 0.517967 0.924331
vt 0.653574 0.503418
vt 0.240094 0.925774
vt 0.654708 0.630682
vt 0.519060 0.923878
vt 0.654708 0.503418
vt 0.239001 0.925321
vt 0.655886 0.630682
vt 0.520221 0.923647
vt 0.655886 0.503418
vt 0.237840 0.925090
vt 0.657063 0.630682
vt 0.521404 0.923647
vt 0.657063 0.503418
vt 0.236657 0.925090
vt 0.658195 0.630682
vt 0.522565 0.923878
vt 0.658195 0.503418
vt 0.235496 0.925321
vt 0.659239 0.630682
vt 0.523659 0.924331
vt 0.659239 0.503418
vt 0.234402 0.925774
vt 0.660152 0.630682
vt 0.248653 0.593230
vt 0.524643 0.924989
vt 0.660152 0.503418
vt 0.248653 0.720493
vt 0.233418 0.926432
vt 0.247737 0.593230
vt 0.525480 0.925825
vt 0.247737 0.720493
vt 0.232581 0.927269
vt 0.246693 0.593230
vt 0.526137 0.926810
vt 0.231924 0.928253
vt 0.246693 0.720493
vt 0.245559 0.593230
vt 0.526590 0.927903
vt 0.231471 0.929346
vt 0.245559 0.720493
vt 0.285526 0.724084
vt 0.883666 0.550409
vt 0.954998 0.024720
vt 0.285526 0.677093
vt 0.883666 0.503418
vt 0.694770 0.941277
vt 0.291810 0.724084
vt 0.517946 0.839784
vt 0.954998 0.018436
vt 0.291810 0.677093
vt 0.517946 0.886774
vt 0.694770 0.934993
vt 0.566981 0.733469
vt 0.880524 0.550409
vt 0.958140 0.024720
vt 0.566981 0.780459
vt 0.880524 0.503418
vt 0.691628 0.941277
vt 0.514804 0.839784
vt 0.573265 0.733469
vt 0.958140 0.018436
vt 0.514804 0.886774
vt 0.573265 0.780459
vt 0.691628 0.934993
vt 0.706038 0.709950
vt 0.437222 0.541252
vt 0.714814 0.711825
vt 0.723590 0.709950
vt 0.783430 0.034280
vt 0.723590 0.725793
vt 0.195848 0.840630
vt 0.918126 0.214124
vt 0.783430 0.018436
vt 0.714814 0.730395
vt 0.187072 0.838362
vt 0.706038 0.725793
vt 0.178296 0.840630
vt 0.421944 0.557040
vt 0.669165 0.687904
vt 0.064254 0.743219
vt 0.660390 0.685989
vt 0.651614 0.687904
vt 0.385335 0.541252
vt 0.651614 0.672172
vt 0.178296 0.861963
vt 0.400612 0.557040
vt 0.660390 0.667554
vt 0.187072 0.864197
vt 0.669165 0.672172
vt 0.195848 0.861963
vt 0.918126 0.192791
vt 0.064254 0.727487
vt 0.669165 0.725793
vt 0.385335 0.863339
vt 0.900907 0.841909
vt 0.064254 0.781108
vt 0.660390 0.730395
vt 0.394111 0.865620
vt 0.651614 0.725793
vt 0.402886 0.863339
vt 0.400612 0.503418
vt 0.651614 0.709950
vt 0.385335 0.519206
vt 0.660390 0.711825
vt 0.669165 0.709950
vt 0.064254 0.765264
vt 0.723590 0.687905
vt 0.783430 0.056325
vt 0.714814 0.685989
vt 0.706038 0.687905
vt 0.437222 0.519206
vt 0.706038 0.672172
vt 0.402886 0.842006
vt 0.421944 0.503418
vt 0.714814 0.667555
vt 0.394111 0.839785
vt 0.723590 0.672172
vt 0.385335 0.842006
vt 0.783430 0.072057
vt 0.900907 0.863242
vt 0.776382 0.035886
vt 0.776382 0.022375
vt 0.911078 0.212289
vt 0.071302 0.744857
vt 0.071302 0.731439
vt 0.911078 0.194575
vt 0.907954 0.843733
vt 0.071302 0.777169
vt 0.071302 0.763658
vt 0.776382 0.054687
vt 0.776382 0.068105
vt 0.907954 0.861448
vt 0.432742 0.539744
vt 0.768528 0.035771
vt 0.420121 0.553373
vt 0.768528 0.022096
vt 0.903224 0.212245
vt 0.389877 0.539744
vt 0.079156 0.744743
vt 0.402498 0.553373
vt 0.079156 0.731160
vt 0.903224 0.194622
vt 0.402498 0.507085
vt 0.915808 0.843777
vt 0.079156 0.777448
vt 0.389877 0.520714
vt 0.079156 0.763773
vt 0.432742 0.520714
vt 0.768528 0.054801
vt 0.420121 0.507085
vt 0.768528 0.068384
vt 0.915808 0.861401
vt 0.820302 0.065424
vt 0.240115 0.841228
vt 0.949523 0.276655
vt 0.820302 0.018436
vt 0.240115 0.888218
vt 0.954749 0.360517
vt 0.826586 0.065424
vt 0.021578 0.838226
vt 0.949523 0.282939
vt 0.826586 0.018436
vt 0.021578 0.885216
vt 0.954749 0.366801
vt 0.837367 0.503418
vt 0.243257 0.841228
vt 0.946381 0.276655
vt 0.837367 0.550406
vt 0.243257 0.888218
vt 0.957891 0.360517
vt 0.018436 0.838226
vt 0.843651 0.503418
vt 0.946381 0.282939
vt 0.018436 0.885216
vt 0.843651 0.550406
vt 0.957891 0.366801
vt 0.826337 0.276655
vt 0.181438 0.934418
vt 0.940921 0.974643
vt 0.826337 0.323644
vt 0.181438 0.901070
vt 0.904049 0.974796
vt 0.820053 0.276655
vt 0.900907 0.933463
vt 0.940921 0.970170
vt 0.820053 0.323644
vt 0.900907 0.900115
vt 0.904049 0.970336
vt 0.335158 0.813574
vt 0.178296 0.934418
vt 0.944064 0.974643
vt 0.335158 0.766585
vt 0.178296 0.901070
vt 0.900907 0.974796
vt 0.904049 0.933463
vt 0.328874 0.813574
vt 0.944064 0.970170
vt 0.904049 0.900115
vt 0.328874 0.766585
vt 0.900907 0.970336
vt 0.826337 0.192792
vt 0.906366 0.276655
vt 0.181438 0.971291
vt 0.826337 0.239782
vt 0.906366 0.310101
vt 0.570123 0.975805
vt 0.820053 0.192793
vt 0.933037 0.758045
vt 0.181438 0.975751
vt 0.820053 0.239782
vt 0.933037 0.791397
vt 0.570123 0.971345
vt 0.514804 0.755922
vt 0.909509 0.276655
vt 0.178296 0.971291
vt 0.514804 0.802911
vt 0.909509 0.310101
vt 0.566981 0.975805
vt 0.929895 0.758045
vt 0.521088 0.755922
vt 0.178296 0.975751
vt 0.929895 0.791397
vt 0.521088 0.802911
vt 0.566981 0.971345
vt 0.184580 0.754498
vt 0.866352 0.239782
vt 0.952681 0.848193
vt 0.184580 0.801489
vt 0.866352 0.192791
vt 0.654756 0.941277
vt 0.178296 0.754498
vt 0.610137 0.780459
vt 0.952681 0.841909
vt 0.178296 0.801489
vt 0.610137 0.733469
vt 0.654756 0.934993
vt 0.391618 0.802912
vt 0.863210 0.239782
vt 0.955823 0.848193
vt 0.391618 0.755922
vt 0.863210 0.192791
vt 0.651614 0.941277
vt 0.613280 0.780459
vt 0.385335 0.802912
vt 0.955823 0.841909
vt 0.613280 0.733469
vt 0.385335 0.755922
vt 0.651614 0.934993
vt 0.346426 0.687290
vt 0.525981 0.541252
vt 0.337650 0.685403
vt 0.328874 0.687290
vt 0.742437 0.541227
vt 0.328874 0.671477
vt 0.814413 0.596157
vt 0.904042 0.466546
vt 0.742437 0.557040
vt 0.337650 0.666871
vt 0.805637 0.593912
vt 0.346426 0.671477
vt 0.796861 0.596157
vt 0.510704 0.557040
vt 0.064254 0.670237
vt 0.775364 0.705412
vt 0.073030 0.672141
vt 0.081806 0.670237
vt 0.474094 0.541252
vt 0.081806 0.686001
vt 0.796861 0.617491
vt 0.489372 0.557040
vt 0.073030 0.690614
vt 0.805637 0.619748
vt 0.064254 0.686001
vt 0.814413 0.617491
vt 0.904042 0.445212
vt 0.775364 0.721176
vt 0.064254 0.632379
vt 0.742437 0.617490
vt 0.852268 0.466546
vt 0.775364 0.667555
vt 0.073030 0.627773
vt 0.751213 0.619748
vt 0.081806 0.632380
vt 0.759988 0.617490
vt 0.489372 0.503418
vt 0.081806 0.648192
vt 0.474094 0.519206
vt 0.073030 0.646305
vt 0.064254 0.648192
vt 0.775364 0.683367
vt 0.328874 0.709335
vt 0.742437 0.519182
vt 0.337650 0.711239
vt 0.346426 0.709335
vt 0.525981 0.519206
vt 0.346426 0.725099
vt 0.759988 0.596156
vt 0.510704 0.503418
vt 0.337650 0.729712
vt 0.751213 0.593912
vt 0.328874 0.725099
vt 0.742437 0.596156
vt 0.742437 0.503418
vt 0.852268 0.445212
vt 0.749484 0.539612
vt 0.749484 0.553097
vt 0.896994 0.464731
vt 0.768316 0.703783
vt 0.768316 0.717228
vt 0.896994 0.447016
vt 0.845221 0.464741
vt 0.768316 0.671497
vt 0.768316 0.684982
vt 0.749484 0.520811
vt 0.749484 0.507367
vt 0.845221 0.447027
vt 0.521502 0.539744
vt 0.757338 0.539727
vt 0.508881 0.553373
vt 0.757338 0.553376
vt 0.889141 0.464686
vt 0.478637 0.539744
vt 0.760463 0.703898
vt 0.491258 0.553373
vt 0.760463 0.717506
vt 0.889141 0.447061
vt 0.491258 0.507085
vt 0.837367 0.464696
vt 0.760463 0.671218
vt 0.478637 0.520714
vt 0.760463 0.684867
vt 0.521502 0.520714
vt 0.757338 0.520697
vt 0.508881 0.507085
vt 0.757338 0.507088
vt 0.837367 0.447072
vt 0.070538 0.817981
vt 0.863459 0.018436
vt 0.285526 0.934966
vt 0.070538 0.864968
vt 0.863459 0.065427
vt 0.018436 0.922089
vt 0.064254 0.817981
vt 0.866352 0.360517
vt 0.285526 0.928682
vt 0.064254 0.864968
vt 0.866352 0.407508
vt 0.018436 0.928373
vt 0.566981 0.817332
vt 0.866601 0.018436
vt 0.288668 0.934966
vt 0.566981 0.864319
vt 0.866601 0.065427
vt 0.021578 0.922089
vt 0.863210 0.360517
vt 0.573265 0.817332
vt 0.288668 0.928682
vt 0.863210 0.407508
vt 0.573265 0.864319
vt 0.021578 0.928373
vt 0.135559 0.759517
vt 0.566981 0.901192
vt 0.064254 0.976440
vt 0.135559 0.806506
vt 0.566981 0.934472
vt 0.517946 0.976975
vt 0.129276 0.759516
vt 0.610190 0.934476
vt 0.064254 0.971990
vt 0.129275 0.806505
vt 0.610190 0.901195
vt 0.517946 0.972538
vt 0.428491 0.755922
vt 0.570123 0.901192
vt 0.067397 0.976440
vt 0.428491 0.802911
vt 0.570123 0.934472
vt 0.514804 0.976975
vt 0.613332 0.934476
vt 0.434775 0.755922
vt 0.067397 0.971990
vt 0.613332 0.901195
vt 0.434775 0.802911
vt 0.514804 0.972538
vt 0.809903 0.758049
vt 0.064254 0.901841
vt 0.610190 0.975799
vt 0.809903 0.805038
vt 0.064254 0.935117
vt 0.288668 0.976290
vt 0.803619 0.758049
vt 0.944056 0.433364
vt 0.610190 0.971348
vt 0.803619 0.805038
vt 0.944056 0.466546
vt 0.288668 0.971839
vt 0.818520 0.714544
vt 0.067397 0.901841
vt 0.613332 0.975799
vt 0.818520 0.667555
vt 0.067397 0.935117
vt 0.285526 0.976290
vt 0.940914 0.433364
vt 0.812236 0.714544
vt 0.613332 0.971348
vt 0.940914 0.466546
vt 0.812236 0.667555
vt 0.285526 0.971839
vt 0.525836 0.593912
vt 0.129276 0.932659
vt 0.328874 0.939727
vt 0.525836 0.719049
vt 0.524658 0.593912
vt 0.129507 0.931498
vt 0.524658 0.719049
vt 0.328874 0.940911
vt 0.523526 0.593912
vt 0.129959 0.930404
vt 0.523526 0.719049
vt 0.329105 0.942072
vt 0.522483 0.593912
vt 0.130617 0.929420
vt 0.522483 0.719049
vt 0.329558 0.943165
vt 0.521569 0.593912
vt 0.439285 0.593912
vt 0.131454 0.928583
vt 0.521569 0.719049
vt 0.439285 0.719049
vt 0.330216 0.944149
vt 0.438371 0.593912
vt 0.132438 0.927926
vt 0.438371 0.719049
vt 0.331053 0.944986
vt 0.437328 0.593912
vt 0.133532 0.927473
vt 0.437328 0.719049
vt 0.332036 0.945644
vt 0.436196 0.593912
vt 0.134692 0.927242
vt 0.436196 0.719049
vt 0.333130 0.946097
vt 0.435018 0.593912
vt 0.135876 0.927242
vt 0.435018 0.719049
vt 0.334291 0.946328
vt 0.433840 0.593912
vt 0.137037 0.927473
vt 0.433840 0.719049
vt 0.335474 0.946328
vt 0.432707 0.593912
vt 0.138130 0.927926
vt 0.432707 0.719049
vt 0.336635 0.946097
vt 0.431662 0.593912
vt 0.139114 0.928583
vt 0.431662 0.719049
vt 0.337729 0.945644
vt 0.430746 0.593912
vt 0.476158 0.719049
vt 0.139951 0.929420
vt 0.430746 0.719049
vt 0.476158 0.593912
vt 0.338713 0.944986
vt 0.477074 0.719049
vt 0.140609 0.930405
vt 0.477074 0.593912
vt 0.339550 0.944149
vt 0.478119 0.719049
vt 0.141062 0.931498
vt 0.478119 0.593912
vt 0.340207 0.943165
vt 0.479252 0.719049
vt 0.141292 0.932659
vt 0.479252 0.593912
vt 0.340660 0.942072
vt 0.480430 0.719049
vt 0.141292 0.933843
vt 0.480430 0.593912
vt 0.340891 0.940911
vt 0.481608 0.719049
vt 0.141061 0.935004
vt 0.481608 0.593912
vt 0.340891 0.939727
vt 0.482740 0.719049
vt 0.140608 0.936097
vt 0.482740 0.593912
vt 0.340660 0.938566
vt 0.483783 0.719049
vt 0.139951 0.937081
vt 0.483783 0.593912
vt 0.340207 0.937473
vt 0.484697 0.719049
vt 0.385335 0.719049
vt 0.139114 0.937918
vt 0.484697 0.593912
vt 0.385335 0.593912
vt 0.339550 0.936489
vt 0.386251 0.719049
vt 0.138130 0.938576
vt 0.386251 0.593912
vt 0.338713 0.935652
vt 0.387295 0.719049
vt 0.137036 0.939029
vt 0.387295 0.593912
vt 0.337729 0.934994
vt 0.388429 0.719049
vt 0.135875 0.939260
vt 0.388429 0.593912
vt 0.336635 0.934541
vt 0.389607 0.719049
vt 0.134692 0.939259
vt 0.389607 0.593912
vt 0.335474 0.934310
vt 0.390785 0.719049
vt 0.133531 0.939029
vt 0.390785 0.593912
vt 0.334291 0.934310
vt 0.391917 0.719049
vt 0.132438 0.938576
vt 0.391917 0.593912
vt 0.333130 0.934541
vt 0.392960 0.719049
vt 0.131454 0.937918
vt 0.392960 0.593912
vt 0.332037 0.934994
vt 0.393873 0.719049
vt 0.530108 0.593912
vt 0.130617 0.937081
vt 0.393873 0.593912
vt 0.530108 0.719049
vt 0.331053 0.935652
vt 0.529192 0.593912
vt 0.129959 0.936097
vt 0.529192 0.719049
vt 0.330216 0.936489
vt 0.528147 0.593912
vt 0.129506 0.935003
vt 0.329558 0.937473
vt 0.528147 0.719049
vt 0.527014 0.593912
vt 0.129276 0.933842
vt 0.329105 0.938566
vt 0.527014 0.719049
vt 0.291810 0.593230
vt 0.651614 0.851130
vt 0.969909 0.764329
vt 0.291810 0.640220
vt 0.651614 0.898120
vt 0.958088 0.067877
vt 0.285526 0.593230
vt 0.331964 0.850447
vt 0.969909 0.758045
vt 0.285526 0.640220
vt 0.331964 0.897438
vt 0.958088 0.061593
vt 0.714397 0.417289
vt 0.654703 0.851130
vt 0.972999 0.764329
vt 0.714397 0.464279
vt 0.654703 0.898120
vt 0.954998 0.067877
vt 0.328874 0.850447
vt 0.720681 0.417289
vt 0.972999 0.758045
vt 0.328874 0.897438
vt 0.720681 0.464279
vt 0.954998 0.061593
vt 0.714397 0.359971
vt 0.292002 0.540569
vt 0.723026 0.361846
vt 0.731656 0.359971
vt 0.783180 0.396256
vt 0.731656 0.375815
vt 0.777721 0.844179
vt 0.921018 0.130263
vt 0.783180 0.380412
vt 0.723026 0.380416
vt 0.769092 0.841911
vt 0.714397 0.375815
vt 0.760462 0.844179
vt 0.276725 0.556357
vt 0.714397 0.260353
vt 0.768528 0.305650
vt 0.723026 0.262268
vt 0.731656 0.260353
vt 0.240115 0.540569
vt 0.731656 0.276085
vt 0.760462 0.865513
vt 0.255392 0.556357
vt 0.723026 0.280703
vt 0.769092 0.867746
vt 0.714397 0.276085
vt 0.777721 0.865513
vt 0.921018 0.108930
vt 0.768528 0.289918
vt 0.714397 0.222464
vt 0.851286 0.617466
vt 0.905417 0.593913
vt 0.768528 0.343539
vt 0.723026 0.217863
vt 0.859915 0.619748
vt 0.731656 0.222464
vt 0.868544 0.617466
vt 0.255392 0.502735
vt 0.731656 0.238308
vt 0.240115 0.518523
vt 0.723026 0.236433
vt 0.714397 0.238308
vt 0.768528 0.327696
vt 0.731656 0.337926
vt 0.783180 0.418301
vt 0.723026 0.336011
vt 0.714397 0.337926
vt 0.292002 0.518523
vt 0.714397 0.322194
vt 0.868544 0.596133
vt 0.276724 0.502735
vt 0.723026 0.317576
vt 0.859915 0.593913
vt 0.731656 0.322194
vt 0.851286 0.596133
vt 0.783180 0.434033
vt 0.905417 0.615246
vt 0.776251 0.397862
vt 0.776251 0.384351
vt 0.914089 0.128428
vt 0.775458 0.307289
vt 0.775458 0.293870
vt 0.914089 0.110713
vt 0.912346 0.595737
vt 0.775458 0.339600
vt 0.775458 0.326090
vt 0.776251 0.416663
vt 0.776251 0.430081
vt 0.912346 0.613451
vt 0.287522 0.539061
vt 0.768528 0.397747
vt 0.274901 0.552690
vt 0.768528 0.384072
vt 0.906366 0.128384
vt 0.244657 0.539061
vt 0.783180 0.307174
vt 0.257278 0.552690
vt 0.783180 0.293592
vt 0.906366 0.110760
vt 0.257278 0.506402
vt 0.920069 0.595781
vt 0.783180 0.339879
vt 0.244657 0.520031
vt 0.783180 0.326205
vt 0.287522 0.520031
vt 0.768528 0.416777
vt 0.274901 0.506402
vt 0.768528 0.430359
vt 0.920069 0.613405
vt 0.855393 0.714542
vt 0.898550 0.667555
vt 0.958088 0.192791
vt 0.855393 0.667555
vt 0.898550 0.714544
vt 0.018436 0.965245
vt 0.861677 0.714542
vt 0.701054 0.851130
vt 0.958088 0.199075
vt 0.861677 0.667555
vt 0.701054 0.898120
vt 0.018436 0.971529
vt 0.846776 0.758049
vt 0.901639 0.667555
vt 0.954998 0.192791
vt 0.846776 0.805036
vt 0.901639 0.714544
vt 0.021526 0.965245
vt 0.697964 0.851130
vt 0.853060 0.758049
vt 0.954998 0.199075
vt 0.697964 0.898120
vt 0.853060 0.805036
vt 0.021526 0.971529
vt 0.701054 0.767268
vt 0.849865 0.937965
vt 0.460673 0.977186
vt 0.701054 0.814257
vt 0.849865 0.904617
vt 0.388424 0.977178
vt 0.694770 0.767267
vt 0.463763 0.902492
vt 0.460673 0.972713
vt 0.694770 0.814256
vt 0.463763 0.935841
vt 0.388424 0.972718
vt 0.826337 0.155919
vt 0.846776 0.937965
vt 0.463763 0.977186
vt 0.826337 0.108930
vt 0.846776 0.904617
vt 0.385335 0.977178
vt 0.460673 0.902492
vt 0.820053 0.155920
vt 0.463763 0.972713
vt 0.460673 0.935841
vt 0.820053 0.108931
vt 0.385335 0.972718
vt 0.820053 0.407506
vt 0.920538 0.503419
vt 0.234329 0.973981
vt 0.820053 0.360517
vt 0.920538 0.536865
vt 0.763552 0.979232
vt 0.826337 0.407506
vt 0.388424 0.902493
vt 0.234329 0.978440
vt 0.826337 0.360517
vt 0.388424 0.935845
vt 0.763552 0.974772
vt 0.240115 0.757366
vt 0.923628 0.503419
vt 0.231240 0.973981
vt 0.240115 0.804355
vt 0.923628 0.536865
vt 0.760463 0.979232
vt 0.385335 0.902493
vt 0.246398 0.757366
vt 0.231240 0.978440
vt 0.385335 0.935845
vt 0.246398 0.804355
vt 0.760463 0.974772
vt 0.018436 0.801353
vt 0.132365 0.890369
vt 0.957891 0.115214
vt 0.018436 0.754362
vt 0.132365 0.843378
vt 0.960031 0.600197
vt 0.024720 0.801353
vt 0.610190 0.864323
vt 0.957891 0.108930
vt 0.024720 0.754362
vt 0.610190 0.817332
vt 0.960031 0.593913
vt 0.794211 0.503418
vt 0.129276 0.890369
vt 0.960981 0.115214
vt 0.794211 0.550409
vt 0.129276 0.843378
vt 0.956942 0.600197
vt 0.613279 0.864323
vt 0.800494 0.503418
vt 0.960981 0.108930
vt 0.613279 0.817332
vt 0.800494 0.550409
vt 0.956942 0.593913
vt 0.731656 0.138568
vt 0.614741 0.541252
vt 0.723026 0.136681
vt 0.714397 0.138568
vt 0.768528 0.237233
vt 0.714397 0.122756
vt 0.477931 0.842028
vt 0.917876 0.381851
vt 0.768528 0.253046
vt 0.723026 0.118150
vt 0.469302 0.839784
vt 0.731656 0.122756
vt 0.460673 0.842028
vt 0.599463 0.557040
vt 0.731656 0.038813
vt 0.768528 0.124694
vt 0.723026 0.036909
vt 0.714397 0.038813
vt 0.562854 0.541252
vt 0.714397 0.023050
vt 0.460673 0.863362
vt 0.578131 0.557040
vt 0.723026 0.018436
vt 0.469302 0.865619
vt 0.731656 0.023050
vt 0.477931 0.863362
vt 0.917876 0.360517
vt 0.768528 0.108930
vt 0.731656 0.076671
vt 0.846776 0.865487
vt 0.918126 0.039770
vt 0.768528 0.162551
vt 0.723026 0.081277
vt 0.855405 0.867744
vt 0.714397 0.076671
vt 0.864034 0.865487
vt 0.578131 0.503418
vt 0.714397 0.060859
vt 0.562854 0.519206
vt 0.723026 0.062745
vt 0.731656 0.060859
vt 0.768528 0.146739
vt 0.714397 0.160613
vt 0.768528 0.215188
vt 0.723026 0.162517
vt 0.731656 0.160613
vt 0.614741 0.519206
vt 0.731656 0.176377
vt 0.864034 0.844153
vt 0.599463 0.503418
vt 0.723026 0.180990
vt 0.855405 0.841909
vt 0.714397 0.176377
vt 0.846776 0.844153
vt 0.768528 0.199424
vt 0.918126 0.018436
vt 0.775458 0.235618
vt 0.775458 0.249103
vt 0.910947 0.380036
vt 0.775458 0.126323
vt 0.775458 0.112878
vt 0.910947 0.362321
vt 0.911196 0.037966
vt 0.775458 0.158609
vt 0.775458 0.145124
vt 0.775458 0.216817
vt 0.775458 0.203372
vt 0.911196 0.020251
vt 0.610261 0.539744
vt 0.783180 0.235733
vt 0.597640 0.553373
vt 0.783180 0.249382
vt 0.903224 0.379991
vt 0.567396 0.539744
vt 0.783180 0.126208
vt 0.580017 0.553373
vt 0.783180 0.112600
vt 0.903224 0.362366
vt 0.580017 0.507085
vt 0.903474 0.037920
vt 0.783180 0.158888
vt 0.567396 0.520714
vt 0.783180 0.145239
vt 0.610261 0.520714
vt 0.783180 0.216703
vt 0.597640 0.507085
vt 0.783180 0.203094
vt 0.903474 0.020296
vt 0.869494 0.108930
vt 0.285526 0.844819
vt 0.960500 0.552859
vt 0.869494 0.155918
vt 0.285526 0.891809
vt 0.960500 0.503418
vt 0.863210 0.108930
vt 0.893022 0.758045
vt 0.960500 0.546575
vt 0.863210 0.155918
vt 0.893022 0.805036
vt 0.960500 0.509702
vt 0.863210 0.276654
vt 0.288616 0.844819
vt 0.963590 0.552859
vt 0.863210 0.323642
vt 0.288616 0.891809
vt 0.963590 0.503418
vt 0.889932 0.758045
vt 0.869494 0.276654
vt 0.963590 0.546575
vt 0.889932 0.805036
vt 0.869494 0.323642
vt 0.963590 0.509702
vt 0.766746 0.758049
vt 0.760462 0.904619
vt 0.129275 0.980582
vt 0.766746 0.805038
vt 0.760462 0.937899
vt 0.981564 0.671992
vt 0.760463 0.758049
vt 0.800425 0.937899
vt 0.129275 0.976132
vt 0.760463 0.805038
vt 0.800425 0.904619
vt 0.981564 0.667555
vt 0.471648 0.755922
vt 0.763552 0.904619
vt 0.132365 0.980582
vt 0.471648 0.802911
vt 0.763552 0.937899
vt 0.978474 0.671992
vt 0.803514 0.937899
vt 0.477931 0.755922
vt 0.132365 0.976132
vt 0.803514 0.904619
vt 0.477931 0.802911
vt 0.978474 0.667555
vt 0.657897 0.767267
vt 0.938512 0.667555
vt 0.800425 0.979223
vt 0.657897 0.814256
vt 0.938512 0.700831
vt 0.849865 0.979289
vt 0.651614 0.767268
vt 0.944011 0.900115
vt 0.800425 0.974772
vt 0.651614 0.814257
vt 0.944011 0.933297
vt 0.849865 0.974838
vt 0.291810 0.807946
vt 0.941601 0.667555
vt 0.803514 0.979223
vt 0.291810 0.760957
vt 0.941601 0.700831
vt 0.846776 0.979289
vt 0.940921 0.900115
vt 0.285526 0.807946
vt 0.803514 0.974772
vt 0.940921 0.933297
vt 0.285526 0.760957
vt 0.846776 0.974838
vt 0.134447 0.028757
vt 0.385335 0.457633
vt 0.129276 0.502735
vt 0.226378 0.018436
vt 0.616356 0.465862
vt 0.129276 0.625052
vt 0.500845 0.027349
vt 0.049003 0.028757
vt 0.129276 0.588179
vt 0.323969 0.018436
vt 0.129276 0.722643
vt 0.677525 0.465862
vt 0.092403 0.502735
vt 0.135807 0.455542
vt 0.385335 0.030862
vt 0.616356 0.018436
vt 0.223832 0.465863
vt 0.566981 0.696596
vt 0.092403 0.590901
vt 0.047642 0.455542
vt 0.500845 0.454120
vt 0.326515 0.465863
vt 0.566981 0.593912
vt 0.677525 0.018436
vt 0.616356 0.346621
vt 0.201885 0.137395
vt 0.622430 0.465862
vt 0.135349 0.625052
vt 0.573055 0.593912
vt 0.671451 0.018436
vt 0.135349 0.722643
vt 0.671451 0.465862
vt 0.622430 0.018436
vt 0.573055 0.696596
vt 0.026446 0.138313
vt 0.500845 0.137165
vt 0.348462 0.137395
vt 0.677525 0.346621
vt 0.157003 0.138313
vt 0.385335 0.347817
vt 0.622430 0.346621
vt 0.671451 0.346621
vt 0.665377 0.346621
vt 0.018436 0.137395
vt 0.665377 0.018436
vt 0.579129 0.593912
vt 0.040383 0.465863
vt 0.141423 0.625052
vt 0.628504 0.465862
vt 0.140520 0.018436
vt 0.141423 0.722643
vt 0.665377 0.465862
vt 0.042929 0.018436
vt 0.579129 0.696596
vt 0.628504 0.018436
vt 0.143066 0.465863
vt 0.628504 0.346621
vt 0.165013 0.137395
vt 0.459301 0.347817
vt 0.574812 0.137165
vt 0.018436 0.590901
vt 0.190690 0.715421
vt 0.574812 0.454120
vt 0.203242 0.502735
vt 0.459301 0.457633
vt 0.018436 0.629910
vt 0.574812 0.027349
vt 0.203242 0.588179
vt 0.018436 0.715353
vt 0.018436 0.502735
vt 0.190690 0.627256
vt 0.459301 0.030862
vt 0.463973 0.351240
vt 0.579483 0.133743
vt 0.178296 0.717625
vt 0.579483 0.466546
vt 0.463973 0.466546
vt 0.027382 0.627773
vt 0.579483 0.018436
vt 0.027382 0.717489
vt 0.178296 0.625052
vt 0.463973 0.018436
s 0
usemtl Material.005
f 1/1/1 2/4/1 4/7/1 3/5/1
f 3/5/2 4/7/2 6/11/2 5/9/2
f 5/9/3 6/11/3 8/15/3 7/13/3
f 7/13/4 8/15/4 10/20/4 9/17/4
f 9/18/5 10/21/5 12/25/5 11/23/5
f 11/23/6 12/25/6 14/29/6 13/27/6
f 13/27/7 14/29/7 16/33/7 15/31/7
f 15/31/8 16/33/8 18/37/8 17/35/8
f 17/35/9 18/37/9 20/41/9 19/39/9
f 19/39/10 20/41/10 22/45/10 21/43/10
f 21/43/11 22/45/11 24/49/11 23/47/11
f 23/47/12 24/49/12 26/54/12 25/51/12
f 25/52/13 26/55/13 28/59/13 27/57/13
f 27/57/14 28/59/14 30/63/14 29/61/14
f 29/61/15 30/63/15 32/67/15 31/65/15
f 31/65/16 32/67/16 34/71/16 33/69/16
f 33/69/17 34/71/17 36/75/17 35/73/17
f 35/73/18 36/75/18 38/79/18 37/77/18
f 37/77/19 38/79/19 40/83/19 39/81/19
f 39/81/20 40/83/20 42/88/20 41/85/20
f 41/86/21 42/89/21 44/93/21 43/91/21
f 43/91/22 44/93/22 46/97/22 45/95/22
f 45/95/23 46/97/23 48/101/23 47/99/23
f 47/99/24 48/101/24 50/105/24 49/103/24
f 49/103/25 50/105/25 52/109/25 51/107/25
f 51/107/26 52/109/26 54/113/26 53/111/26
f 53/111/27 54/113/27 56/117/27 55/115/27
f 55/115/28 56/117/28 58/122/28 57/119/28
f 57/120/29 58/123/29 60/127/29 59/125/29
f 59/125/30 60/127/30 62/132/30 61/129/30
f 4/8/31 2/3/31 64/135/31 62/131/31 60/128/31 58/124/31 56/118/31 54/114/31 52/110/31 50/106/31 48/102/31 46/98/31 44/94/31 42/90/31 40/84/31 38/80/31 36/76/31 34/72/31 32/68/31 30/64/31 28/60/31 26/56/31 24/50/31 22/46/31 20/42/31 18/38/31 16/34/31 14/30/31 12/26/31 10/22/31 8/16/31 6/12/31
f 61/129/32 62/132/32 64/136/32 63/133/32
f 63/133/33 64/136/33 2/4/33 1/1/33
f 1/2/34 3/6/34 5/10/34 7/14/34 9/19/34 11/24/34 13/28/34 15/32/34 17/36/34 19/40/34 21/44/34 23/48/34 25/53/34 27/58/34 29/62/34 31/66/34 33/70/34 35/74/34 37/78/34 39/82/34 41/87/34 43/92/34 45/96/34 47/100/34 49/104/34 51/108/34 53/112/34 55/116/34 57/121/34 59/126/34 61/130/34 63/134/34
f 65/137/34 66/140/34 68/146/34 67/143/34
f 67/144/35 68/147/35 72/158/35 71/155/35
f 71/156/31 72/159/31 70/152/31 69/149/31
f 69/150/36 70/153/36 66/141/36 65/138/36
f 67/145/37 71/157/37 69/151/37 65/139/37
f 72/160/38 68/148/38 66/142/38 70/154/38
f 91/203/39 92/205/39 95/211/39 96/213/39
f 92/205/40 93/206/40 94/208/40 95/211/40
f 85/189/41 86/193/41 89/200/41 90/201/41
f 86/193/42 87/195/42 88/198/42 89/200/42
f 79/175/43 80/177/43 83/183/43 84/185/43
f 80/177/44 81/178/44 82/180/44 83/183/44
f 73/161/45 74/163/45 77/170/45 78/172/45
f 74/163/46 75/164/46 76/166/46 77/170/46
f 81/178/47 80/177/47 89/200/47 88/198/47
f 80/177/48 79/175/48 90/201/48 89/200/48
f 78/173/49 77/171/49 83/184/49 82/181/49
f 77/171/50 76/167/50 84/186/50 83/184/50
f 87/196/51 86/194/51 95/212/51 94/209/51
f 86/194/52 85/190/52 96/214/52 95/212/52
f 93/206/53 92/205/53 74/163/53 73/161/53
f 92/205/54 91/203/54 75/164/54 74/163/54
f 75/165/55 91/204/55 103/226/55 97/217/55
f 84/187/56 76/168/56 98/219/56 100/222/56
f 79/176/57 84/188/57 100/221/57 99/220/57
f 91/204/58 96/215/58 104/227/58 103/226/58
f 76/169/59 75/165/59 97/217/59 98/218/59
f 96/216/60 85/191/60 101/223/60 104/228/60
f 90/202/61 79/176/61 99/220/61 102/225/61
f 85/192/62 90/202/62 102/225/62 101/224/62
f 81/179/63 88/199/63 110/242/63 107/234/63
f 93/207/64 73/162/64 105/229/64 111/244/64
f 82/182/65 81/179/65 107/234/65 108/236/65
f 78/174/66 82/182/66 108/236/66 106/231/66
f 94/210/67 93/207/67 111/244/67 112/246/67
f 73/162/68 78/174/68 106/231/68 105/229/68
f 87/197/69 94/210/69 112/246/69 109/239/69
f 88/199/70 87/197/70 109/239/70 110/242/70
f 98/218/71 97/217/71 105/230/71 106/232/71
f 97/217/72 103/226/72 111/245/72 105/230/72
f 104/227/73 112/247/73 111/245/73 103/226/73
f 104/228/74 101/223/74 109/240/74 112/248/74
f 102/225/75 110/243/75 109/241/75 101/224/75
f 102/225/76 99/220/76 107/235/76 110/243/76
f 100/221/77 108/237/77 107/235/77 99/220/77
f 100/222/78 98/219/78 106/233/78 108/238/78
f 113/249/34 114/252/34 116/258/34 115/255/34
f 115/256/38 116/259/38 120/270/38 119/267/38
f 119/268/31 120/271/31 118/264/31 117/261/31
f 117/262/37 118/265/37 114/253/37 113/250/37
f 115/257/35 119/269/35 117/263/35 113/251/35
f 120/272/36 116/260/36 114/254/36 118/266/36
f 121/273/34 122/276/34 124/282/34 123/279/34
f 123/280/79 124/283/79 128/294/79 127/291/79
f 127/292/31 128/295/31 126/288/31 125/285/31
f 125/286/80 126/289/80 122/277/80 121/274/80
f 123/281/81 127/293/81 125/287/81 121/275/81
f 128/296/82 124/284/82 122/278/82 126/290/82
f 129/297/34 130/300/34 132/306/34 131/303/34
f 131/304/82 132/307/82 136/318/82 135/315/82
f 135/316/31 136/319/31 134/312/31 133/309/31
f 133/310/81 134/313/81 130/301/81 129/298/81
f 131/305/79 135/317/79 133/311/79 129/299/79
f 136/320/80 132/308/80 130/302/80 134/314/80
f 137/321/31 138/324/31 140/330/31 139/327/31
f 139/328/83 140/331/83 144/342/83 143/339/83
f 143/340/34 144/343/34 142/336/34 141/333/34
f 141/334/84 142/337/84 138/325/84 137/322/84
f 139/329/85 143/341/85 141/335/85 137/323/85
f 144/344/86 140/332/86 138/326/86 142/338/86
f 163/387/87 164/389/87 167/395/87 168/397/87
f 164/389/88 165/390/88 166/392/88 167/395/88
f 157/373/89 158/377/89 161/384/89 162/385/89
f 158/377/90 159/379/90 160/382/90 161/384/90
f 151/359/91 152/361/91 155/367/91 156/369/91
f 152/361/92 153/362/92 154/364/92 155/367/92
f 145/345/93 146/347/93 149/354/93 150/356/93
f 146/347/94 147/348/94 148/350/94 149/354/94
f 153/362/95 152/361/95 161/384/95 160/382/95
f 152/361/96 151/359/96 162/385/96 161/384/96
f 150/357/97 149/355/97 155/368/97 154/365/97
f 149/355/98 148/351/98 156/370/98 155/368/98
f 159/380/99 158/378/99 167/396/99 166/393/99
f 158/378/100 157/374/100 168/398/100 167/396/100
f 165/390/101 164/389/101 146/347/101 145/345/101
f 164/389/102 163/387/102 147/348/102 146/347/102
f 147/349/103 163/388/103 175/410/103 169/401/103
f 156/371/104 148/352/104 170/403/104 172/406/104
f 151/360/105 156/372/105 172/405/105 171/404/105
f 163/388/106 168/399/106 176/411/106 175/410/106
f 148/353/107 147/349/107 169/401/107 170/402/107
f 168/400/108 157/375/108 173/407/108 176/412/108
f 162/386/109 151/360/109 171/404/109 174/409/109
f 157/376/110 162/386/110 174/409/110 173/408/110
f 153/363/111 160/383/111 182/426/111 179/418/111
f 165/391/112 145/346/112 177/413/112 183/428/112
f 154/366/113 153/363/113 179/418/113 180/420/113
f 150/358/114 154/366/114 180/420/114 178/415/114
f 166/394/115 165/391/115 183/428/115 184/430/115
f 145/346/116 150/358/116 178/415/116 177/413/116
f 159/381/117 166/394/117 184/430/117 181/423/117
f 160/383/118 159/381/118 181/423/118 182/426/118
f 170/402/119 169/401/119 177/414/119 178/416/119
f 169/401/120 175/410/120 183/429/120 177/414/120
f 176/411/121 184/431/121 183/429/121 175/410/121
f 176/412/122 173/407/122 181/424/122 184/432/122
f 174/409/123 182/427/123 181/425/123 173/408/123
f 174/409/124 171/404/124 179/419/124 182/427/124
f 172/405/125 180/421/125 179/419/125 171/404/125
f 172/406/126 170/403/126 178/417/126 180/422/126
f 185/433/31 186/436/31 188/442/31 187/439/31
f 187/440/86 188/443/86 192/454/86 191/451/86
f 191/452/34 192/455/34 190/448/34 189/445/34
f 189/446/85 190/449/85 186/437/85 185/434/85
f 187/441/83 191/453/83 189/447/83 185/435/83
f 192/456/84 188/444/84 186/438/84 190/450/84
f 193/457/31 194/460/31 196/466/31 195/463/31
f 195/464/127 196/467/127 200/478/127 199/475/127
f 199/476/34 200/479/34 198/472/34 197/469/34
f 197/470/128 198/473/128 194/461/128 193/458/128
f 195/465/129 199/477/129 197/471/129 193/459/129
f 200/480/130 196/468/130 194/462/130 198/474/130
f 201/481/31 202/484/31 204/490/31 203/487/31
f 203/488/130 204/491/130 208/502/130 207/499/130
f 207/500/34 208/503/34 206/496/34 205/493/34
f 205/494/129 206/497/129 202/485/129 201/482/129
f 203/489/127 207/501/127 205/495/127 201/483/127
f 208/504/128 204/492/128 202/486/128 206/498/128
f 209/505/1 210/508/1 212/511/1 211/509/1
f 211/509/2 212/511/2 214/515/2 213/513/2
f 213/513/3 214/515/3 216/519/3 215/517/3
f 215/517/4 216/519/4 218/524/4 217/521/4
f 217/522/5 218/525/5 220/529/5 219/527/5
f 219/527/6 220/529/6 222/533/6 221/531/6
f 221/531/7 222/533/7 224/537/7 223/535/7
f 223/535/8 224/537/8 226/541/8 225/539/8
f 225/539/9 226/541/9 228/545/9 227/543/9
f 227/543/10 228/545/10 230/549/10 229/547/10
f 229/547/11 230/549/11 232/553/11 231/551/11
f 231/551/12 232/553/12 234/558/12 233/555/12
f 233/556/13 234/559/13 236/563/13 235/561/13
f 235/561/14 236/563/14 238/567/14 237/565/14
f 237/565/15 238/567/15 240/571/15 239/569/15
f 239/569/16 240/571/16 242/575/16 241/573/16
f 241/573/17 242/575/17 244/579/17 243/577/17
f 243/577/18 244/579/18 246/583/18 245/581/18
f 245/581/19 246/583/19 248/587/19 247/585/19
f 247/585/20 248/587/20 250/592/20 249/589/20
f 249/590/21 250/593/21 252/597/21 251/595/21
f 251/595/22 252/597/22 254/601/22 253/599/22
f 253/599/23 254/601/23 256/605/23 255/603/23
f 255/603/24 256/605/24 258/609/24 257/607/24
f 257/607/25 258/609/25 260/613/25 259/611/25
f 259/611/26 260/613/26 262/617/26 261/615/26
f 261/615/27 262/617/27 264/621/27 263/619/27
f 263/619/28 264/621/28 266/626/28 265/623/28
f 265/624/29 266/627/29 268/631/29 267/629/29
f 267/629/30 268/631/30 270/636/30 269/633/30
f 212/512/31 210/507/31 272/639/31 270/635/31 268/632/31 266/628/31 264/622/31 262/618/31 260/614/31 258/610/31 256/606/31 254/602/31 252/598/31 250/594/31 248/588/31 246/584/31 244/580/31 242/576/31 240/572/31 238/568/31 236/564/31 234/560/31 232/554/31 230/550/31 228/546/31 226/542/31 224/538/31 222/534/31 220/530/31 218/526/31 216/520/31 214/516/31
f 269/633/32 270/636/32 272/640/32 271/637/32
f 271/637/33 272/640/33 210/508/33 209/505/33
f 209/506/34 211/510/34 213/514/34 215/518/34 217/523/34 219/528/34 221/532/34 223/536/34 225/540/34 227/544/34 229/548/34 231/552/34 233/557/34 235/562/34 237/566/34 239/570/34 241/574/34 243/578/34 245/582/34 247/586/34 249/591/34 251/596/34 253/600/34 255/604/34 257/608/34 259/612/34 261/616/34 263/620/34 265/625/34 267/630/34 269/634/34 271/638/34
f 273/641/34 274/644/34 276/650/34 275/647/34
f 275/648/35 276/651/35 280/662/35 279/659/35
f 279/660/31 280/663/31 278/656/31 277/653/31
f 277/654/36 278/657/36 274/645/36 273/642/36
f 275/649/37 279/661/37 277/655/37 273/643/37
f 280/664/38 276/652/38 274/646/38 278/658/38
f 299/707/131 300/709/131 303/715/131 304/717/131
f 300/709/132 301/710/132 302/712/132 303/715/132
f 293/693/133 294/697/133 297/704/133 298/705/133
f 294/697/134 295/699/134 296/702/134 297/704/134
f 287/679/135 288/681/135 291/687/135 292/689/135
f 288/681/136 289/682/136 290/684/136 291/687/136
f 281/665/137 282/667/137 285/674/137 286/676/137
f 282/667/138 283/668/138 284/670/138 285/674/138
f 289/682/139 288/681/139 297/704/139 296/702/139
f 288/681/140 287/679/140 298/705/140 297/704/140
f 286/677/141 285/675/141 291/688/141 290/685/141
f 285/675/142 284/671/142 292/690/142 291/688/142
f 295/700/143 294/698/143 303/716/143 302/713/143
f 294/698/144 293/694/144 304/718/144 303/716/144
f 301/710/145 300/709/145 282/667/145 281/665/145
f 300/709/146 299/707/146 283/668/146 282/667/146
f 283/669/147 299/708/147 311/730/147 305/721/147
f 292/691/148 284/672/148 306/723/148 308/726/148
f 287/680/149 292/692/149 308/725/149 307/724/149
f 299/708/150 304/719/150 312/731/150 311/730/150
f 284/673/151 283/669/151 305/721/151 306/722/151
f 304/720/152 293/695/152 309/727/152 312/732/152
f 298/706/153 287/680/153 307/724/153 310/729/153
f 293/696/154 298/706/154 310/729/154 309/728/154
f 289/683/155 296/703/155 318/746/155 315/738/155
f 301/711/156 281/666/156 313/733/156 319/748/156
f 290/686/157 289/683/157 315/738/157 316/740/157
f 286/678/158 290/686/158 316/740/158 314/735/158
f 302/714/159 301/711/159 319/748/159 320/750/159
f 281/666/160 286/678/160 314/735/160 313/733/160
f 295/701/161 302/714/161 320/750/161 317/743/161
f 296/703/162 295/701/162 317/743/162 318/746/162
f 306/722/163 305/721/163 313/734/163 314/736/163
f 305/721/164 311/730/164 319/749/164 313/734/164
f 312/731/165 320/751/165 319/749/165 311/730/165
f 312/732/166 309/727/166 317/744/166 320/752/166
f 310/729/167 318/747/167 317/745/167 309/728/167
f 310/729/168 307/724/168 315/739/168 318/747/168
f 308/725/169 316/741/169 315/739/169 307/724/169
f 308/726/170 306/723/170 314/737/170 316/742/170
f 321/753/34 322/756/34 324/762/34 323/759/34
f 323/760/38 324/763/38 328/774/38 327/771/38
f 327/772/31 328/775/31 326/768/31 325/765/31
f 325/766/37 326/769/37 322/757/37 321/754/37
f 323/761/35 327/773/35 325/767/35 321/755/35
f 328/776/36 324/764/36 322/758/36 326/770/36
f 329/777/34 330/780/34 332/786/34 331/783/34
f 331/784/79 332/787/79 336/798/79 335/795/79
f 335/796/31 336/799/31 334/792/31 333/789/31
f 333/790/80 334/793/80 330/781/80 329/778/80
f 331/785/81 335/797/81 333/791/81 329/779/81
f 336/800/82 332/788/82 330/782/82 334/794/82
f 337/801/34 338/804/34 340/810/34 339/807/34
f 339/808/82 340/811/82 344/822/82 343/819/82
f 343/820/31 344/823/31 342/816/31 341/813/31
f 341/814/81 342/817/81 338/805/81 337/802/81
f 339/809/79 343/821/79 341/815/79 337/803/79
f 344/824/80 340/812/80 338/806/80 342/818/80
f 345/825/31 346/828/31 348/834/31 347/831/31
f 347/832/83 348/835/83 352/846/83 351/843/83
f 351/844/34 352/847/34 350/840/34 349/837/34
f 349/838/84 350/841/84 346/829/84 345/826/84
f 347/833/85 351/845/85 349/839/85 345/827/85
f 352/848/86 348/836/86 346/830/86 350/842/86
f 371/891/171 372/893/171 375/899/171 376/901/171
f 372/893/172 373/894/172 374/896/172 375/899/172
f 365/877/173 366/881/173 369/888/173 370/889/173
f 366/881/174 367/883/174 368/886/174 369/888/174
f 359/863/175 360/865/175 363/871/175 364/873/175
f 360/865/176 361/866/176 362/868/176 363/871/176
f 353/849/177 354/851/177 357/858/177 358/860/177
f 354/851/178 355/852/178 356/854/178 357/858/178
f 361/866/179 360/865/179 369/888/179 368/886/179
f 360/865/180 359/863/180 370/889/180 369/888/180
f 358/861/181 357/859/181 363/872/181 362/869/181
f 357/859/182 356/855/182 364/874/182 363/872/182
f 367/884/183 366/882/183 375/900/183 374/897/183
f 366/882/184 365/878/184 376/902/184 375/900/184
f 373/894/185 372/893/185 354/851/185 353/849/185
f 372/893/186 371/891/186 355/852/186 354/851/186
f 355/853/187 371/892/187 383/914/187 377/905/187
f 364/875/188 356/856/188 378/907/188 380/910/188
f 359/864/189 364/876/189 380/909/189 379/908/189
f 371/892/190 376/903/190 384/915/190 383/914/190
f 356/857/191 355/853/191 377/905/191 378/906/191
f 376/904/192 365/879/192 381/911/192 384/916/192
f 370/890/193 359/864/193 379/908/193 382/913/193
f 365/880/194 370/890/194 382/913/194 381/912/194
f 361/867/195 368/887/195 390/930/195 387/922/195
f 373/895/196 353/850/196 385/917/196 391/932/196
f 362/870/197 361/867/197 387/922/197 388/924/197
f 358/862/198 362/870/198 388/924/198 386/919/198
f 374/898/199 373/895/199 391/932/199 392/934/199
f 353/850/200 358/862/200 386/919/200 385/917/200
f 367/885/201 374/898/201 392/934/201 389/927/201
f 368/887/202 367/885/202 389/927/202 390/930/202
f 378/906/203 377/905/203 385/918/203 386/920/203
f 377/905/204 383/914/204 391/933/204 385/918/204
f 384/915/205 392/935/205 391/933/205 383/914/205
f 384/916/206 381/911/206 389/928/206 392/936/206
f 382/913/207 390/931/207 389/929/207 381/912/207
f 382/913/208 379/908/208 387/923/208 390/931/208
f 380/909/209 388/925/209 387/923/209 379/908/209
f 380/910/210 378/907/210 386/921/210 388/926/210
f 393/937/31 394/940/31 396/946/31 395/943/31
f 395/944/86 396/947/86 400/958/86 399/955/86
f 399/956/34 400/959/34 398/952/34 397/949/34
f 397/950/85 398/953/85 394/941/85 393/938/85
f 395/945/83 399/957/83 397/951/83 393/939/83
f 400/960/84 396/948/84 394/942/84 398/954/84
f 401/961/31 402/964/31 404/970/31 403/967/31
f 403/968/127 404/971/127 408/982/127 407/979/127
f 407/980/34 408/983/34 406/976/34 405/973/34
f 405/974/128 406/977/128 402/965/128 401/962/128
f 403/969/129 407/981/129 405/975/129 401/963/129
f 408/984/130 404/972/130 402/966/130 406/978/130
f 409/985/31 410/988/31 412/994/31 411/991/31
f 411/992/130 412/995/130 416/1006/130 415/1003/130
f 415/1004/34 416/1007/34 414/1000/34 413/997/34
f 413/998/129 414/1001/129 410/989/129 409/986/129
f 411/993/127 415/1005/127 413/999/127 409/987/127
f 416/1008/128 412/996/128 410/990/128 414/1002/128
s 1
f 421/1021/83 423/1027/83 443/1069/83 446/1078/83
f 434/1050/211 435/1051/211 436/1053/211 427/1038/211
f 427/1037/83 436/1054/83 439/1062/83 429/1042/83
f 425/1034/86 418/1012/86 420/1018/86 431/1045/86
f 426/1036/84 437/1056/84 438/1059/84 428/1039/84
f 433/1049/212 440/1065/212 437/1057/212 426/1035/212
f 425/1033/212 433/1049/212 426/1035/212 418/1013/212
f 422/1024/213 429/1041/213 433/1049/213 425/1033/213
f 429/1041/213 439/1063/213 440/1065/213 433/1049/213
f 418/1014/84 426/1036/84 428/1039/84 420/1019/84
f 422/1025/86 425/1034/86 431/1045/86 424/1030/86
f 424/1031/83 427/1037/83 429/1042/83 422/1026/83
f 431/1046/211 434/1050/211 427/1038/211 424/1032/211
f 420/1020/214 428/1040/214 434/1050/214 431/1046/214
f 428/1040/214 438/1060/214 435/1051/214 434/1050/214
f 430/1044/214 419/1015/214 445/1075/214 442/1068/214
f 430/1043/85 423/1028/85 436/1055/85 435/1052/85
f 417/1009/85 419/1016/85 438/1061/85 437/1058/85
f 423/1028/85 421/1022/85 439/1064/85 436/1055/85
f 432/1047/85 417/1009/85 437/1058/85 440/1066/85
f 419/1016/85 430/1043/85 435/1052/85 438/1061/85
f 421/1022/85 432/1047/85 440/1066/85 439/1064/85
f 446/1079/215 443/1070/215 449/1083/215 452/1089/215
f 442/1068/216 445/1075/216 451/1087/216 448/1082/216
f 423/1029/211 430/1044/211 442/1068/211 443/1071/211
f 432/1048/213 421/1023/213 446/1080/213 441/1067/213
f 417/1010/212 432/1048/212 441/1067/212 444/1073/212
f 419/1017/84 417/1011/84 444/1072/84 445/1076/84
f 443/1071/217 442/1068/217 448/1082/217 449/1084/217
f 441/1067/218 446/1080/218 452/1090/218 447/1081/218
f 444/1073/219 441/1067/219 447/1081/219 450/1085/219
f 445/1077/220 444/1074/220 450/1086/220 451/1088/220
